0
SECTION
2
HEADER
9
$EXTMIN
10
    -210.000000
20
    -148.500000
9
$EXTMAX
10
     210.000000
20
     148.500000
9
$LIMMIN
10
    -210.000000
20
    -148.500000
9
$LIMMAX
10
     210.000000
20
     148.500000
9
$CLAYER
7
daxcad1
0
ENDSEC
0
SECTION
2
TABLES
0
TABLE
2
LTYPE
70
 10
0
LTYPE
2
DAXCADSOLID
70
   64
3
Daxcad line "SOLID" 1.0
72
   65
73
  0
40
0.0000    
0
LTYPE
2
DAXCADSHORTDASH
70
   64
3
Daxcad line "SHORT DASH" 3.0 3.0
72
   65
73
  2
40
6.0000    
49
 3.000    
49
-3.000    
0
LTYPE
2
DAXCADLONGDASH
70
   64
3
Daxcad line "LONG DASH"  6.0 6.0
72
   65
73
  2
40
12.000    
49
 6.000    
49
-6.000    
0
LTYPE
2
DAXCADBROKEN
70
   64
3
Daxcad line "BROKEN" 9.6 2.4
72
   65
73
  2
40
12.000    
49
 9.600    
49
-2.400    
0
LTYPE
2
DAXCADLONGCENTRE
70
   64
3
Daxcad line "LONG CENTRE" 10.8 1.8 3.6 1.8
72
   65
73
  4
40
18.000    
49
 10.80    
49
-1.800    
49
 3.600    
49
-1.800    
0
LTYPE
2
DAXCADSINGLECENTRE
70
   64
3
Daxcad line "SINGLE CENTRE" 12.6 1.8 1.8 1.8
72
   65
73
  4
40
18.000    
49
 12.60    
49
-1.800    
49
 1.800    
49
-1.800    
0
LTYPE
2
DAXCADDOUBLECENTRE
70
   64
3
Daxcad line "DOUBLE CENTRE" 12.0 2.4 2.4 2.4 2.4 2.4
72
   65
73
  6
40
24.000    
49
 12.00    
49
-2.400    
49
 2.400    
49
-2.400    
49
 2.400    
49
-2.400    
0
LTYPE
2
DAXCADEXAMPLE1
70
   64
3
Daxcad line "EXAMPLE 1" 1.0 1.0
72
   65
73
  2
40
2.0000    
49
 1.000    
49
-1.000    
0
LTYPE
2
DAXCADEXAMPLE2
70
   64
3
Daxcad line "EXAMPLE 2" 4.5 4.5
72
   65
73
  2
40
9.0000    
49
 4.500    
49
-4.500    
0
LTYPE
2
DAXCADEXAMPLE3
70
   64
3
Daxcad line "EXAMPLE 3" 4.5 1.0
72
   65
73
  2
40
5.5000    
49
 4.500    
49
-1.000    
0
ENDTAB
0
TABLE
2
LAYER
70
255
0
LAYER
2
DAXCAD1
70
0
62
  7
6
DAXCADSOLID
0
ENDTAB
0
ENDSEC
0
SECTION
2
BLOCKS
0
BLOCK
8
DAXCAD1
62
  7
2
DAXCAD1MARKER
10
0
20
0
70
2
0
LINE
8
DAXCAD1
62
  7
10
       2.000000
20
       0.000000
11
      -2.000000
21
       0.000000
0
LINE
8
DAXCAD1
62
  7
10
       0.000000
20
      -2.000000
11
       0.000000
21
       2.000000
0
ENDBLK
0
BLOCK
8
DAXCAD1
62
  7
2
DAXCAD2MARKER
10
0
20
0
70
2
0
LINE
8
DAXCAD1
62
  7
10
       2.000000
20
       0.000000
11
      -2.000000
21
       0.000000
0
LINE
8
DAXCAD1
62
  7
10
       0.000000
20
      -2.000000
11
       0.000000
21
       2.000000
0
LINE
8
DAXCAD1
62
  7
10
       2.000000
20
       2.000000
11
      -2.000000
21
      -2.000000
0
LINE
8
DAXCAD1
62
  7
10
      -2.000000
20
       2.000000
11
       2.000000
21
      -2.000000
0
ENDBLK
0
BLOCK
8
DAXCAD1
62
  7
2
DAXCAD3MARKER
10
0
20
0
70
2
0
LINE
8
DAXCAD1
62
  7
10
       2.000000
20
       2.000000
11
      -2.000000
21
      -2.000000
0
LINE
8
DAXCAD1
62
  7
10
      -2.000000
20
       2.000000
11
       2.000000
21
      -2.000000
0
ENDBLK
0
BLOCK
8
DAXCAD1
62
  7
2
DAXCAD4MARKER
10
0
20
0
70
2
0
LINE
8
DAXCAD1
62
  7
10
       2.000000
20
       0.000000
11
      -2.000000
21
       0.000000
0
LINE
8
DAXCAD1
62
  7
10
       0.000000
20
      -2.000000
11
       0.000000
21
       2.000000
0
CIRCLE
8
DAXCAD1
62
  7
10
    0.00000    
20
    0.00000    
40
    3.00000    
0
ENDBLK
0
BLOCK
8
DAXCAD1
62
  7
2
DAXCAD5MARKER
10
0
20
0
70
2
0
LINE
8
DAXCAD1
62
  7
10
       2.000000
20
       2.000000
11
       2.000000
21
      -2.000000
0
LINE
8
DAXCAD1
62
  7
10
       2.000000
20
      -2.000000
11
      -2.000000
21
      -2.000000
0
LINE
8
DAXCAD1
62
  7
10
      -2.000000
20
      -2.000000
11
      -2.000000
21
       2.000000
0
LINE
8
DAXCAD1
62
  7
10
      -2.000000
20
       2.000000
11
       2.000000
21
       2.000000
0
LINE
8
DAXCAD1
62
  7
10
       4.000000
20
       0.000000
11
      -4.000000
21
       0.000000
0
LINE
8
DAXCAD1
62
  7
10
       0.000000
20
      -4.000000
11
       0.000000
21
       4.000000
0
ENDBLK
0
BLOCK
8
DAXCAD1
62
  7
2
DAXCAD6MARKER
10
0
20
0
70
2
0
LINE
8
DAXCAD1
62
  7
10
       2.000000
20
       2.000000
11
      -2.000000
21
      -2.000000
0
LINE
8
DAXCAD1
62
  7
10
      -2.000000
20
       2.000000
11
       2.000000
21
      -2.000000
0
CIRCLE
8
DAXCAD1
62
  7
10
    0.00000    
20
    0.00000    
40
    3.00000    
0
ENDBLK
0
BLOCK
8
DAXCAD1
62
  7
2
DAXCAD7MARKER
10
0
20
0
70
2
0
LINE
8
DAXCAD1
62
  7
10
       0.000000
20
      -4.000000
11
       0.000000
21
       4.000000
0
LINE
8
DAXCAD1
62
  7
10
      -4.000000
20
       0.000000
11
       4.000000
21
       0.000000
0
ARC
8
DAXCAD1
62
  7
10
    0.00000    
20
    0.00000    
40
    3.00000    
50
    0.00000    
51
    90.0000    
0
ARC
8
DAXCAD1
62
  7
10
    0.00000    
20
    0.00000    
40
    2.50000    
50
    0.00000    
51
    90.0000    
0
ARC
8
DAXCAD1
62
  7
10
    0.00000    
20
    0.00000    
40
    2.00000    
50
    0.00000    
51
    90.0000    
0
ARC
8
DAXCAD1
62
  7
10
    0.00000    
20
    0.00000    
40
    1.50000    
50
    0.00000    
51
    90.0000    
0
ARC
8
DAXCAD1
62
  7
10
    0.00000    
20
    0.00000    
40
    1.00000    
50
    0.00000    
51
    90.0000    
0
ARC
8
DAXCAD1
62
  7
10
    0.00000    
20
    0.00000    
40
   0.500000    
50
    0.00000    
51
    90.0000    
0
ARC
8
DAXCAD1
62
  7
10
    0.00000    
20
    0.00000    
40
    3.00000    
50
    90.0000    
51
    180.000    
0
ARC
8
DAXCAD1
62
  7
10
    0.00000    
20
    0.00000    
40
    3.00000    
50
    180.000    
51
    270.000    
0
ARC
8
DAXCAD1
62
  7
10
    0.00000    
20
    0.00000    
40
    2.50000    
50
    180.000    
51
    270.000    
0
ARC
8
DAXCAD1
62
  7
10
    0.00000    
20
    0.00000    
40
    2.00000    
50
    180.000    
51
    270.000    
0
ARC
8
DAXCAD1
62
  7
10
    0.00000    
20
    0.00000    
40
    1.50000    
50
    180.000    
51
    270.000    
0
ARC
8
DAXCAD1
62
  7
10
    0.00000    
20
    0.00000    
40
    1.00000    
50
    180.000    
51
    270.000    
0
ARC
8
DAXCAD1
62
  7
10
    0.00000    
20
    0.00000    
40
   0.500000    
50
    180.000    
51
    270.000    
0
ARC
8
DAXCAD1
62
  7
10
    0.00000    
20
    0.00000    
40
    3.00000    
50
    270.000    
51
    360.000    
0
ENDBLK
0
BLOCK
8
DAXCAD1
62
  7
2
DAXCAD8MARKER
10
0
20
0
70
2
0
LINE
8
DAXCAD1
62
  7
10
       0.000000
20
      -4.000000
11
       0.000000
21
       4.000000
0
LINE
8
DAXCAD1
62
  7
10
      -8.000000
20
       0.000000
11
       8.000000
21
       0.000000
0
LINE
8
DAXCAD1
62
  7
10
       8.000000
20
       0.000000
11
       5.000000
21
      -2.000000
0
LINE
8
DAXCAD1
62
  7
10
       5.000000
20
      -2.000000
11
       5.000000
21
       2.000000
0
LINE
8
DAXCAD1
62
  7
10
       5.000000
20
       2.000000
11
       8.000000
21
       0.000000
0
ARC
8
DAXCAD1
62
  7
10
    0.00000    
20
    0.00000    
40
    4.00000    
50
    0.00000    
51
    90.0000    
0
ARC
8
DAXCAD1
62
  7
10
    0.00000    
20
    0.00000    
40
    4.00000    
50
    90.0000    
51
    180.000    
0
ARC
8
DAXCAD1
62
  7
10
    0.00000    
20
    0.00000    
40
    4.00000    
50
    180.000    
51
    270.000    
0
ARC
8
DAXCAD1
62
  7
10
    0.00000    
20
    0.00000    
40
    4.00000    
50
    270.000    
51
    360.000    
0
ENDBLK
0
BLOCK
8
DAXCAD1
62
  7
2
DAXCAD9MARKER
10
0
20
0
70
2
0
LINE
8
DAXCAD1
62
  7
10
       0.000000
20
       0.000000
11
       8.000000
21
       0.000000
0
LINE
8
DAXCAD1
62
  7
10
       8.000000
20
       0.000000
11
       5.000000
21
      -2.000000
0
LINE
8
DAXCAD1
62
  7
10
       5.000000
20
      -2.000000
11
       5.000000
21
       2.000000
0
LINE
8
DAXCAD1
62
  7
10
       5.000000
20
       2.000000
11
       8.000000
21
       0.000000
0
ARC
8
DAXCAD1
62
  7
10
    0.00000    
20
    0.00000    
40
    4.00000    
50
    0.00000    
51
    90.0000    
0
ARC
8
DAXCAD1
62
  7
10
    0.00000    
20
    0.00000    
40
    4.00000    
50
    90.0000    
51
    180.000    
0
ARC
8
DAXCAD1
62
  7
10
    0.00000    
20
    0.00000    
40
    4.00000    
50
    180.000    
51
    270.000    
0
ARC
8
DAXCAD1
62
  7
10
    0.00000    
20
    0.00000    
40
    4.00000    
50
    270.000    
51
    360.000    
0
ENDBLK
0
BLOCK
8
DAXCAD1
62
  7
2
DAXCAD10MARKER
10
0
20
0
70
2
0
LINE
8
DAXCAD1
62
  7
10
       2.000000
20
       0.000000
11
      -6.000000
21
       0.000000
0
LINE
8
DAXCAD1
62
  7
10
       2.000000
20
       0.000000
11
      -1.000000
21
       2.000000
0
LINE
8
DAXCAD1
62
  7
10
      -1.000000
20
       2.000000
11
      -1.000000
21
      -2.000000
0
LINE
8
DAXCAD1
62
  7
10
      -1.000000
20
      -2.000000
11
       2.000000
21
       0.000000
0
ARC
8
DAXCAD1
62
  7
10
    0.00000    
20
    0.00000    
40
    4.00000    
50
    0.00000    
51
    90.0000    
0
ARC
8
DAXCAD1
62
  7
10
    0.00000    
20
    0.00000    
40
    4.00000    
50
    90.0000    
51
    180.000    
0
ARC
8
DAXCAD1
62
  7
10
    0.00000    
20
    0.00000    
40
    4.00000    
50
    180.000    
51
    270.000    
0
ARC
8
DAXCAD1
62
  7
10
    0.00000    
20
    0.00000    
40
    4.00000    
50
    270.000    
51
    360.000    
0
ENDBLK
0
ENDSEC
0
SECTION
2
ENTITIES
0
LINE
8
DAXCAD1
62
  7
6
DAXCADSOLID
10
       0.004042
20
      -0.091303
11
       0.007453
21
      -0.088746
0
LINE
8
DAXCAD1
62
  7
6
DAXCADSOLID
10
      -0.002689
20
      -0.096351
11
       0.004042
21
      -0.091303
0
LINE
8
DAXCAD1
62
  7
6
DAXCADSOLID
10
      -0.011156
20
      -0.102699
11
      -0.002689
21
      -0.096351
0
LINE
8
DAXCAD1
62
  7
6
DAXCADSOLID
10
      -0.021838
20
      -0.110707
11
      -0.011156
21
      -0.102699
0
LINE
8
DAXCAD1
62
  7
6
DAXCADSOLID
10
      -0.032129
20
      -0.118424
11
      -0.021838
21
      -0.110707
0
LINE
8
DAXCAD1
62
  7
6
DAXCADSOLID
10
      -0.042899
20
      -0.126500
11
      -0.032129
21
      -0.118424
0
LINE
8
DAXCAD1
62
  7
6
DAXCADSOLID
10
      -0.053910
20
      -0.134756
11
      -0.042899
21
      -0.126500
0
LINE
8
DAXCAD1
62
  7
6
DAXCADSOLID
10
      -0.064888
20
      -0.142988
11
      -0.053910
21
      -0.134756
0
LINE
8
DAXCAD1
62
  7
6
DAXCADSOLID
10
      -0.076438
20
      -0.151647
11
      -0.064888
21
      -0.142988
0
LINE
8
DAXCAD1
62
  7
6
DAXCADSOLID
10
      -0.085502
20
      -0.158444
11
      -0.076438
21
      -0.151647
0
LINE
8
DAXCAD1
62
  7
6
DAXCADSOLID
10
      -0.093041
20
      -0.164098
11
      -0.085502
21
      -0.158444
0
LINE
8
DAXCAD1
62
  7
6
DAXCADSOLID
10
      -0.096871
20
      -0.166969
11
      -0.093041
21
      -0.164098
0
LINE
8
DAXCAD1
62
  7
6
DAXCADSOLID
10
      -0.087700
20
      -0.158443
11
      -0.088164
21
      -0.159741
0
LINE
8
DAXCAD1
62
  7
6
DAXCADSOLID
10
      -0.090123
20
      -0.161099
11
      -0.088164
21
      -0.159741
0
LINE
8
DAXCAD1
62
  7
6
DAXCADSOLID
10
      -0.087700
20
      -0.158443
11
      -0.079942
21
      -0.169960
0
LINE
8
DAXCAD1
62
  7
6
DAXCADSOLID
10
      -0.090123
20
      -0.161099
11
      -0.090789
21
      -0.162467
0
LINE
8
DAXCAD1
62
  7
6
DAXCADSOLID
10
      -0.091168
20
      -0.160927
11
      -0.090123
21
      -0.161099
0
LINE
8
DAXCAD1
62
  7
6
DAXCADSOLID
10
      -0.090866
20
      -0.159382
11
      -0.091168
21
      -0.160927
0
LINE
8
DAXCAD1
62
  7
6
DAXCADSOLID
10
      -0.090123
20
      -0.161099
11
      -0.090866
21
      -0.159382
0
LINE
8
DAXCAD1
62
  7
6
DAXCADSOLID
10
      -0.080451
20
      -0.171349
11
      -0.079942
21
      -0.169960
0
LINE
8
DAXCAD1
62
  7
6
DAXCADSOLID
10
      -0.088164
20
      -0.159741
11
      -0.080451
21
      -0.171349
0
LINE
8
DAXCAD1
62
  7
6
DAXCADSOLID
10
      -0.089492
20
      -0.158529
11
      -0.088164
21
      -0.159741
0
LINE
8
DAXCAD1
62
  7
6
DAXCADSOLID
10
      -0.087700
20
      -0.158443
11
      -0.089492
21
      -0.158529
0
LINE
8
DAXCAD1
62
  7
6
DAXCADSOLID
10
      -0.082569
20
      -0.172686
11
      -0.084111
21
      -0.172610
0
LINE
8
DAXCAD1
62
  7
6
DAXCADSOLID
10
      -0.082854
20
      -0.173620
11
      -0.082569
21
      -0.172686
0
LINE
8
DAXCAD1
62
  7
6
DAXCADSOLID
10
      -0.081266
20
      -0.173604
11
      -0.082854
21
      -0.173620
0
LINE
8
DAXCAD1
62
  7
6
DAXCADSOLID
10
      -0.082569
20
      -0.172686
11
      -0.081266
21
      -0.173604
0
LINE
8
DAXCAD1
62
  7
6
DAXCADSOLID
10
      -0.080451
20
      -0.171349
11
      -0.082569
21
      -0.172686
0
LINE
8
DAXCAD1
62
  7
6
DAXCADSOLID
10
      -0.080184
20
      -0.173003
11
      -0.080451
21
      -0.171349
0
LINE
8
DAXCAD1
62
  7
6
DAXCADSOLID
10
      -0.079721
20
      -0.171706
11
      -0.080184
21
      -0.173003
0
LINE
8
DAXCAD1
62
  7
6
DAXCADSOLID
10
      -0.080451
20
      -0.171349
11
      -0.079721
21
      -0.171706
0
LINE
8
DAXCAD1
62
  7
6
DAXCADSOLID
10
      -0.082569
20
      -0.172686
11
      -0.080451
21
      -0.171349
0
LINE
8
DAXCAD1
62
  7
6
DAXCADSOLID
10
      -0.090123
20
      -0.161099
11
      -0.082569
21
      -0.172686
0
LINE
8
DAXCAD1
62
  7
6
DAXCADSOLID
10
      -0.079721
20
      -0.171706
11
      -0.079942
21
      -0.169960
0
LINE
8
DAXCAD1
62
  7
6
DAXCADSOLID
10
      -0.080184
20
      -0.173003
11
      -0.079721
21
      -0.171706
0
LINE
8
DAXCAD1
62
  7
6
DAXCADSOLID
10
      -0.081266
20
      -0.173604
11
      -0.080184
21
      -0.173003
0
LINE
8
DAXCAD1
62
  7
6
DAXCADSOLID
10
      -0.082854
20
      -0.173620
11
      -0.081266
21
      -0.173604
0
LINE
8
DAXCAD1
62
  7
6
DAXCADSOLID
10
      -0.084111
20
      -0.172610
11
      -0.082854
21
      -0.173620
0
LINE
8
DAXCAD1
62
  7
6
DAXCADSOLID
10
      -0.090789
20
      -0.162467
11
      -0.084111
21
      -0.172610
0
LINE
8
DAXCAD1
62
  7
6
DAXCADSOLID
10
      -0.091168
20
      -0.160927
11
      -0.090789
21
      -0.162467
0
LINE
8
DAXCAD1
62
  7
6
DAXCADSOLID
10
      -0.090866
20
      -0.159382
11
      -0.091168
21
      -0.160927
0
LINE
8
DAXCAD1
62
  7
6
DAXCADSOLID
10
      -0.089492
20
      -0.158529
11
      -0.090866
21
      -0.159382
0
LINE
8
DAXCAD1
62
  7
6
DAXCADSOLID
10
      -0.087700
20
      -0.158443
11
      -0.089492
21
      -0.158529
0
LINE
8
DAXCAD1
62
  7
6
DAXCADSOLID
10
       0.001362
20
      -0.091189
11
       0.000899
21
      -0.092487
0
LINE
8
DAXCAD1
62
  7
6
DAXCADSOLID
10
      -0.001060
20
      -0.093844
11
       0.000899
21
      -0.092487
0
LINE
8
DAXCAD1
62
  7
6
DAXCADSOLID
10
       0.001362
20
      -0.091189
11
       0.009120
21
      -0.102707
0
LINE
8
DAXCAD1
62
  7
6
DAXCADSOLID
10
      -0.001060
20
      -0.093844
11
      -0.001727
21
      -0.095211
0
LINE
8
DAXCAD1
62
  7
6
DAXCADSOLID
10
      -0.002105
20
      -0.093672
11
      -0.001060
21
      -0.093844
0
LINE
8
DAXCAD1
62
  7
6
DAXCADSOLID
10
      -0.001803
20
      -0.092126
11
      -0.002105
21
      -0.093672
0
LINE
8
DAXCAD1
62
  7
6
DAXCADSOLID
10
      -0.001060
20
      -0.093844
11
      -0.001803
21
      -0.092126
0
LINE
8
DAXCAD1
62
  7
6
DAXCADSOLID
10
       0.008612
20
      -0.104095
11
       0.009120
21
      -0.102707
0
LINE
8
DAXCAD1
62
  7
6
DAXCADSOLID
10
       0.000899
20
      -0.092487
11
       0.008612
21
      -0.104095
0
LINE
8
DAXCAD1
62
  7
6
DAXCADSOLID
10
      -0.000428
20
      -0.091274
11
       0.000899
21
      -0.092487
0
LINE
8
DAXCAD1
62
  7
6
DAXCADSOLID
10
       0.001362
20
      -0.091189
11
      -0.000428
21
      -0.091274
0
LINE
8
DAXCAD1
62
  7
6
DAXCADSOLID
10
       0.006495
20
      -0.105431
11
       0.004952
21
      -0.105356
0
LINE
8
DAXCAD1
62
  7
6
DAXCADSOLID
10
       0.006208
20
      -0.106364
11
       0.006495
21
      -0.105431
0
LINE
8
DAXCAD1
62
  7
6
DAXCADSOLID
10
       0.007796
20
      -0.106349
11
       0.006208
21
      -0.106364
0
LINE
8
DAXCAD1
62
  7
6
DAXCADSOLID
10
       0.006495
20
      -0.105431
11
       0.007796
21
      -0.106349
0
LINE
8
DAXCAD1
62
  7
6
DAXCADSOLID
10
       0.008612
20
      -0.104095
11
       0.006495
21
      -0.105431
0
LINE
8
DAXCAD1
62
  7
6
DAXCADSOLID
10
       0.008879
20
      -0.105748
11
       0.008612
21
      -0.104095
0
LINE
8
DAXCAD1
62
  7
6
DAXCADSOLID
10
       0.009342
20
      -0.104450
11
       0.008879
21
      -0.105748
0
LINE
8
DAXCAD1
62
  7
6
DAXCADSOLID
10
       0.008612
20
      -0.104095
11
       0.009342
21
      -0.104450
0
LINE
8
DAXCAD1
62
  7
6
DAXCADSOLID
10
       0.006495
20
      -0.105431
11
       0.008612
21
      -0.104095
0
LINE
8
DAXCAD1
62
  7
6
DAXCADSOLID
10
      -0.001060
20
      -0.093844
11
       0.006495
21
      -0.105431
0
LINE
8
DAXCAD1
62
  7
6
DAXCADSOLID
10
       0.009342
20
      -0.104450
11
       0.009120
21
      -0.102707
0
LINE
8
DAXCAD1
62
  7
6
DAXCADSOLID
10
       0.008879
20
      -0.105748
11
       0.009342
21
      -0.104450
0
LINE
8
DAXCAD1
62
  7
6
DAXCADSOLID
10
       0.007796
20
      -0.106349
11
       0.008879
21
      -0.105748
0
LINE
8
DAXCAD1
62
  7
6
DAXCADSOLID
10
       0.006208
20
      -0.106364
11
       0.007796
21
      -0.106349
0
LINE
8
DAXCAD1
62
  7
6
DAXCADSOLID
10
       0.004952
20
      -0.105356
11
       0.006208
21
      -0.106364
0
LINE
8
DAXCAD1
62
  7
6
DAXCADSOLID
10
      -0.001727
20
      -0.095211
11
       0.004952
21
      -0.105356
0
LINE
8
DAXCAD1
62
  7
6
DAXCADSOLID
10
      -0.002105
20
      -0.093672
11
      -0.001727
21
      -0.095211
0
LINE
8
DAXCAD1
62
  7
6
DAXCADSOLID
10
      -0.001803
20
      -0.092126
11
      -0.002105
21
      -0.093672
0
LINE
8
DAXCAD1
62
  7
6
DAXCADSOLID
10
      -0.000428
20
      -0.091274
11
      -0.001803
21
      -0.092126
0
LINE
8
DAXCAD1
62
  7
6
DAXCADSOLID
10
       0.001362
20
      -0.091189
11
      -0.000428
21
      -0.091274
0
LINE
8
DAXCAD1
62
  7
6
DAXCADSOLID
10
       0.011409
20
      -0.102736
11
       0.014820
21
      -0.100179
0
LINE
8
DAXCAD1
62
  7
6
DAXCADSOLID
10
       0.004678
20
      -0.107783
11
       0.011409
21
      -0.102736
0
LINE
8
DAXCAD1
62
  7
6
DAXCADSOLID
10
      -0.003789
20
      -0.114132
11
       0.004678
21
      -0.107783
0
LINE
8
DAXCAD1
62
  7
6
DAXCADSOLID
10
      -0.014469
20
      -0.122140
11
      -0.003789
21
      -0.114132
0
LINE
8
DAXCAD1
62
  7
6
DAXCADSOLID
10
      -0.024762
20
      -0.129857
11
      -0.014469
21
      -0.122140
0
LINE
8
DAXCAD1
62
  7
6
DAXCADSOLID
10
      -0.035532
20
      -0.137933
11
      -0.024762
21
      -0.129857
0
LINE
8
DAXCAD1
62
  7
6
DAXCADSOLID
10
      -0.046541
20
      -0.146189
11
      -0.035532
21
      -0.137933
0
LINE
8
DAXCAD1
62
  7
6
DAXCADSOLID
10
      -0.057521
20
      -0.154422
11
      -0.046541
21
      -0.146189
0
LINE
8
DAXCAD1
62
  7
6
DAXCADSOLID
10
      -0.069069
20
      -0.163080
11
      -0.057521
21
      -0.154422
0
LINE
8
DAXCAD1
62
  7
6
DAXCADSOLID
10
      -0.078135
20
      -0.169877
11
      -0.069069
21
      -0.163080
0
LINE
8
DAXCAD1
62
  7
6
DAXCADSOLID
10
      -0.085674
20
      -0.175531
11
      -0.078135
21
      -0.169877
0
LINE
8
DAXCAD1
62
  7
6
DAXCADSOLID
10
      -0.089503
20
      -0.178402
11
      -0.085674
21
      -0.175531
0
LINE
8
DAXCAD1
62
  7
6
DAXCADSOLID
10
       0.001416
20
      -0.110228
11
       0.000781
21
      -0.093749
0
LINE
8
DAXCAD1
62
  7
6
DAXCADSOLID
10
      -0.016452
20
      -0.106669
11
       0.001416
21
      -0.110228
0
LINE
8
DAXCAD1
62
  7
6
DAXCADSOLID
10
      -0.019645
20
      -0.126021
11
      -0.016452
21
      -0.106669
0
LINE
8
DAXCAD1
62
  7
6
DAXCADSOLID
10
      -0.037035
20
      -0.122103
11
      -0.019645
21
      -0.126021
0
LINE
8
DAXCAD1
62
  7
6
DAXCADSOLID
10
      -0.041186
20
      -0.142173
11
      -0.037035
21
      -0.122103
0
LINE
8
DAXCAD1
62
  7
6
DAXCADSOLID
10
      -0.059055
20
      -0.138615
11
      -0.041186
21
      -0.142173
0
LINE
8
DAXCAD1
62
  7
6
DAXCADSOLID
10
      -0.063205
20
      -0.158683
11
      -0.059055
21
      -0.138615
0
LINE
8
DAXCAD1
62
  7
6
DAXCADSOLID
10
      -0.081553
20
      -0.155484
11
      -0.063205
21
      -0.158683
0
LINE
8
DAXCAD1
62
  7
6
DAXCADSOLID
10
      -0.081875
20
      -0.172682
11
      -0.081553
21
      -0.155484
0
LINE
8
DAXCAD1
62
  7
6
DAXCADSOLID
10
      -0.089242
20
      -0.161249
11
      -0.081875
21
      -0.172682
0
LINE
8
DAXCAD1
62
  7
6
DAXCADSOLID
10
      -0.074186
20
      -0.166916
11
      -0.089242
21
      -0.161249
0
LINE
8
DAXCAD1
62
  7
6
DAXCADSOLID
10
      -0.070574
20
      -0.147250
11
      -0.074186
21
      -0.166916
0
LINE
8
DAXCAD1
62
  7
6
DAXCADSOLID
10
      -0.051688
20
      -0.150048
11
      -0.070574
21
      -0.147250
0
LINE
8
DAXCAD1
62
  7
6
DAXCADSOLID
10
      -0.048554
20
      -0.130740
11
      -0.051688
21
      -0.150048
0
LINE
8
DAXCAD1
62
  7
6
DAXCADSOLID
10
      -0.029668
20
      -0.133536
11
      -0.048554
21
      -0.130740
0
LINE
8
DAXCAD1
62
  7
6
DAXCADSOLID
10
      -0.027012
20
      -0.114588
11
      -0.029668
21
      -0.133536
0
LINE
8
DAXCAD1
62
  7
6
DAXCADSOLID
10
      -0.009085
20
      -0.118102
11
      -0.027012
21
      -0.114588
0
LINE
8
DAXCAD1
62
  7
6
DAXCADSOLID
10
      -0.005951
20
      -0.098795
11
      -0.009085
21
      -0.118102
0
LINE
8
DAXCAD1
62
  7
6
DAXCADSOLID
10
       0.008149
20
      -0.105182
11
      -0.005951
21
      -0.098795
0
LINE
8
DAXCAD1
62
  7
6
DAXCADSOLID
10
       0.000781
20
      -0.093749
11
       0.008149
21
      -0.105182
0
LINE
8
DAXCAD1
62
  7
6
DAXCADSOLID
10
      -0.093041
20
      -0.164098
11
      -0.096931
21
      -0.167014
0
LINE
8
DAXCAD1
62
  7
6
DAXCADSOLID
10
      -0.089242
20
      -0.161249
11
      -0.093041
21
      -0.164098
0
LINE
8
DAXCAD1
62
  7
6
DAXCADSOLID
10
      -0.085502
20
      -0.158444
11
      -0.089242
21
      -0.161249
0
LINE
8
DAXCAD1
62
  7
6
DAXCADSOLID
10
      -0.081553
20
      -0.155484
11
      -0.085502
21
      -0.158444
0
LINE
8
DAXCAD1
62
  7
6
DAXCADSOLID
10
      -0.076438
20
      -0.151647
11
      -0.081553
21
      -0.155484
0
LINE
8
DAXCAD1
62
  7
6
DAXCADSOLID
10
      -0.070603
20
      -0.147273
11
      -0.076438
21
      -0.151647
0
LINE
8
DAXCAD1
62
  7
6
DAXCADSOLID
10
      -0.064888
20
      -0.142988
11
      -0.070603
21
      -0.147273
0
LINE
8
DAXCAD1
62
  7
6
DAXCADSOLID
10
      -0.059115
20
      -0.138659
11
      -0.064888
21
      -0.142988
0
LINE
8
DAXCAD1
62
  7
6
DAXCADSOLID
10
      -0.053910
20
      -0.134756
11
      -0.059115
21
      -0.138659
0
LINE
8
DAXCAD1
62
  7
6
DAXCADSOLID
10
      -0.048554
20
      -0.130740
11
      -0.053910
21
      -0.134756
0
LINE
8
DAXCAD1
62
  7
6
DAXCADSOLID
10
      -0.042899
20
      -0.126500
11
      -0.048554
21
      -0.130740
0
LINE
8
DAXCAD1
62
  7
6
DAXCADSOLID
10
      -0.037095
20
      -0.122148
11
      -0.042899
21
      -0.126500
0
LINE
8
DAXCAD1
62
  7
6
DAXCADSOLID
10
      -0.032129
20
      -0.118424
11
      -0.037095
21
      -0.122148
0
LINE
8
DAXCAD1
62
  7
6
DAXCADSOLID
10
      -0.027043
20
      -0.114611
11
      -0.032129
21
      -0.118424
0
LINE
8
DAXCAD1
62
  7
6
DAXCADSOLID
10
      -0.021838
20
      -0.110707
11
      -0.027043
21
      -0.114611
0
LINE
8
DAXCAD1
62
  7
6
DAXCADSOLID
10
      -0.016482
20
      -0.106692
11
      -0.021838
21
      -0.110707
0
LINE
8
DAXCAD1
62
  7
6
DAXCADSOLID
10
      -0.011156
20
      -0.102699
11
      -0.016482
21
      -0.106692
0
LINE
8
DAXCAD1
62
  7
6
DAXCADSOLID
10
      -0.005920
20
      -0.098773
11
      -0.011156
21
      -0.102699
0
LINE
8
DAXCAD1
62
  7
6
DAXCADSOLID
10
      -0.002689
20
      -0.096351
11
      -0.005920
21
      -0.098773
0
LINE
8
DAXCAD1
62
  7
6
DAXCADSOLID
10
       0.000721
20
      -0.093794
11
      -0.002689
21
      -0.096351
0
LINE
8
DAXCAD1
62
  7
6
DAXCADSOLID
10
       0.004042
20
      -0.091303
11
       0.000721
21
      -0.093794
0
LINE
8
DAXCAD1
62
  7
6
DAXCADSOLID
10
       0.007512
20
      -0.088701
11
       0.004042
21
      -0.091303
0
LINE
8
DAXCAD1
62
  7
6
DAXCADSOLID
10
       0.003952
20
      -0.091370
11
       0.007512
21
      -0.088701
0
LINE
8
DAXCAD1
62
  7
6
DAXCADSOLID
10
       0.000721
20
      -0.093794
11
       0.003952
21
      -0.091370
0
LINE
8
DAXCAD1
62
  7
6
DAXCADSOLID
10
      -0.002660
20
      -0.096328
11
       0.000721
21
      -0.093794
0
LINE
8
DAXCAD1
62
  7
6
DAXCADSOLID
10
      -0.005920
20
      -0.098773
11
      -0.002660
21
      -0.096328
0
LINE
8
DAXCAD1
62
  7
6
DAXCADSOLID
10
      -0.011186
20
      -0.102721
11
      -0.005920
21
      -0.098773
0
LINE
8
DAXCAD1
62
  7
6
DAXCADSOLID
10
      -0.016482
20
      -0.106692
11
      -0.011186
21
      -0.102721
0
LINE
8
DAXCAD1
62
  7
6
DAXCADSOLID
10
      -0.021867
20
      -0.110730
11
      -0.016482
21
      -0.106692
0
LINE
8
DAXCAD1
62
  7
6
DAXCADSOLID
10
      -0.027043
20
      -0.114611
11
      -0.021867
21
      -0.110730
0
LINE
8
DAXCAD1
62
  7
6
DAXCADSOLID
10
      -0.032129
20
      -0.118424
11
      -0.027043
21
      -0.114611
0
LINE
8
DAXCAD1
62
  7
6
DAXCADSOLID
10
      -0.037095
20
      -0.122148
11
      -0.032129
21
      -0.118424
0
LINE
8
DAXCAD1
62
  7
6
DAXCADSOLID
10
      -0.042929
20
      -0.126523
11
      -0.037095
21
      -0.122148
0
LINE
8
DAXCAD1
62
  7
6
DAXCADSOLID
10
      -0.048554
20
      -0.130740
11
      -0.042929
21
      -0.126523
0
LINE
8
DAXCAD1
62
  7
6
DAXCADSOLID
10
      -0.053969
20
      -0.134801
11
      -0.048554
21
      -0.130740
0
LINE
8
DAXCAD1
62
  7
6
DAXCADSOLID
10
      -0.059115
20
      -0.138659
11
      -0.053969
21
      -0.134801
0
LINE
8
DAXCAD1
62
  7
6
DAXCADSOLID
10
      -0.064919
20
      -0.143010
11
      -0.059115
21
      -0.138659
0
LINE
8
DAXCAD1
62
  7
6
DAXCADSOLID
10
      -0.070603
20
      -0.147273
11
      -0.064919
21
      -0.143010
0
LINE
8
DAXCAD1
62
  7
6
DAXCADSOLID
10
      -0.076438
20
      -0.151647
11
      -0.070603
21
      -0.147273
0
LINE
8
DAXCAD1
62
  7
6
DAXCADSOLID
10
      -0.081553
20
      -0.155484
11
      -0.076438
21
      -0.151647
0
LINE
8
DAXCAD1
62
  7
6
DAXCADSOLID
10
      -0.085533
20
      -0.158467
11
      -0.081553
21
      -0.155484
0
LINE
8
DAXCAD1
62
  7
6
DAXCADSOLID
10
      -0.089242
20
      -0.161249
11
      -0.085533
21
      -0.158467
0
LINE
8
DAXCAD1
62
  7
6
DAXCADSOLID
10
      -0.093012
20
      -0.164076
11
      -0.089242
21
      -0.161249
0
LINE
8
DAXCAD1
62
  7
6
DAXCADSOLID
10
      -0.096931
20
      -0.167014
11
      -0.093012
21
      -0.164076
0
LINE
8
DAXCAD1
62
  7
6
DAXCADSOLID
10
      -0.089242
20
      -0.161249
11
      -0.096871
21
      -0.166969
0
LINE
8
DAXCAD1
62
  7
6
DAXCADSOLID
10
      -0.081553
20
      -0.155484
11
      -0.089242
21
      -0.161249
0
LINE
8
DAXCAD1
62
  7
6
DAXCADSOLID
10
      -0.070574
20
      -0.147250
11
      -0.081553
21
      -0.155484
0
LINE
8
DAXCAD1
62
  7
6
DAXCADSOLID
10
      -0.059055
20
      -0.138615
11
      -0.070574
21
      -0.147250
0
LINE
8
DAXCAD1
62
  7
6
DAXCADSOLID
10
      -0.048554
20
      -0.130740
11
      -0.059055
21
      -0.138615
0
LINE
8
DAXCAD1
62
  7
6
DAXCADSOLID
10
      -0.037035
20
      -0.122103
11
      -0.048554
21
      -0.130740
0
LINE
8
DAXCAD1
62
  7
6
DAXCADSOLID
10
      -0.027012
20
      -0.114588
11
      -0.037035
21
      -0.122103
0
LINE
8
DAXCAD1
62
  7
6
DAXCADSOLID
10
      -0.016452
20
      -0.106669
11
      -0.027012
21
      -0.114588
0
LINE
8
DAXCAD1
62
  7
6
DAXCADSOLID
10
      -0.005951
20
      -0.098795
11
      -0.016452
21
      -0.106669
0
LINE
8
DAXCAD1
62
  7
6
DAXCADSOLID
10
       0.000781
20
      -0.093749
11
      -0.005951
21
      -0.098795
0
LINE
8
DAXCAD1
62
  7
6
DAXCADSOLID
10
       0.007453
20
      -0.088746
11
       0.000781
21
      -0.093749
0
LINE
8
DAXCAD1
62
  7
6
DAXCADSOLID
10
      -0.085674
20
      -0.175531
11
      -0.089563
21
      -0.178447
0
LINE
8
DAXCAD1
62
  7
6
DAXCADSOLID
10
      -0.081875
20
      -0.172682
11
      -0.085674
21
      -0.175531
0
LINE
8
DAXCAD1
62
  7
6
DAXCADSOLID
10
      -0.078135
20
      -0.169877
11
      -0.081875
21
      -0.172682
0
LINE
8
DAXCAD1
62
  7
6
DAXCADSOLID
10
      -0.074186
20
      -0.166916
11
      -0.078135
21
      -0.169877
0
LINE
8
DAXCAD1
62
  7
6
DAXCADSOLID
10
      -0.069069
20
      -0.163080
11
      -0.074186
21
      -0.166916
0
LINE
8
DAXCAD1
62
  7
6
DAXCADSOLID
10
      -0.063236
20
      -0.158706
11
      -0.069069
21
      -0.163080
0
LINE
8
DAXCAD1
62
  7
6
DAXCADSOLID
10
      -0.057521
20
      -0.154422
11
      -0.063236
21
      -0.158706
0
LINE
8
DAXCAD1
62
  7
6
DAXCADSOLID
10
      -0.051747
20
      -0.150092
11
      -0.057521
21
      -0.154422
0
LINE
8
DAXCAD1
62
  7
6
DAXCADSOLID
10
      -0.046541
20
      -0.146189
11
      -0.051747
21
      -0.150092
0
LINE
8
DAXCAD1
62
  7
6
DAXCADSOLID
10
      -0.041186
20
      -0.142173
11
      -0.046541
21
      -0.146189
0
LINE
8
DAXCAD1
62
  7
6
DAXCADSOLID
10
      -0.035532
20
      -0.137933
11
      -0.041186
21
      -0.142173
0
LINE
8
DAXCAD1
62
  7
6
DAXCADSOLID
10
      -0.029728
20
      -0.133581
11
      -0.035532
21
      -0.137933
0
LINE
8
DAXCAD1
62
  7
6
DAXCADSOLID
10
      -0.024762
20
      -0.129857
11
      -0.029728
21
      -0.133581
0
LINE
8
DAXCAD1
62
  7
6
DAXCADSOLID
10
      -0.019675
20
      -0.126044
11
      -0.024762
21
      -0.129857
0
LINE
8
DAXCAD1
62
  7
6
DAXCADSOLID
10
      -0.014469
20
      -0.122140
11
      -0.019675
21
      -0.126044
0
LINE
8
DAXCAD1
62
  7
6
DAXCADSOLID
10
      -0.009114
20
      -0.118125
11
      -0.014469
21
      -0.122140
0
LINE
8
DAXCAD1
62
  7
6
DAXCADSOLID
10
      -0.003789
20
      -0.114132
11
      -0.009114
21
      -0.118125
0
LINE
8
DAXCAD1
62
  7
6
DAXCADSOLID
10
       0.001447
20
      -0.110206
11
      -0.003789
21
      -0.114132
0
LINE
8
DAXCAD1
62
  7
6
DAXCADSOLID
10
       0.004678
20
      -0.107783
11
       0.001447
21
      -0.110206
0
LINE
8
DAXCAD1
62
  7
6
DAXCADSOLID
10
       0.008089
20
      -0.105227
11
       0.004678
21
      -0.107783
0
LINE
8
DAXCAD1
62
  7
6
DAXCADSOLID
10
       0.011409
20
      -0.102736
11
       0.008089
21
      -0.105227
0
LINE
8
DAXCAD1
62
  7
6
DAXCADSOLID
10
       0.014880
20
      -0.100134
11
       0.011409
21
      -0.102736
0
LINE
8
DAXCAD1
62
  7
6
DAXCADSOLID
10
       0.011319
20
      -0.102803
11
       0.014880
21
      -0.100134
0
LINE
8
DAXCAD1
62
  7
6
DAXCADSOLID
10
       0.008089
20
      -0.105227
11
       0.011319
21
      -0.102803
0
LINE
8
DAXCAD1
62
  7
6
DAXCADSOLID
10
       0.004709
20
      -0.107761
11
       0.008089
21
      -0.105227
0
LINE
8
DAXCAD1
62
  7
6
DAXCADSOLID
10
       0.001447
20
      -0.110206
11
       0.004709
21
      -0.107761
0
LINE
8
DAXCAD1
62
  7
6
DAXCADSOLID
10
      -0.003819
20
      -0.114154
11
       0.001447
21
      -0.110206
0
LINE
8
DAXCAD1
62
  7
6
DAXCADSOLID
10
      -0.009114
20
      -0.118125
11
      -0.003819
21
      -0.114154
0
LINE
8
DAXCAD1
62
  7
6
DAXCADSOLID
10
      -0.014499
20
      -0.122163
11
      -0.009114
21
      -0.118125
0
LINE
8
DAXCAD1
62
  7
6
DAXCADSOLID
10
      -0.019675
20
      -0.126044
11
      -0.014499
21
      -0.122163
0
LINE
8
DAXCAD1
62
  7
6
DAXCADSOLID
10
      -0.024762
20
      -0.129857
11
      -0.019675
21
      -0.126044
0
LINE
8
DAXCAD1
62
  7
6
DAXCADSOLID
10
      -0.029728
20
      -0.133581
11
      -0.024762
21
      -0.129857
0
LINE
8
DAXCAD1
62
  7
6
DAXCADSOLID
10
      -0.035561
20
      -0.137956
11
      -0.029728
21
      -0.133581
0
LINE
8
DAXCAD1
62
  7
6
DAXCADSOLID
10
      -0.041186
20
      -0.142173
11
      -0.035561
21
      -0.137956
0
LINE
8
DAXCAD1
62
  7
6
DAXCADSOLID
10
      -0.046602
20
      -0.146234
11
      -0.041186
21
      -0.142173
0
LINE
8
DAXCAD1
62
  7
6
DAXCADSOLID
10
      -0.051747
20
      -0.150092
11
      -0.046602
21
      -0.146234
0
LINE
8
DAXCAD1
62
  7
6
DAXCADSOLID
10
      -0.057552
20
      -0.154445
11
      -0.051747
21
      -0.150092
0
LINE
8
DAXCAD1
62
  7
6
DAXCADSOLID
10
      -0.063236
20
      -0.158706
11
      -0.057552
21
      -0.154445
0
LINE
8
DAXCAD1
62
  7
6
DAXCADSOLID
10
      -0.069069
20
      -0.163080
11
      -0.063236
21
      -0.158706
0
LINE
8
DAXCAD1
62
  7
6
DAXCADSOLID
10
      -0.074186
20
      -0.166916
11
      -0.069069
21
      -0.163080
0
LINE
8
DAXCAD1
62
  7
6
DAXCADSOLID
10
      -0.081875
20
      -0.172682
11
      -0.074186
21
      -0.166916
0
LINE
8
DAXCAD1
62
  7
6
DAXCADSOLID
10
      -0.085644
20
      -0.175509
11
      -0.081875
21
      -0.172682
0
LINE
8
DAXCAD1
62
  7
6
DAXCADSOLID
10
      -0.089563
20
      -0.178447
11
      -0.085644
21
      -0.175509
0
LINE
8
DAXCAD1
62
  7
6
DAXCADSOLID
10
      -0.081875
20
      -0.172682
11
      -0.089503
21
      -0.178402
0
LINE
8
DAXCAD1
62
  7
6
DAXCADSOLID
10
      -0.074186
20
      -0.166916
11
      -0.081875
21
      -0.172682
0
LINE
8
DAXCAD1
62
  7
6
DAXCADSOLID
10
      -0.063205
20
      -0.158683
11
      -0.074186
21
      -0.166916
0
LINE
8
DAXCAD1
62
  7
6
DAXCADSOLID
10
      -0.051688
20
      -0.150048
11
      -0.063205
21
      -0.158683
0
LINE
8
DAXCAD1
62
  7
6
DAXCADSOLID
10
      -0.041186
20
      -0.142173
11
      -0.051688
21
      -0.150048
0
LINE
8
DAXCAD1
62
  7
6
DAXCADSOLID
10
      -0.029668
20
      -0.133536
11
      -0.041186
21
      -0.142173
0
LINE
8
DAXCAD1
62
  7
6
DAXCADSOLID
10
      -0.019645
20
      -0.126021
11
      -0.029668
21
      -0.133536
0
LINE
8
DAXCAD1
62
  7
6
DAXCADSOLID
10
      -0.009085
20
      -0.118102
11
      -0.019645
21
      -0.126021
0
LINE
8
DAXCAD1
62
  7
6
DAXCADSOLID
10
       0.001416
20
      -0.110228
11
      -0.009085
21
      -0.118102
0
LINE
8
DAXCAD1
62
  7
6
DAXCADSOLID
10
       0.008149
20
      -0.105182
11
       0.001416
21
      -0.110228
0
LINE
8
DAXCAD1
62
  7
6
DAXCADSOLID
10
       0.014820
20
      -0.100179
11
       0.008149
21
      -0.105182
0
ENDSEC
0
EOF
