0
SECTION
2
HEADER
9
$EXTMIN
10
0.136667
20
0.033333
9
$EXTMAX
10
2.703333
20
0.963011
0
ENDSEC
0
SECTION
2
TABLES
0
TABLE
2
LTYPE
70
1
0
LTYPE
2
0
70
0
3
Solid Line
72
65
73
0
40
0.0
0
ENDTAB
0
TABLE
2
LAYER
70
1
0
LAYER
2
1
70
0
62
7
6
0
0
ENDTAB
0
ENDSEC
0
SECTION
2
BLOCKS
0
ENDSEC
0
SECTION
2
ENTITIES
0
POLYLINE
8
1
66
1
70
1
0
VERTEX
8
1
10
0.666667
20
0.588333
0
VERTEX
8
1
10
0.521667
20
0.280000
0
VERTEX
8
1
10
0.513333
20
0.283333
0
VERTEX
8
1
10
0.578333
20
0.418333
0
VERTEX
8
1
10
0.660000
20
0.591667
0
SEQEND
0
POLYLINE
8
1
66
1
70
1
0
VERTEX
8
1
10
0.806951
20
0.291046
42
-0.093934
0
VERTEX
8
1
10
0.835683
20
0.283333
0
VERTEX
8
1
10
1.270000
20
0.283333
0
VERTEX
8
1
10
1.186667
20
0.315000
0
VERTEX
8
1
10
0.960000
20
0.303333
0
VERTEX
8
1
10
0.865000
20
0.303333
0
VERTEX
8
1
10
0.830000
20
0.308333
0
SEQEND
0
POLYLINE
8
1
66
1
70
1
0
VERTEX
8
1
10
1.163333
20
0.321667
0
VERTEX
8
1
10
1.023333
20
0.315000
0
VERTEX
8
1
10
0.893333
20
0.313333
0
VERTEX
8
1
10
0.846667
20
0.318333
0
VERTEX
8
1
10
0.845000
20
0.320000
0
VERTEX
8
1
10
0.865000
20
0.338333
0
VERTEX
8
1
10
0.871667
20
0.338333
0
VERTEX
8
1
10
1.130000
20
0.336667
0
VERTEX
8
1
10
1.165000
20
0.323333
0
SEQEND
0
POLYLINE
8
1
66
1
70
1
0
VERTEX
8
1
10
1.735000
20
0.453333
0
VERTEX
8
1
10
1.706667
20
0.373333
0
VERTEX
8
1
10
1.708333
20
0.371667
0
VERTEX
8
1
10
1.785000
20
0.421667
0
VERTEX
8
1
10
1.855000
20
0.380000
0
VERTEX
8
1
10
1.860000
20
0.383333
0
VERTEX
8
1
10
1.828333
20
0.450000
0
VERTEX
8
1
10
1.888333
20
0.490000
0
VERTEX
8
1
10
1.810000
20
0.491667
0
VERTEX
8
1
10
1.776667
20
0.560000
0
VERTEX
8
1
10
1.775000
20
0.558333
0
VERTEX
8
1
10
1.750000
20
0.493333
0
VERTEX
8
1
10
1.673333
20
0.490000
0
SEQEND
0
POLYLINE
8
1
66
1
70
1
0
VERTEX
8
1
10
2.631667
20
0.585000
0
VERTEX
8
1
10
2.266667
20
0.548333
0
VERTEX
8
1
10
2.265000
20
0.548333
0
VERTEX
8
1
10
2.246667
20
0.561667
0
VERTEX
8
1
10
2.238333
20
0.576667
0
VERTEX
8
1
10
2.243333
20
0.591667
0
VERTEX
8
1
10
2.263333
20
0.608333
0
VERTEX
8
1
10
2.633333
20
0.591667
0
VERTEX
8
1
10
2.635000
20
0.590000
0
SEQEND
0
POLYLINE
8
1
66
1
70
1
0
VERTEX
8
1
10
1.621667
20
0.573333
0
VERTEX
8
1
10
1.595000
20
0.556667
0
VERTEX
8
1
10
1.425000
20
0.555000
0
VERTEX
8
1
10
1.423333
20
0.690000
0
VERTEX
8
1
10
1.445000
20
0.691667
42
-0.092616
0
VERTEX
8
1
10
1.631667
20
0.603333
0
VERTEX
8
1
10
1.650000
20
0.593333
0
VERTEX
8
1
10
1.650000
20
0.591667
0
SEQEND
0
POLYLINE
8
1
66
1
70
1
0
VERTEX
8
1
10
1.401667
20
0.695000
0
VERTEX
8
1
10
1.403333
20
0.556667
0
VERTEX
8
1
10
1.235000
20
0.555000
0
VERTEX
8
1
10
1.233333
20
0.693333
0
SEQEND
0
POLYLINE
8
1
66
1
70
1
0
VERTEX
8
1
10
1.211667
20
0.695000
0
VERTEX
8
1
10
1.213333
20
0.556667
0
VERTEX
8
1
10
1.026667
20
0.555000
0
VERTEX
8
1
10
1.025000
20
0.693333
0
SEQEND
0
POLYLINE
8
1
66
1
70
1
0
VERTEX
8
1
10
1.003333
20
0.695000
0
VERTEX
8
1
10
1.005000
20
0.556667
0
VERTEX
8
1
10
0.830000
20
0.555000
0
VERTEX
8
1
10
0.828333
20
0.693333
0
SEQEND
0
POLYLINE
8
1
66
1
70
1
0
VERTEX
8
1
10
0.803333
20
0.693333
0
VERTEX
8
1
10
0.805000
20
0.556667
0
VERTEX
8
1
10
0.743333
20
0.555000
0
VERTEX
8
1
10
0.678333
20
0.595000
0
VERTEX
8
1
10
0.773333
20
0.691667
0
SEQEND
0
POLYLINE
8
1
66
1
70
1
0
VERTEX
8
1
10
2.400000
20
0.710000
0
VERTEX
8
1
10
2.390000
20
0.685000
0
VERTEX
8
1
10
2.391667
20
0.683333
42
-0.017557
0
VERTEX
8
1
10
2.460000
20
0.728333
42
-0.058821
0
VERTEX
8
1
10
2.526667
20
0.691667
0
VERTEX
8
1
10
2.528333
20
0.693333
42
0.044519
0
VERTEX
8
1
10
2.499331
20
0.753256
0
VERTEX
8
1
10
2.513259
20
0.762541
42
-0.000002
0
VERTEX
8
1
10
2.555042
20
0.790396
0
VERTEX
8
1
10
2.481667
20
0.793333
0
VERTEX
8
1
10
2.481667
20
0.795000
0
VERTEX
8
1
10
2.466667
20
0.826667
0
VERTEX
8
1
10
2.453333
20
0.853333
0
VERTEX
8
1
10
2.451667
20
0.851667
42
-0.009196
0
VERTEX
8
1
10
2.430000
20
0.793333
0
VERTEX
8
1
10
2.360000
20
0.790000
0
VERTEX
8
1
10
2.395000
20
0.768333
0
VERTEX
8
1
10
2.416667
20
0.756667
0
VERTEX
8
1
10
2.411667
20
0.743333
0
SEQEND
0
POLYLINE
8
1
66
1
70
1
0
VERTEX
8
1
10
0.880099
20
0.239815
0
VERTEX
8
1
10
0.905000
20
0.246667
0
VERTEX
8
1
10
0.913333
20
0.253333
0
VERTEX
8
1
10
0.966667
20
0.268333
0
VERTEX
8
1
10
0.858658
20
0.268333
42
-0.107810
0
SEQEND
0
POLYLINE
8
1
66
1
70
1
0
VERTEX
8
1
10
0.738747
20
0.268333
0
VERTEX
8
1
10
0.583333
20
0.268333
0
VERTEX
8
1
10
0.656466
20
0.239776
0
VERTEX
8
1
10
0.665183
20
0.230742
0
VERTEX
8
1
10
0.709618
20
0.213934
42
-0.181791
0
SEQEND
0
POLYLINE
8
1
66
1
70
1
0
VERTEX
8
1
10
0.841224
20
0.197560
42
-5.453172
0
VERTEX
8
1
10
0.833246
20
0.226923
0
VERTEX
8
1
10
0.792343
20
0.215669
42
0.929654
0
VERTEX
8
1
10
0.802570
20
0.186448
0
SEQEND
0
POLYLINE
8
1
66
1
70
1
0
VERTEX
8
1
10
0.662591
20
0.352660
42
-0.876216
0
VERTEX
8
1
10
0.662591
20
0.362327
0
VERTEX
8
1
10
0.701324
20
0.362927
42
0.051044
0
VERTEX
8
1
10
0.689649
20
0.352938
0
SEQEND
0
POLYLINE
8
1
66
1
70
1
0
VERTEX
8
1
10
0.866667
20
0.378333
42
0.245574
0
VERTEX
8
1
10
0.835000
20
0.365000
0
VERTEX
8
1
10
0.707943
20
0.363030
42
-0.126231
0
VERTEX
8
1
10
0.781667
20
0.401667
0
VERTEX
8
1
10
0.841667
20
0.411667
42
-0.078445
0
VERTEX
8
1
10
1.240000
20
0.353333
0
VERTEX
8
1
10
1.428333
20
0.298333
0
VERTEX
8
1
10
1.455000
20
0.288333
0
VERTEX
8
1
10
1.455000
20
0.286667
0
VERTEX
8
1
10
1.368333
20
0.283333
0
VERTEX
8
1
10
1.150000
20
0.340000
0
VERTEX
8
1
10
1.145000
20
0.346667
42
0.085842
0
SEQEND
0
POLYLINE
8
1
66
1
70
1
0
VERTEX
8
1
10
2.650912
20
0.489260
42
0.061287
0
VERTEX
8
1
10
2.678681
20
0.561918
42
0.275982
0
VERTEX
8
1
10
2.701707
20
0.590563
0
VERTEX
8
1
10
2.703333
20
0.680000
42
0.231521
0
VERTEX
8
1
10
2.683634
20
0.703093
42
0.226773
0
VERTEX
8
1
10
2.513502
20
0.946216
42
0.361170
0
VERTEX
8
1
10
2.341666
20
0.913332
42
0.004594
0
VERTEX
8
1
10
2.226667
20
0.716667
42
-0.135656
0
VERTEX
8
1
10
2.066667
20
0.600000
0
VERTEX
8
1
10
1.655000
20
0.601667
0
VERTEX
8
1
10
1.653333
20
0.603333
0
VERTEX
8
1
10
1.558333
20
0.660000
0
VERTEX
8
1
10
1.493333
20
0.688333
0
VERTEX
8
1
10
1.440000
20
0.703333
0
VERTEX
8
1
10
0.766667
20
0.703333
0
VERTEX
8
1
10
0.746667
20
0.688333
0
VERTEX
8
1
10
0.661667
20
0.605000
0
VERTEX
8
1
10
0.320000
20
0.603333
0
VERTEX
8
1
10
0.281667
20
0.600000
0
VERTEX
8
1
10
0.256667
20
0.591667
0
VERTEX
8
1
10
0.235000
20
0.570000
0
VERTEX
8
1
10
0.233333
20
0.455000
0
VERTEX
8
1
10
0.223333
20
0.456667
42
0.276984
0
VERTEX
8
1
10
0.215000
20
0.475000
0
VERTEX
8
1
10
0.211667
20
0.655000
0
VERTEX
8
1
10
0.210000
20
0.656667
0
VERTEX
8
1
10
0.196667
20
0.808333
0
VERTEX
8
1
10
0.191667
20
0.838333
0
VERTEX
8
1
10
0.185000
20
0.841667
0
VERTEX
8
1
10
0.180000
20
0.826667
42
0.026561
0
VERTEX
8
1
10
0.171667
20
0.541667
0
VERTEX
8
1
10
0.178333
20
0.488333
0
VERTEX
8
1
10
0.180000
20
0.476667
42
0.082762
0
VERTEX
8
1
10
0.160000
20
0.460000
0
VERTEX
8
1
10
0.136667
20
0.451667
0
VERTEX
8
1
10
0.136667
20
0.423333
42
0.071070
0
VERTEX
8
1
10
0.165000
20
0.411667
0
VERTEX
8
1
10
0.178333
20
0.396667
42
0.033007
0
VERTEX
8
1
10
0.183333
20
0.041666
0
VERTEX
8
1
10
0.188333
20
0.033333
0
VERTEX
8
1
10
0.190000
20
0.033333
42
0.295732
0
VERTEX
8
1
10
0.198333
20
0.058333
0
VERTEX
8
1
10
0.216667
20
0.275000
0
VERTEX
8
1
10
0.216667
20
0.368333
0
VERTEX
8
1
10
0.213333
20
0.395000
0
VERTEX
8
1
10
0.223333
20
0.405000
0
VERTEX
8
1
10
0.225000
20
0.421667
0
VERTEX
8
1
10
0.235000
20
0.420000
0
VERTEX
8
1
10
0.236667
20
0.298333
0
VERTEX
8
1
10
0.260000
20
0.285000
42
0.061939
0
VERTEX
8
1
10
0.445000
20
0.253333
0
VERTEX
8
1
10
0.453333
20
0.245000
0
VERTEX
8
1
10
0.463333
20
0.246667
0
VERTEX
8
1
10
0.471667
20
0.256667
0
VERTEX
8
1
10
0.498333
20
0.258333
0
VERTEX
8
1
10
0.508333
20
0.265000
0
VERTEX
8
1
10
0.645000
20
0.211667
0
VERTEX
8
1
10
0.656667
20
0.211667
42
-0.010672
0
VERTEX
8
1
10
0.709693
20
0.188096
42
0.979506
0
VERTEX
8
1
10
0.888007
20
0.211009
0
VERTEX
8
1
10
0.915956
20
0.219044
42
0.414239
0
VERTEX
8
1
10
0.920000
20
0.218333
0
VERTEX
8
1
10
1.090000
20
0.266667
0
VERTEX
8
1
10
1.421667
20
0.268333
0
VERTEX
8
1
10
1.515000
20
0.278333
0
VERTEX
8
1
10
1.925000
20
0.341667
0
VERTEX
8
1
10
2.126667
20
0.371667
0
VERTEX
8
1
10
2.366667
20
0.413333
42
0.423079
0
VERTEX
8
1
10
2.470000
20
0.426667
42
0.112905
0
VERTEX
8
1
10
2.619437
20
0.462197
42
0.064034
0
SEQEND
0
POLYLINE
8
1
66
1
70
1
0
VERTEX
8
1
10
0.696787
20
0.353041
0
VERTEX
8
1
10
0.834925
20
0.355035
42
0.334690
0
VERTEX
8
1
10
0.848333
20
0.343333
0
VERTEX
8
1
10
0.843333
20
0.340000
0
VERTEX
8
1
10
0.784055
20
0.290082
0
VERTEX
8
1
10
0.778148
20
0.289178
42
-0.131747
0
VERTEX
8
1
10
0.710854
20
0.283774
42
-0.576072
0
SEQEND
0
ENDSEC
0
EOF
