  0
SECTION
  2
HEADER
  9
$LIMMIN
 10
0.000000
 20
0.000000
  9
$LIMMAX
 10
0.868784
 20
0.726784
  9
$EXTMIN
 10
0.000000
 20
0.000000
  9
$EXTMAX
 10
0.868784
 20
0.726784
  9
$ANGBASE
 50
0.000000
  9
$ANGDIR
 70
0
  9
$INSUNITS
 70
0
  9
$DIMALT
 70
2
  9
$DIMLUNIT
 70
5
  9
$DIMASZ
 40
3.000000
  9
$DIMTXT
 40
5.000000
  9
$DIMRND
 40
0.007812
  9
$DIMEXE
 40
2.000000
  9
$DIMEXO
 40
2.000000
  9
$DIMAUNIT
 70
0
  9
$DIMADEC
 70
2
  9
$GRIDUNIT
 10
0.000977
 20
0.000977
  9
$PLIMMIN
 10
-0.040064
 20
-0.085111
  9
$PLIMMAX
 10
1.337886
 20
0.889298
  9
$PSVPSCALE
 40
1.000000
  0
ENDSEC
  0
SECTION
  2
TABLES
  0
TABLE
  2
LTYPE
 70
     1
  0
LTYPE
  2
CONTINUOUS
 70
    64
  3
Ausgez
 72
    65
 73
  0
 40
0.000000
  0
ENDTAB
  0
TABLE
  2
LAYER
 70
     1
  0
LAYER
  2
default
 70
    64
 62
0
  6
CONTINUOUS
  0
LAYER
  2
LAYER_1
 70
    64
 62
1
  6
CONTINUOUS
  0
LAYER
  2
LAYER_2
 70
    64
 62
2
  6
CONTINUOUS
  0
LAYER
  2
LAYER_3
 70
    64
 62
3
  6
CONTINUOUS
  0
LAYER
  2
LAYER_4
 70
    64
 62
4
  6
CONTINUOUS
  0
LAYER
  2
LAYER_5
 70
    64
 62
5
  6
CONTINUOUS
  0
LAYER
  2
LAYER_6
 70
    64
 62
6
  6
CONTINUOUS
  0
LAYER
  2
LAYER_7
 70
    64
 62
7
  6
CONTINUOUS
  0
LAYER
  2
LAYER_8
 70
    64
 62
8
  6
CONTINUOUS
  0
LAYER
  2
LAYER_9
 70
    64
 62
9
  6
CONTINUOUS
  0
LAYER
  2
LAYER_10
 70
    64
 62
10
  6
CONTINUOUS
  0
LAYER
  2
LAYER_11
 70
    64
 62
11
  6
CONTINUOUS
  0
LAYER
  2
LAYER_12
 70
    64
 62
12
  6
CONTINUOUS
  0
LAYER
  2
LAYER_13
 70
    64
 62
13
  6
CONTINUOUS
  0
LAYER
  2
LAYER_14
 70
    64
 62
14
  6
CONTINUOUS
  0
LAYER
  2
LAYER_15
 70
    64
 62
0
  6
CONTINUOUS
  0
ENDTAB
  0
ENDSEC
  0
SECTION
  2
BLOCKS
  0
ENDSEC
  0
SECTION
  2
ENTITIES
  0
LINE
  8
LAYER_8
  6
CONTINUOUS
 10
0.323922
 20
0.685254
 11
0.323922
 21
0.662179
 39
0
 62
0
  0
LINE
  8
LAYER_8
  6
CONTINUOUS
 10
0.329122
 20
0.680054
 11
0.329122
 21
0.662179
 39
0
 62
0
  0
LINE
  8
LAYER_8
  6
CONTINUOUS
 10
0.323922
 20
0.662179
 11
0.329122
 21
0.662179
 39
0
 62
0
  0
LINE
  8
LAYER_8
  6
CONTINUOUS
 10
0.322622
 20
0.686554
 11
0.322622
 21
0.662179
 39
0
 62
0
  0
LINE
  8
LAYER_8
  6
CONTINUOUS
 10
0.323922
 20
0.685254
 11
0.323922
 21
0.662179
 39
0
 62
0
  0
LINE
  8
LAYER_8
  6
CONTINUOUS
 10
0.322622
 20
0.662179
 11
0.323922
 21
0.662179
 39
0
 62
0
  0
LINE
  8
LAYER_8
  6
CONTINUOUS
 10
0.318857
 20
0.668907
 11
0.317422
 21
0.667472
 39
0
 62
0
  0
LINE
  8
LAYER_8
  6
CONTINUOUS
 10
0.320311
 20
0.675724
 11
0.317422
 21
0.672834
 39
0
 62
0
  0
LINE
  8
LAYER_8
  6
CONTINUOUS
 10
0.321764
 20
0.682540
 11
0.317422
 21
0.678196
 39
0
 62
0
  0
LINE
  8
LAYER_8
  6
CONTINUOUS
 10
0.321520
 20
0.687656
 11
0.317422
 21
0.683558
 39
0
 62
0
  0
LINE
  8
LAYER_8
  6
CONTINUOUS
 10
0.318839
 20
0.690337
 11
0.317422
 21
0.688921
 39
0
 62
0
  0
LINE
  8
LAYER_8
  6
CONTINUOUS
 10
0.317491
 20
0.662179
 11
0.322622
 21
0.667310
 39
0
 62
0
  0
LINE
  8
LAYER_8
  6
CONTINUOUS
 10
0.318857
 20
0.668907
 11
0.322622
 21
0.672672
 39
0
 62
0
  0
LINE
  8
LAYER_8
  6
CONTINUOUS
 10
0.320311
 20
0.675723
 11
0.322622
 21
0.678034
 39
0
 62
0
  0
LINE
  8
LAYER_8
  6
CONTINUOUS
 10
0.321765
 20
0.682540
 11
0.322622
 21
0.683397
 39
0
 62
0
  0
LINE
  8
LAYER_8
  6
CONTINUOUS
 10
0.317422
 20
0.691754
 11
0.317422
 21
0.662179
 39
0
 62
0
  0
LINE
  8
LAYER_8
  6
CONTINUOUS
 10
0.322622
 20
0.686554
 11
0.322622
 21
0.662179
 39
0
 62
0
  0
LINE
  8
LAYER_8
  6
CONTINUOUS
 10
0.317422
 20
0.662179
 11
0.322622
 21
0.662179
 39
0
 62
0
  0
LINE
  8
LAYER_8
  6
CONTINUOUS
 10
0.323922
 20
0.614729
 11
0.323922
 21
0.310854
 39
0
 62
0
  0
LINE
  8
LAYER_8
  6
CONTINUOUS
 10
0.329122
 20
0.614729
 11
0.329122
 21
0.316054
 39
0
 62
0
  0
LINE
  8
LAYER_8
  6
CONTINUOUS
 10
0.323922
 20
0.614729
 11
0.329122
 21
0.614729
 39
0
 62
0
  0
LINE
  8
LAYER_8
  6
CONTINUOUS
 10
0.322622
 20
0.614729
 11
0.322622
 21
0.309554
 39
0
 62
0
  0
LINE
  8
LAYER_8
  6
CONTINUOUS
 10
0.323922
 20
0.614729
 11
0.323922
 21
0.310854
 39
0
 62
0
  0
LINE
  8
LAYER_8
  6
CONTINUOUS
 10
0.322622
 20
0.614729
 11
0.323922
 21
0.614729
 39
0
 62
0
  0
LINE
  8
LAYER_8
  6
CONTINUOUS
 10
0.322557
 20
0.313362
 11
0.317422
 21
0.308227
 39
0
 62
0
  0
LINE
  8
LAYER_8
  6
CONTINUOUS
 10
0.322468
 20
0.318635
 11
0.317422
 21
0.313589
 39
0
 62
0
  0
LINE
  8
LAYER_8
  6
CONTINUOUS
 10
0.322378
 20
0.323907
 11
0.317422
 21
0.318952
 39
0
 62
0
  0
LINE
  8
LAYER_8
  6
CONTINUOUS
 10
0.322288
 20
0.329179
 11
0.317422
 21
0.324314
 39
0
 62
0
  0
LINE
  8
LAYER_8
  6
CONTINUOUS
 10
0.322199
 20
0.334452
 11
0.317422
 21
0.329676
 39
0
 62
0
  0
LINE
  8
LAYER_8
  6
CONTINUOUS
 10
0.322109
 20
0.339724
 11
0.317422
 21
0.335038
 39
0
 62
0
  0
LINE
  8
LAYER_8
  6
CONTINUOUS
 10
0.322020
 20
0.344996
 11
0.317422
 21
0.340400
 39
0
 62
0
  0
LINE
  8
LAYER_8
  6
CONTINUOUS
 10
0.321930
 20
0.350268
 11
0.317422
 21
0.345763
 39
0
 62
0
  0
LINE
  8
LAYER_8
  6
CONTINUOUS
 10
0.321841
 20
0.355541
 11
0.317422
 21
0.351125
 39
0
 62
0
  0
LINE
  8
LAYER_8
  6
CONTINUOUS
 10
0.321751
 20
0.360813
 11
0.317422
 21
0.356487
 39
0
 62
0
  0
LINE
  8
LAYER_8
  6
CONTINUOUS
 10
0.321661
 20
0.366085
 11
0.317422
 21
0.361849
 39
0
 62
0
  0
LINE
  8
LAYER_8
  6
CONTINUOUS
 10
0.321572
 20
0.371358
 11
0.317422
 21
0.367211
 39
0
 62
0
  0
LINE
  8
LAYER_8
  6
CONTINUOUS
 10
0.321482
 20
0.376630
 11
0.317422
 21
0.372573
 39
0
 62
0
  0
LINE
  8
LAYER_8
  6
CONTINUOUS
 10
0.321393
 20
0.381902
 11
0.317422
 21
0.377936
 39
0
 62
0
  0
LINE
  8
LAYER_8
  6
CONTINUOUS
 10
0.321303
 20
0.387174
 11
0.317422
 21
0.383298
 39
0
 62
0
  0
LINE
  8
LAYER_8
  6
CONTINUOUS
 10
0.321214
 20
0.392447
 11
0.317422
 21
0.388660
 39
0
 62
0
  0
LINE
  8
LAYER_8
  6
CONTINUOUS
 10
0.321124
 20
0.397719
 11
0.317422
 21
0.394022
 39
0
 62
0
  0
LINE
  8
LAYER_8
  6
CONTINUOUS
 10
0.321034
 20
0.402991
 11
0.317422
 21
0.399384
 39
0
 62
0
  0
LINE
  8
LAYER_8
  6
CONTINUOUS
 10
0.320945
 20
0.408264
 11
0.317422
 21
0.404747
 39
0
 62
0
  0
LINE
  8
LAYER_8
  6
CONTINUOUS
 10
0.320855
 20
0.413536
 11
0.317422
 21
0.410109
 39
0
 62
0
  0
LINE
  8
LAYER_8
  6
CONTINUOUS
 10
0.320766
 20
0.418808
 11
0.317422
 21
0.415471
 39
0
 62
0
  0
LINE
  8
LAYER_8
  6
CONTINUOUS
 10
0.320676
 20
0.424081
 11
0.317422
 21
0.420833
 39
0
 62
0
  0
LINE
  8
LAYER_8
  6
CONTINUOUS
 10
0.320587
 20
0.429353
 11
0.317422
 21
0.426195
 39
0
 62
0
  0
LINE
  8
LAYER_8
  6
CONTINUOUS
 10
0.320497
 20
0.434625
 11
0.317422
 21
0.431557
 39
0
 62
0
  0
LINE
  8
LAYER_8
  6
CONTINUOUS
 10
0.320408
 20
0.439897
 11
0.317422
 21
0.436920
 39
0
 62
0
  0
LINE
  8
LAYER_8
  6
CONTINUOUS
 10
0.320318
 20
0.445170
 11
0.317422
 21
0.442282
 39
0
 62
0
  0
LINE
  8
LAYER_8
  6
CONTINUOUS
 10
0.320228
 20
0.450442
 11
0.317422
 21
0.447644
 39
0
 62
0
  0
LINE
  8
LAYER_8
  6
CONTINUOUS
 10
0.320139
 20
0.455714
 11
0.317422
 21
0.453006
 39
0
 62
0
  0
LINE
  8
LAYER_8
  6
CONTINUOUS
 10
0.320049
 20
0.460987
 11
0.317422
 21
0.458368
 39
0
 62
0
  0
LINE
  8
LAYER_8
  6
CONTINUOUS
 10
0.319960
 20
0.466259
 11
0.317422
 21
0.463731
 39
0
 62
0
  0
LINE
  8
LAYER_8
  6
CONTINUOUS
 10
0.319870
 20
0.471531
 11
0.317422
 21
0.469093
 39
0
 62
0
  0
LINE
  8
LAYER_8
  6
CONTINUOUS
 10
0.319781
 20
0.476803
 11
0.317422
 21
0.474455
 39
0
 62
0
  0
LINE
  8
LAYER_8
  6
CONTINUOUS
 10
0.319691
 20
0.482076
 11
0.317422
 21
0.479817
 39
0
 62
0
  0
LINE
  8
LAYER_8
  6
CONTINUOUS
 10
0.319601
 20
0.487348
 11
0.317422
 21
0.485179
 39
0
 62
0
  0
LINE
  8
LAYER_8
  6
CONTINUOUS
 10
0.319512
 20
0.492620
 11
0.317422
 21
0.490541
 39
0
 62
0
  0
LINE
  8
LAYER_8
  6
CONTINUOUS
 10
0.319422
 20
0.497893
 11
0.317422
 21
0.495904
 39
0
 62
0
  0
LINE
  8
LAYER_8
  6
CONTINUOUS
 10
0.319333
 20
0.503165
 11
0.317422
 21
0.501266
 39
0
 62
0
  0
LINE
  8
LAYER_8
  6
CONTINUOUS
 10
0.319243
 20
0.508437
 11
0.317422
 21
0.506628
 39
0
 62
0
  0
LINE
  8
LAYER_8
  6
CONTINUOUS
 10
0.319154
 20
0.513710
 11
0.317422
 21
0.511990
 39
0
 62
0
  0
LINE
  8
LAYER_8
  6
CONTINUOUS
 10
0.319064
 20
0.518982
 11
0.317422
 21
0.517352
 39
0
 62
0
  0
LINE
  8
LAYER_8
  6
CONTINUOUS
 10
0.318974
 20
0.524254
 11
0.317422
 21
0.522715
 39
0
 62
0
  0
LINE
  8
LAYER_8
  6
CONTINUOUS
 10
0.318885
 20
0.529526
 11
0.317422
 21
0.528077
 39
0
 62
0
  0
LINE
  8
LAYER_8
  6
CONTINUOUS
 10
0.318795
 20
0.534799
 11
0.317422
 21
0.533439
 39
0
 62
0
  0
LINE
  8
LAYER_8
  6
CONTINUOUS
 10
0.318706
 20
0.540071
 11
0.317422
 21
0.538801
 39
0
 62
0
  0
LINE
  8
LAYER_8
  6
CONTINUOUS
 10
0.318616
 20
0.545343
 11
0.317422
 21
0.544163
 39
0
 62
0
  0
LINE
  8
LAYER_8
  6
CONTINUOUS
 10
0.318527
 20
0.550616
 11
0.317422
 21
0.549525
 39
0
 62
0
  0
LINE
  8
LAYER_8
  6
CONTINUOUS
 10
0.318437
 20
0.555888
 11
0.317422
 21
0.554888
 39
0
 62
0
  0
LINE
  8
LAYER_8
  6
CONTINUOUS
 10
0.318347
 20
0.561160
 11
0.317422
 21
0.560250
 39
0
 62
0
  0
LINE
  8
LAYER_8
  6
CONTINUOUS
 10
0.318258
 20
0.566432
 11
0.317422
 21
0.565612
 39
0
 62
0
  0
LINE
  8
LAYER_8
  6
CONTINUOUS
 10
0.318168
 20
0.571705
 11
0.317422
 21
0.570974
 39
0
 62
0
  0
LINE
  8
LAYER_8
  6
CONTINUOUS
 10
0.318079
 20
0.576977
 11
0.317422
 21
0.576336
 39
0
 62
0
  0
LINE
  8
LAYER_8
  6
CONTINUOUS
 10
0.317989
 20
0.582249
 11
0.317422
 21
0.581698
 39
0
 62
0
  0
LINE
  8
LAYER_8
  6
CONTINUOUS
 10
0.317900
 20
0.587522
 11
0.317422
 21
0.587061
 39
0
 62
0
  0
LINE
  8
LAYER_8
  6
CONTINUOUS
 10
0.317810
 20
0.592794
 11
0.317422
 21
0.592423
 39
0
 62
0
  0
LINE
  8
LAYER_8
  6
CONTINUOUS
 10
0.317721
 20
0.598066
 11
0.317422
 21
0.597785
 39
0
 62
0
  0
LINE
  8
LAYER_8
  6
CONTINUOUS
 10
0.317631
 20
0.603338
 11
0.317422
 21
0.603147
 39
0
 62
0
  0
LINE
  8
LAYER_8
  6
CONTINUOUS
 10
0.317541
 20
0.608611
 11
0.317422
 21
0.608509
 39
0
 62
0
  0
LINE
  8
LAYER_8
  6
CONTINUOUS
 10
0.317452
 20
0.613883
 11
0.317422
 21
0.613872
 39
0
 62
0
  0
LINE
  8
LAYER_8
  6
CONTINUOUS
 10
0.322622
 20
0.313427
 11
0.322557
 21
0.313362
 39
0
 62
0
  0
LINE
  8
LAYER_8
  6
CONTINUOUS
 10
0.322622
 20
0.318789
 11
0.322468
 21
0.318635
 39
0
 62
0
  0
LINE
  8
LAYER_8
  6
CONTINUOUS
 10
0.322622
 20
0.324152
 11
0.322378
 21
0.323907
 39
0
 62
0
  0
LINE
  8
LAYER_8
  6
CONTINUOUS
 10
0.322622
 20
0.329514
 11
0.322288
 21
0.329179
 39
0
 62
0
  0
LINE
  8
LAYER_8
  6
CONTINUOUS
 10
0.322622
 20
0.334876
 11
0.322199
 21
0.334452
 39
0
 62
0
  0
LINE
  8
LAYER_8
  6
CONTINUOUS
 10
0.322622
 20
0.340238
 11
0.322109
 21
0.339724
 39
0
 62
0
  0
LINE
  8
LAYER_8
  6
CONTINUOUS
 10
0.322622
 20
0.345600
 11
0.322020
 21
0.344996
 39
0
 62
0
  0
LINE
  8
LAYER_8
  6
CONTINUOUS
 10
0.322622
 20
0.350963
 11
0.321930
 21
0.350268
 39
0
 62
0
  0
LINE
  8
LAYER_8
  6
CONTINUOUS
 10
0.322622
 20
0.356325
 11
0.321841
 21
0.355541
 39
0
 62
0
  0
LINE
  8
LAYER_8
  6
CONTINUOUS
 10
0.322622
 20
0.361687
 11
0.321751
 21
0.360813
 39
0
 62
0
  0
LINE
  8
LAYER_8
  6
CONTINUOUS
 10
0.322622
 20
0.367049
 11
0.321661
 21
0.366085
 39
0
 62
0
  0
LINE
  8
LAYER_8
  6
CONTINUOUS
 10
0.322622
 20
0.372411
 11
0.321572
 21
0.371358
 39
0
 62
0
  0
LINE
  8
LAYER_8
  6
CONTINUOUS
 10
0.322622
 20
0.377773
 11
0.321482
 21
0.376630
 39
0
 62
0
  0
LINE
  8
LAYER_8
  6
CONTINUOUS
 10
0.322622
 20
0.383136
 11
0.321393
 21
0.381902
 39
0
 62
0
  0
LINE
  8
LAYER_8
  6
CONTINUOUS
 10
0.322622
 20
0.388498
 11
0.321303
 21
0.387174
 39
0
 62
0
  0
LINE
  8
LAYER_8
  6
CONTINUOUS
 10
0.322622
 20
0.393860
 11
0.321214
 21
0.392447
 39
0
 62
0
  0
LINE
  8
LAYER_8
  6
CONTINUOUS
 10
0.322622
 20
0.399222
 11
0.321124
 21
0.397719
 39
0
 62
0
  0
LINE
  8
LAYER_8
  6
CONTINUOUS
 10
0.322622
 20
0.404584
 11
0.321034
 21
0.402991
 39
0
 62
0
  0
LINE
  8
LAYER_8
  6
CONTINUOUS
 10
0.322622
 20
0.409947
 11
0.320945
 21
0.408264
 39
0
 62
0
  0
LINE
  8
LAYER_8
  6
CONTINUOUS
 10
0.322622
 20
0.415309
 11
0.320855
 21
0.413536
 39
0
 62
0
  0
LINE
  8
LAYER_8
  6
CONTINUOUS
 10
0.322622
 20
0.420671
 11
0.320766
 21
0.418808
 39
0
 62
0
  0
LINE
  8
LAYER_8
  6
CONTINUOUS
 10
0.322622
 20
0.426033
 11
0.320676
 21
0.424081
 39
0
 62
0
  0
LINE
  8
LAYER_8
  6
CONTINUOUS
 10
0.322622
 20
0.431395
 11
0.320587
 21
0.429353
 39
0
 62
0
  0
LINE
  8
LAYER_8
  6
CONTINUOUS
 10
0.322622
 20
0.436757
 11
0.320497
 21
0.434625
 39
0
 62
0
  0
LINE
  8
LAYER_8
  6
CONTINUOUS
 10
0.322622
 20
0.442120
 11
0.320408
 21
0.439897
 39
0
 62
0
  0
LINE
  8
LAYER_8
  6
CONTINUOUS
 10
0.322622
 20
0.447482
 11
0.320318
 21
0.445170
 39
0
 62
0
  0
LINE
  8
LAYER_8
  6
CONTINUOUS
 10
0.322622
 20
0.452844
 11
0.320228
 21
0.450442
 39
0
 62
0
  0
LINE
  8
LAYER_8
  6
CONTINUOUS
 10
0.322622
 20
0.458206
 11
0.320139
 21
0.455714
 39
0
 62
0
  0
LINE
  8
LAYER_8
  6
CONTINUOUS
 10
0.322622
 20
0.463568
 11
0.320049
 21
0.460987
 39
0
 62
0
  0
LINE
  8
LAYER_8
  6
CONTINUOUS
 10
0.322622
 20
0.468931
 11
0.319960
 21
0.466259
 39
0
 62
0
  0
LINE
  8
LAYER_8
  6
CONTINUOUS
 10
0.322622
 20
0.474293
 11
0.319870
 21
0.471531
 39
0
 62
0
  0
LINE
  8
LAYER_8
  6
CONTINUOUS
 10
0.322622
 20
0.479655
 11
0.319781
 21
0.476803
 39
0
 62
0
  0
LINE
  8
LAYER_8
  6
CONTINUOUS
 10
0.322622
 20
0.485017
 11
0.319691
 21
0.482076
 39
0
 62
0
  0
LINE
  8
LAYER_8
  6
CONTINUOUS
 10
0.322622
 20
0.490379
 11
0.319601
 21
0.487348
 39
0
 62
0
  0
LINE
  8
LAYER_8
  6
CONTINUOUS
 10
0.322622
 20
0.495741
 11
0.319512
 21
0.492620
 39
0
 62
0
  0
LINE
  8
LAYER_8
  6
CONTINUOUS
 10
0.322622
 20
0.501104
 11
0.319422
 21
0.497893
 39
0
 62
0
  0
LINE
  8
LAYER_8
  6
CONTINUOUS
 10
0.322622
 20
0.506466
 11
0.319333
 21
0.503165
 39
0
 62
0
  0
LINE
  8
LAYER_8
  6
CONTINUOUS
 10
0.322622
 20
0.511828
 11
0.319243
 21
0.508437
 39
0
 62
0
  0
LINE
  8
LAYER_8
  6
CONTINUOUS
 10
0.322622
 20
0.517190
 11
0.319154
 21
0.513710
 39
0
 62
0
  0
LINE
  8
LAYER_8
  6
CONTINUOUS
 10
0.322622
 20
0.522552
 11
0.319064
 21
0.518982
 39
0
 62
0
  0
LINE
  8
LAYER_8
  6
CONTINUOUS
 10
0.322622
 20
0.527915
 11
0.318974
 21
0.524254
 39
0
 62
0
  0
LINE
  8
LAYER_8
  6
CONTINUOUS
 10
0.322622
 20
0.533277
 11
0.318885
 21
0.529526
 39
0
 62
0
  0
LINE
  8
LAYER_8
  6
CONTINUOUS
 10
0.322622
 20
0.538639
 11
0.318795
 21
0.534799
 39
0
 62
0
  0
LINE
  8
LAYER_8
  6
CONTINUOUS
 10
0.322622
 20
0.544001
 11
0.318706
 21
0.540071
 39
0
 62
0
  0
LINE
  8
LAYER_8
  6
CONTINUOUS
 10
0.322622
 20
0.549363
 11
0.318616
 21
0.545343
 39
0
 62
0
  0
LINE
  8
LAYER_8
  6
CONTINUOUS
 10
0.322622
 20
0.554725
 11
0.318527
 21
0.550616
 39
0
 62
0
  0
LINE
  8
LAYER_8
  6
CONTINUOUS
 10
0.322622
 20
0.560088
 11
0.318437
 21
0.555888
 39
0
 62
0
  0
LINE
  8
LAYER_8
  6
CONTINUOUS
 10
0.322622
 20
0.565450
 11
0.318347
 21
0.561160
 39
0
 62
0
  0
LINE
  8
LAYER_8
  6
CONTINUOUS
 10
0.322622
 20
0.570812
 11
0.318258
 21
0.566432
 39
0
 62
0
  0
LINE
  8
LAYER_8
  6
CONTINUOUS
 10
0.322622
 20
0.576174
 11
0.318168
 21
0.571705
 39
0
 62
0
  0
LINE
  8
LAYER_8
  6
CONTINUOUS
 10
0.322622
 20
0.581536
 11
0.318079
 21
0.576977
 39
0
 62
0
  0
LINE
  8
LAYER_8
  6
CONTINUOUS
 10
0.322622
 20
0.586898
 11
0.317989
 21
0.582249
 39
0
 62
0
  0
LINE
  8
LAYER_8
  6
CONTINUOUS
 10
0.322622
 20
0.592261
 11
0.317900
 21
0.587522
 39
0
 62
0
  0
LINE
  8
LAYER_8
  6
CONTINUOUS
 10
0.322622
 20
0.597623
 11
0.317810
 21
0.592794
 39
0
 62
0
  0
LINE
  8
LAYER_8
  6
CONTINUOUS
 10
0.322622
 20
0.602985
 11
0.317721
 21
0.598066
 39
0
 62
0
  0
LINE
  8
LAYER_8
  6
CONTINUOUS
 10
0.322622
 20
0.608347
 11
0.317631
 21
0.603338
 39
0
 62
0
  0
LINE
  8
LAYER_8
  6
CONTINUOUS
 10
0.322622
 20
0.613709
 11
0.317541
 21
0.608611
 39
0
 62
0
  0
LINE
  8
LAYER_8
  6
CONTINUOUS
 10
0.318298
 20
0.614729
 11
0.317452
 21
0.613883
 39
0
 62
0
  0
LINE
  8
LAYER_8
  6
CONTINUOUS
 10
0.317422
 20
0.614729
 11
0.317422
 21
0.304354
 39
0
 62
0
  0
LINE
  8
LAYER_8
  6
CONTINUOUS
 10
0.322622
 20
0.614729
 11
0.322622
 21
0.309554
 39
0
 62
0
  0
LINE
  8
LAYER_8
  6
CONTINUOUS
 10
0.317422
 20
0.614729
 11
0.322622
 21
0.614729
 39
0
 62
0
  0
LINE
  8
LAYER_8
  6
CONTINUOUS
 10
0.323922
 20
0.685254
 11
0.823122
 21
0.685254
 39
0
 62
0
  0
LINE
  8
LAYER_8
  6
CONTINUOUS
 10
0.322622
 20
0.686554
 11
0.824422
 21
0.686554
 39
0
 62
0
  0
LINE
  8
LAYER_8
  6
CONTINUOUS
 10
0.323922
 20
0.685254
 11
0.823122
 21
0.685254
 39
0
 62
0
  0
LINE
  8
LAYER_8
  6
CONTINUOUS
 10
0.824216
 20
0.691699
 11
0.824272
 21
0.691754
 39
0
 62
0
  0
LINE
  8
LAYER_8
  6
CONTINUOUS
 10
0.818798
 20
0.691644
 11
0.818910
 21
0.691754
 39
0
 62
0
  0
LINE
  8
LAYER_8
  6
CONTINUOUS
 10
0.813380
 20
0.691588
 11
0.813547
 21
0.691754
 39
0
 62
0
  0
LINE
  8
LAYER_8
  6
CONTINUOUS
 10
0.807963
 20
0.691533
 11
0.808185
 21
0.691754
 39
0
 62
0
  0
LINE
  8
LAYER_8
  6
CONTINUOUS
 10
0.802545
 20
0.691478
 11
0.802823
 21
0.691754
 39
0
 62
0
  0
LINE
  8
LAYER_8
  6
CONTINUOUS
 10
0.797127
 20
0.691422
 11
0.797461
 21
0.691754
 39
0
 62
0
  0
LINE
  8
LAYER_8
  6
CONTINUOUS
 10
0.791709
 20
0.691367
 11
0.792099
 21
0.691754
 39
0
 62
0
  0
LINE
  8
LAYER_8
  6
CONTINUOUS
 10
0.786291
 20
0.691312
 11
0.786736
 21
0.691754
 39
0
 62
0
  0
LINE
  8
LAYER_8
  6
CONTINUOUS
 10
0.780873
 20
0.691256
 11
0.781374
 21
0.691754
 39
0
 62
0
  0
LINE
  8
LAYER_8
  6
CONTINUOUS
 10
0.775455
 20
0.691201
 11
0.776012
 21
0.691754
 39
0
 62
0
  0
LINE
  8
LAYER_8
  6
CONTINUOUS
 10
0.770038
 20
0.691146
 11
0.770650
 21
0.691754
 39
0
 62
0
  0
LINE
  8
LAYER_8
  6
CONTINUOUS
 10
0.764620
 20
0.691090
 11
0.765288
 21
0.691754
 39
0
 62
0
  0
LINE
  8
LAYER_8
  6
CONTINUOUS
 10
0.759202
 20
0.691035
 11
0.759926
 21
0.691754
 39
0
 62
0
  0
LINE
  8
LAYER_8
  6
CONTINUOUS
 10
0.753784
 20
0.690980
 11
0.754563
 21
0.691754
 39
0
 62
0
  0
LINE
  8
LAYER_8
  6
CONTINUOUS
 10
0.748366
 20
0.690924
 11
0.749201
 21
0.691754
 39
0
 62
0
  0
LINE
  8
LAYER_8
  6
CONTINUOUS
 10
0.742948
 20
0.690869
 11
0.743839
 21
0.691754
 39
0
 62
0
  0
LINE
  8
LAYER_8
  6
CONTINUOUS
 10
0.737531
 20
0.690814
 11
0.738477
 21
0.691754
 39
0
 62
0
  0
LINE
  8
LAYER_8
  6
CONTINUOUS
 10
0.732113
 20
0.690758
 11
0.733115
 21
0.691754
 39
0
 62
0
  0
LINE
  8
LAYER_8
  6
CONTINUOUS
 10
0.726695
 20
0.690703
 11
0.727752
 21
0.691754
 39
0
 62
0
  0
LINE
  8
LAYER_8
  6
CONTINUOUS
 10
0.721277
 20
0.690648
 11
0.722390
 21
0.691754
 39
0
 62
0
  0
LINE
  8
LAYER_8
  6
CONTINUOUS
 10
0.715859
 20
0.690592
 11
0.717028
 21
0.691754
 39
0
 62
0
  0
LINE
  8
LAYER_8
  6
CONTINUOUS
 10
0.710441
 20
0.690537
 11
0.711666
 21
0.691754
 39
0
 62
0
  0
LINE
  8
LAYER_8
  6
CONTINUOUS
 10
0.705024
 20
0.690482
 11
0.706304
 21
0.691754
 39
0
 62
0
  0
LINE
  8
LAYER_8
  6
CONTINUOUS
 10
0.699606
 20
0.690426
 11
0.700942
 21
0.691754
 39
0
 62
0
  0
LINE
  8
LAYER_8
  6
CONTINUOUS
 10
0.694188
 20
0.690371
 11
0.695579
 21
0.691754
 39
0
 62
0
  0
LINE
  8
LAYER_8
  6
CONTINUOUS
 10
0.688770
 20
0.690316
 11
0.690217
 21
0.691754
 39
0
 62
0
  0
LINE
  8
LAYER_8
  6
CONTINUOUS
 10
0.683352
 20
0.690260
 11
0.684855
 21
0.691754
 39
0
 62
0
  0
LINE
  8
LAYER_8
  6
CONTINUOUS
 10
0.677934
 20
0.690205
 11
0.679493
 21
0.691754
 39
0
 62
0
  0
LINE
  8
LAYER_8
  6
CONTINUOUS
 10
0.672517
 20
0.690150
 11
0.674131
 21
0.691754
 39
0
 62
0
  0
LINE
  8
LAYER_8
  6
CONTINUOUS
 10
0.667099
 20
0.690094
 11
0.668768
 21
0.691754
 39
0
 62
0
  0
LINE
  8
LAYER_8
  6
CONTINUOUS
 10
0.661681
 20
0.690039
 11
0.663406
 21
0.691754
 39
0
 62
0
  0
LINE
  8
LAYER_8
  6
CONTINUOUS
 10
0.656263
 20
0.689984
 11
0.658044
 21
0.691754
 39
0
 62
0
  0
LINE
  8
LAYER_8
  6
CONTINUOUS
 10
0.650845
 20
0.689928
 11
0.652682
 21
0.691754
 39
0
 62
0
  0
LINE
  8
LAYER_8
  6
CONTINUOUS
 10
0.645427
 20
0.689873
 11
0.647320
 21
0.691754
 39
0
 62
0
  0
LINE
  8
LAYER_8
  6
CONTINUOUS
 10
0.640010
 20
0.689818
 11
0.641958
 21
0.691754
 39
0
 62
0
  0
LINE
  8
LAYER_8
  6
CONTINUOUS
 10
0.634592
 20
0.689762
 11
0.636595
 21
0.691754
 39
0
 62
0
  0
LINE
  8
LAYER_8
  6
CONTINUOUS
 10
0.629174
 20
0.689707
 11
0.631233
 21
0.691754
 39
0
 62
0
  0
LINE
  8
LAYER_8
  6
CONTINUOUS
 10
0.623756
 20
0.689652
 11
0.625871
 21
0.691754
 39
0
 62
0
  0
LINE
  8
LAYER_8
  6
CONTINUOUS
 10
0.618338
 20
0.689596
 11
0.620509
 21
0.691754
 39
0
 62
0
  0
LINE
  8
LAYER_8
  6
CONTINUOUS
 10
0.612920
 20
0.689541
 11
0.615147
 21
0.691754
 39
0
 62
0
  0
LINE
  8
LAYER_8
  6
CONTINUOUS
 10
0.607502
 20
0.689486
 11
0.609785
 21
0.691754
 39
0
 62
0
  0
LINE
  8
LAYER_8
  6
CONTINUOUS
 10
0.602085
 20
0.689430
 11
0.604422
 21
0.691754
 39
0
 62
0
  0
LINE
  8
LAYER_8
  6
CONTINUOUS
 10
0.596667
 20
0.689375
 11
0.599060
 21
0.691754
 39
0
 62
0
  0
LINE
  8
LAYER_8
  6
CONTINUOUS
 10
0.591249
 20
0.689320
 11
0.593698
 21
0.691754
 39
0
 62
0
  0
LINE
  8
LAYER_8
  6
CONTINUOUS
 10
0.585831
 20
0.689264
 11
0.588336
 21
0.691754
 39
0
 62
0
  0
LINE
  8
LAYER_8
  6
CONTINUOUS
 10
0.580413
 20
0.689209
 11
0.582974
 21
0.691754
 39
0
 62
0
  0
LINE
  8
LAYER_8
  6
CONTINUOUS
 10
0.574995
 20
0.689154
 11
0.577611
 21
0.691754
 39
0
 62
0
  0
LINE
  8
LAYER_8
  6
CONTINUOUS
 10
0.569578
 20
0.689098
 11
0.572249
 21
0.691754
 39
0
 62
0
  0
LINE
  8
LAYER_8
  6
CONTINUOUS
 10
0.564160
 20
0.689043
 11
0.566887
 21
0.691754
 39
0
 62
0
  0
LINE
  8
LAYER_8
  6
CONTINUOUS
 10
0.558742
 20
0.688988
 11
0.561525
 21
0.691754
 39
0
 62
0
  0
LINE
  8
LAYER_8
  6
CONTINUOUS
 10
0.553324
 20
0.688932
 11
0.556163
 21
0.691754
 39
0
 62
0
  0
LINE
  8
LAYER_8
  6
CONTINUOUS
 10
0.547906
 20
0.688877
 11
0.550801
 21
0.691754
 39
0
 62
0
  0
LINE
  8
LAYER_8
  6
CONTINUOUS
 10
0.542488
 20
0.688821
 11
0.545438
 21
0.691754
 39
0
 62
0
  0
LINE
  8
LAYER_8
  6
CONTINUOUS
 10
0.537071
 20
0.688766
 11
0.540076
 21
0.691754
 39
0
 62
0
  0
LINE
  8
LAYER_8
  6
CONTINUOUS
 10
0.531653
 20
0.688711
 11
0.534714
 21
0.691754
 39
0
 62
0
  0
LINE
  8
LAYER_8
  6
CONTINUOUS
 10
0.526235
 20
0.688655
 11
0.529352
 21
0.691754
 39
0
 62
0
  0
LINE
  8
LAYER_8
  6
CONTINUOUS
 10
0.520817
 20
0.688600
 11
0.523990
 21
0.691754
 39
0
 62
0
  0
LINE
  8
LAYER_8
  6
CONTINUOUS
 10
0.515399
 20
0.688545
 11
0.518627
 21
0.691754
 39
0
 62
0
  0
LINE
  8
LAYER_8
  6
CONTINUOUS
 10
0.509981
 20
0.688489
 11
0.513265
 21
0.691754
 39
0
 62
0
  0
LINE
  8
LAYER_8
  6
CONTINUOUS
 10
0.504564
 20
0.688434
 11
0.507903
 21
0.691754
 39
0
 62
0
  0
LINE
  8
LAYER_8
  6
CONTINUOUS
 10
0.499146
 20
0.688379
 11
0.502541
 21
0.691754
 39
0
 62
0
  0
LINE
  8
LAYER_8
  6
CONTINUOUS
 10
0.493728
 20
0.688323
 11
0.497179
 21
0.691754
 39
0
 62
0
  0
LINE
  8
LAYER_8
  6
CONTINUOUS
 10
0.488310
 20
0.688268
 11
0.491817
 21
0.691754
 39
0
 62
0
  0
LINE
  8
LAYER_8
  6
CONTINUOUS
 10
0.482892
 20
0.688213
 11
0.486454
 21
0.691754
 39
0
 62
0
  0
LINE
  8
LAYER_8
  6
CONTINUOUS
 10
0.477474
 20
0.688157
 11
0.481092
 21
0.691754
 39
0
 62
0
  0
LINE
  8
LAYER_8
  6
CONTINUOUS
 10
0.472056
 20
0.688102
 11
0.475730
 21
0.691754
 39
0
 62
0
  0
LINE
  8
LAYER_8
  6
CONTINUOUS
 10
0.466639
 20
0.688047
 11
0.470368
 21
0.691754
 39
0
 62
0
  0
LINE
  8
LAYER_8
  6
CONTINUOUS
 10
0.461221
 20
0.687991
 11
0.465006
 21
0.691754
 39
0
 62
0
  0
LINE
  8
LAYER_8
  6
CONTINUOUS
 10
0.455803
 20
0.687936
 11
0.459643
 21
0.691754
 39
0
 62
0
  0
LINE
  8
LAYER_8
  6
CONTINUOUS
 10
0.450385
 20
0.687881
 11
0.454281
 21
0.691754
 39
0
 62
0
  0
LINE
  8
LAYER_8
  6
CONTINUOUS
 10
0.444967
 20
0.687825
 11
0.448919
 21
0.691754
 39
0
 62
0
  0
LINE
  8
LAYER_8
  6
CONTINUOUS
 10
0.439549
 20
0.687770
 11
0.443557
 21
0.691754
 39
0
 62
0
  0
LINE
  8
LAYER_8
  6
CONTINUOUS
 10
0.434132
 20
0.687715
 11
0.438195
 21
0.691754
 39
0
 62
0
  0
LINE
  8
LAYER_8
  6
CONTINUOUS
 10
0.428714
 20
0.687659
 11
0.432833
 21
0.691754
 39
0
 62
0
  0
LINE
  8
LAYER_8
  6
CONTINUOUS
 10
0.423296
 20
0.687604
 11
0.427470
 21
0.691754
 39
0
 62
0
  0
LINE
  8
LAYER_8
  6
CONTINUOUS
 10
0.417878
 20
0.687549
 11
0.422108
 21
0.691754
 39
0
 62
0
  0
LINE
  8
LAYER_8
  6
CONTINUOUS
 10
0.412460
 20
0.687493
 11
0.416746
 21
0.691754
 39
0
 62
0
  0
LINE
  8
LAYER_8
  6
CONTINUOUS
 10
0.407042
 20
0.687438
 11
0.411384
 21
0.691754
 39
0
 62
0
  0
LINE
  8
LAYER_8
  6
CONTINUOUS
 10
0.401625
 20
0.687383
 11
0.406022
 21
0.691754
 39
0
 62
0
  0
LINE
  8
LAYER_8
  6
CONTINUOUS
 10
0.396207
 20
0.687327
 11
0.400659
 21
0.691754
 39
0
 62
0
  0
LINE
  8
LAYER_8
  6
CONTINUOUS
 10
0.390789
 20
0.687272
 11
0.395297
 21
0.691754
 39
0
 62
0
  0
LINE
  8
LAYER_8
  6
CONTINUOUS
 10
0.385371
 20
0.687217
 11
0.389935
 21
0.691754
 39
0
 62
0
  0
LINE
  8
LAYER_8
  6
CONTINUOUS
 10
0.379953
 20
0.687161
 11
0.384573
 21
0.691754
 39
0
 62
0
  0
LINE
  8
LAYER_8
  6
CONTINUOUS
 10
0.374535
 20
0.687106
 11
0.379211
 21
0.691754
 39
0
 62
0
  0
LINE
  8
LAYER_8
  6
CONTINUOUS
 10
0.369118
 20
0.687051
 11
0.373849
 21
0.691754
 39
0
 62
0
  0
LINE
  8
LAYER_8
  6
CONTINUOUS
 10
0.363700
 20
0.686995
 11
0.368486
 21
0.691754
 39
0
 62
0
  0
LINE
  8
LAYER_8
  6
CONTINUOUS
 10
0.358282
 20
0.686940
 11
0.363124
 21
0.691754
 39
0
 62
0
  0
LINE
  8
LAYER_8
  6
CONTINUOUS
 10
0.352864
 20
0.686885
 11
0.357762
 21
0.691754
 39
0
 62
0
  0
LINE
  8
LAYER_8
  6
CONTINUOUS
 10
0.347446
 20
0.686829
 11
0.352400
 21
0.691754
 39
0
 62
0
  0
LINE
  8
LAYER_8
  6
CONTINUOUS
 10
0.342028
 20
0.686774
 11
0.347038
 21
0.691754
 39
0
 62
0
  0
LINE
  8
LAYER_8
  6
CONTINUOUS
 10
0.336610
 20
0.686719
 11
0.341675
 21
0.691754
 39
0
 62
0
  0
LINE
  8
LAYER_8
  6
CONTINUOUS
 10
0.331193
 20
0.686663
 11
0.336313
 21
0.691754
 39
0
 62
0
  0
LINE
  8
LAYER_8
  6
CONTINUOUS
 10
0.325775
 20
0.686608
 11
0.330951
 21
0.691754
 39
0
 62
0
  0
LINE
  8
LAYER_8
  6
CONTINUOUS
 10
0.321520
 20
0.687656
 11
0.325589
 21
0.691754
 39
0
 62
0
  0
LINE
  8
LAYER_8
  6
CONTINUOUS
 10
0.318839
 20
0.690337
 11
0.320227
 21
0.691754
 39
0
 62
0
  0
LINE
  8
LAYER_8
  6
CONTINUOUS
 10
0.819072
 20
0.686554
 11
0.824216
 21
0.691699
 39
0
 62
0
  0
LINE
  8
LAYER_8
  6
CONTINUOUS
 10
0.813710
 20
0.686554
 11
0.818798
 21
0.691644
 39
0
 62
0
  0
LINE
  8
LAYER_8
  6
CONTINUOUS
 10
0.808347
 20
0.686554
 11
0.813380
 21
0.691588
 39
0
 62
0
  0
LINE
  8
LAYER_8
  6
CONTINUOUS
 10
0.802985
 20
0.686554
 11
0.807963
 21
0.691533
 39
0
 62
0
  0
LINE
  8
LAYER_8
  6
CONTINUOUS
 10
0.797623
 20
0.686554
 11
0.802545
 21
0.691478
 39
0
 62
0
  0
LINE
  8
LAYER_8
  6
CONTINUOUS
 10
0.792261
 20
0.686554
 11
0.797127
 21
0.691422
 39
0
 62
0
  0
LINE
  8
LAYER_8
  6
CONTINUOUS
 10
0.786899
 20
0.686554
 11
0.791709
 21
0.691367
 39
0
 62
0
  0
LINE
  8
LAYER_8
  6
CONTINUOUS
 10
0.781536
 20
0.686554
 11
0.786291
 21
0.691312
 39
0
 62
0
  0
LINE
  8
LAYER_8
  6
CONTINUOUS
 10
0.776174
 20
0.686554
 11
0.780873
 21
0.691256
 39
0
 62
0
  0
LINE
  8
LAYER_8
  6
CONTINUOUS
 10
0.770812
 20
0.686554
 11
0.775455
 21
0.691201
 39
0
 62
0
  0
LINE
  8
LAYER_8
  6
CONTINUOUS
 10
0.765450
 20
0.686554
 11
0.770038
 21
0.691146
 39
0
 62
0
  0
LINE
  8
LAYER_8
  6
CONTINUOUS
 10
0.760088
 20
0.686554
 11
0.764620
 21
0.691090
 39
0
 62
0
  0
LINE
  8
LAYER_8
  6
CONTINUOUS
 10
0.754726
 20
0.686554
 11
0.759202
 21
0.691035
 39
0
 62
0
  0
LINE
  8
LAYER_8
  6
CONTINUOUS
 10
0.749363
 20
0.686554
 11
0.753784
 21
0.690980
 39
0
 62
0
  0
LINE
  8
LAYER_8
  6
CONTINUOUS
 10
0.744001
 20
0.686554
 11
0.748366
 21
0.690924
 39
0
 62
0
  0
LINE
  8
LAYER_8
  6
CONTINUOUS
 10
0.738639
 20
0.686554
 11
0.742948
 21
0.690869
 39
0
 62
0
  0
LINE
  8
LAYER_8
  6
CONTINUOUS
 10
0.733277
 20
0.686554
 11
0.737531
 21
0.690814
 39
0
 62
0
  0
LINE
  8
LAYER_8
  6
CONTINUOUS
 10
0.727915
 20
0.686554
 11
0.732113
 21
0.690758
 39
0
 62
0
  0
LINE
  8
LAYER_8
  6
CONTINUOUS
 10
0.722552
 20
0.686554
 11
0.726695
 21
0.690703
 39
0
 62
0
  0
LINE
  8
LAYER_8
  6
CONTINUOUS
 10
0.717190
 20
0.686554
 11
0.721277
 21
0.690648
 39
0
 62
0
  0
LINE
  8
LAYER_8
  6
CONTINUOUS
 10
0.711828
 20
0.686554
 11
0.715859
 21
0.690592
 39
0
 62
0
  0
LINE
  8
LAYER_8
  6
CONTINUOUS
 10
0.706466
 20
0.686554
 11
0.710441
 21
0.690537
 39
0
 62
0
  0
LINE
  8
LAYER_8
  6
CONTINUOUS
 10
0.701104
 20
0.686554
 11
0.705024
 21
0.690482
 39
0
 62
0
  0
LINE
  8
LAYER_8
  6
CONTINUOUS
 10
0.695742
 20
0.686554
 11
0.699606
 21
0.690426
 39
0
 62
0
  0
LINE
  8
LAYER_8
  6
CONTINUOUS
 10
0.690379
 20
0.686554
 11
0.694188
 21
0.690371
 39
0
 62
0
  0
LINE
  8
LAYER_8
  6
CONTINUOUS
 10
0.685017
 20
0.686554
 11
0.688770
 21
0.690316
 39
0
 62
0
  0
LINE
  8
LAYER_8
  6
CONTINUOUS
 10
0.679655
 20
0.686554
 11
0.683352
 21
0.690260
 39
0
 62
0
  0
LINE
  8
LAYER_8
  6
CONTINUOUS
 10
0.674293
 20
0.686554
 11
0.677934
 21
0.690205
 39
0
 62
0
  0
LINE
  8
LAYER_8
  6
CONTINUOUS
 10
0.668931
 20
0.686554
 11
0.672517
 21
0.690150
 39
0
 62
0
  0
LINE
  8
LAYER_8
  6
CONTINUOUS
 10
0.663568
 20
0.686554
 11
0.667099
 21
0.690094
 39
0
 62
0
  0
LINE
  8
LAYER_8
  6
CONTINUOUS
 10
0.658206
 20
0.686554
 11
0.661681
 21
0.690039
 39
0
 62
0
  0
LINE
  8
LAYER_8
  6
CONTINUOUS
 10
0.652844
 20
0.686554
 11
0.656263
 21
0.689984
 39
0
 62
0
  0
LINE
  8
LAYER_8
  6
CONTINUOUS
 10
0.647482
 20
0.686554
 11
0.650845
 21
0.689928
 39
0
 62
0
  0
LINE
  8
LAYER_8
  6
CONTINUOUS
 10
0.642120
 20
0.686554
 11
0.645427
 21
0.689873
 39
0
 62
0
  0
LINE
  8
LAYER_8
  6
CONTINUOUS
 10
0.636758
 20
0.686554
 11
0.640010
 21
0.689818
 39
0
 62
0
  0
LINE
  8
LAYER_8
  6
CONTINUOUS
 10
0.631395
 20
0.686554
 11
0.634592
 21
0.689762
 39
0
 62
0
  0
LINE
  8
LAYER_8
  6
CONTINUOUS
 10
0.626033
 20
0.686554
 11
0.629174
 21
0.689707
 39
0
 62
0
  0
LINE
  8
LAYER_8
  6
CONTINUOUS
 10
0.620671
 20
0.686554
 11
0.623756
 21
0.689652
 39
0
 62
0
  0
LINE
  8
LAYER_8
  6
CONTINUOUS
 10
0.615309
 20
0.686554
 11
0.618338
 21
0.689596
 39
0
 62
0
  0
LINE
  8
LAYER_8
  6
CONTINUOUS
 10
0.609947
 20
0.686554
 11
0.612920
 21
0.689541
 39
0
 62
0
  0
LINE
  8
LAYER_8
  6
CONTINUOUS
 10
0.604585
 20
0.686554
 11
0.607502
 21
0.689486
 39
0
 62
0
  0
LINE
  8
LAYER_8
  6
CONTINUOUS
 10
0.599222
 20
0.686554
 11
0.602085
 21
0.689430
 39
0
 62
0
  0
LINE
  8
LAYER_8
  6
CONTINUOUS
 10
0.593860
 20
0.686554
 11
0.596667
 21
0.689375
 39
0
 62
0
  0
LINE
  8
LAYER_8
  6
CONTINUOUS
 10
0.588498
 20
0.686554
 11
0.591249
 21
0.689320
 39
0
 62
0
  0
LINE
  8
LAYER_8
  6
CONTINUOUS
 10
0.583136
 20
0.686554
 11
0.585831
 21
0.689264
 39
0
 62
0
  0
LINE
  8
LAYER_8
  6
CONTINUOUS
 10
0.577774
 20
0.686554
 11
0.580413
 21
0.689209
 39
0
 62
0
  0
LINE
  8
LAYER_8
  6
CONTINUOUS
 10
0.572411
 20
0.686554
 11
0.574995
 21
0.689154
 39
0
 62
0
  0
LINE
  8
LAYER_8
  6
CONTINUOUS
 10
0.567049
 20
0.686554
 11
0.569578
 21
0.689098
 39
0
 62
0
  0
LINE
  8
LAYER_8
  6
CONTINUOUS
 10
0.561687
 20
0.686554
 11
0.564160
 21
0.689043
 39
0
 62
0
  0
LINE
  8
LAYER_8
  6
CONTINUOUS
 10
0.556325
 20
0.686554
 11
0.558742
 21
0.688988
 39
0
 62
0
  0
LINE
  8
LAYER_8
  6
CONTINUOUS
 10
0.550963
 20
0.686554
 11
0.553324
 21
0.688932
 39
0
 62
0
  0
LINE
  8
LAYER_8
  6
CONTINUOUS
 10
0.545601
 20
0.686554
 11
0.547906
 21
0.688877
 39
0
 62
0
  0
LINE
  8
LAYER_8
  6
CONTINUOUS
 10
0.540238
 20
0.686554
 11
0.542488
 21
0.688821
 39
0
 62
0
  0
LINE
  8
LAYER_8
  6
CONTINUOUS
 10
0.534876
 20
0.686554
 11
0.537071
 21
0.688766
 39
0
 62
0
  0
LINE
  8
LAYER_8
  6
CONTINUOUS
 10
0.529514
 20
0.686554
 11
0.531653
 21
0.688711
 39
0
 62
0
  0
LINE
  8
LAYER_8
  6
CONTINUOUS
 10
0.524152
 20
0.686554
 11
0.526235
 21
0.688655
 39
0
 62
0
  0
LINE
  8
LAYER_8
  6
CONTINUOUS
 10
0.518790
 20
0.686554
 11
0.520817
 21
0.688600
 39
0
 62
0
  0
LINE
  8
LAYER_8
  6
CONTINUOUS
 10
0.513427
 20
0.686554
 11
0.515399
 21
0.688545
 39
0
 62
0
  0
LINE
  8
LAYER_8
  6
CONTINUOUS
 10
0.508065
 20
0.686554
 11
0.509981
 21
0.688489
 39
0
 62
0
  0
LINE
  8
LAYER_8
  6
CONTINUOUS
 10
0.502703
 20
0.686554
 11
0.504564
 21
0.688434
 39
0
 62
0
  0
LINE
  8
LAYER_8
  6
CONTINUOUS
 10
0.497341
 20
0.686554
 11
0.499146
 21
0.688379
 39
0
 62
0
  0
LINE
  8
LAYER_8
  6
CONTINUOUS
 10
0.491979
 20
0.686554
 11
0.493728
 21
0.688323
 39
0
 62
0
  0
LINE
  8
LAYER_8
  6
CONTINUOUS
 10
0.486617
 20
0.686554
 11
0.488310
 21
0.688268
 39
0
 62
0
  0
LINE
  8
LAYER_8
  6
CONTINUOUS
 10
0.481254
 20
0.686554
 11
0.482892
 21
0.688213
 39
0
 62
0
  0
LINE
  8
LAYER_8
  6
CONTINUOUS
 10
0.475892
 20
0.686554
 11
0.477474
 21
0.688157
 39
0
 62
0
  0
LINE
  8
LAYER_8
  6
CONTINUOUS
 10
0.470530
 20
0.686554
 11
0.472056
 21
0.688102
 39
0
 62
0
  0
LINE
  8
LAYER_8
  6
CONTINUOUS
 10
0.465168
 20
0.686554
 11
0.466639
 21
0.688047
 39
0
 62
0
  0
LINE
  8
LAYER_8
  6
CONTINUOUS
 10
0.459806
 20
0.686554
 11
0.461221
 21
0.687991
 39
0
 62
0
  0
LINE
  8
LAYER_8
  6
CONTINUOUS
 10
0.454443
 20
0.686554
 11
0.455803
 21
0.687936
 39
0
 62
0
  0
LINE
  8
LAYER_8
  6
CONTINUOUS
 10
0.449081
 20
0.686554
 11
0.450385
 21
0.687881
 39
0
 62
0
  0
LINE
  8
LAYER_8
  6
CONTINUOUS
 10
0.443719
 20
0.686554
 11
0.444967
 21
0.687825
 39
0
 62
0
  0
LINE
  8
LAYER_8
  6
CONTINUOUS
 10
0.438357
 20
0.686554
 11
0.439549
 21
0.687770
 39
0
 62
0
  0
LINE
  8
LAYER_8
  6
CONTINUOUS
 10
0.432995
 20
0.686554
 11
0.434132
 21
0.687715
 39
0
 62
0
  0
LINE
  8
LAYER_8
  6
CONTINUOUS
 10
0.427633
 20
0.686554
 11
0.428714
 21
0.687659
 39
0
 62
0
  0
LINE
  8
LAYER_8
  6
CONTINUOUS
 10
0.422270
 20
0.686554
 11
0.423296
 21
0.687604
 39
0
 62
0
  0
LINE
  8
LAYER_8
  6
CONTINUOUS
 10
0.416908
 20
0.686554
 11
0.417878
 21
0.687549
 39
0
 62
0
  0
LINE
  8
LAYER_8
  6
CONTINUOUS
 10
0.411546
 20
0.686554
 11
0.412460
 21
0.687493
 39
0
 62
0
  0
LINE
  8
LAYER_8
  6
CONTINUOUS
 10
0.406184
 20
0.686554
 11
0.407042
 21
0.687438
 39
0
 62
0
  0
LINE
  8
LAYER_8
  6
CONTINUOUS
 10
0.400822
 20
0.686554
 11
0.401625
 21
0.687383
 39
0
 62
0
  0
LINE
  8
LAYER_8
  6
CONTINUOUS
 10
0.395459
 20
0.686554
 11
0.396207
 21
0.687327
 39
0
 62
0
  0
LINE
  8
LAYER_8
  6
CONTINUOUS
 10
0.390097
 20
0.686554
 11
0.390789
 21
0.687272
 39
0
 62
0
  0
LINE
  8
LAYER_8
  6
CONTINUOUS
 10
0.384735
 20
0.686554
 11
0.385371
 21
0.687217
 39
0
 62
0
  0
LINE
  8
LAYER_8
  6
CONTINUOUS
 10
0.379373
 20
0.686554
 11
0.379953
 21
0.687161
 39
0
 62
0
  0
LINE
  8
LAYER_8
  6
CONTINUOUS
 10
0.374011
 20
0.686554
 11
0.374535
 21
0.687106
 39
0
 62
0
  0
LINE
  8
LAYER_8
  6
CONTINUOUS
 10
0.368649
 20
0.686554
 11
0.369118
 21
0.687051
 39
0
 62
0
  0
LINE
  8
LAYER_8
  6
CONTINUOUS
 10
0.363286
 20
0.686554
 11
0.363700
 21
0.686995
 39
0
 62
0
  0
LINE
  8
LAYER_8
  6
CONTINUOUS
 10
0.357924
 20
0.686554
 11
0.358282
 21
0.686940
 39
0
 62
0
  0
LINE
  8
LAYER_8
  6
CONTINUOUS
 10
0.352562
 20
0.686554
 11
0.352864
 21
0.686885
 39
0
 62
0
  0
LINE
  8
LAYER_8
  6
CONTINUOUS
 10
0.347200
 20
0.686554
 11
0.347446
 21
0.686829
 39
0
 62
0
  0
LINE
  8
LAYER_8
  6
CONTINUOUS
 10
0.341838
 20
0.686554
 11
0.342028
 21
0.686774
 39
0
 62
0
  0
LINE
  8
LAYER_8
  6
CONTINUOUS
 10
0.336475
 20
0.686554
 11
0.336610
 21
0.686719
 39
0
 62
0
  0
LINE
  8
LAYER_8
  6
CONTINUOUS
 10
0.331113
 20
0.686554
 11
0.331193
 21
0.686663
 39
0
 62
0
  0
LINE
  8
LAYER_8
  6
CONTINUOUS
 10
0.325751
 20
0.686554
 11
0.325775
 21
0.686608
 39
0
 62
0
  0
LINE
  8
LAYER_8
  6
CONTINUOUS
 10
0.317422
 20
0.691754
 11
0.829622
 21
0.691754
 39
0
 62
0
  0
LINE
  8
LAYER_8
  6
CONTINUOUS
 10
0.322622
 20
0.686554
 11
0.824422
 21
0.686554
 39
0
 62
0
  0
LINE
  8
LAYER_8
  6
CONTINUOUS
 10
0.823122
 20
0.685254
 11
0.823122
 21
0.529254
 39
0
 62
0
  0
LINE
  8
LAYER_8
  6
CONTINUOUS
 10
0.817922
 20
0.680054
 11
0.817922
 21
0.529254
 39
0
 62
0
  0
LINE
  8
LAYER_8
  6
CONTINUOUS
 10
0.823122
 20
0.529254
 11
0.817922
 21
0.529254
 39
0
 62
0
  0
LINE
  8
LAYER_8
  6
CONTINUOUS
 10
0.824422
 20
0.686554
 11
0.824422
 21
0.529254
 39
0
 62
0
  0
LINE
  8
LAYER_8
  6
CONTINUOUS
 10
0.823122
 20
0.685254
 11
0.823122
 21
0.529254
 39
0
 62
0
  0
LINE
  8
LAYER_8
  6
CONTINUOUS
 10
0.824422
 20
0.529254
 11
0.823122
 21
0.529254
 39
0
 62
0
  0
LINE
  8
LAYER_8
  6
CONTINUOUS
 10
0.829622
 20
0.530887
 11
0.829570
 21
0.530834
 39
0
 62
0
  0
LINE
  8
LAYER_8
  6
CONTINUOUS
 10
0.829622
 20
0.536249
 11
0.829398
 21
0.536025
 39
0
 62
0
  0
LINE
  8
LAYER_8
  6
CONTINUOUS
 10
0.829622
 20
0.541611
 11
0.829227
 21
0.541215
 39
0
 62
0
  0
LINE
  8
LAYER_8
  6
CONTINUOUS
 10
0.829622
 20
0.546973
 11
0.829055
 21
0.546406
 39
0
 62
0
  0
LINE
  8
LAYER_8
  6
CONTINUOUS
 10
0.829622
 20
0.552336
 11
0.828884
 21
0.551596
 39
0
 62
0
  0
LINE
  8
LAYER_8
  6
CONTINUOUS
 10
0.829622
 20
0.557698
 11
0.828712
 21
0.556786
 39
0
 62
0
  0
LINE
  8
LAYER_8
  6
CONTINUOUS
 10
0.829622
 20
0.563060
 11
0.828541
 21
0.561977
 39
0
 62
0
  0
LINE
  8
LAYER_8
  6
CONTINUOUS
 10
0.829622
 20
0.568422
 11
0.828369
 21
0.567167
 39
0
 62
0
  0
LINE
  8
LAYER_8
  6
CONTINUOUS
 10
0.829622
 20
0.573784
 11
0.828198
 21
0.572358
 39
0
 62
0
  0
LINE
  8
LAYER_8
  6
CONTINUOUS
 10
0.829622
 20
0.579146
 11
0.828026
 21
0.577548
 39
0
 62
0
  0
LINE
  8
LAYER_8
  6
CONTINUOUS
 10
0.829622
 20
0.584509
 11
0.827855
 21
0.582738
 39
0
 62
0
  0
LINE
  8
LAYER_8
  6
CONTINUOUS
 10
0.829622
 20
0.589871
 11
0.827684
 21
0.587929
 39
0
 62
0
  0
LINE
  8
LAYER_8
  6
CONTINUOUS
 10
0.829622
 20
0.595233
 11
0.827512
 21
0.593119
 39
0
 62
0
  0
LINE
  8
LAYER_8
  6
CONTINUOUS
 10
0.829622
 20
0.600595
 11
0.827341
 21
0.598310
 39
0
 62
0
  0
LINE
  8
LAYER_8
  6
CONTINUOUS
 10
0.829622
 20
0.605957
 11
0.827169
 21
0.603500
 39
0
 62
0
  0
LINE
  8
LAYER_8
  6
CONTINUOUS
 10
0.829622
 20
0.611320
 11
0.826998
 21
0.608690
 39
0
 62
0
  0
LINE
  8
LAYER_8
  6
CONTINUOUS
 10
0.829622
 20
0.616682
 11
0.826826
 21
0.613881
 39
0
 62
0
  0
LINE
  8
LAYER_8
  6
CONTINUOUS
 10
0.829622
 20
0.622044
 11
0.826655
 21
0.619071
 39
0
 62
0
  0
LINE
  8
LAYER_8
  6
CONTINUOUS
 10
0.829622
 20
0.627406
 11
0.826483
 21
0.624262
 39
0
 62
0
  0
LINE
  8
LAYER_8
  6
CONTINUOUS
 10
0.829622
 20
0.632768
 11
0.826312
 21
0.629452
 39
0
 62
0
  0
LINE
  8
LAYER_8
  6
CONTINUOUS
 10
0.829622
 20
0.638130
 11
0.826140
 21
0.634642
 39
0
 62
0
  0
LINE
  8
LAYER_8
  6
CONTINUOUS
 10
0.829622
 20
0.643493
 11
0.825969
 21
0.639833
 39
0
 62
0
  0
LINE
  8
LAYER_8
  6
CONTINUOUS
 10
0.829622
 20
0.648855
 11
0.825798
 21
0.645023
 39
0
 62
0
  0
LINE
  8
LAYER_8
  6
CONTINUOUS
 10
0.829622
 20
0.654217
 11
0.825626
 21
0.650214
 39
0
 62
0
  0
LINE
  8
LAYER_8
  6
CONTINUOUS
 10
0.829622
 20
0.659579
 11
0.825455
 21
0.655404
 39
0
 62
0
  0
LINE
  8
LAYER_8
  6
CONTINUOUS
 10
0.829622
 20
0.664941
 11
0.825283
 21
0.660594
 39
0
 62
0
  0
LINE
  8
LAYER_8
  6
CONTINUOUS
 10
0.829622
 20
0.670304
 11
0.825112
 21
0.665785
 39
0
 62
0
  0
LINE
  8
LAYER_8
  6
CONTINUOUS
 10
0.829622
 20
0.675666
 11
0.824940
 21
0.670975
 39
0
 62
0
  0
LINE
  8
LAYER_8
  6
CONTINUOUS
 10
0.829622
 20
0.681028
 11
0.824769
 21
0.676166
 39
0
 62
0
  0
LINE
  8
LAYER_8
  6
CONTINUOUS
 10
0.829622
 20
0.686390
 11
0.824597
 21
0.681356
 39
0
 62
0
  0
LINE
  8
LAYER_8
  6
CONTINUOUS
 10
0.829622
 20
0.691752
 11
0.824426
 21
0.686546
 39
0
 62
0
  0
LINE
  8
LAYER_8
  6
CONTINUOUS
 10
0.827989
 20
0.529254
 11
0.829570
 21
0.530834
 39
0
 62
0
  0
LINE
  8
LAYER_8
  6
CONTINUOUS
 10
0.824422
 20
0.531048
 11
0.829398
 21
0.536025
 39
0
 62
0
  0
LINE
  8
LAYER_8
  6
CONTINUOUS
 10
0.824422
 20
0.536411
 11
0.829227
 21
0.541215
 39
0
 62
0
  0
LINE
  8
LAYER_8
  6
CONTINUOUS
 10
0.824422
 20
0.541773
 11
0.829055
 21
0.546406
 39
0
 62
0
  0
LINE
  8
LAYER_8
  6
CONTINUOUS
 10
0.824422
 20
0.547135
 11
0.828884
 21
0.551596
 39
0
 62
0
  0
LINE
  8
LAYER_8
  6
CONTINUOUS
 10
0.824422
 20
0.552497
 11
0.828712
 21
0.556786
 39
0
 62
0
  0
LINE
  8
LAYER_8
  6
CONTINUOUS
 10
0.824422
 20
0.557859
 11
0.828541
 21
0.561977
 39
0
 62
0
  0
LINE
  8
LAYER_8
  6
CONTINUOUS
 10
0.824422
 20
0.563221
 11
0.828369
 21
0.567167
 39
0
 62
0
  0
LINE
  8
LAYER_8
  6
CONTINUOUS
 10
0.824422
 20
0.568584
 11
0.828198
 21
0.572358
 39
0
 62
0
  0
LINE
  8
LAYER_8
  6
CONTINUOUS
 10
0.824422
 20
0.573946
 11
0.828026
 21
0.577548
 39
0
 62
0
  0
LINE
  8
LAYER_8
  6
CONTINUOUS
 10
0.824422
 20
0.579308
 11
0.827855
 21
0.582738
 39
0
 62
0
  0
LINE
  8
LAYER_8
  6
CONTINUOUS
 10
0.824422
 20
0.584670
 11
0.827684
 21
0.587929
 39
0
 62
0
  0
LINE
  8
LAYER_8
  6
CONTINUOUS
 10
0.824422
 20
0.590032
 11
0.827512
 21
0.593119
 39
0
 62
0
  0
LINE
  8
LAYER_8
  6
CONTINUOUS
 10
0.824422
 20
0.595395
 11
0.827341
 21
0.598310
 39
0
 62
0
  0
LINE
  8
LAYER_8
  6
CONTINUOUS
 10
0.824422
 20
0.600757
 11
0.827169
 21
0.603500
 39
0
 62
0
  0
LINE
  8
LAYER_8
  6
CONTINUOUS
 10
0.824422
 20
0.606119
 11
0.826998
 21
0.608690
 39
0
 62
0
  0
LINE
  8
LAYER_8
  6
CONTINUOUS
 10
0.824422
 20
0.611481
 11
0.826826
 21
0.613881
 39
0
 62
0
  0
LINE
  8
LAYER_8
  6
CONTINUOUS
 10
0.824422
 20
0.616843
 11
0.826655
 21
0.619071
 39
0
 62
0
  0
LINE
  8
LAYER_8
  6
CONTINUOUS
 10
0.824422
 20
0.622205
 11
0.826483
 21
0.624262
 39
0
 62
0
  0
LINE
  8
LAYER_8
  6
CONTINUOUS
 10
0.824422
 20
0.627568
 11
0.826312
 21
0.629452
 39
0
 62
0
  0
LINE
  8
LAYER_8
  6
CONTINUOUS
 10
0.824422
 20
0.632930
 11
0.826140
 21
0.634642
 39
0
 62
0
  0
LINE
  8
LAYER_8
  6
CONTINUOUS
 10
0.824422
 20
0.638292
 11
0.825969
 21
0.639833
 39
0
 62
0
  0
LINE
  8
LAYER_8
  6
CONTINUOUS
 10
0.824422
 20
0.643654
 11
0.825798
 21
0.645023
 39
0
 62
0
  0
LINE
  8
LAYER_8
  6
CONTINUOUS
 10
0.824422
 20
0.649016
 11
0.825626
 21
0.650214
 39
0
 62
0
  0
LINE
  8
LAYER_8
  6
CONTINUOUS
 10
0.824422
 20
0.654379
 11
0.825455
 21
0.655404
 39
0
 62
0
  0
LINE
  8
LAYER_8
  6
CONTINUOUS
 10
0.824422
 20
0.659741
 11
0.825283
 21
0.660594
 39
0
 62
0
  0
LINE
  8
LAYER_8
  6
CONTINUOUS
 10
0.824422
 20
0.665103
 11
0.825112
 21
0.665785
 39
0
 62
0
  0
LINE
  8
LAYER_8
  6
CONTINUOUS
 10
0.824422
 20
0.670465
 11
0.824940
 21
0.670975
 39
0
 62
0
  0
LINE
  8
LAYER_8
  6
CONTINUOUS
 10
0.824422
 20
0.675827
 11
0.824769
 21
0.676166
 39
0
 62
0
  0
LINE
  8
LAYER_8
  6
CONTINUOUS
 10
0.824422
 20
0.681189
 11
0.824597
 21
0.681356
 39
0
 62
0
  0
LINE
  8
LAYER_8
  6
CONTINUOUS
 10
0.824422
 20
0.686552
 11
0.824426
 21
0.686546
 39
0
 62
0
  0
LINE
  8
LAYER_8
  6
CONTINUOUS
 10
0.829622
 20
0.691754
 11
0.829622
 21
0.529254
 39
0
 62
0
  0
LINE
  8
LAYER_8
  6
CONTINUOUS
 10
0.824422
 20
0.686554
 11
0.824422
 21
0.529254
 39
0
 62
0
  0
LINE
  8
LAYER_8
  6
CONTINUOUS
 10
0.829622
 20
0.529254
 11
0.824422
 21
0.529254
 39
0
 62
0
  0
LINE
  8
LAYER_8
  6
CONTINUOUS
 10
0.823122
 20
0.466854
 11
0.823122
 21
0.310854
 39
0
 62
0
  0
LINE
  8
LAYER_8
  6
CONTINUOUS
 10
0.817922
 20
0.466854
 11
0.817922
 21
0.316054
 39
0
 62
0
  0
LINE
  8
LAYER_8
  6
CONTINUOUS
 10
0.823122
 20
0.466854
 11
0.817922
 21
0.466854
 39
0
 62
0
  0
LINE
  8
LAYER_8
  6
CONTINUOUS
 10
0.824422
 20
0.466854
 11
0.824422
 21
0.309554
 39
0
 62
0
  0
LINE
  8
LAYER_8
  6
CONTINUOUS
 10
0.823122
 20
0.466854
 11
0.823122
 21
0.310854
 39
0
 62
0
  0
LINE
  8
LAYER_8
  6
CONTINUOUS
 10
0.824422
 20
0.466854
 11
0.823122
 21
0.466854
 39
0
 62
0
  0
LINE
  8
LAYER_8
  6
CONTINUOUS
 10
0.828955
 20
0.305021
 11
0.829622
 21
0.305689
 39
0
 62
0
  0
LINE
  8
LAYER_8
  6
CONTINUOUS
 10
0.826274
 20
0.307702
 11
0.829622
 21
0.311051
 39
0
 62
0
  0
LINE
  8
LAYER_8
  6
CONTINUOUS
 10
0.824478
 20
0.311269
 11
0.829622
 21
0.316413
 39
0
 62
0
  0
LINE
  8
LAYER_8
  6
CONTINUOUS
 10
0.824662
 20
0.316814
 11
0.829622
 21
0.321775
 39
0
 62
0
  0
LINE
  8
LAYER_8
  6
CONTINUOUS
 10
0.824845
 20
0.322360
 11
0.829622
 21
0.327137
 39
0
 62
0
  0
LINE
  8
LAYER_8
  6
CONTINUOUS
 10
0.825028
 20
0.327905
 11
0.829622
 21
0.332500
 39
0
 62
0
  0
LINE
  8
LAYER_8
  6
CONTINUOUS
 10
0.825212
 20
0.333451
 11
0.829622
 21
0.337862
 39
0
 62
0
  0
LINE
  8
LAYER_8
  6
CONTINUOUS
 10
0.825395
 20
0.338996
 11
0.829622
 21
0.343224
 39
0
 62
0
  0
LINE
  8
LAYER_8
  6
CONTINUOUS
 10
0.825578
 20
0.344542
 11
0.829622
 21
0.348586
 39
0
 62
0
  0
LINE
  8
LAYER_8
  6
CONTINUOUS
 10
0.825761
 20
0.350087
 11
0.829622
 21
0.353948
 39
0
 62
0
  0
LINE
  8
LAYER_8
  6
CONTINUOUS
 10
0.825945
 20
0.355633
 11
0.829622
 21
0.359311
 39
0
 62
0
  0
LINE
  8
LAYER_8
  6
CONTINUOUS
 10
0.826128
 20
0.361178
 11
0.829622
 21
0.364673
 39
0
 62
0
  0
LINE
  8
LAYER_8
  6
CONTINUOUS
 10
0.826311
 20
0.366723
 11
0.829622
 21
0.370035
 39
0
 62
0
  0
LINE
  8
LAYER_8
  6
CONTINUOUS
 10
0.826495
 20
0.372269
 11
0.829622
 21
0.375397
 39
0
 62
0
  0
LINE
  8
LAYER_8
  6
CONTINUOUS
 10
0.826678
 20
0.377814
 11
0.829622
 21
0.380759
 39
0
 62
0
  0
LINE
  8
LAYER_8
  6
CONTINUOUS
 10
0.826861
 20
0.383360
 11
0.829622
 21
0.386121
 39
0
 62
0
  0
LINE
  8
LAYER_8
  6
CONTINUOUS
 10
0.827044
 20
0.388905
 11
0.829622
 21
0.391484
 39
0
 62
0
  0
LINE
  8
LAYER_8
  6
CONTINUOUS
 10
0.827228
 20
0.394451
 11
0.829622
 21
0.396846
 39
0
 62
0
  0
LINE
  8
LAYER_8
  6
CONTINUOUS
 10
0.827411
 20
0.399996
 11
0.829622
 21
0.402208
 39
0
 62
0
  0
LINE
  8
LAYER_8
  6
CONTINUOUS
 10
0.827594
 20
0.405542
 11
0.829622
 21
0.407570
 39
0
 62
0
  0
LINE
  8
LAYER_8
  6
CONTINUOUS
 10
0.827778
 20
0.411087
 11
0.829622
 21
0.412932
 39
0
 62
0
  0
LINE
  8
LAYER_8
  6
CONTINUOUS
 10
0.827961
 20
0.416633
 11
0.829622
 21
0.418295
 39
0
 62
0
  0
LINE
  8
LAYER_8
  6
CONTINUOUS
 10
0.828144
 20
0.422178
 11
0.829622
 21
0.423657
 39
0
 62
0
  0
LINE
  8
LAYER_8
  6
CONTINUOUS
 10
0.828327
 20
0.427724
 11
0.829622
 21
0.429019
 39
0
 62
0
  0
LINE
  8
LAYER_8
  6
CONTINUOUS
 10
0.828511
 20
0.433269
 11
0.829622
 21
0.434381
 39
0
 62
0
  0
LINE
  8
LAYER_8
  6
CONTINUOUS
 10
0.828694
 20
0.438815
 11
0.829622
 21
0.439743
 39
0
 62
0
  0
LINE
  8
LAYER_8
  6
CONTINUOUS
 10
0.828877
 20
0.444360
 11
0.829622
 21
0.445105
 39
0
 62
0
  0
LINE
  8
LAYER_8
  6
CONTINUOUS
 10
0.829061
 20
0.449906
 11
0.829622
 21
0.450468
 39
0
 62
0
  0
LINE
  8
LAYER_8
  6
CONTINUOUS
 10
0.829244
 20
0.455451
 11
0.829622
 21
0.455830
 39
0
 62
0
  0
LINE
  8
LAYER_8
  6
CONTINUOUS
 10
0.829427
 20
0.460996
 11
0.829622
 21
0.461192
 39
0
 62
0
  0
LINE
  8
LAYER_8
  6
CONTINUOUS
 10
0.829611
 20
0.466542
 11
0.829622
 21
0.466554
 39
0
 62
0
  0
LINE
  8
LAYER_8
  6
CONTINUOUS
 10
0.824478
 20
0.311269
 11
0.824422
 21
0.311212
 39
0
 62
0
  0
LINE
  8
LAYER_8
  6
CONTINUOUS
 10
0.824662
 20
0.316815
 11
0.824422
 21
0.316575
 39
0
 62
0
  0
LINE
  8
LAYER_8
  6
CONTINUOUS
 10
0.824845
 20
0.322360
 11
0.824422
 21
0.321937
 39
0
 62
0
  0
LINE
  8
LAYER_8
  6
CONTINUOUS
 10
0.825028
 20
0.327905
 11
0.824422
 21
0.327299
 39
0
 62
0
  0
LINE
  8
LAYER_8
  6
CONTINUOUS
 10
0.825212
 20
0.333451
 11
0.824422
 21
0.332661
 39
0
 62
0
  0
LINE
  8
LAYER_8
  6
CONTINUOUS
 10
0.825395
 20
0.338996
 11
0.824422
 21
0.338023
 39
0
 62
0
  0
LINE
  8
LAYER_8
  6
CONTINUOUS
 10
0.825578
 20
0.344542
 11
0.824422
 21
0.343386
 39
0
 62
0
  0
LINE
  8
LAYER_8
  6
CONTINUOUS
 10
0.825761
 20
0.350087
 11
0.824422
 21
0.348748
 39
0
 62
0
  0
LINE
  8
LAYER_8
  6
CONTINUOUS
 10
0.825945
 20
0.355633
 11
0.824422
 21
0.354110
 39
0
 62
0
  0
LINE
  8
LAYER_8
  6
CONTINUOUS
 10
0.826128
 20
0.361178
 11
0.824422
 21
0.359472
 39
0
 62
0
  0
LINE
  8
LAYER_8
  6
CONTINUOUS
 10
0.826311
 20
0.366724
 11
0.824422
 21
0.364834
 39
0
 62
0
  0
LINE
  8
LAYER_8
  6
CONTINUOUS
 10
0.826495
 20
0.372269
 11
0.824422
 21
0.370196
 39
0
 62
0
  0
LINE
  8
LAYER_8
  6
CONTINUOUS
 10
0.826678
 20
0.377815
 11
0.824422
 21
0.375559
 39
0
 62
0
  0
LINE
  8
LAYER_8
  6
CONTINUOUS
 10
0.826861
 20
0.383360
 11
0.824422
 21
0.380921
 39
0
 62
0
  0
LINE
  8
LAYER_8
  6
CONTINUOUS
 10
0.827044
 20
0.388906
 11
0.824422
 21
0.386283
 39
0
 62
0
  0
LINE
  8
LAYER_8
  6
CONTINUOUS
 10
0.827228
 20
0.394451
 11
0.824422
 21
0.391645
 39
0
 62
0
  0
LINE
  8
LAYER_8
  6
CONTINUOUS
 10
0.827411
 20
0.399997
 11
0.824422
 21
0.397007
 39
0
 62
0
  0
LINE
  8
LAYER_8
  6
CONTINUOUS
 10
0.827594
 20
0.405542
 11
0.824422
 21
0.402370
 39
0
 62
0
  0
LINE
  8
LAYER_8
  6
CONTINUOUS
 10
0.827778
 20
0.411088
 11
0.824422
 21
0.407732
 39
0
 62
0
  0
LINE
  8
LAYER_8
  6
CONTINUOUS
 10
0.827961
 20
0.416633
 11
0.824422
 21
0.413094
 39
0
 62
0
  0
LINE
  8
LAYER_8
  6
CONTINUOUS
 10
0.828144
 20
0.422179
 11
0.824422
 21
0.418456
 39
0
 62
0
  0
LINE
  8
LAYER_8
  6
CONTINUOUS
 10
0.828327
 20
0.427724
 11
0.824422
 21
0.423818
 39
0
 62
0
  0
LINE
  8
LAYER_8
  6
CONTINUOUS
 10
0.828511
 20
0.433269
 11
0.824422
 21
0.429180
 39
0
 62
0
  0
LINE
  8
LAYER_8
  6
CONTINUOUS
 10
0.828694
 20
0.438815
 11
0.824422
 21
0.434543
 39
0
 62
0
  0
LINE
  8
LAYER_8
  6
CONTINUOUS
 10
0.828877
 20
0.444360
 11
0.824422
 21
0.439905
 39
0
 62
0
  0
LINE
  8
LAYER_8
  6
CONTINUOUS
 10
0.829061
 20
0.449906
 11
0.824422
 21
0.445267
 39
0
 62
0
  0
LINE
  8
LAYER_8
  6
CONTINUOUS
 10
0.829244
 20
0.455451
 11
0.824422
 21
0.450629
 39
0
 62
0
  0
LINE
  8
LAYER_8
  6
CONTINUOUS
 10
0.829427
 20
0.460997
 11
0.824422
 21
0.455991
 39
0
 62
0
  0
LINE
  8
LAYER_8
  6
CONTINUOUS
 10
0.829611
 20
0.466542
 11
0.824422
 21
0.461353
 39
0
 62
0
  0
LINE
  8
LAYER_8
  6
CONTINUOUS
 10
0.824570
 20
0.466854
 11
0.824422
 21
0.466716
 39
0
 62
0
  0
LINE
  8
LAYER_8
  6
CONTINUOUS
 10
0.829622
 20
0.466854
 11
0.829622
 21
0.304354
 39
0
 62
0
  0
LINE
  8
LAYER_8
  6
CONTINUOUS
 10
0.824422
 20
0.466854
 11
0.824422
 21
0.309554
 39
0
 62
0
  0
LINE
  8
LAYER_8
  6
CONTINUOUS
 10
0.829622
 20
0.466854
 11
0.824422
 21
0.466854
 39
0
 62
0
  0
LINE
  8
LAYER_8
  6
CONTINUOUS
 10
0.323922
 20
0.310854
 11
0.352684
 21
0.310854
 39
0
 62
0
  0
LINE
  8
LAYER_8
  6
CONTINUOUS
 10
0.329122
 20
0.316054
 11
0.352684
 21
0.316054
 39
0
 62
0
  0
LINE
  8
LAYER_8
  6
CONTINUOUS
 10
0.352684
 20
0.310854
 11
0.352684
 21
0.316054
 39
0
 62
0
  0
LINE
  8
LAYER_8
  6
CONTINUOUS
 10
0.322622
 20
0.309554
 11
0.352684
 21
0.309554
 39
0
 62
0
  0
LINE
  8
LAYER_8
  6
CONTINUOUS
 10
0.323922
 20
0.310854
 11
0.352684
 21
0.310854
 39
0
 62
0
  0
LINE
  8
LAYER_8
  6
CONTINUOUS
 10
0.352684
 20
0.309554
 11
0.352684
 21
0.310854
 39
0
 62
0
  0
LINE
  8
LAYER_8
  6
CONTINUOUS
 10
0.351082
 20
0.304354
 11
0.351318
 21
0.304591
 39
0
 62
0
  0
LINE
  8
LAYER_8
  6
CONTINUOUS
 10
0.345720
 20
0.304354
 11
0.346747
 21
0.305382
 39
0
 62
0
  0
LINE
  8
LAYER_8
  6
CONTINUOUS
 10
0.340358
 20
0.304354
 11
0.342175
 21
0.306172
 39
0
 62
0
  0
LINE
  8
LAYER_8
  6
CONTINUOUS
 10
0.334995
 20
0.304354
 11
0.337604
 21
0.306963
 39
0
 62
0
  0
LINE
  8
LAYER_8
  6
CONTINUOUS
 10
0.329633
 20
0.304354
 11
0.333033
 21
0.307754
 39
0
 62
0
  0
LINE
  8
LAYER_8
  6
CONTINUOUS
 10
0.324271
 20
0.304354
 11
0.328461
 21
0.308545
 39
0
 62
0
  0
LINE
  8
LAYER_8
  6
CONTINUOUS
 10
0.318909
 20
0.304354
 11
0.323890
 21
0.309335
 39
0
 62
0
  0
LINE
  8
LAYER_8
  6
CONTINUOUS
 10
0.352684
 20
0.305957
 11
0.351318
 21
0.304591
 39
0
 62
0
  0
LINE
  8
LAYER_8
  6
CONTINUOUS
 10
0.350920
 20
0.309554
 11
0.346747
 21
0.305382
 39
0
 62
0
  0
LINE
  8
LAYER_8
  6
CONTINUOUS
 10
0.345558
 20
0.309554
 11
0.342175
 21
0.306172
 39
0
 62
0
  0
LINE
  8
LAYER_8
  6
CONTINUOUS
 10
0.340196
 20
0.309554
 11
0.337604
 21
0.306963
 39
0
 62
0
  0
LINE
  8
LAYER_8
  6
CONTINUOUS
 10
0.334834
 20
0.309554
 11
0.333033
 21
0.307754
 39
0
 62
0
  0
LINE
  8
LAYER_8
  6
CONTINUOUS
 10
0.329472
 20
0.309554
 11
0.328461
 21
0.308545
 39
0
 62
0
  0
LINE
  8
LAYER_8
  6
CONTINUOUS
 10
0.324110
 20
0.309554
 11
0.323890
 21
0.309335
 39
0
 62
0
  0
LINE
  8
LAYER_8
  6
CONTINUOUS
 10
0.317422
 20
0.304354
 11
0.352684
 21
0.304354
 39
0
 62
0
  0
LINE
  8
LAYER_8
  6
CONTINUOUS
 10
0.322622
 20
0.309554
 11
0.352684
 21
0.309554
 39
0
 62
0
  0
LINE
  8
LAYER_8
  6
CONTINUOUS
 10
0.352684
 20
0.304354
 11
0.352684
 21
0.309554
 39
0
 62
0
  0
LINE
  8
LAYER_8
  6
CONTINUOUS
 10
0.482684
 20
0.310854
 11
0.508522
 21
0.310854
 39
0
 62
0
  0
LINE
  8
LAYER_8
  6
CONTINUOUS
 10
0.482684
 20
0.316054
 11
0.508522
 21
0.316054
 39
0
 62
0
  0
LINE
  8
LAYER_8
  6
CONTINUOUS
 10
0.482684
 20
0.310854
 11
0.482684
 21
0.316054
 39
0
 62
0
  0
LINE
  8
LAYER_8
  6
CONTINUOUS
 10
0.508522
 20
0.310854
 11
0.508522
 21
0.316054
 39
0
 62
0
  0
LINE
  8
LAYER_8
  6
CONTINUOUS
 10
0.482684
 20
0.309554
 11
0.508522
 21
0.309554
 39
0
 62
0
  0
LINE
  8
LAYER_8
  6
CONTINUOUS
 10
0.482684
 20
0.310854
 11
0.508522
 21
0.310854
 39
0
 62
0
  0
LINE
  8
LAYER_8
  6
CONTINUOUS
 10
0.482684
 20
0.309554
 11
0.482684
 21
0.310854
 39
0
 62
0
  0
LINE
  8
LAYER_8
  6
CONTINUOUS
 10
0.508522
 20
0.309554
 11
0.508522
 21
0.310854
 39
0
 62
0
  0
LINE
  8
LAYER_8
  6
CONTINUOUS
 10
0.506576
 20
0.304354
 11
0.506902
 21
0.304680
 39
0
 62
0
  0
LINE
  8
LAYER_8
  6
CONTINUOUS
 10
0.501214
 20
0.304354
 11
0.502439
 21
0.305579
 39
0
 62
0
  0
LINE
  8
LAYER_8
  6
CONTINUOUS
 10
0.495852
 20
0.304354
 11
0.497975
 21
0.306477
 39
0
 62
0
  0
LINE
  8
LAYER_8
  6
CONTINUOUS
 10
0.490489
 20
0.304354
 11
0.493511
 21
0.307375
 39
0
 62
0
  0
LINE
  8
LAYER_8
  6
CONTINUOUS
 10
0.485127
 20
0.304354
 11
0.489048
 21
0.308273
 39
0
 62
0
  0
LINE
  8
LAYER_8
  6
CONTINUOUS
 10
0.482684
 20
0.307272
 11
0.484584
 21
0.309172
 39
0
 62
0
  0
LINE
  8
LAYER_8
  6
CONTINUOUS
 10
0.508522
 20
0.306300
 11
0.506902
 21
0.304680
 39
0
 62
0
  0
LINE
  8
LAYER_8
  6
CONTINUOUS
 10
0.506414
 20
0.309554
 11
0.502439
 21
0.305579
 39
0
 62
0
  0
LINE
  8
LAYER_8
  6
CONTINUOUS
 10
0.501052
 20
0.309554
 11
0.497975
 21
0.306477
 39
0
 62
0
  0
LINE
  8
LAYER_8
  6
CONTINUOUS
 10
0.495690
 20
0.309554
 11
0.493511
 21
0.307375
 39
0
 62
0
  0
LINE
  8
LAYER_8
  6
CONTINUOUS
 10
0.490328
 20
0.309554
 11
0.489048
 21
0.308273
 39
0
 62
0
  0
LINE
  8
LAYER_8
  6
CONTINUOUS
 10
0.484966
 20
0.309554
 11
0.484584
 21
0.309172
 39
0
 62
0
  0
LINE
  8
LAYER_8
  6
CONTINUOUS
 10
0.482684
 20
0.304354
 11
0.508522
 21
0.304354
 39
0
 62
0
  0
LINE
  8
LAYER_8
  6
CONTINUOUS
 10
0.482684
 20
0.309554
 11
0.508522
 21
0.309554
 39
0
 62
0
  0
LINE
  8
LAYER_8
  6
CONTINUOUS
 10
0.482684
 20
0.304354
 11
0.482684
 21
0.309554
 39
0
 62
0
  0
LINE
  8
LAYER_8
  6
CONTINUOUS
 10
0.508522
 20
0.304354
 11
0.508522
 21
0.309554
 39
0
 62
0
  0
LINE
  8
LAYER_8
  6
CONTINUOUS
 10
0.638522
 20
0.310854
 11
0.666797
 21
0.310854
 39
0
 62
0
  0
LINE
  8
LAYER_8
  6
CONTINUOUS
 10
0.638522
 20
0.316054
 11
0.666797
 21
0.316054
 39
0
 62
0
  0
LINE
  8
LAYER_8
  6
CONTINUOUS
 10
0.638522
 20
0.310854
 11
0.638522
 21
0.316054
 39
0
 62
0
  0
LINE
  8
LAYER_8
  6
CONTINUOUS
 10
0.666797
 20
0.310854
 11
0.666797
 21
0.316054
 39
0
 62
0
  0
LINE
  8
LAYER_8
  6
CONTINUOUS
 10
0.638522
 20
0.309554
 11
0.666797
 21
0.309554
 39
0
 62
0
  0
LINE
  8
LAYER_8
  6
CONTINUOUS
 10
0.638522
 20
0.310854
 11
0.666797
 21
0.310854
 39
0
 62
0
  0
LINE
  8
LAYER_8
  6
CONTINUOUS
 10
0.638522
 20
0.309554
 11
0.638522
 21
0.310854
 39
0
 62
0
  0
LINE
  8
LAYER_8
  6
CONTINUOUS
 10
0.666797
 20
0.309554
 11
0.666797
 21
0.310854
 39
0
 62
0
  0
LINE
  8
LAYER_8
  6
CONTINUOUS
 10
0.662070
 20
0.304354
 11
0.662804
 21
0.305089
 39
0
 62
0
  0
LINE
  8
LAYER_8
  6
CONTINUOUS
 10
0.656708
 20
0.304354
 11
0.658275
 21
0.305922
 39
0
 62
0
  0
LINE
  8
LAYER_8
  6
CONTINUOUS
 10
0.651345
 20
0.304354
 11
0.653746
 21
0.306755
 39
0
 62
0
  0
LINE
  8
LAYER_8
  6
CONTINUOUS
 10
0.645983
 20
0.304354
 11
0.649216
 21
0.307588
 39
0
 62
0
  0
LINE
  8
LAYER_8
  6
CONTINUOUS
 10
0.640621
 20
0.304354
 11
0.644687
 21
0.308421
 39
0
 62
0
  0
LINE
  8
LAYER_8
  6
CONTINUOUS
 10
0.638522
 20
0.307615
 11
0.640158
 21
0.309253
 39
0
 62
0
  0
LINE
  8
LAYER_8
  6
CONTINUOUS
 10
0.666797
 20
0.309081
 11
0.662804
 21
0.305089
 39
0
 62
0
  0
LINE
  8
LAYER_8
  6
CONTINUOUS
 10
0.661908
 20
0.309554
 11
0.658275
 21
0.305922
 39
0
 62
0
  0
LINE
  8
LAYER_8
  6
CONTINUOUS
 10
0.656546
 20
0.309554
 11
0.653746
 21
0.306755
 39
0
 62
0
  0
LINE
  8
LAYER_8
  6
CONTINUOUS
 10
0.651184
 20
0.309554
 11
0.649216
 21
0.307588
 39
0
 62
0
  0
LINE
  8
LAYER_8
  6
CONTINUOUS
 10
0.645822
 20
0.309554
 11
0.644687
 21
0.308421
 39
0
 62
0
  0
LINE
  8
LAYER_8
  6
CONTINUOUS
 10
0.640460
 20
0.309554
 11
0.640158
 21
0.309253
 39
0
 62
0
  0
LINE
  8
LAYER_8
  6
CONTINUOUS
 10
0.638522
 20
0.304354
 11
0.666797
 21
0.304354
 39
0
 62
0
  0
LINE
  8
LAYER_8
  6
CONTINUOUS
 10
0.638522
 20
0.309554
 11
0.666797
 21
0.309554
 39
0
 62
0
  0
LINE
  8
LAYER_8
  6
CONTINUOUS
 10
0.638522
 20
0.304354
 11
0.638522
 21
0.309554
 39
0
 62
0
  0
LINE
  8
LAYER_8
  6
CONTINUOUS
 10
0.666797
 20
0.304354
 11
0.666797
 21
0.309554
 39
0
 62
0
  0
LINE
  8
LAYER_8
  6
CONTINUOUS
 10
0.796797
 20
0.310854
 11
0.823122
 21
0.310854
 39
0
 62
0
  0
LINE
  8
LAYER_8
  6
CONTINUOUS
 10
0.796797
 20
0.316054
 11
0.817922
 21
0.316054
 39
0
 62
0
  0
LINE
  8
LAYER_8
  6
CONTINUOUS
 10
0.796797
 20
0.310854
 11
0.796797
 21
0.316054
 39
0
 62
0
  0
LINE
  8
LAYER_8
  6
CONTINUOUS
 10
0.796797
 20
0.309554
 11
0.824422
 21
0.309554
 39
0
 62
0
  0
LINE
  8
LAYER_8
  6
CONTINUOUS
 10
0.796797
 20
0.310854
 11
0.823122
 21
0.310854
 39
0
 62
0
  0
LINE
  8
LAYER_8
  6
CONTINUOUS
 10
0.796797
 20
0.309554
 11
0.796797
 21
0.310854
 39
0
 62
0
  0
LINE
  8
LAYER_8
  6
CONTINUOUS
 10
0.828955
 20
0.305021
 11
0.828288
 21
0.304354
 39
0
 62
0
  0
LINE
  8
LAYER_8
  6
CONTINUOUS
 10
0.826274
 20
0.307702
 11
0.822925
 21
0.304354
 39
0
 62
0
  0
LINE
  8
LAYER_8
  6
CONTINUOUS
 10
0.822380
 20
0.309170
 11
0.817563
 21
0.304354
 39
0
 62
0
  0
LINE
  8
LAYER_8
  6
CONTINUOUS
 10
0.815774
 20
0.307927
 11
0.812201
 21
0.304354
 39
0
 62
0
  0
LINE
  8
LAYER_8
  6
CONTINUOUS
 10
0.809168
 20
0.306683
 11
0.806839
 21
0.304354
 39
0
 62
0
  0
LINE
  8
LAYER_8
  6
CONTINUOUS
 10
0.802563
 20
0.305440
 11
0.801477
 21
0.304354
 39
0
 62
0
  0
LINE
  8
LAYER_8
  6
CONTINUOUS
 10
0.822379
 20
0.309170
 11
0.822764
 21
0.309554
 39
0
 62
0
  0
LINE
  8
LAYER_8
  6
CONTINUOUS
 10
0.815774
 20
0.307927
 11
0.817402
 21
0.309554
 39
0
 62
0
  0
LINE
  8
LAYER_8
  6
CONTINUOUS
 10
0.809168
 20
0.306683
 11
0.812039
 21
0.309554
 39
0
 62
0
  0
LINE
  8
LAYER_8
  6
CONTINUOUS
 10
0.802563
 20
0.305440
 11
0.806677
 21
0.309554
 39
0
 62
0
  0
LINE
  8
LAYER_8
  6
CONTINUOUS
 10
0.796797
 20
0.305035
 11
0.801315
 21
0.309554
 39
0
 62
0
  0
LINE
  8
LAYER_8
  6
CONTINUOUS
 10
0.796797
 20
0.304354
 11
0.829622
 21
0.304354
 39
0
 62
0
  0
LINE
  8
LAYER_8
  6
CONTINUOUS
 10
0.796797
 20
0.309554
 11
0.824422
 21
0.309554
 39
0
 62
0
  0
LINE
  8
LAYER_8
  6
CONTINUOUS
 10
0.796797
 20
0.304354
 11
0.796797
 21
0.309554
 39
0
 62
0
  0
TEXT
  8
LAYER_4
  6
CONTINUOUS
 10
0.832872
 20
0.635692
 40
0.004967
 50
90.000000
 72
0
  7
Courier#0.002600#0.007800
  1
2x4x10'
 39
0
 62
0
  0
TEXT
  8
LAYER_4
  6
CONTINUOUS
 10
0.349272
 20
0.696142
 40
0.004967
 50
0.000000
 72
0
  7
Courier#0.002600#0.007800
  1
2x4x12'
 39
0
 62
0
  0
TEXT
  8
LAYER_4
  6
CONTINUOUS
 10
0.575797
 20
0.696142
 40
0.004967
 50
0.000000
 72
0
  7
Courier#0.002600#0.007800
  1
2x4x10'
 39
0
 62
0
  0
TEXT
  8
LAYER_4
  6
CONTINUOUS
 10
0.301172
 20
0.355217
 40
0.004967
 50
90.000000
 72
0
  7
Courier#0.002600#0.007800
  1
2x4x16'
 39
0
 62
0
  0
TEXT
  8
LAYER_4
  6
CONTINUOUS
 10
0.300684
 20
0.603192
 40
0.004967
 50
90.000000
 72
0
  7
Courier#0.002600#0.007800
  1
2x4x10'
 39
0
 62
0
  0
TEXT
  8
LAYER_4
  6
CONTINUOUS
 10
0.845872
 20
0.635692
 40
0.004967
 50
90.000000
 72
0
  7
Courier#0.002600#0.007800
  1
2x4x16'
 39
0
 62
0
  0
TEXT
  8
LAYER_4
  6
CONTINUOUS
 10
0.846847
 20
0.352129
 40
0.004967
 50
90.000000
 72
0
  7
Courier#0.002600#0.007800
  1
2x4x10'
 39
0
 62
0
  0
TEXT
  8
LAYER_4
  6
CONTINUOUS
 10
0.314334
 20
0.470592
 40
0.004967
 50
90.000000
 72
0
  7
Courier#0.002600#0.007800
  1
SOLE PLATE
 39
0
 62
0
  0
TEXT
  8
LAYER_4
  6
CONTINUOUS
 10
0.428247
 20
0.695654
 40
0.004967
 50
0.000000
 72
0
  7
Courier#0.002600#0.007800
  1
SOLE PLATE
 39
0
 62
0
  0
TEXT
  8
LAYER_4
  6
CONTINUOUS
 10
0.832709
 20
0.471242
 40
0.004967
 50
90.000000
 72
0
  7
Courier#0.002600#0.007800
  1
SOLE PLATE
 39
0
 62
0
  0
TEXT
  8
LAYER_4
  6
CONTINUOUS
 10
0.300684
 20
0.466042
 40
0.004967
 50
90.000000
 72
0
  7
Courier#0.002600#0.007800
  1
1ST TOP PLATE
 39
0
 62
0
  0
TEXT
  8
LAYER_4
  6
CONTINUOUS
 10
0.846197
 20
0.467992
 40
0.004967
 50
90.000000
 72
0
  7
Courier#0.002600#0.007800
  1
1ST TOP PLATE
 39
0
 62
0
  0
TEXT
  8
LAYER_4
  6
CONTINUOUS
 10
0.574497
 20
0.709792
 40
0.004967
 50
0.000000
 72
0
  7
Courier#0.002600#0.007800
  1
2x4x16'
 39
0
 62
0
  0
TEXT
  8
LAYER_4
  6
CONTINUOUS
 10
0.348947
 20
0.710117
 40
0.004967
 50
0.000000
 72
0
  7
Courier#0.002600#0.007800
  1
2x4x10'
 39
0
 62
0
  0
TEXT
  8
LAYER_4
  6
CONTINUOUS
 10
0.487072
 20
0.709467
 40
0.004967
 50
0.000000
 72
0
  7
Courier#0.002600#0.007800
  1
1ST TOP PLATE
 39
0
 62
0
  0
TEXT
  8
LAYER_4
  6
CONTINUOUS
 10
0.350409
 20
0.721654
 40
0.004967
 50
0.000000
 72
0
  7
Courier#0.002600#0.007800
  1
2x4x12'
 39
0
 62
0
  0
TEXT
  8
LAYER_4
  6
CONTINUOUS
 10
0.574984
 20
0.721654
 40
0.004967
 50
0.000000
 72
0
  7
Courier#0.002600#0.007800
  1
2x4x16'
 39
0
 62
0
  0
TEXT
  8
LAYER_4
  6
CONTINUOUS
 10
0.487234
 20
0.721817
 40
0.004967
 50
0.000000
 72
0
  7
Courier#0.002600#0.007800
  1
2ND TOP PLATE
 39
0
 62
0
  0
TEXT
  8
LAYER_4
  6
CONTINUOUS
 10
0.288497
 20
0.604329
 40
0.004967
 50
90.000000
 72
0
  7
Courier#0.002600#0.007800
  1
2x4x12'
 39
0
 62
0
  0
TEXT
  8
LAYER_4
  6
CONTINUOUS
 10
0.288822
 20
0.353429
 40
0.004967
 50
90.000000
 72
0
  7
Courier#0.002600#0.007800
  1
2x4x12'
 39
0
 62
0
  0
TEXT
  8
LAYER_4
  6
CONTINUOUS
 10
0.287034
 20
0.458567
 40
0.004967
 50
90.000000
 72
0
  7
Courier#0.002600#0.007800
  1
2ND TOP PLATE
 39
0
 62
0
  0
TEXT
  8
LAYER_4
  6
CONTINUOUS
 10
0.858872
 20
0.635854
 40
0.004967
 50
90.000000
 72
0
  7
Courier#0.002600#0.007800
  1
2x4x12'
 39
0
 62
0
  0
TEXT
  8
LAYER_4
  6
CONTINUOUS
 10
0.859684
 20
0.352617
 40
0.004967
 50
90.000000
 72
0
  7
Courier#0.002600#0.007800
  1
2x4x12'
 39
0
 62
0
  0
TEXT
  8
LAYER_4
  6
CONTINUOUS
 10
0.857572
 20
0.467179
 40
0.004967
 50
90.000000
 72
0
  7
Courier#0.002600#0.007800
  1
2ND TOP PLATE
 39
0
 62
0
  0
TEXT
  8
LAYER_4
  6
CONTINUOUS
 10
0.427597
 20
0.233017
 40
0.010485
 50
0.000000
 72
0
  7
Courier#0.002600#0.007800
  1
PLATE LAYOUT AND SIZING PLAN
 39
0
 62
0
  0
TEXT
  8
LAYER_12
  6
CONTINUOUS
 10
0.283784
 20
0.719461
 40
0.003311
 50
0.000000
 72
0
  7
Courier#0.002600#0.007800
  1
TOP PLATE
 39
0
 62
0
  0
TEXT
  8
LAYER_12
  6
CONTINUOUS
 10
0.283784
 20
0.713611
 40
0.003311
 50
0.000000
 72
0
  7
Courier#0.002600#0.007800
  1
OVERLAP
 39
0
 62
0
  0
TEXT
  8
LAYER_12
  6
CONTINUOUS
 10
0.825722
 20
0.717673
 40
0.003311
 50
0.000000
 72
0
  7
Courier#0.002600#0.007800
  1
OVERLAP
 39
0
 62
0
  0
TEXT
  8
LAYER_12
  6
CONTINUOUS
 10
0.411997
 20
0.673473
 40
0.003311
 50
0.000000
 72
0
  7
Courier#0.002600#0.007800
  1
STUD WALL LAYOUT
 39
0
 62
0
  0
TEXT
  8
LAYER_4
  6
CONTINUOUS
 10
0.746097
 20
0.696142
 40
0.004967
 50
0.000000
 72
0
  7
Courier#0.002600#0.007800
  1
2x4x12'
 39
0
 62
0
  0
TEXT
  8
LAYER_4
  6
CONTINUOUS
 10
0.746097
 20
0.709304
 40
0.004967
 50
0.000000
 72
0
  7
Courier#0.002600#0.007800
  1
2x4x10'
 39
0
 62
0
  0
TEXT
  8
LAYER_4
  6
CONTINUOUS
 10
0.762022
 20
0.721329
 40
0.004967
 50
0.000000
 72
0
  7
Courier#0.002600#0.007800
  1
2x4x6'
 39
0
 62
0
  0
TEXT
  8
LAYER_4
  6
CONTINUOUS
 10
0.767059
 20
0.290542
 40
0.004967
 50
0.000000
 72
0
  7
Courier#0.002600#0.007800
  1
2x4x12'
 39
0
 62
0
  0
TEXT
  8
LAYER_4
  6
CONTINUOUS
 10
0.540534
 20
0.290542
 40
0.004967
 50
0.000000
 72
0
  7
Courier#0.002600#0.007800
  1
2x4x10'
 39
0
 62
0
  0
TEXT
  8
LAYER_4
  6
CONTINUOUS
 10
0.666147
 20
0.291029
 40
0.004967
 50
0.000000
 72
0
  7
Courier#0.002600#0.007800
  1
SOLE PLATE
 39
0
 62
0
  0
TEXT
  8
LAYER_4
  6
CONTINUOUS
 10
0.542159
 20
0.276892
 40
0.004967
 50
0.000000
 72
0
  7
Courier#0.002600#0.007800
  1
2x4x16'
 39
0
 62
0
  0
TEXT
  8
LAYER_4
  6
CONTINUOUS
 10
0.767384
 20
0.276567
 40
0.004967
 50
0.000000
 72
0
  7
Courier#0.002600#0.007800
  1
2x4x10'
 39
0
 62
0
  0
TEXT
  8
LAYER_4
  6
CONTINUOUS
 10
0.593834
 20
0.277217
 40
0.004967
 50
0.000000
 72
0
  7
Courier#0.002600#0.007800
  1
1ST TOP PLATE
 39
0
 62
0
  0
TEXT
  8
LAYER_4
  6
CONTINUOUS
 10
0.765922
 20
0.262754
 40
0.004967
 50
0.000000
 72
0
  7
Courier#0.002600#0.007800
  1
2x4x12'
 39
0
 62
0
  0
TEXT
  8
LAYER_4
  6
CONTINUOUS
 10
0.541672
 20
0.263242
 40
0.004967
 50
0.000000
 72
0
  7
Courier#0.002600#0.007800
  1
2x4x16'
 39
0
 62
0
  0
TEXT
  8
LAYER_4
  6
CONTINUOUS
 10
0.591884
 20
0.264054
 40
0.004967
 50
0.000000
 72
0
  7
Courier#0.002600#0.007800
  1
2ND TOP PLATE
 39
0
 62
0
  0
TEXT
  8
LAYER_12
  6
CONTINUOUS
 10
0.787534
 20
0.254061
 40
0.003311
 50
0.000000
 72
0
  7
Courier#0.002600#0.007800
  1
TOP PLATE
 39
0
 62
0
  0
TEXT
  8
LAYER_12
  6
CONTINUOUS
 10
0.787534
 20
0.248211
 40
0.003311
 50
0.000000
 72
0
  7
Courier#0.002600#0.007800
  1
OVERLAP
 39
0
 62
0
  0
TEXT
  8
LAYER_12
  6
CONTINUOUS
 10
0.301822
 20
0.270473
 40
0.003311
 50
0.000000
 72
0
  7
Courier#0.002600#0.007800
  1
OVERLAP
 39
0
 62
0
  0
TEXT
  8
LAYER_4
  6
CONTINUOUS
 10
0.370234
 20
0.290542
 40
0.004967
 50
0.000000
 72
0
  7
Courier#0.002600#0.007800
  1
2x4x12'
 39
0
 62
0
  0
TEXT
  8
LAYER_4
  6
CONTINUOUS
 10
0.370234
 20
0.277379
 40
0.004967
 50
0.000000
 72
0
  7
Courier#0.002600#0.007800
  1
2x4x10'
 39
0
 62
0
  0
TEXT
  8
LAYER_4
  6
CONTINUOUS
 10
0.358047
 20
0.264542
 40
0.004967
 50
0.000000
 72
0
  7
Courier#0.002600#0.007800
  1
2x4x6'
 39
0
 62
0
  0
LINE
  8
LAYER_2
  6
CONTINUOUS
 10
0.323922
 20
0.685254
 11
0.323922
 21
0.310854
 39
0
 62
0
  0
LINE
  8
LAYER_2
  6
CONTINUOUS
 10
0.323922
 20
0.685254
 11
0.823122
 21
0.685254
 39
0
 62
0
  0
LINE
  8
LAYER_2
  6
CONTINUOUS
 10
0.329122
 20
0.680054
 11
0.817922
 21
0.680054
 39
0
 62
0
  0
LINE
  8
LAYER_2
  6
CONTINUOUS
 10
0.329122
 20
0.685254
 11
0.329122
 21
0.310854
 39
0
 62
0
  0
LINE
  8
LAYER_2
  6
CONTINUOUS
 10
0.323922
 20
0.310854
 11
0.823122
 21
0.310854
 39
0
 62
0
  0
LINE
  8
LAYER_2
  6
CONTINUOUS
 10
0.329122
 20
0.316054
 11
0.817922
 21
0.316054
 39
0
 62
0
  0
LINE
  8
LAYER_2
  6
CONTINUOUS
 10
0.817922
 20
0.685254
 11
0.817922
 21
0.310854
 39
0
 62
0
  0
LINE
  8
LAYER_2
  6
CONTINUOUS
 10
0.823122
 20
0.685254
 11
0.823122
 21
0.310854
 39
0
 62
0
  0
LINE
  8
LAYER_2
  6
CONTINUOUS
 10
0.385997
 20
0.316054
 11
0.385997
 21
0.310854
 39
0
 62
0
  0
LINE
  8
LAYER_2
  6
CONTINUOUS
 10
0.636247
 20
0.316054
 11
0.636247
 21
0.310854
 39
0
 62
0
  0
LINE
  8
LAYER_2
  6
CONTINUOUS
 10
0.323922
 20
0.617329
 11
0.329122
 21
0.617329
 39
0
 62
0
  0
LINE
  8
LAYER_2
  6
CONTINUOUS
 10
0.323922
 20
0.659579
 11
0.329122
 21
0.659579
 39
0
 62
0
  0
LINE
  8
LAYER_2
  6
CONTINUOUS
 10
0.830759
 20
0.310854
 11
0.868784
 21
0.310854
 39
0
 62
0
  0
LINE
  8
LAYER_2
  6
CONTINUOUS
 10
0.832222
 20
0.685254
 11
0.868784
 21
0.685254
 39
0
 62
0
  0
LINE
  8
LAYER_2
  6
CONTINUOUS
 10
0.817922
 20
0.725554
 11
0.817922
 21
0.686879
 39
0
 62
0
  0
LINE
  8
LAYER_2
  6
CONTINUOUS
 10
0.284109
 20
0.685092
 11
0.323109
 21
0.685092
 39
0
 62
0
  0
LINE
  8
LAYER_2
  6
CONTINUOUS
 10
0.329122
 20
0.724254
 11
0.329122
 21
0.687854
 39
0
 62
0
  0
LINE
  8
LAYER_2
  6
CONTINUOUS
 10
0.284109
 20
0.310692
 11
0.320997
 21
0.310692
 39
0
 62
0
  0
LINE
  8
LAYER_2
  6
CONTINUOUS
 10
0.858547
 20
0.680217
 11
0.867484
 21
0.680217
 39
0
 62
0
  0
LINE
  8
LAYER_2
  6
CONTINUOUS
 10
0.323922
 20
0.723929
 11
0.323922
 21
0.714667
 39
0
 62
0
  0
LINE
  8
LAYER_2
  6
CONTINUOUS
 10
0.822959
 20
0.723604
 11
0.822959
 21
0.714829
 39
0
 62
0
  0
LINE
  8
LAYER_2
  6
CONTINUOUS
 10
0.285247
 20
0.680054
 11
0.297272
 21
0.680054
 39
0
 62
0
  0
LINE
  8
LAYER_2
  6
CONTINUOUS
 10
0.285084
 20
0.316054
 11
0.296459
 21
0.316054
 39
0
 62
0
  0
LINE
  8
LAYER_2
  6
CONTINUOUS
 10
0.857734
 20
0.316054
 11
0.868784
 21
0.316054
 39
0
 62
0
  0
LINE
  8
LAYER_2
  6
CONTINUOUS
 10
0.329447
 20
0.301104
 11
0.329447
 21
0.265029
 39
0
 62
0
  0
LINE
  8
LAYER_2
  6
CONTINUOUS
 10
0.818247
 20
0.301104
 11
0.818247
 21
0.265029
 39
0
 62
0
  0
LINE
  8
LAYER_2
  6
CONTINUOUS
 10
0.823447
 20
0.275429
 11
0.823447
 21
0.266167
 39
0
 62
0
  0
LINE
  8
LAYER_2
  6
CONTINUOUS
 10
0.324409
 20
0.275267
 11
0.324409
 21
0.266492
 39
0
 62
0
  0
LINE
  8
LAYER_1
  6
CONTINUOUS
 10
0.823122
 20
0.700854
 11
0.823122
 21
0.669654
 39
0
 62
0
  0
LINE
  8
LAYER_1
  6
CONTINUOUS
 10
0.838722
 20
0.685254
 11
0.807522
 21
0.685254
 39
0
 62
0
  0
CIRCLE
  8
LAYER_1
  6
CONTINUOUS
 10
0.823122
 20
0.685254
 40
0.007800
 39
0
 62
0
  0
LINE
  8
LAYER_2
  6
CONTINUOUS
 10
0.837422
 20
0.685254
 11
0.837422
 21
0.559317
 39
0
 62
0
  0
LINE
  8
LAYER_2
  6
CONTINUOUS
 10
0.835554
 20
0.567117
 11
0.837422
 21
0.559317
 39
0
 62
0
  0
LINE
  8
LAYER_2
  6
CONTINUOUS
 10
0.839290
 20
0.567117
 11
0.837422
 21
0.559317
 39
0
 62
0
  0
LINE
  8
LAYER_2
  6
CONTINUOUS
 10
0.839290
 20
0.677454
 11
0.837422
 21
0.685254
 39
0
 62
0
  0
LINE
  8
LAYER_2
  6
CONTINUOUS
 10
0.835554
 20
0.677454
 11
0.837422
 21
0.685254
 39
0
 62
0
  0
LINE
  8
LAYER_2
  6
CONTINUOUS
 10
0.316934
 20
0.684929
 11
0.316934
 21
0.455479
 39
0
 62
0
  0
LINE
  8
LAYER_2
  6
CONTINUOUS
 10
0.315066
 20
0.463279
 11
0.316934
 21
0.455479
 39
0
 62
0
  0
LINE
  8
LAYER_2
  6
CONTINUOUS
 10
0.318802
 20
0.463279
 11
0.316934
 21
0.455479
 39
0
 62
0
  0
LINE
  8
LAYER_2
  6
CONTINUOUS
 10
0.318802
 20
0.677129
 11
0.316934
 21
0.684929
 39
0
 62
0
  0
LINE
  8
LAYER_2
  6
CONTINUOUS
 10
0.315066
 20
0.677129
 11
0.316934
 21
0.684929
 39
0
 62
0
  0
LINE
  8
LAYER_2
  6
CONTINUOUS
 10
0.316934
 20
0.455479
 11
0.316934
 21
0.310692
 39
0
 62
0
  0
LINE
  8
LAYER_2
  6
CONTINUOUS
 10
0.315066
 20
0.318492
 11
0.316934
 21
0.310692
 39
0
 62
0
  0
LINE
  8
LAYER_2
  6
CONTINUOUS
 10
0.318802
 20
0.318492
 11
0.316934
 21
0.310692
 39
0
 62
0
  0
LINE
  8
LAYER_2
  6
CONTINUOUS
 10
0.318802
 20
0.447679
 11
0.316934
 21
0.455479
 39
0
 62
0
  0
LINE
  8
LAYER_2
  6
CONTINUOUS
 10
0.315066
 20
0.447679
 11
0.316934
 21
0.455479
 39
0
 62
0
  0
LINE
  8
LAYER_2
  6
CONTINUOUS
 10
0.329122
 20
0.691917
 11
0.496659
 21
0.691917
 39
0
 62
0
  0
LINE
  8
LAYER_2
  6
CONTINUOUS
 10
0.488859
 20
0.690049
 11
0.496659
 21
0.691917
 39
0
 62
0
  0
LINE
  8
LAYER_2
  6
CONTINUOUS
 10
0.488859
 20
0.693785
 11
0.496659
 21
0.691917
 39
0
 62
0
  0
LINE
  8
LAYER_2
  6
CONTINUOUS
 10
0.336922
 20
0.693785
 11
0.329122
 21
0.691917
 39
0
 62
0
  0
LINE
  8
LAYER_2
  6
CONTINUOUS
 10
0.336922
 20
0.690049
 11
0.329122
 21
0.691917
 39
0
 62
0
  0
LINE
  8
LAYER_2
  6
CONTINUOUS
 10
0.496659
 20
0.691917
 11
0.642097
 21
0.691917
 39
0
 62
0
  0
LINE
  8
LAYER_2
  6
CONTINUOUS
 10
0.634297
 20
0.690049
 11
0.642097
 21
0.691917
 39
0
 62
0
  0
LINE
  8
LAYER_2
  6
CONTINUOUS
 10
0.634297
 20
0.693785
 11
0.642097
 21
0.691917
 39
0
 62
0
  0
LINE
  8
LAYER_2
  6
CONTINUOUS
 10
0.504459
 20
0.693785
 11
0.496659
 21
0.691917
 39
0
 62
0
  0
LINE
  8
LAYER_2
  6
CONTINUOUS
 10
0.504459
 20
0.690049
 11
0.496659
 21
0.691917
 39
0
 62
0
  0
LINE
  8
LAYER_2
  6
CONTINUOUS
 10
0.303609
 20
0.685092
 11
0.303609
 21
0.559317
 39
0
 62
0
  0
LINE
  8
LAYER_2
  6
CONTINUOUS
 10
0.301741
 20
0.567117
 11
0.303609
 21
0.559317
 39
0
 62
0
  0
LINE
  8
LAYER_2
  6
CONTINUOUS
 10
0.305477
 20
0.567117
 11
0.303609
 21
0.559317
 39
0
 62
0
  0
LINE
  8
LAYER_2
  6
CONTINUOUS
 10
0.305477
 20
0.677292
 11
0.303609
 21
0.685092
 39
0
 62
0
  0
LINE
  8
LAYER_2
  6
CONTINUOUS
 10
0.301741
 20
0.677292
 11
0.303609
 21
0.685092
 39
0
 62
0
  0
LINE
  8
LAYER_2
  6
CONTINUOUS
 10
0.850259
 20
0.685254
 11
0.850259
 21
0.455642
 39
0
 62
0
  0
LINE
  8
LAYER_2
  6
CONTINUOUS
 10
0.848391
 20
0.463442
 11
0.850259
 21
0.455642
 39
0
 62
0
  0
LINE
  8
LAYER_2
  6
CONTINUOUS
 10
0.852127
 20
0.463442
 11
0.850259
 21
0.455642
 39
0
 62
0
  0
LINE
  8
LAYER_2
  6
CONTINUOUS
 10
0.852127
 20
0.677454
 11
0.850259
 21
0.685254
 39
0
 62
0
  0
LINE
  8
LAYER_2
  6
CONTINUOUS
 10
0.848391
 20
0.677454
 11
0.850259
 21
0.685254
 39
0
 62
0
  0
LINE
  8
LAYER_2
  6
CONTINUOUS
 10
0.850259
 20
0.455479
 11
0.850259
 21
0.310854
 39
0
 62
0
  0
LINE
  8
LAYER_2
  6
CONTINUOUS
 10
0.848391
 20
0.318654
 11
0.850259
 21
0.310854
 39
0
 62
0
  0
LINE
  8
LAYER_2
  6
CONTINUOUS
 10
0.852127
 20
0.318654
 11
0.850259
 21
0.310854
 39
0
 62
0
  0
LINE
  8
LAYER_2
  6
CONTINUOUS
 10
0.852127
 20
0.447679
 11
0.850259
 21
0.455479
 39
0
 62
0
  0
LINE
  8
LAYER_2
  6
CONTINUOUS
 10
0.848391
 20
0.447679
 11
0.850259
 21
0.455479
 39
0
 62
0
  0
LINE
  8
LAYER_2
  6
CONTINUOUS
 10
0.329122
 20
0.705567
 11
0.475697
 21
0.705567
 39
0
 62
0
  0
LINE
  8
LAYER_2
  6
CONTINUOUS
 10
0.467897
 20
0.703699
 11
0.475697
 21
0.705567
 39
0
 62
0
  0
LINE
  8
LAYER_2
  6
CONTINUOUS
 10
0.467897
 20
0.707435
 11
0.475697
 21
0.705567
 39
0
 62
0
  0
LINE
  8
LAYER_2
  6
CONTINUOUS
 10
0.336922
 20
0.707435
 11
0.329122
 21
0.705567
 39
0
 62
0
  0
LINE
  8
LAYER_2
  6
CONTINUOUS
 10
0.336922
 20
0.703699
 11
0.329122
 21
0.705567
 39
0
 62
0
  0
LINE
  8
LAYER_2
  6
CONTINUOUS
 10
0.475534
 20
0.705567
 11
0.683859
 21
0.705567
 39
0
 62
0
  0
LINE
  8
LAYER_2
  6
CONTINUOUS
 10
0.676059
 20
0.703699
 11
0.683859
 21
0.705567
 39
0
 62
0
  0
LINE
  8
LAYER_2
  6
CONTINUOUS
 10
0.676059
 20
0.707435
 11
0.683859
 21
0.705567
 39
0
 62
0
  0
LINE
  8
LAYER_2
  6
CONTINUOUS
 10
0.483334
 20
0.707435
 11
0.475534
 21
0.705567
 39
0
 62
0
  0
LINE
  8
LAYER_2
  6
CONTINUOUS
 10
0.483334
 20
0.703699
 11
0.475534
 21
0.705567
 39
0
 62
0
  0
LINE
  8
LAYER_2
  6
CONTINUOUS
 10
0.323922
 20
0.719217
 11
0.454084
 21
0.719217
 39
0
 62
0
  0
LINE
  8
LAYER_2
  6
CONTINUOUS
 10
0.446284
 20
0.717349
 11
0.454084
 21
0.719217
 39
0
 62
0
  0
LINE
  8
LAYER_2
  6
CONTINUOUS
 10
0.446284
 20
0.721085
 11
0.454084
 21
0.719217
 39
0
 62
0
  0
LINE
  8
LAYER_2
  6
CONTINUOUS
 10
0.331722
 20
0.721085
 11
0.323922
 21
0.719217
 39
0
 62
0
  0
LINE
  8
LAYER_2
  6
CONTINUOUS
 10
0.331722
 20
0.717349
 11
0.323922
 21
0.719217
 39
0
 62
0
  0
LINE
  8
LAYER_2
  6
CONTINUOUS
 10
0.454897
 20
0.719217
 11
0.729359
 21
0.719217
 39
0
 62
0
  0
LINE
  8
LAYER_2
  6
CONTINUOUS
 10
0.721559
 20
0.717349
 11
0.729359
 21
0.719217
 39
0
 62
0
  0
LINE
  8
LAYER_2
  6
CONTINUOUS
 10
0.721559
 20
0.721085
 11
0.729359
 21
0.719217
 39
0
 62
0
  0
LINE
  8
LAYER_2
  6
CONTINUOUS
 10
0.462697
 20
0.721085
 11
0.454897
 21
0.719217
 39
0
 62
0
  0
LINE
  8
LAYER_2
  6
CONTINUOUS
 10
0.462697
 20
0.717349
 11
0.454897
 21
0.719217
 39
0
 62
0
  0
LINE
  8
LAYER_2
  6
CONTINUOUS
 10
0.289066
 20
0.504879
 11
0.290934
 21
0.497079
 39
0
 62
0
  0
LINE
  8
LAYER_2
  6
CONTINUOUS
 10
0.292802
 20
0.504879
 11
0.290934
 21
0.497079
 39
0
 62
0
  0
LINE
  8
LAYER_2
  6
CONTINUOUS
 10
0.292802
 20
0.672254
 11
0.290934
 21
0.680054
 39
0
 62
0
  0
LINE
  8
LAYER_2
  6
CONTINUOUS
 10
0.289066
 20
0.672254
 11
0.290934
 21
0.680054
 39
0
 62
0
  0
LINE
  8
LAYER_2
  6
CONTINUOUS
 10
0.290934
 20
0.497079
 11
0.290934
 21
0.316379
 39
0
 62
0
  0
LINE
  8
LAYER_2
  6
CONTINUOUS
 10
0.289066
 20
0.324179
 11
0.290934
 21
0.316379
 39
0
 62
0
  0
LINE
  8
LAYER_2
  6
CONTINUOUS
 10
0.292802
 20
0.324179
 11
0.290934
 21
0.316379
 39
0
 62
0
  0
LINE
  8
LAYER_2
  6
CONTINUOUS
 10
0.292802
 20
0.489279
 11
0.290934
 21
0.497079
 39
0
 62
0
  0
LINE
  8
LAYER_2
  6
CONTINUOUS
 10
0.289066
 20
0.489279
 11
0.290934
 21
0.497079
 39
0
 62
0
  0
LINE
  8
LAYER_2
  6
CONTINUOUS
 10
0.863422
 20
0.680217
 11
0.863422
 21
0.497079
 39
0
 62
0
  0
LINE
  8
LAYER_2
  6
CONTINUOUS
 10
0.861554
 20
0.504879
 11
0.863422
 21
0.497079
 39
0
 62
0
  0
LINE
  8
LAYER_2
  6
CONTINUOUS
 10
0.865290
 20
0.504879
 11
0.863422
 21
0.497079
 39
0
 62
0
  0
LINE
  8
LAYER_2
  6
CONTINUOUS
 10
0.865290
 20
0.672417
 11
0.863422
 21
0.680217
 39
0
 62
0
  0
LINE
  8
LAYER_2
  6
CONTINUOUS
 10
0.861554
 20
0.672417
 11
0.863422
 21
0.680217
 39
0
 62
0
  0
LINE
  8
LAYER_2
  6
CONTINUOUS
 10
0.863422
 20
0.497079
 11
0.863422
 21
0.316379
 39
0
 62
0
  0
LINE
  8
LAYER_2
  6
CONTINUOUS
 10
0.861554
 20
0.324179
 11
0.863422
 21
0.316379
 39
0
 62
0
  0
LINE
  8
LAYER_2
  6
CONTINUOUS
 10
0.865290
 20
0.324179
 11
0.863422
 21
0.316379
 39
0
 62
0
  0
LINE
  8
LAYER_2
  6
CONTINUOUS
 10
0.865290
 20
0.489279
 11
0.863422
 21
0.497079
 39
0
 62
0
  0
LINE
  8
LAYER_2
  6
CONTINUOUS
 10
0.861554
 20
0.489279
 11
0.863422
 21
0.497079
 39
0
 62
0
  0
LINE
  8
LAYER_2
  6
CONTINUOUS
 10
0.303609
 20
0.559642
 11
0.303609
 21
0.311179
 39
0
 62
0
  0
LINE
  8
LAYER_2
  6
CONTINUOUS
 10
0.301741
 20
0.318979
 11
0.303609
 21
0.311179
 39
0
 62
0
  0
LINE
  8
LAYER_2
  6
CONTINUOUS
 10
0.305477
 20
0.318979
 11
0.303609
 21
0.311179
 39
0
 62
0
  0
LINE
  8
LAYER_2
  6
CONTINUOUS
 10
0.305477
 20
0.551842
 11
0.303609
 21
0.559642
 39
0
 62
0
  0
LINE
  8
LAYER_2
  6
CONTINUOUS
 10
0.301741
 20
0.551842
 11
0.303609
 21
0.559642
 39
0
 62
0
  0
LINE
  8
LAYER_2
  6
CONTINUOUS
 10
0.837422
 20
0.559642
 11
0.837422
 21
0.310854
 39
0
 62
0
  0
LINE
  8
LAYER_2
  6
CONTINUOUS
 10
0.835554
 20
0.318654
 11
0.837422
 21
0.310854
 39
0
 62
0
  0
LINE
  8
LAYER_2
  6
CONTINUOUS
 10
0.839290
 20
0.318654
 11
0.837422
 21
0.310854
 39
0
 62
0
  0
LINE
  8
LAYER_2
  6
CONTINUOUS
 10
0.839290
 20
0.551842
 11
0.837422
 21
0.559642
 39
0
 62
0
  0
LINE
  8
LAYER_2
  6
CONTINUOUS
 10
0.835554
 20
0.551842
 11
0.837422
 21
0.559642
 39
0
 62
0
  0
LINE
  8
LAYER_2
  6
CONTINUOUS
 10
0.642097
 20
0.691917
 11
0.817759
 21
0.691917
 39
0
 62
0
  0
LINE
  8
LAYER_2
  6
CONTINUOUS
 10
0.809959
 20
0.690049
 11
0.817759
 21
0.691917
 39
0
 62
0
  0
LINE
  8
LAYER_2
  6
CONTINUOUS
 10
0.809959
 20
0.693785
 11
0.817759
 21
0.691917
 39
0
 62
0
  0
LINE
  8
LAYER_2
  6
CONTINUOUS
 10
0.649897
 20
0.693785
 11
0.642097
 21
0.691917
 39
0
 62
0
  0
LINE
  8
LAYER_2
  6
CONTINUOUS
 10
0.649897
 20
0.690049
 11
0.642097
 21
0.691917
 39
0
 62
0
  0
LINE
  8
LAYER_2
  6
CONTINUOUS
 10
0.683697
 20
0.705567
 11
0.817759
 21
0.705567
 39
0
 62
0
  0
LINE
  8
LAYER_2
  6
CONTINUOUS
 10
0.809959
 20
0.703699
 11
0.817759
 21
0.705567
 39
0
 62
0
  0
LINE
  8
LAYER_2
  6
CONTINUOUS
 10
0.809959
 20
0.707435
 11
0.817759
 21
0.705567
 39
0
 62
0
  0
LINE
  8
LAYER_2
  6
CONTINUOUS
 10
0.691497
 20
0.707435
 11
0.683697
 21
0.705567
 39
0
 62
0
  0
LINE
  8
LAYER_2
  6
CONTINUOUS
 10
0.691497
 20
0.703699
 11
0.683697
 21
0.705567
 39
0
 62
0
  0
LINE
  8
LAYER_2
  6
CONTINUOUS
 10
0.729359
 20
0.719217
 11
0.822959
 21
0.719217
 39
0
 62
0
  0
LINE
  8
LAYER_2
  6
CONTINUOUS
 10
0.815159
 20
0.717349
 11
0.822959
 21
0.719217
 39
0
 62
0
  0
LINE
  8
LAYER_2
  6
CONTINUOUS
 10
0.815159
 20
0.721085
 11
0.822959
 21
0.719217
 39
0
 62
0
  0
LINE
  8
LAYER_2
  6
CONTINUOUS
 10
0.737159
 20
0.721085
 11
0.729359
 21
0.719217
 39
0
 62
0
  0
LINE
  8
LAYER_2
  6
CONTINUOUS
 10
0.737159
 20
0.717349
 11
0.729359
 21
0.719217
 39
0
 62
0
  0
LINE
  8
LAYER_2
  6
CONTINUOUS
 10
0.650709
 20
0.296879
 11
0.818247
 21
0.296879
 39
0
 62
0
  0
LINE
  8
LAYER_2
  6
CONTINUOUS
 10
0.810447
 20
0.295011
 11
0.818247
 21
0.296879
 39
0
 62
0
  0
LINE
  8
LAYER_2
  6
CONTINUOUS
 10
0.810447
 20
0.298748
 11
0.818247
 21
0.296879
 39
0
 62
0
  0
LINE
  8
LAYER_2
  6
CONTINUOUS
 10
0.658509
 20
0.298748
 11
0.650709
 21
0.296879
 39
0
 62
0
  0
LINE
  8
LAYER_2
  6
CONTINUOUS
 10
0.658509
 20
0.295011
 11
0.650709
 21
0.296879
 39
0
 62
0
  0
LINE
  8
LAYER_2
  6
CONTINUOUS
 10
0.505272
 20
0.296879
 11
0.650709
 21
0.296879
 39
0
 62
0
  0
LINE
  8
LAYER_2
  6
CONTINUOUS
 10
0.642909
 20
0.295011
 11
0.650709
 21
0.296879
 39
0
 62
0
  0
LINE
  8
LAYER_2
  6
CONTINUOUS
 10
0.642909
 20
0.298748
 11
0.650709
 21
0.296879
 39
0
 62
0
  0
LINE
  8
LAYER_2
  6
CONTINUOUS
 10
0.513072
 20
0.298748
 11
0.505272
 21
0.296879
 39
0
 62
0
  0
LINE
  8
LAYER_2
  6
CONTINUOUS
 10
0.513072
 20
0.295011
 11
0.505272
 21
0.296879
 39
0
 62
0
  0
LINE
  8
LAYER_2
  6
CONTINUOUS
 10
0.671672
 20
0.283879
 11
0.818247
 21
0.283879
 39
0
 62
0
  0
LINE
  8
LAYER_2
  6
CONTINUOUS
 10
0.810447
 20
0.282011
 11
0.818247
 21
0.283879
 39
0
 62
0
  0
LINE
  8
LAYER_2
  6
CONTINUOUS
 10
0.810447
 20
0.285748
 11
0.818247
 21
0.283879
 39
0
 62
0
  0
LINE
  8
LAYER_2
  6
CONTINUOUS
 10
0.679472
 20
0.285748
 11
0.671672
 21
0.283879
 39
0
 62
0
  0
LINE
  8
LAYER_2
  6
CONTINUOUS
 10
0.679472
 20
0.282011
 11
0.671672
 21
0.283879
 39
0
 62
0
  0
LINE
  8
LAYER_2
  6
CONTINUOUS
 10
0.463509
 20
0.283879
 11
0.671834
 21
0.283879
 39
0
 62
0
  0
LINE
  8
LAYER_2
  6
CONTINUOUS
 10
0.664034
 20
0.282011
 11
0.671834
 21
0.283879
 39
0
 62
0
  0
LINE
  8
LAYER_2
  6
CONTINUOUS
 10
0.664034
 20
0.285748
 11
0.671834
 21
0.283879
 39
0
 62
0
  0
LINE
  8
LAYER_2
  6
CONTINUOUS
 10
0.471309
 20
0.285748
 11
0.463509
 21
0.283879
 39
0
 62
0
  0
LINE
  8
LAYER_2
  6
CONTINUOUS
 10
0.471309
 20
0.282011
 11
0.463509
 21
0.283879
 39
0
 62
0
  0
LINE
  8
LAYER_2
  6
CONTINUOUS
 10
0.693284
 20
0.270879
 11
0.823447
 21
0.270879
 39
0
 62
0
  0
LINE
  8
LAYER_2
  6
CONTINUOUS
 10
0.815647
 20
0.269011
 11
0.823447
 21
0.270879
 39
0
 62
0
  0
LINE
  8
LAYER_2
  6
CONTINUOUS
 10
0.815647
 20
0.272748
 11
0.823447
 21
0.270879
 39
0
 62
0
  0
LINE
  8
LAYER_2
  6
CONTINUOUS
 10
0.701084
 20
0.272748
 11
0.693284
 21
0.270879
 39
0
 62
0
  0
LINE
  8
LAYER_2
  6
CONTINUOUS
 10
0.701084
 20
0.269011
 11
0.693284
 21
0.270879
 39
0
 62
0
  0
LINE
  8
LAYER_2
  6
CONTINUOUS
 10
0.418009
 20
0.270879
 11
0.692472
 21
0.270879
 39
0
 62
0
  0
LINE
  8
LAYER_2
  6
CONTINUOUS
 10
0.684672
 20
0.269011
 11
0.692472
 21
0.270879
 39
0
 62
0
  0
LINE
  8
LAYER_2
  6
CONTINUOUS
 10
0.684672
 20
0.272748
 11
0.692472
 21
0.270879
 39
0
 62
0
  0
LINE
  8
LAYER_2
  6
CONTINUOUS
 10
0.425809
 20
0.272748
 11
0.418009
 21
0.270879
 39
0
 62
0
  0
LINE
  8
LAYER_2
  6
CONTINUOUS
 10
0.425809
 20
0.269011
 11
0.418009
 21
0.270879
 39
0
 62
0
  0
LINE
  8
LAYER_2
  6
CONTINUOUS
 10
0.329609
 20
0.296879
 11
0.505272
 21
0.296879
 39
0
 62
0
  0
LINE
  8
LAYER_2
  6
CONTINUOUS
 10
0.497472
 20
0.295011
 11
0.505272
 21
0.296879
 39
0
 62
0
  0
LINE
  8
LAYER_2
  6
CONTINUOUS
 10
0.497472
 20
0.298748
 11
0.505272
 21
0.296879
 39
0
 62
0
  0
LINE
  8
LAYER_2
  6
CONTINUOUS
 10
0.337409
 20
0.298748
 11
0.329609
 21
0.296879
 39
0
 62
0
  0
LINE
  8
LAYER_2
  6
CONTINUOUS
 10
0.337409
 20
0.295011
 11
0.329609
 21
0.296879
 39
0
 62
0
  0
LINE
  8
LAYER_2
  6
CONTINUOUS
 10
0.329609
 20
0.283879
 11
0.463672
 21
0.283879
 39
0
 62
0
  0
LINE
  8
LAYER_2
  6
CONTINUOUS
 10
0.455872
 20
0.282011
 11
0.463672
 21
0.283879
 39
0
 62
0
  0
LINE
  8
LAYER_2
  6
CONTINUOUS
 10
0.455872
 20
0.285748
 11
0.463672
 21
0.283879
 39
0
 62
0
  0
LINE
  8
LAYER_2
  6
CONTINUOUS
 10
0.337409
 20
0.285748
 11
0.329609
 21
0.283879
 39
0
 62
0
  0
LINE
  8
LAYER_2
  6
CONTINUOUS
 10
0.337409
 20
0.282011
 11
0.329609
 21
0.283879
 39
0
 62
0
  0
LINE
  8
LAYER_2
  6
CONTINUOUS
 10
0.324409
 20
0.270879
 11
0.418009
 21
0.270879
 39
0
 62
0
  0
LINE
  8
LAYER_2
  6
CONTINUOUS
 10
0.410209
 20
0.269011
 11
0.418009
 21
0.270879
 39
0
 62
0
  0
LINE
  8
LAYER_2
  6
CONTINUOUS
 10
0.410209
 20
0.272748
 11
0.418009
 21
0.270879
 39
0
 62
0
  0
LINE
  8
LAYER_2
  6
CONTINUOUS
 10
0.332209
 20
0.272748
 11
0.324409
 21
0.270879
 39
0
 62
0
  0
LINE
  8
LAYER_2
  6
CONTINUOUS
 10
0.332209
 20
0.269011
 11
0.324409
 21
0.270879
 39
0
 62
0
  0
LINE
  8
LAYER_5
  6
CONTINUOUS
 10
0.352684
 20
0.304354
 11
0.352684
 21
0.316054
 39
0
 62
0
  0
LINE
  8
LAYER_5
  6
CONTINUOUS
 10
0.482684
 20
0.304354
 11
0.482684
 21
0.316054
 39
0
 62
0
  0
LINE
  8
LAYER_5
  6
CONTINUOUS
 10
0.352684
 20
0.304354
 11
0.355284
 21
0.304354
 39
0
 62
0
  0
LINE
  8
LAYER_5
  6
CONTINUOUS
 10
0.352684
 20
0.316054
 11
0.355284
 21
0.316054
 39
0
 62
0
  0
LINE
  8
LAYER_5
  6
CONTINUOUS
 10
0.482684
 20
0.316054
 11
0.480084
 21
0.316054
 39
0
 62
0
  0
LINE
  8
LAYER_5
  6
CONTINUOUS
 10
0.482684
 20
0.304354
 11
0.480084
 21
0.304354
 39
0
 62
0
  0
LINE
  8
LAYER_5
  6
CONTINUOUS
 10
0.352684
 20
0.316054
 11
0.352684
 21
0.304354
 39
0
 62
0
  0
LINE
  8
LAYER_5
  6
CONTINUOUS
 10
0.355284
 20
0.316054
 11
0.355284
 21
0.304354
 39
0
 62
0
  0
LINE
  8
LAYER_5
  6
CONTINUOUS
 10
0.482684
 20
0.316054
 11
0.482684
 21
0.304354
 39
0
 62
0
  0
LINE
  8
LAYER_5
  6
CONTINUOUS
 10
0.480084
 20
0.316054
 11
0.480084
 21
0.304354
 39
0
 62
0
  0
LINE
  8
LAYER_5
  6
CONTINUOUS
 10
0.355284
 20
0.316054
 11
0.480084
 21
0.316054
 39
0
 62
0
  0
LINE
  8
LAYER_5
  6
CONTINUOUS
 10
0.355284
 20
0.317354
 11
0.480084
 21
0.317354
 39
0
 62
0
  0
LINE
  8
LAYER_5
  6
CONTINUOUS
 10
0.355284
 20
0.316054
 11
0.355284
 21
0.317354
 39
0
 62
0
  0
LINE
  8
LAYER_5
  6
CONTINUOUS
 10
0.480084
 20
0.316054
 11
0.480084
 21
0.317354
 39
0
 62
0
  0
TEXT
  8
LAYER_5
  6
CONTINUOUS
 10
0.410940
 20
0.300507
 40
0.003311
 50
0.000000
 72
0
  7
Courier#0.002600#0.007800
  1
8' 0"
 39
0
 62
0
  0
LINE
  8
LAYER_5
  6
CONTINUOUS
 10
0.829622
 20
0.529254
 11
0.817922
 21
0.529254
 39
0
 62
0
  0
LINE
  8
LAYER_5
  6
CONTINUOUS
 10
0.829622
 20
0.466854
 11
0.817922
 21
0.466854
 39
0
 62
0
  0
LINE
  8
LAYER_5
  6
CONTINUOUS
 10
0.829622
 20
0.529254
 11
0.829622
 21
0.466854
 39
0
 62
0
  0
LINE
  8
LAYER_5
  6
CONTINUOUS
 10
0.817922
 20
0.529254
 11
0.817922
 21
0.466854
 39
0
 62
0
  0
LINE
  8
LAYER_5
  6
CONTINUOUS
 10
0.829622
 20
0.529254
 11
0.817922
 21
0.529254
 39
0
 62
0
  0
LINE
  8
LAYER_5
  6
CONTINUOUS
 10
0.829622
 20
0.526654
 11
0.817922
 21
0.526654
 39
0
 62
0
  0
LINE
  8
LAYER_5
  6
CONTINUOUS
 10
0.829622
 20
0.466854
 11
0.817922
 21
0.466854
 39
0
 62
0
  0
LINE
  8
LAYER_5
  6
CONTINUOUS
 10
0.829622
 20
0.469454
 11
0.817922
 21
0.469454
 39
0
 62
0
  0
LINE
  8
LAYER_5
  6
CONTINUOUS
 10
0.823772
 20
0.526654
 11
0.823772
 21
0.469454
 39
0
 62
0
  0
LINE
  8
LAYER_5
  6
CONTINUOUS
 10
0.829622
 20
0.529254
 11
0.829622
 21
0.466854
 39
0
 62
0
  0
LINE
  8
LAYER_5
  6
CONTINUOUS
 10
0.817922
 20
0.529254
 11
0.817922
 21
0.466854
 39
0
 62
0
  0
TEXT
  8
LAYER_5
  6
CONTINUOUS
 10
0.833470
 20
0.480098
 40
0.003311
 50
90.000000
 72
0
  7
Courier#0.002600#0.007800
  1
4' 0" x 3' 0"
 39
0
 62
0
  0
LINE
  8
LAYER_5
  6
CONTINUOUS
 10
0.317422
 20
0.662179
 11
0.329122
 21
0.662179
 39
0
 62
0
  0
LINE
  8
LAYER_5
  6
CONTINUOUS
 10
0.317422
 20
0.614729
 11
0.329122
 21
0.614729
 39
0
 62
0
  0
LINE
  8
LAYER_5
  6
CONTINUOUS
 10
0.329122
 20
0.662179
 11
0.329122
 21
0.659579
 39
0
 62
0
  0
LINE
  8
LAYER_5
  6
CONTINUOUS
 10
0.317422
 20
0.662179
 11
0.317422
 21
0.659579
 39
0
 62
0
  0
LINE
  8
LAYER_5
  6
CONTINUOUS
 10
0.317422
 20
0.614729
 11
0.317422
 21
0.617329
 39
0
 62
0
  0
LINE
  8
LAYER_5
  6
CONTINUOUS
 10
0.329122
 20
0.614729
 11
0.329122
 21
0.617329
 39
0
 62
0
  0
LINE
  8
LAYER_5
  6
CONTINUOUS
 10
0.317422
 20
0.662179
 11
0.329122
 21
0.662179
 39
0
 62
0
  0
LINE
  8
LAYER_5
  6
CONTINUOUS
 10
0.317422
 20
0.659579
 11
0.329122
 21
0.659579
 39
0
 62
0
  0
LINE
  8
LAYER_5
  6
CONTINUOUS
 10
0.317422
 20
0.614729
 11
0.329122
 21
0.614729
 39
0
 62
0
  0
LINE
  8
LAYER_5
  6
CONTINUOUS
 10
0.317422
 20
0.617329
 11
0.329122
 21
0.617329
 39
0
 62
0
  0
LINE
  8
LAYER_5
  6
CONTINUOUS
 10
0.329122
 20
0.659579
 11
0.350247
 21
0.622990
 39
0
 62
0
  0
LINE
  8
LAYER_5
  6
CONTINUOUS
 10
0.327996
 20
0.658929
 11
0.349121
 21
0.622340
 39
0
 62
0
  0
LINE
  8
LAYER_5
  6
CONTINUOUS
 10
0.327996
 20
0.658929
 11
0.329122
 21
0.659579
 39
0
 62
0
  0
LINE
  8
LAYER_5
  6
CONTINUOUS
 10
0.349121
 20
0.622340
 11
0.350247
 21
0.622990
 39
0
 62
0
  0
ARC
  8
LAYER_5
  6
CONTINUOUS
 10
0.329123
 20
0.659575
 40
0.042245
 50
269.604724
 51
300.001079
 39
0
 62
0
  0
LINE
  8
LAYER_5
  6
CONTINUOUS
 10
0.317422
 20
0.662179
 11
0.317422
 21
0.614729
 39
0
 62
0
  0
TEXT
  8
LAYER_5
  6
CONTINUOUS
 10
0.323959
 20
0.631711
 40
0.003311
 50
90.000000
 72
0
  7
Courier#0.002600#0.007800
  1
2' 8"
 39
0
 62
0
  0
LINE
  8
LAYER_5
  6
CONTINUOUS
 10
0.508522
 20
0.304354
 11
0.508522
 21
0.316054
 39
0
 62
0
  0
LINE
  8
LAYER_5
  6
CONTINUOUS
 10
0.638522
 20
0.304354
 11
0.638522
 21
0.316054
 39
0
 62
0
  0
LINE
  8
LAYER_5
  6
CONTINUOUS
 10
0.508522
 20
0.304354
 11
0.511122
 21
0.304354
 39
0
 62
0
  0
LINE
  8
LAYER_5
  6
CONTINUOUS
 10
0.508522
 20
0.316054
 11
0.511122
 21
0.316054
 39
0
 62
0
  0
LINE
  8
LAYER_5
  6
CONTINUOUS
 10
0.638522
 20
0.316054
 11
0.635922
 21
0.316054
 39
0
 62
0
  0
LINE
  8
LAYER_5
  6
CONTINUOUS
 10
0.638522
 20
0.304354
 11
0.635922
 21
0.304354
 39
0
 62
0
  0
LINE
  8
LAYER_5
  6
CONTINUOUS
 10
0.508522
 20
0.316054
 11
0.508522
 21
0.304354
 39
0
 62
0
  0
LINE
  8
LAYER_5
  6
CONTINUOUS
 10
0.511122
 20
0.316054
 11
0.511122
 21
0.304354
 39
0
 62
0
  0
LINE
  8
LAYER_5
  6
CONTINUOUS
 10
0.638522
 20
0.316054
 11
0.638522
 21
0.304354
 39
0
 62
0
  0
LINE
  8
LAYER_5
  6
CONTINUOUS
 10
0.635922
 20
0.316054
 11
0.635922
 21
0.304354
 39
0
 62
0
  0
LINE
  8
LAYER_5
  6
CONTINUOUS
 10
0.511122
 20
0.316054
 11
0.635922
 21
0.316054
 39
0
 62
0
  0
LINE
  8
LAYER_5
  6
CONTINUOUS
 10
0.511122
 20
0.317354
 11
0.635922
 21
0.317354
 39
0
 62
0
  0
LINE
  8
LAYER_5
  6
CONTINUOUS
 10
0.511122
 20
0.316054
 11
0.511122
 21
0.317354
 39
0
 62
0
  0
LINE
  8
LAYER_5
  6
CONTINUOUS
 10
0.635922
 20
0.316054
 11
0.635922
 21
0.317354
 39
0
 62
0
  0
TEXT
  8
LAYER_5
  6
CONTINUOUS
 10
0.566778
 20
0.300507
 40
0.003311
 50
0.000000
 72
0
  7
Courier#0.002600#0.007800
  1
8' 0"
 39
0
 62
0
  0
LINE
  8
LAYER_5
  6
CONTINUOUS
 10
0.666797
 20
0.304354
 11
0.666797
 21
0.316054
 39
0
 62
0
  0
LINE
  8
LAYER_5
  6
CONTINUOUS
 10
0.796797
 20
0.304354
 11
0.796797
 21
0.316054
 39
0
 62
0
  0
LINE
  8
LAYER_5
  6
CONTINUOUS
 10
0.666797
 20
0.304354
 11
0.669397
 21
0.304354
 39
0
 62
0
  0
LINE
  8
LAYER_5
  6
CONTINUOUS
 10
0.666797
 20
0.316054
 11
0.669397
 21
0.316054
 39
0
 62
0
  0
LINE
  8
LAYER_5
  6
CONTINUOUS
 10
0.796797
 20
0.316054
 11
0.794197
 21
0.316054
 39
0
 62
0
  0
LINE
  8
LAYER_5
  6
CONTINUOUS
 10
0.796797
 20
0.304354
 11
0.794197
 21
0.304354
 39
0
 62
0
  0
LINE
  8
LAYER_5
  6
CONTINUOUS
 10
0.666797
 20
0.316054
 11
0.666797
 21
0.304354
 39
0
 62
0
  0
LINE
  8
LAYER_5
  6
CONTINUOUS
 10
0.669397
 20
0.316054
 11
0.669397
 21
0.304354
 39
0
 62
0
  0
LINE
  8
LAYER_5
  6
CONTINUOUS
 10
0.796797
 20
0.316054
 11
0.796797
 21
0.304354
 39
0
 62
0
  0
LINE
  8
LAYER_5
  6
CONTINUOUS
 10
0.794197
 20
0.316054
 11
0.794197
 21
0.304354
 39
0
 62
0
  0
LINE
  8
LAYER_5
  6
CONTINUOUS
 10
0.669397
 20
0.316054
 11
0.794197
 21
0.316054
 39
0
 62
0
  0
LINE
  8
LAYER_5
  6
CONTINUOUS
 10
0.669397
 20
0.317354
 11
0.794197
 21
0.317354
 39
0
 62
0
  0
LINE
  8
LAYER_5
  6
CONTINUOUS
 10
0.669397
 20
0.316054
 11
0.669397
 21
0.317354
 39
0
 62
0
  0
LINE
  8
LAYER_5
  6
CONTINUOUS
 10
0.794197
 20
0.316054
 11
0.794197
 21
0.317354
 39
0
 62
0
  0
TEXT
  8
LAYER_5
  6
CONTINUOUS
 10
0.725053
 20
0.300507
 40
0.003311
 50
0.000000
 72
0
  7
Courier#0.002600#0.007800
  1
8' 0"
 39
0
 62
0
  0
LINE
  8
LAYER_4
  6
CONTINUOUS
 10
0.307997
 20
0.714298
 11
0.316934
 21
0.714017
 39
0
 62
0
  0
LINE
  8
LAYER_4
  6
CONTINUOUS
 10
0.316934
 20
0.714017
 11
0.322947
 21
0.714829
 39
0
 62
0
  0
LINE
  8
LAYER_4
  6
CONTINUOUS
 10
0.315467
 20
0.711934
 11
0.322947
 21
0.714829
 39
0
 62
0
  0
LINE
  8
LAYER_4
  6
CONTINUOUS
 10
0.314967
 20
0.715636
 11
0.322947
 21
0.714829
 39
0
 62
0
  0
LINE
  8
LAYER_4
  6
CONTINUOUS
 10
0.337897
 20
0.545910
 11
0.330097
 21
0.544042
 39
0
 62
0
  0
LINE
  8
LAYER_4
  6
CONTINUOUS
 10
0.337897
 20
0.542174
 11
0.330097
 21
0.544042
 39
0
 62
0
  0
LINE
  8
LAYER_4
  6
CONTINUOUS
 10
0.580509
 20
0.544950
 11
0.597247
 21
0.544692
 39
0
 62
0
  0
LINE
  8
LAYER_4
  6
CONTINUOUS
 10
0.808494
 20
0.542511
 11
0.816297
 21
0.544367
 39
0
 62
0
  0
LINE
  8
LAYER_4
  6
CONTINUOUS
 10
0.808500
 20
0.546246
 11
0.816297
 21
0.544367
 39
0
 62
0
  0
LINE
  8
LAYER_4
  6
CONTINUOUS
 10
0.811747
 20
0.248898
 11
0.817272
 21
0.254142
 39
0
 62
0
  0
LINE
  8
LAYER_4
  6
CONTINUOUS
 10
0.817272
 20
0.254142
 11
0.822634
 21
0.265679
 39
0
 62
0
  0
LINE
  8
LAYER_4
  6
CONTINUOUS
 10
0.821041
 20
0.257819
 11
0.822634
 21
0.265679
 39
0
 62
0
  0
LINE
  8
LAYER_4
  6
CONTINUOUS
 10
0.817653
 20
0.259393
 11
0.822634
 21
0.265679
 39
0
 62
0
  0
ENDSEC
  0
EOF
