  0
SECTION
  2
HEADER
  9
$ACADVER
  1
AC1015
  9
$ACADMAINTVER
 70
    20
  9
$DWGCODEPAGE
  3
ANSI_1252
  9
$INSBASE
 10
0.0
 20
0.0
 30
0.0
  9
$EXTMIN
 10
193.2439582100841
 20
3.798371474774626
 30
-0.0015258207003583
  9
$EXTMAX
 10
440.01062060607
 20
201.4554605925227
 30
0.0000000349246037
  9
$LIMMIN
 10
101.163879
 20
-43.233276
  9
$LIMMAX
 10
521.1638789999999
 20
253.766724
  9
$ORTHOMODE
 70
     0
  9
$REGENMODE
 70
     1
  9
$FILLMODE
 70
     1
  9
$QTEXTMODE
 70
     0
  9
$MIRRTEXT
 70
     0
  9
$LTSCALE
 40
1.0
  9
$ATTMODE
 70
     1
  9
$TEXTSIZE
 40
0.2
  9
$TRACEWID
 40
0.05
  9
$TEXTSTYLE
  7
Standard
  9
$CLAYER
  8
DAXCAD1
  9
$CELTYPE
  6
Continuous
  9
$CECOLOR
 62
   256
  9
$CELTSCALE
 40
1.0
  9
$DISPSILH
 70
     0
  9
$DIMSCALE
 40
1.0
  9
$DIMASZ
 40
0.18
  9
$DIMEXO
 40
0.0625
  9
$DIMDLI
 40
0.38
  9
$DIMRND
 40
0.0
  9
$DIMDLE
 40
0.0
  9
$DIMEXE
 40
0.18
  9
$DIMTP
 40
0.0
  9
$DIMTM
 40
0.0
  9
$DIMTXT
 40
0.18
  9
$DIMCEN
 40
0.09
  9
$DIMTSZ
 40
0.0
  9
$DIMTOL
 70
     0
  9
$DIMLIM
 70
     0
  9
$DIMTIH
 70
     1
  9
$DIMTOH
 70
     1
  9
$DIMSE1
 70
     0
  9
$DIMSE2
 70
     0
  9
$DIMTAD
 70
     0
  9
$DIMZIN
 70
     0
  9
$DIMBLK
  1

  9
$DIMASO
 70
     1
  9
$DIMSHO
 70
     1
  9
$DIMPOST
  1

  9
$DIMAPOST
  1

  9
$DIMALT
 70
     0
  9
$DIMALTD
 70
     2
  9
$DIMALTF
 40
25.4
  9
$DIMLFAC
 40
1.0
  9
$DIMTOFL
 70
     0
  9
$DIMTVP
 40
0.0
  9
$DIMTIX
 70
     0
  9
$DIMSOXD
 70
     0
  9
$DIMSAH
 70
     0
  9
$DIMBLK1
  1

  9
$DIMBLK2
  1

  9
$DIMSTYLE
  2
Standard
  9
$DIMCLRD
 70
     0
  9
$DIMCLRE
 70
     0
  9
$DIMCLRT
 70
     0
  9
$DIMTFAC
 40
1.0
  9
$DIMGAP
 40
0.09
  9
$DIMJUST
 70
     0
  9
$DIMSD1
 70
     0
  9
$DIMSD2
 70
     0
  9
$DIMTOLJ
 70
     1
  9
$DIMTZIN
 70
     0
  9
$DIMALTZ
 70
     0
  9
$DIMALTTZ
 70
     0
  9
$DIMUPT
 70
     0
  9
$DIMDEC
 70
     4
  9
$DIMTDEC
 70
     4
  9
$DIMALTU
 70
     2
  9
$DIMALTTD
 70
     2
  9
$DIMTXSTY
  7
Standard
  9
$DIMAUNIT
 70
     0
  9
$DIMADEC
 70
     0
  9
$DIMALTRND
 40
0.0
  9
$DIMAZIN
 70
     0
  9
$DIMDSEP
 70
    46
  9
$DIMATFIT
 70
     3
  9
$DIMFRAC
 70
     0
  9
$DIMLDRBLK
  1

  9
$DIMLUNIT
 70
     2
  9
$DIMLWD
 70
    -2
  9
$DIMLWE
 70
    -2
  9
$DIMTMOVE
 70
     0
  9
$LUNITS
 70
     2
  9
$LUPREC
 70
     4
  9
$SKETCHINC
 40
0.1
  9
$FILLETRAD
 40
0.0
  9
$AUNITS
 70
     0
  9
$AUPREC
 70
     0
  9
$MENU
  1
.
  9
$ELEVATION
 40
0.0
  9
$PELEVATION
 40
0.0
  9
$THICKNESS
 40
0.0
  9
$LIMCHECK
 70
     0
  9
$CHAMFERA
 40
0.0
  9
$CHAMFERB
 40
0.0
  9
$CHAMFERC
 40
0.0
  9
$CHAMFERD
 40
0.0
  9
$SKPOLY
 70
     0
  9
$TDCREATE
 40
2454883.031641528
  9
$TDUCREATE
 40
2454883.031641528
  9
$TDUPDATE
 40
2454883.033542385
  9
$TDUUPDATE
 40
2454883.033542385
  9
$TDINDWG
 40
0.0019142477
  9
$TDUSRTIMER
 40
0.0019142477
  9
$USRTIMER
 70
     1
  9
$ANGBASE
 50
0.0
  9
$ANGDIR
 70
     0
  9
$PDMODE
 70
     0
  9
$PDSIZE
 40
0.0
  9
$PLINEWID
 40
0.0
  9
$SPLFRAME
 70
     0
  9
$SPLINETYPE
 70
     6
  9
$SPLINESEGS
 70
     8
  9
$HANDSEED
  5
241
  9
$SURFTAB1
 70
     6
  9
$SURFTAB2
 70
     6
  9
$SURFTYPE
 70
     6
  9
$SURFU
 70
     6
  9
$SURFV
 70
     6
  9
$UCSBASE
  2

  9
$UCSNAME
  2

  9
$UCSORG
 10
0.0
 20
0.0
 30
0.0
  9
$UCSXDIR
 10
1.0
 20
0.0
 30
0.0
  9
$UCSYDIR
 10
0.0
 20
1.0
 30
0.0
  9
$UCSORTHOREF
  2

  9
$UCSORTHOVIEW
 70
     0
  9
$UCSORGTOP
 10
0.0
 20
0.0
 30
0.0
  9
$UCSORGBOTTOM
 10
0.0
 20
0.0
 30
0.0
  9
$UCSORGLEFT
 10
0.0
 20
0.0
 30
0.0
  9
$UCSORGRIGHT
 10
0.0
 20
0.0
 30
0.0
  9
$UCSORGFRONT
 10
0.0
 20
0.0
 30
0.0
  9
$UCSORGBACK
 10
0.0
 20
0.0
 30
0.0
  9
$PUCSBASE
  2

  9
$PUCSNAME
  2

  9
$PUCSORG
 10
0.0
 20
0.0
 30
0.0
  9
$PUCSXDIR
 10
1.0
 20
0.0
 30
0.0
  9
$PUCSYDIR
 10
0.0
 20
1.0
 30
0.0
  9
$PUCSORTHOREF
  2

  9
$PUCSORTHOVIEW
 70
     0
  9
$PUCSORGTOP
 10
0.0
 20
0.0
 30
0.0
  9
$PUCSORGBOTTOM
 10
0.0
 20
0.0
 30
0.0
  9
$PUCSORGLEFT
 10
0.0
 20
0.0
 30
0.0
  9
$PUCSORGRIGHT
 10
0.0
 20
0.0
 30
0.0
  9
$PUCSORGFRONT
 10
0.0
 20
0.0
 30
0.0
  9
$PUCSORGBACK
 10
0.0
 20
0.0
 30
0.0
  9
$USERI1
 70
     0
  9
$USERI2
 70
     0
  9
$USERI3
 70
     0
  9
$USERI4
 70
     0
  9
$USERI5
 70
     0
  9
$USERR1
 40
0.0
  9
$USERR2
 40
0.0
  9
$USERR3
 40
0.0
  9
$USERR4
 40
0.0
  9
$USERR5
 40
0.0
  9
$WORLDVIEW
 70
     1
  9
$SHADEDGE
 70
     3
  9
$SHADEDIF
 70
    70
  9
$TILEMODE
 70
     1
  9
$MAXACTVP
 70
    64
  9
$PINSBASE
 10
0.0
 20
0.0
 30
0.0
  9
$PLIMCHECK
 70
     0
  9
$PEXTMIN
 10
1.000000000000000E+20
 20
1.000000000000000E+20
 30
1.000000000000000E+20
  9
$PEXTMAX
 10
-1.000000000000000E+20
 20
-1.000000000000000E+20
 30
-1.000000000000000E+20
  9
$PLIMMIN
 10
0.0
 20
0.0
  9
$PLIMMAX
 10
12.0
 20
9.0
  9
$UNITMODE
 70
     0
  9
$VISRETAIN
 70
     1
  9
$PLINEGEN
 70
     0
  9
$PSLTSCALE
 70
     1
  9
$TREEDEPTH
 70
  3020
  9
$CMLSTYLE
  2
Standard
  9
$CMLJUST
 70
     0
  9
$CMLSCALE
 40
1.0
  9
$PROXYGRAPHICS
 70
     1
  9
$MEASUREMENT
 70
     0
  9
$CELWEIGHT
370
    -1
  9
$ENDCAPS
280
     0
  9
$JOINSTYLE
280
     0
  9
$LWDISPLAY
290
     0
  9
$INSUNITS
 70
     0
  9
$HYPERLINKBASE
  1

  9
$STYLESHEET
  1

  9
$XEDIT
290
     1
  9
$CEPSNTYPE
380
     0
  9
$PSTYLEMODE
290
     1
  9
$FINGERPRINTGUID
  2
{CB74CCC8-C116-4F2E-A796-66C3B4A37649}
  9
$VERSIONGUID
  2
{C832F827-5B2F-4EAE-A44A-6597A66D937E}
  9
$EXTNAMES
290
     1
  9
$PSVPSCALE
 40
0.0
  9
$OLESTARTUP
290
     0
  0
ENDSEC
  0
SECTION
  2
CLASSES
  0
CLASS
  1
ACDBDICTIONARYWDFLT
  2
AcDbDictionaryWithDefault
  3
ObjectDBX Classes
 90
        0
280
     0
281
     0
  0
CLASS
  1
TABLESTYLE
  2
AcDbTableStyle
  3
ObjectDBX Classes
 90
     2047
280
     0
281
     0
  0
CLASS
  1
DICTIONARYVAR
  2
AcDbDictionaryVar
  3
ObjectDBX Classes
 90
        0
280
     0
281
     0
  0
CLASS
  1
ACDBPLACEHOLDER
  2
AcDbPlaceHolder
  3
ObjectDBX Classes
 90
        0
280
     0
281
     0
  0
CLASS
  1
LAYOUT
  2
AcDbLayout
  3
ObjectDBX Classes
 90
        0
280
     0
281
     0
  0
ENDSEC
  0
SECTION
  2
TABLES
  0
TABLE
  2
VPORT
  5
8
330
0
100
AcDbSymbolTable
 70
     2
  0
VPORT
  5
23B
330
8
100
AcDbSymbolTableRecord
100
AcDbViewportTableRecord
  2
*Active
 70
     0
 10
0.0
 20
0.0
 11
1.0
 21
1.0
 12
316.9982935082954
 22
96.27961761888812
 13
0.0
 23
0.0
 14
1.0
 24
1.0
 15
0.0
 25
0.0
 16
0.0
 26
0.0
 36
1.0
 17
0.0
 27
0.0
 37
0.0
 40
220.8678861288281
 41
1.616822429906542
 42
50.0
 43
0.0
 44
0.0
 50
0.0
 51
0.0
 71
     0
 72
   100
 73
     1
 74
     1
 75
     0
 76
     0
 77
     0
 78
     0
281
     0
 65
     1
110
0.0
120
0.0
130
0.0
111
1.0
121
0.0
131
0.0
112
0.0
122
1.0
132
0.0
 79
     0
146
0.0
  0
ENDTAB
  0
TABLE
  2
LTYPE
  5
5
330
0
100
AcDbSymbolTable
 70
    14
  0
LTYPE
  5
13
330
5
100
AcDbSymbolTableRecord
100
AcDbLinetypeTableRecord
  2
ByBlock
 70
     0
  3

 72
    65
 73
     0
 40
0.0
  0
LTYPE
  5
14
330
5
100
AcDbSymbolTableRecord
100
AcDbLinetypeTableRecord
  2
ByLayer
 70
     0
  3

 72
    65
 73
     0
 40
0.0
  0
LTYPE
  5
15
330
5
100
AcDbSymbolTableRecord
100
AcDbLinetypeTableRecord
  2
Continuous
 70
     0
  3
Solid line
 72
    65
 73
     0
 40
0.0
  0
LTYPE
  5
27
330
5
100
AcDbSymbolTableRecord
100
AcDbLinetypeTableRecord
  2
DAXCADSOLID
 70
     0
  3
Daxcad line "SOLID" 1.0
 72
    65
 73
     0
 40
0.0
  0
LTYPE
  5
28
330
5
100
AcDbSymbolTableRecord
100
AcDbLinetypeTableRecord
  2
DAXCADSHORTDASH
 70
     0
  3
Daxcad line "SHORT DASH" 3.0 3.0
 72
    65
 73
     2
 40
6.0
 49
3.0
 74
     0
 49
-3.0
 74
     0
  0
LTYPE
  5
29
330
5
100
AcDbSymbolTableRecord
100
AcDbLinetypeTableRecord
  2
DAXCADLONGDASH
 70
     0
  3
Daxcad line "LONG DASH"  6.0 6.0
 72
    65
 73
     2
 40
12.0
 49
6.0
 74
     0
 49
-6.0
 74
     0
  0
LTYPE
  5
2A
330
5
100
AcDbSymbolTableRecord
100
AcDbLinetypeTableRecord
  2
DAXCADBROKEN
 70
     0
  3
Daxcad line "BROKEN" 9.6 2.4
 72
    65
 73
     2
 40
12.0
 49
9.599999999999999
 74
     0
 49
-2.399999999999999
 74
     0
  0
LTYPE
  5
2B
330
5
100
AcDbSymbolTableRecord
100
AcDbLinetypeTableRecord
  2
DAXCADLONGCENTRE
 70
     0
  3
Daxcad line "LONG CENTRE" 10.8 1.8 3.6 1.8
 72
    65
 73
     4
 40
18.0
 49
10.8
 74
     0
 49
-1.8
 74
     0
 49
3.6
 74
     0
 49
-1.8
 74
     0
  0
LTYPE
  5
2C
330
5
100
AcDbSymbolTableRecord
100
AcDbLinetypeTableRecord
  2
DAXCADSINGLECENTRE
 70
     0
  3
Daxcad line "SINGLE CENTRE" 12.6 1.8 1.8 1.8
 72
    65
 73
     4
 40
18.0
 49
12.6
 74
     0
 49
-1.8
 74
     0
 49
1.8
 74
     0
 49
-1.8
 74
     0
  0
LTYPE
  5
2D
330
5
100
AcDbSymbolTableRecord
100
AcDbLinetypeTableRecord
  2
DAXCADDOUBLECENTRE
 70
     0
  3
Daxcad line "DOUBLE CENTRE" 12.0 2.4 2.4 2.4 2.4 2.4
 72
    65
 73
     6
 40
24.0
 49
12.0
 74
     0
 49
-2.399999999999999
 74
     0
 49
2.399999999999999
 74
     0
 49
-2.399999999999999
 74
     0
 49
2.399999999999999
 74
     0
 49
-2.399999999999999
 74
     0
  0
LTYPE
  5
2E
330
5
100
AcDbSymbolTableRecord
100
AcDbLinetypeTableRecord
  2
DAXCADEXAMPLE1
 70
     0
  3
Daxcad line "EXAMPLE 1" 1.5 1.5
 72
    65
 73
     2
 40
3.0
 49
1.5
 74
     0
 49
-1.5
 74
     0
  0
LTYPE
  5
2F
330
5
100
AcDbSymbolTableRecord
100
AcDbLinetypeTableRecord
  2
DAXCADEXAMPLE2
 70
     0
  3
Daxcad line "EXAMPLE 2" 1.0 1.0
 72
    65
 73
     2
 40
2.0
 49
1.0
 74
     0
 49
-1.0
 74
     0
  0
LTYPE
  5
30
330
5
100
AcDbSymbolTableRecord
100
AcDbLinetypeTableRecord
  2
DAXCADDESFONT
 70
     0
  3
Daxcad line "DES FONT" 1.0 4.0
 72
    65
 73
     2
 40
5.0
 49
1.0
 74
     0
 49
-4.0
 74
     0
  0
LTYPE
  5
31
330
5
100
AcDbSymbolTableRecord
100
AcDbLinetypeTableRecord
  2
DAXCADRICHARDSLINE
 70
     0
  3
Daxcad line "RICHARDS LINE" 8.0 2.0 1.0 2.0 1.0 2.0
 72
    65
 73
     6
 40
16.0
 49
8.0
 74
     0
 49
-2.0
 74
     0
 49
1.0
 74
     0
 49
-2.0
 74
     0
 49
1.0
 74
     0
 49
-2.0
 74
     0
  0
LTYPE
  5
32
330
5
100
AcDbSymbolTableRecord
100
AcDbLinetypeTableRecord
  2
DAXCADRWHIDDEN
 70
     0
  3
Daxcad line "RW HIDDEN" 2.0 2.0
 72
    65
 73
     2
 40
4.0
 49
2.0
 74
     0
 49
-2.0
 74
     0
  0
ENDTAB
  0
TABLE
  2
LAYER
  5
2
330
0
100
AcDbSymbolTable
 70
     2
  0
LAYER
  5
10
330
2
100
AcDbSymbolTableRecord
100
AcDbLayerTableRecord
  2
0
 70
     0
 62
     7
  6
Continuous
370
    -3
390
F
  0
LAYER
  5
26
330
2
100
AcDbSymbolTableRecord
100
AcDbLayerTableRecord
  2
DAXCAD1
 70
     0
 62
     7
  6
DAXCADSOLID
370
    -3
390
F
  0
ENDTAB
  0
TABLE
  2
STYLE
  5
3
330
0
100
AcDbSymbolTable
 70
     1
  0
STYLE
  5
11
330
3
100
AcDbSymbolTableRecord
100
AcDbTextStyleTableRecord
  2
Standard
 70
     0
 40
0.0
 41
1.0
 50
0.0
 71
     0
 42
0.2
  3
txt
  4

  0
ENDTAB
  0
TABLE
  2
VIEW
  5
6
330
0
100
AcDbSymbolTable
 70
     0
  0
ENDTAB
  0
TABLE
  2
UCS
  5
7
330
0
100
AcDbSymbolTable
 70
     0
  0
ENDTAB
  0
TABLE
  2
APPID
  5
9
330
0
100
AcDbSymbolTable
 70
     1
  0
APPID
  5
12
330
9
100
AcDbSymbolTableRecord
100
AcDbRegAppTableRecord
  2
ACAD
 70
     0
  0
ENDTAB
  0
TABLE
  2
DIMSTYLE
  5
A
330
0
100
AcDbSymbolTable
 70
     2
100
AcDbDimStyleTable
 71
     1
340
22F
  0
DIMSTYLE
105
22F
330
A
100
AcDbSymbolTableRecord
100
AcDbDimStyleTableRecord
  2
Standard
 70
     0
340
11
  0
ENDTAB
  0
TABLE
  2
BLOCK_RECORD
  5
1
330
0
100
AcDbSymbolTable
 70
    12
  0
BLOCK_RECORD
  5
22
330
1
100
AcDbSymbolTableRecord
100
AcDbBlockTableRecord
  2
*Model_Space
340
25
  0
BLOCK_RECORD
  5
1E
330
1
100
AcDbSymbolTableRecord
100
AcDbBlockTableRecord
  2
*Paper_Space
340
21
  0
BLOCK_RECORD
  5
35
330
1
100
AcDbSymbolTableRecord
100
AcDbBlockTableRecord
  2
DAXCAD1MARKER
340
0
  0
BLOCK_RECORD
  5
3A
330
1
100
AcDbSymbolTableRecord
100
AcDbBlockTableRecord
  2
DAXCAD2MARKER
340
0
  0
BLOCK_RECORD
  5
41
330
1
100
AcDbSymbolTableRecord
100
AcDbBlockTableRecord
  2
DAXCAD3MARKER
340
0
  0
BLOCK_RECORD
  5
46
330
1
100
AcDbSymbolTableRecord
100
AcDbBlockTableRecord
  2
DAXCAD4MARKER
340
0
  0
BLOCK_RECORD
  5
4C
330
1
100
AcDbSymbolTableRecord
100
AcDbBlockTableRecord
  2
DAXCAD5MARKER
340
0
  0
BLOCK_RECORD
  5
55
330
1
100
AcDbSymbolTableRecord
100
AcDbBlockTableRecord
  2
DAXCAD6MARKER
340
0
  0
BLOCK_RECORD
  5
5B
330
1
100
AcDbSymbolTableRecord
100
AcDbBlockTableRecord
  2
DAXCAD7MARKER
340
0
  0
BLOCK_RECORD
  5
6E
330
1
100
AcDbSymbolTableRecord
100
AcDbBlockTableRecord
  2
DAXCAD8MARKER
340
0
  0
BLOCK_RECORD
  5
7A
330
1
100
AcDbSymbolTableRecord
100
AcDbBlockTableRecord
  2
DAXCAD9MARKER
340
0
  0
BLOCK_RECORD
  5
85
330
1
100
AcDbSymbolTableRecord
100
AcDbBlockTableRecord
  2
DAXCAD10MARKER
340
0
  0
BLOCK_RECORD
  5
90
330
1
100
AcDbSymbolTableRecord
100
AcDbBlockTableRecord
  2
*X10
340
0
102
{BLKREFS
331
22E
102
}
  0
ENDTAB
  0
ENDSEC
  0
SECTION
  2
BLOCKS
  0
BLOCK
  5
23
330
22
100
AcDbEntity
  8
0
100
AcDbBlockBegin
  2
*Model_Space
 70
     0
 10
0.0
 20
0.0
 30
0.0
  3
*Model_Space
  1

  0
ENDBLK
  5
24
330
22
100
AcDbEntity
  8
0
100
AcDbBlockEnd
  0
BLOCK
  5
1F
330
1E
100
AcDbEntity
 67
     1
  8
0
100
AcDbBlockBegin
  2
*Paper_Space
 70
     0
 10
0.0
 20
0.0
 30
0.0
  3
*Paper_Space
  1

  0
ENDBLK
  5
20
330
1E
100
AcDbEntity
 67
     1
  8
0
100
AcDbBlockEnd
  0
BLOCK
  5
36
330
35
100
AcDbEntity
  8
DAXCAD1
 62
     7
100
AcDbBlockBegin
  2
DAXCAD1MARKER
 70
     2
 10
0.0
 20
0.0
 30
0.0
  3
DAXCAD1MARKER
  1

  0
LINE
  5
37
330
35
100
AcDbEntity
  8
DAXCAD1
 62
     7
100
AcDbLine
 10
2.0
 20
0.0
 30
0.0
 11
-2.0
 21
0.0
 31
0.0
  0
LINE
  5
38
330
35
100
AcDbEntity
  8
DAXCAD1
 62
     7
100
AcDbLine
 10
0.0
 20
-2.0
 30
0.0
 11
0.0
 21
2.0
 31
0.0
  0
ENDBLK
  5
39
330
35
100
AcDbEntity
  8
0
100
AcDbBlockEnd
  0
BLOCK
  5
3B
330
3A
100
AcDbEntity
  8
DAXCAD1
 62
     7
100
AcDbBlockBegin
  2
DAXCAD2MARKER
 70
     2
 10
0.0
 20
0.0
 30
0.0
  3
DAXCAD2MARKER
  1

  0
LINE
  5
3C
330
3A
100
AcDbEntity
  8
DAXCAD1
 62
     7
100
AcDbLine
 10
2.0
 20
0.0
 30
0.0
 11
-2.0
 21
0.0
 31
0.0
  0
LINE
  5
3D
330
3A
100
AcDbEntity
  8
DAXCAD1
 62
     7
100
AcDbLine
 10
0.0
 20
-2.0
 30
0.0
 11
0.0
 21
2.0
 31
0.0
  0
LINE
  5
3E
330
3A
100
AcDbEntity
  8
DAXCAD1
 62
     7
100
AcDbLine
 10
2.0
 20
2.0
 30
0.0
 11
-2.0
 21
-2.0
 31
0.0
  0
LINE
  5
3F
330
3A
100
AcDbEntity
  8
DAXCAD1
 62
     7
100
AcDbLine
 10
-2.0
 20
2.0
 30
0.0
 11
2.0
 21
-2.0
 31
0.0
  0
ENDBLK
  5
40
330
3A
100
AcDbEntity
  8
0
100
AcDbBlockEnd
  0
BLOCK
  5
42
330
41
100
AcDbEntity
  8
DAXCAD1
 62
     7
100
AcDbBlockBegin
  2
DAXCAD3MARKER
 70
     2
 10
0.0
 20
0.0
 30
0.0
  3
DAXCAD3MARKER
  1

  0
LINE
  5
43
330
41
100
AcDbEntity
  8
DAXCAD1
 62
     7
100
AcDbLine
 10
2.0
 20
2.0
 30
0.0
 11
-2.0
 21
-2.0
 31
0.0
  0
LINE
  5
44
330
41
100
AcDbEntity
  8
DAXCAD1
 62
     7
100
AcDbLine
 10
-2.0
 20
2.0
 30
0.0
 11
2.0
 21
-2.0
 31
0.0
  0
ENDBLK
  5
45
330
41
100
AcDbEntity
  8
0
100
AcDbBlockEnd
  0
BLOCK
  5
47
330
46
100
AcDbEntity
  8
DAXCAD1
 62
     7
100
AcDbBlockBegin
  2
DAXCAD4MARKER
 70
     2
 10
0.0
 20
0.0
 30
0.0
  3
DAXCAD4MARKER
  1

  0
LINE
  5
48
330
46
100
AcDbEntity
  8
DAXCAD1
 62
     7
100
AcDbLine
 10
2.0
 20
0.0
 30
0.0
 11
-2.0
 21
0.0
 31
0.0
  0
LINE
  5
49
330
46
100
AcDbEntity
  8
DAXCAD1
 62
     7
100
AcDbLine
 10
0.0
 20
-2.0
 30
0.0
 11
0.0
 21
2.0
 31
0.0
  0
CIRCLE
  5
4A
330
46
100
AcDbEntity
  8
DAXCAD1
 62
     7
100
AcDbCircle
 10
0.0
 20
0.0
 30
0.0
 40
3.0
  0
ENDBLK
  5
4B
330
46
100
AcDbEntity
  8
0
100
AcDbBlockEnd
  0
BLOCK
  5
4D
330
4C
100
AcDbEntity
  8
DAXCAD1
 62
     7
100
AcDbBlockBegin
  2
DAXCAD5MARKER
 70
     2
 10
0.0
 20
0.0
 30
0.0
  3
DAXCAD5MARKER
  1

  0
LINE
  5
4E
330
4C
100
AcDbEntity
  8
DAXCAD1
 62
     7
100
AcDbLine
 10
2.0
 20
2.0
 30
0.0
 11
2.0
 21
-2.0
 31
0.0
  0
LINE
  5
4F
330
4C
100
AcDbEntity
  8
DAXCAD1
 62
     7
100
AcDbLine
 10
2.0
 20
-2.0
 30
0.0
 11
-2.0
 21
-2.0
 31
0.0
  0
LINE
  5
50
330
4C
100
AcDbEntity
  8
DAXCAD1
 62
     7
100
AcDbLine
 10
-2.0
 20
-2.0
 30
0.0
 11
-2.0
 21
2.0
 31
0.0
  0
LINE
  5
51
330
4C
100
AcDbEntity
  8
DAXCAD1
 62
     7
100
AcDbLine
 10
-2.0
 20
2.0
 30
0.0
 11
2.0
 21
2.0
 31
0.0
  0
LINE
  5
52
330
4C
100
AcDbEntity
  8
DAXCAD1
 62
     7
100
AcDbLine
 10
4.0
 20
0.0
 30
0.0
 11
-4.0
 21
0.0
 31
0.0
  0
LINE
  5
53
330
4C
100
AcDbEntity
  8
DAXCAD1
 62
     7
100
AcDbLine
 10
0.0
 20
-4.0
 30
0.0
 11
0.0
 21
4.0
 31
0.0
  0
ENDBLK
  5
54
330
4C
100
AcDbEntity
  8
0
100
AcDbBlockEnd
  0
BLOCK
  5
56
330
55
100
AcDbEntity
  8
DAXCAD1
 62
     7
100
AcDbBlockBegin
  2
DAXCAD6MARKER
 70
     2
 10
0.0
 20
0.0
 30
0.0
  3
DAXCAD6MARKER
  1

  0
LINE
  5
57
330
55
100
AcDbEntity
  8
DAXCAD1
 62
     7
100
AcDbLine
 10
2.0
 20
2.0
 30
0.0
 11
-2.0
 21
-2.0
 31
0.0
  0
LINE
  5
58
330
55
100
AcDbEntity
  8
DAXCAD1
 62
     7
100
AcDbLine
 10
-2.0
 20
2.0
 30
0.0
 11
2.0
 21
-2.0
 31
0.0
  0
CIRCLE
  5
59
330
55
100
AcDbEntity
  8
DAXCAD1
 62
     7
100
AcDbCircle
 10
0.0
 20
0.0
 30
0.0
 40
3.0
  0
ENDBLK
  5
5A
330
55
100
AcDbEntity
  8
0
100
AcDbBlockEnd
  0
BLOCK
  5
5C
330
5B
100
AcDbEntity
  8
DAXCAD1
 62
     7
100
AcDbBlockBegin
  2
DAXCAD7MARKER
 70
     2
 10
0.0
 20
0.0
 30
0.0
  3
DAXCAD7MARKER
  1

  0
LINE
  5
5D
330
5B
100
AcDbEntity
  8
DAXCAD1
 62
     7
100
AcDbLine
 10
0.0
 20
-4.0
 30
0.0
 11
0.0
 21
4.0
 31
0.0
  0
LINE
  5
5E
330
5B
100
AcDbEntity
  8
DAXCAD1
 62
     7
100
AcDbLine
 10
-4.0
 20
0.0
 30
0.0
 11
4.0
 21
0.0
 31
0.0
  0
ARC
  5
5F
330
5B
100
AcDbEntity
  8
DAXCAD1
 62
     7
100
AcDbCircle
 10
0.0
 20
0.0
 30
0.0
 40
3.0
100
AcDbArc
 50
0.0
 51
90.0
  0
ARC
  5
60
330
5B
100
AcDbEntity
  8
DAXCAD1
 62
     7
100
AcDbCircle
 10
0.0
 20
0.0
 30
0.0
 40
2.5
100
AcDbArc
 50
0.0
 51
90.0
  0
ARC
  5
61
330
5B
100
AcDbEntity
  8
DAXCAD1
 62
     7
100
AcDbCircle
 10
0.0
 20
0.0
 30
0.0
 40
2.0
100
AcDbArc
 50
0.0
 51
90.0
  0
ARC
  5
62
330
5B
100
AcDbEntity
  8
DAXCAD1
 62
     7
100
AcDbCircle
 10
0.0
 20
0.0
 30
0.0
 40
1.5
100
AcDbArc
 50
0.0
 51
90.0
  0
ARC
  5
63
330
5B
100
AcDbEntity
  8
DAXCAD1
 62
     7
100
AcDbCircle
 10
0.0
 20
0.0
 30
0.0
 40
1.0
100
AcDbArc
 50
0.0
 51
90.0
  0
ARC
  5
64
330
5B
100
AcDbEntity
  8
DAXCAD1
 62
     7
100
AcDbCircle
 10
0.0
 20
0.0
 30
0.0
 40
0.5
100
AcDbArc
 50
0.0
 51
90.0
  0
ARC
  5
65
330
5B
100
AcDbEntity
  8
DAXCAD1
 62
     7
100
AcDbCircle
 10
0.0
 20
0.0
 30
0.0
 40
3.0
100
AcDbArc
 50
90.0
 51
180.0
  0
ARC
  5
66
330
5B
100
AcDbEntity
  8
DAXCAD1
 62
     7
100
AcDbCircle
 10
0.0
 20
0.0
 30
0.0
 40
3.0
100
AcDbArc
 50
180.0
 51
270.0
  0
ARC
  5
67
330
5B
100
AcDbEntity
  8
DAXCAD1
 62
     7
100
AcDbCircle
 10
0.0
 20
0.0
 30
0.0
 40
2.5
100
AcDbArc
 50
180.0
 51
270.0
  0
ARC
  5
68
330
5B
100
AcDbEntity
  8
DAXCAD1
 62
     7
100
AcDbCircle
 10
0.0
 20
0.0
 30
0.0
 40
2.0
100
AcDbArc
 50
180.0
 51
270.0
  0
ARC
  5
69
330
5B
100
AcDbEntity
  8
DAXCAD1
 62
     7
100
AcDbCircle
 10
0.0
 20
0.0
 30
0.0
 40
1.5
100
AcDbArc
 50
180.0
 51
270.0
  0
ARC
  5
6A
330
5B
100
AcDbEntity
  8
DAXCAD1
 62
     7
100
AcDbCircle
 10
0.0
 20
0.0
 30
0.0
 40
1.0
100
AcDbArc
 50
180.0
 51
270.0
  0
ARC
  5
6B
330
5B
100
AcDbEntity
  8
DAXCAD1
 62
     7
100
AcDbCircle
 10
0.0
 20
0.0
 30
0.0
 40
0.5
100
AcDbArc
 50
180.0
 51
270.0
  0
ARC
  5
6C
330
5B
100
AcDbEntity
  8
DAXCAD1
 62
     7
100
AcDbCircle
 10
0.0
 20
0.0
 30
0.0
 40
3.0
100
AcDbArc
 50
270.0
 51
0.0
  0
ENDBLK
  5
6D
330
5B
100
AcDbEntity
  8
0
100
AcDbBlockEnd
  0
BLOCK
  5
6F
330
6E
100
AcDbEntity
  8
DAXCAD1
 62
     7
100
AcDbBlockBegin
  2
DAXCAD8MARKER
 70
     2
 10
0.0
 20
0.0
 30
0.0
  3
DAXCAD8MARKER
  1

  0
LINE
  5
70
330
6E
100
AcDbEntity
  8
DAXCAD1
 62
     7
100
AcDbLine
 10
0.0
 20
-4.0
 30
0.0
 11
0.0
 21
4.0
 31
0.0
  0
LINE
  5
71
330
6E
100
AcDbEntity
  8
DAXCAD1
 62
     7
100
AcDbLine
 10
-8.0
 20
0.0
 30
0.0
 11
8.0
 21
0.0
 31
0.0
  0
LINE
  5
72
330
6E
100
AcDbEntity
  8
DAXCAD1
 62
     7
100
AcDbLine
 10
8.0
 20
0.0
 30
0.0
 11
5.0
 21
-2.0
 31
0.0
  0
LINE
  5
73
330
6E
100
AcDbEntity
  8
DAXCAD1
 62
     7
100
AcDbLine
 10
5.0
 20
-2.0
 30
0.0
 11
5.0
 21
2.0
 31
0.0
  0
LINE
  5
74
330
6E
100
AcDbEntity
  8
DAXCAD1
 62
     7
100
AcDbLine
 10
5.0
 20
2.0
 30
0.0
 11
8.0
 21
0.0
 31
0.0
  0
ARC
  5
75
330
6E
100
AcDbEntity
  8
DAXCAD1
 62
     7
100
AcDbCircle
 10
0.0
 20
0.0
 30
0.0
 40
4.0
100
AcDbArc
 50
0.0
 51
90.0
  0
ARC
  5
76
330
6E
100
AcDbEntity
  8
DAXCAD1
 62
     7
100
AcDbCircle
 10
0.0
 20
0.0
 30
0.0
 40
4.0
100
AcDbArc
 50
90.0
 51
180.0
  0
ARC
  5
77
330
6E
100
AcDbEntity
  8
DAXCAD1
 62
     7
100
AcDbCircle
 10
0.0
 20
0.0
 30
0.0
 40
4.0
100
AcDbArc
 50
180.0
 51
270.0
  0
ARC
  5
78
330
6E
100
AcDbEntity
  8
DAXCAD1
 62
     7
100
AcDbCircle
 10
0.0
 20
0.0
 30
0.0
 40
4.0
100
AcDbArc
 50
270.0
 51
0.0
  0
ENDBLK
  5
79
330
6E
100
AcDbEntity
  8
0
100
AcDbBlockEnd
  0
BLOCK
  5
7B
330
7A
100
AcDbEntity
  8
DAXCAD1
 62
     7
100
AcDbBlockBegin
  2
DAXCAD9MARKER
 70
     2
 10
0.0
 20
0.0
 30
0.0
  3
DAXCAD9MARKER
  1

  0
LINE
  5
7C
330
7A
100
AcDbEntity
  8
DAXCAD1
 62
     7
100
AcDbLine
 10
0.0
 20
0.0
 30
0.0
 11
8.0
 21
0.0
 31
0.0
  0
LINE
  5
7D
330
7A
100
AcDbEntity
  8
DAXCAD1
 62
     7
100
AcDbLine
 10
8.0
 20
0.0
 30
0.0
 11
5.0
 21
-2.0
 31
0.0
  0
LINE
  5
7E
330
7A
100
AcDbEntity
  8
DAXCAD1
 62
     7
100
AcDbLine
 10
5.0
 20
-2.0
 30
0.0
 11
5.0
 21
2.0
 31
0.0
  0
LINE
  5
7F
330
7A
100
AcDbEntity
  8
DAXCAD1
 62
     7
100
AcDbLine
 10
5.0
 20
2.0
 30
0.0
 11
8.0
 21
0.0
 31
0.0
  0
ARC
  5
80
330
7A
100
AcDbEntity
  8
DAXCAD1
 62
     7
100
AcDbCircle
 10
0.0
 20
0.0
 30
0.0
 40
4.0
100
AcDbArc
 50
0.0
 51
90.0
  0
ARC
  5
81
330
7A
100
AcDbEntity
  8
DAXCAD1
 62
     7
100
AcDbCircle
 10
0.0
 20
0.0
 30
0.0
 40
4.0
100
AcDbArc
 50
90.0
 51
180.0
  0
ARC
  5
82
330
7A
100
AcDbEntity
  8
DAXCAD1
 62
     7
100
AcDbCircle
 10
0.0
 20
0.0
 30
0.0
 40
4.0
100
AcDbArc
 50
180.0
 51
270.0
  0
ARC
  5
83
330
7A
100
AcDbEntity
  8
DAXCAD1
 62
     7
100
AcDbCircle
 10
0.0
 20
0.0
 30
0.0
 40
4.0
100
AcDbArc
 50
270.0
 51
0.0
  0
ENDBLK
  5
84
330
7A
100
AcDbEntity
  8
0
100
AcDbBlockEnd
  0
BLOCK
  5
86
330
85
100
AcDbEntity
  8
DAXCAD1
 62
     7
100
AcDbBlockBegin
  2
DAXCAD10MARKER
 70
     2
 10
0.0
 20
0.0
 30
0.0
  3
DAXCAD10MARKER
  1

  0
LINE
  5
87
330
85
100
AcDbEntity
  8
DAXCAD1
 62
     7
100
AcDbLine
 10
2.0
 20
0.0
 30
0.0
 11
-6.0
 21
0.0
 31
0.0
  0
LINE
  5
88
330
85
100
AcDbEntity
  8
DAXCAD1
 62
     7
100
AcDbLine
 10
2.0
 20
0.0
 30
0.0
 11
-1.0
 21
2.0
 31
0.0
  0
LINE
  5
89
330
85
100
AcDbEntity
  8
DAXCAD1
 62
     7
100
AcDbLine
 10
-1.0
 20
2.0
 30
0.0
 11
-1.0
 21
-2.0
 31
0.0
  0
LINE
  5
8A
330
85
100
AcDbEntity
  8
DAXCAD1
 62
     7
100
AcDbLine
 10
-1.0
 20
-2.0
 30
0.0
 11
2.0
 21
0.0
 31
0.0
  0
ARC
  5
8B
330
85
100
AcDbEntity
  8
DAXCAD1
 62
     7
100
AcDbCircle
 10
0.0
 20
0.0
 30
0.0
 40
4.0
100
AcDbArc
 50
0.0
 51
90.0
  0
ARC
  5
8C
330
85
100
AcDbEntity
  8
DAXCAD1
 62
     7
100
AcDbCircle
 10
0.0
 20
0.0
 30
0.0
 40
4.0
100
AcDbArc
 50
90.0
 51
180.0
  0
ARC
  5
8D
330
85
100
AcDbEntity
  8
DAXCAD1
 62
     7
100
AcDbCircle
 10
0.0
 20
0.0
 30
0.0
 40
4.0
100
AcDbArc
 50
180.0
 51
270.0
  0
ARC
  5
8E
330
85
100
AcDbEntity
  8
DAXCAD1
 62
     7
100
AcDbCircle
 10
0.0
 20
0.0
 30
0.0
 40
4.0
100
AcDbArc
 50
270.0
 51
0.0
  0
ENDBLK
  5
8F
330
85
100
AcDbEntity
  8
0
100
AcDbBlockEnd
  0
BLOCK
  5
91
330
90
100
AcDbEntity
  8
DAXCAD1
  6
DAXCADSOLID
 62
     1
100
AcDbBlockBegin
  2
*X10
 70
     1
 10
0.0
 20
0.0
 30
0.0
  3
*X10
  1

  0
LINE
  5
92
330
90
100
AcDbEntity
  8
DAXCAD1
  6
DAXCADSOLID
 62
     1
100
AcDbLine
 10
261.324951
 20
114.953041
 30
0.0
 11
261.521088
 21
115.14917
 31
0.0
  0
LINE
  5
93
330
90
100
AcDbEntity
  8
DAXCAD1
  6
DAXCADSOLID
 62
     1
100
AcDbLine
 10
261.324951
 20
114.740906
 30
0.0
 11
261.733215
 21
115.14917
 31
0.0
  0
LINE
  5
94
330
90
100
AcDbEntity
  8
DAXCAD1
  6
DAXCADSOLID
 62
     1
100
AcDbLine
 10
261.324951
 20
114.52877
 30
0.0
 11
261.945343
 21
115.14917
 31
0.0
  0
LINE
  5
95
330
90
100
AcDbEntity
  8
DAXCAD1
  6
DAXCADSOLID
 62
     1
100
AcDbLine
 10
261.324951
 20
114.316643
 30
0.0
 11
262.157471
 21
115.14917
 31
0.0
  0
LINE
  5
96
330
90
100
AcDbEntity
  8
DAXCAD1
  6
DAXCADSOLID
 62
     1
100
AcDbLine
 10
261.369598
 20
114.14917
 30
0.0
 11
262.369598
 21
115.14917
 31
0.0
  0
LINE
  5
97
330
90
100
AcDbEntity
  8
DAXCAD1
  6
DAXCADSOLID
 62
     1
100
AcDbLine
 10
261.581757
 20
114.14917
 30
0.0
 11
262.581757
 21
115.14917
 31
0.0
  0
LINE
  5
98
330
90
100
AcDbEntity
  8
DAXCAD1
  6
DAXCADSOLID
 62
     1
100
AcDbLine
 10
261.793884
 20
114.14917
 30
0.0
 11
262.793884
 21
115.14917
 31
0.0
  0
LINE
  5
99
330
90
100
AcDbEntity
  8
DAXCAD1
  6
DAXCADSOLID
 62
     1
100
AcDbLine
 10
262.006012
 20
114.14917
 30
0.0
 11
263.006012
 21
115.14917
 31
0.0
  0
LINE
  5
9A
330
90
100
AcDbEntity
  8
DAXCAD1
  6
DAXCADSOLID
 62
     1
100
AcDbLine
 10
262.21814
 20
114.14917
 30
0.0
 11
263.21814
 21
115.14917
 31
0.0
  0
LINE
  5
9B
330
90
100
AcDbEntity
  8
DAXCAD1
  6
DAXCADSOLID
 62
     1
100
AcDbLine
 10
262.430267
 20
114.14917
 30
0.0
 11
263.430267
 21
115.14917
 31
0.0
  0
LINE
  5
9C
330
90
100
AcDbEntity
  8
DAXCAD1
  6
DAXCADSOLID
 62
     1
100
AcDbLine
 10
262.642395
 20
114.14917
 30
0.0
 11
263.642395
 21
115.14917
 31
0.0
  0
LINE
  5
9D
330
90
100
AcDbEntity
  8
DAXCAD1
  6
DAXCADSOLID
 62
     1
100
AcDbLine
 10
262.854523
 20
114.14917
 30
0.0
 11
263.854523
 21
115.14917
 31
0.0
  0
LINE
  5
9E
330
90
100
AcDbEntity
  8
DAXCAD1
  6
DAXCADSOLID
 62
     1
100
AcDbLine
 10
263.066681
 20
114.14917
 30
0.0
 11
264.066681
 21
115.14917
 31
0.0
  0
LINE
  5
9F
330
90
100
AcDbEntity
  8
DAXCAD1
  6
DAXCADSOLID
 62
     1
100
AcDbLine
 10
263.278809
 20
114.14917
 30
0.0
 11
264.278809
 21
115.14917
 31
0.0
  0
LINE
  5
A0
330
90
100
AcDbEntity
  8
DAXCAD1
  6
DAXCADSOLID
 62
     1
100
AcDbLine
 10
263.490936
 20
114.14917
 30
0.0
 11
264.490936
 21
115.14917
 31
0.0
  0
LINE
  5
A1
330
90
100
AcDbEntity
  8
DAXCAD1
  6
DAXCADSOLID
 62
     1
100
AcDbLine
 10
263.703064
 20
114.14917
 30
0.0
 11
264.703064
 21
115.14917
 31
0.0
  0
LINE
  5
A2
330
90
100
AcDbEntity
  8
DAXCAD1
  6
DAXCADSOLID
 62
     1
100
AcDbLine
 10
263.915192
 20
114.14917
 30
0.0
 11
264.915192
 21
115.14917
 31
0.0
  0
LINE
  5
A3
330
90
100
AcDbEntity
  8
DAXCAD1
  6
DAXCADSOLID
 62
     1
100
AcDbLine
 10
264.127319
 20
114.14917
 30
0.0
 11
265.127319
 21
115.14917
 31
0.0
  0
LINE
  5
A4
330
90
100
AcDbEntity
  8
DAXCAD1
  6
DAXCADSOLID
 62
     1
100
AcDbLine
 10
264.339447
 20
114.14917
 30
0.0
 11
265.339447
 21
115.14917
 31
0.0
  0
LINE
  5
A5
330
90
100
AcDbEntity
  8
DAXCAD1
  6
DAXCADSOLID
 62
     1
100
AcDbLine
 10
264.551605
 20
114.14917
 30
0.0
 11
265.551605
 21
115.14917
 31
0.0
  0
LINE
  5
A6
330
90
100
AcDbEntity
  8
DAXCAD1
  6
DAXCADSOLID
 62
     1
100
AcDbLine
 10
264.763733
 20
114.14917
 30
0.0
 11
265.763733
 21
115.14917
 31
0.0
  0
LINE
  5
A7
330
90
100
AcDbEntity
  8
DAXCAD1
  6
DAXCADSOLID
 62
     1
100
AcDbLine
 10
264.975861
 20
114.14917
 30
0.0
 11
265.975861
 21
115.14917
 31
0.0
  0
LINE
  5
A8
330
90
100
AcDbEntity
  8
DAXCAD1
  6
DAXCADSOLID
 62
     1
100
AcDbLine
 10
265.187988
 20
114.14917
 30
0.0
 11
266.187988
 21
115.14917
 31
0.0
  0
LINE
  5
A9
330
90
100
AcDbEntity
  8
DAXCAD1
  6
DAXCADSOLID
 62
     1
100
AcDbLine
 10
265.400116
 20
114.14917
 30
0.0
 11
266.400116
 21
115.14917
 31
0.0
  0
LINE
  5
AA
330
90
100
AcDbEntity
  8
DAXCAD1
  6
DAXCADSOLID
 62
     1
100
AcDbLine
 10
265.612244
 20
114.14917
 30
0.0
 11
266.612244
 21
115.14917
 31
0.0
  0
LINE
  5
AB
330
90
100
AcDbEntity
  8
DAXCAD1
  6
DAXCADSOLID
 62
     1
100
AcDbLine
 10
265.824371
 20
114.14917
 30
0.0
 11
266.824371
 21
115.14917
 31
0.0
  0
LINE
  5
AC
330
90
100
AcDbEntity
  8
DAXCAD1
  6
DAXCADSOLID
 62
     1
100
AcDbLine
 10
266.03653
 20
114.14917
 30
0.0
 11
267.03653
 21
115.14917
 31
0.0
  0
LINE
  5
AD
330
90
100
AcDbEntity
  8
DAXCAD1
  6
DAXCADSOLID
 62
     1
100
AcDbLine
 10
266.248657
 20
114.14917
 30
0.0
 11
267.248657
 21
115.14917
 31
0.0
  0
LINE
  5
AE
330
90
100
AcDbEntity
  8
DAXCAD1
  6
DAXCADSOLID
 62
     1
100
AcDbLine
 10
266.460785
 20
114.14917
 30
0.0
 11
267.460785
 21
115.14917
 31
0.0
  0
LINE
  5
AF
330
90
100
AcDbEntity
  8
DAXCAD1
  6
DAXCADSOLID
 62
     1
100
AcDbLine
 10
266.672913
 20
114.14917
 30
0.0
 11
267.672913
 21
115.14917
 31
0.0
  0
LINE
  5
B0
330
90
100
AcDbEntity
  8
DAXCAD1
  6
DAXCADSOLID
 62
     1
100
AcDbLine
 10
266.88504
 20
114.14917
 30
0.0
 11
267.88504
 21
115.14917
 31
0.0
  0
LINE
  5
B1
330
90
100
AcDbEntity
  8
DAXCAD1
  6
DAXCADSOLID
 62
     1
100
AcDbLine
 10
267.097168
 20
114.14917
 30
0.0
 11
268.097168
 21
115.14917
 31
0.0
  0
LINE
  5
B2
330
90
100
AcDbEntity
  8
DAXCAD1
  6
DAXCADSOLID
 62
     1
100
AcDbLine
 10
267.309296
 20
114.14917
 30
0.0
 11
268.309296
 21
115.14917
 31
0.0
  0
LINE
  5
B3
330
90
100
AcDbEntity
  8
DAXCAD1
  6
DAXCADSOLID
 62
     1
100
AcDbLine
 10
267.521454
 20
114.14917
 30
0.0
 11
268.521454
 21
115.14917
 31
0.0
  0
LINE
  5
B4
330
90
100
AcDbEntity
  8
DAXCAD1
  6
DAXCADSOLID
 62
     1
100
AcDbLine
 10
267.733582
 20
114.14917
 30
0.0
 11
268.7335819999999
 21
115.14917
 31
0.0
  0
LINE
  5
B5
330
90
100
AcDbEntity
  8
DAXCAD1
  6
DAXCADSOLID
 62
     1
100
AcDbLine
 10
267.945709
 20
114.14917
 30
0.0
 11
268.945709
 21
115.14917
 31
0.0
  0
LINE
  5
B6
330
90
100
AcDbEntity
  8
DAXCAD1
  6
DAXCADSOLID
 62
     1
100
AcDbLine
 10
268.157837
 20
114.14917
 30
0.0
 11
269.157837
 21
115.14917
 31
0.0
  0
LINE
  5
B7
330
90
100
AcDbEntity
  8
DAXCAD1
  6
DAXCADSOLID
 62
     1
100
AcDbLine
 10
268.369965
 20
114.14917
 30
0.0
 11
269.369965
 21
115.14917
 31
0.0
  0
LINE
  5
B8
330
90
100
AcDbEntity
  8
DAXCAD1
  6
DAXCADSOLID
 62
     1
100
AcDbLine
 10
268.582092
 20
114.14917
 30
0.0
 11
269.582092
 21
115.14917
 31
0.0
  0
LINE
  5
B9
330
90
100
AcDbEntity
  8
DAXCAD1
  6
DAXCADSOLID
 62
     1
100
AcDbLine
 10
268.79422
 20
114.14917
 30
0.0
 11
269.79422
 21
115.14917
 31
0.0
  0
LINE
  5
BA
330
90
100
AcDbEntity
  8
DAXCAD1
  6
DAXCADSOLID
 62
     1
100
AcDbLine
 10
269.006378
 20
114.14917
 30
0.0
 11
270.006378
 21
115.14917
 31
0.0
  0
LINE
  5
BB
330
90
100
AcDbEntity
  8
DAXCAD1
  6
DAXCADSOLID
 62
     1
100
AcDbLine
 10
269.218506
 20
114.14917
 30
0.0
 11
270.218506
 21
115.14917
 31
0.0
  0
LINE
  5
BC
330
90
100
AcDbEntity
  8
DAXCAD1
  6
DAXCADSOLID
 62
     1
100
AcDbLine
 10
269.430634
 20
114.14917
 30
0.0
 11
270.430634
 21
115.14917
 31
0.0
  0
LINE
  5
BD
330
90
100
AcDbEntity
  8
DAXCAD1
  6
DAXCADSOLID
 62
     1
100
AcDbLine
 10
269.642761
 20
114.14917
 30
0.0
 11
270.642761
 21
115.14917
 31
0.0
  0
LINE
  5
BE
330
90
100
AcDbEntity
  8
DAXCAD1
  6
DAXCADSOLID
 62
     1
100
AcDbLine
 10
269.854889
 20
114.14917
 30
0.0
 11
270.854889
 21
115.14917
 31
0.0
  0
LINE
  5
BF
330
90
100
AcDbEntity
  8
DAXCAD1
  6
DAXCADSOLID
 62
     1
100
AcDbLine
 10
270.0670169999999
 20
114.14917
 30
0.0
 11
271.067017
 21
115.14917
 31
0.0
  0
LINE
  5
C0
330
90
100
AcDbEntity
  8
DAXCAD1
  6
DAXCADSOLID
 62
     1
100
AcDbLine
 10
270.279144
 20
114.14917
 30
0.0
 11
271.279144
 21
115.14917
 31
0.0
  0
LINE
  5
C1
330
90
100
AcDbEntity
  8
DAXCAD1
  6
DAXCADSOLID
 62
     1
100
AcDbLine
 10
270.491302
 20
114.14917
 30
0.0
 11
271.491302
 21
115.14917
 31
0.0
  0
LINE
  5
C2
330
90
100
AcDbEntity
  8
DAXCAD1
  6
DAXCADSOLID
 62
     1
100
AcDbLine
 10
270.70343
 20
114.14917
 30
0.0
 11
271.70343
 21
115.14917
 31
0.0
  0
LINE
  5
C3
330
90
100
AcDbEntity
  8
DAXCAD1
  6
DAXCADSOLID
 62
     1
100
AcDbLine
 10
270.915558
 20
114.14917
 30
0.0
 11
271.915558
 21
115.14917
 31
0.0
  0
LINE
  5
C4
330
90
100
AcDbEntity
  8
DAXCAD1
  6
DAXCADSOLID
 62
     1
100
AcDbLine
 10
271.127686
 20
114.14917
 30
0.0
 11
272.127686
 21
115.14917
 31
0.0
  0
LINE
  5
C5
330
90
100
AcDbEntity
  8
DAXCAD1
  6
DAXCADSOLID
 62
     1
100
AcDbLine
 10
271.339813
 20
114.14917
 30
0.0
 11
272.339813
 21
115.14917
 31
0.0
  0
LINE
  5
C6
330
90
100
AcDbEntity
  8
DAXCAD1
  6
DAXCADSOLID
 62
     1
100
AcDbLine
 10
271.551941
 20
114.14917
 30
0.0
 11
272.551941
 21
115.14917
 31
0.0
  0
LINE
  5
C7
330
90
100
AcDbEntity
  8
DAXCAD1
  6
DAXCADSOLID
 62
     1
100
AcDbLine
 10
271.764069
 20
114.14917
 30
0.0
 11
272.764069
 21
115.14917
 31
0.0
  0
LINE
  5
C8
330
90
100
AcDbEntity
  8
DAXCAD1
  6
DAXCADSOLID
 62
     1
100
AcDbLine
 10
271.976227
 20
114.14917
 30
0.0
 11
272.976227
 21
115.14917
 31
0.0
  0
LINE
  5
C9
330
90
100
AcDbEntity
  8
DAXCAD1
  6
DAXCADSOLID
 62
     1
100
AcDbLine
 10
272.188354
 20
114.14917
 30
0.0
 11
273.188354
 21
115.14917
 31
0.0
  0
LINE
  5
CA
330
90
100
AcDbEntity
  8
DAXCAD1
  6
DAXCADSOLID
 62
     1
100
AcDbLine
 10
272.400482
 20
114.14917
 30
0.0
 11
273.400482
 21
115.14917
 31
0.0
  0
LINE
  5
CB
330
90
100
AcDbEntity
  8
DAXCAD1
  6
DAXCADSOLID
 62
     1
100
AcDbLine
 10
272.61261
 20
114.14917
 30
0.0
 11
273.61261
 21
115.14917
 31
0.0
  0
LINE
  5
CC
330
90
100
AcDbEntity
  8
DAXCAD1
  6
DAXCADSOLID
 62
     1
100
AcDbLine
 10
272.8247379999999
 20
114.14917
 30
0.0
 11
273.824738
 21
115.14917
 31
0.0
  0
LINE
  5
CD
330
90
100
AcDbEntity
  8
DAXCAD1
  6
DAXCADSOLID
 62
     1
100
AcDbLine
 10
273.036865
 20
114.14917
 30
0.0
 11
274.036865
 21
115.14917
 31
0.0
  0
LINE
  5
CE
330
90
100
AcDbEntity
  8
DAXCAD1
  6
DAXCADSOLID
 62
     1
100
AcDbLine
 10
273.248993
 20
114.14917
 30
0.0
 11
274.248993
 21
115.14917
 31
0.0
  0
LINE
  5
CF
330
90
100
AcDbEntity
  8
DAXCAD1
  6
DAXCADSOLID
 62
     1
100
AcDbLine
 10
273.461151
 20
114.14917
 30
0.0
 11
274.461151
 21
115.14917
 31
0.0
  0
LINE
  5
D0
330
90
100
AcDbEntity
  8
DAXCAD1
  6
DAXCADSOLID
 62
     1
100
AcDbLine
 10
273.673279
 20
114.14917
 30
0.0
 11
274.673279
 21
115.14917
 31
0.0
  0
LINE
  5
D1
330
90
100
AcDbEntity
  8
DAXCAD1
  6
DAXCADSOLID
 62
     1
100
AcDbLine
 10
273.885406
 20
114.14917
 30
0.0
 11
274.885406
 21
115.14917
 31
0.0
  0
LINE
  5
D2
330
90
100
AcDbEntity
  8
DAXCAD1
  6
DAXCADSOLID
 62
     1
100
AcDbLine
 10
274.097534
 20
114.14917
 30
0.0
 11
275.097534
 21
115.14917
 31
0.0
  0
LINE
  5
D3
330
90
100
AcDbEntity
  8
DAXCAD1
  6
DAXCADSOLID
 62
     1
100
AcDbLine
 10
274.309662
 20
114.14917
 30
0.0
 11
275.309662
 21
115.14917
 31
0.0
  0
LINE
  5
D4
330
90
100
AcDbEntity
  8
DAXCAD1
  6
DAXCADSOLID
 62
     1
100
AcDbLine
 10
274.52179
 20
114.14917
 30
0.0
 11
275.52179
 21
115.14917
 31
0.0
  0
LINE
  5
D5
330
90
100
AcDbEntity
  8
DAXCAD1
  6
DAXCADSOLID
 62
     1
100
AcDbLine
 10
274.733917
 20
114.14917
 30
0.0
 11
275.733917
 21
115.14917
 31
0.0
  0
LINE
  5
D6
330
90
100
AcDbEntity
  8
DAXCAD1
  6
DAXCADSOLID
 62
     1
100
AcDbLine
 10
274.946075
 20
114.14917
 30
0.0
 11
275.946075
 21
115.14917
 31
0.0
  0
LINE
  5
D7
330
90
100
AcDbEntity
  8
DAXCAD1
  6
DAXCADSOLID
 62
     1
100
AcDbLine
 10
275.158203
 20
114.14917
 30
0.0
 11
276.158203
 21
115.14917
 31
0.0
  0
LINE
  5
D8
330
90
100
AcDbEntity
  8
DAXCAD1
  6
DAXCADSOLID
 62
     1
100
AcDbLine
 10
275.370331
 20
114.14917
 30
0.0
 11
276.370331
 21
115.14917
 31
0.0
  0
LINE
  5
D9
330
90
100
AcDbEntity
  8
DAXCAD1
  6
DAXCADSOLID
 62
     1
100
AcDbLine
 10
275.582458
 20
114.14917
 30
0.0
 11
276.582458
 21
115.14917
 31
0.0
  0
LINE
  5
DA
330
90
100
AcDbEntity
  8
DAXCAD1
  6
DAXCADSOLID
 62
     1
100
AcDbLine
 10
275.794586
 20
114.14917
 30
0.0
 11
276.794586
 21
115.14917
 31
0.0
  0
LINE
  5
DB
330
90
100
AcDbEntity
  8
DAXCAD1
  6
DAXCADSOLID
 62
     1
100
AcDbLine
 10
276.006714
 20
114.14917
 30
0.0
 11
277.006714
 21
115.14917
 31
0.0
  0
LINE
  5
DC
330
90
100
AcDbEntity
  8
DAXCAD1
  6
DAXCADSOLID
 62
     1
100
AcDbLine
 10
276.218842
 20
114.14917
 30
0.0
 11
277.218842
 21
115.14917
 31
0.0
  0
LINE
  5
DD
330
90
100
AcDbEntity
  8
DAXCAD1
  6
DAXCADSOLID
 62
     1
100
AcDbLine
 10
276.431
 20
114.14917
 30
0.0
 11
277.431
 21
115.14917
 31
0.0
  0
LINE
  5
DE
330
90
100
AcDbEntity
  8
DAXCAD1
  6
DAXCADSOLID
 62
     1
100
AcDbLine
 10
276.643127
 20
114.14917
 30
0.0
 11
277.643127
 21
115.14917
 31
0.0
  0
LINE
  5
DF
330
90
100
AcDbEntity
  8
DAXCAD1
  6
DAXCADSOLID
 62
     1
100
AcDbLine
 10
276.855255
 20
114.14917
 30
0.0
 11
277.855255
 21
115.14917
 31
0.0
  0
LINE
  5
E0
330
90
100
AcDbEntity
  8
DAXCAD1
  6
DAXCADSOLID
 62
     1
100
AcDbLine
 10
277.067383
 20
114.14917
 30
0.0
 11
278.067383
 21
115.14917
 31
0.0
  0
LINE
  5
E1
330
90
100
AcDbEntity
  8
DAXCAD1
  6
DAXCADSOLID
 62
     1
100
AcDbLine
 10
277.27951
 20
114.14917
 30
0.0
 11
278.27951
 21
115.14917
 31
0.0
  0
LINE
  5
E2
330
90
100
AcDbEntity
  8
DAXCAD1
  6
DAXCADSOLID
 62
     1
100
AcDbLine
 10
277.491638
 20
114.14917
 30
0.0
 11
278.491638
 21
115.14917
 31
0.0
  0
LINE
  5
E3
330
90
100
AcDbEntity
  8
DAXCAD1
  6
DAXCADSOLID
 62
     1
100
AcDbLine
 10
277.703766
 20
114.14917
 30
0.0
 11
278.703766
 21
115.14917
 31
0.0
  0
LINE
  5
E4
330
90
100
AcDbEntity
  8
DAXCAD1
  6
DAXCADSOLID
 62
     1
100
AcDbLine
 10
277.915924
 20
114.14917
 30
0.0
 11
278.915924
 21
115.14917
 31
0.0
  0
LINE
  5
E5
330
90
100
AcDbEntity
  8
DAXCAD1
  6
DAXCADSOLID
 62
     1
100
AcDbLine
 10
278.128052
 20
114.14917
 30
0.0
 11
279.128052
 21
115.14917
 31
0.0
  0
LINE
  5
E6
330
90
100
AcDbEntity
  8
DAXCAD1
  6
DAXCADSOLID
 62
     1
100
AcDbLine
 10
278.340179
 20
114.14917
 30
0.0
 11
279.340179
 21
115.14917
 31
0.0
  0
LINE
  5
E7
330
90
100
AcDbEntity
  8
DAXCAD1
  6
DAXCADSOLID
 62
     1
100
AcDbLine
 10
278.552307
 20
114.14917
 30
0.0
 11
279.552307
 21
115.14917
 31
0.0
  0
LINE
  5
E8
330
90
100
AcDbEntity
  8
DAXCAD1
  6
DAXCADSOLID
 62
     1
100
AcDbLine
 10
278.764435
 20
114.14917
 30
0.0
 11
279.764435
 21
115.14917
 31
0.0
  0
LINE
  5
E9
330
90
100
AcDbEntity
  8
DAXCAD1
  6
DAXCADSOLID
 62
     1
100
AcDbLine
 10
278.976563
 20
114.14917
 30
0.0
 11
279.976563
 21
115.14917
 31
0.0
  0
LINE
  5
EA
330
90
100
AcDbEntity
  8
DAXCAD1
  6
DAXCADSOLID
 62
     1
100
AcDbLine
 10
279.18869
 20
114.14917
 30
0.0
 11
280.18869
 21
115.14917
 31
0.0
  0
LINE
  5
EB
330
90
100
AcDbEntity
  8
DAXCAD1
  6
DAXCADSOLID
 62
     1
100
AcDbLine
 10
279.400848
 20
114.14917
 30
0.0
 11
280.400848
 21
115.14917
 31
0.0
  0
LINE
  5
EC
330
90
100
AcDbEntity
  8
DAXCAD1
  6
DAXCADSOLID
 62
     1
100
AcDbLine
 10
279.612976
 20
114.14917
 30
0.0
 11
280.612976
 21
115.14917
 31
0.0
  0
LINE
  5
ED
330
90
100
AcDbEntity
  8
DAXCAD1
  6
DAXCADSOLID
 62
     1
100
AcDbLine
 10
279.825104
 20
114.14917
 30
0.0
 11
280.825104
 21
115.14917
 31
0.0
  0
LINE
  5
EE
330
90
100
AcDbEntity
  8
DAXCAD1
  6
DAXCADSOLID
 62
     1
100
AcDbLine
 10
280.037231
 20
114.14917
 30
0.0
 11
281.037231
 21
115.14917
 31
0.0
  0
LINE
  5
EF
330
90
100
AcDbEntity
  8
DAXCAD1
  6
DAXCADSOLID
 62
     1
100
AcDbLine
 10
280.249359
 20
114.14917
 30
0.0
 11
281.249359
 21
115.14917
 31
0.0
  0
LINE
  5
F0
330
90
100
AcDbEntity
  8
DAXCAD1
  6
DAXCADSOLID
 62
     1
100
AcDbLine
 10
280.461487
 20
114.14917
 30
0.0
 11
281.461487
 21
115.14917
 31
0.0
  0
LINE
  5
F1
330
90
100
AcDbEntity
  8
DAXCAD1
  6
DAXCADSOLID
 62
     1
100
AcDbLine
 10
280.673615
 20
114.14917
 30
0.0
 11
281.673615
 21
115.14917
 31
0.0
  0
LINE
  5
F2
330
90
100
AcDbEntity
  8
DAXCAD1
  6
DAXCADSOLID
 62
     1
100
AcDbLine
 10
280.885773
 20
114.14917
 30
0.0
 11
281.885773
 21
115.14917
 31
0.0
  0
LINE
  5
F3
330
90
100
AcDbEntity
  8
DAXCAD1
  6
DAXCADSOLID
 62
     1
100
AcDbLine
 10
281.0979
 20
114.14917
 30
0.0
 11
282.0979
 21
115.14917
 31
0.0
  0
LINE
  5
F4
330
90
100
AcDbEntity
  8
DAXCAD1
  6
DAXCADSOLID
 62
     1
100
AcDbLine
 10
281.310028
 20
114.14917
 30
0.0
 11
282.310028
 21
115.14917
 31
0.0
  0
LINE
  5
F5
330
90
100
AcDbEntity
  8
DAXCAD1
  6
DAXCADSOLID
 62
     1
100
AcDbLine
 10
281.522156
 20
114.14917
 30
0.0
 11
282.522156
 21
115.14917
 31
0.0
  0
LINE
  5
F6
330
90
100
AcDbEntity
  8
DAXCAD1
  6
DAXCADSOLID
 62
     1
100
AcDbLine
 10
281.734283
 20
114.14917
 30
0.0
 11
282.734283
 21
115.14917
 31
0.0
  0
LINE
  5
F7
330
90
100
AcDbEntity
  8
DAXCAD1
  6
DAXCADSOLID
 62
     1
100
AcDbLine
 10
281.946411
 20
114.14917
 30
0.0
 11
282.946411
 21
115.14917
 31
0.0
  0
LINE
  5
F8
330
90
100
AcDbEntity
  8
DAXCAD1
  6
DAXCADSOLID
 62
     1
100
AcDbLine
 10
282.158539
 20
114.14917
 30
0.0
 11
283.158539
 21
115.14917
 31
0.0
  0
LINE
  5
F9
330
90
100
AcDbEntity
  8
DAXCAD1
  6
DAXCADSOLID
 62
     1
100
AcDbLine
 10
282.370697
 20
114.14917
 30
0.0
 11
283.370697
 21
115.14917
 31
0.0
  0
LINE
  5
FA
330
90
100
AcDbEntity
  8
DAXCAD1
  6
DAXCADSOLID
 62
     1
100
AcDbLine
 10
282.582825
 20
114.14917
 30
0.0
 11
283.582825
 21
115.14917
 31
0.0
  0
LINE
  5
FB
330
90
100
AcDbEntity
  8
DAXCAD1
  6
DAXCADSOLID
 62
     1
100
AcDbLine
 10
282.794952
 20
114.14917
 30
0.0
 11
283.794952
 21
115.14917
 31
0.0
  0
LINE
  5
FC
330
90
100
AcDbEntity
  8
DAXCAD1
  6
DAXCADSOLID
 62
     1
100
AcDbLine
 10
283.00708
 20
114.14917
 30
0.0
 11
284.00708
 21
115.14917
 31
0.0
  0
LINE
  5
FD
330
90
100
AcDbEntity
  8
DAXCAD1
  6
DAXCADSOLID
 62
     1
100
AcDbLine
 10
283.219208
 20
114.14917
 30
0.0
 11
284.219208
 21
115.14917
 31
0.0
  0
LINE
  5
FE
330
90
100
AcDbEntity
  8
DAXCAD1
  6
DAXCADSOLID
 62
     1
100
AcDbLine
 10
283.431335
 20
114.14917
 30
0.0
 11
284.431335
 21
115.14917
 31
0.0
  0
LINE
  5
FF
330
90
100
AcDbEntity
  8
DAXCAD1
  6
DAXCADSOLID
 62
     1
100
AcDbLine
 10
283.643463
 20
114.14917
 30
0.0
 11
284.643463
 21
115.14917
 31
0.0
  0
LINE
  5
100
330
90
100
AcDbEntity
  8
DAXCAD1
  6
DAXCADSOLID
 62
     1
100
AcDbLine
 10
283.855621
 20
114.14917
 30
0.0
 11
284.855621
 21
115.14917
 31
0.0
  0
LINE
  5
101
330
90
100
AcDbEntity
  8
DAXCAD1
  6
DAXCADSOLID
 62
     1
100
AcDbLine
 10
284.067749
 20
114.14917
 30
0.0
 11
285.0677490000001
 21
115.14917
 31
0.0
  0
LINE
  5
102
330
90
100
AcDbEntity
  8
DAXCAD1
  6
DAXCADSOLID
 62
     1
100
AcDbLine
 10
284.279877
 20
114.14917
 30
0.0
 11
285.279877
 21
115.14917
 31
0.0
  0
LINE
  5
103
330
90
100
AcDbEntity
  8
DAXCAD1
  6
DAXCADSOLID
 62
     1
100
AcDbLine
 10
284.492004
 20
114.14917
 30
0.0
 11
285.492004
 21
115.14917
 31
0.0
  0
LINE
  5
104
330
90
100
AcDbEntity
  8
DAXCAD1
  6
DAXCADSOLID
 62
     1
100
AcDbLine
 10
284.704132
 20
114.14917
 30
0.0
 11
285.704132
 21
115.14917
 31
0.0
  0
LINE
  5
105
330
90
100
AcDbEntity
  8
DAXCAD1
  6
DAXCADSOLID
 62
     1
100
AcDbLine
 10
284.91626
 20
114.14917
 30
0.0
 11
285.91626
 21
115.14917
 31
0.0
  0
LINE
  5
106
330
90
100
AcDbEntity
  8
DAXCAD1
  6
DAXCADSOLID
 62
     1
100
AcDbLine
 10
285.1283870000001
 20
114.14917
 30
0.0
 11
286.128387
 21
115.14917
 31
0.0
  0
LINE
  5
107
330
90
100
AcDbEntity
  8
DAXCAD1
  6
DAXCADSOLID
 62
     1
100
AcDbLine
 10
285.340546
 20
114.14917
 30
0.0
 11
286.340546
 21
115.14917
 31
0.0
  0
LINE
  5
108
330
90
100
AcDbEntity
  8
DAXCAD1
  6
DAXCADSOLID
 62
     1
100
AcDbLine
 10
285.552673
 20
114.14917
 30
0.0
 11
286.552673
 21
115.14917
 31
0.0
  0
LINE
  5
109
330
90
100
AcDbEntity
  8
DAXCAD1
  6
DAXCADSOLID
 62
     1
100
AcDbLine
 10
285.764801
 20
114.14917
 30
0.0
 11
286.764801
 21
115.14917
 31
0.0
  0
LINE
  5
10A
330
90
100
AcDbEntity
  8
DAXCAD1
  6
DAXCADSOLID
 62
     1
100
AcDbLine
 10
285.976929
 20
114.14917
 30
0.0
 11
286.976929
 21
115.14917
 31
0.0
  0
LINE
  5
10B
330
90
100
AcDbEntity
  8
DAXCAD1
  6
DAXCADSOLID
 62
     1
100
AcDbLine
 10
286.189056
 20
114.14917
 30
0.0
 11
287.189056
 21
115.14917
 31
0.0
  0
LINE
  5
10C
330
90
100
AcDbEntity
  8
DAXCAD1
  6
DAXCADSOLID
 62
     1
100
AcDbLine
 10
286.401184
 20
114.14917
 30
0.0
 11
287.401184
 21
115.14917
 31
0.0
  0
LINE
  5
10D
330
90
100
AcDbEntity
  8
DAXCAD1
  6
DAXCADSOLID
 62
     1
100
AcDbLine
 10
286.613312
 20
114.14917
 30
0.0
 11
287.613312
 21
115.14917
 31
0.0
  0
LINE
  5
10E
330
90
100
AcDbEntity
  8
DAXCAD1
  6
DAXCADSOLID
 62
     1
100
AcDbLine
 10
286.82547
 20
114.14917
 30
0.0
 11
287.82547
 21
115.14917
 31
0.0
  0
LINE
  5
10F
330
90
100
AcDbEntity
  8
DAXCAD1
  6
DAXCADSOLID
 62
     1
100
AcDbLine
 10
287.037598
 20
114.14917
 30
0.0
 11
288.037598
 21
115.14917
 31
0.0
  0
LINE
  5
110
330
90
100
AcDbEntity
  8
DAXCAD1
  6
DAXCADSOLID
 62
     1
100
AcDbLine
 10
287.249725
 20
114.14917
 30
0.0
 11
288.249725
 21
115.14917
 31
0.0
  0
LINE
  5
111
330
90
100
AcDbEntity
  8
DAXCAD1
  6
DAXCADSOLID
 62
     1
100
AcDbLine
 10
287.461853
 20
114.14917
 30
0.0
 11
288.461853
 21
115.14917
 31
0.0
  0
LINE
  5
112
330
90
100
AcDbEntity
  8
DAXCAD1
  6
DAXCADSOLID
 62
     1
100
AcDbLine
 10
287.673981
 20
114.14917
 30
0.0
 11
288.673981
 21
115.14917
 31
0.0
  0
LINE
  5
113
330
90
100
AcDbEntity
  8
DAXCAD1
  6
DAXCADSOLID
 62
     1
100
AcDbLine
 10
287.886108
 20
114.14917
 30
0.0
 11
288.886108
 21
115.14917
 31
0.0
  0
LINE
  5
114
330
90
100
AcDbEntity
  8
DAXCAD1
  6
DAXCADSOLID
 62
     1
100
AcDbLine
 10
288.098236
 20
114.14917
 30
0.0
 11
289.098236
 21
115.14917
 31
0.0
  0
LINE
  5
115
330
90
100
AcDbEntity
  8
DAXCAD1
  6
DAXCADSOLID
 62
     1
100
AcDbLine
 10
288.310394
 20
114.14917
 30
0.0
 11
289.3103939999999
 21
115.14917
 31
0.0
  0
LINE
  5
116
330
90
100
AcDbEntity
  8
DAXCAD1
  6
DAXCADSOLID
 62
     1
100
AcDbLine
 10
288.522522
 20
114.14917
 30
0.0
 11
289.522522
 21
115.14917
 31
0.0
  0
LINE
  5
117
330
90
100
AcDbEntity
  8
DAXCAD1
  6
DAXCADSOLID
 62
     1
100
AcDbLine
 10
288.73465
 20
114.14917
 30
0.0
 11
289.73465
 21
115.14917
 31
0.0
  0
LINE
  5
118
330
90
100
AcDbEntity
  8
DAXCAD1
  6
DAXCADSOLID
 62
     1
100
AcDbLine
 10
288.946777
 20
114.14917
 30
0.0
 11
289.946777
 21
115.14917
 31
0.0
  0
LINE
  5
119
330
90
100
AcDbEntity
  8
DAXCAD1
  6
DAXCADSOLID
 62
     1
100
AcDbLine
 10
289.158905
 20
114.14917
 30
0.0
 11
290.158905
 21
115.14917
 31
0.0
  0
LINE
  5
11A
330
90
100
AcDbEntity
  8
DAXCAD1
  6
DAXCADSOLID
 62
     1
100
AcDbLine
 10
289.371033
 20
114.14917
 30
0.0
 11
290.371033
 21
115.14917
 31
0.0
  0
LINE
  5
11B
330
90
100
AcDbEntity
  8
DAXCAD1
  6
DAXCADSOLID
 62
     1
100
AcDbLine
 10
289.58316
 20
114.14917
 30
0.0
 11
290.58316
 21
115.14917
 31
0.0
  0
LINE
  5
11C
330
90
100
AcDbEntity
  8
DAXCAD1
  6
DAXCADSOLID
 62
     1
100
AcDbLine
 10
289.795319
 20
114.14917
 30
0.0
 11
290.795319
 21
115.14917
 31
0.0
  0
LINE
  5
11D
330
90
100
AcDbEntity
  8
DAXCAD1
  6
DAXCADSOLID
 62
     1
100
AcDbLine
 10
290.007446
 20
114.14917
 30
0.0
 11
291.007446
 21
115.14917
 31
0.0
  0
LINE
  5
11E
330
90
100
AcDbEntity
  8
DAXCAD1
  6
DAXCADSOLID
 62
     1
100
AcDbLine
 10
290.219574
 20
114.14917
 30
0.0
 11
291.2195740000001
 21
115.14917
 31
0.0
  0
LINE
  5
11F
330
90
100
AcDbEntity
  8
DAXCAD1
  6
DAXCADSOLID
 62
     1
100
AcDbLine
 10
290.431702
 20
114.14917
 30
0.0
 11
291.431702
 21
115.14917
 31
0.0
  0
LINE
  5
120
330
90
100
AcDbEntity
  8
DAXCAD1
  6
DAXCADSOLID
 62
     1
100
AcDbLine
 10
290.643829
 20
114.14917
 30
0.0
 11
291.643829
 21
115.14917
 31
0.0
  0
LINE
  5
121
330
90
100
AcDbEntity
  8
DAXCAD1
  6
DAXCADSOLID
 62
     1
100
AcDbLine
 10
290.855957
 20
114.14917
 30
0.0
 11
291.855957
 21
115.14917
 31
0.0
  0
LINE
  5
122
330
90
100
AcDbEntity
  8
DAXCAD1
  6
DAXCADSOLID
 62
     1
100
AcDbLine
 10
291.068085
 20
114.14917
 30
0.0
 11
292.068085
 21
115.14917
 31
0.0
  0
LINE
  5
123
330
90
100
AcDbEntity
  8
DAXCAD1
  6
DAXCADSOLID
 62
     1
100
AcDbLine
 10
293.08429
 20
116.165375
 30
0.0
 11
293.120239
 21
116.201302
 31
0.0
  0
LINE
  5
124
330
90
100
AcDbEntity
  8
DAXCAD1
  6
DAXCADSOLID
 62
     1
100
AcDbLine
 10
293.182465
 20
116.051414
 30
0.0
 11
293.286133
 21
116.155067
 31
0.0
  0
LINE
  5
125
330
90
100
AcDbEntity
  8
DAXCAD1
  6
DAXCADSOLID
 62
     1
100
AcDbLine
 10
291.2802430000001
 20
114.14917
 30
0.0
 11
292.280243
 21
115.14917
 31
0.0
  0
LINE
  5
126
330
90
100
AcDbEntity
  8
DAXCAD1
  6
DAXCADSOLID
 62
     1
100
AcDbLine
 10
291.492371
 20
114.14917
 30
0.0
 11
292.492371
 21
115.14917
 31
0.0
  0
LINE
  5
127
330
90
100
AcDbEntity
  8
DAXCAD1
  6
DAXCADSOLID
 62
     1
100
AcDbLine
 10
293.28064
 20
115.937454
 30
0.0
 11
293.452026
 21
116.108833
 31
0.0
  0
LINE
  5
128
330
90
100
AcDbEntity
  8
DAXCAD1
  6
DAXCADSOLID
 62
     1
100
AcDbLine
 10
293.378815
 20
115.823494
 30
0.0
 11
293.61792
 21
116.062607
 31
0.0
  0
LINE
  5
129
330
90
100
AcDbEntity
  8
DAXCAD1
  6
DAXCADSOLID
 62
     1
100
AcDbLine
 10
291.704498
 20
114.14917
 30
0.0
 11
292.704498
 21
115.14917
 31
0.0
  0
LINE
  5
12A
330
90
100
AcDbEntity
  8
DAXCAD1
  6
DAXCADSOLID
 62
     1
100
AcDbLine
 10
291.9166259999999
 20
114.14917
 30
0.0
 11
292.916626
 21
115.14917
 31
0.0
  0
LINE
  5
12B
330
90
100
AcDbEntity
  8
DAXCAD1
  6
DAXCADSOLID
 62
     1
100
AcDbLine
 10
293.47699
 20
115.709534
 30
0.0
 11
293.783813
 21
116.016373
 31
0.0
  0
LINE
  5
12C
330
90
100
AcDbEntity
  8
DAXCAD1
  6
DAXCADSOLID
 62
     1
100
AcDbLine
 10
293.575165
 20
115.595573
 30
0.0
 11
293.949738
 21
115.970139
 31
0.0
  0
LINE
  5
12D
330
90
100
AcDbEntity
  8
DAXCAD1
  6
DAXCADSOLID
 62
     1
100
AcDbLine
 10
292.128754
 20
114.14917
 30
0.0
 11
293.128754
 21
115.14917
 31
0.0
  0
LINE
  5
12E
330
90
100
AcDbEntity
  8
DAXCAD1
  6
DAXCADSOLID
 62
     1
100
AcDbLine
 10
292.340881
 20
114.14917
 30
0.0
 11
293.340881
 21
115.14917
 31
0.0
  0
LINE
  5
12F
330
90
100
AcDbEntity
  8
DAXCAD1
  6
DAXCADSOLID
 62
     1
100
AcDbLine
 10
293.67334
 20
115.481613
 30
0.0
 11
294.115631
 21
115.923904
 31
0.0
  0
LINE
  5
130
330
90
100
AcDbEntity
  8
DAXCAD1
  6
DAXCADSOLID
 62
     1
100
AcDbLine
 10
293.771515
 20
115.367653
 30
0.0
 11
294.281525
 21
115.87767
 31
0.0
  0
LINE
  5
131
330
90
100
AcDbEntity
  8
DAXCAD1
  6
DAXCADSOLID
 62
     1
100
AcDbLine
 10
292.553009
 20
114.14917
 30
0.0
 11
293.553009
 21
115.14917
 31
0.0
  0
LINE
  5
132
330
90
100
AcDbEntity
  8
DAXCAD1
  6
DAXCADSOLID
 62
     1
100
AcDbLine
 10
292.765167
 20
114.14917
 30
0.0
 11
293.765167
 21
115.14917
 31
0.0
  0
LINE
  5
133
330
90
100
AcDbEntity
  8
DAXCAD1
  6
DAXCADSOLID
 62
     1
100
AcDbLine
 10
293.86969
 20
115.253693
 30
0.0
 11
294.447418
 21
115.831436
 31
0.0
  0
LINE
  5
134
330
90
100
AcDbEntity
  8
DAXCAD1
  6
DAXCADSOLID
 62
     1
100
AcDbLine
 10
292.977295
 20
114.14917
 30
0.0
 11
294.613312
 21
115.785202
 31
0.0
  0
LINE
  5
135
330
90
100
AcDbEntity
  8
DAXCAD1
  6
DAXCADSOLID
 62
     1
100
AcDbLine
 10
293.189423
 20
114.14917
 30
0.0
 11
294.779205
 21
115.738968
 31
0.0
  0
LINE
  5
136
330
90
100
AcDbEntity
  8
DAXCAD1
  6
DAXCADSOLID
 62
     1
100
AcDbLine
 10
293.40155
 20
114.14917
 30
0.0
 11
294.945099
 21
115.692734
 31
0.0
  0
LINE
  5
137
330
90
100
AcDbEntity
  8
DAXCAD1
  6
DAXCADSOLID
 62
     1
100
AcDbLine
 10
293.613678
 20
114.14917
 30
0.0
 11
295.111023
 21
115.6465
 31
0.0
  0
LINE
  5
138
330
90
100
AcDbEntity
  8
DAXCAD1
  6
DAXCADSOLID
 62
     1
100
AcDbLine
 10
293.825806
 20
114.14917
 30
0.0
 11
295.276917
 21
115.600266
 31
0.0
  0
LINE
  5
139
330
90
100
AcDbEntity
  8
DAXCAD1
  6
DAXCADSOLID
 62
     1
100
AcDbLine
 10
293.473328
 20
113.584541
 30
0.0
 11
295.44281
 21
115.554031
 31
0.0
  0
LINE
  5
13A
330
90
100
AcDbEntity
  8
DAXCAD1
  6
DAXCADSOLID
 62
     1
100
AcDbLine
 10
293.227966
 20
113.12706
 30
0.0
 11
295.608704
 21
115.507797
 31
0.0
  0
LINE
  5
13B
330
90
100
AcDbEntity
  8
DAXCAD1
  6
DAXCADSOLID
 62
     1
100
AcDbLine
 10
293.522064
 20
113.209023
 30
0.0
 11
295.774597
 21
115.461563
 31
0.0
  0
LINE
  5
13C
330
90
100
AcDbEntity
  8
DAXCAD1
  6
DAXCADSOLID
 62
     1
100
AcDbLine
 10
293.816162
 20
113.290977
 30
0.0
 11
295.940491
 21
115.415329
 31
0.0
  0
LINE
  5
13D
330
90
100
AcDbEntity
  8
DAXCAD1
  6
DAXCADSOLID
 62
     1
100
AcDbLine
 10
294.110229
 20
113.3729399999999
 30
0.0
 11
296.106415
 21
115.369102
 31
0.0
  0
LINE
  5
13E
330
90
100
AcDbEntity
  8
DAXCAD1
  6
DAXCADSOLID
 62
     1
100
AcDbLine
 10
294.404327
 20
113.454895
 30
0.0
 11
296.272308
 21
115.322868
 31
0.0
  0
LINE
  5
13F
330
90
100
AcDbEntity
  8
DAXCAD1
  6
DAXCADSOLID
 62
     1
100
AcDbLine
 10
294.698425
 20
113.536858
 30
0.0
 11
296.438202
 21
115.276634
 31
0.0
  0
LINE
  5
140
330
90
100
AcDbEntity
  8
DAXCAD1
  6
DAXCADSOLID
 62
     1
100
AcDbLine
 10
294.992523
 20
113.618813
 30
0.0
 11
296.604095
 21
115.2304
 31
0.0
  0
LINE
  5
141
330
90
100
AcDbEntity
  8
DAXCAD1
  6
DAXCADSOLID
 62
     1
100
AcDbLine
 10
295.286621
 20
113.700775
 30
0.0
 11
296.769989
 21
115.184166
 31
0.0
  0
LINE
  5
142
330
90
100
AcDbEntity
  8
DAXCAD1
  6
DAXCADSOLID
 62
     1
100
AcDbLine
 10
295.580688
 20
113.782738
 30
0.0
 11
296.935883
 21
115.137932
 31
0.0
  0
LINE
  5
143
330
90
100
AcDbEntity
  8
DAXCAD1
  6
DAXCADSOLID
 62
     1
100
AcDbLine
 10
295.874786
 20
113.864693
 30
0.0
 11
297.101807
 21
115.091698
 31
0.0
  0
LINE
  5
144
330
90
100
AcDbEntity
  8
DAXCAD1
  6
DAXCADSOLID
 62
     1
100
AcDbLine
 10
296.168884
 20
113.946655
 30
0.0
 11
297.2677
 21
115.045464
 31
0.0
  0
LINE
  5
145
330
90
100
AcDbEntity
  8
DAXCAD1
  6
DAXCADSOLID
 62
     1
100
AcDbLine
 10
296.462982
 20
114.02861
 30
0.0
 11
297.4335939999999
 21
114.999229
 31
0.0
  0
LINE
  5
146
330
90
100
AcDbEntity
  8
DAXCAD1
  6
DAXCADSOLID
 62
     1
100
AcDbLine
 10
296.75705
 20
114.110573
 30
0.0
 11
297.599487
 21
114.952995
 31
0.0
  0
LINE
  5
147
330
90
100
AcDbEntity
  8
DAXCAD1
  6
DAXCADSOLID
 62
     1
100
AcDbLine
 10
297.051147
 20
114.192528
 30
0.0
 11
297.765381
 21
114.906761
 31
0.0
  0
LINE
  5
148
330
90
100
AcDbEntity
  8
DAXCAD1
  6
DAXCADSOLID
 62
     1
100
AcDbLine
 10
297.345245
 20
114.27449
 30
0.0
 11
297.9312740000001
 21
114.860527
 31
0.0
  0
LINE
  5
149
330
90
100
AcDbEntity
  8
DAXCAD1
  6
DAXCADSOLID
 62
     1
100
AcDbLine
 10
297.639343
 20
114.356445
 30
0.0
 11
298.097198
 21
114.814293
 31
0.0
  0
LINE
  5
14A
330
90
100
AcDbEntity
  8
DAXCAD1
  6
DAXCADSOLID
 62
     1
100
AcDbLine
 10
297.933441
 20
114.438408
 30
0.0
 11
298.263092
 21
114.768059
 31
0.0
  0
LINE
  5
14B
330
90
100
AcDbEntity
  8
DAXCAD1
  6
DAXCADSOLID
 62
     1
100
AcDbLine
 10
298.227509
 20
114.52037
 30
0.0
 11
298.428986
 21
114.721825
 31
0.0
  0
LINE
  5
14C
330
90
100
AcDbEntity
  8
DAXCAD1
  6
DAXCADSOLID
 62
     1
100
AcDbLine
 10
298.521606
 20
114.602325
 30
0.0
 11
298.594879
 21
114.675598
 31
0.0
  0
ENDBLK
  5
14D
330
90
100
AcDbEntity
  8
DAXCAD1
  6
DAXCADSOLID
 62
     1
100
AcDbBlockEnd
  0
ENDSEC
  0
SECTION
  2
ENTITIES
  0
TEXT
  5
14E
330
22
100
AcDbEntity
  8
DAXCAD1
  6
DAXCADSOLID
 62
     1
100
AcDbText
 10
315.6726680000001
 20
197.940018
 30
0.0
 40
3.5
  1
%%129 130.00
 41
0.75
100
AcDbText
  0
LINE
  5
14F
330
22
100
AcDbEntity
  8
DAXCAD1
  6
DAXCADSOLID
 62
     1
100
AcDbLine
 10
265.172668
 20
196.1900179999999
 30
0.0
 11
265.172668
 21
197.690018
 31
0.0
  0
LINE
  5
150
330
22
100
AcDbEntity
  8
DAXCAD1
  6
DAXCADSOLID
 62
     1
100
AcDbLine
 10
261.172668
 20
196.940018
 30
0.0
 11
265.172668
 21
197.690018
 31
0.0
  0
LINE
  5
151
330
22
100
AcDbEntity
  8
DAXCAD1
  6
DAXCADSOLID
 62
     1
100
AcDbLine
 10
261.172668
 20
196.940018
 30
0.0
 11
265.172668
 21
196.1900179999999
 31
0.0
  0
LINE
  5
152
330
22
100
AcDbEntity
  8
DAXCAD1
  6
DAXCADSOLID
 62
     1
100
AcDbLine
 10
387.172668
 20
197.690018
 30
0.0
 11
387.172668
 21
196.1900179999999
 31
0.0
  0
LINE
  5
153
330
22
100
AcDbEntity
  8
DAXCAD1
  6
DAXCADSOLID
 62
     1
100
AcDbLine
 10
391.1726680000001
 20
196.940018
 30
0.0
 11
387.172668
 21
196.1900179999999
 31
0.0
  0
LINE
  5
154
330
22
100
AcDbEntity
  8
DAXCAD1
  6
DAXCADSOLID
 62
     1
100
AcDbLine
 10
391.1726680000001
 20
196.940018
 30
0.0
 11
387.172668
 21
197.690018
 31
0.0
  0
LINE
  5
155
330
22
100
AcDbEntity
  8
DAXCAD1
  6
DAXCADSOLID
 62
     1
100
AcDbLine
 10
261.172668
 20
196.940018
 30
0.0
 11
326.1726680000001
 21
196.940018
 31
0.0
  0
LINE
  5
156
330
22
100
AcDbEntity
  8
DAXCAD1
  6
DAXCADSOLID
 62
     1
100
AcDbLine
 10
326.1726680000001
 20
196.940018
 30
0.0
 11
391.1726680000001
 21
196.940018
 31
0.0
  0
LINE
  5
157
330
22
100
AcDbEntity
  8
DAXCAD1
  6
DAXCADSOLID
 62
     1
100
AcDbLine
 10
261.172668
 20
76.804749
 30
0.0
 11
261.172668
 21
197.940018
 31
0.0
  0
LINE
  5
158
330
22
100
AcDbEntity
  8
DAXCAD1
  6
DAXCADSOLID
 62
     1
100
AcDbLine
 10
391.1726680000001
 20
76.804749
 30
0.0
 11
391.1726680000001
 21
197.940018
 31
0.0
  0
TEXT
  5
159
330
22
100
AcDbEntity
  8
DAXCAD1
  6
DAXCADSOLID
 62
     1
100
AcDbText
 10
316.9851680000001
 20
182.22229
 30
0.0
 40
3.5
  1
%%129 78.00
 41
0.75
100
AcDbText
  0
LINE
  5
15A
330
22
100
AcDbEntity
  8
DAXCAD1
  6
DAXCADSOLID
 62
     1
100
AcDbLine
 10
291.1726680000001
 20
180.4722899999999
 30
0.0
 11
291.1726680000001
 21
181.97229
 31
0.0
  0
LINE
  5
15B
330
22
100
AcDbEntity
  8
DAXCAD1
  6
DAXCADSOLID
 62
     1
100
AcDbLine
 10
287.172668
 20
181.22229
 30
0.0
 11
291.1726680000001
 21
181.97229
 31
0.0
  0
LINE
  5
15C
330
22
100
AcDbEntity
  8
DAXCAD1
  6
DAXCADSOLID
 62
     1
100
AcDbLine
 10
287.172668
 20
181.22229
 30
0.0
 11
291.1726680000001
 21
180.4722899999999
 31
0.0
  0
LINE
  5
15D
330
22
100
AcDbEntity
  8
DAXCAD1
  6
DAXCADSOLID
 62
     1
100
AcDbLine
 10
361.172668
 20
181.97229
 30
0.0
 11
361.172668
 21
180.4722899999999
 31
0.0
  0
LINE
  5
15E
330
22
100
AcDbEntity
  8
DAXCAD1
  6
DAXCADSOLID
 62
     1
100
AcDbLine
 10
365.172668
 20
181.22229
 30
0.0
 11
361.172668
 21
180.4722899999999
 31
0.0
  0
LINE
  5
15F
330
22
100
AcDbEntity
  8
DAXCAD1
  6
DAXCADSOLID
 62
     1
100
AcDbLine
 10
365.172668
 20
181.22229
 30
0.0
 11
361.172668
 21
181.97229
 31
0.0
  0
LINE
  5
160
330
22
100
AcDbEntity
  8
DAXCAD1
  6
DAXCADSOLID
 62
     1
100
AcDbLine
 10
287.172668
 20
181.22229
 30
0.0
 11
326.1726680000001
 21
181.22229
 31
0.0
  0
LINE
  5
161
330
22
100
AcDbEntity
  8
DAXCAD1
  6
DAXCADSOLID
 62
     1
100
AcDbLine
 10
326.1726680000001
 20
181.22229
 30
0.0
 11
365.172668
 21
181.22229
 31
0.0
  0
LINE
  5
162
330
22
100
AcDbEntity
  8
DAXCAD1
  6
DAXCADSOLID
 62
     1
100
AcDbLine
 10
287.172668
 20
76.804749
 30
0.0
 11
287.172668
 21
182.22229
 31
0.0
  0
LINE
  5
163
330
22
100
AcDbEntity
  8
DAXCAD1
  6
DAXCADSOLID
 62
     1
100
AcDbLine
 10
365.172668
 20
76.804749
 30
0.0
 11
365.172668
 21
182.22229
 31
0.0
  0
TEXT
  5
164
330
22
100
AcDbEntity
  8
DAXCAD1
  6
DAXCADSOLID
 62
     1
100
AcDbText
 10
414.975464
 20
87.17667400000001
 30
0.0
 40
3.5
  1
R 6.35
 41
0.75
100
AcDbText
  0
LINE
  5
165
330
22
100
AcDbEntity
  8
DAXCAD1
  6
DAXCADSOLID
 62
     1
100
AcDbLine
 10
365.603821
 20
91.16513799999999
 30
0.0
 11
366.063171
 21
92.59307099999999
 31
0.0
  0
LINE
  5
166
330
22
100
AcDbEntity
  8
DAXCAD1
  6
DAXCADSOLID
 62
     1
100
AcDbLine
 10
362.025665
 20
93.104042
 30
0.0
 11
366.063171
 21
92.59307099999999
 31
0.0
  0
LINE
  5
167
330
22
100
AcDbEntity
  8
DAXCAD1
  6
DAXCADSOLID
 62
     1
100
AcDbLine
 10
362.025665
 20
93.104042
 30
0.0
 11
365.603821
 21
91.16513799999999
 31
0.0
  0
LINE
  5
168
330
22
100
AcDbEntity
  8
DAXCAD1
  6
DAXCADSOLID
 62
     1
100
AcDbLine
 10
362.025665
 20
93.104042
 30
0.0
 11
375.011353
 21
88.926674
 31
0.0
  0
LINE
  5
169
330
22
100
AcDbEntity
  8
DAXCAD1
  6
DAXCADSOLID
 62
     1
100
AcDbLine
 10
375.011353
 20
88.926674
 30
0.0
 11
413.9754639999999
 21
88.926666
 31
0.0
  0
TEXT
  5
16A
330
22
100
AcDbEntity
  8
DAXCAD1
  6
DAXCADSOLID
 62
     1
100
AcDbText
 10
416.2160949999999
 20
137.123672
 30
0.0
 40
3.5
  1
R 5.00
 41
0.75
100
AcDbText
  0
LINE
  5
16B
330
22
100
AcDbEntity
  8
DAXCAD1
  6
DAXCADSOLID
 62
     1
100
AcDbLine
 10
370.627808
 20
125.03154
 30
0.0
 11
369.143219
 21
125.245941
 31
0.0
  0
LINE
  5
16C
330
22
100
AcDbEntity
  8
DAXCAD1
  6
DAXCADSOLID
 62
     1
100
AcDbLine
 10
369.313782
 20
121.17981
 30
0.0
 11
369.143219
 21
125.245941
 31
0.0
  0
LINE
  5
16D
330
22
100
AcDbEntity
  8
DAXCAD1
  6
DAXCADSOLID
 62
     1
100
AcDbLine
 10
369.313782
 20
121.17981
 30
0.0
 11
370.627808
 21
125.03154
 31
0.0
  0
LINE
  5
16E
330
22
100
AcDbEntity
  8
DAXCAD1
  6
DAXCADSOLID
 62
     1
100
AcDbLine
 10
369.313782
 20
121.17981
 30
0.0
 11
371.869049
 21
138.873672
 31
0.0
  0
LINE
  5
16F
330
22
100
AcDbEntity
  8
DAXCAD1
  6
DAXCADSOLID
 62
     1
100
AcDbLine
 10
371.869049
 20
138.873672
 30
0.0
 11
415.2160949999999
 21
138.873672
 31
0.0
  0
TEXT
  5
170
330
22
100
AcDbEntity
  8
DAXCAD1
  6
DAXCADSOLID
 62
     1
100
AcDbText
 10
410.180664
 20
147.0276639999999
 30
0.0
 40
3.5
  1
R 38.50
 41
0.75
100
AcDbText
  0
LINE
  5
171
330
22
100
AcDbEntity
  8
DAXCAD1
  6
DAXCADSOLID
 62
     1
100
AcDbLine
 10
356.998718
 20
121.994926
 30
0.0
 11
355.64267
 21
121.353752
 31
0.0
  0
LINE
  5
172
330
22
100
AcDbEntity
  8
DAXCAD1
  6
DAXCADSOLID
 62
     1
100
AcDbLine
 10
358.030487
 20
118.058189
 30
0.0
 11
355.64267
 21
121.353752
 31
0.0
  0
LINE
  5
173
330
22
100
AcDbEntity
  8
DAXCAD1
  6
DAXCADSOLID
 62
     1
100
AcDbLine
 10
358.030487
 20
118.058189
 30
0.0
 11
356.998718
 21
121.994926
 31
0.0
  0
LINE
  5
174
330
22
100
AcDbEntity
  8
DAXCAD1
  6
DAXCADSOLID
 62
     1
100
AcDbLine
 10
358.030487
 20
118.058189
 30
0.0
 11
343.505554
 21
148.777664
 31
0.0
  0
LINE
  5
175
330
22
100
AcDbEntity
  8
DAXCAD1
  6
DAXCADSOLID
 62
     1
100
AcDbLine
 10
343.505554
 20
148.777664
 30
0.0
 11
409.180664
 21
148.777649
 31
0.0
  0
TEXT
  5
176
330
22
100
AcDbEntity
  8
DAXCAD1
  6
DAXCADSOLID
 62
     1
100
AcDbText
 10
414.407074
 20
94.722694
 30
0.0
 40
3.5
  1
R 38.50
 41
0.75
100
AcDbText
  0
LINE
  5
177
330
22
100
AcDbEntity
  8
DAXCAD1
  6
DAXCADSOLID
 62
     1
100
AcDbLine
 10
374.29306
 20
104.476891
 30
0.0
 11
374.891479
 21
105.852356
 31
0.0
  0
LINE
  5
178
330
22
100
AcDbEntity
  8
DAXCAD1
  6
DAXCADSOLID
 62
     1
100
AcDbLine
 10
370.924347
 20
106.760384
 30
0.0
 11
374.891479
 21
105.852356
 31
0.0
  0
LINE
  5
179
330
22
100
AcDbEntity
  8
DAXCAD1
  6
DAXCADSOLID
 62
     1
100
AcDbLine
 10
370.924347
 20
106.760384
 30
0.0
 11
374.29306
 21
104.476891
 31
0.0
  0
LINE
  5
17A
330
22
100
AcDbEntity
  8
DAXCAD1
  6
DAXCADSOLID
 62
     1
100
AcDbLine
 10
370.924347
 20
106.760384
 30
0.0
 11
394.571045
 21
96.47269399999998
 31
0.0
  0
LINE
  5
17B
330
22
100
AcDbEntity
  8
DAXCAD1
  6
DAXCADSOLID
 62
     1
100
AcDbLine
 10
394.571045
 20
96.47269399999998
 30
0.0
 11
413.407074
 21
96.47269399999998
 31
0.0
  0
LWPOLYLINE
  5
17C
330
22
100
AcDbEntity
  8
DAXCAD1
  6
DAXCADSOLID
 62
     1
100
AcDbPolyline
 90
        2
 70
     0
 43
0.5
 10
373.5209999999999
 20
115.352
 42
0.6264272213716576
 10
366.243
 20
120.641
  0
LWPOLYLINE
  5
180
330
22
100
AcDbEntity
  8
DAXCAD1
  6
DAXCADSOLID
 62
     1
100
AcDbPolyline
 90
        2
 70
     0
 43
0.5
 10
330.275
 20
136.664
 42
0.521941
 10
322.071
 20
136.664
  0
LWPOLYLINE
  5
184
330
22
100
AcDbEntity
  8
DAXCAD1
  6
DAXCADSOLID
 62
     1
100
AcDbPolyline
 90
        2
 70
     0
 43
0.5
 10
284.625
 20
121.153
 42
0.5219430000000001
 10
278.824
 20
115.352
  0
LINE
  5
188
330
22
100
AcDbEntity
  8
DAXCAD1
  6
DAXCADSOLID
 62
     1
100
AcDbLine
 10
353.652649
 20
119.1492
 30
0.0
 11
353.652649
 21
145.807861
 31
0.0
  0
LWPOLYLINE
  5
189
330
22
100
AcDbEntity
  8
DAXCAD1
  6
DAXCADSOLID
 62
     1
100
AcDbPolyline
 90
        2
 70
     0
 43
0.5
 10
263.314
 20
77.9067
 42
0.521941
 10
263.314
 20
69.70279999999999
  0
LWPOLYLINE
  5
18D
330
22
100
AcDbEntity
  8
DAXCAD1
  6
DAXCADSOLID
 62
     1
100
AcDbPolyline
 90
        2
 70
     0
 43
0.5
 10
278.824
 20
32.2571
 42
0.5219380000000001
 10
284.625
 20
26.4561
  0
LWPOLYLINE
  5
191
330
22
100
AcDbEntity
  8
DAXCAD1
  6
DAXCADSOLID
 62
     1
100
AcDbPolyline
 90
        2
 70
     0
 43
0.5
 10
322.071
 20
10.9456
 42
0.5219390000000001
 10
330.275
 20
10.9456
  0
LWPOLYLINE
  5
195
330
22
100
AcDbEntity
  8
DAXCAD1
  6
DAXCADSOLID
 62
     1
100
AcDbPolyline
 90
        2
 70
     0
 43
0.5
 10
389.032
 20
69.7029
 42
0.5219532415081045
 10
389.032
 20
77.9067
  0
LWPOLYLINE
  5
199
330
22
100
AcDbEntity
  8
DAXCAD1
  6
DAXCADSOLID
 62
     1
100
AcDbPolyline
 90
        2
 70
     0
 43
0.5
 10
367.72
 20
121.153
 42
0.147357
 10
347.911
 20
111.108
  0
LWPOLYLINE
  5
19D
330
22
100
AcDbEntity
  8
DAXCAD1
  6
DAXCADSOLID
 62
     1
100
AcDbPolyline
 90
        2
 70
     0
 43
0.5
 10
363.476
 20
95.54289999999999
 42
0.147358
 10
373.5209999999999
 20
115.352
  0
LWPOLYLINE
  5
1A1
330
22
100
AcDbEntity
  8
DAXCAD1
  6
DAXCADSOLID
 62
     1
100
AcDbPolyline
 90
        2
 70
     0
 43
0.5
 10
322.071
 20
136.664
 42
0.147357
 10
315.166
 20
115.554
  0
LWPOLYLINE
  5
1A5
330
22
100
AcDbEntity
  8
DAXCAD1
  6
DAXCADSOLID
 62
     1
100
AcDbPolyline
 90
        2
 70
     0
 43
0.5
 10
337.179
 20
115.554
 42
0.147357
 10
330.275
 20
136.664
  0
LWPOLYLINE
  5
1A9
330
22
100
AcDbEntity
  8
DAXCAD1
  6
DAXCADSOLID
 62
     1
100
AcDbPolyline
 90
        2
 70
     0
 43
0.5
 10
278.824
 20
115.352
 42
0.147357
 10
288.869
 20
95.54289999999999
  0
LWPOLYLINE
  5
1AD
330
22
100
AcDbEntity
  8
DAXCAD1
  6
DAXCADSOLID
 62
     1
100
AcDbPolyline
 90
        2
 70
     0
 43
0.5
 10
304.435
 20
111.108
 42
0.147357
 10
284.625
 20
121.153
  0
LWPOLYLINE
  5
1B1
330
22
100
AcDbEntity
  8
DAXCAD1
  6
DAXCADSOLID
 62
     1
100
AcDbPolyline
 90
        2
 70
     0
 43
0.5
 10
263.314
 20
69.70279999999999
 42
0.147357
 10
284.424
 20
62.7983
  0
LWPOLYLINE
  5
1B5
330
22
100
AcDbEntity
  8
DAXCAD1
  6
DAXCADSOLID
 62
     1
100
AcDbPolyline
 90
        2
 70
     0
 43
0.5
 10
284.424
 20
84.8112
 42
0.147357
 10
263.314
 20
77.90659999999999
  0
LWPOLYLINE
  5
1B9
330
22
100
AcDbEntity
  8
DAXCAD1
  6
DAXCADSOLID
 62
     1
100
AcDbPolyline
 90
        2
 70
     0
 43
0.5
 10
284.625
 20
26.4561
 42
0.147357
 10
304.435
 20
36.5011
  0
LWPOLYLINE
  5
1BD
330
22
100
AcDbEntity
  8
DAXCAD1
  6
DAXCADSOLID
 62
     1
100
AcDbPolyline
 90
        2
 70
     0
 43
0.5
 10
288.869
 20
52.0666
 42
0.147357
 10
278.824
 20
32.2571
  0
LWPOLYLINE
  5
1C1
330
22
100
AcDbEntity
  8
DAXCAD1
  6
DAXCADSOLID
 62
     1
100
AcDbPolyline
 90
        2
 70
     0
 43
0.5
 10
330.275
 20
10.9457
 42
0.147357
 10
337.179
 20
32.056
  0
LWPOLYLINE
  5
1C5
330
22
100
AcDbEntity
  8
DAXCAD1
  6
DAXCADSOLID
 62
     1
100
AcDbPolyline
 90
        2
 70
     0
 43
0.5
 10
315.166
 20
32.056
 42
0.147357
 10
322.071
 20
10.9456
  0
LWPOLYLINE
  5
1C9
330
22
100
AcDbEntity
  8
DAXCAD1
  6
DAXCADSOLID
 62
     1
100
AcDbPolyline
 90
        2
 70
     0
 43
0.5
 10
373.5209999999999
 20
32.2572
 42
0.147357
 10
363.476
 20
52.0666
  0
LWPOLYLINE
  5
1CD
330
22
100
AcDbEntity
  8
DAXCAD1
  6
DAXCADSOLID
 62
     1
100
AcDbPolyline
 90
        2
 70
     0
 43
0.5
 10
347.911
 20
36.5012
 42
0.147358
 10
367.72
 20
26.4561
  0
LWPOLYLINE
  5
1D1
330
22
100
AcDbEntity
  8
DAXCAD1
  6
DAXCADSOLID
 62
     1
100
AcDbPolyline
 90
        2
 70
     0
 43
0.5
 10
389.032
 20
77.9067
 42
0.147357
 10
367.922
 20
84.8112
  0
LWPOLYLINE
  5
1D5
330
22
100
AcDbEntity
  8
DAXCAD1
  6
DAXCADSOLID
 62
     1
100
AcDbPolyline
 90
        2
 70
     0
 43
0.5
 10
367.921
 20
62.7983
 42
0.147357
 10
389.032
 20
69.70279999999999
  0
LWPOLYLINE
  5
1D9
330
22
100
AcDbEntity
  8
DAXCAD1
  6
DAXCADSOLID
 62
     1
100
AcDbPolyline
 90
        2
 70
     0
 43
0.5
 10
367.72
 20
26.4561
 42
0.5220275042851132
 10
373.5209999999999
 20
32.2571
  0
CIRCLE
  5
1DD
330
22
100
AcDbEntity
  8
DAXCAD1
  6
DAXCADSINGLECENTRE
 62
     1
100
AcDbCircle
 10
326.173
 20
133.805
 30
0.0
 40
33.5
  0
CIRCLE
  5
1DE
330
22
100
AcDbEntity
  8
DAXCAD1
  6
DAXCADSINGLECENTRE
 62
     1
100
AcDbCircle
 10
343.527
 20
115.703
 30
0.0
 40
44.85
  0
CIRCLE
  5
1DF
330
22
100
AcDbEntity
  8
DAXCAD1
  6
DAXCADSINGLECENTRE
 62
     1
100
AcDbCircle
 10
326.173
 20
73.80469999999999
 30
0.0
 40
65.0
  0
CIRCLE
  5
1E0
330
22
100
AcDbEntity
  8
DAXCAD1
  6
DAXCADSINGLECENTRE
 62
     1
100
AcDbCircle
 10
326.173
 20
73.80469999999999
 30
0.0
 40
39.0
  0
LWPOLYLINE
  5
1E1
330
22
100
AcDbEntity
  8
DAXCAD1
  6
DAXCADSOLID
 62
     1
100
AcDbPolyline
 90
        2
 70
     0
 43
0.5
 10
304.435
 20
111.108
 42
0.6513220000000001
 10
315.166
 20
115.554
  0
LWPOLYLINE
  5
1E5
330
22
100
AcDbEntity
  8
DAXCAD1
  6
DAXCADSOLID
 62
     1
100
AcDbPolyline
 90
        2
 70
     0
 43
0.5
 10
284.424
 20
84.8112
 42
0.6513788151613836
 10
288.869
 20
95.54289999999999
  0
LWPOLYLINE
  5
1E9
330
22
100
AcDbEntity
  8
DAXCAD1
  6
DAXCADSOLID
 62
     1
100
AcDbPolyline
 90
        2
 70
     0
 43
0.5
 10
288.869
 20
52.0666
 42
0.6513722262396749
 10
284.424
 20
62.7983
  0
LWPOLYLINE
  5
1ED
330
22
100
AcDbEntity
  8
DAXCAD1
  6
DAXCADSOLID
 62
     1
100
AcDbPolyline
 90
        2
 70
     0
 43
0.5
 10
315.166
 20
32.0559
 42
0.651319
 10
304.435
 20
36.5011
  0
LWPOLYLINE
  5
1F1
330
22
100
AcDbEntity
  8
DAXCAD1
  6
DAXCADSOLID
 62
     1
100
AcDbPolyline
 90
        2
 70
     0
 43
0.5
 10
347.911
 20
36.5011
 42
0.6513200000000001
 10
337.179
 20
32.0559
  0
LWPOLYLINE
  5
1F5
330
22
100
AcDbEntity
  8
DAXCAD1
  6
DAXCADSOLID
 62
     1
100
AcDbPolyline
 90
        2
 70
     0
 43
0.5
 10
367.922
 20
62.7983
 42
0.651315
 10
363.476
 20
52.06669999999999
  0
LWPOLYLINE
  5
1F9
330
22
100
AcDbEntity
  8
DAXCAD1
  6
DAXCADSOLID
 62
     1
100
AcDbPolyline
 90
        2
 70
     0
 43
0.5
 10
363.476
 20
95.54289999999999
 42
0.651324
 10
367.922
 20
84.8112
  0
LWPOLYLINE
  5
1FD
330
22
100
AcDbEntity
  8
DAXCAD1
  6
DAXCADSOLID
 62
     1
100
AcDbPolyline
 90
        2
 70
     0
 43
0.5
 10
337.179
 20
115.554
 42
0.651319
 10
347.911
 20
111.108
  0
LINE
  5
201
330
22
100
AcDbEntity
  8
DAXCAD1
  6
DAXCADSINGLECENTRE
 62
     1
100
AcDbLine
 10
276.67514
 20
24.30732
 30
0.0
 11
375.670166
 21
123.302193
 31
0.0
  0
CIRCLE
  5
202
330
22
100
AcDbEntity
  8
DAXCAD1
  6
DAXCADSINGLECENTRE
 62
     1
100
AcDbCircle
 10
298.69
 20
114.649
 30
0.0
 40
38.5
  0
TEXT
  5
203
330
22
100
AcDbEntity
  8
DAXCAD1
  6
DAXCADSOLID
 62
     1
100
AcDbText
 10
378.256104
 20
172.068954
 30
0.0
 40
3.5
  1
R 33.50
 41
0.751429
100
AcDbText
  0
LINE
  5
204
330
22
100
AcDbEntity
  8
DAXCAD1
  6
DAXCADSOLID
 62
     1
100
AcDbLine
 10
343.110565
 20
167.269974
 30
0.0
 11
341.758942
 21
167.920456
 31
0.0
  0
LINE
  5
205
330
22
100
AcDbEntity
  8
DAXCAD1
  6
DAXCADSOLID
 62
     1
100
AcDbLine
 10
340.700134
 20
163.990906
 30
0.0
 11
341.758942
 21
167.920456
 31
0.0
  0
LINE
  5
206
330
22
100
AcDbEntity
  8
DAXCAD1
  6
DAXCADSOLID
 62
     1
100
AcDbLine
 10
340.700134
 20
163.990906
 30
0.0
 11
343.110565
 21
167.269974
 31
0.0
  0
LINE
  5
207
330
22
100
AcDbEntity
  8
DAXCAD1
  6
DAXCADSOLID
 62
     1
100
AcDbLine
 10
340.700134
 20
163.990906
 30
0.0
 11
345.430023
 21
173.818954
 31
0.0
  0
LINE
  5
208
330
22
100
AcDbEntity
  8
DAXCAD1
  6
DAXCADSOLID
 62
     1
100
AcDbLine
 10
345.430023
 20
173.818954
 30
0.0
 11
377.256104
 21
173.81897
 31
0.0
  0
TEXT
  5
209
330
22
100
AcDbEntity
  8
DAXCAD1
  6
DAXCADSOLID
 62
     1
100
AcDbText
 10
385.611786
 20
160.103058
 30
0.0
 40
3.5
  1
R 44.85
 41
0.751429
100
AcDbText
  0
LINE
  5
20A
330
22
100
AcDbEntity
  8
DAXCAD1
  6
DAXCADSOLID
 62
     1
100
AcDbLine
 10
371.656677
 20
155.647934
 30
0.0
 11
370.417145
 21
156.4926449999999
 31
0.0
  0
LINE
  5
20B
330
22
100
AcDbEntity
  8
DAXCAD1
  6
DAXCADSOLID
 62
     1
100
AcDbLine
 10
368.784332
 20
152.764862
 30
0.0
 11
370.417145
 21
156.4926449999999
 31
0.0
  0
LINE
  5
20C
330
22
100
AcDbEntity
  8
DAXCAD1
  6
DAXCADSOLID
 62
     1
100
AcDbLine
 10
368.784332
 20
152.764862
 30
0.0
 11
371.656677
 21
155.647934
 31
0.0
  0
LINE
  5
20D
330
22
100
AcDbEntity
  8
DAXCAD1
  6
DAXCADSOLID
 62
     1
100
AcDbLine
 10
368.784332
 20
152.764862
 30
0.0
 11
374.977692
 21
161.853058
 31
0.0
  0
LINE
  5
20E
330
22
100
AcDbEntity
  8
DAXCAD1
  6
DAXCADSOLID
 62
     1
100
AcDbLine
 10
374.977692
 20
161.853058
 30
0.0
 11
384.611786
 21
161.853043
 31
0.0
  0
CIRCLE
  5
20F
330
22
100
AcDbEntity
  8
DAXCAD1
  6
DAXCADSOLID
 62
     1
100
AcDbCircle
 10
326.173
 20
133.805
 30
0.0
 40
0.5
  0
CIRCLE
  5
210
330
22
100
AcDbEntity
  8
DAXCAD1
  6
DAXCADSOLID
 62
     1
100
AcDbCircle
 10
343.527
 20
115.703
 30
0.0
 40
0.5
  0
LINE
  5
211
330
22
100
AcDbEntity
  8
DAXCAD1
  6
DAXCADSINGLECENTRE
 62
     1
100
AcDbLine
 10
299.384766
 20
9.133198
 30
0.0
 11
352.960541
 21
138.476288
 31
0.0
  0
LINE
  5
212
330
22
100
AcDbEntity
  8
DAXCAD1
  6
DAXCADSINGLECENTRE
 62
     1
100
AcDbLine
 10
326.172607
 20
3.804751999999999
 30
0.0
 11
326.172729
 21
143.804749
 31
0.0
  0
LINE
  5
213
330
22
100
AcDbEntity
  8
DAXCAD1
  6
DAXCADSINGLECENTRE
 62
     1
100
AcDbLine
 10
352.960449
 20
9.133124
 30
0.0
 11
299.384857
 21
138.476303
 31
0.0
  0
LINE
  5
214
330
22
100
AcDbEntity
  8
DAXCAD1
  6
DAXCADSINGLECENTRE
 62
     1
100
AcDbLine
 10
375.670074
 20
24.307219
 30
0.0
 11
276.675201
 21
123.302238
 31
0.0
  0
LINE
  5
215
330
22
100
AcDbEntity
  8
DAXCAD1
  6
DAXCADSINGLECENTRE
 62
     1
100
AcDbLine
 10
390.844208
 20
47.016853
 30
0.0
 11
261.501099
 21
100.592636
 31
0.0
  0
LINE
  5
216
330
22
100
AcDbEntity
  8
DAXCAD1
  6
DAXCADSINGLECENTRE
 62
     1
100
AcDbLine
 10
396.172638
 20
73.80468
 30
0.0
 11
256.172607
 21
73.804794
 31
0.0
  0
LINE
  5
217
330
22
100
AcDbEntity
  8
DAXCAD1
  6
DAXCADSINGLECENTRE
 62
     1
100
AcDbLine
 10
390.844238
 20
100.592514
 30
0.0
 11
261.501038
 21
47.01696
 31
0.0
  0
LINE
  5
218
330
22
100
AcDbEntity
  8
DAXCAD1
  6
DAXCADSINGLECENTRE
 62
     1
100
AcDbLine
 10
375.670197
 20
123.30217
 30
0.0
 11
276.67514
 21
24.307316
 31
0.0
  0
LINE
  5
219
330
22
100
AcDbEntity
  8
DAXCAD1
  6
DAXCADSINGLECENTRE
 62
     1
100
AcDbLine
 10
352.960571
 20
138.476288
 30
0.0
 11
299.384735
 21
9.133208999999999
 31
0.0
  0
LINE
  5
21A
330
22
100
AcDbEntity
  8
DAXCAD1
  6
DAXCADSINGLECENTRE
 62
     1
100
AcDbLine
 10
326.17276
 20
143.8047639999999
 30
0.0
 11
326.172607
 21
3.804771
 31
0.0
  0
LINE
  5
21B
330
22
100
AcDbEntity
  8
DAXCAD1
  6
DAXCADSINGLECENTRE
 62
     1
100
AcDbLine
 10
299.384888
 20
138.476349
 30
0.0
 11
352.960449
 21
9.133155999999999
 31
0.0
  0
LINE
  5
21C
330
22
100
AcDbEntity
  8
DAXCAD1
  6
DAXCADSINGLECENTRE
 62
     1
100
AcDbLine
 10
276.675232
 20
123.302277
 30
0.0
 11
375.670105
 21
24.307253
 31
0.0
  0
LINE
  5
21D
330
22
100
AcDbEntity
  8
DAXCAD1
  6
DAXCADSINGLECENTRE
 62
     1
100
AcDbLine
 10
261.501129
 20
100.592644
 30
0.0
 11
390.844238
 21
47.016869
 31
0.0
  0
LINE
  5
21E
330
22
100
AcDbEntity
  8
DAXCAD1
  6
DAXCADSINGLECENTRE
 62
     1
100
AcDbLine
 10
256.172668
 20
73.804802
 30
0.0
 11
396.172668
 21
73.804741
 31
0.0
  0
LINE
  5
21F
330
22
100
AcDbEntity
  8
DAXCAD1
  6
DAXCADSINGLECENTRE
 62
     1
100
AcDbLine
 10
261.501099
 20
47.01693699999999
 30
0.0
 11
390.844238
 21
100.59259
 31
0.0
  0
TEXT
  5
220
330
22
100
AcDbEntity
  8
DAXCAD1
  6
DAXCADSINGLECENTRE
 62
     1
100
AcDbText
 10
398.160889
 20
172.070938
 30
0.0
 40
3.5
  1
ON R 5 CENTRE
 41
0.751429
100
AcDbText
  0
TEXT
  5
221
330
22
100
AcDbEntity
  8
DAXCAD1
  6
DAXCADSINGLECENTRE
 62
     1
100
AcDbText
 10
405.815338
 20
159.913818
 30
0.0
 40
3.5
  1
ON 6.35 CENTRE
 41
0.751429
100
AcDbText
  0
LINE
  5
222
330
22
100
AcDbEntity
  8
DAXCAD1
  6
DAXCADSOLID
 62
     7
100
AcDbLine
 10
298.689697
 20
114.64917
 30
0.0
 11
293.032227
 21
116.22583
 31
0.0
  0
LINE
  5
223
330
22
100
AcDbEntity
  8
DAXCAD1
  6
DAXCADSOLID
 62
     7
100
AcDbLine
 10
293.959717
 20
115.14917
 30
0.0
 11
293.032227
 21
116.22583
 31
0.0
  0
LINE
  5
224
330
22
100
AcDbEntity
  8
DAXCAD1
  6
DAXCADSOLID
 62
     7
100
AcDbLine
 10
298.689697
 20
114.64917
 30
0.0
 11
293.032227
 21
113.07251
 31
0.0
  0
LINE
  5
225
330
22
100
AcDbEntity
  8
DAXCAD1
  6
DAXCADSOLID
 62
     7
100
AcDbLine
 10
293.959717
 20
114.14917
 30
0.0
 11
293.032227
 21
113.07251
 31
0.0
  0
LINE
  5
226
330
22
100
AcDbEntity
  8
DAXCAD1
  6
DAXCADSOLID
 62
     7
100
AcDbLine
 10
293.959717
 20
114.14917
 30
0.0
 11
261.324951
 21
114.14917
 31
0.0
  0
LINE
  5
227
330
22
100
AcDbEntity
  8
DAXCAD1
  6
DAXCADSOLID
 62
     7
100
AcDbLine
 10
293.959717
 20
115.14917
 30
0.0
 11
261.324951
 21
115.14917
 31
0.0
  0
LINE
  5
228
330
22
100
AcDbEntity
  8
DAXCAD1
  6
DAXCADSOLID
 62
     1
100
AcDbLine
 10
261.324951
 20
115.14917
 30
0.0
 11
261.324951
 21
114.14917
 31
0.0
  0
LWPOLYLINE
  5
229
330
22
100
AcDbEntity
  8
DAXCAD1
  6
DAXCADSOLID
 62
     1
100
AcDbPolyline
 90
        2
 70
     0
 43
0.5
 10
299.19
 20
114.649
 42
1.0
 10
299.19
 20
114.649
  0
TEXT
  5
22D
330
22
100
AcDbEntity
  8
DAXCAD1
  6
DAXCADSINGLECENTRE
 62
     1
100
AcDbText
 10
193.250381
 20
113.027763
 30
0.0
 40
3.5
  1
R 38.50 FROM INTERSECTION
 41
0.751429
100
AcDbText
  0
INSERT
  5
22E
330
22
100
AcDbEntity
  8
DAXCAD1
  6
DAXCADSOLID
 62
     1
100
AcDbBlockReference
  2
*X10
 10
0.0
 20
0.0
 30
0.0
  0
ENDSEC
  0
SECTION
  2
OBJECTS
  0
DICTIONARY
  5
C
330
0
100
AcDbDictionary
281
     1
  3
ACAD_COLOR
350
1B
  3
ACAD_GROUP
350
D
  3
ACAD_LAYOUT
350
19
  3
ACAD_MATERIAL
350
1A
  3
ACAD_MLINESTYLE
350
16
  3
ACAD_PLOTSETTINGS
350
18
  3
ACAD_PLOTSTYLENAME
350
E
  3
ACAD_TABLESTYLE
350
1C
  3
ACDBHEADERROUNDTRIPXREC
350
23C
  3
AcDbVariableDictionary
350
237
  0
DICTIONARY
  5
1B
102
{ACAD_REACTORS
330
C
102
}
330
C
100
AcDbDictionary
281
     1
  0
DICTIONARY
  5
D
102
{ACAD_REACTORS
330
C
102
}
330
C
100
AcDbDictionary
281
     1
  0
DICTIONARY
  5
19
102
{ACAD_REACTORS
330
C
102
}
330
C
100
AcDbDictionary
281
     1
  3
Layout1
350
21
  3
Model
350
25
  0
DICTIONARY
  5
1A
102
{ACAD_REACTORS
330
C
102
}
330
C
100
AcDbDictionary
281
     1
  0
DICTIONARY
  5
16
102
{ACAD_REACTORS
330
C
102
}
330
C
100
AcDbDictionary
281
     1
  3
Standard
350
17
  0
DICTIONARY
  5
18
102
{ACAD_REACTORS
330
C
102
}
330
C
100
AcDbDictionary
281
     1
  0
ACDBDICTIONARYWDFLT
  5
E
102
{ACAD_REACTORS
330
C
102
}
330
C
100
AcDbDictionary
281
     1
  3
Normal
350
F
100
AcDbDictionaryWithDefault
340
F
  0
DICTIONARY
  5
1C
102
{ACAD_REACTORS
330
C
102
}
330
C
100
AcDbDictionary
281
     1
  3
Standard
350
1D
  0
DICTIONARY
  5
23C
102
{ACAD_REACTORS
330
C
102
}
330
C
100
AcDbDictionary
281
     1
  0
DICTIONARY
  5
237
102
{ACAD_REACTORS
330
C
102
}
330
C
100
AcDbDictionary
281
     1
  3
CTABLESTYLE
350
238
  3
DIMASSOC
350
239
  3
PROJECTNAME
350
23A
  0
LAYOUT
  5
21
102
{ACAD_XDICTIONARY
360
23D
102
}
102
{ACAD_REACTORS
330
19
102
}
330
19
100
AcDbPlotSettings
  1

  2
HP DeskJet 1220C
  4

  6

 40
0.0
 41
0.0
 42
0.0
 43
0.0
 44
0.0
 45
0.0
 46
0.0
 47
0.0
 48
0.0
 49
0.0
140
0.0
141
0.0
142
1.0
143
1.0
 70
   688
 72
     0
 73
     0
 74
     5
  7

 75
    16
147
1.0
148
0.0
149
0.0
100
AcDbLayout
  1
Layout1
 70
     1
 71
     1
 10
0.0
 20
0.0
 11
12.0
 21
9.0
 12
0.0
 22
0.0
 32
0.0
 14
1.000000000000000E+20
 24
1.000000000000000E+20
 34
1.000000000000000E+20
 15
-1.000000000000000E+20
 25
-1.000000000000000E+20
 35
-1.000000000000000E+20
146
0.0
 13
0.0
 23
0.0
 33
0.0
 16
1.0
 26
0.0
 36
0.0
 17
0.0
 27
1.0
 37
0.0
 76
     0
330
1E
  0
LAYOUT
  5
25
102
{ACAD_XDICTIONARY
360
23F
102
}
102
{ACAD_REACTORS
330
19
102
}
330
19
100
AcDbPlotSettings
  1

  2
HP DeskJet 1220C
  4

  6

 40
0.0
 41
0.0
 42
0.0
 43
0.0
 44
0.0
 45
0.0
 46
0.0
 47
0.0
 48
0.0
 49
0.0
140
0.0
141
0.0
142
1.0
143
1.0
 70
  1712
 72
     0
 73
     0
 74
     0
  7

 75
     0
147
1.0
148
0.0
149
0.0
100
AcDbLayout
  1
Model
 70
     1
 71
     0
 10
0.0
 20
0.0
 11
12.0
 21
9.0
 12
0.0
 22
0.0
 32
0.0
 14
0.0
 24
0.0
 34
0.0
 15
0.0
 25
0.0
 35
0.0
146
0.0
 13
0.0
 23
0.0
 33
0.0
 16
1.0
 26
0.0
 36
0.0
 17
0.0
 27
1.0
 37
0.0
 76
     0
330
22
  0
MLINESTYLE
  5
17
102
{ACAD_REACTORS
330
16
102
}
330
16
100
AcDbMlineStyle
  2
STANDARD
 70
     0
  3

 62
   256
 51
90.0
 52
90.0
 71
     2
 49
0.5
 62
   256
  6
BYLAYER
 49
-0.5
 62
   256
  6
BYLAYER
  0
ACDBPLACEHOLDER
  5
F
102
{ACAD_REACTORS
330
E
102
}
330
E
  0
TABLESTYLE
  5
1D
102
{ACAD_REACTORS
330
1C
102
}
330
1C
100
AcDbTableStyle
  3
Standard
 70
     0
 71
     0
 40
0.06
 41
0.06
280
     0
281
     0
  7
Standard
140
0.18
170
     2
 62
     0
 63
     7
283
     0
274
    -2
284
     1
 64
     0
275
    -2
285
     1
 65
     0
276
    -2
286
     1
 66
     0
277
    -2
287
     1
 67
     0
278
    -2
288
     1
 68
     0
279
    -2
289
     1
 69
     0
  7
Standard
140
0.25
170
     5
 62
     0
 63
     7
283
     0
274
    -2
284
     1
 64
     0
275
    -2
285
     1
 65
     0
276
    -2
286
     1
 66
     0
277
    -2
287
     1
 67
     0
278
    -2
288
     1
 68
     0
279
    -2
289
     1
 69
     0
  7
Standard
140
0.18
170
     5
 62
     0
 63
     7
283
     0
274
    -2
284
     1
 64
     0
275
    -2
285
     1
 65
     0
276
    -2
286
     1
 66
     0
277
    -2
287
     1
 67
     0
278
    -2
288
     1
 68
     0
279
    -2
289
     1
 69
     0
  0
DICTIONARYVAR
  5
238
102
{ACAD_REACTORS
330
237
102
}
330
237
100
DictionaryVariables
280
     0
  1
STANDARD
  0
DICTIONARYVAR
  5
239
102
{ACAD_REACTORS
330
237
102
}
330
237
100
DictionaryVariables
280
     0
  1
1
  0
DICTIONARYVAR
  5
23A
102
{ACAD_REACTORS
330
237
102
}
330
237
100
DictionaryVariables
280
     0
  1

  0
DICTIONARY
  5
23D
330
21
100
AcDbDictionary
280
     1
281
     1
  3
ACAD_XREC_ROUNDTRIP
360
23E
  0
DICTIONARY
  5
23F
330
25
100
AcDbDictionary
280
     1
281
     1
  3
ACAD_XREC_ROUNDTRIP
360
240
  0
XRECORD
  5
23E
102
{ACAD_REACTORS
330
23D
102
}
330
23D
100
AcDbXrecord
280
     1
102
SHADEPLOT
 70
     0
102
SHADEPLOTRESLEVEL
 70
     2
102
SHADEPLOTCUSTOMDPI
 70
   300
  0
XRECORD
  5
240
102
{ACAD_REACTORS
330
23F
102
}
330
23F
100
AcDbXrecord
280
     1
102
SHADEPLOT
 70
     0
102
SHADEPLOTRESLEVEL
 70
     2
102
SHADEPLOTCUSTOMDPI
 70
   300
  0
ENDSEC
  0
EOF
