  0
SECTION
  2
HEADER
  9
$LIMMIN
 10
0.00000000
 20
0.00000000
  9
$LIMMAX
 10
1920.00000000
 20
1284.00000000
  9
$EXTMIN
 10
0.00000000
 20
0.00000000
  9
$EXTMAX
 10
1920.00000000
 20
1284.00000000
  9
$LUNITS
 70
4
  0
ENDSEC
  0
SECTION
  2
TABLES
  0
TABLE
  2
LTYPE
 70
5
  0
LTYPE
  2
LARGE
 70
64
  3
___   ___
 72
65
 73
2
 40
20.00000000
 49
10.00000000
 49
-10.00000000
  0
LTYPE
  2
MEDIUM
 70
64
  3
__  __
 72
65
 73
2
 40
10.00000000
 49
5.00000000
 49
-5.00000000
  0
LTYPE
  2
SMALL
 70
64
  3
_ _
 72
65
 73
2
 40
5.00000000
 49
2.00000000
 49
-3.00000000
  0
LTYPE
  2
DASHDOT
 70
64
  3
___ . ___
 72
65
 73
4
 40
21.00000000
 49
15.00000000
 49
-3.00000000
 49
0.00000000
 49
-3.00000000
  0
LTYPE
  2
LONG
 70
64
  3
____ ____
 72
65
 73
2
 40
18.00000000
 49
14.00000000
 49
-4.00000000
  0
ENDTAB
  0
TABLE
  2
LAYER
 70
15
  0
LAYER
  2
LAYER_1
 70
0
 62
1
  6
CONTINUOUS
  0
LAYER
  2
LAYER_2
 70
0
 62
2
  6
CONTINUOUS
  0
LAYER
  2
LAYER_3
 70
0
 62
3
  6
CONTINUOUS
  0
LAYER
  2
LAYER_4
 70
0
 62
4
  6
CONTINUOUS
  0
LAYER
  2
LAYER_5
 70
0
 62
5
  6
CONTINUOUS
  0
LAYER
  2
LAYER_6
 70
0
 62
6
  6
CONTINUOUS
  0
LAYER
  2
LAYER_7
 70
0
 62
7
  6
CONTINUOUS
  0
LAYER
  2
LAYER_8
 70
0
 62
8
  6
CONTINUOUS
  0
LAYER
  2
LAYER_9
 70
0
 62
9
  6
CONTINUOUS
  0
LAYER
  2
LAYER_10
 70
0
 62
10
  6
CONTINUOUS
  0
LAYER
  2
LAYER_11
 70
0
 62
11
  6
CONTINUOUS
  0
LAYER
  2
LAYER_12
 70
0
 62
12
  6
CONTINUOUS
  0
LAYER
  2
LAYER_13
 70
0
 62
13
  6
CONTINUOUS
  0
LAYER
  2
LAYER_14
 70
0
 62
14
  6
CONTINUOUS
  0
LAYER
  2
LAYER_15
 70
0
 62
15
  6
CONTINUOUS
  0
ENDTAB
  0
ENDSEC
  0
SECTION
  2
ENTITIES
  0
TEXT
  1
FRONT SHEATHING 
  7
SPHAND
  8
LAYER_12
 10
463.75000000
 20
176.25000000
 40
8.06549235
 50
0.00000000
  0
TEXT
  1
GARAGE DOOR
  7
SPSIMP
  8
LAYER_12
 10
483.25000000
 20
291.00000000
 40
3.82048149
 50
0.00000000
  0
TEXT
  1
OUTLINE
  7
SPSIMP
  8
LAYER_12
 10
483.25000000
 20
284.00000000
 40
3.82048149
 50
0.00000000
  0
LINE
  8
LAYER_2
  6
MEDIUM
 10
484.37500000
 20
276.75000000
 11
484.37500000
 21
190.50000000
  0
LINE
  8
LAYER_2
  6
MEDIUM
 10
582.87500000
 20
276.75000000
 11
582.87500000
 21
190.50000000
  0
LINE
  8
LAYER_2
  6
MEDIUM
 10
604.25000000
 20
276.75000000
 11
604.25000000
 21
190.50000000
  0
LINE
  8
LAYER_2
  6
MEDIUM
 10
702.75000000
 20
276.75000000
 11
702.75000000
 21
190.50000000
  0
LINE
  8
LAYER_2
  6
MEDIUM
 10
726.00000000
 20
276.75000000
 11
726.00000000
 21
190.50000000
  0
LINE
  8
LAYER_2
  6
MEDIUM
 10
824.50000000
 20
276.75000000
 11
824.50000000
 21
190.50000000
  0
LINE
  8
LAYER_2
 10
461.50000000
 20
301.50000000
 11
845.50000000
 21
301.50000000
  0
LINE
  8
LAYER_2
  6
SMALL
 10
462.00000000
 20
301.50000000
 11
462.00000000
 21
190.50000000
  0
LINE
  8
LAYER_2
  6
SMALL
 10
845.00000000
 20
301.50000000
 11
845.00000000
 21
190.50000000
  0
LINE
  8
LAYER_2
 10
461.50000000
 20
190.50000000
 11
491.75000000
 21
190.50000000
  0
LINE
  8
LAYER_2
 10
461.50000000
 20
301.50000000
 11
461.50000000
 21
190.50000000
  0
LINE
  8
LAYER_2
 10
845.50000000
 20
301.50000000
 11
845.50000000
 21
190.50000000
  0
LINE
  8
LAYER_2
  6
MEDIUM
 10
484.37500000
 20
276.75000000
 11
582.87500000
 21
276.75000000
  0
LINE
  8
LAYER_2
  6
MEDIUM
 10
604.25000000
 20
276.75000000
 11
702.75000000
 21
276.75000000
  0
LINE
  8
LAYER_2
  6
MEDIUM
 10
726.00000000
 20
276.75000000
 11
824.50000000
 21
276.75000000
  0
LINE
  8
LAYER_2
 10
461.50000000
 20
205.62500000
 11
484.37500000
 21
205.62500000
  0
LINE
  8
LAYER_2
 10
824.50000000
 20
205.62500000
 11
845.50000000
 21
205.62500000
  0
LINE
  8
LAYER_2
 10
702.75000000
 20
205.62500000
 11
726.00000000
 21
205.62500000
  0
LINE
  8
LAYER_2
 10
582.87500000
 20
205.62500000
 11
604.25000000
 21
205.62500000
  0
LINE
  8
LAYER_2
 10
461.50000000
 20
253.62500000
 11
845.50000000
 21
253.62500000
  0
LINE
  8
LAYER_2
 10
557.50000000
 20
301.50000000
 11
557.50000000
 21
253.62500000
  0
LINE
  8
LAYER_2
 10
653.50000000
 20
301.50000000
 11
653.50000000
 21
253.62500000
  0
LINE
  8
LAYER_2
 10
749.50000000
 20
301.50000000
 11
749.50000000
 21
253.62500000
  0
LINE
  8
LAYER_2
 10
484.37500000
 20
205.50000000
 11
491.62500000
 21
205.50000000
  0
LINE
  8
LAYER_2
 10
491.62500000
 20
253.62500000
 11
491.62500000
 21
190.50000000
  0
LINE
  8
LAYER_2
 10
572.87500000
 20
253.62500000
 11
572.87500000
 21
190.50000000
  0
LINE
  8
LAYER_2
 10
572.87500000
 20
205.62500000
 11
613.62500000
 21
205.62500000
  0
LINE
  8
LAYER_2
 10
613.62500000
 20
253.62500000
 11
613.62500000
 21
190.50000000
  0
LINE
  8
LAYER_2
 10
695.87500000
 20
253.62500000
 11
695.87500000
 21
190.50000000
  0
LINE
  8
LAYER_2
 10
695.87500000
 20
205.62500000
 11
732.62500000
 21
205.62500000
  0
LINE
  8
LAYER_2
 10
732.62500000
 20
253.62500000
 11
732.62500000
 21
190.50000000
  0
LINE
  8
LAYER_2
 10
817.87500000
 20
205.75000000
 11
824.50000000
 21
205.75000000
  0
LINE
  8
LAYER_2
 10
817.87500000
 20
253.62500000
 11
817.87500000
 21
190.50000000
  0
LINE
  8
LAYER_2
 10
817.87500000
 20
190.50000000
 11
845.50000000
 21
190.50000000
  0
LINE
  8
LAYER_2
 10
696.00000000
 20
190.50000000
 11
732.62500000
 21
190.50000000
  0
LINE
  8
LAYER_2
 10
696.00000000
 20
190.62500000
 11
696.12500000
 21
190.50000000
  0
LINE
  8
LAYER_2
 10
572.87500000
 20
190.50000000
 11
613.75000000
 21
190.50000000
  0
LINE
  8
LAYER_2
 10
572.87500000
 20
190.87500000
 11
573.12500000
 21
190.62500000
  0
LINE
  8
LAYER_4
 10
528.50000000
 20
291.82381890
 11
527.87500000
 21
291.75000000
  0
LINE
  8
LAYER_4
 10
527.87500000
 20
291.75000000
 11
536.87500000
 21
276.75000000
  0
LINE
  8
LAYER_4
 10
533.63582677
 20
280.05413386
 11
536.87500000
 21
276.75000000
  0
LINE
  8
LAYER_4
 10
535.48375984
 20
281.16289370
 11
536.87500000
 21
276.75000000
  0
ENDSEC
  0
EOF
