  0
SECTION
  2
HEADER
  9
$LIMMIN
 10
0.00000000
 20
0.00000000
  9
$LIMMAX
 10
1920.00000000
 20
1284.00000000
  9
$EXTMIN
 10
0.00000000
 20
0.00000000
  9
$EXTMAX
 10
1920.00000000
 20
1284.00000000
  9
$LUNITS
 70
4
  0
ENDSEC
  0
SECTION
  2
TABLES
  0
TABLE
  2
LTYPE
 70
5
  0
LTYPE
  2
LARGE
 70
64
  3
___   ___
 72
65
 73
2
 40
20.00000000
 49
10.00000000
 49
-10.00000000
  0
LTYPE
  2
MEDIUM
 70
64
  3
__  __
 72
65
 73
2
 40
10.00000000
 49
5.00000000
 49
-5.00000000
  0
LTYPE
  2
SMALL
 70
64
  3
_ _
 72
65
 73
2
 40
5.00000000
 49
2.00000000
 49
-3.00000000
  0
LTYPE
  2
DASHDOT
 70
64
  3
___ . ___
 72
65
 73
4
 40
21.00000000
 49
15.00000000
 49
-3.00000000
 49
0.00000000
 49
-3.00000000
  0
LTYPE
  2
LONG
 70
64
  3
____ ____
 72
65
 73
2
 40
18.00000000
 49
14.00000000
 49
-4.00000000
  0
ENDTAB
  0
TABLE
  2
LAYER
 70
15
  0
LAYER
  2
LAYER_1
 70
0
 62
1
  6
CONTINUOUS
  0
LAYER
  2
LAYER_2
 70
0
 62
2
  6
CONTINUOUS
  0
LAYER
  2
LAYER_3
 70
0
 62
3
  6
CONTINUOUS
  0
LAYER
  2
LAYER_4
 70
0
 62
4
  6
CONTINUOUS
  0
LAYER
  2
LAYER_5
 70
0
 62
5
  6
CONTINUOUS
  0
LAYER
  2
LAYER_6
 70
0
 62
6
  6
CONTINUOUS
  0
LAYER
  2
LAYER_7
 70
0
 62
7
  6
CONTINUOUS
  0
LAYER
  2
LAYER_8
 70
0
 62
8
  6
CONTINUOUS
  0
LAYER
  2
LAYER_9
 70
0
 62
9
  6
CONTINUOUS
  0
LAYER
  2
LAYER_10
 70
0
 62
10
  6
CONTINUOUS
  0
LAYER
  2
LAYER_11
 70
0
 62
11
  6
CONTINUOUS
  0
LAYER
  2
LAYER_12
 70
0
 62
12
  6
CONTINUOUS
  0
LAYER
  2
LAYER_13
 70
0
 62
13
  6
CONTINUOUS
  0
LAYER
  2
LAYER_14
 70
0
 62
14
  6
CONTINUOUS
  0
LAYER
  2
LAYER_15
 70
0
 62
15
  6
CONTINUOUS
  0
ENDTAB
  0
ENDSEC
  0
SECTION
  2
ENTITIES
  0
LINE
  8
LAYER_3
 10
552.62500000
 20
25.12500000
 11
534.50000000
 21
25.12500000
  0
LINE
  8
LAYER_3
 10
556.62500000
 20
22.62500000
 11
556.62500000
 21
3.00000000
  0
LINE
  8
LAYER_3
 10
571.00000000
 20
22.62500000
 11
571.00000000
 21
3.00000000
  0
LINE
  8
LAYER_3
 10
674.00000000
 20
22.62500000
 11
674.00000000
 21
3.00000000
  0
LINE
  8
LAYER_3
 10
684.62500000
 20
22.62500000
 11
684.62500000
 21
3.00000000
  0
LINE
  8
LAYER_3
 10
690.87500000
 20
22.62500000
 11
690.87500000
 21
3.00000000
  0
LINE
  8
LAYER_3
 10
793.87500000
 20
22.62500000
 11
793.87500000
 21
3.00000000
  0
LINE
  8
LAYER_3
 10
812.62500000
 20
22.62500000
 11
812.62500000
 21
3.00000000
  0
LINE
  8
LAYER_3
 10
915.62500000
 20
22.62500000
 11
915.62500000
 21
3.00000000
  0
LINE
  8
LAYER_3
 10
924.62500000
 20
22.62500000
 11
924.62500000
 21
3.00000000
  0
LINE
  8
LAYER_3
 10
932.62500000
 20
22.62500000
 11
932.62500000
 21
3.00000000
  0
LINE
  8
LAYER_3
 10
568.50000000
 20
111.37500000
 11
566.12500000
 21
111.37500000
  0
LINE
  8
LAYER_3
 10
549.12500000
 20
125.62500000
 11
534.50000000
 21
125.62500000
  0
TEXT
  1
FRONT 2X4 WALL
  7
SPHAND
  8
LAYER_4
 10
556.62500000
 20
-8.37500000
 40
8.06549235
 50
0.00000000
  0
TEXT
  1
2-2x12 LINTEL
  7
SPSIMP
  8
LAYER_12
 10
603.12500000
 20
107.62500000
 40
3.82048149
 50
0.00000000
  0
TEXT
  1
2-2x12 LINTEL
  7
SPSIMP
  8
LAYER_12
 10
726.25000000
 20
106.50000000
 40
3.82048149
 50
0.00000000
  0
TEXT
  1
2-2x12 LINTEL
  7
SPSIMP
  8
LAYER_12
 10
849.37500000
 20
107.00000000
 40
3.82048149
 50
0.00000000
  0
TEXT
  1
2-2x8
  7
SPSIMP
  8
LAYER_12
 10
611.25000000
 20
221.06250000
 40
2.54689338
 50
0.00000000
  0
TEXT
  1
2-2x8
  7
SPSIMP
  8
LAYER_12
 10
730.87500000
 20
221.06250000
 40
2.54689338
 50
0.00000000
  0
TEXT
  1
2-2x8
  7
SPSIMP
  8
LAYER_12
 10
850.50000000
 20
221.06250000
 40
2.54689338
 50
0.00000000
  0
LINE
  8
LAYER_2
 10
553.12500000
 20
125.62500000
 11
936.12500000
 21
125.62500000
  0
LINE
  8
LAYER_2
 10
936.12500000
 20
125.62500000
 11
936.12500000
 21
124.12500000
  0
LINE
  8
LAYER_2
 10
553.12500000
 20
124.12500000
 11
936.12500000
 21
124.12500000
  0
LINE
  8
LAYER_2
 10
553.12500000
 20
125.62500000
 11
553.12500000
 21
124.12500000
  0
LINE
  8
LAYER_2
 10
556.62500000
 20
124.12500000
 11
932.62500000
 21
124.12500000
  0
LINE
  8
LAYER_2
 10
932.62500000
 20
124.12500000
 11
932.62500000
 21
122.62500000
  0
LINE
  8
LAYER_2
 10
556.62500000
 20
122.62500000
 11
932.62500000
 21
122.62500000
  0
LINE
  8
LAYER_2
 10
556.62500000
 20
124.12500000
 11
556.62500000
 21
122.62500000
  0
LINE
  8
LAYER_2
 10
556.62500000
 20
26.62500000
 11
932.62500000
 21
26.62500000
  0
LINE
  8
LAYER_2
 10
932.62500000
 20
26.62500000
 11
932.62500000
 21
25.12500000
  0
LINE
  8
LAYER_2
 10
556.62500000
 20
25.12500000
 11
932.62500000
 21
25.12500000
  0
LINE
  8
LAYER_2
 10
556.62500000
 20
26.62500000
 11
556.62500000
 21
25.12500000
  0
LINE
  8
LAYER_2
 10
572.50000000
 20
122.62500000
 11
677.00000000
 21
122.62500000
  0
LINE
  8
LAYER_2
 10
677.00000000
 20
122.62500000
 11
677.00000000
 21
111.37500000
  0
LINE
  8
LAYER_2
 10
572.50000000
 20
111.37500000
 11
677.00000000
 21
111.37500000
  0
LINE
  8
LAYER_2
 10
572.50000000
 20
122.62500000
 11
572.50000000
 21
111.37500000
  0
LINE
  8
LAYER_2
 10
692.37500000
 20
122.62500000
 11
796.87500000
 21
122.62500000
  0
LINE
  8
LAYER_2
 10
796.87500000
 20
122.62500000
 11
796.87500000
 21
111.37500000
  0
LINE
  8
LAYER_2
 10
692.37500000
 20
111.37500000
 11
796.87500000
 21
111.37500000
  0
LINE
  8
LAYER_2
 10
692.37500000
 20
122.62500000
 11
692.37500000
 21
111.37500000
  0
LINE
  8
LAYER_2
 10
814.12500000
 20
122.62500000
 11
918.62500000
 21
122.62500000
  0
LINE
  8
LAYER_2
 10
918.62500000
 20
122.62500000
 11
918.62500000
 21
111.37500000
  0
LINE
  8
LAYER_2
 10
814.12500000
 20
111.37500000
 11
918.62500000
 21
111.37500000
  0
LINE
  8
LAYER_2
 10
814.12500000
 20
122.62500000
 11
814.12500000
 21
111.37500000
  0
LINE
  8
LAYER_2
 10
556.62500000
 20
122.62500000
 11
556.62500000
 21
26.62500000
  0
LINE
  8
LAYER_2
 10
558.12500000
 20
122.62500000
 11
558.12500000
 21
26.62500000
  0
LINE
  8
LAYER_2
 10
556.62500000
 20
122.62500000
 11
558.12500000
 21
122.62500000
  0
LINE
  8
LAYER_2
 10
556.62500000
 20
26.62500000
 11
558.12500000
 21
26.62500000
  0
LINE
  8
LAYER_2
 10
572.50000000
 20
122.62500000
 11
572.50000000
 21
26.62500000
  0
LINE
  8
LAYER_2
 10
574.00000000
 20
111.37500000
 11
574.00000000
 21
26.62500000
  0
LINE
  8
LAYER_2
 10
572.50000000
 20
122.62500000
 11
574.00000000
 21
122.62500000
  0
LINE
  8
LAYER_2
 10
572.50000000
 20
26.62500000
 11
575.50000000
 21
26.62500000
  0
LINE
  8
LAYER_2
 10
575.50000000
 20
111.37500000
 11
575.50000000
 21
26.62500000
  0
LINE
  8
LAYER_2
 10
574.00000000
 20
111.37500000
 11
575.50000000
 21
111.37500000
  0
LINE
  8
LAYER_2
 10
675.50000000
 20
111.37500000
 11
675.50000000
 21
26.62500000
  0
LINE
  8
LAYER_2
 10
677.00000000
 20
122.62500000
 11
677.00000000
 21
26.62500000
  0
LINE
  8
LAYER_2
 10
674.00000000
 20
111.37500000
 11
674.00000000
 21
26.62500000
  0
LINE
  8
LAYER_2
 10
674.00000000
 20
111.37500000
 11
675.50000000
 21
111.37500000
  0
LINE
  8
LAYER_2
 10
674.00000000
 20
26.62500000
 11
677.00000000
 21
26.62500000
  0
LINE
  8
LAYER_2
 10
684.62500000
 20
122.62500000
 11
684.62500000
 21
26.62500000
  0
LINE
  8
LAYER_2
 10
686.12500000
 20
122.62500000
 11
686.12500000
 21
26.62500000
  0
LINE
  8
LAYER_2
 10
684.62500000
 20
26.62500000
 11
686.12500000
 21
26.62500000
  0
LINE
  8
LAYER_2
 10
692.37500000
 20
122.62500000
 11
692.37500000
 21
26.62500000
  0
LINE
  8
LAYER_2
 10
693.87500000
 20
111.37500000
 11
693.87500000
 21
26.62500000
  0
LINE
  8
LAYER_2
 10
692.37500000
 20
26.62500000
 11
695.37500000
 21
26.62500000
  0
LINE
  8
LAYER_2
 10
695.37500000
 20
111.37500000
 11
695.37500000
 21
26.62500000
  0
LINE
  8
LAYER_2
 10
693.87500000
 20
111.37500000
 11
695.37500000
 21
111.37500000
  0
LINE
  8
LAYER_2
 10
796.87500000
 20
122.62500000
 11
796.87500000
 21
26.62500000
  0
LINE
  8
LAYER_2
 10
798.37500000
 20
122.62500000
 11
798.37500000
 21
26.62500000
  0
LINE
  8
LAYER_2
 10
795.37500000
 20
111.37500000
 11
795.37500000
 21
26.62500000
  0
LINE
  8
LAYER_2
 10
793.87500000
 20
111.37500000
 11
793.87500000
 21
26.62500000
  0
LINE
  8
LAYER_2
 10
793.87500000
 20
111.37500000
 11
795.37500000
 21
111.37500000
  0
LINE
  8
LAYER_2
 10
793.87500000
 20
26.62500000
 11
798.37500000
 21
26.62500000
  0
LINE
  8
LAYER_2
 10
812.62500000
 20
122.62500000
 11
812.62500000
 21
26.62500000
  0
LINE
  8
LAYER_2
 10
814.12500000
 20
111.50000000
 11
814.12500000
 21
26.62500000
  0
LINE
  8
LAYER_2
 10
812.62500000
 20
122.62500000
 11
814.12500000
 21
122.62500000
  0
LINE
  8
LAYER_2
 10
812.62500000
 20
26.62500000
 11
817.12500000
 21
26.62500000
  0
LINE
  8
LAYER_2
 10
817.12500000
 20
111.37500000
 11
817.12500000
 21
26.62500000
  0
LINE
  8
LAYER_2
 10
815.62500000
 20
111.37500000
 11
817.12500000
 21
111.37500000
  0
LINE
  8
LAYER_2
 10
815.62500000
 20
111.37500000
 11
815.62500000
 21
26.62500000
  0
LINE
  8
LAYER_2
 10
917.12500000
 20
111.37500000
 11
917.12500000
 21
26.62500000
  0
LINE
  8
LAYER_2
 10
918.62500000
 20
111.37500000
 11
918.62500000
 21
26.62500000
  0
LINE
  8
LAYER_2
 10
915.62500000
 20
111.37500000
 11
915.62500000
 21
26.62500000
  0
LINE
  8
LAYER_2
 10
915.62500000
 20
111.37500000
 11
917.12500000
 21
111.37500000
  0
LINE
  8
LAYER_2
 10
915.62500000
 20
26.62500000
 11
918.62500000
 21
26.62500000
  0
LINE
  8
LAYER_2
 10
924.62500000
 20
122.62500000
 11
924.62500000
 21
26.62500000
  0
LINE
  8
LAYER_2
 10
926.12500000
 20
122.62500000
 11
926.12500000
 21
26.62500000
  0
LINE
  8
LAYER_2
 10
924.62500000
 20
122.62500000
 11
926.12500000
 21
122.62500000
  0
LINE
  8
LAYER_2
 10
924.62500000
 20
26.62500000
 11
926.12500000
 21
26.62500000
  0
LINE
  8
LAYER_2
 10
931.12500000
 20
122.62500000
 11
931.12500000
 21
26.62500000
  0
LINE
  8
LAYER_2
 10
932.62500000
 20
124.12500000
 11
932.62500000
 21
26.62500000
  0
LINE
  8
LAYER_2
 10
931.12500000
 20
122.62500000
 11
932.62500000
 21
122.62500000
  0
LINE
  8
LAYER_2
 10
931.12500000
 20
26.62500000
 11
932.62500000
 21
26.62500000
  0
LINE
  8
LAYER_2
 10
920.12500000
 20
122.62500000
 11
920.12500000
 21
26.62500000
  0
LINE
  8
LAYER_2
 10
690.87500000
 20
122.62500000
 11
690.87500000
 21
26.62500000
  0
LINE
  8
LAYER_2
 10
678.50000000
 20
122.62500000
 11
678.50000000
 21
26.62500000
  0
LINE
  8
LAYER_2
 10
571.00000000
 20
122.62500000
 11
571.00000000
 21
26.62500000
  0
LINE
  8
LAYER_2
  6
SMALL
 10
575.50000000
 20
26.62500000
 11
575.50000000
 21
25.12500000
  0
LINE
  8
LAYER_2
  6
SMALL
 10
674.00000000
 20
26.62500000
 11
674.00000000
 21
25.12500000
  0
LINE
  8
LAYER_2
  6
SMALL
 10
695.37500000
 20
26.62500000
 11
695.37500000
 21
25.12500000
  0
LINE
  8
LAYER_2
  6
SMALL
 10
793.87500000
 20
26.62500000
 11
793.87500000
 21
25.12500000
  0
LINE
  8
LAYER_2
  6
SMALL
 10
817.12500000
 20
26.62500000
 11
817.12500000
 21
25.12500000
  0
LINE
  8
LAYER_2
  6
SMALL
 10
915.62500000
 20
26.62500000
 11
915.62500000
 21
25.12500000
  0
LINE
  8
LAYER_2
 10
540.62500000
 20
287.25000000
 11
540.62500000
 21
121.62500000
  0
LINE
  8
LAYER_2
 10
540.62500000
 20
287.00000000
 11
948.62500000
 21
287.00000000
  0
LINE
  8
LAYER_2
 10
948.62500000
 20
287.00000000
 11
948.62500000
 21
121.62500000
  0
LINE
  8
LAYER_2
 10
661.75000000
 20
220.62500000
 11
664.12500000
 21
220.62500000
  0
LINE
  8
LAYER_2
 10
625.12500000
 20
265.62500000
 11
664.12500000
 21
226.62500000
  0
LINE
  8
LAYER_2
 10
625.12500000
 20
257.37500000
 11
661.75000000
 21
220.62500000
  0
LINE
  8
LAYER_2
 10
586.12500000
 20
226.62500000
 11
625.12500000
 21
265.62500000
  0
LINE
  8
LAYER_2
 10
586.12500000
 20
220.62500000
 11
588.37500000
 21
220.62500000
  0
LINE
  8
LAYER_2
 10
588.37500000
 20
220.62500000
 11
625.12500000
 21
257.37500000
  0
LINE
  8
LAYER_2
 10
653.62500000
 20
228.75000000
 11
653.62500000
 21
163.62500000
  0
LINE
  8
LAYER_2
 10
596.62500000
 20
163.62500000
 11
653.62500000
 21
163.62500000
  0
LINE
  8
LAYER_2
 10
596.62500000
 20
228.87500000
 11
596.62500000
 21
163.62500000
  0
LINE
  8
LAYER_2
 10
609.12500000
 20
218.37500000
 11
609.12500000
 21
163.62500000
  0
LINE
  8
LAYER_2
 10
641.12500000
 20
218.37500000
 11
641.12500000
 21
163.62500000
  0
LINE
  8
LAYER_2
 10
607.62500000
 20
218.37500000
 11
642.62500000
 21
218.37500000
  0
LINE
  8
LAYER_2
 10
609.12500000
 20
175.87500000
 11
641.12500000
 21
175.87500000
  0
LINE
  8
LAYER_2
 10
609.12500000
 20
174.37500000
 11
641.12500000
 21
174.37500000
  0
LINE
  8
LAYER_2
 10
586.12500000
 20
226.62500000
 11
586.12500000
 21
220.62500000
  0
LINE
  8
LAYER_2
 10
664.12500000
 20
226.62500000
 11
664.12500000
 21
220.62500000
  0
LINE
  8
LAYER_2
 10
540.62500000
 20
127.62500000
 11
553.12500000
 21
127.62500000
  0
LINE
  8
LAYER_2
 10
540.62500000
 20
126.87500000
 11
553.12500000
 21
126.87500000
  0
LINE
  8
LAYER_2
 10
540.62500000
 20
121.62500000
 11
556.62500000
 21
121.62500000
  0
LINE
  8
LAYER_2
 10
948.62500000
 20
127.62500000
 11
948.62500000
 21
121.62500000
  0
LINE
  8
LAYER_2
 10
936.12500000
 20
127.62500000
 11
948.62500000
 21
127.62500000
  0
LINE
  8
LAYER_2
 10
936.12500000
 20
126.87500000
 11
948.62500000
 21
126.87500000
  0
LINE
  8
LAYER_2
 10
932.62500000
 20
121.62500000
 11
948.62500000
 21
121.62500000
  0
LINE
  8
LAYER_2
  6
SMALL
 10
553.12500000
 20
127.62500000
 11
936.12500000
 21
127.62500000
  0
LINE
  8
LAYER_2
  6
SMALL
 10
553.12500000
 20
126.87500000
 11
936.12500000
 21
126.87500000
  0
LINE
  8
LAYER_2
  6
SMALL
 10
556.62500000
 20
121.62500000
 11
932.62500000
 21
121.62500000
  0
LINE
  8
LAYER_2
 10
607.62500000
 20
225.87500000
 11
642.62500000
 21
225.87500000
  0
LINE
  8
LAYER_2
 10
607.62500000
 20
237.75000000
 11
607.62500000
 21
163.62500000
  0
LINE
  8
LAYER_2
 10
606.12500000
 20
236.37500000
 11
606.12500000
 21
163.62500000
  0
LINE
  8
LAYER_2
 10
642.62500000
 20
237.75000000
 11
642.62500000
 21
163.62500000
  0
LINE
  8
LAYER_2
 10
644.12500000
 20
236.25000000
 11
644.12500000
 21
163.62500000
  0
LINE
  8
LAYER_2
 10
598.12500000
 20
228.37500000
 11
598.12500000
 21
163.62500000
  0
LINE
  8
LAYER_2
 10
600.12500000
 20
230.37500000
 11
600.12500000
 21
163.62500000
  0
LINE
  8
LAYER_2
 10
596.62500000
 20
226.87500000
 11
625.12500000
 21
255.37500000
  0
LINE
  8
LAYER_2
 10
625.12500000
 20
255.37500000
 11
653.62500000
 21
226.75000000
  0
LINE
  8
LAYER_2
 10
652.12500000
 20
228.12500000
 11
652.12500000
 21
163.62500000
  0
LINE
  8
LAYER_2
 10
650.12500000
 20
230.25000000
 11
650.12500000
 21
163.62500000
  0
LINE
  8
LAYER_2
  6
SMALL
 10
596.62500000
 20
163.62500000
 11
596.62500000
 21
136.12500000
  0
LINE
  8
LAYER_2
  6
SMALL
 10
596.62500000
 20
137.62500000
 11
653.62500000
 21
137.62500000
  0
LINE
  8
LAYER_2
  6
SMALL
 10
653.62500000
 20
163.62500000
 11
653.62500000
 21
136.12500000
  0
LINE
  8
LAYER_2
  6
SMALL
 10
652.12500000
 20
163.62500000
 11
652.12500000
 21
137.62500000
  0
LINE
  8
LAYER_2
  6
SMALL
 10
650.12500000
 20
163.62500000
 11
650.12500000
 21
137.62500000
  0
LINE
  8
LAYER_2
  6
SMALL
 10
644.12500000
 20
163.62500000
 11
644.12500000
 21
137.62500000
  0
LINE
  8
LAYER_2
  6
SMALL
 10
642.62500000
 20
163.62500000
 11
642.62500000
 21
137.62500000
  0
LINE
  8
LAYER_2
  6
SMALL
 10
641.12500000
 20
163.62500000
 11
641.12500000
 21
137.62500000
  0
LINE
  8
LAYER_2
  6
SMALL
 10
609.12500000
 20
163.62500000
 11
609.12500000
 21
137.62500000
  0
LINE
  8
LAYER_2
  6
SMALL
 10
607.62500000
 20
163.62500000
 11
607.62500000
 21
137.62500000
  0
LINE
  8
LAYER_2
  6
SMALL
 10
606.12500000
 20
163.62500000
 11
606.12500000
 21
137.62500000
  0
LINE
  8
LAYER_2
  6
SMALL
 10
598.12500000
 20
163.62500000
 11
598.12500000
 21
137.62500000
  0
LINE
  8
LAYER_2
  6
SMALL
 10
600.12500000
 20
163.62500000
 11
600.12500000
 21
137.62500000
  0
LINE
  8
LAYER_2
  6
SMALL
 10
611.87500000
 20
163.62500000
 11
611.87500000
 21
137.62500000
  0
LINE
  8
LAYER_2
  6
SMALL
 10
613.37500000
 20
163.62500000
 11
613.37500000
 21
137.62500000
  0
LINE
  8
LAYER_2
  6
SMALL
 10
627.87500000
 20
163.62500000
 11
627.87500000
 21
137.62500000
  0
LINE
  8
LAYER_2
  6
SMALL
 10
629.37500000
 20
163.62500000
 11
629.37500000
 21
137.62500000
  0
LINE
  8
LAYER_2
  6
SMALL
 10
645.62500000
 20
163.62500000
 11
645.62500000
 21
137.62500000
  0
LINE
  8
LAYER_2
 10
611.87500000
 20
174.37500000
 11
611.87500000
 21
163.62500000
  0
LINE
  8
LAYER_2
 10
613.37500000
 20
174.37500000
 11
613.37500000
 21
163.62500000
  0
LINE
  8
LAYER_2
 10
627.87500000
 20
174.37500000
 11
627.87500000
 21
163.62500000
  0
LINE
  8
LAYER_2
 10
629.37500000
 20
174.37500000
 11
629.37500000
 21
163.62500000
  0
LINE
  8
LAYER_2
 10
645.62500000
 20
234.62500000
 11
645.62500000
 21
163.50000000
  0
LINE
  8
LAYER_2
 10
611.87500000
 20
242.12500000
 11
611.87500000
 21
225.87500000
  0
LINE
  8
LAYER_2
 10
613.37500000
 20
243.50000000
 11
613.37500000
 21
225.87500000
  0
LINE
  8
LAYER_2
 10
629.37500000
 20
251.00000000
 11
629.37500000
 21
225.87500000
  0
LINE
  8
LAYER_2
 10
627.87500000
 20
252.50000000
 11
627.87500000
 21
225.87500000
  0
LINE
  8
LAYER_2
 10
609.12500000
 20
239.12500000
 11
609.12500000
 21
225.87500000
  0
LINE
  8
LAYER_2
 10
641.12500000
 20
239.00000000
 11
641.12500000
 21
225.87500000
  0
LINE
  8
LAYER_2
 10
781.25000000
 20
220.62500000
 11
783.62500000
 21
220.62500000
  0
LINE
  8
LAYER_2
 10
744.62500000
 20
265.62500000
 11
783.62500000
 21
226.62500000
  0
LINE
  8
LAYER_2
 10
744.62500000
 20
257.37500000
 11
781.25000000
 21
220.62500000
  0
LINE
  8
LAYER_2
 10
705.62500000
 20
226.62500000
 11
744.62500000
 21
265.62500000
  0
LINE
  8
LAYER_2
 10
705.62500000
 20
220.62500000
 11
707.87500000
 21
220.62500000
  0
LINE
  8
LAYER_2
 10
707.87500000
 20
220.62500000
 11
744.62500000
 21
257.37500000
  0
LINE
  8
LAYER_2
 10
773.12500000
 20
228.75000000
 11
773.12500000
 21
163.62500000
  0
LINE
  8
LAYER_2
 10
716.12500000
 20
163.62500000
 11
773.12500000
 21
163.62500000
  0
LINE
  8
LAYER_2
 10
716.12500000
 20
228.87500000
 11
716.12500000
 21
163.62500000
  0
LINE
  8
LAYER_2
 10
728.62500000
 20
218.37500000
 11
728.62500000
 21
163.62500000
  0
LINE
  8
LAYER_2
 10
760.62500000
 20
218.37500000
 11
760.62500000
 21
163.62500000
  0
LINE
  8
LAYER_2
 10
727.12500000
 20
218.37500000
 11
762.12500000
 21
218.37500000
  0
LINE
  8
LAYER_2
 10
728.62500000
 20
175.87500000
 11
760.62500000
 21
175.87500000
  0
LINE
  8
LAYER_2
 10
728.62500000
 20
174.37500000
 11
760.62500000
 21
174.37500000
  0
LINE
  8
LAYER_2
 10
705.62500000
 20
226.62500000
 11
705.62500000
 21
220.62500000
  0
LINE
  8
LAYER_2
 10
783.62500000
 20
226.62500000
 11
783.62500000
 21
220.62500000
  0
LINE
  8
LAYER_2
 10
727.12500000
 20
225.87500000
 11
762.12500000
 21
225.87500000
  0
LINE
  8
LAYER_2
 10
727.12500000
 20
237.75000000
 11
727.12500000
 21
163.62500000
  0
LINE
  8
LAYER_2
 10
725.62500000
 20
236.37500000
 11
725.62500000
 21
163.62500000
  0
LINE
  8
LAYER_2
 10
762.12500000
 20
237.75000000
 11
762.12500000
 21
163.62500000
  0
LINE
  8
LAYER_2
 10
763.62500000
 20
236.25000000
 11
763.62500000
 21
163.62500000
  0
LINE
  8
LAYER_2
 10
717.62500000
 20
228.37500000
 11
717.62500000
 21
163.62500000
  0
LINE
  8
LAYER_2
 10
719.62500000
 20
230.37500000
 11
719.62500000
 21
163.62500000
  0
LINE
  8
LAYER_2
 10
716.12500000
 20
226.87500000
 11
744.62500000
 21
255.37500000
  0
LINE
  8
LAYER_2
 10
744.62500000
 20
255.37500000
 11
773.12500000
 21
226.75000000
  0
LINE
  8
LAYER_2
 10
771.62500000
 20
228.12500000
 11
771.62500000
 21
163.62500000
  0
LINE
  8
LAYER_2
 10
769.62500000
 20
230.25000000
 11
769.62500000
 21
163.62500000
  0
LINE
  8
LAYER_2
  6
SMALL
 10
716.12500000
 20
163.62500000
 11
716.12500000
 21
136.12500000
  0
LINE
  8
LAYER_2
  6
SMALL
 10
716.12500000
 20
137.62500000
 11
773.12500000
 21
137.62500000
  0
LINE
  8
LAYER_2
  6
SMALL
 10
773.12500000
 20
163.62500000
 11
773.12500000
 21
136.12500000
  0
LINE
  8
LAYER_2
  6
SMALL
 10
771.62500000
 20
163.62500000
 11
771.62500000
 21
137.62500000
  0
LINE
  8
LAYER_2
  6
SMALL
 10
769.62500000
 20
163.62500000
 11
769.62500000
 21
137.62500000
  0
LINE
  8
LAYER_2
  6
SMALL
 10
763.62500000
 20
163.62500000
 11
763.62500000
 21
137.62500000
  0
LINE
  8
LAYER_2
  6
SMALL
 10
762.12500000
 20
163.62500000
 11
762.12500000
 21
137.62500000
  0
LINE
  8
LAYER_2
  6
SMALL
 10
760.62500000
 20
163.62500000
 11
760.62500000
 21
137.62500000
  0
LINE
  8
LAYER_2
  6
SMALL
 10
728.62500000
 20
163.62500000
 11
728.62500000
 21
137.62500000
  0
LINE
  8
LAYER_2
  6
SMALL
 10
727.12500000
 20
163.62500000
 11
727.12500000
 21
137.62500000
  0
LINE
  8
LAYER_2
  6
SMALL
 10
725.62500000
 20
163.62500000
 11
725.62500000
 21
137.62500000
  0
LINE
  8
LAYER_2
  6
SMALL
 10
717.62500000
 20
163.62500000
 11
717.62500000
 21
137.62500000
  0
LINE
  8
LAYER_2
  6
SMALL
 10
719.62500000
 20
163.62500000
 11
719.62500000
 21
137.62500000
  0
LINE
  8
LAYER_2
  6
SMALL
 10
731.37500000
 20
163.62500000
 11
731.37500000
 21
137.62500000
  0
LINE
  8
LAYER_2
  6
SMALL
 10
732.87500000
 20
163.62500000
 11
732.87500000
 21
137.62500000
  0
LINE
  8
LAYER_2
  6
SMALL
 10
747.37500000
 20
163.62500000
 11
747.37500000
 21
137.62500000
  0
LINE
  8
LAYER_2
  6
SMALL
 10
748.87500000
 20
163.62500000
 11
748.87500000
 21
137.62500000
  0
LINE
  8
LAYER_2
  6
SMALL
 10
765.12500000
 20
163.62500000
 11
765.12500000
 21
137.62500000
  0
LINE
  8
LAYER_2
 10
731.37500000
 20
174.37500000
 11
731.37500000
 21
163.62500000
  0
LINE
  8
LAYER_2
 10
732.87500000
 20
174.37500000
 11
732.87500000
 21
163.62500000
  0
LINE
  8
LAYER_2
 10
747.37500000
 20
174.37500000
 11
747.37500000
 21
163.62500000
  0
LINE
  8
LAYER_2
 10
748.87500000
 20
174.37500000
 11
748.87500000
 21
163.62500000
  0
LINE
  8
LAYER_2
 10
765.12500000
 20
234.62500000
 11
765.12500000
 21
163.50000000
  0
LINE
  8
LAYER_2
 10
731.37500000
 20
242.12500000
 11
731.37500000
 21
225.87500000
  0
LINE
  8
LAYER_2
 10
732.87500000
 20
243.50000000
 11
732.87500000
 21
225.87500000
  0
LINE
  8
LAYER_2
 10
748.87500000
 20
251.00000000
 11
748.87500000
 21
225.87500000
  0
LINE
  8
LAYER_2
 10
747.37500000
 20
252.50000000
 11
747.37500000
 21
225.87500000
  0
LINE
  8
LAYER_2
 10
728.62500000
 20
239.12500000
 11
728.62500000
 21
225.87500000
  0
LINE
  8
LAYER_2
 10
760.62500000
 20
239.00000000
 11
760.62500000
 21
225.87500000
  0
LINE
  8
LAYER_2
 10
900.75000000
 20
220.62500000
 11
903.12500000
 21
220.62500000
  0
LINE
  8
LAYER_2
 10
864.12500000
 20
265.62500000
 11
903.12500000
 21
226.62500000
  0
LINE
  8
LAYER_2
 10
864.12500000
 20
257.37500000
 11
900.75000000
 21
220.62500000
  0
LINE
  8
LAYER_2
 10
825.12500000
 20
226.62500000
 11
864.12500000
 21
265.62500000
  0
LINE
  8
LAYER_2
 10
825.12500000
 20
220.62500000
 11
827.37500000
 21
220.62500000
  0
LINE
  8
LAYER_2
 10
827.37500000
 20
220.62500000
 11
864.12500000
 21
257.37500000
  0
LINE
  8
LAYER_2
 10
892.62500000
 20
228.75000000
 11
892.62500000
 21
163.62500000
  0
LINE
  8
LAYER_2
 10
835.62500000
 20
163.62500000
 11
892.62500000
 21
163.62500000
  0
LINE
  8
LAYER_2
 10
835.62500000
 20
228.87500000
 11
835.62500000
 21
163.62500000
  0
LINE
  8
LAYER_2
 10
848.12500000
 20
218.37500000
 11
848.12500000
 21
163.62500000
  0
LINE
  8
LAYER_2
 10
880.12500000
 20
218.37500000
 11
880.12500000
 21
163.62500000
  0
LINE
  8
LAYER_2
 10
846.62500000
 20
218.37500000
 11
881.62500000
 21
218.37500000
  0
LINE
  8
LAYER_2
 10
848.12500000
 20
175.87500000
 11
880.12500000
 21
175.87500000
  0
LINE
  8
LAYER_2
 10
848.12500000
 20
174.37500000
 11
880.12500000
 21
174.37500000
  0
LINE
  8
LAYER_2
 10
825.12500000
 20
226.62500000
 11
825.12500000
 21
220.62500000
  0
LINE
  8
LAYER_2
 10
903.12500000
 20
226.62500000
 11
903.12500000
 21
220.62500000
  0
LINE
  8
LAYER_2
 10
846.62500000
 20
225.87500000
 11
881.62500000
 21
225.87500000
  0
LINE
  8
LAYER_2
 10
846.62500000
 20
237.75000000
 11
846.62500000
 21
163.62500000
  0
LINE
  8
LAYER_2
 10
845.12500000
 20
236.37500000
 11
845.12500000
 21
163.62500000
  0
LINE
  8
LAYER_2
 10
881.62500000
 20
237.75000000
 11
881.62500000
 21
163.62500000
  0
LINE
  8
LAYER_2
 10
883.12500000
 20
236.25000000
 11
883.12500000
 21
163.62500000
  0
LINE
  8
LAYER_2
 10
837.12500000
 20
228.37500000
 11
837.12500000
 21
163.62500000
  0
LINE
  8
LAYER_2
 10
839.12500000
 20
230.37500000
 11
839.12500000
 21
163.62500000
  0
LINE
  8
LAYER_2
 10
835.62500000
 20
226.87500000
 11
864.12500000
 21
255.37500000
  0
LINE
  8
LAYER_2
 10
864.12500000
 20
255.37500000
 11
892.62500000
 21
226.75000000
  0
LINE
  8
LAYER_2
 10
891.12500000
 20
228.12500000
 11
891.12500000
 21
163.62500000
  0
LINE
  8
LAYER_2
 10
889.12500000
 20
230.25000000
 11
889.12500000
 21
163.62500000
  0
LINE
  8
LAYER_2
  6
SMALL
 10
835.62500000
 20
163.62500000
 11
835.62500000
 21
136.12500000
  0
LINE
  8
LAYER_2
  6
SMALL
 10
835.62500000
 20
137.62500000
 11
892.62500000
 21
137.62500000
  0
LINE
  8
LAYER_2
  6
SMALL
 10
892.62500000
 20
163.62500000
 11
892.62500000
 21
136.12500000
  0
LINE
  8
LAYER_2
  6
SMALL
 10
891.12500000
 20
163.62500000
 11
891.12500000
 21
137.62500000
  0
LINE
  8
LAYER_2
  6
SMALL
 10
889.12500000
 20
163.62500000
 11
889.12500000
 21
137.62500000
  0
LINE
  8
LAYER_2
  6
SMALL
 10
883.12500000
 20
163.62500000
 11
883.12500000
 21
137.62500000
  0
LINE
  8
LAYER_2
  6
SMALL
 10
881.62500000
 20
163.62500000
 11
881.62500000
 21
137.62500000
  0
LINE
  8
LAYER_2
  6
SMALL
 10
880.12500000
 20
163.62500000
 11
880.12500000
 21
137.62500000
  0
LINE
  8
LAYER_2
  6
SMALL
 10
848.12500000
 20
163.62500000
 11
848.12500000
 21
137.62500000
  0
LINE
  8
LAYER_2
  6
SMALL
 10
846.62500000
 20
163.62500000
 11
846.62500000
 21
137.62500000
  0
LINE
  8
LAYER_2
  6
SMALL
 10
845.12500000
 20
163.62500000
 11
845.12500000
 21
137.62500000
  0
LINE
  8
LAYER_2
  6
SMALL
 10
837.12500000
 20
163.62500000
 11
837.12500000
 21
137.62500000
  0
LINE
  8
LAYER_2
  6
SMALL
 10
839.12500000
 20
163.62500000
 11
839.12500000
 21
137.62500000
  0
LINE
  8
LAYER_2
  6
SMALL
 10
850.87500000
 20
163.62500000
 11
850.87500000
 21
137.62500000
  0
LINE
  8
LAYER_2
  6
SMALL
 10
852.37500000
 20
163.62500000
 11
852.37500000
 21
137.62500000
  0
LINE
  8
LAYER_2
  6
SMALL
 10
866.87500000
 20
163.62500000
 11
866.87500000
 21
137.62500000
  0
LINE
  8
LAYER_2
  6
SMALL
 10
868.37500000
 20
163.62500000
 11
868.37500000
 21
137.62500000
  0
LINE
  8
LAYER_2
  6
SMALL
 10
884.62500000
 20
163.62500000
 11
884.62500000
 21
137.62500000
  0
LINE
  8
LAYER_2
 10
850.87500000
 20
174.37500000
 11
850.87500000
 21
163.62500000
  0
LINE
  8
LAYER_2
 10
852.37500000
 20
174.37500000
 11
852.37500000
 21
163.62500000
  0
LINE
  8
LAYER_2
 10
866.87500000
 20
174.37500000
 11
866.87500000
 21
163.62500000
  0
LINE
  8
LAYER_2
 10
868.37500000
 20
174.37500000
 11
868.37500000
 21
163.62500000
  0
LINE
  8
LAYER_2
 10
884.62500000
 20
234.62500000
 11
884.62500000
 21
163.50000000
  0
LINE
  8
LAYER_2
 10
850.87500000
 20
242.12500000
 11
850.87500000
 21
225.87500000
  0
LINE
  8
LAYER_2
 10
852.37500000
 20
243.50000000
 11
852.37500000
 21
225.87500000
  0
LINE
  8
LAYER_2
 10
868.37500000
 20
251.00000000
 11
868.37500000
 21
225.87500000
  0
LINE
  8
LAYER_2
 10
866.87500000
 20
252.50000000
 11
866.87500000
 21
225.87500000
  0
LINE
  8
LAYER_2
 10
848.12500000
 20
239.12500000
 11
848.12500000
 21
225.87500000
  0
LINE
  8
LAYER_2
 10
880.12500000
 20
239.00000000
 11
880.12500000
 21
225.87500000
  0
LINE
  8
LAYER_2
  6
SMALL
 10
553.12500000
 20
136.12500000
 11
936.12500000
 21
136.12500000
  0
LINE
  8
LAYER_2
  6
SMALL
 10
553.12500000
 20
136.12500000
 11
553.12500000
 21
25.12500000
  0
LINE
  8
LAYER_2
  6
SMALL
 10
553.12500000
 20
135.50000000
 11
936.12500000
 21
135.50000000
  0
LINE
  8
LAYER_2
  6
SMALL
 10
936.12500000
 20
136.12500000
 11
936.12500000
 21
126.87500000
  0
LINE
  8
LAYER_2
  6
SMALL
 10
553.12500000
 20
125.62500000
 11
556.62500000
 21
125.62500000
  0
LINE
  8
LAYER_2
  6
SMALL
 10
553.12500000
 20
124.12500000
 11
556.62500000
 21
124.12500000
  0
LINE
  8
LAYER_2
  6
SMALL
 10
553.12500000
 20
122.62500000
 11
556.62500000
 21
122.62500000
  0
LINE
  8
LAYER_2
  6
SMALL
 10
553.12500000
 20
25.12500000
 11
556.62500000
 21
25.12500000
  0
LINE
  8
LAYER_2
  6
SMALL
 10
553.12500000
 20
26.62500000
 11
556.62500000
 21
26.62500000
  0
LINE
  8
LAYER_2
  6
SMALL
 10
932.62500000
 20
125.62500000
 11
936.12500000
 21
125.62500000
  0
LINE
  8
LAYER_2
  6
SMALL
 10
936.12500000
 20
125.62500000
 11
936.12500000
 21
25.12500000
  0
LINE
  8
LAYER_2
  6
SMALL
 10
932.62500000
 20
124.12500000
 11
936.12500000
 21
124.12500000
  0
LINE
  8
LAYER_2
  6
SMALL
 10
932.62500000
 20
122.62500000
 11
936.12500000
 21
122.62500000
  0
LINE
  8
LAYER_2
  6
SMALL
 10
932.62500000
 20
25.12500000
 11
936.12500000
 21
25.12500000
  0
LINE
  8
LAYER_2
  6
SMALL
 10
932.62500000
 20
26.62500000
 11
936.12500000
 21
26.62500000
  0
LINE
  8
LAYER_11
 10
556.62500000
 20
5.00000000
 11
571.00000000
 21
5.00000000
  0
LINE
  8
LAYER_11
 10
570.00000000
 20
4.00000000
 11
572.00000000
 21
6.00000000
  0
LINE
  8
LAYER_11
 10
570.25000000
 20
4.00000000
 11
572.25000000
 21
6.00000000
  0
LINE
  8
LAYER_11
 10
569.75000000
 20
4.00000000
 11
571.75000000
 21
6.00000000
  0
LINE
  8
LAYER_11
 10
557.62500000
 20
6.00000000
 11
555.62500000
 21
4.00000000
  0
LINE
  8
LAYER_11
 10
557.37500000
 20
6.00000000
 11
555.37500000
 21
4.00000000
  0
LINE
  8
LAYER_11
 10
557.87500000
 20
6.00000000
 11
555.87500000
 21
4.00000000
  0
TEXT
  1
1' 2 3/8"
  7
SPSIMP
  8
LAYER_11
 10
553.75000000
 20
9.93750000
 40
2.54689338
 50
0.00000000
  0
LINE
  8
LAYER_11
 10
571.00000000
 20
5.00000000
 11
674.00000000
 21
5.00000000
  0
LINE
  8
LAYER_11
 10
673.00024606
 20
4.00000000
 11
674.99975394
 21
6.00000000
  0
LINE
  8
LAYER_11
 10
673.25000000
 20
4.00000000
 11
675.24950787
 21
6.00000000
  0
LINE
  8
LAYER_11
 10
672.75049213
 20
4.00000000
 11
674.75000000
 21
6.00000000
  0
LINE
  8
LAYER_11
 10
571.99975394
 20
6.00000000
 11
570.00024606
 21
4.00000000
  0
LINE
  8
LAYER_11
 10
571.75000000
 20
6.00000000
 11
569.75049213
 21
4.00000000
  0
LINE
  8
LAYER_11
 10
572.24950787
 20
6.00000000
 11
570.25000000
 21
4.00000000
  0
TEXT
  1
8' 7"
  7
SPSIMP
  8
LAYER_11
 10
617.31250000
 20
14.93750000
 40
2.54689338
 50
0.00000000
  0
LINE
  8
LAYER_11
 10
674.00000000
 20
5.00000000
 11
684.62500000
 21
5.00000000
  0
LINE
  8
LAYER_11
 10
683.62500000
 20
4.00000000
 11
685.62500000
 21
6.00000000
  0
LINE
  8
LAYER_11
 10
683.87500000
 20
4.00000000
 11
685.87500000
 21
6.00000000
  0
LINE
  8
LAYER_11
 10
683.37500000
 20
4.00000000
 11
685.37500000
 21
6.00000000
  0
LINE
  8
LAYER_11
 10
675.00000000
 20
6.00000000
 11
673.00000000
 21
4.00000000
  0
LINE
  8
LAYER_11
 10
674.75000000
 20
6.00000000
 11
672.75000000
 21
4.00000000
  0
LINE
  8
LAYER_11
 10
675.25000000
 20
6.00000000
 11
673.25000000
 21
4.00000000
  0
TEXT
  1
10 5/8"
  7
SPSIMP
  8
LAYER_11
 10
671.00000000
 20
9.93750000
 40
2.54689338
 50
0.00000000
  0
LINE
  8
LAYER_11
 10
684.62500000
 20
5.00000000
 11
690.87500000
 21
5.00000000
  0
LINE
  8
LAYER_11
 10
689.87500000
 20
4.00000000
 11
691.87500000
 21
6.00000000
  0
LINE
  8
LAYER_11
 10
690.12500000
 20
4.00000000
 11
692.12500000
 21
6.00000000
  0
LINE
  8
LAYER_11
 10
689.62500000
 20
4.00000000
 11
691.62500000
 21
6.00000000
  0
LINE
  8
LAYER_11
 10
685.62500000
 20
6.00000000
 11
683.62500000
 21
4.00000000
  0
LINE
  8
LAYER_11
 10
685.37500000
 20
6.00000000
 11
683.37500000
 21
4.00000000
  0
LINE
  8
LAYER_11
 10
685.87500000
 20
6.00000000
 11
683.87500000
 21
4.00000000
  0
TEXT
  1
6 1/4"
  7
SPSIMP
  8
LAYER_11
 10
682.37500000
 20
14.93750000
 40
2.54689338
 50
0.00000000
  0
LINE
  8
LAYER_11
 10
690.87500000
 20
5.00000000
 11
793.87500000
 21
5.00000000
  0
LINE
  8
LAYER_11
 10
792.87524606
 20
4.00000000
 11
794.87475394
 21
6.00000000
  0
LINE
  8
LAYER_11
 10
793.12500000
 20
4.00000000
 11
795.12450787
 21
6.00000000
  0
LINE
  8
LAYER_11
 10
792.62549213
 20
4.00000000
 11
794.62500000
 21
6.00000000
  0
LINE
  8
LAYER_11
 10
691.87475394
 20
6.00000000
 11
689.87524606
 21
4.00000000
  0
LINE
  8
LAYER_11
 10
691.62500000
 20
6.00000000
 11
689.62549213
 21
4.00000000
  0
LINE
  8
LAYER_11
 10
692.12450787
 20
6.00000000
 11
690.12500000
 21
4.00000000
  0
TEXT
  1
8' 7"
  7
SPSIMP
  8
LAYER_11
 10
737.18750000
 20
9.93750000
 40
2.54689338
 50
0.00000000
  0
LINE
  8
LAYER_11
 10
793.87500000
 20
5.00000000
 11
812.62500000
 21
5.00000000
  0
LINE
  8
LAYER_11
 10
811.62500000
 20
4.00000000
 11
813.62500000
 21
6.00000000
  0
LINE
  8
LAYER_11
 10
811.87500000
 20
4.00000000
 11
813.87500000
 21
6.00000000
  0
LINE
  8
LAYER_11
 10
811.37500000
 20
4.00000000
 11
813.37500000
 21
6.00000000
  0
LINE
  8
LAYER_11
 10
794.87500000
 20
6.00000000
 11
792.87500000
 21
4.00000000
  0
LINE
  8
LAYER_11
 10
794.62500000
 20
6.00000000
 11
792.62500000
 21
4.00000000
  0
LINE
  8
LAYER_11
 10
795.12500000
 20
6.00000000
 11
793.12500000
 21
4.00000000
  0
TEXT
  1
1' 6 3/4"
  7
SPSIMP
  8
LAYER_11
 10
793.25000000
 20
14.93750000
 40
2.54689338
 50
0.00000000
  0
LINE
  8
LAYER_11
 10
812.62500000
 20
5.00000000
 11
915.62500000
 21
5.00000000
  0
LINE
  8
LAYER_11
 10
914.62524606
 20
4.00000000
 11
916.62475394
 21
6.00000000
  0
LINE
  8
LAYER_11
 10
914.87500000
 20
4.00000000
 11
916.87450787
 21
6.00000000
  0
LINE
  8
LAYER_11
 10
914.37549213
 20
4.00000000
 11
916.37500000
 21
6.00000000
  0
LINE
  8
LAYER_11
 10
813.62475394
 20
6.00000000
 11
811.62524606
 21
4.00000000
  0
LINE
  8
LAYER_11
 10
813.37500000
 20
6.00000000
 11
811.37549213
 21
4.00000000
  0
LINE
  8
LAYER_11
 10
813.87450787
 20
6.00000000
 11
811.87500000
 21
4.00000000
  0
TEXT
  1
8' 7"
  7
SPSIMP
  8
LAYER_11
 10
858.93750000
 20
9.93750000
 40
2.54689338
 50
0.00000000
  0
LINE
  8
LAYER_11
 10
915.62500000
 20
5.00000000
 11
924.62500000
 21
5.00000000
  0
LINE
  8
LAYER_11
 10
923.62500000
 20
4.00000000
 11
925.62500000
 21
6.00000000
  0
LINE
  8
LAYER_11
 10
923.87500000
 20
4.00000000
 11
925.87500000
 21
6.00000000
  0
LINE
  8
LAYER_11
 10
923.37500000
 20
4.00000000
 11
925.37500000
 21
6.00000000
  0
LINE
  8
LAYER_11
 10
916.62500000
 20
6.00000000
 11
914.62500000
 21
4.00000000
  0
LINE
  8
LAYER_11
 10
916.37500000
 20
6.00000000
 11
914.37500000
 21
4.00000000
  0
LINE
  8
LAYER_11
 10
916.87500000
 20
6.00000000
 11
914.87500000
 21
4.00000000
  0
TEXT
  1
9"
  7
SPSIMP
  8
LAYER_11
 10
917.93750000
 20
14.93750000
 40
2.54689338
 50
0.00000000
  0
LINE
  8
LAYER_11
 10
924.62500000
 20
5.00000000
 11
932.62500000
 21
5.00000000
  0
LINE
  8
LAYER_11
 10
931.62500000
 20
4.00000000
 11
933.62500000
 21
6.00000000
  0
LINE
  8
LAYER_11
 10
931.87500000
 20
4.00000000
 11
933.87500000
 21
6.00000000
  0
LINE
  8
LAYER_11
 10
931.37500000
 20
4.00000000
 11
933.37500000
 21
6.00000000
  0
LINE
  8
LAYER_11
 10
925.62500000
 20
6.00000000
 11
923.62500000
 21
4.00000000
  0
LINE
  8
LAYER_11
 10
925.37500000
 20
6.00000000
 11
923.37500000
 21
4.00000000
  0
LINE
  8
LAYER_11
 10
925.87500000
 20
6.00000000
 11
923.87500000
 21
4.00000000
  0
TEXT
  1
8"
  7
SPSIMP
  8
LAYER_11
 10
926.43750000
 20
9.93750000
 40
2.54689338
 50
0.00000000
  0
LINE
  8
LAYER_11
 10
568.87500000
 20
26.62500000
 11
568.87500000
 21
111.37500000
  0
LINE
  8
LAYER_11
 10
569.87500000
 20
110.37500000
 11
567.87500000
 21
112.37500000
  0
LINE
  8
LAYER_11
 10
569.87500000
 20
110.62500000
 11
567.87500000
 21
112.62500000
  0
LINE
  8
LAYER_11
 10
569.87500000
 20
110.12500000
 11
567.87500000
 21
112.12500000
  0
LINE
  8
LAYER_11
 10
567.87500000
 20
27.62500000
 11
569.87500000
 21
25.62500000
  0
LINE
  8
LAYER_11
 10
567.87500000
 20
27.37500000
 11
569.87500000
 21
25.37500000
  0
LINE
  8
LAYER_11
 10
567.87500000
 20
27.87500000
 11
569.87500000
 21
25.87500000
  0
TEXT
  1
7' 0 3/4"
  7
SPSIMP
  8
LAYER_11
 10
565.18750000
 20
58.75000000
 40
2.54689338
 50
90.00000000
  0
LINE
  8
LAYER_11
 10
568.87500000
 20
111.37500000
 11
568.87500000
 21
122.62500000
  0
LINE
  8
LAYER_11
 10
569.87500000
 20
121.62500000
 11
567.87500000
 21
123.62500000
  0
LINE
  8
LAYER_11
 10
569.87500000
 20
121.87500000
 11
567.87500000
 21
123.87500000
  0
LINE
  8
LAYER_11
 10
569.87500000
 20
121.37500000
 11
567.87500000
 21
123.37500000
  0
LINE
  8
LAYER_11
 10
567.87500000
 20
112.37500000
 11
569.87500000
 21
110.37500000
  0
LINE
  8
LAYER_11
 10
567.87500000
 20
112.12500000
 11
569.87500000
 21
110.12500000
  0
LINE
  8
LAYER_11
 10
567.87500000
 20
112.62500000
 11
569.87500000
 21
110.62500000
  0
TEXT
  1
11 1/4"
  7
SPSIMP
  8
LAYER_11
 10
564.18750000
 20
109.25000000
 40
2.54689338
 50
90.00000000
  0
LINE
  8
LAYER_11
 10
536.50000000
 20
25.12500000
 11
536.50000000
 21
125.62500000
  0
LINE
  8
LAYER_11
 10
537.50000000
 20
124.62500000
 11
535.50000000
 21
126.62500000
  0
LINE
  8
LAYER_11
 10
537.50000000
 20
124.87500000
 11
535.50000000
 21
126.87500000
  0
LINE
  8
LAYER_11
 10
537.50000000
 20
124.37500000
 11
535.50000000
 21
126.37500000
  0
LINE
  8
LAYER_11
 10
535.50000000
 20
26.12500000
 11
537.50000000
 21
24.12500000
  0
LINE
  8
LAYER_11
 10
535.50000000
 20
25.87500000
 11
537.50000000
 21
23.87500000
  0
LINE
  8
LAYER_11
 10
535.50000000
 20
26.37500000
 11
537.50000000
 21
24.37500000
  0
TEXT
  1
8' 4 1/2"
  7
SPSIMP
  8
LAYER_11
 10
532.81250000
 20
65.37500000
 40
2.54689338
 50
90.00000000
  0
ENDSEC
  0
EOF
