  0
SECTION
  2
HEADER
  9
$LIMMIN
 10
0.00000000
 20
0.00000000
  9
$LIMMAX
 10
1920.00000000
 20
1284.00000000
  9
$EXTMIN
 10
0.00000000
 20
0.00000000
  9
$EXTMAX
 10
1920.00000000
 20
1284.00000000
  9
$LUNITS
 70
4
  0
ENDSEC
  0
SECTION
  2
TABLES
  0
TABLE
  2
LTYPE
 70
5
  0
LTYPE
  2
LARGE
 70
64
  3
___   ___
 72
65
 73
2
 40
20.00000000
 49
10.00000000
 49
-10.00000000
  0
LTYPE
  2
MEDIUM
 70
64
  3
__  __
 72
65
 73
2
 40
10.00000000
 49
5.00000000
 49
-5.00000000
  0
LTYPE
  2
SMALL
 70
64
  3
_ _
 72
65
 73
2
 40
5.00000000
 49
2.00000000
 49
-3.00000000
  0
LTYPE
  2
DASHDOT
 70
64
  3
___ . ___
 72
65
 73
4
 40
21.00000000
 49
15.00000000
 49
-3.00000000
 49
0.00000000
 49
-3.00000000
  0
LTYPE
  2
LONG
 70
64
  3
____ ____
 72
65
 73
2
 40
18.00000000
 49
14.00000000
 49
-4.00000000
  0
ENDTAB
  0
TABLE
  2
LAYER
 70
15
  0
LAYER
  2
LAYER_1
 70
0
 62
1
  6
CONTINUOUS
  0
LAYER
  2
LAYER_2
 70
0
 62
2
  6
CONTINUOUS
  0
LAYER
  2
LAYER_3
 70
0
 62
3
  6
CONTINUOUS
  0
LAYER
  2
LAYER_4
 70
0
 62
4
  6
CONTINUOUS
  0
LAYER
  2
LAYER_5
 70
0
 62
5
  6
CONTINUOUS
  0
LAYER
  2
LAYER_6
 70
0
 62
6
  6
CONTINUOUS
  0
LAYER
  2
LAYER_7
 70
0
 62
7
  6
CONTINUOUS
  0
LAYER
  2
LAYER_8
 70
0
 62
8
  6
CONTINUOUS
  0
LAYER
  2
LAYER_9
 70
0
 62
9
  6
CONTINUOUS
  0
LAYER
  2
LAYER_10
 70
0
 62
10
  6
CONTINUOUS
  0
LAYER
  2
LAYER_11
 70
0
 62
11
  6
CONTINUOUS
  0
LAYER
  2
LAYER_12
 70
0
 62
12
  6
CONTINUOUS
  0
LAYER
  2
LAYER_13
 70
0
 62
13
  6
CONTINUOUS
  0
LAYER
  2
LAYER_14
 70
0
 62
14
  6
CONTINUOUS
  0
LAYER
  2
LAYER_15
 70
0
 62
15
  6
CONTINUOUS
  0
ENDTAB
  0
ENDSEC
  0
SECTION
  2
ENTITIES
  0
TEXT
  1
LEFT SIDE WALL SHEATHING
  7
SPSIMP
  8
LAYER_12
 10
-718.25000000
 20
1126.25000000
 40
3.82048149
 50
0.00000000
  0
LINE
  8
LAYER_2
 10
-432.37500000
 20
1226.37500000
 11
-432.37500000
 21
1133.87500000
  0
LINE
  8
LAYER_2
  6
MEDIUM
 10
-712.75000000
 20
1214.37500000
 11
-712.75000000
 21
1132.50000000
  0
LINE
  8
LAYER_2
 10
-432.37500000
 20
1232.87500000
 11
-432.37500000
 21
1226.37500000
  0
LINE
  8
LAYER_2
 10
-720.37500000
 20
1245.62500000
 11
-720.37500000
 21
1132.37500000
  0
LINE
  8
LAYER_2
  6
MEDIUM
 10
-680.50000000
 20
1214.37500000
 11
-680.50000000
 21
1132.50000000
  0
LINE
  8
LAYER_2
 10
-432.37500000
 20
1245.87500000
 11
-432.37500000
 21
1232.87500000
  0
LINE
  8
LAYER_2
 10
-594.62500000
 20
1371.37500000
 11
-576.25000000
 21
1389.87500000
  0
LINE
  8
LAYER_2
 10
-576.25000000
 20
1389.87500000
 11
-432.37500000
 21
1246.00000000
  0
LINE
  8
LAYER_2
 10
-720.37500000
 20
1136.87500000
 11
-432.37500000
 21
1136.87500000
  0
LINE
  8
LAYER_2
  6
MEDIUM
 10
-712.75000000
 20
1214.37500000
 11
-680.50000000
 21
1214.37500000
  0
LINE
  8
LAYER_2
  6
MEDIUM
 10
-712.75000000
 20
1132.50000000
 11
-680.50000000
 21
1132.50000000
  0
LINE
  8
LAYER_2
 10
-720.37500000
 20
1184.87500000
 11
-432.37500000
 21
1184.87500000
  0
LINE
  8
LAYER_2
 10
-720.37500000
 20
1232.87500000
 11
-432.37500000
 21
1232.87500000
  0
LINE
  8
LAYER_2
 10
-685.12500000
 20
1280.87500000
 11
-467.37500000
 21
1280.87500000
  0
LINE
  8
LAYER_2
 10
-637.12500000
 20
1328.87500000
 11
-515.37500000
 21
1328.87500000
  0
LINE
  8
LAYER_2
 10
-589.12500000
 20
1376.87500000
 11
-563.37500000
 21
1376.87500000
  0
LINE
  8
LAYER_2
 10
-720.37500000
 20
1245.62500000
 11
-594.62549213
 21
1371.37500000
  0
LINE
  8
LAYER_2
 10
-480.37500000
 20
1184.87500000
 11
-480.37500000
 21
1136.87500000
  0
LINE
  8
LAYER_2
 10
-576.37500000
 20
1184.87500000
 11
-576.37500000
 21
1136.87500000
  0
LINE
  8
LAYER_2
 10
-672.37500000
 20
1184.87500000
 11
-672.37500000
 21
1136.87500000
  0
LINE
  8
LAYER_2
 10
-528.37500000
 20
1232.87500000
 11
-528.37500000
 21
1184.87500000
  0
LINE
  8
LAYER_2
 10
-576.37500000
 20
1280.87500000
 11
-576.37500000
 21
1232.87500000
  0
LINE
  8
LAYER_2
 10
-624.37500000
 20
1328.87500000
 11
-624.37500000
 21
1280.87500000
  0
LINE
  8
LAYER_2
 10
-528.37500000
 20
1328.87500000
 11
-528.37500000
 21
1280.87500000
  0
LINE
  8
LAYER_2
 10
-576.37500000
 20
1376.87500000
 11
-576.37500000
 21
1328.87500000
  0
LINE
  8
LAYER_2
 10
-480.37500000
 20
1280.87500000
 11
-480.37500000
 21
1232.87500000
  0
LINE
  8
LAYER_2
 10
-672.37500000
 20
1280.87500000
 11
-672.37500000
 21
1232.87500000
  0
LINE
  8
LAYER_2
 10
-624.37500000
 20
1232.87500000
 11
-624.37500000
 21
1184.87500000
  0
LINE
  8
LAYER_2
 10
-720.37500000
 20
1232.87500000
 11
-720.37500000
 21
1184.87500000
  0
LINE
  8
LAYER_2
 10
-432.37500000
 20
1133.87500000
 11
-432.37500000
 21
1132.37500000
  0
LINE
  8
LAYER_2
 10
-720.37500000
 20
1132.37500000
 11
-432.37500000
 21
1132.37500000
  0
LINE
  8
LAYER_2
 10
-720.37500000
 20
1342.75000000
 11
-720.37500000
 21
1245.75000000
  0
LINE
  8
LAYER_2
 10
-720.37500000
 20
1288.87500000
 11
-677.37500000
 21
1288.87500000
  0
LINE
  8
LAYER_2
 10
-720.37500000
 20
1336.62500000
 11
-629.50000000
 21
1336.62500000
  0
LINE
  8
LAYER_2
 10
-629.37500000
 20
1342.87500000
 11
-629.37500000
 21
1336.62500000
  0
LINE
  8
LAYER_2
 10
-528.25000000
 20
1136.87500000
 11
-528.25000000
 21
1132.37500000
  0
LINE
  8
LAYER_2
 10
-624.25000000
 20
1136.87500000
 11
-624.25000000
 21
1132.37500000
  0
LINE
  8
LAYER_2
 10
-720.12500000
 20
1342.62500000
 11
-623.62500000
 21
1342.62500000
  0
LINE
  8
LAYER_2
  6
MEDIUM
 10
-597.37500000
 20
1323.62500000
 11
-597.37500000
 21
1287.62500000
  0
LINE
  8
LAYER_2
  6
MEDIUM
 10
-555.37500000
 20
1323.62500000
 11
-555.37500000
 21
1287.62500000
  0
LINE
  8
LAYER_2
  6
MEDIUM
 10
-597.37500000
 20
1323.62500000
 11
-555.37500000
 21
1323.62500000
  0
LINE
  8
LAYER_2
  6
MEDIUM
 10
-597.37500000
 20
1287.62500000
 11
-555.37500000
 21
1287.62500000
  0
LINE
  8
LAYER_2
 10
-528.12500000
 20
1342.87500000
 11
-456.75000000
 21
1342.87500000
  0
LINE
  8
LAYER_2
 10
-456.75000000
 20
1342.87500000
 11
-456.75000000
 21
1270.62500000
  0
LINE
  8
LAYER_2
 10
-523.25000000
 20
1336.62500000
 11
-456.75000000
 21
1336.62500000
  0
LINE
  8
LAYER_2
 10
-474.87500000
 20
1289.00000000
 11
-457.00000000
 21
1289.00000000
  0
LINE
  8
LAYER_11
 10
-480.37500000
 20
1146.00000000
 11
-432.62500000
 21
1146.00000000
  0
LINE
  8
LAYER_11
 10
-433.62500000
 20
1145.00000000
 11
-431.62500000
 21
1147.00000000
  0
LINE
  8
LAYER_11
 10
-433.37500000
 20
1145.00000000
 11
-431.37500000
 21
1147.00000000
  0
LINE
  8
LAYER_11
 10
-433.87500000
 20
1145.00000000
 11
-431.87500000
 21
1147.00000000
  0
LINE
  8
LAYER_11
 10
-479.37500000
 20
1147.00000000
 11
-481.37500000
 21
1145.00000000
  0
LINE
  8
LAYER_11
 10
-479.62500000
 20
1147.00000000
 11
-481.62500000
 21
1145.00000000
  0
LINE
  8
LAYER_11
 10
-479.12500000
 20
1147.00000000
 11
-481.12500000
 21
1145.00000000
  0
TEXT
  1
3' 11 3/4"
  7
SPSIMP
  8
LAYER_11
 10
-467.37500000
 20
1150.93750000
 40
2.54689338
 50
0.00000000
  0
LINE
  8
LAYER_11
 10
-576.37500000
 20
1146.00000000
 11
-480.37500000
 21
1146.00000000
  0
LINE
  8
LAYER_11
 10
-481.37500000
 20
1145.00000000
 11
-479.37500000
 21
1147.00000000
  0
LINE
  8
LAYER_11
 10
-481.12500000
 20
1145.00000000
 11
-479.12500000
 21
1147.00000000
  0
LINE
  8
LAYER_11
 10
-481.62500000
 20
1145.00000000
 11
-479.62500000
 21
1147.00000000
  0
LINE
  8
LAYER_11
 10
-575.37500000
 20
1147.00000000
 11
-577.37500000
 21
1145.00000000
  0
LINE
  8
LAYER_11
 10
-575.62500000
 20
1147.00000000
 11
-577.62500000
 21
1145.00000000
  0
LINE
  8
LAYER_11
 10
-575.12500000
 20
1147.00000000
 11
-577.12500000
 21
1145.00000000
  0
TEXT
  1
8' 0"
  7
SPSIMP
  8
LAYER_11
 10
-533.56250000
 20
1155.93750000
 40
2.54689338
 50
0.00000000
  0
LINE
  8
LAYER_11
 10
-672.37500000
 20
1146.00000000
 11
-576.37500000
 21
1146.00000000
  0
LINE
  8
LAYER_11
 10
-577.37500000
 20
1145.00000000
 11
-575.37500000
 21
1147.00000000
  0
LINE
  8
LAYER_11
 10
-577.12500000
 20
1145.00000000
 11
-575.12500000
 21
1147.00000000
  0
LINE
  8
LAYER_11
 10
-577.62500000
 20
1145.00000000
 11
-575.62500000
 21
1147.00000000
  0
LINE
  8
LAYER_11
 10
-671.37500000
 20
1147.00000000
 11
-673.37500000
 21
1145.00000000
  0
LINE
  8
LAYER_11
 10
-671.62500000
 20
1147.00000000
 11
-673.62500000
 21
1145.00000000
  0
LINE
  8
LAYER_11
 10
-671.12500000
 20
1147.00000000
 11
-673.12500000
 21
1145.00000000
  0
TEXT
  1
8' 0"
  7
SPSIMP
  8
LAYER_11
 10
-629.56250000
 20
1150.93750000
 40
2.54689338
 50
0.00000000
  0
LINE
  8
LAYER_11
 10
-720.12500000
 20
1146.00000000
 11
-672.37500000
 21
1146.00000000
  0
LINE
  8
LAYER_11
 10
-673.37500000
 20
1145.00000000
 11
-671.37500000
 21
1147.00000000
  0
LINE
  8
LAYER_11
 10
-673.12500000
 20
1145.00000000
 11
-671.12500000
 21
1147.00000000
  0
LINE
  8
LAYER_11
 10
-673.62500000
 20
1145.00000000
 11
-671.62500000
 21
1147.00000000
  0
LINE
  8
LAYER_11
 10
-719.12500000
 20
1147.00000000
 11
-721.12500000
 21
1145.00000000
  0
LINE
  8
LAYER_11
 10
-719.37500000
 20
1147.00000000
 11
-721.37500000
 21
1145.00000000
  0
LINE
  8
LAYER_11
 10
-718.87500000
 20
1147.00000000
 11
-720.87500000
 21
1145.00000000
  0
TEXT
  1
3' 11 3/4"
  7
SPSIMP
  8
LAYER_11
 10
-707.37500000
 20
1155.93750000
 40
2.54689338
 50
0.00000000
  0
LINE
  8
LAYER_11
 10
-528.37500000
 20
1217.00000000
 11
-432.62500000
 21
1217.00000000
  0
LINE
  8
LAYER_11
 10
-433.62500000
 20
1216.00000000
 11
-431.62500000
 21
1218.00000000
  0
LINE
  8
LAYER_11
 10
-433.37500000
 20
1216.00000000
 11
-431.37500000
 21
1218.00000000
  0
LINE
  8
LAYER_11
 10
-433.87500000
 20
1216.00000000
 11
-431.87500000
 21
1218.00000000
  0
LINE
  8
LAYER_11
 10
-527.37500000
 20
1218.00000000
 11
-529.37500000
 21
1216.00000000
  0
LINE
  8
LAYER_11
 10
-527.62500000
 20
1218.00000000
 11
-529.62500000
 21
1216.00000000
  0
LINE
  8
LAYER_11
 10
-527.12500000
 20
1218.00000000
 11
-529.12500000
 21
1216.00000000
  0
TEXT
  1
7' 11 3/4"
  7
SPSIMP
  8
LAYER_11
 10
-491.37500000
 20
1221.93750000
 40
2.54689338
 50
0.00000000
  0
LINE
  8
LAYER_11
 10
-624.37500000
 20
1217.00000000
 11
-528.37500000
 21
1217.00000000
  0
LINE
  8
LAYER_11
 10
-529.37500000
 20
1216.00000000
 11
-527.37500000
 21
1218.00000000
  0
LINE
  8
LAYER_11
 10
-529.12500000
 20
1216.00000000
 11
-527.12500000
 21
1218.00000000
  0
LINE
  8
LAYER_11
 10
-529.62500000
 20
1216.00000000
 11
-527.62500000
 21
1218.00000000
  0
LINE
  8
LAYER_11
 10
-623.37500000
 20
1218.00000000
 11
-625.37500000
 21
1216.00000000
  0
LINE
  8
LAYER_11
 10
-623.62500000
 20
1218.00000000
 11
-625.62500000
 21
1216.00000000
  0
LINE
  8
LAYER_11
 10
-623.12500000
 20
1218.00000000
 11
-625.12500000
 21
1216.00000000
  0
TEXT
  1
8' 0"
  7
SPSIMP
  8
LAYER_11
 10
-581.56250000
 20
1226.93750000
 40
2.54689338
 50
0.00000000
  0
LINE
  8
LAYER_11
 10
-720.12500000
 20
1217.00000000
 11
-624.37500000
 21
1217.00000000
  0
LINE
  8
LAYER_11
 10
-625.37500000
 20
1216.00000000
 11
-623.37500000
 21
1218.00000000
  0
LINE
  8
LAYER_11
 10
-625.12500000
 20
1216.00000000
 11
-623.12500000
 21
1218.00000000
  0
LINE
  8
LAYER_11
 10
-625.62500000
 20
1216.00000000
 11
-623.62500000
 21
1218.00000000
  0
LINE
  8
LAYER_11
 10
-719.12500000
 20
1218.00000000
 11
-721.12500000
 21
1216.00000000
  0
LINE
  8
LAYER_11
 10
-719.37500000
 20
1218.00000000
 11
-721.37500000
 21
1216.00000000
  0
LINE
  8
LAYER_11
 10
-718.87500000
 20
1218.00000000
 11
-720.87500000
 21
1216.00000000
  0
TEXT
  1
7' 11 3/4"
  7
SPSIMP
  8
LAYER_11
 10
-683.37500000
 20
1221.93750000
 40
2.54689338
 50
0.00000000
  0
LINE
  8
LAYER_11
 10
-576.37500000
 20
1244.12500000
 11
-480.37500000
 21
1244.12500000
  0
LINE
  8
LAYER_11
 10
-481.37500000
 20
1243.12500000
 11
-479.37500000
 21
1245.12500000
  0
LINE
  8
LAYER_11
 10
-481.12500000
 20
1243.12500000
 11
-479.12500000
 21
1245.12500000
  0
LINE
  8
LAYER_11
 10
-481.62500000
 20
1243.12500000
 11
-479.62500000
 21
1245.12500000
  0
LINE
  8
LAYER_11
 10
-575.37500000
 20
1245.12500000
 11
-577.37500000
 21
1243.12500000
  0
LINE
  8
LAYER_11
 10
-575.62500000
 20
1245.12500000
 11
-577.62500000
 21
1243.12500000
  0
LINE
  8
LAYER_11
 10
-575.12500000
 20
1245.12500000
 11
-577.12500000
 21
1243.12500000
  0
TEXT
  1
8' 0"
  7
SPSIMP
  8
LAYER_11
 10
-533.56250000
 20
1249.06250000
 40
2.54689338
 50
0.00000000
  0
LINE
  8
LAYER_11
 10
-672.37500000
 20
1244.12500000
 11
-576.37500000
 21
1244.12500000
  0
LINE
  8
LAYER_11
 10
-577.37500000
 20
1243.12500000
 11
-575.37500000
 21
1245.12500000
  0
LINE
  8
LAYER_11
 10
-577.12500000
 20
1243.12500000
 11
-575.12500000
 21
1245.12500000
  0
LINE
  8
LAYER_11
 10
-577.62500000
 20
1243.12500000
 11
-575.62500000
 21
1245.12500000
  0
LINE
  8
LAYER_11
 10
-671.37500000
 20
1245.12500000
 11
-673.37500000
 21
1243.12500000
  0
LINE
  8
LAYER_11
 10
-671.62500000
 20
1245.12500000
 11
-673.62500000
 21
1243.12500000
  0
LINE
  8
LAYER_11
 10
-671.12500000
 20
1245.12500000
 11
-673.12500000
 21
1243.12500000
  0
TEXT
  1
8' 0"
  7
SPSIMP
  8
LAYER_11
 10
-629.56250000
 20
1254.06250000
 40
2.54689338
 50
0.00000000
  0
LINE
  8
LAYER_11
 10
-624.37500000
 20
1294.50000000
 11
-528.37500000
 21
1294.50000000
  0
LINE
  8
LAYER_11
 10
-529.37500000
 20
1293.50000000
 11
-527.37500000
 21
1295.50000000
  0
LINE
  8
LAYER_11
 10
-529.12500000
 20
1293.50000000
 11
-527.12500000
 21
1295.50000000
  0
LINE
  8
LAYER_11
 10
-529.62500000
 20
1293.50000000
 11
-527.62500000
 21
1295.50000000
  0
LINE
  8
LAYER_11
 10
-623.37500000
 20
1295.50000000
 11
-625.37500000
 21
1293.50000000
  0
LINE
  8
LAYER_11
 10
-623.62500000
 20
1295.50000000
 11
-625.62500000
 21
1293.50000000
  0
LINE
  8
LAYER_11
 10
-623.12500000
 20
1295.50000000
 11
-625.12500000
 21
1293.50000000
  0
TEXT
  1
8' 0"
  7
SPSIMP
  8
LAYER_11
 10
-581.56250000
 20
1299.43750000
 40
2.54689338
 50
0.00000000
  0
ENDSEC
  0
EOF
