  0
SECTION
  2
HEADER
  9
$LIMMIN
 10
0.00000000
 20
0.00000000
  9
$LIMMAX
 10
1920.00000000
 20
1284.00000000
  9
$EXTMIN
 10
0.00000000
 20
0.00000000
  9
$EXTMAX
 10
1920.00000000
 20
1284.00000000
  9
$LUNITS
 70
4
  0
ENDSEC
  0
SECTION
  2
TABLES
  0
TABLE
  2
LTYPE
 70
5
  0
LTYPE
  2
LARGE
 70
64
  3
___   ___
 72
65
 73
2
 40
20.00000000
 49
10.00000000
 49
-10.00000000
  0
LTYPE
  2
MEDIUM
 70
64
  3
__  __
 72
65
 73
2
 40
10.00000000
 49
5.00000000
 49
-5.00000000
  0
LTYPE
  2
SMALL
 70
64
  3
_ _
 72
65
 73
2
 40
5.00000000
 49
2.00000000
 49
-3.00000000
  0
LTYPE
  2
DASHDOT
 70
64
  3
___ . ___
 72
65
 73
4
 40
21.00000000
 49
15.00000000
 49
-3.00000000
 49
0.00000000
 49
-3.00000000
  0
LTYPE
  2
LONG
 70
64
  3
____ ____
 72
65
 73
2
 40
18.00000000
 49
14.00000000
 49
-4.00000000
  0
ENDTAB
  0
TABLE
  2
LAYER
 70
15
  0
LAYER
  2
LAYER_1
 70
0
 62
1
  6
CONTINUOUS
  0
LAYER
  2
LAYER_2
 70
0
 62
2
  6
CONTINUOUS
  0
LAYER
  2
LAYER_3
 70
0
 62
3
  6
CONTINUOUS
  0
LAYER
  2
LAYER_4
 70
0
 62
4
  6
CONTINUOUS
  0
LAYER
  2
LAYER_5
 70
0
 62
5
  6
CONTINUOUS
  0
LAYER
  2
LAYER_6
 70
0
 62
6
  6
CONTINUOUS
  0
LAYER
  2
LAYER_7
 70
0
 62
7
  6
CONTINUOUS
  0
LAYER
  2
LAYER_8
 70
0
 62
8
  6
CONTINUOUS
  0
LAYER
  2
LAYER_9
 70
0
 62
9
  6
CONTINUOUS
  0
LAYER
  2
LAYER_10
 70
0
 62
10
  6
CONTINUOUS
  0
LAYER
  2
LAYER_11
 70
0
 62
11
  6
CONTINUOUS
  0
LAYER
  2
LAYER_12
 70
0
 62
12
  6
CONTINUOUS
  0
LAYER
  2
LAYER_13
 70
0
 62
13
  6
CONTINUOUS
  0
LAYER
  2
LAYER_14
 70
0
 62
14
  6
CONTINUOUS
  0
LAYER
  2
LAYER_15
 70
0
 62
15
  6
CONTINUOUS
  0
ENDTAB
  0
ENDSEC
  0
SECTION
  2
ENTITIES
  0
LINE
  8
LAYER_3
 10
1127.87500000
 20
69.00000000
 11
1127.87500000
 21
55.25000000
  0
LINE
  8
LAYER_3
 10
1223.12500000
 20
69.00000000
 11
1223.12500000
 21
55.25000000
  0
LINE
  8
LAYER_3
 10
1319.12500000
 20
69.00000000
 11
1319.12500000
 21
55.25000000
  0
LINE
  8
LAYER_3
 10
1367.12500000
 20
69.00000000
 11
1367.12500000
 21
55.25000000
  0
LINE
  8
LAYER_3
 10
1399.12500000
 20
69.00000000
 11
1399.12500000
 21
55.25000000
  0
LINE
  8
LAYER_3
 10
1143.12500000
 20
69.00000000
 11
1143.12500000
 21
55.25000000
  0
LINE
  8
LAYER_3
 10
1180.12500000
 20
69.00024606
 11
1180.12500000
 21
55.25000000
  0
LINE
  8
LAYER_3
 10
1191.12500000
 20
69.00000000
 11
1191.12500000
 21
55.25000000
  0
LINE
  8
LAYER_3
 10
1207.12500000
 20
69.00000000
 11
1207.12500000
 21
55.25000000
  0
LINE
  8
LAYER_3
 10
1239.12500000
 20
69.00000000
 11
1239.12500000
 21
55.25000000
  0
LINE
  8
LAYER_3
 10
1255.12500000
 20
69.00000000
 11
1255.12500000
 21
55.25000000
  0
LINE
  8
LAYER_3
 10
1287.12500000
 20
69.00000000
 11
1287.12500000
 21
55.25000000
  0
LINE
  8
LAYER_3
 10
1303.12500000
 20
69.00000000
 11
1303.12500000
 21
55.25000000
  0
LINE
  8
LAYER_3
 10
1335.12500000
 20
69.00000000
 11
1335.12500000
 21
55.25000000
  0
LINE
  8
LAYER_3
 10
1351.12500000
 20
69.00000000
 11
1351.12500000
 21
55.25000000
  0
LINE
  8
LAYER_3
 10
1383.12500000
 20
69.00000000
 11
1383.12500000
 21
55.25000000
  0
LINE
  8
LAYER_3
 10
1415.87500000
 20
69.00000000
 11
1415.87500000
 21
55.25000000
  0
LINE
  8
LAYER_3
 10
1123.87500000
 20
71.50000000
 11
1105.37500000
 21
71.50000000
  0
LINE
  8
LAYER_3
 10
1123.87500000
 20
172.00000000
 11
1105.37500000
 21
172.00000000
  0
LINE
  8
LAYER_3
 10
1271.12500000
 20
69.00000000
 11
1271.12500000
 21
54.62500000
  0
TEXT
  1
LEFT SIDE FRAMING 2X4 WALL
  7
SPHAND
  8
LAYER_12
 10
1130.12500000
 20
45.87500000
 40
8.06549235
 50
0.00000000
  0
TEXT
  1
2-2x8 LINTEL
  7
SPSIMP
  8
LAYER_12
 10
1146.62500000
 20
155.75000000
 40
3.82048149
 50
0.00000000
  0
LINE
  8
LAYER_2
 10
1127.87500000
 20
73.00000000
 11
1415.87500000
 21
73.00000000
  0
LINE
  8
LAYER_2
 10
1415.87500000
 20
73.00000000
 11
1415.87500000
 21
71.50000000
  0
LINE
  8
LAYER_2
 10
1127.87500000
 20
71.50000000
 11
1415.87500000
 21
71.50000000
  0
LINE
  8
LAYER_2
 10
1127.87500000
 20
73.00000000
 11
1127.87500000
 21
71.50000000
  0
LINE
  8
LAYER_2
 10
1144.62500000
 20
161.00000000
 11
1181.62500000
 21
161.00000000
  0
LINE
  8
LAYER_2
 10
1181.62500000
 20
161.00000000
 11
1181.62500000
 21
153.50000000
  0
LINE
  8
LAYER_2
 10
1144.62500000
 20
153.50000000
 11
1181.62500000
 21
153.50000000
  0
LINE
  8
LAYER_2
 10
1144.62500000
 20
161.00000000
 11
1144.62500000
 21
153.50000000
  0
LINE
  8
LAYER_2
 10
1431.87500000
 20
173.75000000
 11
1431.87500000
 21
169.00000000
  0
LINE
  8
LAYER_2
 10
1111.87500000
 20
173.87500000
 11
1111.87500000
 21
169.00000000
  0
LINE
  8
LAYER_2
 10
1399.12500000
 20
169.00000000
 11
1399.12500000
 21
73.00000000
  0
LINE
  8
LAYER_2
 10
1400.37500000
 20
169.00000000
 11
1400.37500000
 21
73.00000000
  0
LINE
  8
LAYER_2
 10
1399.12500000
 20
73.00000000
 11
1400.37500000
 21
73.00000000
  0
LINE
  8
LAYER_2
 10
1414.37500000
 20
169.00000000
 11
1414.37500000
 21
73.00000000
  0
LINE
  8
LAYER_2
 10
1367.12500000
 20
169.00000000
 11
1367.12500000
 21
73.00000000
  0
LINE
  8
LAYER_2
 10
1368.25000000
 20
169.00000000
 11
1368.25000000
 21
73.00000000
  0
LINE
  8
LAYER_2
 10
1367.12500000
 20
73.00000000
 11
1368.25000000
 21
73.00000000
  0
LINE
  8
LAYER_2
 10
1319.12500000
 20
169.00000000
 11
1319.12500000
 21
73.00000000
  0
LINE
  8
LAYER_2
 10
1320.37500000
 20
169.00000000
 11
1320.37500000
 21
73.00000000
  0
LINE
  8
LAYER_2
 10
1319.12500000
 20
73.00000000
 11
1320.37500000
 21
73.00000000
  0
LINE
  8
LAYER_2
 10
1269.62500000
 20
162.50000000
 11
1269.62500000
 21
73.00000000
  0
LINE
  8
LAYER_2
 10
1271.12500000
 20
162.50000000
 11
1271.12500000
 21
73.00000000
  0
LINE
  8
LAYER_2
 10
1269.75000000
 20
73.00000000
 11
1271.00000000
 21
73.00000000
  0
LINE
  8
LAYER_2
 10
1223.12500000
 20
169.00000000
 11
1223.12500000
 21
73.00000000
  0
LINE
  8
LAYER_2
 10
1224.50000000
 20
169.00000000
 11
1224.50000000
 21
73.00000000
  0
LINE
  8
LAYER_2
 10
1223.12500000
 20
73.00000000
 11
1224.50000000
 21
73.00000000
  0
LINE
  8
LAYER_2
 10
1129.37500000
 20
169.00000000
 11
1129.37500000
 21
73.00000000
  0
LINE
  8
LAYER_2
 10
1127.87500000
 20
73.00000000
 11
1133.37500000
 21
73.00000000
  0
LINE
  8
LAYER_2
 10
1127.87500000
 20
172.00000000
 11
1415.87500000
 21
172.00000000
  0
LINE
  8
LAYER_2
 10
1133.37500000
 20
169.00000000
 11
1133.37500000
 21
73.00000000
  0
LINE
  8
LAYER_2
 10
1143.12500000
 20
169.00000000
 11
1143.12500000
 21
73.00000000
  0
LINE
  8
LAYER_2
 10
1144.62500000
 20
169.00000000
 11
1144.62500000
 21
73.00000000
  0
LINE
  8
LAYER_2
 10
1143.12500000
 20
73.00000000
 11
1146.12500000
 21
73.00000000
  0
LINE
  8
LAYER_2
 10
1146.12500000
 20
153.50000000
 11
1146.12500000
 21
73.00000000
  0
LINE
  8
LAYER_2
 10
1144.62500000
 20
153.50000000
 11
1146.12500000
 21
153.50000000
  0
LINE
  8
LAYER_2
 10
1180.12500000
 20
153.50000000
 11
1180.12500000
 21
73.00000000
  0
LINE
  8
LAYER_2
 10
1180.12500000
 20
153.50000000
 11
1181.62500000
 21
153.50000000
  0
LINE
  8
LAYER_2
 10
1180.12500000
 20
73.00000000
 11
1183.12500000
 21
73.00000000
  0
LINE
  8
LAYER_2
 10
1181.62500000
 20
169.00000000
 11
1181.62500000
 21
73.00000000
  0
LINE
  8
LAYER_2
 10
1183.12500000
 20
169.00000000
 11
1183.12500000
 21
73.00000000
  0
LINE
  8
LAYER_2
 10
1191.12500000
 20
169.00000000
 11
1191.12500000
 21
73.00000000
  0
LINE
  8
LAYER_2
 10
1192.62500000
 20
169.00000000
 11
1192.62500000
 21
73.00000000
  0
LINE
  8
LAYER_2
 10
1191.12500000
 20
73.00000000
 11
1192.62500000
 21
73.00000000
  0
LINE
  8
LAYER_2
 10
1207.12500000
 20
169.00000000
 11
1207.12500000
 21
73.00000000
  0
LINE
  8
LAYER_2
 10
1208.62500000
 20
169.00000000
 11
1208.62500000
 21
73.00000000
  0
LINE
  8
LAYER_2
 10
1207.12500000
 20
73.00000000
 11
1208.62500000
 21
73.00000000
  0
LINE
  8
LAYER_2
 10
1239.12500000
 20
169.00000000
 11
1239.12500000
 21
73.00000000
  0
LINE
  8
LAYER_2
 10
1240.62500000
 20
169.00000000
 11
1240.62500000
 21
73.00000000
  0
LINE
  8
LAYER_2
 10
1239.12500000
 20
73.00000000
 11
1240.62500000
 21
73.00000000
  0
LINE
  8
LAYER_2
 10
1255.12500000
 20
169.00000000
 11
1255.12500000
 21
73.00000000
  0
LINE
  8
LAYER_2
 10
1256.62500000
 20
169.00000000
 11
1256.62500000
 21
73.00000000
  0
LINE
  8
LAYER_2
 10
1255.12500000
 20
73.00000000
 11
1256.62500000
 21
73.00000000
  0
LINE
  8
LAYER_2
 10
1287.12500000
 20
169.00000000
 11
1287.12500000
 21
73.00000000
  0
LINE
  8
LAYER_2
 10
1288.62500000
 20
169.00000000
 11
1288.62500000
 21
73.00000000
  0
LINE
  8
LAYER_2
 10
1287.12500000
 20
73.00000000
 11
1288.62500000
 21
73.00000000
  0
LINE
  8
LAYER_2
 10
1303.12500000
 20
169.00000000
 11
1303.12500000
 21
73.00000000
  0
LINE
  8
LAYER_2
 10
1304.62500000
 20
169.00000000
 11
1304.62500000
 21
73.00000000
  0
LINE
  8
LAYER_2
 10
1303.12500000
 20
73.00000000
 11
1304.62500000
 21
73.00000000
  0
LINE
  8
LAYER_2
 10
1335.12500000
 20
169.00000000
 11
1335.12500000
 21
73.00000000
  0
LINE
  8
LAYER_2
 10
1336.62500000
 20
169.00000000
 11
1336.62500000
 21
73.00000000
  0
LINE
  8
LAYER_2
 10
1335.12500000
 20
73.00000000
 11
1336.62500000
 21
73.00000000
  0
LINE
  8
LAYER_2
 10
1351.12500000
 20
169.00000000
 11
1351.12500000
 21
73.00000000
  0
LINE
  8
LAYER_2
 10
1352.62500000
 20
169.00000000
 11
1352.62500000
 21
73.00000000
  0
LINE
  8
LAYER_2
 10
1351.12500000
 20
73.00000000
 11
1352.62500000
 21
73.00000000
  0
LINE
  8
LAYER_2
 10
1383.12500000
 20
169.00000000
 11
1383.12500000
 21
73.00000000
  0
LINE
  8
LAYER_2
 10
1384.62500000
 20
169.00000000
 11
1384.62500000
 21
73.00000000
  0
LINE
  8
LAYER_2
 10
1383.12500000
 20
73.00000000
 11
1384.62500000
 21
73.00000000
  0
LINE
  8
LAYER_2
 10
1410.37500000
 20
169.00000000
 11
1410.37500000
 21
73.00000000
  0
LINE
  8
LAYER_2
 10
1410.37500000
 20
73.00000000
 11
1415.87500000
 21
73.00000000
  0
LINE
  8
LAYER_2
 10
1180.12500000
 20
169.00000000
 11
1180.12500000
 21
161.00000000
  0
LINE
  8
LAYER_2
 10
1146.12500000
 20
169.00000000
 11
1146.12500000
 21
161.00000000
  0
LINE
  8
LAYER_2
 10
1159.12500000
 20
169.00000000
 11
1159.12500000
 21
161.00000000
  0
LINE
  8
LAYER_2
 10
1160.62500000
 20
169.00000000
 11
1160.62500000
 21
161.00000000
  0
LINE
  8
LAYER_2
 10
1175.12500000
 20
169.00000000
 11
1175.12500000
 21
161.00000000
  0
LINE
  8
LAYER_2
 10
1176.62500000
 20
169.00000000
 11
1176.62500000
 21
161.00000000
  0
LINE
  8
LAYER_2
 10
1111.87500000
 20
173.87500000
 11
1271.75000000
 21
333.87500000
  0
LINE
  8
LAYER_2
 10
1271.75000000
 20
333.87500000
 11
1431.87500000
 21
173.75000000
  0
LINE
  8
LAYER_2
 10
1117.62500000
 20
169.00000000
 11
1127.75000000
 21
179.25000000
  0
LINE
  8
LAYER_2
 10
1274.00000000
 20
320.62500000
 11
1316.75000000
 21
277.87500000
  0
LINE
  8
LAYER_2
 10
1415.87500000
 20
181.87500000
 11
1415.87500000
 21
172.00000000
  0
LINE
  8
LAYER_2
 10
1127.87500000
 20
172.00000000
 11
1415.87500000
 21
172.00000000
  0
LINE
  8
LAYER_2
 10
1127.87500000
 20
170.50000000
 11
1268.12500000
 21
170.50000000
  0
LINE
  8
LAYER_2
 10
1127.87500000
 20
172.00000000
 11
1127.87500000
 21
73.00000000
  0
LINE
  8
LAYER_2
 10
1415.87500000
 20
172.00000000
 11
1415.87500000
 21
73.00000000
  0
LINE
  8
LAYER_2
 10
1127.87500000
 20
169.00000000
 11
1268.12500000
 21
169.00000000
  0
LINE
  8
LAYER_2
 10
1127.87500000
 20
181.25000000
 11
1127.87500000
 21
172.00000000
  0
LINE
  8
LAYER_2
 10
1127.87500000
 20
181.25000000
 11
1415.87500000
 21
181.25000000
  0
LINE
  8
LAYER_2
 10
1111.87500000
 20
169.00000000
 11
1117.62500000
 21
169.00000000
  0
LINE
  8
LAYER_2
 10
1131.87500000
 20
183.37500000
 11
1224.87500000
 21
276.37500000
  0
LINE
  8
LAYER_2
 10
1426.12500000
 20
169.00000000
 11
1431.87500000
 21
169.00000000
  0
LINE
  8
LAYER_2
 10
1415.87500000
 20
179.25000000
 11
1426.12500000
 21
169.00000000
  0
LINE
  8
LAYER_2
 10
1271.75000000
 20
329.00000000
 11
1431.75000000
 21
169.00000000
  0
LINE
  8
LAYER_2
 10
1111.87500000
 20
169.00000000
 11
1271.75000000
 21
329.00000000
  0
LINE
  8
LAYER_2
 10
1127.87500000
 20
181.87500000
 11
1127.87500000
 21
181.25000000
  0
LINE
  8
LAYER_2
 10
1133.25000000
 20
181.87500000
 11
1415.87500000
 21
181.87500000
  0
LINE
  8
LAYER_2
 10
1133.37500000
 20
183.37500000
 11
1411.12500000
 21
183.37500000
  0
LINE
  8
LAYER_2
 10
1128.25000000
 20
183.37500000
 11
1271.75000000
 21
327.00000000
  0
LINE
  8
LAYER_2
 10
1130.25000000
 20
183.37500000
 11
1269.50000000
 21
322.75000000
  0
LINE
  8
LAYER_2
 10
1127.12500000
 20
184.12500000
 11
1127.87500000
 21
183.37500000
  0
LINE
  8
LAYER_2
 10
1274.00000000
 20
322.62500000
 11
1413.25000000
 21
183.37500000
  0
LINE
  8
LAYER_2
 10
1271.75000000
 20
327.00000000
 11
1415.25000000
 21
183.37500000
  0
LINE
  8
LAYER_2
 10
1415.87500000
 20
183.37500000
 11
1416.62500000
 21
184.12500000
  0
LINE
  8
LAYER_2
 10
1143.12500000
 20
194.50000000
 11
1143.12500000
 21
183.37500000
  0
LINE
  8
LAYER_2
 10
1144.62500000
 20
196.12500000
 11
1144.62500000
 21
183.37500000
  0
LINE
  8
LAYER_2
 10
1159.12500000
 20
210.62500000
 11
1159.12500000
 21
183.37500000
  0
LINE
  8
LAYER_2
 10
1160.62500000
 20
212.12500000
 11
1160.62500000
 21
183.37500000
  0
LINE
  8
LAYER_2
 10
1175.12500000
 20
226.62500000
 11
1175.12500000
 21
183.37500000
  0
LINE
  8
LAYER_2
 10
1176.62500000
 20
228.12500000
 11
1176.62500000
 21
183.37500000
  0
LINE
  8
LAYER_2
 10
1191.12500000
 20
242.50000000
 11
1191.12500000
 21
183.37500000
  0
LINE
  8
LAYER_2
 10
1192.62500000
 20
244.00000000
 11
1192.62500000
 21
183.37500000
  0
LINE
  8
LAYER_2
 10
1207.12500000
 20
258.50000000
 11
1207.12500000
 21
183.37500000
  0
LINE
  8
LAYER_2
 10
1208.62500000
 20
260.12500000
 11
1208.62500000
 21
183.37500000
  0
LINE
  8
LAYER_2
 10
1223.12500000
 20
274.62500000
 11
1223.12500000
 21
183.37500000
  0
LINE
  8
LAYER_2
 10
1224.62500000
 20
276.12500000
 11
1224.62500000
 21
183.37500000
  0
LINE
  8
LAYER_2
 10
1239.12500000
 20
290.62500000
 11
1239.12500000
 21
277.87500000
  0
LINE
  8
LAYER_2
 10
1240.62500000
 20
292.12500000
 11
1240.62500000
 21
277.87500000
  0
LINE
  8
LAYER_2
 10
1255.12500000
 20
306.50000000
 11
1255.12500000
 21
277.87500000
  0
LINE
  8
LAYER_2
 10
1256.62500000
 20
308.00000000
 11
1256.62500000
 21
277.87500000
  0
LINE
  8
LAYER_2
 10
1271.12500000
 20
314.62500000
 11
1271.12500000
 21
277.87500000
  0
LINE
  8
LAYER_2
 10
1272.62500000
 20
314.62500000
 11
1272.62500000
 21
277.87500000
  0
LINE
  8
LAYER_2
 10
1287.12500000
 20
307.50000000
 11
1287.12500000
 21
277.87500000
  0
LINE
  8
LAYER_2
 10
1288.62500000
 20
306.00000000
 11
1288.62500000
 21
277.87500000
  0
LINE
  8
LAYER_2
 10
1303.12500000
 20
291.50000000
 11
1303.12500000
 21
277.87500000
  0
LINE
  8
LAYER_2
 10
1304.62500000
 20
290.00000000
 11
1304.62500000
 21
277.87500000
  0
LINE
  8
LAYER_2
 10
1319.12500000
 20
275.87500000
 11
1319.12500000
 21
183.37500000
  0
LINE
  8
LAYER_2
 10
1320.62500000
 20
274.37500000
 11
1320.62500000
 21
183.37500000
  0
LINE
  8
LAYER_2
 10
1335.12500000
 20
259.87500000
 11
1335.12500000
 21
183.37500000
  0
LINE
  8
LAYER_2
 10
1336.62500000
 20
258.37500000
 11
1336.62500000
 21
183.37500000
  0
LINE
  8
LAYER_2
 10
1351.12500000
 20
243.75000000
 11
1351.12500000
 21
183.37500000
  0
LINE
  8
LAYER_2
 10
1352.62500000
 20
242.25000000
 11
1352.62500000
 21
183.37500000
  0
LINE
  8
LAYER_2
 10
1367.12500000
 20
227.75000000
 11
1367.12500000
 21
183.37500000
  0
LINE
  8
LAYER_2
 10
1368.62500000
 20
226.25000000
 11
1368.62500000
 21
183.37500000
  0
LINE
  8
LAYER_2
 10
1383.12500000
 20
211.75000000
 11
1383.12500000
 21
183.37500000
  0
LINE
  8
LAYER_2
 10
1384.62500000
 20
210.25000000
 11
1384.62500000
 21
183.37500000
  0
LINE
  8
LAYER_2
 10
1399.12500000
 20
195.75000000
 11
1399.12500000
 21
183.37500000
  0
LINE
  8
LAYER_2
 10
1400.62500000
 20
194.25000000
 11
1400.62500000
 21
183.37500000
  0
LINE
  8
LAYER_2
 10
1224.75000000
 20
277.87500000
 11
1318.75000000
 21
277.87500000
  0
LINE
  8
LAYER_2
 10
1223.25000000
 20
276.37500000
 11
1320.25000000
 21
276.37500000
  0
LINE
  8
LAYER_2
 10
1318.62500000
 20
276.37500000
 11
1411.50000000
 21
183.37500000
  0
LINE
  8
LAYER_2
 10
1287.12500000
 20
276.37500000
 11
1287.12500000
 21
183.37500000
  0
LINE
  8
LAYER_2
 10
1288.62500000
 20
276.37500000
 11
1288.62500000
 21
183.37500000
  0
LINE
  8
LAYER_2
 10
1303.12500000
 20
276.37500000
 11
1303.12500000
 21
183.37500000
  0
LINE
  8
LAYER_2
 10
1304.62500000
 20
276.37500000
 11
1304.62500000
 21
183.37500000
  0
LINE
  8
LAYER_2
 10
1255.12500000
 20
276.37500000
 11
1255.12500000
 21
183.37500000
  0
LINE
  8
LAYER_2
 10
1256.62500000
 20
276.37500000
 11
1256.62500000
 21
183.37500000
  0
LINE
  8
LAYER_2
 10
1271.12500000
 20
276.37500000
 11
1271.12500000
 21
183.37500000
  0
LINE
  8
LAYER_2
 10
1272.62500000
 20
276.37500000
 11
1272.62500000
 21
183.37500000
  0
LINE
  8
LAYER_2
 10
1239.12500000
 20
276.37500000
 11
1239.12500000
 21
183.37500000
  0
LINE
  8
LAYER_2
 10
1240.62500000
 20
276.37500000
 11
1240.62500000
 21
183.37500000
  0
LINE
  8
LAYER_2
 10
1226.37500000
 20
277.87500000
 11
1269.50000000
 21
321.12500000
  0
LINE
  8
LAYER_2
 10
1268.12500000
 20
163.00000000
 11
1268.12500000
 21
73.00000000
  0
LINE
  8
LAYER_2
 10
1272.62500000
 20
162.50000000
 11
1272.62500000
 21
73.00000000
  0
LINE
  8
LAYER_2
 10
1274.12500000
 20
162.50000000
 11
1274.12500000
 21
73.00000000
  0
LINE
  8
LAYER_2
 10
1268.12500000
 20
162.50000000
 11
1274.12500000
 21
162.50000000
  0
LINE
  8
LAYER_2
 10
1274.12500000
 20
163.00000000
 11
1274.12500000
 21
162.50000000
  0
LINE
  8
LAYER_2
 10
1274.12500000
 20
169.00000000
 11
1415.87500000
 21
169.00000000
  0
LINE
  8
LAYER_2
 10
1275.62500000
 20
169.00000000
 11
1275.62500000
 21
73.00000000
  0
LINE
  8
LAYER_2
 10
1266.62500000
 20
169.00000000
 11
1266.62500000
 21
73.00000000
  0
LINE
  8
LAYER_2
 10
1412.37500000
 20
172.00000000
 11
1412.37500000
 21
170.50000000
  0
LINE
  8
LAYER_2
 10
1131.37500000
 20
172.00000000
 11
1131.37500000
 21
170.50000000
  0
LINE
  8
LAYER_2
 10
1127.87500000
 20
281.12500000
 11
1127.87500000
 21
189.87500000
  0
LINE
  8
LAYER_2
 10
1127.87500000
 20
281.12500000
 11
1264.75000000
 21
326.75000000
  0
LINE
  8
LAYER_2
 10
1127.87500000
 20
279.62500000
 11
1262.62500000
 21
324.62500000
  0
LINE
  8
LAYER_2
 10
1127.87500000
 20
278.25000000
 11
1260.12500000
 21
322.25000000
  0
LINE
  8
LAYER_2
 10
1129.37500000
 20
278.75000000
 11
1129.37500000
 21
191.50000000
  0
LINE
  8
LAYER_2
 10
1143.62500000
 20
283.50000000
 11
1143.62500000
 21
205.62500000
  0
LINE
  8
LAYER_2
 10
1145.12500000
 20
284.00000000
 11
1145.12500000
 21
207.12500000
  0
LINE
  8
LAYER_2
 10
1159.62500000
 20
288.87500000
 11
1159.62500000
 21
221.62500000
  0
LINE
  8
LAYER_2
 10
1161.12500000
 20
289.25000000
 11
1161.12500000
 21
223.12500000
  0
LINE
  8
LAYER_2
 10
1175.62500000
 20
294.12500000
 11
1175.62500000
 21
237.62500000
  0
LINE
  8
LAYER_2
 10
1177.12500000
 20
294.62500000
 11
1177.12500000
 21
239.12500000
  0
LINE
  8
LAYER_2
 10
1191.62500000
 20
299.50000000
 11
1191.62500000
 21
253.62500000
  0
LINE
  8
LAYER_2
 10
1193.12500000
 20
300.00000000
 11
1193.12500000
 21
255.12500000
  0
LINE
  8
LAYER_2
 10
1207.62500000
 20
304.75000000
 11
1207.62500000
 21
269.62500000
  0
LINE
  8
LAYER_2
 10
1209.12500000
 20
305.25000000
 11
1209.12500000
 21
271.12500000
  0
LINE
  8
LAYER_2
 10
1223.62500000
 20
310.12500000
 11
1223.62500000
 21
285.62500000
  0
LINE
  8
LAYER_2
 10
1225.12500000
 20
310.62500000
 11
1225.12500000
 21
287.12500000
  0
LINE
  8
LAYER_2
 10
1239.62500000
 20
315.37500000
 11
1239.62500000
 21
301.62500000
  0
LINE
  8
LAYER_2
 10
1241.12500000
 20
315.87500000
 11
1241.12500000
 21
303.12500000
  0
LINE
  8
LAYER_2
 10
1255.62500000
 20
320.75000000
 11
1255.62500000
 21
317.62500000
  0
LINE
  8
LAYER_2
 10
1257.12500000
 20
321.25000000
 11
1257.12500000
 21
319.12500000
  0
LINE
  8
LAYER_2
 10
1272.62500000
 20
163.00000000
 11
1272.62500000
 21
162.50000000
  0
LINE
  8
LAYER_2
 10
1271.12500000
 20
163.00000000
 11
1271.12500000
 21
162.50000000
  0
LINE
  8
LAYER_2
 10
1269.62500000
 20
163.00000000
 11
1269.62500000
 21
162.50000000
  0
LINE
  8
LAYER_2
 10
1274.12500000
 20
170.50000000
 11
1415.87500000
 21
170.50000000
  0
LINE
  8
LAYER_2
 10
1274.12500000
 20
314.62500000
 11
1274.12500000
 21
277.87500000
  0
LINE
  8
LAYER_2
 10
1274.12500000
 20
276.37500000
 11
1274.12500000
 21
183.37500000
  0
LINE
  8
LAYER_2
 10
1269.62500000
 20
314.62500000
 11
1269.62500000
 21
277.87500000
  0
LINE
  8
LAYER_2
 10
1269.62500000
 20
276.37500000
 11
1269.62500000
 21
183.37500000
  0
LINE
  8
LAYER_2
 10
1127.87500000
 20
183.37500000
 11
1133.37500000
 21
183.37500000
  0
LINE
  8
LAYER_2
 10
1133.37500000
 20
183.37500000
 11
1133.37500000
 21
181.87500000
  0
LINE
  8
LAYER_2
 10
1127.87500000
 20
181.87500000
 11
1133.37500000
 21
181.87500000
  0
LINE
  8
LAYER_2
 10
1127.87500000
 20
183.37500000
 11
1127.87500000
 21
181.87500000
  0
LINE
  8
LAYER_2
 10
1127.87500000
 20
181.87500000
 11
1133.37500000
 21
183.37500000
  0
LINE
  8
LAYER_2
 10
1133.37500000
 20
181.87500000
 11
1127.87500000
 21
183.37500000
  0
LINE
  8
LAYER_2
 10
1410.37500000
 20
183.37500000
 11
1415.87500000
 21
183.37500000
  0
LINE
  8
LAYER_2
 10
1415.87500000
 20
183.37500000
 11
1415.87500000
 21
181.87500000
  0
LINE
  8
LAYER_2
 10
1410.37500000
 20
181.87500000
 11
1415.87500000
 21
181.87500000
  0
LINE
  8
LAYER_2
 10
1410.37500000
 20
183.37500000
 11
1410.37500000
 21
181.87500000
  0
LINE
  8
LAYER_2
 10
1410.37500000
 20
181.87500000
 11
1415.87500000
 21
183.37500000
  0
LINE
  8
LAYER_2
 10
1415.87500000
 20
181.87500000
 11
1410.37500000
 21
183.37500000
  0
LINE
  8
LAYER_2
 10
1272.62500000
 20
172.00000000
 11
1274.12500000
 21
172.00000000
  0
LINE
  8
LAYER_2
 10
1274.12500000
 20
172.00000000
 11
1274.12500000
 21
162.50000000
  0
LINE
  8
LAYER_2
 10
1272.62500000
 20
162.50000000
 11
1274.12500000
 21
162.50000000
  0
LINE
  8
LAYER_2
 10
1272.62500000
 20
172.00000000
 11
1272.62500000
 21
162.50000000
  0
LINE
  8
LAYER_2
 10
1272.62500000
 20
162.50000000
 11
1274.12500000
 21
172.00000000
  0
LINE
  8
LAYER_2
 10
1274.12500000
 20
162.50000000
 11
1272.62500000
 21
172.00000000
  0
LINE
  8
LAYER_2
 10
1271.12500000
 20
172.00000000
 11
1272.62500000
 21
172.00000000
  0
LINE
  8
LAYER_2
 10
1272.62500000
 20
172.00000000
 11
1272.62500000
 21
162.50000000
  0
LINE
  8
LAYER_2
 10
1271.12500000
 20
162.50000000
 11
1272.62500000
 21
162.50000000
  0
LINE
  8
LAYER_2
 10
1271.12500000
 20
172.00000000
 11
1271.12500000
 21
162.50000000
  0
LINE
  8
LAYER_2
 10
1271.12500000
 20
162.50000000
 11
1272.62500000
 21
172.00000000
  0
LINE
  8
LAYER_2
 10
1272.62500000
 20
162.50000000
 11
1271.12500000
 21
172.00000000
  0
LINE
  8
LAYER_2
 10
1269.62500000
 20
172.00000000
 11
1271.12500000
 21
172.00000000
  0
LINE
  8
LAYER_2
 10
1271.12500000
 20
172.00000000
 11
1271.12500000
 21
162.50000000
  0
LINE
  8
LAYER_2
 10
1269.62500000
 20
162.50000000
 11
1271.12500000
 21
162.50000000
  0
LINE
  8
LAYER_2
 10
1269.62500000
 20
172.00000000
 11
1269.62500000
 21
162.50000000
  0
LINE
  8
LAYER_2
 10
1269.62500000
 20
162.50000000
 11
1271.12500000
 21
172.00000000
  0
LINE
  8
LAYER_2
 10
1271.12500000
 20
162.50000000
 11
1269.62500000
 21
172.00000000
  0
LINE
  8
LAYER_2
 10
1268.12500000
 20
172.00000000
 11
1269.62500000
 21
172.00000000
  0
LINE
  8
LAYER_2
 10
1269.62500000
 20
172.00000000
 11
1269.62500000
 21
162.50000000
  0
LINE
  8
LAYER_2
 10
1268.12500000
 20
162.50000000
 11
1269.62500000
 21
162.50000000
  0
LINE
  8
LAYER_2
 10
1268.12500000
 20
172.00000000
 11
1268.12500000
 21
162.50000000
  0
LINE
  8
LAYER_2
 10
1268.12500000
 20
162.50000000
 11
1269.62500000
 21
172.00000000
  0
LINE
  8
LAYER_2
 10
1269.62500000
 20
162.50000000
 11
1268.12500000
 21
172.00000000
  0
LINE
  8
LAYER_2
 10
1271.00000000
 20
323.87500000
 11
1272.50000000
 21
323.87500000
  0
LINE
  8
LAYER_2
 10
1272.50000000
 20
323.87500000
 11
1272.50000000
 21
314.62500000
  0
LINE
  8
LAYER_2
 10
1271.00000000
 20
314.62500000
 11
1272.50000000
 21
314.62500000
  0
LINE
  8
LAYER_2
 10
1271.00000000
 20
323.87500000
 11
1271.00000000
 21
314.62500000
  0
LINE
  8
LAYER_2
 10
1271.00000000
 20
314.62500000
 11
1272.50000000
 21
323.87500000
  0
LINE
  8
LAYER_2
 10
1272.50000000
 20
314.62500000
 11
1271.00000000
 21
323.87500000
  0
LINE
  8
LAYER_2
 10
1269.50000000
 20
323.87500000
 11
1271.00000000
 21
323.87500000
  0
LINE
  8
LAYER_2
 10
1271.00000000
 20
323.87500000
 11
1271.00000000
 21
314.62500000
  0
LINE
  8
LAYER_2
 10
1269.50000000
 20
314.62500000
 11
1271.00000000
 21
314.62500000
  0
LINE
  8
LAYER_2
 10
1269.50000000
 20
323.87500000
 11
1269.50000000
 21
314.62500000
  0
LINE
  8
LAYER_2
 10
1269.50000000
 20
314.62500000
 11
1271.00000000
 21
323.87500000
  0
LINE
  8
LAYER_2
 10
1271.00000000
 20
314.62500000
 11
1269.50000000
 21
323.87500000
  0
LINE
  8
LAYER_2
 10
1272.50000000
 20
323.87500000
 11
1274.00000000
 21
323.87500000
  0
LINE
  8
LAYER_2
 10
1274.00000000
 20
323.87500000
 11
1274.00000000
 21
314.62500000
  0
LINE
  8
LAYER_2
 10
1272.50000000
 20
314.62500000
 11
1274.00000000
 21
314.62500000
  0
LINE
  8
LAYER_2
 10
1272.50000000
 20
323.87500000
 11
1272.50000000
 21
314.62500000
  0
LINE
  8
LAYER_2
 10
1272.50000000
 20
314.62500000
 11
1274.00000000
 21
323.87500000
  0
LINE
  8
LAYER_2
 10
1274.00000000
 20
314.62500000
 11
1272.50000000
 21
323.87500000
  0
LINE
  8
LAYER_11
 10
1127.87500000
 20
57.25000000
 11
1143.12500000
 21
57.25000000
  0
LINE
  8
LAYER_11
 10
1142.12500000
 20
56.25000000
 11
1144.12500000
 21
58.25000000
  0
LINE
  8
LAYER_11
 10
1142.37500000
 20
56.25000000
 11
1144.37500000
 21
58.25000000
  0
LINE
  8
LAYER_11
 10
1141.87500000
 20
56.25000000
 11
1143.87500000
 21
58.25000000
  0
LINE
  8
LAYER_11
 10
1128.87500000
 20
58.25000000
 11
1126.87500000
 21
56.25000000
  0
LINE
  8
LAYER_11
 10
1128.62500000
 20
58.25000000
 11
1126.62500000
 21
56.25000000
  0
LINE
  8
LAYER_11
 10
1129.12500000
 20
58.25000000
 11
1127.12500000
 21
56.25000000
  0
TEXT
  1
1' 3 1/4"
  7
SPSIMP
  8
LAYER_11
 10
1125.75000000
 20
62.18750000
 40
2.54689338
 50
0.00000000
  0
LINE
  8
LAYER_11
 10
1143.12500000
 20
57.25000000
 11
1180.12500000
 21
57.25000000
  0
LINE
  8
LAYER_11
 10
1179.12500000
 20
56.25000000
 11
1181.12500000
 21
58.25000000
  0
LINE
  8
LAYER_11
 10
1179.37500000
 20
56.25000000
 11
1181.37500000
 21
58.25000000
  0
LINE
  8
LAYER_11
 10
1178.87500000
 20
56.25000000
 11
1180.87500000
 21
58.25000000
  0
LINE
  8
LAYER_11
 10
1144.12500000
 20
58.25000000
 11
1142.12500000
 21
56.25000000
  0
LINE
  8
LAYER_11
 10
1143.87500000
 20
58.25000000
 11
1141.87500000
 21
56.25000000
  0
LINE
  8
LAYER_11
 10
1144.37500000
 20
58.25000000
 11
1142.37500000
 21
56.25000000
  0
TEXT
  1
3' 1"
  7
SPSIMP
  8
LAYER_11
 10
1156.68750000
 20
67.18750000
 40
2.54689338
 50
0.00000000
  0
LINE
  8
LAYER_11
 10
1180.12500000
 20
57.25000000
 11
1191.12500000
 21
57.25000000
  0
LINE
  8
LAYER_11
 10
1190.12500000
 20
56.25000000
 11
1192.12500000
 21
58.25000000
  0
LINE
  8
LAYER_11
 10
1190.37500000
 20
56.25000000
 11
1192.37500000
 21
58.25000000
  0
LINE
  8
LAYER_11
 10
1189.87500000
 20
56.25000000
 11
1191.87500000
 21
58.25000000
  0
LINE
  8
LAYER_11
 10
1181.12500000
 20
58.25000000
 11
1179.12500000
 21
56.25000000
  0
LINE
  8
LAYER_11
 10
1180.87500000
 20
58.25000000
 11
1178.87500000
 21
56.25000000
  0
LINE
  8
LAYER_11
 10
1181.37500000
 20
58.25000000
 11
1179.37500000
 21
56.25000000
  0
TEXT
  1
11"
  7
SPSIMP
  8
LAYER_11
 10
1182.68750000
 20
62.18750000
 40
2.54689338
 50
0.00000000
  0
LINE
  8
LAYER_11
 10
1191.12500000
 20
57.25000000
 11
1207.12500000
 21
57.25000000
  0
LINE
  8
LAYER_11
 10
1206.12500000
 20
56.25000000
 11
1208.12500000
 21
58.25000000
  0
LINE
  8
LAYER_11
 10
1206.37500000
 20
56.25000000
 11
1208.37500000
 21
58.25000000
  0
LINE
  8
LAYER_11
 10
1205.87500000
 20
56.25000000
 11
1207.87500000
 21
58.25000000
  0
LINE
  8
LAYER_11
 10
1192.12500000
 20
58.25000000
 11
1190.12500000
 21
56.25000000
  0
LINE
  8
LAYER_11
 10
1191.87500000
 20
58.25000000
 11
1189.87500000
 21
56.25000000
  0
LINE
  8
LAYER_11
 10
1192.37500000
 20
58.25000000
 11
1190.37500000
 21
56.25000000
  0
TEXT
  1
1' 4"
  7
SPSIMP
  8
LAYER_11
 10
1194.18750000
 20
67.18750000
 40
2.54689338
 50
0.00000000
  0
LINE
  8
LAYER_11
 10
1207.12500000
 20
57.25000000
 11
1223.12500000
 21
57.25000000
  0
LINE
  8
LAYER_11
 10
1222.12500000
 20
56.25000000
 11
1224.12500000
 21
58.25000000
  0
LINE
  8
LAYER_11
 10
1222.37500000
 20
56.25000000
 11
1224.37500000
 21
58.25000000
  0
LINE
  8
LAYER_11
 10
1221.87500000
 20
56.25000000
 11
1223.87500000
 21
58.25000000
  0
LINE
  8
LAYER_11
 10
1208.12500000
 20
58.25000000
 11
1206.12500000
 21
56.25000000
  0
LINE
  8
LAYER_11
 10
1207.87500000
 20
58.25000000
 11
1205.87500000
 21
56.25000000
  0
LINE
  8
LAYER_11
 10
1208.37500000
 20
58.25000000
 11
1206.37500000
 21
56.25000000
  0
TEXT
  1
1' 4"
  7
SPSIMP
  8
LAYER_11
 10
1210.18750000
 20
62.18750000
 40
2.54689338
 50
0.00000000
  0
LINE
  8
LAYER_11
 10
1223.12500000
 20
57.25000000
 11
1239.12500000
 21
57.25000000
  0
LINE
  8
LAYER_11
 10
1238.12500000
 20
56.25000000
 11
1240.12500000
 21
58.25000000
  0
LINE
  8
LAYER_11
 10
1238.37500000
 20
56.25000000
 11
1240.37500000
 21
58.25000000
  0
LINE
  8
LAYER_11
 10
1237.87500000
 20
56.25000000
 11
1239.87500000
 21
58.25000000
  0
LINE
  8
LAYER_11
 10
1224.12500000
 20
58.25000000
 11
1222.12500000
 21
56.25000000
  0
LINE
  8
LAYER_11
 10
1223.87500000
 20
58.25000000
 11
1221.87500000
 21
56.25000000
  0
LINE
  8
LAYER_11
 10
1224.37500000
 20
58.25000000
 11
1222.37500000
 21
56.25000000
  0
TEXT
  1
1' 4"
  7
SPSIMP
  8
LAYER_11
 10
1226.18750000
 20
67.18750000
 40
2.54689338
 50
0.00000000
  0
LINE
  8
LAYER_11
 10
1239.12500000
 20
57.25000000
 11
1255.12500000
 21
57.25000000
  0
LINE
  8
LAYER_11
 10
1254.12500000
 20
56.25000000
 11
1256.12500000
 21
58.25000000
  0
LINE
  8
LAYER_11
 10
1254.37500000
 20
56.25000000
 11
1256.37500000
 21
58.25000000
  0
LINE
  8
LAYER_11
 10
1253.87500000
 20
56.25000000
 11
1255.87500000
 21
58.25000000
  0
LINE
  8
LAYER_11
 10
1240.12500000
 20
58.25000000
 11
1238.12500000
 21
56.25000000
  0
LINE
  8
LAYER_11
 10
1239.87500000
 20
58.25000000
 11
1237.87500000
 21
56.25000000
  0
LINE
  8
LAYER_11
 10
1240.37500000
 20
58.25000000
 11
1238.37500000
 21
56.25000000
  0
TEXT
  1
1' 4"
  7
SPSIMP
  8
LAYER_11
 10
1242.18750000
 20
62.18750000
 40
2.54689338
 50
0.00000000
  0
LINE
  8
LAYER_11
 10
1287.12500000
 20
57.25000000
 11
1303.12500000
 21
57.25000000
  0
LINE
  8
LAYER_11
 10
1302.12500000
 20
56.25000000
 11
1304.12500000
 21
58.25000000
  0
LINE
  8
LAYER_11
 10
1302.37500000
 20
56.25000000
 11
1304.37500000
 21
58.25000000
  0
LINE
  8
LAYER_11
 10
1301.87500000
 20
56.25000000
 11
1303.87500000
 21
58.25000000
  0
LINE
  8
LAYER_11
 10
1288.12500000
 20
58.25000000
 11
1286.12500000
 21
56.25000000
  0
LINE
  8
LAYER_11
 10
1287.87500000
 20
58.25000000
 11
1285.87500000
 21
56.25000000
  0
LINE
  8
LAYER_11
 10
1288.37500000
 20
58.25000000
 11
1286.37500000
 21
56.25000000
  0
TEXT
  1
1' 4"
  7
SPSIMP
  8
LAYER_11
 10
1290.18750000
 20
67.18750000
 40
2.54689338
 50
0.00000000
  0
LINE
  8
LAYER_11
 10
1303.12500000
 20
57.25000000
 11
1319.12500000
 21
57.25000000
  0
LINE
  8
LAYER_11
 10
1318.12500000
 20
56.25000000
 11
1320.12500000
 21
58.25000000
  0
LINE
  8
LAYER_11
 10
1318.37500000
 20
56.25000000
 11
1320.37500000
 21
58.25000000
  0
LINE
  8
LAYER_11
 10
1317.87500000
 20
56.25000000
 11
1319.87500000
 21
58.25000000
  0
LINE
  8
LAYER_11
 10
1304.12500000
 20
58.25000000
 11
1302.12500000
 21
56.25000000
  0
LINE
  8
LAYER_11
 10
1303.87500000
 20
58.25000000
 11
1301.87500000
 21
56.25000000
  0
LINE
  8
LAYER_11
 10
1304.37500000
 20
58.25000000
 11
1302.37500000
 21
56.25000000
  0
TEXT
  1
1' 4"
  7
SPSIMP
  8
LAYER_11
 10
1306.18750000
 20
62.18750000
 40
2.54689338
 50
0.00000000
  0
LINE
  8
LAYER_11
 10
1319.12500000
 20
57.25000000
 11
1335.12500000
 21
57.25000000
  0
LINE
  8
LAYER_11
 10
1334.12500000
 20
56.25000000
 11
1336.12500000
 21
58.25000000
  0
LINE
  8
LAYER_11
 10
1334.37500000
 20
56.25000000
 11
1336.37500000
 21
58.25000000
  0
LINE
  8
LAYER_11
 10
1333.87500000
 20
56.25000000
 11
1335.87500000
 21
58.25000000
  0
LINE
  8
LAYER_11
 10
1320.12500000
 20
58.25000000
 11
1318.12500000
 21
56.25000000
  0
LINE
  8
LAYER_11
 10
1319.87500000
 20
58.25000000
 11
1317.87500000
 21
56.25000000
  0
LINE
  8
LAYER_11
 10
1320.37500000
 20
58.25000000
 11
1318.37500000
 21
56.25000000
  0
TEXT
  1
1' 4"
  7
SPSIMP
  8
LAYER_11
 10
1322.18750000
 20
67.18750000
 40
2.54689338
 50
0.00000000
  0
LINE
  8
LAYER_11
 10
1335.12500000
 20
57.25000000
 11
1351.12500000
 21
57.25000000
  0
LINE
  8
LAYER_11
 10
1350.12500000
 20
56.25000000
 11
1352.12500000
 21
58.25000000
  0
LINE
  8
LAYER_11
 10
1350.37500000
 20
56.25000000
 11
1352.37500000
 21
58.25000000
  0
LINE
  8
LAYER_11
 10
1349.87500000
 20
56.25000000
 11
1351.87500000
 21
58.25000000
  0
LINE
  8
LAYER_11
 10
1336.12500000
 20
58.25000000
 11
1334.12500000
 21
56.25000000
  0
LINE
  8
LAYER_11
 10
1335.87500000
 20
58.25000000
 11
1333.87500000
 21
56.25000000
  0
LINE
  8
LAYER_11
 10
1336.37500000
 20
58.25000000
 11
1334.37500000
 21
56.25000000
  0
TEXT
  1
1' 4"
  7
SPSIMP
  8
LAYER_11
 10
1338.18750000
 20
62.18750000
 40
2.54689338
 50
0.00000000
  0
LINE
  8
LAYER_11
 10
1351.12500000
 20
57.25000000
 11
1367.12500000
 21
57.25000000
  0
LINE
  8
LAYER_11
 10
1366.12500000
 20
56.25000000
 11
1368.12500000
 21
58.25000000
  0
LINE
  8
LAYER_11
 10
1366.37500000
 20
56.25000000
 11
1368.37500000
 21
58.25000000
  0
LINE
  8
LAYER_11
 10
1365.87500000
 20
56.25000000
 11
1367.87500000
 21
58.25000000
  0
LINE
  8
LAYER_11
 10
1352.12500000
 20
58.25000000
 11
1350.12500000
 21
56.25000000
  0
LINE
  8
LAYER_11
 10
1351.87500000
 20
58.25000000
 11
1349.87500000
 21
56.25000000
  0
LINE
  8
LAYER_11
 10
1352.37500000
 20
58.25000000
 11
1350.37500000
 21
56.25000000
  0
TEXT
  1
1' 4"
  7
SPSIMP
  8
LAYER_11
 10
1354.18750000
 20
67.18750000
 40
2.54689338
 50
0.00000000
  0
LINE
  8
LAYER_11
 10
1367.12500000
 20
57.25000000
 11
1383.12500000
 21
57.25000000
  0
LINE
  8
LAYER_11
 10
1382.12500000
 20
56.25000000
 11
1384.12500000
 21
58.25000000
  0
LINE
  8
LAYER_11
 10
1382.37500000
 20
56.25000000
 11
1384.37500000
 21
58.25000000
  0
LINE
  8
LAYER_11
 10
1381.87500000
 20
56.25000000
 11
1383.87500000
 21
58.25000000
  0
LINE
  8
LAYER_11
 10
1368.12500000
 20
58.25000000
 11
1366.12500000
 21
56.25000000
  0
LINE
  8
LAYER_11
 10
1367.87500000
 20
58.25000000
 11
1365.87500000
 21
56.25000000
  0
LINE
  8
LAYER_11
 10
1368.37500000
 20
58.25000000
 11
1366.37500000
 21
56.25000000
  0
TEXT
  1
1' 4"
  7
SPSIMP
  8
LAYER_11
 10
1370.18750000
 20
62.18750000
 40
2.54689338
 50
0.00000000
  0
LINE
  8
LAYER_11
 10
1383.12500000
 20
57.25000000
 11
1399.12500000
 21
57.25000000
  0
LINE
  8
LAYER_11
 10
1398.12500000
 20
56.25000000
 11
1400.12500000
 21
58.25000000
  0
LINE
  8
LAYER_11
 10
1398.37500000
 20
56.25000000
 11
1400.37500000
 21
58.25000000
  0
LINE
  8
LAYER_11
 10
1397.87500000
 20
56.25000000
 11
1399.87500000
 21
58.25000000
  0
LINE
  8
LAYER_11
 10
1384.12500000
 20
58.25000000
 11
1382.12500000
 21
56.25000000
  0
LINE
  8
LAYER_11
 10
1383.87500000
 20
58.25000000
 11
1381.87500000
 21
56.25000000
  0
LINE
  8
LAYER_11
 10
1384.37500000
 20
58.25000000
 11
1382.37500000
 21
56.25000000
  0
TEXT
  1
1' 4"
  7
SPSIMP
  8
LAYER_11
 10
1386.18750000
 20
67.18750000
 40
2.54689338
 50
0.00000000
  0
LINE
  8
LAYER_11
 10
1399.12500000
 20
57.25000000
 11
1415.87500000
 21
57.25000000
  0
LINE
  8
LAYER_11
 10
1414.87500000
 20
56.25000000
 11
1416.87500000
 21
58.25000000
  0
LINE
  8
LAYER_11
 10
1415.12500000
 20
56.25000000
 11
1417.12500000
 21
58.25000000
  0
LINE
  8
LAYER_11
 10
1414.62500000
 20
56.25000000
 11
1416.62500000
 21
58.25000000
  0
LINE
  8
LAYER_11
 10
1400.12500000
 20
58.25000000
 11
1398.12500000
 21
56.25000000
  0
LINE
  8
LAYER_11
 10
1399.87500000
 20
58.25000000
 11
1397.87500000
 21
56.25000000
  0
LINE
  8
LAYER_11
 10
1400.37500000
 20
58.25000000
 11
1398.37500000
 21
56.25000000
  0
TEXT
  1
1' 4 3/4"
  7
SPSIMP
  8
LAYER_11
 10
1397.50000000
 20
62.18750000
 40
2.54689338
 50
0.00000000
  0
LINE
  8
LAYER_11
 10
1176.25000000
 20
73.00000000
 11
1176.25000000
 21
153.50000000
  0
LINE
  8
LAYER_11
 10
1177.25000000
 20
152.50024606
 11
1175.25000000
 21
154.49975394
  0
LINE
  8
LAYER_11
 10
1177.25000000
 20
152.75000000
 11
1175.25000000
 21
154.74950787
  0
LINE
  8
LAYER_11
 10
1177.25000000
 20
152.25049213
 11
1175.25000000
 21
154.25000000
  0
LINE
  8
LAYER_11
 10
1175.25000000
 20
73.99975394
 11
1177.25000000
 21
72.00024606
  0
LINE
  8
LAYER_11
 10
1175.25000000
 20
73.75000000
 11
1177.25000000
 21
71.75049213
  0
LINE
  8
LAYER_11
 10
1175.25000000
 20
74.24950787
 11
1177.25000000
 21
72.25000000
  0
TEXT
  1
6' 8 1/2"
  7
SPSIMP
  8
LAYER_11
 10
1172.56250000
 20
103.25000000
 40
2.54689338
 50
90.00000000
  0
LINE
  8
LAYER_11
 10
1107.37500000
 20
71.50000000
 11
1107.37500000
 21
172.00000000
  0
LINE
  8
LAYER_11
 10
1108.37500000
 20
171.00000000
 11
1106.37500000
 21
173.00000000
  0
LINE
  8
LAYER_11
 10
1108.37500000
 20
171.25000000
 11
1106.37500000
 21
173.25000000
  0
LINE
  8
LAYER_11
 10
1108.37500000
 20
170.75000000
 11
1106.37500000
 21
172.75000000
  0
LINE
  8
LAYER_11
 10
1106.37500000
 20
72.50000000
 11
1108.37500000
 21
70.50000000
  0
LINE
  8
LAYER_11
 10
1106.37500000
 20
72.25000000
 11
1108.37500000
 21
70.25000000
  0
LINE
  8
LAYER_11
 10
1106.37500000
 20
72.75000000
 11
1108.37500000
 21
70.75000000
  0
TEXT
  1
8' 4 1/2"
  7
SPSIMP
  8
LAYER_11
 10
1103.68750000
 20
111.75000000
 40
2.54689338
 50
90.00000000
  0
LINE
  8
LAYER_11
 10
1255.12500000
 20
57.25000000
 11
1271.12500000
 21
57.25000000
  0
LINE
  8
LAYER_11
 10
1270.12500000
 20
56.25000000
 11
1272.12500000
 21
58.25000000
  0
LINE
  8
LAYER_11
 10
1270.37500000
 20
56.25000000
 11
1272.37500000
 21
58.25000000
  0
LINE
  8
LAYER_11
 10
1269.87500000
 20
56.25000000
 11
1271.87500000
 21
58.25000000
  0
LINE
  8
LAYER_11
 10
1256.12500000
 20
58.25000000
 11
1254.12500000
 21
56.25000000
  0
LINE
  8
LAYER_11
 10
1255.87500000
 20
58.25000000
 11
1253.87500000
 21
56.25000000
  0
LINE
  8
LAYER_11
 10
1256.37500000
 20
58.25000000
 11
1254.37500000
 21
56.25000000
  0
TEXT
  1
1' 4"
  7
SPSIMP
  8
LAYER_11
 10
1258.18750000
 20
62.18750000
 40
2.54689338
 50
0.00000000
  0
LINE
  8
LAYER_11
 10
1271.12500000
 20
57.25000000
 11
1287.12500000
 21
57.25000000
  0
LINE
  8
LAYER_11
 10
1286.12500000
 20
56.25000000
 11
1288.12500000
 21
58.25000000
  0
LINE
  8
LAYER_11
 10
1286.37500000
 20
56.25000000
 11
1288.37500000
 21
58.25000000
  0
LINE
  8
LAYER_11
 10
1285.87500000
 20
56.25000000
 11
1287.87500000
 21
58.25000000
  0
LINE
  8
LAYER_11
 10
1272.12500000
 20
58.25000000
 11
1270.12500000
 21
56.25000000
  0
LINE
  8
LAYER_11
 10
1271.87500000
 20
58.25000000
 11
1269.87500000
 21
56.25000000
  0
LINE
  8
LAYER_11
 10
1272.37500000
 20
58.25000000
 11
1270.37500000
 21
56.25000000
  0
TEXT
  1
1' 4"
  7
SPSIMP
  8
LAYER_11
 10
1274.18750000
 20
67.18750000
 40
2.54689338
 50
0.00000000
  0
ENDSEC
  0
EOF
AYER_11
 10
1234.25000000
 20
37.12500000
 11
1250.25000000
 21
37.12500000
  0
LINE
  8
LAYER_11
 10
1249.25000000
 20
36.12500000
 11
1251.25000000
 21
38.12500000
  0
LINE
  8
LAYER_11
 10
1249.50000000
 20
36.12500000
 11
1251.50000000
 21
38.12500000
  0
LINE
  8
LAYER_11
 10
1249.00000000
 20
36.12500000
 11
1251.00000000
 21
38.12500000
  0
LINE
  8
LAYER_11
 10
1235.25000000
 20
38.12500000
 11
1233.25000000
 21
36.12500000
  0
LINE
  8
LAYER_11
 10
1235.00000000
 20
38.12500000
 11
1233.00000000
 21
36.12500000
  0
LINE
  8
LAYER_11
 10
1235.50000000
 20
38.12500000
 11
1233.50000000
 21
36.12500000
  0
TEXT
  1
1' 4"
  7
SPSIMP
  8
LAYER_11
 10
1237.31250000
 20
47.06250000
 40
2.54689338
 50
0.00000000
  0
LINE
  8
LAYER_11
 10
1290.87500000
 20
163.25000000
 11
1290.87500000
 21
243.87500000
  0
LINE
  8
LAYER_11
 10
1291.87500000
 20
242.87500000
 11
1289.87500000
 21
244.87500000
  0
LINE
  8
LAYER_11
 10
1291.87500000
 20
243.12500000
 11
1289.87500000
 21
245.12500000
  0
LINE
  8
LAYER_11
 10
1291.87500000
 20
242.62500000
 11
1289.87500000
 21
244.62500000
  0
LINE
  8
LAYER_11
 10
1289.87500000
 20
164.25000000
 11
1291.87500000
 21
162.25000000
  0
LINE
  8
LAYER_11
 10
1289.87500000
 20
164.00000000
 11
1291.87500000
 21
162.00000000
  0
LINE
  8
LAYER_11
 10
1289.87500000
 20
164.50000000
 11
1291.87500000
 21
162.50000000
  0
TEXT
  1
6' 8 5/8"
  7
SPSIMP
  8
LAYER_11
 10
1294.06250000
 20
193.31250000
 40
2.54689338
 50
90.00000000
  0
LINE
  8
LAYER_11
 10
1109.25000000
 20
71.37500000
 11
1143.25000000
 21
71.37500000
  0
LINE
  8
LAYER_11
 10
1142.25000000
 20
70.37500000
 11
1144.25000000
 21
72.37500000
  0
LINE
  8
LAYER_11
 10
1142.50000000
 20
70.37500000
 11
1144.50000000
 21
72.37500000
  0
LINE
  8
LAYER_11
 10
1142.00000000
 20
70.37500000
 11
1144.00000000
 21
72.37500000
  0
LINE
  8
LAYER_11
 10
1110.25000000
 20
72.37500000
 11
1108.25000000
 21
70.37500000
  0
LINE
  8
LAYER_11
 10
1110.00000000
 20
72.37500000
 11
1108.00000000
 21
70.37500000
  0
LINE
  8
LAYER_11
 10
1110.50000000
 20
72.37500000
 11
1108.50000000
 21
70.37500000
  0
TEXT
  1
2' 10"
  7
SPSIMP
  8
LAYER_11
 10
1120.06250000
 20
76.31250000
 40
2.54689338
 50
0.00000000
  0
LINE
  8
LAYER_11
 10
1240.25000000
 20
234.25000000
 11
1282.25000000
 21
234.25000000
  0
LINE
  8
LAYER_11
 10
1281.25000000
 20
233.25000000
 11
1283.25000000
 21
235.25000000
  0
LINE
  8
LAYER_11
 10
1281.50000000
 20
233.25000000
 11
1283.50000000
 21
235.25000000
  0
LINE
  8
LAYER_11
 10
1281.00000000
 20
233.25000000
 11
1283.00000000
 21
235.25000000
  0
LINE
  8
LAYER_11
 10
1241.25000000
 20
235.25000000
 11
1239.25000000
 21
233.25000000
  0
LINE
  8
LAYER_11
 10
1241.00000000
 20
235.25000000
 11
1239.00000000
 21
233.25000000
  0
LINE
  8
LAYER_11
 10
1241.50000000
 20
235.25000000
 11
1239.50000000
 21
233.25000000
  0
TEXT
  1
3' 6"
  7
SPSIMP
  8
LAYER_11
 10
1256.06250000
 20
239.18750000
 40
2.54689338
 50
0.00000000
  0
LINE
  8
LAYER_11
 10
1275.25000000
 20
207.87500000
 11
1275.25000000
 21
243.87500000
  0
LINE
  8
LAYER_11
 10
1276.25000000
 20
242.87500000
 11
1274.25000000
 21
244.87500000
  0
LINE
  8
LAYER_11
 10
1276.25000000
 20
243.12500000
 11
1274.25000000
 21
245.12500000
  0
LINE
  8
LAYER_11
 10
1276.25000000
 20
242.62500000
 11
1274.25000000
 21
244.62500000
  0
LINE
  8
LAYER_11
 10
1274.25000000
 20
208.87500000
 11
1276.25000000
 21
206.87500000
  0
LINE
  8
LAYER_11
 10
1274.25000000
 20
208.62500000
 11
1276.25000000
 21
206.62500000
  0
LINE
  8
LAYER_11
 10
1274.25000000
 20
209.12500000
 11
1276.25000000
 21
207.12500000
  0
TEXT
  1
3' 0"
  7
SPSIMP
  8
LAYER_11
 10
1270.31250000
 20
220.68750000
 40
2.54689338
 50
90.00000000
  0
LINE
  8
LAYER_11
 10
1070.50000000
 20
161.75000000
 11
1070.50000000
 21
258.87500000
  0
LINE
  8
LAYER_11
 10
1071.50000000
 20
257.87500000
 11
1069.50000000
 21
259.87500000
  0
LINE
  8
LAYER_11
 10
1071.50000000
 20
258.12500000
 11
1069.50000000
 21
260.12500000
  0
LINE
  8
LAYER_11
 10
1071.50000000
 20
257.62500000
 11
1069.50000000
 21
259.62500000
  0
LINE
  8
LAYER_11
 10
1069.50000000
 20
162.75000000
 11
1071.50000000
 21
160.75000000
  0
LINE
  8
LAYER_11
 10
1069.50000000
 20
162.50000000
 11
1071.50000000
 21
160.50000000
  0
LINE
  8
LAYER_11
 10
1069.50000000
 20
163.00000000
 11
1071.50000000
 21
161.00000000
  0
TEXT
  1
8' 1 1/8"
  7
SPSIMP
  8
LAYER_11
 10
1066.81250000
 20
200.56250000
 40
2.54689338
 50
90.00000000
  0
ENDSEC
  0
EOF
