  0
SECTION
  2
HEADER
  9
$LIMMIN
 10
0.00000000
 20
0.00000000
  9
$LIMMAX
 10
1920.00000000
 20
1284.00000000
  9
$EXTMIN
 10
0.00000000
 20
0.00000000
  9
$EXTMAX
 10
1920.00000000
 20
1284.00000000
  9
$LUNITS
 70
4
  0
ENDSEC
  0
SECTION
  2
TABLES
  0
TABLE
  2
LTYPE
 70
5
  0
LTYPE
  2
LARGE
 70
64
  3
___   ___
 72
65
 73
2
 40
20.00000000
 49
10.00000000
 49
-10.00000000
  0
LTYPE
  2
MEDIUM
 70
64
  3
__  __
 72
65
 73
2
 40
10.00000000
 49
5.00000000
 49
-5.00000000
  0
LTYPE
  2
SMALL
 70
64
  3
_ _
 72
65
 73
2
 40
5.00000000
 49
2.00000000
 49
-3.00000000
  0
LTYPE
  2
DASHDOT
 70
64
  3
___ . ___
 72
65
 73
4
 40
21.00000000
 49
15.00000000
 49
-3.00000000
 49
0.00000000
 49
-3.00000000
  0
LTYPE
  2
LONG
 70
64
  3
____ ____
 72
65
 73
2
 40
18.00000000
 49
14.00000000
 49
-4.00000000
  0
ENDTAB
  0
TABLE
  2
LAYER
 70
15
  0
LAYER
  2
LAYER_1
 70
0
 62
1
  6
CONTINUOUS
  0
LAYER
  2
LAYER_2
 70
0
 62
2
  6
CONTINUOUS
  0
LAYER
  2
LAYER_3
 70
0
 62
3
  6
CONTINUOUS
  0
LAYER
  2
LAYER_4
 70
0
 62
4
  6
CONTINUOUS
  0
LAYER
  2
LAYER_5
 70
0
 62
5
  6
CONTINUOUS
  0
LAYER
  2
LAYER_6
 70
0
 62
6
  6
CONTINUOUS
  0
LAYER
  2
LAYER_7
 70
0
 62
7
  6
CONTINUOUS
  0
LAYER
  2
LAYER_8
 70
0
 62
8
  6
CONTINUOUS
  0
LAYER
  2
LAYER_9
 70
0
 62
9
  6
CONTINUOUS
  0
LAYER
  2
LAYER_10
 70
0
 62
10
  6
CONTINUOUS
  0
LAYER
  2
LAYER_11
 70
0
 62
11
  6
CONTINUOUS
  0
LAYER
  2
LAYER_12
 70
0
 62
12
  6
CONTINUOUS
  0
LAYER
  2
LAYER_13
 70
0
 62
13
  6
CONTINUOUS
  0
LAYER
  2
LAYER_14
 70
0
 62
14
  6
CONTINUOUS
  0
LAYER
  2
LAYER_15
 70
0
 62
15
  6
CONTINUOUS
  0
ENDTAB
  0
ENDSEC
  0
SECTION
  2
ENTITIES
  0
LINE
  8
LAYER_8
 10
-276.00000000
 20
1517.87500000
 11
-276.00000000
 21
1473.87500000
  0
LINE
  8
LAYER_8
 10
-272.00000000
 20
1517.87500000
 11
-272.00000000
 21
1475.87500000
  0
LINE
  8
LAYER_8
 10
-276.00000000
 20
1517.87500000
 11
-272.00000000
 21
1517.87500000
  0
LINE
  8
LAYER_8
 10
-277.00000000
 20
1517.87500000
 11
-277.00000000
 21
1473.87500000
  0
LINE
  8
LAYER_8
 10
-276.00000000
 20
1517.87500000
 11
-276.00000000
 21
1473.87500000
  0
LINE
  8
LAYER_8
 10
-277.00000000
 20
1517.87500000
 11
-276.00000000
 21
1517.87500000
  0
LINE
  8
LAYER_8
 10
-276.00000000
 20
1473.87500000
 11
-276.00000000
 21
1397.87500000
  0
LINE
  8
LAYER_8
 10
-272.00000000
 20
1471.87500000
 11
-272.00000000
 21
1397.87500000
  0
LINE
  8
LAYER_8
 10
-276.00000000
 20
1397.87500000
 11
-272.00000000
 21
1397.87500000
  0
LINE
  8
LAYER_8
 10
-277.00000000
 20
1473.87500000
 11
-277.00000000
 21
1397.87500000
  0
LINE
  8
LAYER_8
 10
-276.00000000
 20
1473.87500000
 11
-276.00000000
 21
1397.87500000
  0
LINE
  8
LAYER_8
 10
-277.00000000
 20
1397.87500000
 11
-276.00000000
 21
1397.87500000
  0
LINE
  8
LAYER_8
 10
-276.00000000
 20
1349.87500000
 11
-276.00000000
 21
1302.37500000
  0
LINE
  8
LAYER_8
 10
-272.00000000
 20
1349.87500000
 11
-272.00000000
 21
1304.37500000
  0
LINE
  8
LAYER_8
 10
-276.00000000
 20
1349.87500000
 11
-272.00000000
 21
1349.87500000
  0
LINE
  8
LAYER_8
 10
-277.00000000
 20
1349.87500000
 11
-277.00000000
 21
1302.37500000
  0
LINE
  8
LAYER_8
 10
-276.00000000
 20
1349.87500000
 11
-276.00000000
 21
1302.37500000
  0
LINE
  8
LAYER_8
 10
-277.00000000
 20
1349.87500000
 11
-276.00000000
 21
1349.87500000
  0
LINE
  8
LAYER_8
 10
-276.00000000
 20
1302.37500000
 11
-276.00000000
 21
1229.87500000
  0
LINE
  8
LAYER_8
 10
-272.00000000
 20
1300.37500000
 11
-272.00000000
 21
1229.87500000
  0
LINE
  8
LAYER_8
 10
-276.00000000
 20
1229.87500000
 11
-272.00000000
 21
1229.87500000
  0
LINE
  8
LAYER_8
 10
-277.00000000
 20
1302.37500000
 11
-277.00000000
 21
1229.87500000
  0
LINE
  8
LAYER_8
 10
-276.00000000
 20
1302.37500000
 11
-276.00000000
 21
1229.87500000
  0
LINE
  8
LAYER_8
 10
-277.00000000
 20
1229.87500000
 11
-276.00000000
 21
1229.87500000
  0
LINE
  8
LAYER_8
 10
156.00000000
 20
1517.87500000
 11
156.00000000
 21
1473.87500000
  0
LINE
  8
LAYER_8
 10
152.00000000
 20
1517.87500000
 11
152.00000000
 21
1475.87500000
  0
LINE
  8
LAYER_8
 10
156.00000000
 20
1517.87500000
 11
152.00000000
 21
1517.87500000
  0
LINE
  8
LAYER_8
 10
157.00000000
 20
1517.87500000
 11
157.00000000
 21
1473.87500000
  0
LINE
  8
LAYER_8
 10
156.00000000
 20
1517.87500000
 11
156.00000000
 21
1473.87500000
  0
LINE
  8
LAYER_8
 10
157.00000000
 20
1517.87500000
 11
156.00000000
 21
1517.87500000
  0
LINE
  8
LAYER_8
 10
156.00000000
 20
1473.87500000
 11
156.00000000
 21
1397.87500000
  0
LINE
  8
LAYER_8
 10
152.00000000
 20
1471.87500000
 11
152.00000000
 21
1397.87500000
  0
LINE
  8
LAYER_8
 10
156.00000000
 20
1397.87500000
 11
152.00000000
 21
1397.87500000
  0
LINE
  8
LAYER_8
 10
157.00000000
 20
1473.87500000
 11
157.00000000
 21
1397.87500000
  0
LINE
  8
LAYER_8
 10
156.00000000
 20
1473.87500000
 11
156.00000000
 21
1397.87500000
  0
LINE
  8
LAYER_8
 10
157.00000000
 20
1397.87500000
 11
156.00000000
 21
1397.87500000
  0
LINE
  8
LAYER_8
 10
156.00000000
 20
1349.87500000
 11
156.00000000
 21
1302.00000000
  0
LINE
  8
LAYER_8
 10
152.00000000
 20
1349.87500000
 11
152.00000000
 21
1304.00000000
  0
LINE
  8
LAYER_8
 10
156.00000000
 20
1349.87500000
 11
152.00000000
 21
1349.87500000
  0
LINE
  8
LAYER_8
 10
157.00000000
 20
1349.87500000
 11
157.00000000
 21
1302.00000000
  0
LINE
  8
LAYER_8
 10
156.00000000
 20
1349.87500000
 11
156.00000000
 21
1302.00000000
  0
LINE
  8
LAYER_8
 10
157.00000000
 20
1349.87500000
 11
156.00000000
 21
1349.87500000
  0
LINE
  8
LAYER_8
 10
156.00000000
 20
1302.00000000
 11
156.00000000
 21
1229.87500000
  0
LINE
  8
LAYER_8
 10
152.00000000
 20
1300.00000000
 11
152.00000000
 21
1229.87500000
  0
LINE
  8
LAYER_8
 10
156.00000000
 20
1229.87500000
 11
152.00000000
 21
1229.87500000
  0
LINE
  8
LAYER_8
 10
157.00000000
 20
1302.00000000
 11
157.00000000
 21
1229.87500000
  0
LINE
  8
LAYER_8
 10
156.00000000
 20
1302.00000000
 11
156.00000000
 21
1229.87500000
  0
LINE
  8
LAYER_8
 10
157.00000000
 20
1229.87500000
 11
156.00000000
 21
1229.87500000
  0
LINE
  8
LAYER_8
 10
-272.00000000
 20
1475.87500000
 11
-204.50000000
 21
1475.87500000
  0
LINE
  8
LAYER_8
 10
-272.00000000
 20
1471.87500000
 11
-203.00000000
 21
1471.87500000
  0
LINE
  8
LAYER_8
 10
-200.50000000
 20
1475.87500000
 11
-81.00000000
 21
1475.87500000
  0
LINE
  8
LAYER_8
 10
-203.00000000
 20
1471.87500000
 11
-81.00000000
 21
1471.87500000
  0
LINE
  8
LAYER_8
 10
-81.00000000
 20
1475.87500000
 11
-81.00000000
 21
1471.87500000
  0
LINE
  8
LAYER_8
 10
-204.50000000
 20
1517.87500000
 11
-204.50000000
 21
1475.87500000
  0
LINE
  8
LAYER_8
 10
-200.50000000
 20
1513.87500000
 11
-200.50000000
 21
1475.87500000
  0
LINE
  8
LAYER_8
 10
-205.50000000
 20
1518.87500000
 11
-205.50000000
 21
1475.87500000
  0
LINE
  8
LAYER_8
 10
-204.50000000
 20
1517.87500000
 11
-204.50000000
 21
1475.87500000
  0
LINE
  8
LAYER_8
 10
-204.50000000
 20
1517.87500000
 11
-139.00000000
 21
1517.87500000
  0
LINE
  8
LAYER_8
 10
-200.50000000
 20
1513.87500000
 11
-139.00000000
 21
1513.87500000
  0
LINE
  8
LAYER_8
 10
-139.00000000
 20
1517.87500000
 11
-139.00000000
 21
1513.87500000
  0
LINE
  8
LAYER_8
 10
-205.50000000
 20
1518.87500000
 11
-139.00000000
 21
1518.87500000
  0
LINE
  8
LAYER_8
 10
-204.50000000
 20
1517.87500000
 11
-139.00000000
 21
1517.87500000
  0
LINE
  8
LAYER_8
 10
-139.00000000
 20
1518.87500000
 11
-139.00000000
 21
1517.87500000
  0
LINE
  8
LAYER_8
 10
-103.00000000
 20
1517.87500000
 11
-39.00000000
 21
1517.87500000
  0
LINE
  8
LAYER_8
 10
-103.00000000
 20
1513.87500000
 11
-43.00000000
 21
1513.87500000
  0
LINE
  8
LAYER_8
 10
-103.00000000
 20
1517.87500000
 11
-103.00000000
 21
1513.87500000
  0
LINE
  8
LAYER_8
 10
-103.00000000
 20
1518.87500000
 11
-38.00000000
 21
1518.87500000
  0
LINE
  8
LAYER_8
 10
-103.00000000
 20
1517.87500000
 11
-39.00000000
 21
1517.87500000
  0
LINE
  8
LAYER_8
 10
-103.00000000
 20
1518.87500000
 11
-103.00000000
 21
1517.87500000
  0
LINE
  8
LAYER_8
 10
-39.00000000
 20
1517.87500000
 11
-39.00000000
 21
1475.87500000
  0
LINE
  8
LAYER_8
 10
-43.00000000
 20
1513.87500000
 11
-43.00000000
 21
1471.87500000
  0
LINE
  8
LAYER_8
 10
-38.00000000
 20
1518.87500000
 11
-38.00000000
 21
1471.87500000
  0
LINE
  8
LAYER_8
 10
-39.00000000
 20
1517.87500000
 11
-39.00000000
 21
1471.87500000
  0
LINE
  8
LAYER_8
 10
-38.00000000
 20
1471.87500000
 11
-39.00000000
 21
1471.87500000
  0
LINE
  8
LAYER_8
 10
-224.00000000
 20
1300.37500000
 11
-224.00000000
 21
1255.37500000
  0
LINE
  8
LAYER_8
 10
-220.00000000
 20
1304.37500000
 11
-220.00000000
 21
1259.37500000
  0
LINE
  8
LAYER_8
 10
-225.00000000
 20
1304.37500000
 11
-225.00000000
 21
1254.37500000
  0
LINE
  8
LAYER_8
 10
-224.00000000
 20
1304.37500000
 11
-224.00000000
 21
1255.37500000
  0
LINE
  8
LAYER_8
 10
-225.00000000
 20
1304.37500000
 11
-224.00000000
 21
1304.37500000
  0
LINE
  8
LAYER_8
 10
-224.00000000
 20
1255.37500000
 11
-211.00000000
 21
1255.37500000
  0
LINE
  8
LAYER_8
 10
-220.00000000
 20
1259.37500000
 11
-211.00000000
 21
1259.37500000
  0
LINE
  8
LAYER_8
 10
-211.00000000
 20
1255.37500000
 11
-211.00000000
 21
1259.37500000
  0
LINE
  8
LAYER_8
 10
-225.00000000
 20
1254.37500000
 11
-211.00000000
 21
1254.37500000
  0
LINE
  8
LAYER_8
 10
-224.00000000
 20
1255.37500000
 11
-211.00000000
 21
1255.37500000
  0
LINE
  8
LAYER_8
 10
-211.00000000
 20
1254.37500000
 11
-211.00000000
 21
1255.37500000
  0
LINE
  8
LAYER_8
 10
-179.00000000
 20
1255.37500000
 11
-166.00000000
 21
1255.37500000
  0
LINE
  8
LAYER_8
 10
-179.00000000
 20
1259.37500000
 11
-170.00000000
 21
1259.37500000
  0
LINE
  8
LAYER_8
 10
-179.00000000
 20
1255.37500000
 11
-179.00000000
 21
1259.37500000
  0
LINE
  8
LAYER_8
 10
-179.00000000
 20
1254.37500000
 11
-165.00000000
 21
1254.37500000
  0
LINE
  8
LAYER_8
 10
-179.00000000
 20
1255.37500000
 11
-166.00000000
 21
1255.37500000
  0
LINE
  8
LAYER_8
 10
-179.00000000
 20
1254.37500000
 11
-179.00000000
 21
1255.37500000
  0
LINE
  8
LAYER_8
 10
-166.00000000
 20
1300.50000000
 11
-166.00000000
 21
1255.37500000
  0
LINE
  8
LAYER_8
 10
-170.00000000
 20
1304.50000000
 11
-170.00000000
 21
1259.37500000
  0
LINE
  8
LAYER_8
 10
-165.00000000
 20
1304.50000000
 11
-165.00000000
 21
1254.37500000
  0
LINE
  8
LAYER_8
 10
-166.00000000
 20
1304.50000000
 11
-166.00000000
 21
1255.37500000
  0
LINE
  8
LAYER_8
 10
-165.00000000
 20
1304.50000000
 11
-166.00000000
 21
1304.50000000
  0
LINE
  8
LAYER_8
 10
46.00000000
 20
1300.50000000
 11
46.00000000
 21
1255.37500000
  0
LINE
  8
LAYER_8
 10
50.00000000
 20
1304.50000000
 11
50.00000000
 21
1259.37500000
  0
LINE
  8
LAYER_8
 10
45.00000000
 20
1304.50000000
 11
45.00000000
 21
1254.37500000
  0
LINE
  8
LAYER_8
 10
46.00000000
 20
1304.50000000
 11
46.00000000
 21
1255.37500000
  0
LINE
  8
LAYER_8
 10
45.00000000
 20
1304.50000000
 11
46.00000000
 21
1304.50000000
  0
LINE
  8
LAYER_8
 10
46.00000000
 20
1255.37500000
 11
59.00000000
 21
1255.37500000
  0
LINE
  8
LAYER_8
 10
50.00000000
 20
1259.37500000
 11
59.00000000
 21
1259.37500000
  0
LINE
  8
LAYER_8
 10
59.00000000
 20
1255.37500000
 11
59.00000000
 21
1259.37500000
  0
LINE
  8
LAYER_8
 10
45.00000000
 20
1254.37500000
 11
59.00000000
 21
1254.37500000
  0
LINE
  8
LAYER_8
 10
46.00000000
 20
1255.37500000
 11
59.00000000
 21
1255.37500000
  0
LINE
  8
LAYER_8
 10
59.00000000
 20
1254.37500000
 11
59.00000000
 21
1255.37500000
  0
LINE
  8
LAYER_8
 10
91.00000000
 20
1255.37500000
 11
104.00000000
 21
1255.37500000
  0
LINE
  8
LAYER_8
 10
91.00000000
 20
1259.37500000
 11
100.00000000
 21
1259.37500000
  0
LINE
  8
LAYER_8
 10
91.00000000
 20
1255.37500000
 11
91.00000000
 21
1259.37500000
  0
LINE
  8
LAYER_8
 10
91.00000000
 20
1254.37500000
 11
105.00000000
 21
1254.37500000
  0
LINE
  8
LAYER_8
 10
91.00000000
 20
1255.37500000
 11
104.00000000
 21
1255.37500000
  0
LINE
  8
LAYER_8
 10
91.00000000
 20
1254.37500000
 11
91.00000000
 21
1255.37500000
  0
LINE
  8
LAYER_8
 10
104.00000000
 20
1300.00000000
 11
104.00000000
 21
1255.37500000
  0
LINE
  8
LAYER_8
 10
100.00000000
 20
1304.00000000
 11
100.00000000
 21
1259.37500000
  0
LINE
  8
LAYER_8
 10
105.00000000
 20
1304.00000000
 11
105.00000000
 21
1254.37500000
  0
LINE
  8
LAYER_8
 10
104.00000000
 20
1304.00000000
 11
104.00000000
 21
1255.37500000
  0
LINE
  8
LAYER_8
 10
105.00000000
 20
1304.00000000
 11
104.00000000
 21
1304.00000000
  0
LINE
  8
LAYER_8
 10
100.00000000
 20
1304.00000000
 11
152.00000000
 21
1304.00000000
  0
LINE
  8
LAYER_8
 10
104.00000000
 20
1300.00000000
 11
152.00000000
 21
1300.00000000
  0
LINE
  8
LAYER_8
 10
46.00000000
 20
1300.50000000
 11
-31.00000000
 21
1300.50000000
  0
LINE
  8
LAYER_8
 10
50.00000000
 20
1304.50000000
 11
-35.00000000
 21
1304.50000000
  0
LINE
  8
LAYER_8
 10
-224.00000000
 20
1300.37500000
 11
-272.00000000
 21
1300.37500000
  0
LINE
  8
LAYER_8
 10
-220.00000000
 20
1304.37500000
 11
-272.00000000
 21
1304.37500000
  0
LINE
  8
LAYER_8
  6
SMALL
 10
7.37500000
 20
1517.87500000
 11
-33.25000000
 21
1517.87500000
  0
LINE
  8
LAYER_8
  6
SMALL
 10
7.37500000
 20
1513.87500000
 11
-33.25000000
 21
1513.87500000
  0
LINE
  8
LAYER_8
  6
SMALL
 10
7.37500000
 20
1518.87500000
 11
-33.25000000
 21
1518.87500000
  0
LINE
  8
LAYER_8
  6
SMALL
 10
7.37500000
 20
1517.87500000
 11
-33.25000000
 21
1517.87500000
  0
LINE
  8
LAYER_8
  6
SMALL
 10
-39.87500000
 20
1230.37500000
 11
-79.50000000
 21
1230.37500000
  0
LINE
  8
LAYER_8
  6
SMALL
 10
-39.87500000
 20
1234.37500000
 11
-79.50000000
 21
1234.37500000
  0
LINE
  8
LAYER_8
  6
SMALL
 10
-39.87500000
 20
1229.37500000
 11
-79.50000000
 21
1229.37500000
  0
LINE
  8
LAYER_8
  6
SMALL
 10
-39.87500000
 20
1230.37500000
 11
-79.50000000
 21
1230.37500000
  0
LINE
  8
LAYER_8
 10
152.00000000
 20
1471.87500000
 11
-43.00000000
 21
1471.87500000
  0
LINE
  8
LAYER_8
 10
152.00000000
 20
1475.87500000
 11
-39.00000000
 21
1475.87500000
  0
LINE
  8
LAYER_8
 10
-89.00000000
 20
1300.50000000
 11
-89.00000000
 21
1255.37500000
  0
LINE
  8
LAYER_8
 10
-85.00000000
 20
1304.50000000
 11
-85.00000000
 21
1259.37500000
  0
LINE
  8
LAYER_8
 10
-90.00000000
 20
1304.50000000
 11
-90.00000000
 21
1254.37500000
  0
LINE
  8
LAYER_8
 10
-89.00000000
 20
1304.50000000
 11
-89.00000000
 21
1255.37500000
  0
LINE
  8
LAYER_8
 10
-90.00000000
 20
1304.50000000
 11
-89.00000000
 21
1304.50000000
  0
LINE
  8
LAYER_8
 10
-89.00000000
 20
1255.37500000
 11
-76.00000000
 21
1255.37500000
  0
LINE
  8
LAYER_8
 10
-85.00000000
 20
1259.37500000
 11
-76.00000000
 21
1259.37500000
  0
LINE
  8
LAYER_8
 10
-76.00000000
 20
1255.37500000
 11
-76.00000000
 21
1259.37500000
  0
LINE
  8
LAYER_8
 10
-90.00000000
 20
1254.37500000
 11
-76.00000000
 21
1254.37500000
  0
LINE
  8
LAYER_8
 10
-89.00000000
 20
1255.37500000
 11
-76.00000000
 21
1255.37500000
  0
LINE
  8
LAYER_8
 10
-76.00000000
 20
1254.37500000
 11
-76.00000000
 21
1255.37500000
  0
LINE
  8
LAYER_8
 10
-44.00000000
 20
1255.37500000
 11
-31.00000000
 21
1255.37500000
  0
LINE
  8
LAYER_8
 10
-44.00000000
 20
1259.37500000
 11
-35.00000000
 21
1259.37500000
  0
LINE
  8
LAYER_8
 10
-44.00000000
 20
1255.37500000
 11
-44.00000000
 21
1259.37500000
  0
LINE
  8
LAYER_8
 10
-44.00000000
 20
1254.37500000
 11
-30.00000000
 21
1254.37500000
  0
LINE
  8
LAYER_8
 10
-44.00000000
 20
1255.37500000
 11
-31.00000000
 21
1255.37500000
  0
LINE
  8
LAYER_8
 10
-44.00000000
 20
1254.37500000
 11
-44.00000000
 21
1255.37500000
  0
LINE
  8
LAYER_8
 10
-31.00000000
 20
1300.50000000
 11
-31.00000000
 21
1255.37500000
  0
LINE
  8
LAYER_8
 10
-35.00000000
 20
1304.50000000
 11
-35.00000000
 21
1259.37500000
  0
LINE
  8
LAYER_8
 10
-30.00000000
 20
1304.50000000
 11
-30.00000000
 21
1254.37500000
  0
LINE
  8
LAYER_8
 10
-31.00000000
 20
1304.50000000
 11
-31.00000000
 21
1255.37500000
  0
LINE
  8
LAYER_8
 10
-30.00000000
 20
1304.50000000
 11
-31.00000000
 21
1304.50000000
  0
LINE
  8
LAYER_8
 10
-89.00000000
 20
1300.50000000
 11
-166.00000000
 21
1300.50000000
  0
LINE
  8
LAYER_8
 10
-85.00000000
 20
1304.50000000
 11
-170.00000000
 21
1304.50000000
  0
LINE
  8
LAYER_3
 10
-276.00000000
 20
1517.87500000
 11
-276.00000000
 21
1578.75000000
  0
LINE
  8
LAYER_3
 10
156.00000000
 20
1517.87500000
 11
156.00000000
 21
1578.75000000
  0
LINE
  8
LAYER_3
 10
-276.00000000
 20
1229.87500000
 11
-276.00000000
 21
1169.37500000
  0
LINE
  8
LAYER_3
 10
156.00000000
 20
1229.87500000
 11
156.00000000
 21
1169.37500000
  0
LINE
  8
LAYER_3
 10
-81.00000000
 20
1473.87500000
 11
-67.50000000
 21
1473.87500000
  0
LINE
  8
LAYER_3
 10
-203.00000000
 20
1473.87500000
 11
-203.00000000
 21
1458.87524606
  0
LINE
  8
LAYER_3
 10
-81.00000000
 20
1471.87500000
 11
-81.00000000
 21
1458.87500000
  0
LINE
  8
LAYER_3
 10
-39.00000000
 20
1473.87500000
 11
-39.00000000
 21
1458.87500000
  0
LINE
  8
LAYER_3
 10
-277.00000000
 20
1517.87500000
 11
-314.75000000
 21
1517.87500000
  0
LINE
  8
LAYER_3
 10
-277.00000000
 20
1229.87500000
 11
-314.75000000
 21
1229.87500000
  0
LINE
  8
LAYER_3
 10
157.00000000
 20
1517.87500000
 11
191.25000000
 21
1517.87500000
  0
LINE
  8
LAYER_3
 10
157.00000000
 20
1229.87500000
 11
191.25000000
 21
1229.87500000
  0
LINE
  8
LAYER_3
 10
-224.00000000
 20
1254.37500000
 11
-224.00000000
 21
1189.12500000
  0
LINE
  8
LAYER_3
 10
-166.00000000
 20
1254.37500000
 11
-166.00000000
 21
1189.12500000
  0
LINE
  8
LAYER_3
 10
46.00000000
 20
1254.37500000
 11
46.00000000
 21
1189.12500000
  0
LINE
  8
LAYER_3
 10
104.00000000
 20
1254.37500000
 11
104.00000000
 21
1189.25000000
  0
LINE
  8
LAYER_3
 10
-39.00000000
 20
1522.87500000
 11
-39.00000000
 21
1560.87500000
  0
LINE
  8
LAYER_3
 10
-204.50000000
 20
1522.87500000
 11
-204.50000000
 21
1560.87500000
  0
LINE
  8
LAYER_3
 10
-229.00000000
 20
1255.37500000
 11
-251.12500000
 21
1255.37500000
  0
LINE
  8
LAYER_3
 10
-31.00000000
 20
1250.37500000
 11
-31.00000000
 21
1189.12500000
  0
LINE
  8
LAYER_3
 10
-89.00000000
 20
1250.37500000
 11
-89.00000000
 21
1189.12500000
  0
LINE
  8
LAYER_3
 10
165.86318898
 20
1373.87500000
 11
175.25000000
 21
1373.87500000
  0
LINE
  8
LAYER_3
 10
-127.00000000
 20
1379.87500000
 11
-127.00000000
 21
1396.12500000
  0
LINE
  8
LAYER_3
 10
8.00000000
 20
1379.62500000
 11
8.00000000
 21
1396.12500000
  0
LINE
  8
LAYER_3
 10
-285.86318898
 20
1373.87500000
 11
-298.75000000
 21
1373.87500000
  0
LINE
  8
LAYER_3
 10
165.86318898
 20
1373.87500000
 11
175.25000000
 21
1373.87500000
  0
LINE
  8
LAYER_3
 10
75.00000000
 20
1245.51181102
 11
75.00000000
 21
1207.75000000
  0
LINE
  8
LAYER_3
 10
-195.00000000
 20
1245.51181102
 11
-195.00000000
 21
1206.25000000
  0
LINE
  8
LAYER_3
 10
-121.00000000
 20
1527.73818898
 11
-121.00000000
 21
1542.87500000
  0
LINE
  8
LAYER_3
 10
-60.00000000
 20
1245.51181102
 11
-60.00000000
 21
1206.00000000
  0
TEXT
  1
STORAGE  LOFT
  7
SPHAND
  8
LAYER_4
 10
-114.75000000
 20
1351.68750000
 40
6.36751629
 50
0.00000000
  0
LINE
  8
LAYER_4
 10
-114.75000000
 20
1348.88139764
 11
-39.25000000
 21
1348.88139764
  0
TEXT
  1
GARAGE LOFT PLAN
  7
SPHAND
  8
LAYER_4
 10
-274.25000000
 20
1155.75000000
 40
8.06549235
 50
0.00000000
  0
TEXT
  1
2-2x10 HEADER
  7
SPHAND
  8
LAYER_12
 10
149.36909449
 20
1333.37500000
 40
3.82048149
 50
90.00000000
  0
TEXT
  1
2-2x8 LINTEL
  7
SPHAND
  8
LAYER_12
 10
-281.56250000
 20
1477.25000000
 40
3.82048149
 50
90.00000000
  0
TEXT
  1
DN
  7
SPHAND
  8
LAYER_4
 10
-100.87500000
 20
1497.06250000
 40
5.09392818
 50
0.00000000
  0
TEXT
  1
LINE OF 8'-0" CEILING
  7
SPHAND
  8
LAYER_12
 10
-253.75000000
 20
1419.31250000
 40
3.82048149
 50
0.00000000
  0
TEXT
  1
LINE OF 8'-0" CEILING
  7
SPHAND
  8
LAYER_12
 10
-253.75000000
 20
1326.56250000
 40
3.82048149
 50
0.00000000
  0
TEXT
  1
2-2x10 HEADER
  7
SPHAND
  8
LAYER_12
 10
-266.56250000
 20
1333.12500000
 40
3.82048149
 50
90.00000000
  0
TEXT
  1
4" X 4" SUPPORT
  7
SPHAND
  8
LAYER_12
 10
15.00000000
 20
1367.06250000
 40
3.82048149
 50
0.00000000
  0
TEXT
  1
COLUMN
  7
SPHAND
  8
LAYER_12
 10
15.00000000
 20
1360.06250000
 40
3.82048149
 50
0.00000000
  0
TEXT
  1
TYPICAL RIDGE SUPPORT
  7
SPHAND
  8
LAYER_12
 10
15.00000000
 20
1353.06250000
 40
3.82048149
 50
0.00000000
  0
TEXT
  1
2x8 ROOF JOISTS @ 16" O.C.
  7
SPHAND
  8
LAYER_12
 10
-173.93750000
 20
1327.00000000
 40
5.09392818
 50
90.00000000
  0
LINE
  8
LAYER_12
 10
-172.03026575
 20
1315.00000000
 11
-172.03026575
 21
1443.50000000
  0
LINE
  8
LAYER_12
 10
-172.03026575
 20
1315.00000000
 11
-176.03026575
 21
1325.00000000
  0
LINE
  8
LAYER_12
 10
-168.03026575
 20
1433.50000000
 11
-172.03026575
 21
1443.50000000
  0
TEXT
  1
TYPICAL FRAME ROOF OVER
  7
SPHAND
  8
LAYER_4
 10
5.87500000
 20
1464.18750000
 40
5.09392818
 50
0.00000000
  0
LINE
  8
LAYER_4
 10
5.87500000
 20
1461.94685039
 11
118.00000000
 21
1461.94685039
  0
TEXT
  1
ASPHALT SHINGLES
  7
SPHAND
  8
LAYER_12
 10
5.87500000
 20
1454.18750000
 40
3.82048149
 50
0.00000000
  0
TEXT
  1
1/2" ROOF SHEATHING
  7
SPHAND
  8
LAYER_12
 10
5.87500000
 20
1447.18750000
 40
3.82048149
 50
0.00000000
  0
TEXT
  1
2"x10" RIDGE BOARD
  7
SPHAND
  8
LAYER_12
 10
5.87500000
 20
1440.18750000
 40
3.82048149
 50
0.00000000
  0
TEXT
  1
2"x8" RAFTERS @ 16" O.C.
  7
SPHAND
  8
LAYER_12
 10
5.87500000
 20
1433.18750000
 40
3.82048149
 50
0.00000000
  0
TEXT
  1
2"X4" COLLAR TIES
  7
SPHAND
  8
LAYER_12
 10
5.87500000
 20
1426.18750000
 40
3.82048149
 50
0.00000000
  0
TEXT
  1
14R
  7
SPHAND
  8
LAYER_4
 10
-100.87500000
 20
1487.81250000
 40
5.09392818
 50
0.00000000
  0
TEXT
  1
3-2x10 RIDGE BEAM
  7
SPHAND
  8
LAYER_4
 10
32.75000000
 20
1378.06250000
 40
5.09392818
 50
0.00000000
  0
LINE
  8
LAYER_2
  6
SMALL
 10
-272.12500000
 20
1417.12500000
 11
151.87500000
 21
1417.12500000
  0
LINE
  8
LAYER_2
  6
SMALL
 10
-271.87500000
 20
1331.37500000
 11
152.00000000
 21
1331.37500000
  0
LINE
  8
LAYER_2
 10
-200.62500000
 20
1477.37500000
 11
-101.75000000
 21
1477.37500000
  0
LINE
  8
LAYER_2
 10
-101.75000000
 20
1513.37500000
 11
-101.75000000
 21
1477.37500000
  0
LINE
  8
LAYER_2
 10
-200.75000000
 20
1513.37500000
 11
-101.75000000
 21
1513.37500000
  0
LINE
  8
LAYER_2
 10
-200.75000000
 20
1513.37500000
 11
-200.75000000
 21
1477.37500000
  0
LINE
  8
LAYER_2
 10
-191.75000000
 20
1513.37500000
 11
-191.75000000
 21
1477.37500000
  0
LINE
  8
LAYER_2
 10
-182.75000000
 20
1513.37500000
 11
-182.75000000
 21
1477.37500000
  0
LINE
  8
LAYER_2
 10
-173.75000000
 20
1513.37500000
 11
-173.75000000
 21
1477.37500000
  0
LINE
  8
LAYER_2
 10
-164.75000000
 20
1513.37500000
 11
-164.75000000
 21
1477.37500000
  0
LINE
  8
LAYER_2
 10
-155.75000000
 20
1513.37500000
 11
-155.75000000
 21
1477.37500000
  0
LINE
  8
LAYER_2
 10
-146.75000000
 20
1513.37500000
 11
-146.75000000
 21
1477.37500000
  0
LINE
  8
LAYER_2
 10
-137.75000000
 20
1513.37500000
 11
-137.75000000
 21
1477.37500000
  0
LINE
  8
LAYER_2
 10
-128.75000000
 20
1513.37500000
 11
-128.75000000
 21
1477.37500000
  0
LINE
  8
LAYER_2
 10
-119.75000000
 20
1513.37500000
 11
-119.75000000
 21
1477.37500000
  0
LINE
  8
LAYER_2
 10
-110.75000000
 20
1513.37500000
 11
-110.75000000
 21
1477.37500000
  0
LINE
  8
LAYER_2
  6
SMALL
 10
-275.87500000
 20
1517.87500000
 11
152.00000000
 21
1517.87500000
  0
LINE
  8
LAYER_2
  6
SMALL
 10
-272.00000000
 20
1513.87500000
 11
152.00000000
 21
1513.87500000
  0
LINE
  8
LAYER_2
  6
SMALL
 10
-272.00000000
 20
1234.37500000
 11
-262.75000000
 21
1234.37500000
  0
LINE
  8
LAYER_2
  6
SMALL
 10
-274.50000000
 20
1229.87500000
 11
151.87500000
 21
1229.87500000
  0
LINE
  8
LAYER_2
  6
DASHDOT
 10
-271.75000000
 20
1373.87500000
 11
-180.62500000
 21
1373.87500000
  0
LINE
  8
LAYER_2
  6
DASHDOT
 10
-167.87500000
 20
1373.87500000
 11
151.87500000
 21
1373.87500000
  0
LINE
  8
LAYER_2
  6
SMALL
 10
-255.37500000
 20
1234.37500000
 11
152.00000000
 21
1234.37500000
  0
LINE
  8
LAYER_1
 10
-274.87500000
 20
1396.50000000
 11
-274.87500000
 21
1384.50000000
  0
LINE
  8
LAYER_1
 10
-268.87500000
 20
1390.50000000
 11
-280.87500000
 21
1390.50000000
  0
LINE
  8
LAYER_1
 10
-276.00000000
 20
1529.87500000
 11
-276.00000000
 21
1505.87500000
  0
LINE
  8
LAYER_1
 10
-264.00000000
 20
1517.87500000
 11
-288.00000000
 21
1517.87500000
  0
CIRCLE
  8
LAYER_1
 10
-276.00000000
 20
1517.87500000
 40
6.00000000
  0
LINE
  8
LAYER_2
 10
-116.12500000
 20
1494.12500000
 11
-98.25000000
 21
1494.12500000
  0
LINE
  8
LAYER_2
 10
-110.12500000
 20
1495.56200787
 11
-116.12500000
 21
1494.12500000
  0
LINE
  8
LAYER_2
 10
-110.12500000
 20
1492.68799213
 11
-116.12500000
 21
1494.12500000
  0
LINE
  8
LAYER_2
 10
-110.12500000
 20
1495.56200787
 11
-110.12500000
 21
1492.68799213
  0
LINE
  8
LAYER_2
 10
-116.12500000
 20
1494.12500000
 11
-116.12500000
 21
1494.12500000
  0
LINE
  8
LAYER_2
 10
-116.00000000
 20
1494.09522638
 11
-116.00000000
 21
1494.15477362
  0
LINE
  8
LAYER_2
 10
-115.87500000
 20
1494.06520669
 11
-115.87500000
 21
1494.18479331
  0
LINE
  8
LAYER_2
 10
-115.75000000
 20
1494.03518701
 11
-115.75000000
 21
1494.21481299
  0
LINE
  8
LAYER_2
 10
-115.62500000
 20
1494.00541339
 11
-115.62500000
 21
1494.24458661
  0
LINE
  8
LAYER_2
 10
-115.50000000
 20
1493.97539370
 11
-115.50000000
 21
1494.27460630
  0
LINE
  8
LAYER_2
 10
-115.37500000
 20
1493.94537402
 11
-115.37500000
 21
1494.30462598
  0
LINE
  8
LAYER_2
 10
-115.25000000
 20
1493.91560039
 11
-115.25000000
 21
1494.33439961
  0
LINE
  8
LAYER_2
 10
-115.12500000
 20
1493.88558071
 11
-115.12500000
 21
1494.36441929
  0
LINE
  8
LAYER_2
 10
-115.00000000
 20
1493.85556102
 11
-115.00000000
 21
1494.39443898
  0
LINE
  8
LAYER_2
 10
-114.87500000
 20
1493.82578740
 11
-114.87500000
 21
1494.42421260
  0
LINE
  8
LAYER_2
 10
-114.75000000
 20
1493.79576772
 11
-114.75000000
 21
1494.45423228
  0
LINE
  8
LAYER_2
 10
-114.62500000
 20
1493.76574803
 11
-114.62500000
 21
1494.48425197
  0
LINE
  8
LAYER_2
 10
-114.50000000
 20
1493.73597441
 11
-114.50000000
 21
1494.51402559
  0
LINE
  8
LAYER_2
 10
-114.37500000
 20
1493.70595472
 11
-114.37500000
 21
1494.54404528
  0
LINE
  8
LAYER_2
 10
-114.25000000
 20
1493.67593504
 11
-114.25000000
 21
1494.57406496
  0
LINE
  8
LAYER_2
 10
-114.12500000
 20
1493.64616142
 11
-114.12500000
 21
1494.60383858
  0
LINE
  8
LAYER_2
 10
-114.00000000
 20
1493.61614173
 11
-114.00000000
 21
1494.63385827
  0
LINE
  8
LAYER_2
 10
-113.87500000
 20
1493.58612205
 11
-113.87500000
 21
1494.66387795
  0
LINE
  8
LAYER_2
 10
-113.75000000
 20
1493.55634843
 11
-113.75000000
 21
1494.69365157
  0
LINE
  8
LAYER_2
 10
-113.62500000
 20
1493.52632874
 11
-113.62500000
 21
1494.72367126
  0
LINE
  8
LAYER_2
 10
-113.50000000
 20
1493.49630906
 11
-113.50000000
 21
1494.75369094
  0
LINE
  8
LAYER_2
 10
-113.37500000
 20
1493.46653543
 11
-113.37500000
 21
1494.78346457
  0
LINE
  8
LAYER_2
 10
-113.25000000
 20
1493.43651575
 11
-113.25000000
 21
1494.81348425
  0
LINE
  8
LAYER_2
 10
-113.12500000
 20
1493.40649606
 11
-113.12500000
 21
1494.84350394
  0
LINE
  8
LAYER_2
 10
-113.00000000
 20
1493.37672244
 11
-113.00000000
 21
1494.87327756
  0
LINE
  8
LAYER_2
 10
-112.87500000
 20
1493.34670276
 11
-112.87500000
 21
1494.90329724
  0
LINE
  8
LAYER_2
 10
-112.75000000
 20
1493.31668307
 11
-112.75000000
 21
1494.93331693
  0
LINE
  8
LAYER_2
 10
-112.62500000
 20
1493.28690945
 11
-112.62500000
 21
1494.96309055
  0
LINE
  8
LAYER_2
 10
-112.50000000
 20
1493.25688976
 11
-112.50000000
 21
1494.99311024
  0
LINE
  8
LAYER_2
 10
-112.37500000
 20
1493.22687008
 11
-112.37500000
 21
1495.02312992
  0
LINE
  8
LAYER_2
 10
-112.25000000
 20
1493.19709646
 11
-112.25000000
 21
1495.05290354
  0
LINE
  8
LAYER_2
 10
-112.12500000
 20
1493.16707677
 11
-112.12500000
 21
1495.08292323
  0
LINE
  8
LAYER_2
 10
-112.00000000
 20
1493.13705709
 11
-112.00000000
 21
1495.11294291
  0
LINE
  8
LAYER_2
 10
-111.87500000
 20
1493.10728346
 11
-111.87500000
 21
1495.14271654
  0
LINE
  8
LAYER_2
 10
-111.75000000
 20
1493.07726378
 11
-111.75000000
 21
1495.17273622
  0
LINE
  8
LAYER_2
 10
-111.62500000
 20
1493.04724409
 11
-111.62500000
 21
1495.20275591
  0
LINE
  8
LAYER_2
 10
-111.50000000
 20
1493.01747047
 11
-111.50000000
 21
1495.23252953
  0
LINE
  8
LAYER_2
 10
-111.37500000
 20
1492.98745079
 11
-111.37500000
 21
1495.26254921
  0
LINE
  8
LAYER_2
 10
-111.25000000
 20
1492.95743110
 11
-111.25000000
 21
1495.29256890
  0
LINE
  8
LAYER_2
 10
-111.12500000
 20
1492.92765748
 11
-111.12500000
 21
1495.32234252
  0
LINE
  8
LAYER_2
 10
-111.00000000
 20
1492.89763780
 11
-111.00000000
 21
1495.35236220
  0
LINE
  8
LAYER_2
 10
-110.87500000
 20
1492.86761811
 11
-110.87500000
 21
1495.38238189
  0
LINE
  8
LAYER_2
 10
-110.75000000
 20
1492.83784449
 11
-110.75000000
 21
1495.41215551
  0
LINE
  8
LAYER_2
 10
-110.62500000
 20
1492.80782480
 11
-110.62500000
 21
1495.44217520
  0
LINE
  8
LAYER_2
 10
-110.50000000
 20
1492.77780512
 11
-110.50000000
 21
1495.47219488
  0
LINE
  8
LAYER_2
 10
-110.37500000
 20
1492.74803150
 11
-110.37500000
 21
1495.50196850
  0
LINE
  8
LAYER_2
 10
-110.25000000
 20
1492.71801181
 11
-110.25000000
 21
1495.53198819
  0
LINE
  8
LAYER_5
 10
157.00000000
 20
1397.87500000
 11
152.00000000
 21
1397.87500000
  0
LINE
  8
LAYER_5
 10
157.00000000
 20
1349.87500000
 11
152.00000000
 21
1349.87500000
  0
LINE
  8
LAYER_5
 10
154.75000000
 20
1397.87500000
 11
154.75000000
 21
1349.87500000
  0
LINE
  8
LAYER_5
 10
152.00000000
 20
1397.87500000
 11
152.00000000
 21
1349.87500000
  0
LINE
  8
LAYER_5
 10
154.75000000
 20
1397.87500000
 11
152.00000000
 21
1397.87500000
  0
LINE
  8
LAYER_5
 10
154.75000000
 20
1395.87500000
 11
152.00000000
 21
1395.87500000
  0
LINE
  8
LAYER_5
 10
154.75000000
 20
1349.87500000
 11
152.00000000
 21
1349.87500000
  0
LINE
  8
LAYER_5
 10
154.75000000
 20
1351.87500000
 11
152.00000000
 21
1351.87500000
  0
LINE
  8
LAYER_5
 10
154.75000000
 20
1372.87500000
 11
152.00000000
 21
1372.87500000
  0
LINE
  8
LAYER_5
 10
154.75000000
 20
1374.87500000
 11
152.00000000
 21
1374.87500000
  0
LINE
  8
LAYER_5
 10
152.00000000
 20
1374.87500000
 11
152.00000000
 21
1372.87500000
  0
LINE
  8
LAYER_5
 10
154.75000000
 20
1374.87500000
 11
154.75000000
 21
1372.87500000
  0
LINE
  8
LAYER_5
 10
153.37500000
 20
1395.87500000
 11
153.37500000
 21
1374.87500000
  0
LINE
  8
LAYER_5
 10
153.37500000
 20
1372.87500000
 11
153.37500000
 21
1351.87500000
  0
LINE
  8
LAYER_5
 10
157.00000000
 20
1397.87500000
 11
157.00000000
 21
1349.87500000
  0
LINE
  8
LAYER_5
 10
152.00000000
 20
1397.87500000
 11
152.00000000
 21
1349.87500000
  0
TEXT
  1
4' 0" x 3' 4"
  7
SPSIMP
  8
LAYER_5
 10
161.95989173
 20
1360.06250000
 40
2.54689338
 50
90.00000000
  0
LINE
  8
LAYER_5
 10
-277.00000000
 20
1397.87500000
 11
-272.00000000
 21
1397.87500000
  0
LINE
  8
LAYER_5
 10
-277.00000000
 20
1349.87500000
 11
-272.00000000
 21
1349.87500000
  0
LINE
  8
LAYER_5
 10
-272.00000000
 20
1397.87500000
 11
-272.00000000
 21
1349.87500000
  0
LINE
  8
LAYER_5
 10
-274.75000000
 20
1397.87500000
 11
-274.75000000
 21
1349.87500000
  0
LINE
  8
LAYER_5
 10
-272.00000000
 20
1397.87500000
 11
-274.75000000
 21
1397.87500000
  0
LINE
  8
LAYER_5
 10
-272.00000000
 20
1395.87500000
 11
-274.75000000
 21
1395.87500000
  0
LINE
  8
LAYER_5
 10
-272.00000000
 20
1349.87500000
 11
-274.75000000
 21
1349.87500000
  0
LINE
  8
LAYER_5
 10
-272.00000000
 20
1351.87500000
 11
-274.75000000
 21
1351.87500000
  0
LINE
  8
LAYER_5
 10
-272.00000000
 20
1372.87500000
 11
-274.75000000
 21
1372.87500000
  0
LINE
  8
LAYER_5
 10
-272.00000000
 20
1374.87500000
 11
-274.75000000
 21
1374.87500000
  0
LINE
  8
LAYER_5
 10
-274.75000000
 20
1374.87500000
 11
-274.75000000
 21
1372.87500000
  0
LINE
  8
LAYER_5
 10
-272.00000000
 20
1374.87500000
 11
-272.00000000
 21
1372.87500000
  0
LINE
  8
LAYER_5
 10
-273.37500000
 20
1395.87500000
 11
-273.37500000
 21
1374.87500000
  0
LINE
  8
LAYER_5
 10
-273.37500000
 20
1372.87500000
 11
-273.37500000
 21
1351.87500000
  0
LINE
  8
LAYER_5
 10
-277.00000000
 20
1397.87500000
 11
-277.00000000
 21
1349.87500000
  0
LINE
  8
LAYER_5
 10
-272.00000000
 20
1397.87500000
 11
-272.00000000
 21
1349.87500000
  0
TEXT
  1
4' 0" x 3' 4"
  7
SPSIMP
  8
LAYER_5
 10
-280.90329724
 20
1360.06250000
 40
2.54689338
 50
90.00000000
  0
LINE
  8
LAYER_5
 10
-139.00000000
 20
1518.87500000
 11
-139.00000000
 21
1513.87500000
  0
LINE
  8
LAYER_5
 10
-103.00000000
 20
1518.87500000
 11
-103.00000000
 21
1513.87500000
  0
LINE
  8
LAYER_5
 10
-139.00000000
 20
1516.62500000
 11
-103.00000000
 21
1516.62500000
  0
LINE
  8
LAYER_5
 10
-139.00000000
 20
1513.87500000
 11
-103.00000000
 21
1513.87500000
  0
LINE
  8
LAYER_5
 10
-139.00000000
 20
1516.62500000
 11
-139.00000000
 21
1513.87500000
  0
LINE
  8
LAYER_5
 10
-137.00000000
 20
1516.62500000
 11
-137.00000000
 21
1513.87500000
  0
LINE
  8
LAYER_5
 10
-103.00000000
 20
1516.62500000
 11
-103.00000000
 21
1513.87500000
  0
LINE
  8
LAYER_5
 10
-105.00000000
 20
1516.62500000
 11
-105.00000000
 21
1513.87500000
  0
LINE
  8
LAYER_5
 10
-137.00000000
 20
1515.25000000
 11
-105.00000000
 21
1515.25000000
  0
LINE
  8
LAYER_5
 10
-141.75000000
 20
1518.87500000
 11
-141.75000000
 21
1520.87500000
  0
LINE
  8
LAYER_5
 10
-100.25000000
 20
1518.87500000
 11
-100.25000000
 21
1520.87500000
  0
LINE
  8
LAYER_5
 10
-141.75000000
 20
1520.87500000
 11
-100.25000000
 21
1520.87500000
  0
LINE
  8
LAYER_5
 10
-139.00000000
 20
1513.87500000
 11
-103.00000000
 21
1513.87500000
  0
TEXT
  1
3' 0" x 3' 0"
  7
SPSIMP
  8
LAYER_5
 10
-134.81250000
 20
1522.77829724
 40
2.54689338
 50
0.00000000
  0
LINE
  8
LAYER_5
 10
-211.00000000
 20
1254.37500000
 11
-211.00000000
 21
1259.37500000
  0
LINE
  8
LAYER_5
 10
-179.00000000
 20
1254.37500000
 11
-179.00000000
 21
1259.37500000
  0
LINE
  8
LAYER_5
 10
-211.00000000
 20
1259.37500000
 11
-179.00000000
 21
1259.37500000
  0
LINE
  8
LAYER_5
 10
-211.00000000
 20
1256.62500000
 11
-179.00000000
 21
1256.62500000
  0
LINE
  8
LAYER_5
 10
-211.00000000
 20
1259.37500000
 11
-211.00000000
 21
1256.62500000
  0
LINE
  8
LAYER_5
 10
-209.00000000
 20
1259.37500000
 11
-209.00000000
 21
1256.62500000
  0
LINE
  8
LAYER_5
 10
-179.00000000
 20
1259.37500000
 11
-179.00000000
 21
1256.62500000
  0
LINE
  8
LAYER_5
 10
-181.00000000
 20
1259.37500000
 11
-181.00000000
 21
1256.62500000
  0
LINE
  8
LAYER_5
 10
-194.00000000
 20
1259.37500000
 11
-194.00000000
 21
1256.62500000
  0
LINE
  8
LAYER_5
 10
-196.00000000
 20
1259.37500000
 11
-196.00000000
 21
1256.62500000
  0
LINE
  8
LAYER_5
 10
-196.00000000
 20
1256.62500000
 11
-194.00000000
 21
1256.62500000
  0
LINE
  8
LAYER_5
 10
-196.00000000
 20
1259.37500000
 11
-194.00000000
 21
1259.37500000
  0
LINE
  8
LAYER_5
 10
-209.00000000
 20
1258.00000000
 11
-196.00000000
 21
1258.00000000
  0
LINE
  8
LAYER_5
 10
-194.00000000
 20
1258.00000000
 11
-181.00000000
 21
1258.00000000
  0
LINE
  8
LAYER_5
 10
-211.00000000
 20
1254.37500000
 11
-179.00000000
 21
1254.37500000
  0
LINE
  8
LAYER_5
 10
-211.00000000
 20
1259.37500000
 11
-179.00000000
 21
1259.37500000
  0
TEXT
  1
2' 8" x 3' 8"
  7
SPSIMP
  8
LAYER_5
 10
-208.81250000
 20
1249.41510827
 40
2.54689338
 50
0.00000000
  0
LINE
  8
LAYER_5
 10
59.00000000
 20
1254.37500000
 11
59.00000000
 21
1259.37500000
  0
LINE
  8
LAYER_5
 10
91.00000000
 20
1254.37500000
 11
91.00000000
 21
1259.37500000
  0
LINE
  8
LAYER_5
 10
59.00000000
 20
1259.37500000
 11
91.00000000
 21
1259.37500000
  0
LINE
  8
LAYER_5
 10
59.00000000
 20
1256.62500000
 11
91.00000000
 21
1256.62500000
  0
LINE
  8
LAYER_5
 10
59.00000000
 20
1259.37500000
 11
59.00000000
 21
1256.62500000
  0
LINE
  8
LAYER_5
 10
61.00000000
 20
1259.37500000
 11
61.00000000
 21
1256.62500000
  0
LINE
  8
LAYER_5
 10
91.00000000
 20
1259.37500000
 11
91.00000000
 21
1256.62500000
  0
LINE
  8
LAYER_5
 10
89.00000000
 20
1259.37500000
 11
89.00000000
 21
1256.62500000
  0
LINE
  8
LAYER_5
 10
76.00000000
 20
1259.37500000
 11
76.00000000
 21
1256.62500000
  0
LINE
  8
LAYER_5
 10
74.00000000
 20
1259.37500000
 11
74.00000000
 21
1256.62500000
  0
LINE
  8
LAYER_5
 10
74.00000000
 20
1256.62500000
 11
76.00000000
 21
1256.62500000
  0
LINE
  8
LAYER_5
 10
74.00000000
 20
1259.37500000
 11
76.00000000
 21
1259.37500000
  0
LINE
  8
LAYER_5
 10
61.00000000
 20
1258.00000000
 11
74.00000000
 21
1258.00000000
  0
LINE
  8
LAYER_5
 10
76.00000000
 20
1258.00000000
 11
89.00000000
 21
1258.00000000
  0
LINE
  8
LAYER_5
 10
59.00000000
 20
1254.37500000
 11
91.00000000
 21
1254.37500000
  0
LINE
  8
LAYER_5
 10
59.00000000
 20
1259.37500000
 11
91.00000000
 21
1259.37500000
  0
TEXT
  1
2' 8" x 3' 8"
  7
SPSIMP
  8
LAYER_5
 10
61.18750000
 20
1249.41510827
 40
2.54689338
 50
0.00000000
  0
LINE
  8
LAYER_5
 10
-76.00000000
 20
1254.37500000
 11
-76.00000000
 21
1259.37500000
  0
LINE
  8
LAYER_5
 10
-44.00000000
 20
1254.37500000
 11
-44.00000000
 21
1259.37500000
  0
LINE
  8
LAYER_5
 10
-76.00000000
 20
1259.37500000
 11
-44.00000000
 21
1259.37500000
  0
LINE
  8
LAYER_5
 10
-76.00000000
 20
1256.62500000
 11
-44.00000000
 21
1256.62500000
  0
LINE
  8
LAYER_5
 10
-76.00000000
 20
1259.37500000
 11
-76.00000000
 21
1256.62500000
  0
LINE
  8
LAYER_5
 10
-74.00000000
 20
1259.37500000
 11
-74.00000000
 21
1256.62500000
  0
LINE
  8
LAYER_5
 10
-44.00000000
 20
1259.37500000
 11
-44.00000000
 21
1256.62500000
  0
LINE
  8
LAYER_5
 10
-46.00000000
 20
1259.37500000
 11
-46.00000000
 21
1256.62500000
  0
LINE
  8
LAYER_5
 10
-59.00000000
 20
1259.37500000
 11
-59.00000000
 21
1256.62500000
  0
LINE
  8
LAYER_5
 10
-61.00000000
 20
1259.37500000
 11
-61.00000000
 21
1256.62500000
  0
LINE
  8
LAYER_5
 10
-61.00000000
 20
1256.62500000
 11
-59.00000000
 21
1256.62500000
  0
LINE
  8
LAYER_5
 10
-61.00000000
 20
1259.37500000
 11
-59.00000000
 21
1259.37500000
  0
LINE
  8
LAYER_5
 10
-74.00000000
 20
1258.00000000
 11
-61.00000000
 21
1258.00000000
  0
LINE
  8
LAYER_5
 10
-59.00000000
 20
1258.00000000
 11
-46.00000000
 21
1258.00000000
  0
LINE
  8
LAYER_5
 10
-76.00000000
 20
1254.37500000
 11
-44.00000000
 21
1254.37500000
  0
LINE
  8
LAYER_5
 10
-76.00000000
 20
1259.37500000
 11
-44.00000000
 21
1259.37500000
  0
TEXT
  1
2' 8" x 3' 8"
  7
SPSIMP
  8
LAYER_5
 10
-73.81250000
 20
1249.41510827
 40
2.54689338
 50
0.00000000
  0
LINE
  8
LAYER_14
 10
-129.00000000
 20
1375.87500000
 11
-125.00000000
 21
1375.87500000
  0
LINE
  8
LAYER_14
 10
-129.00000000
 20
1371.87500000
 11
-125.00000000
 21
1371.87500000
  0
LINE
  8
LAYER_14
 10
-125.00000000
 20
1375.87500000
 11
-125.00000000
 21
1371.87500000
  0
LINE
  8
LAYER_14
 10
-129.00000000
 20
1375.87500000
 11
-129.00000000
 21
1371.87500000
  0
LINE
  8
LAYER_14
 10
6.00000000
 20
1375.62500000
 11
10.00000000
 21
1375.62500000
  0
LINE
  8
LAYER_14
 10
6.00000000
 20
1371.62500000
 11
10.00000000
 21
1371.62500000
  0
LINE
  8
LAYER_14
 10
10.00000000
 20
1375.62500000
 11
10.00000000
 21
1371.62500000
  0
LINE
  8
LAYER_14
 10
6.00000000
 20
1375.62500000
 11
6.00000000
 21
1371.62500000
  0
LINE
  8
LAYER_4
 10
14.00000000
 20
1354.07381890
 11
10.12500000
 21
1354.25000000
  0
LINE
  8
LAYER_4
 10
10.12500000
 20
1354.25000000
 11
8.37500000
 21
1371.12500000
  0
LINE
  8
LAYER_4
 10
10.42298228
 20
1365.30536417
 11
8.37500000
 21
1371.12500000
  0
LINE
  8
LAYER_4
 10
7.56471457
 20
1365.00910433
 11
8.37500000
 21
1371.12500000
  0
LINE
  8
LAYER_11
 10
-276.00000000
 20
1171.37500000
 11
156.00000000
 21
1171.37500000
  0
LINE
  8
LAYER_11
 10
154.25000000
 20
1169.62500000
 11
157.75000000
 21
1173.12500000
  0
LINE
  8
LAYER_11
 10
154.50000000
 20
1169.62500000
 11
158.00000000
 21
1173.12500000
  0
LINE
  8
LAYER_11
 10
154.00000000
 20
1169.62500000
 11
157.50000000
 21
1173.12500000
  0
LINE
  8
LAYER_11
 10
-274.25000000
 20
1173.12500000
 11
-277.75000000
 21
1169.62500000
  0
LINE
  8
LAYER_11
 10
-274.50000000
 20
1173.12500000
 11
-278.00000000
 21
1169.62500000
  0
LINE
  8
LAYER_11
 10
-274.00000000
 20
1173.12500000
 11
-277.50000000
 21
1169.62500000
  0
TEXT
  1
36' 0"
  7
SPSIMP
  8
LAYER_11
 10
-70.93750000
 20
1176.18750000
 40
4.24501086
 50
0.00000000
  0
LINE
  8
LAYER_11
 10
-276.00000000
 20
1576.75000000
 11
156.00000000
 21
1576.75000000
  0
LINE
  8
LAYER_11
 10
154.25000000
 20
1575.00000000
 11
157.75000000
 21
1578.50000000
  0
LINE
  8
LAYER_11
 10
154.50000000
 20
1575.00000000
 11
158.00000000
 21
1578.50000000
  0
LINE
  8
LAYER_11
 10
154.00000000
 20
1575.00000000
 11
157.50000000
 21
1578.50000000
  0
LINE
  8
LAYER_11
 10
-274.25000000
 20
1578.50000000
 11
-277.75000000
 21
1575.00000000
  0
LINE
  8
LAYER_11
 10
-274.50000000
 20
1578.50000000
 11
-278.00000000
 21
1575.00000000
  0
LINE
  8
LAYER_11
 10
-274.00000000
 20
1578.50000000
 11
-277.50000000
 21
1575.00000000
  0
TEXT
  1
36' 0"
  7
SPSIMP
  8
LAYER_11
 10
-70.93750000
 20
1581.56250000
 40
4.24501086
 50
0.00000000
  0
LINE
  8
LAYER_11
 10
-276.00000000
 20
1394.12500000
 11
-127.00000000
 21
1394.12500000
  0
LINE
  8
LAYER_11
 10
-128.75000000
 20
1392.37500000
 11
-125.25000000
 21
1395.87500000
  0
LINE
  8
LAYER_11
 10
-128.50000000
 20
1392.37500000
 11
-125.00000000
 21
1395.87500000
  0
LINE
  8
LAYER_11
 10
-129.00000000
 20
1392.37500000
 11
-125.50000000
 21
1395.87500000
  0
LINE
  8
LAYER_11
 10
-274.25000000
 20
1395.87500000
 11
-277.75000000
 21
1392.37500000
  0
LINE
  8
LAYER_11
 10
-274.50000000
 20
1395.87500000
 11
-278.00000000
 21
1392.37500000
  0
LINE
  8
LAYER_11
 10
-274.00000000
 20
1395.87500000
 11
-277.50000000
 21
1392.37500000
  0
TEXT
  1
12' 5"
  7
SPSIMP
  8
LAYER_11
 10
-212.00000000
 20
1398.93750000
 40
4.24501086
 50
0.00000000
  0
LINE
  8
LAYER_11
 10
-127.00000000
 20
1394.12500000
 11
8.00000000
 21
1394.12500000
  0
LINE
  8
LAYER_11
 10
6.25000000
 20
1392.37500000
 11
9.75000000
 21
1395.87500000
  0
LINE
  8
LAYER_11
 10
6.50000000
 20
1392.37500000
 11
10.00000000
 21
1395.87500000
  0
LINE
  8
LAYER_11
 10
6.00000000
 20
1392.37500000
 11
9.50000000
 21
1395.87500000
  0
LINE
  8
LAYER_11
 10
-125.25000000
 20
1395.87500000
 11
-128.75000000
 21
1392.37500000
  0
LINE
  8
LAYER_11
 10
-125.50000000
 20
1395.87500000
 11
-129.00000000
 21
1392.37500000
  0
LINE
  8
LAYER_11
 10
-125.00000000
 20
1395.87500000
 11
-128.50000000
 21
1392.37500000
  0
TEXT
  1
11' 3"
  7
SPSIMP
  8
LAYER_11
 10
-59.31250000
 20
1398.68750000
 40
4.24501086
 50
0.00000000
  0
LINE
  8
LAYER_11
 10
8.00000000
 20
1394.12500000
 11
156.00000000
 21
1394.12500000
  0
LINE
  8
LAYER_11
 10
154.25000000
 20
1392.37500000
 11
157.75000000
 21
1395.87500000
  0
LINE
  8
LAYER_11
 10
154.50000000
 20
1392.37500000
 11
158.00000000
 21
1395.87500000
  0
LINE
  8
LAYER_11
 10
154.00000000
 20
1392.37500000
 11
157.50000000
 21
1395.87500000
  0
LINE
  8
LAYER_11
 10
9.75000000
 20
1395.87500000
 11
6.25000000
 21
1392.37500000
  0
LINE
  8
LAYER_11
 10
9.50000000
 20
1395.87500000
 11
6.00000000
 21
1392.37500000
  0
LINE
  8
LAYER_11
 10
10.00000000
 20
1395.87500000
 11
6.50000000
 21
1392.37500000
  0
TEXT
  1
12' 4"
  7
SPSIMP
  8
LAYER_11
 10
47.00000000
 20
1400.68750000
 40
4.24501086
 50
0.00000000
  0
LINE
  8
LAYER_11
 10
-276.00000000
 20
1460.87500000
 11
-203.00000000
 21
1460.87500000
  0
LINE
  8
LAYER_11
 10
-204.75000000
 20
1459.12500000
 11
-201.25000000
 21
1462.62500000
  0
LINE
  8
LAYER_11
 10
-204.50000000
 20
1459.12500000
 11
-201.00000000
 21
1462.62500000
  0
LINE
  8
LAYER_11
 10
-205.00000000
 20
1459.12500000
 11
-201.50000000
 21
1462.62500000
  0
LINE
  8
LAYER_11
 10
-274.25000000
 20
1462.62500000
 11
-277.75000000
 21
1459.12500000
  0
LINE
  8
LAYER_11
 10
-274.50000000
 20
1462.62500000
 11
-278.00000000
 21
1459.12500000
  0
LINE
  8
LAYER_11
 10
-274.00000000
 20
1462.62500000
 11
-277.50000000
 21
1459.12500000
  0
TEXT
  1
6' 1"
  7
SPSIMP
  8
LAYER_11
 10
-247.87500000
 20
1465.68750000
 40
4.24501086
 50
0.00000000
  0
LINE
  8
LAYER_11
 10
-312.75000000
 20
1229.87500000
 11
-312.75000000
 21
1517.87500000
  0
LINE
  8
LAYER_11
 10
-311.00000000
 20
1516.12500000
 11
-314.50000000
 21
1519.62500000
  0
LINE
  8
LAYER_11
 10
-311.00000000
 20
1516.37500000
 11
-314.50000000
 21
1519.87500000
  0
LINE
  8
LAYER_11
 10
-311.00000000
 20
1515.87500000
 11
-314.50000000
 21
1519.37500000
  0
LINE
  8
LAYER_11
 10
-314.50000000
 20
1231.62500000
 11
-311.00000000
 21
1228.12500000
  0
LINE
  8
LAYER_11
 10
-314.50000000
 20
1231.37500000
 11
-311.00000000
 21
1227.87500000
  0
LINE
  8
LAYER_11
 10
-314.50000000
 20
1231.87500000
 11
-311.00000000
 21
1228.37500000
  0
TEXT
  1
24' 0"
  7
SPSIMP
  8
LAYER_11
 10
-317.56250000
 20
1362.93750000
 40
4.24501086
 50
90.00000000
  0
LINE
  8
LAYER_11
 10
-296.75000000
 20
1229.87500000
 11
-296.75000000
 21
1373.87500000
  0
LINE
  8
LAYER_11
 10
-295.00000000
 20
1372.12500000
 11
-298.50000000
 21
1375.62500000
  0
LINE
  8
LAYER_11
 10
-295.00000000
 20
1372.37500000
 11
-298.50000000
 21
1375.87500000
  0
LINE
  8
LAYER_11
 10
-295.00000000
 20
1371.87500000
 11
-298.50000000
 21
1375.37500000
  0
LINE
  8
LAYER_11
 10
-298.50000000
 20
1231.62500000
 11
-295.00000000
 21
1228.12500000
  0
LINE
  8
LAYER_11
 10
-298.50000000
 20
1231.37500000
 11
-295.00000000
 21
1227.87500000
  0
LINE
  8
LAYER_11
 10
-298.50000000
 20
1231.87500000
 11
-295.00000000
 21
1228.37500000
  0
TEXT
  1
12' 0"
  7
SPSIMP
  8
LAYER_11
 10
-301.56250000
 20
1291.37500000
 40
4.24501086
 50
90.00000000
  0
LINE
  8
LAYER_11
 10
-296.75000000
 20
1373.87500000
 11
-296.75000000
 21
1517.87500000
  0
LINE
  8
LAYER_11
 10
-295.00000000
 20
1516.12500000
 11
-298.50000000
 21
1519.62500000
  0
LINE
  8
LAYER_11
 10
-295.00000000
 20
1516.37500000
 11
-298.50000000
 21
1519.87500000
  0
LINE
  8
LAYER_11
 10
-295.00000000
 20
1515.87500000
 11
-298.50000000
 21
1519.37500000
  0
LINE
  8
LAYER_11
 10
-298.50000000
 20
1375.62500000
 11
-295.00000000
 21
1372.12500000
  0
LINE
  8
LAYER_11
 10
-298.50000000
 20
1375.37500000
 11
-295.00000000
 21
1371.87500000
  0
LINE
  8
LAYER_11
 10
-298.50000000
 20
1375.87500000
 11
-295.00000000
 21
1372.37500000
  0
TEXT
  1
12' 0"
  7
SPSIMP
  8
LAYER_11
 10
-301.56250000
 20
1435.37500000
 40
4.24501086
 50
90.00000000
  0
LINE
  8
LAYER_11
 10
189.25000000
 20
1229.87500000
 11
189.25000000
 21
1517.87500000
  0
LINE
  8
LAYER_11
 10
191.00000000
 20
1516.12500000
 11
187.50000000
 21
1519.62500000
  0
LINE
  8
LAYER_11
 10
191.00000000
 20
1516.37500000
 11
187.50000000
 21
1519.87500000
  0
LINE
  8
LAYER_11
 10
191.00000000
 20
1515.87500000
 11
187.50000000
 21
1519.37500000
  0
LINE
  8
LAYER_11
 10
187.50000000
 20
1231.62500000
 11
191.00000000
 21
1228.12500000
  0
LINE
  8
LAYER_11
 10
187.50000000
 20
1231.37500000
 11
191.00000000
 21
1227.87500000
  0
LINE
  8
LAYER_11
 10
187.50000000
 20
1231.87500000
 11
191.00000000
 21
1228.37500000
  0
TEXT
  1
24' 0"
  7
SPSIMP
  8
LAYER_11
 10
184.43750000
 20
1362.93750000
 40
4.24501086
 50
90.00000000
  0
LINE
  8
LAYER_11
 10
173.25000000
 20
1229.87500000
 11
173.25000000
 21
1373.87500000
  0
LINE
  8
LAYER_11
 10
175.00000000
 20
1372.12500000
 11
171.50000000
 21
1375.62500000
  0
LINE
  8
LAYER_11
 10
175.00000000
 20
1372.37500000
 11
171.50000000
 21
1375.87500000
  0
LINE
  8
LAYER_11
 10
175.00000000
 20
1371.87500000
 11
171.50000000
 21
1375.37500000
  0
LINE
  8
LAYER_11
 10
171.50000000
 20
1231.62500000
 11
175.00000000
 21
1228.12500000
  0
LINE
  8
LAYER_11
 10
171.50000000
 20
1231.37500000
 11
175.00000000
 21
1227.87500000
  0
LINE
  8
LAYER_11
 10
171.50000000
 20
1231.87500000
 11
175.00000000
 21
1228.37500000
  0
TEXT
  1
12' 0"
  7
SPSIMP
  8
LAYER_11
 10
168.43750000
 20
1291.37500000
 40
4.24501086
 50
90.00000000
  0
LINE
  8
LAYER_11
 10
173.25000000
 20
1373.87500000
 11
173.25000000
 21
1517.87500000
  0
LINE
  8
LAYER_11
 10
175.00000000
 20
1516.12500000
 11
171.50000000
 21
1519.62500000
  0
LINE
  8
LAYER_11
 10
175.00000000
 20
1516.37500000
 11
171.50000000
 21
1519.87500000
  0
LINE
  8
LAYER_11
 10
175.00000000
 20
1515.87500000
 11
171.50000000
 21
1519.37500000
  0
LINE
  8
LAYER_11
 10
171.50000000
 20
1375.62500000
 11
175.00000000
 21
1372.12500000
  0
LINE
  8
LAYER_11
 10
171.50000000
 20
1375.37500000
 11
175.00000000
 21
1371.87500000
  0
LINE
  8
LAYER_11
 10
171.50000000
 20
1375.87500000
 11
175.00000000
 21
1372.37500000
  0
TEXT
  1
12' 0"
  7
SPSIMP
  8
LAYER_11
 10
168.43750000
 20
1435.37500000
 40
4.24501086
 50
90.00000000
  0
LINE
  8
LAYER_11
 10
-276.00000000
 20
1191.12500000
 11
-224.00000000
 21
1191.12500000
  0
LINE
  8
LAYER_11
 10
-225.75000000
 20
1189.37500000
 11
-222.25000000
 21
1192.87500000
  0
LINE
  8
LAYER_11
 10
-225.50000000
 20
1189.37500000
 11
-222.00000000
 21
1192.87500000
  0
LINE
  8
LAYER_11
 10
-226.00000000
 20
1189.37500000
 11
-222.50000000
 21
1192.87500000
  0
LINE
  8
LAYER_11
 10
-274.25000000
 20
1192.87500000
 11
-277.75000000
 21
1189.37500000
  0
LINE
  8
LAYER_11
 10
-274.50000000
 20
1192.87500000
 11
-278.00000000
 21
1189.37500000
  0
LINE
  8
LAYER_11
 10
-274.00000000
 20
1192.87500000
 11
-277.50000000
 21
1189.37500000
  0
TEXT
  1
4' 4"
  7
SPSIMP
  8
LAYER_11
 10
-258.81250000
 20
1195.93750000
 40
4.24501086
 50
0.00000000
  0
LINE
  8
LAYER_11
 10
-224.00000000
 20
1191.12500000
 11
-166.00000000
 21
1191.12500000
  0
LINE
  8
LAYER_11
 10
-167.75000000
 20
1189.37500000
 11
-164.25000000
 21
1192.87500000
  0
LINE
  8
LAYER_11
 10
-167.50000000
 20
1189.37500000
 11
-164.00000000
 21
1192.87500000
  0
LINE
  8
LAYER_11
 10
-168.00000000
 20
1189.37500000
 11
-164.50000000
 21
1192.87500000
  0
LINE
  8
LAYER_11
 10
-222.25000000
 20
1192.87500000
 11
-225.75000000
 21
1189.37500000
  0
LINE
  8
LAYER_11
 10
-222.50000000
 20
1192.87500000
 11
-226.00000000
 21
1189.37500000
  0
LINE
  8
LAYER_11
 10
-222.00000000
 20
1192.87500000
 11
-225.50000000
 21
1189.37500000
  0
TEXT
  1
4' 10"
  7
SPSIMP
  8
LAYER_11
 10
-205.50000000
 20
1195.93750000
 40
4.24501086
 50
0.00000000
  0
LINE
  8
LAYER_11
 10
46.00000000
 20
1191.12500000
 11
104.00000000
 21
1191.12500000
  0
LINE
  8
LAYER_11
 10
102.25000000
 20
1189.37500000
 11
105.75000000
 21
1192.87500000
  0
LINE
  8
LAYER_11
 10
102.50000000
 20
1189.37500000
 11
106.00000000
 21
1192.87500000
  0
LINE
  8
LAYER_11
 10
102.00000000
 20
1189.37500000
 11
105.50000000
 21
1192.87500000
  0
LINE
  8
LAYER_11
 10
47.75000000
 20
1192.87500000
 11
44.25000000
 21
1189.37500000
  0
LINE
  8
LAYER_11
 10
47.50000000
 20
1192.87500000
 11
44.00000000
 21
1189.37500000
  0
LINE
  8
LAYER_11
 10
48.00000000
 20
1192.87500000
 11
44.50000000
 21
1189.37500000
  0
TEXT
  1
4' 10"
  7
SPSIMP
  8
LAYER_11
 10
64.50000000
 20
1195.93750000
 40
4.24501086
 50
0.00000000
  0
LINE
  8
LAYER_11
 10
104.00000000
 20
1191.12500000
 11
156.00000000
 21
1191.12500000
  0
LINE
  8
LAYER_11
 10
154.25000000
 20
1189.37500000
 11
157.75000000
 21
1192.87500000
  0
LINE
  8
LAYER_11
 10
154.50000000
 20
1189.37500000
 11
158.00000000
 21
1192.87500000
  0
LINE
  8
LAYER_11
 10
154.00000000
 20
1189.37500000
 11
157.50000000
 21
1192.87500000
  0
LINE
  8
LAYER_11
 10
105.75000000
 20
1192.87500000
 11
102.25000000
 21
1189.37500000
  0
LINE
  8
LAYER_11
 10
105.50000000
 20
1192.87500000
 11
102.00000000
 21
1189.37500000
  0
LINE
  8
LAYER_11
 10
106.00000000
 20
1192.87500000
 11
102.50000000
 21
1189.37500000
  0
TEXT
  1
4' 4"
  7
SPSIMP
  8
LAYER_11
 10
121.18750000
 20
1195.93750000
 40
4.24501086
 50
0.00000000
  0
LINE
  8
LAYER_11
 10
-224.00000000
 20
1191.12500000
 11
-166.00000000
 21
1191.12500000
  0
LINE
  8
LAYER_11
 10
-167.75000000
 20
1189.37500000
 11
-164.25000000
 21
1192.87500000
  0
LINE
  8
LAYER_11
 10
-167.50000000
 20
1189.37500000
 11
-164.00000000
 21
1192.87500000
  0
LINE
  8
LAYER_11
 10
-168.00000000
 20
1189.37500000
 11
-164.50000000
 21
1192.87500000
  0
LINE
  8
LAYER_11
 10
-222.25000000
 20
1192.87500000
 11
-225.75000000
 21
1189.37500000
  0
LINE
  8
LAYER_11
 10
-222.50000000
 20
1192.87500000
 11
-226.00000000
 21
1189.37500000
  0
LINE
  8
LAYER_11
 10
-222.00000000
 20
1192.87500000
 11
-225.50000000
 21
1189.37500000
  0
TEXT
  1
4' 10"
  7
SPSIMP
  8
LAYER_11
 10
-205.50000000
 20
1195.93750000
 40
4.24501086
 50
0.00000000
  0
LINE
  8
LAYER_11
 10
75.00000000
 20
1209.75000000
 11
104.00000000
 21
1209.75000000
  0
LINE
  8
LAYER_11
 10
102.25000000
 20
1208.00000000
 11
105.75000000
 21
1211.50000000
  0
LINE
  8
LAYER_11
 10
102.50000000
 20
1208.00000000
 11
106.00000000
 21
1211.50000000
  0
LINE
  8
LAYER_11
 10
102.00000000
 20
1208.00000000
 11
105.50000000
 21
1211.50000000
  0
LINE
  8
LAYER_11
 10
76.75000000
 20
1211.50000000
 11
73.25000000
 21
1208.00000000
  0
LINE
  8
LAYER_11
 10
76.50000000
 20
1211.50000000
 11
73.00000000
 21
1208.00000000
  0
LINE
  8
LAYER_11
 10
77.00000000
 20
1211.50000000
 11
73.50000000
 21
1208.00000000
  0
TEXT
  1
2' 5"
  7
SPSIMP
  8
LAYER_11
 10
80.68750000
 20
1214.56250000
 40
4.24501086
 50
0.00000000
  0
LINE
  8
LAYER_11
 10
46.00000000
 20
1209.75000000
 11
75.00000000
 21
1209.75000000
  0
LINE
  8
LAYER_11
 10
73.25000000
 20
1208.00000000
 11
76.75000000
 21
1211.50000000
  0
LINE
  8
LAYER_11
 10
73.50000000
 20
1208.00000000
 11
77.00000000
 21
1211.50000000
  0
LINE
  8
LAYER_11
 10
73.00000000
 20
1208.00000000
 11
76.50000000
 21
1211.50000000
  0
LINE
  8
LAYER_11
 10
47.75000000
 20
1211.50000000
 11
44.25000000
 21
1208.00000000
  0
LINE
  8
LAYER_11
 10
47.50000000
 20
1211.50000000
 11
44.00000000
 21
1208.00000000
  0
LINE
  8
LAYER_11
 10
48.00000000
 20
1211.50000000
 11
44.50000000
 21
1208.00000000
  0
TEXT
  1
2' 5"
  7
SPSIMP
  8
LAYER_11
 10
51.68750000
 20
1214.56250000
 40
4.24501086
 50
0.00000000
  0
LINE
  8
LAYER_11
 10
-195.00000000
 20
1208.25000000
 11
-166.00000000
 21
1208.25000000
  0
LINE
  8
LAYER_11
 10
-167.75000000
 20
1206.50000000
 11
-164.25000000
 21
1210.00000000
  0
LINE
  8
LAYER_11
 10
-167.50000000
 20
1206.50000000
 11
-164.00000000
 21
1210.00000000
  0
LINE
  8
LAYER_11
 10
-168.00000000
 20
1206.50000000
 11
-164.50000000
 21
1210.00000000
  0
LINE
  8
LAYER_11
 10
-193.25000000
 20
1210.00000000
 11
-196.75000000
 21
1206.50000000
  0
LINE
  8
LAYER_11
 10
-193.50000000
 20
1210.00000000
 11
-197.00000000
 21
1206.50000000
  0
LINE
  8
LAYER_11
 10
-193.00000000
 20
1210.00000000
 11
-196.50000000
 21
1206.50000000
  0
TEXT
  1
2' 5"
  7
SPSIMP
  8
LAYER_11
 10
-189.31250000
 20
1213.06250000
 40
4.24501086
 50
0.00000000
  0
LINE
  8
LAYER_11
 10
-224.00000000
 20
1208.25000000
 11
-195.00000000
 21
1208.25000000
  0
LINE
  8
LAYER_11
 10
-196.75000000
 20
1206.50000000
 11
-193.25000000
 21
1210.00000000
  0
LINE
  8
LAYER_11
 10
-196.50000000
 20
1206.50000000
 11
-193.00000000
 21
1210.00000000
  0
LINE
  8
LAYER_11
 10
-197.00000000
 20
1206.50000000
 11
-193.50000000
 21
1210.00000000
  0
LINE
  8
LAYER_11
 10
-222.25000000
 20
1210.00000000
 11
-225.75000000
 21
1206.50000000
  0
LINE
  8
LAYER_11
 10
-222.50000000
 20
1210.00000000
 11
-226.00000000
 21
1206.50000000
  0
LINE
  8
LAYER_11
 10
-222.00000000
 20
1210.00000000
 11
-225.50000000
 21
1206.50000000
  0
TEXT
  1
2' 5"
  7
SPSIMP
  8
LAYER_11
 10
-218.31250000
 20
1213.06250000
 40
4.24501086
 50
0.00000000
  0
LINE
  8
LAYER_11
 10
-39.00000000
 20
1540.87500000
 11
156.00000000
 21
1540.87500000
  0
LINE
  8
LAYER_11
 10
154.25024606
 20
1539.12500000
 11
157.74975394
 21
1542.62500000
  0
LINE
  8
LAYER_11
 10
154.50024606
 20
1539.12500000
 11
157.99975394
 21
1542.62500000
  0
LINE
  8
LAYER_11
 10
154.00024606
 20
1539.12500000
 11
157.49975394
 21
1542.62500000
  0
LINE
  8
LAYER_11
 10
-37.25024606
 20
1542.62500000
 11
-40.74975394
 21
1539.12500000
  0
LINE
  8
LAYER_11
 10
-37.50024606
 20
1542.62500000
 11
-40.99975394
 21
1539.12500000
  0
LINE
  8
LAYER_11
 10
-37.00024606
 20
1542.62500000
 11
-40.49975394
 21
1539.12500000
  0
TEXT
  1
16' 3"
  7
SPSIMP
  8
LAYER_11
 10
48.00000000
 20
1545.68750000
 40
4.24501086
 50
0.00000000
  0
LINE
  8
LAYER_11
 10
-204.50000000
 20
1558.87500000
 11
-39.00000000
 21
1558.87500000
  0
LINE
  8
LAYER_11
 10
-40.75000000
 20
1557.12500000
 11
-37.25000000
 21
1560.62500000
  0
LINE
  8
LAYER_11
 10
-40.50000000
 20
1557.12500000
 11
-37.00000000
 21
1560.62500000
  0
LINE
  8
LAYER_11
 10
-41.00000000
 20
1557.12500000
 11
-37.50000000
 21
1560.62500000
  0
LINE
  8
LAYER_11
 10
-202.75000000
 20
1560.62500000
 11
-206.25000000
 21
1557.12500000
  0
LINE
  8
LAYER_11
 10
-203.00000000
 20
1560.62500000
 11
-206.50000000
 21
1557.12500000
  0
LINE
  8
LAYER_11
 10
-202.50000000
 20
1560.62500000
 11
-206.00000000
 21
1557.12500000
  0
TEXT
  1
13' 9 1/2"
  7
SPSIMP
  8
LAYER_11
 10
-140.43750000
 20
1563.68725394
 40
4.24501086
 50
0.00000000
  0
LINE
  8
LAYER_11
 10
-276.00000000
 20
1540.87500000
 11
-204.50000000
 21
1540.87500000
  0
LINE
  8
LAYER_11
 10
-206.25000000
 20
1539.12500000
 11
-202.75000000
 21
1542.62500000
  0
LINE
  8
LAYER_11
 10
-206.00000000
 20
1539.12500000
 11
-202.50000000
 21
1542.62500000
  0
LINE
  8
LAYER_11
 10
-206.50000000
 20
1539.12500000
 11
-203.00000000
 21
1542.62500000
  0
LINE
  8
LAYER_11
 10
-274.25000000
 20
1542.62500000
 11
-277.75000000
 21
1539.12500000
  0
LINE
  8
LAYER_11
 10
-274.50000000
 20
1542.62500000
 11
-278.00000000
 21
1539.12500000
  0
LINE
  8
LAYER_11
 10
-274.00000000
 20
1542.62500000
 11
-277.50000000
 21
1539.12500000
  0
TEXT
  1
5' 11 1/2"
  7
SPSIMP
  8
LAYER_11
 10
-258.50000000
 20
1545.68750000
 40
4.24501086
 50
0.00000000
  0
LINE
  8
LAYER_11
 10
-121.00000000
 20
1540.87500000
 11
-39.00000000
 21
1540.87500000
  0
LINE
  8
LAYER_11
 10
-40.75000000
 20
1539.12500000
 11
-37.25000000
 21
1542.62500000
  0
LINE
  8
LAYER_11
 10
-40.50000000
 20
1539.12500000
 11
-37.00000000
 21
1542.62500000
  0
LINE
  8
LAYER_11
 10
-41.00000000
 20
1539.12500000
 11
-37.50000000
 21
1542.62500000
  0
LINE
  8
LAYER_11
 10
-119.25000000
 20
1542.62500000
 11
-122.75000000
 21
1539.12500000
  0
LINE
  8
LAYER_11
 10
-119.50000000
 20
1542.62500000
 11
-123.00000000
 21
1539.12500000
  0
LINE
  8
LAYER_11
 10
-119.00000000
 20
1542.62500000
 11
-122.50000000
 21
1539.12500000
  0
TEXT
  1
6' 10"
  7
SPSIMP
  8
LAYER_11
 10
-90.50000000
 20
1545.68750000
 40
4.24501086
 50
0.00000000
  0
LINE
  8
LAYER_11
 10
-204.50000000
 20
1540.87500000
 11
-121.00000000
 21
1540.87500000
  0
LINE
  8
LAYER_11
 10
-122.75000000
 20
1539.12500000
 11
-119.25000000
 21
1542.62500000
  0
LINE
  8
LAYER_11
 10
-122.50000000
 20
1539.12500000
 11
-119.00000000
 21
1542.62500000
  0
LINE
  8
LAYER_11
 10
-123.00000000
 20
1539.12500000
 11
-119.50000000
 21
1542.62500000
  0
LINE
  8
LAYER_11
 10
-202.75000000
 20
1542.62500000
 11
-206.25000000
 21
1539.12500000
  0
LINE
  8
LAYER_11
 10
-203.00000000
 20
1542.62500000
 11
-206.50000000
 21
1539.12500000
  0
LINE
  8
LAYER_11
 10
-202.50000000
 20
1542.62500000
 11
-206.00000000
 21
1539.12500000
  0
TEXT
  1
6' 11 1/2"
  7
SPSIMP
  8
LAYER_11
 10
-181.00000000
 20
1545.68750000
 40
4.24501086
 50
0.00000000
  0
LINE
  8
LAYER_11
 10
-249.12500000
 20
1234.37500000
 11
-249.12500000
 21
1255.37500000
  0
LINE
  8
LAYER_11
 10
-247.37500000
 20
1253.62500000
 11
-250.87500000
 21
1257.12500000
  0
LINE
  8
LAYER_11
 10
-247.37500000
 20
1253.87500000
 11
-250.87500000
 21
1257.37500000
  0
LINE
  8
LAYER_11
 10
-247.37500000
 20
1253.37500000
 11
-250.87500000
 21
1256.87500000
  0
LINE
  8
LAYER_11
 10
-250.87500000
 20
1236.12500000
 11
-247.37500000
 21
1232.62500000
  0
LINE
  8
LAYER_11
 10
-250.87500000
 20
1235.87500000
 11
-247.37500000
 21
1232.37500000
  0
LINE
  8
LAYER_11
 10
-250.87500000
 20
1236.37500000
 11
-247.37500000
 21
1232.87500000
  0
TEXT
  1
1' 9"
  7
SPSIMP
  8
LAYER_11
 10
-259.31250000
 20
1233.62500000
 40
4.24501086
 50
90.00000000
  0
LINE
  8
LAYER_11
 10
-249.12500000
 20
1255.37500000
 11
-249.12500000
 21
1302.37500000
  0
LINE
  8
LAYER_11
 10
-247.37500000
 20
1300.62500000
 11
-250.87500000
 21
1304.12500000
  0
LINE
  8
LAYER_11
 10
-247.37500000
 20
1300.87500000
 11
-250.87500000
 21
1304.37500000
  0
LINE
  8
LAYER_11
 10
-247.37500000
 20
1300.37500000
 11
-250.87500000
 21
1303.87500000
  0
LINE
  8
LAYER_11
 10
-250.87500000
 20
1257.12500000
 11
-247.37500000
 21
1253.62500000
  0
LINE
  8
LAYER_11
 10
-250.87500000
 20
1256.87500000
 11
-247.37500000
 21
1253.37500000
  0
LINE
  8
LAYER_11
 10
-250.87500000
 20
1257.37500000
 11
-247.37500000
 21
1253.87500000
  0
TEXT
  1
3' 11"
  7
SPSIMP
  8
LAYER_11
 10
-255.18750000
 20
1273.18750000
 40
4.24501086
 50
90.00000000
  0
LINE
  8
LAYER_11
 10
-69.50000000
 20
1473.87500000
 11
-69.50000000
 21
1517.87500000
  0
LINE
  8
LAYER_11
 10
-67.75000000
 20
1516.12500000
 11
-71.25000000
 21
1519.62500000
  0
LINE
  8
LAYER_11
 10
-67.75000000
 20
1516.37500000
 11
-71.25000000
 21
1519.87500000
  0
LINE
  8
LAYER_11
 10
-67.75000000
 20
1515.87500000
 11
-71.25000000
 21
1519.37500000
  0
LINE
  8
LAYER_11
 10
-71.25000000
 20
1475.62500000
 11
-67.75000000
 21
1472.12500000
  0
LINE
  8
LAYER_11
 10
-71.25000000
 20
1475.37500000
 11
-67.75000000
 21
1471.87500000
  0
LINE
  8
LAYER_11
 10
-71.25000000
 20
1475.87500000
 11
-67.75000000
 21
1472.37500000
  0
TEXT
  1
3' 8"
  7
SPSIMP
  8
LAYER_11
 10
-74.31250000
 20
1487.06250000
 40
4.24501086
 50
90.00000000
  0
LINE
  8
LAYER_11
 10
-81.00000000
 20
1460.87500000
 11
-39.00000000
 21
1460.87500000
  0
LINE
  8
LAYER_11
 10
-40.75000000
 20
1459.12500000
 11
-37.25000000
 21
1462.62500000
  0
LINE
  8
LAYER_11
 10
-40.50000000
 20
1459.12500000
 11
-37.00000000
 21
1462.62500000
  0
LINE
  8
LAYER_11
 10
-41.00000000
 20
1459.12500000
 11
-37.50000000
 21
1462.62500000
  0
LINE
  8
LAYER_11
 10
-79.25000000
 20
1462.62500000
 11
-82.75000000
 21
1459.12500000
  0
LINE
  8
LAYER_11
 10
-79.50000000
 20
1462.62500000
 11
-83.00000000
 21
1459.12500000
  0
LINE
  8
LAYER_11
 10
-79.00000000
 20
1462.62500000
 11
-82.50000000
 21
1459.12500000
  0
TEXT
  1
3' 6"
  7
SPSIMP
  8
LAYER_11
 10
-68.81250000
 20
1465.68750000
 40
4.24501086
 50
0.00000000
  0
LINE
  8
LAYER_11
 10
-203.00000000
 20
1460.87500000
 11
-81.00000000
 21
1460.87500000
  0
LINE
  8
LAYER_11
 10
-82.75000000
 20
1459.12500000
 11
-79.25000000
 21
1462.62500000
  0
LINE
  8
LAYER_11
 10
-82.50000000
 20
1459.12500000
 11
-79.00000000
 21
1462.62500000
  0
LINE
  8
LAYER_11
 10
-83.00000000
 20
1459.12500000
 11
-79.50000000
 21
1462.62500000
  0
LINE
  8
LAYER_11
 10
-201.25000000
 20
1462.62500000
 11
-204.75000000
 21
1459.12500000
  0
LINE
  8
LAYER_11
 10
-201.50000000
 20
1462.62500000
 11
-205.00000000
 21
1459.12500000
  0
LINE
  8
LAYER_11
 10
-201.00000000
 20
1462.62500000
 11
-204.50000000
 21
1459.12500000
  0
TEXT
  1
10' 2"
  7
SPSIMP
  8
LAYER_11
 10
-152.50000000
 20
1465.68750000
 40
4.24501086
 50
0.00000000
  0
LINE
  8
LAYER_11
 10
-166.00000000
 20
1191.12500000
 11
-89.00000000
 21
1191.12500000
  0
LINE
  8
LAYER_11
 10
-90.75000000
 20
1189.37500000
 11
-87.25000000
 21
1192.87500000
  0
LINE
  8
LAYER_11
 10
-90.50000000
 20
1189.37500000
 11
-87.00000000
 21
1192.87500000
  0
LINE
  8
LAYER_11
 10
-91.00000000
 20
1189.37500000
 11
-87.50000000
 21
1192.87500000
  0
LINE
  8
LAYER_11
 10
-164.25000000
 20
1192.87500000
 11
-167.75000000
 21
1189.37500000
  0
LINE
  8
LAYER_11
 10
-164.50000000
 20
1192.87500000
 11
-168.00000000
 21
1189.37500000
  0
LINE
  8
LAYER_11
 10
-164.00000000
 20
1192.87500000
 11
-167.50000000
 21
1189.37500000
  0
TEXT
  1
6' 5"
  7
SPSIMP
  8
LAYER_11
 10
-136.31250000
 20
1195.93750000
 40
4.24501086
 50
0.00000000
  0
LINE
  8
LAYER_11
 10
-89.00000000
 20
1191.12500000
 11
-31.00000000
 21
1191.12500000
  0
LINE
  8
LAYER_11
 10
-32.75000000
 20
1189.37500000
 11
-29.25000000
 21
1192.87500000
  0
LINE
  8
LAYER_11
 10
-32.50000000
 20
1189.37500000
 11
-29.00000000
 21
1192.87500000
  0
LINE
  8
LAYER_11
 10
-33.00000000
 20
1189.37500000
 11
-29.50000000
 21
1192.87500000
  0
LINE
  8
LAYER_11
 10
-87.25000000
 20
1192.87500000
 11
-90.75000000
 21
1189.37500000
  0
LINE
  8
LAYER_11
 10
-87.50000000
 20
1192.87500000
 11
-91.00000000
 21
1189.37500000
  0
LINE
  8
LAYER_11
 10
-87.00000000
 20
1192.87500000
 11
-90.50000000
 21
1189.37500000
  0
TEXT
  1
4' 10"
  7
SPSIMP
  8
LAYER_11
 10
-70.50000000
 20
1195.93750000
 40
4.24501086
 50
0.00000000
  0
LINE
  8
LAYER_11
 10
-31.00000000
 20
1191.12500000
 11
46.00000000
 21
1191.12500000
  0
LINE
  8
LAYER_11
 10
44.25000000
 20
1189.37500000
 11
47.75000000
 21
1192.87500000
  0
LINE
  8
LAYER_11
 10
44.50000000
 20
1189.37500000
 11
48.00000000
 21
1192.87500000
  0
LINE
  8
LAYER_11
 10
44.00000000
 20
1189.37500000
 11
47.50000000
 21
1192.87500000
  0
LINE
  8
LAYER_11
 10
-29.25000000
 20
1192.87500000
 11
-32.75000000
 21
1189.37500000
  0
LINE
  8
LAYER_11
 10
-29.50000000
 20
1192.87500000
 11
-33.00000000
 21
1189.37500000
  0
LINE
  8
LAYER_11
 10
-29.00000000
 20
1192.87500000
 11
-32.50000000
 21
1189.37500000
  0
TEXT
  1
6' 5"
  7
SPSIMP
  8
LAYER_11
 10
-1.31250000
 20
1195.93750000
 40
4.24501086
 50
0.00000000
  0
LINE
  8
LAYER_11
 10
-89.00000000
 20
1208.00000000
 11
-60.00000000
 21
1208.00000000
  0
LINE
  8
LAYER_11
 10
-61.75000000
 20
1206.25000000
 11
-58.25000000
 21
1209.75000000
  0
LINE
  8
LAYER_11
 10
-61.50000000
 20
1206.25000000
 11
-58.00000000
 21
1209.75000000
  0
LINE
  8
LAYER_11
 10
-62.00000000
 20
1206.25000000
 11
-58.50000000
 21
1209.75000000
  0
LINE
  8
LAYER_11
 10
-87.25000000
 20
1209.75000000
 11
-90.75000000
 21
1206.25000000
  0
LINE
  8
LAYER_11
 10
-87.50000000
 20
1209.75000000
 11
-91.00000000
 21
1206.25000000
  0
LINE
  8
LAYER_11
 10
-87.00000000
 20
1209.75000000
 11
-90.50000000
 21
1206.25000000
  0
TEXT
  1
2' 5"
  7
SPSIMP
  8
LAYER_11
 10
-83.31250000
 20
1212.81250000
 40
4.24501086
 50
0.00000000
  0
LINE
  8
LAYER_11
 10
-60.00000000
 20
1208.00000000
 11
-31.00000000
 21
1208.00000000
  0
LINE
  8
LAYER_11
 10
-32.75000000
 20
1206.25000000
 11
-29.25000000
 21
1209.75000000
  0
LINE
  8
LAYER_11
 10
-32.50000000
 20
1206.25000000
 11
-29.00000000
 21
1209.75000000
  0
LINE
  8
LAYER_11
 10
-33.00000000
 20
1206.25000000
 11
-29.50000000
 21
1209.75000000
  0
LINE
  8
LAYER_11
 10
-58.25000000
 20
1209.75000000
 11
-61.75000000
 21
1206.25000000
  0
LINE
  8
LAYER_11
 10
-58.50000000
 20
1209.75000000
 11
-62.00000000
 21
1206.25000000
  0
LINE
  8
LAYER_11
 10
-58.00000000
 20
1209.75000000
 11
-61.50000000
 21
1206.25000000
  0
TEXT
  1
2' 5"
  7
SPSIMP
  8
LAYER_11
 10
-54.31250000
 20
1212.81250000
 40
4.24501086
 50
0.00000000
  0
ENDSEC
  0
EOF
