  0
SECTION
  2
HEADER
  9
$LIMMIN
 10
0.00000000
 20
0.00000000
  9
$LIMMAX
 10
1920.00000000
 20
1284.00000000
  9
$EXTMIN
 10
0.00000000
 20
0.00000000
  9
$EXTMAX
 10
1920.00000000
 20
1284.00000000
  9
$LUNITS
 70
4
  0
ENDSEC
  0
SECTION
  2
TABLES
  0
TABLE
  2
LTYPE
 70
5
  0
LTYPE
  2
LARGE
 70
64
  3
___   ___
 72
65
 73
2
 40
20.00000000
 49
10.00000000
 49
-10.00000000
  0
LTYPE
  2
MEDIUM
 70
64
  3
__  __
 72
65
 73
2
 40
10.00000000
 49
5.00000000
 49
-5.00000000
  0
LTYPE
  2
SMALL
 70
64
  3
_ _
 72
65
 73
2
 40
5.00000000
 49
2.00000000
 49
-3.00000000
  0
LTYPE
  2
DASHDOT
 70
64
  3
___ . ___
 72
65
 73
4
 40
21.00000000
 49
15.00000000
 49
-3.00000000
 49
0.00000000
 49
-3.00000000
  0
LTYPE
  2
LONG
 70
64
  3
____ ____
 72
65
 73
2
 40
18.00000000
 49
14.00000000
 49
-4.00000000
  0
ENDTAB
  0
TABLE
  2
LAYER
 70
15
  0
LAYER
  2
LAYER_1
 70
0
 62
1
  6
CONTINUOUS
  0
LAYER
  2
LAYER_2
 70
0
 62
2
  6
CONTINUOUS
  0
LAYER
  2
LAYER_3
 70
0
 62
3
  6
CONTINUOUS
  0
LAYER
  2
LAYER_4
 70
0
 62
4
  6
CONTINUOUS
  0
LAYER
  2
LAYER_5
 70
0
 62
5
  6
CONTINUOUS
  0
LAYER
  2
LAYER_6
 70
0
 62
6
  6
CONTINUOUS
  0
LAYER
  2
LAYER_7
 70
0
 62
7
  6
CONTINUOUS
  0
LAYER
  2
LAYER_8
 70
0
 62
8
  6
CONTINUOUS
  0
LAYER
  2
LAYER_9
 70
0
 62
9
  6
CONTINUOUS
  0
LAYER
  2
LAYER_10
 70
0
 62
10
  6
CONTINUOUS
  0
LAYER
  2
LAYER_11
 70
0
 62
11
  6
CONTINUOUS
  0
LAYER
  2
LAYER_12
 70
0
 62
12
  6
CONTINUOUS
  0
LAYER
  2
LAYER_13
 70
0
 62
13
  6
CONTINUOUS
  0
LAYER
  2
LAYER_14
 70
0
 62
14
  6
CONTINUOUS
  0
LAYER
  2
LAYER_15
 70
0
 62
15
  6
CONTINUOUS
  0
ENDTAB
  0
ENDSEC
  0
SECTION
  2
ENTITIES
  0
LINE
  8
LAYER_3
 10
-135.25000000
 20
291.75000000
 11
-135.25000000
 21
304.62500000
  0
LINE
  8
LAYER_3
 10
-152.00000000
 20
290.25000000
 11
-152.00000000
 21
304.62500000
  0
LINE
  8
LAYER_3
 10
-168.00000000
 20
290.25000000
 11
-168.00000000
 21
304.62500000
  0
LINE
  8
LAYER_3
 10
-184.00000000
 20
290.25000000
 11
-184.00000000
 21
304.62500000
  0
LINE
  8
LAYER_3
 10
-200.00000000
 20
290.25000000
 11
-200.00000000
 21
304.62500000
  0
LINE
  8
LAYER_3
 10
-216.00000000
 20
290.25000000
 11
-216.00000000
 21
304.62500000
  0
LINE
  8
LAYER_3
 10
-135.25000000
 20
-4.25000000
 11
-135.25000000
 21
-21.37500000
  0
LINE
  8
LAYER_3
 10
-150.50000000
 20
-2.75000000
 11
-150.50000000
 21
-21.37500000
  0
LINE
  8
LAYER_3
 10
-166.50000000
 20
-2.75000000
 11
-166.50000000
 21
-21.37500000
  0
LINE
  8
LAYER_3
 10
-182.50000000
 20
-2.75000000
 11
-182.50000000
 21
-21.37500000
  0
LINE
  8
LAYER_3
 10
-198.50000000
 20
-2.75000000
 11
-198.50000000
 21
-21.37500000
  0
LINE
  8
LAYER_3
 10
-214.50000000
 20
-2.75000000
 11
-214.50000000
 21
-21.37500000
  0
TEXT
  1
LOFT FLOOR FRAMING PLAN
  7
SPHAND
  8
LAYER_4
 10
-515.12500000
 20
-13.00000000
 40
8.06549235
 50
0.00000000
  0
TEXT
  1
2x10 FLOOR JOISTS @ 16" O.C.
  7
SPHAND
  8
LAYER_12
 10
-477.43750000
 20
19.50000000
 40
3.82048149
 50
90.00000000
  0
TEXT
  1
JOIST LENGTH 12'-0"
  7
SPHAND
  8
LAYER_12
 10
-461.43750000
 20
19.37500000
 40
3.82048149
 50
90.00000000
  0
TEXT
  1
BEARING LENGTH  11' - 5"
  7
SPHAND
  8
LAYER_12
 10
-445.31250000
 20
19.37500000
 40
3.82048149
 50
90.00000000
  0
TEXT
  1
2x10 FLOOR JOISTS @ 16" O.C.
  7
SPHAND
  8
LAYER_12
 10
-222.93750000
 20
177.25000000
 40
3.82048149
 50
90.00000000
  0
TEXT
  1
JOIST LENGTH 12'-0"
  7
SPHAND
  8
LAYER_12
 10
-206.93750000
 20
177.12500000
 40
3.82048149
 50
90.00000000
  0
TEXT
  1
BEARING LENGTH  11' - 6"
  7
SPHAND
  8
LAYER_12
 10
-190.81250000
 20
177.12500000
 40
3.82048149
 50
90.00000000
  0
TEXT
  1
STAIR 
  7
SPHAND
  8
LAYER_12
 10
-409.62500000
 20
276.31250000
 40
3.82048149
 50
0.00000000
  0
TEXT
  1
OPENING
  7
SPHAND
  8
LAYER_12
 10
-409.62500000
 20
269.31250000
 40
3.82048149
 50
0.00000000
  0
TEXT
  1
DOUBLE JOIST
  7
SPHAND
  8
LAYER_12
 10
-299.56250000
 20
177.87500000
 40
3.82048149
 50
90.00000000
  0
TEXT
  1
DOUBLE JOIST
  7
SPHAND
  8
LAYER_12
 10
-331.43750000
 20
178.37500000
 40
3.82048149
 50
90.00000000
  0
TEXT
  1
DOUBLE JOIST
  7
SPHAND
  8
LAYER_12
 10
-426.81250000
 20
178.50000000
 40
3.82048149
 50
90.00000000
  0
TEXT
  1
DOUBLE JOIST
  7
SPHAND
  8
LAYER_12
 10
-413.31250000
 20
34.00000000
 40
3.82048149
 50
90.00000000
  0
TEXT
  1
DOUBLE JOIST
  7
SPHAND
  8
LAYER_12
 10
-345.81250000
 20
34.12500000
 40
3.82048149
 50
90.00000000
  0
TEXT
  1
DOUBLE JOIST
  7
SPHAND
  8
LAYER_12
 10
-305.18750000
 20
33.75000000
 40
3.82048149
 50
90.00000000
  0
TEXT
  1
DOUBLE JOIST
  7
SPHAND
  8
LAYER_12
 10
-234.81250000
 20
34.50000000
 40
3.82048149
 50
90.00000000
  0
TEXT
  1
DOUBLE JOIST
  7
SPHAND
  8
LAYER_12
 10
-185.43750000
 20
34.00000000
 40
3.82048149
 50
90.00000000
  0
TEXT
  1
LINE OF BEAM BELOW
  7
SPHAND
  8
LAYER_12
 10
-159.56250000
 20
174.50000000
 40
3.82048149
 50
90.00000000
  0
TEXT
  1
LINE OF WALL BELOW
  7
SPHAND
  8
LAYER_12
 10
-271.56250000
 20
221.37500000
 40
3.82048149
 50
90.00000000
  0
TEXT
  1
DOUBLE END JOIST
  7
SPHAND
  8
LAYER_12
 10
-130.93750000
 20
166.62500000
 40
3.82048149
 50
90.00000000
  0
TEXT
  1
DOUBLE END JOIST
  7
SPHAND
  8
LAYER_12
 10
-520.93750000
 20
166.62500000
 40
3.82048149
 50
90.00000000
  0
TEXT
  1
TYPICAL
  7
SPHAND
  8
LAYER_12
 10
-258.00000000
 20
-17.06250000
 40
3.82048149
 50
0.00000000
  0
TEXT
  1
TYPICAL
  7
SPHAND
  8
LAYER_12
 10
-258.00000000
 20
304.81250000
 40
3.82048149
 50
0.00000000
  0
TEXT
  1
WOOD POST EXTENDS TO BEAM BELOW
  7
SPHAND
  8
LAYER_12
 10
-398.31250000
 20
28.37500000
 40
3.82048149
 50
90.00000000
  0
TEXT
  1
WOOD POST EXTENDS TO BEAM BELOW
  7
SPHAND
  8
LAYER_12
 10
-253.31250000
 20
28.37500000
 40
3.82048149
 50
90.00000000
  0
TEXT
  1
CENTER SOLID BLOCKING  TYPICAL
  7
SPHAND
  8
LAYER_12
 10
-478.56250000
 20
154.50000000
 40
3.82048149
 50
90.00000000
  0
TEXT
  1
2x2 BRIDGING 
  7
SPHAND
  8
LAYER_12
 10
-205.81250000
 20
97.62500000
 40
3.82048149
 50
90.00000000
  0
TEXT
  1
2x2 BRIDGING 
  7
SPHAND
  8
LAYER_12
 10
-254.68750000
 20
172.87500000
 40
3.82048149
 50
90.00000000
  0
TEXT
  1
DOUBLE JOIST HANGER
  7
SPHAND
  8
LAYER_12
 10
-409.87500000
 20
259.68750000
 40
3.82048149
 50
0.00000000
  0
TEXT
  1
SINGLE JOIST HANGER
  7
SPHAND
  8
LAYER_12
 10
-409.87500000
 20
250.18750000
 40
3.82048149
 50
0.00000000
  0
LINE
  8
LAYER_2
 10
-519.25000000
 20
287.75000000
 11
-135.25000000
 21
287.75000000
  0
LINE
  8
LAYER_2
  6
SMALL
 10
-515.25000000
 20
283.75000000
 11
-505.50000000
 21
283.75000000
  0
LINE
  8
LAYER_2
  6
SMALL
 10
-515.25000000
 20
4.25000000
 11
-504.00000000
 21
4.25000000
  0
LINE
  8
LAYER_2
 10
-519.25000000
 20
-0.25000000
 11
-135.25000000
 21
-0.25000000
  0
LINE
  8
LAYER_2
  6
SMALL
 10
-515.25000000
 20
283.75000000
 11
-515.25000000
 21
144.37500000
  0
LINE
  8
LAYER_2
 10
-519.25000000
 20
287.75000000
 11
-519.25000000
 21
-0.25000000
  0
LINE
  8
LAYER_2
  6
SMALL
 10
-139.25000000
 20
283.75000000
 11
-139.25000000
 21
144.50000000
  0
LINE
  8
LAYER_2
 10
-135.25000000
 20
287.75000000
 11
-135.25000000
 21
-0.25000000
  0
LINE
  8
LAYER_2
 10
-519.25000000
 20
1.25000000
 11
-135.25000000
 21
1.25000000
  0
LINE
  8
LAYER_2
 10
-136.75000000
 20
286.25000000
 11
-136.75000000
 21
1.25000000
  0
LINE
  8
LAYER_2
 10
-517.75000000
 20
286.25000000
 11
-517.75000000
 21
1.25000000
  0
LINE
  8
LAYER_2
 10
-519.25000000
 20
286.25000000
 11
-135.25000000
 21
286.25000000
  0
LINE
  8
LAYER_2
 10
-230.50000000
 20
147.37500000
 11
-230.50000000
 21
1.25000000
  0
LINE
  8
LAYER_2
  6
SMALL
 10
-515.25000000
 20
146.25000000
 11
-505.50000000
 21
146.25000000
  0
LINE
  8
LAYER_2
  6
SMALL
 10
-515.12500000
 20
141.25000000
 11
-504.00000000
 21
141.25000000
  0
LINE
  8
LAYER_2
 10
-232.00000000
 20
147.37500000
 11
-230.50000000
 21
147.37500000
  0
LINE
  8
LAYER_2
 10
-214.50000000
 20
147.37500000
 11
-214.50000000
 21
1.25000000
  0
LINE
  8
LAYER_2
 10
-216.00000000
 20
147.37500000
 11
-214.50000000
 21
147.37500000
  0
LINE
  8
LAYER_2
 10
-198.50000000
 20
147.37500000
 11
-198.50000000
 21
1.25000000
  0
LINE
  8
LAYER_2
 10
-200.00000000
 20
147.37500000
 11
-198.50000000
 21
147.37500000
  0
LINE
  8
LAYER_2
 10
-182.50000000
 20
147.37500000
 11
-182.50000000
 21
1.25000000
  0
LINE
  8
LAYER_2
 10
-184.00000000
 20
147.37500000
 11
-181.00000000
 21
147.37500000
  0
LINE
  8
LAYER_2
 10
-166.50000000
 20
147.37500000
 11
-166.50000000
 21
1.25000000
  0
LINE
  8
LAYER_2
 10
-168.00000000
 20
147.37500000
 11
-166.50000000
 21
147.37500000
  0
LINE
  8
LAYER_2
 10
-150.50000000
 20
145.25000000
 11
-150.50000000
 21
1.25000000
  0
LINE
  8
LAYER_2
 10
-152.00000000
 20
145.25000000
 11
-150.50000000
 21
145.25000000
  0
LINE
  8
LAYER_2
 10
-246.50000000
 20
147.37500000
 11
-246.50000000
 21
1.25000000
  0
LINE
  8
LAYER_2
 10
-248.00000000
 20
147.37500000
 11
-246.50000000
 21
147.37500000
  0
LINE
  8
LAYER_2
 10
-262.50000000
 20
147.37500000
 11
-262.50000000
 21
1.25000000
  0
LINE
  8
LAYER_2
 10
-264.00000000
 20
147.37500000
 11
-262.50000000
 21
147.37500000
  0
LINE
  8
LAYER_2
 10
-278.50000000
 20
147.37500000
 11
-278.50000000
 21
1.25000000
  0
LINE
  8
LAYER_2
 10
-280.00000000
 20
147.37500000
 11
-278.50000000
 21
147.37500000
  0
LINE
  8
LAYER_2
 10
-294.50000000
 20
147.37500000
 11
-294.50000000
 21
1.25000000
  0
LINE
  8
LAYER_2
 10
-296.00000000
 20
147.37500000
 11
-294.50000000
 21
147.37500000
  0
LINE
  8
LAYER_2
 10
-310.50000000
 20
147.37500000
 11
-310.50000000
 21
1.25000000
  0
LINE
  8
LAYER_2
 10
-312.00000000
 20
147.37500000
 11
-310.50000000
 21
147.37500000
  0
LINE
  8
LAYER_2
 10
-326.50000000
 20
286.25000000
 11
-326.50000000
 21
1.25000000
  0
LINE
  8
LAYER_2
 10
-358.50000000
 20
145.25000000
 11
-358.50000000
 21
1.25000000
  0
LINE
  8
LAYER_2
 10
-374.50000000
 20
145.25000000
 11
-374.50000000
 21
1.25000000
  0
LINE
  8
LAYER_2
 10
-353.50000000
 20
145.25000000
 11
-350.50000000
 21
145.25000000
  0
LINE
  8
LAYER_2
 10
-390.50000000
 20
145.75000000
 11
-390.50000000
 21
1.25000000
  0
LINE
  8
LAYER_2
 10
-406.50000000
 20
145.25000000
 11
-406.50000000
 21
1.25000000
  0
LINE
  8
LAYER_2
 10
-422.50000000
 20
145.25000000
 11
-422.50000000
 21
1.25000000
  0
LINE
  8
LAYER_2
 10
-438.50000000
 20
145.25000000
 11
-438.50000000
 21
1.25000000
  0
LINE
  8
LAYER_2
 10
-421.50000000
 20
145.25000000
 11
-418.50000000
 21
145.25000000
  0
LINE
  8
LAYER_2
 10
-454.50000000
 20
147.37500000
 11
-454.50000000
 21
1.25000000
  0
LINE
  8
LAYER_2
 10
-456.00000000
 20
147.37500000
 11
-454.50000000
 21
147.37500000
  0
LINE
  8
LAYER_2
 10
-470.50000000
 20
147.37500000
 11
-470.50000000
 21
1.25000000
  0
LINE
  8
LAYER_2
 10
-472.00000000
 20
147.37500000
 11
-470.50000000
 21
147.37500000
  0
LINE
  8
LAYER_2
 10
-486.50000000
 20
147.37500000
 11
-486.50000000
 21
1.25000000
  0
LINE
  8
LAYER_2
 10
-488.00000000
 20
147.37500000
 11
-486.50000000
 21
147.37500000
  0
LINE
  8
LAYER_2
 10
-502.50000000
 20
147.37500000
 11
-502.50000000
 21
1.25000000
  0
LINE
  8
LAYER_2
 10
-504.00000000
 20
147.37500000
 11
-502.50000000
 21
147.37500000
  0
LINE
  8
LAYER_2
 10
-153.50000000
 20
286.25000000
 11
-153.50000000
 21
142.25000000
  0
LINE
  8
LAYER_2
 10
-153.50000000
 20
142.25000000
 11
-152.00000000
 21
142.25000000
  0
LINE
  8
LAYER_2
 10
-152.00000000
 20
286.25000000
 11
-152.00000000
 21
1.25000000
  0
LINE
  8
LAYER_2
 10
-169.50000000
 20
286.25000000
 11
-169.50000000
 21
142.25000000
  0
LINE
  8
LAYER_2
 10
-169.50000000
 20
142.25000000
 11
-168.00000000
 21
142.25000000
  0
LINE
  8
LAYER_2
 10
-168.00000000
 20
286.25000000
 11
-168.00000000
 21
1.25000000
  0
LINE
  8
LAYER_2
 10
-185.50000000
 20
286.25000000
 11
-185.50000000
 21
142.25000000
  0
LINE
  8
LAYER_2
 10
-185.50000000
 20
142.25000000
 11
-184.00000000
 21
142.25000000
  0
LINE
  8
LAYER_2
 10
-184.00000000
 20
286.25000000
 11
-184.00000000
 21
1.25000000
  0
LINE
  8
LAYER_2
 10
-201.50000000
 20
286.25000000
 11
-201.50000000
 21
142.25000000
  0
LINE
  8
LAYER_2
 10
-201.50000000
 20
142.25000000
 11
-200.00000000
 21
142.25000000
  0
LINE
  8
LAYER_2
 10
-200.00000000
 20
286.25000000
 11
-200.00000000
 21
1.25000000
  0
LINE
  8
LAYER_2
 10
-217.50000000
 20
286.25000000
 11
-217.50000000
 21
142.25000000
  0
LINE
  8
LAYER_2
 10
-217.50000000
 20
142.25000000
 11
-216.00000000
 21
142.25000000
  0
LINE
  8
LAYER_2
 10
-216.00000000
 20
286.25000000
 11
-216.00000000
 21
1.25000000
  0
LINE
  8
LAYER_2
 10
-233.50000000
 20
286.25000000
 11
-233.50000000
 21
1.25000000
  0
LINE
  8
LAYER_2
 10
-233.50000000
 20
144.00000000
 11
-232.00000000
 21
144.00000000
  0
LINE
  8
LAYER_2
 10
-232.00000000
 20
286.25000000
 11
-232.00000000
 21
1.25000000
  0
LINE
  8
LAYER_2
 10
-249.50000000
 20
286.25000000
 11
-249.50000000
 21
141.50000000
  0
LINE
  8
LAYER_2
 10
-249.50000000
 20
142.25000000
 11
-248.00000000
 21
142.25000000
  0
LINE
  8
LAYER_2
 10
-248.00000000
 20
286.25000000
 11
-248.00000000
 21
1.25000000
  0
LINE
  8
LAYER_2
 10
-265.50000000
 20
286.25000000
 11
-265.50000000
 21
142.25000000
  0
LINE
  8
LAYER_2
 10
-265.50000000
 20
142.25000000
 11
-264.00000000
 21
142.25000000
  0
LINE
  8
LAYER_2
 10
-264.00000000
 20
286.25000000
 11
-264.00000000
 21
1.25000000
  0
LINE
  8
LAYER_2
 10
-281.50000000
 20
286.25000000
 11
-281.50000000
 21
142.25000000
  0
LINE
  8
LAYER_2
 10
-281.50000000
 20
142.25000000
 11
-280.00000000
 21
142.25000000
  0
LINE
  8
LAYER_2
 10
-280.00000000
 20
286.25000000
 11
-280.00000000
 21
1.25000000
  0
LINE
  8
LAYER_2
 10
-297.50000000
 20
286.25000000
 11
-297.50000000
 21
142.25000000
  0
LINE
  8
LAYER_2
 10
-297.50000000
 20
142.25000000
 11
-296.00000000
 21
142.25000000
  0
LINE
  8
LAYER_2
 10
-296.00000000
 20
286.25000000
 11
-296.00000000
 21
1.25000000
  0
LINE
  8
LAYER_2
 10
-313.50000000
 20
286.25000000
 11
-313.50000000
 21
142.25000000
  0
LINE
  8
LAYER_2
 10
-313.50000000
 20
142.25000000
 11
-312.00000000
 21
142.25000000
  0
LINE
  8
LAYER_2
 10
-312.00000000
 20
286.25000000
 11
-312.00000000
 21
1.25000000
  0
LINE
  8
LAYER_2
 10
-329.50000000
 20
286.25000000
 11
-329.50000000
 21
142.25000000
  0
LINE
  8
LAYER_2
 10
-329.50000000
 20
142.25000000
 11
-328.00000000
 21
142.25000000
  0
LINE
  8
LAYER_2
 10
-328.00000000
 20
286.25000000
 11
-328.00000000
 21
1.25000000
  0
LINE
  8
LAYER_2
 10
-344.00000000
 20
145.25000000
 11
-342.00000000
 21
145.25000000
  0
LINE
  8
LAYER_2
 10
-457.50000000
 20
142.25000000
 11
-456.00000000
 21
142.25000000
  0
LINE
  8
LAYER_2
 10
-473.50000000
 20
143.75000000
 11
-472.00000000
 21
143.75000000
  0
LINE
  8
LAYER_2
 10
-489.50000000
 20
142.25000000
 11
-488.00000000
 21
142.25000000
  0
LINE
  8
LAYER_2
 10
-505.50000000
 20
286.25000000
 11
-505.50000000
 21
142.25000000
  0
LINE
  8
LAYER_2
 10
-505.50000000
 20
142.25000000
 11
-504.00000000
 21
142.25000000
  0
LINE
  8
LAYER_2
 10
-504.00000000
 20
286.25000000
 11
-504.00000000
 21
1.25000000
  0
LINE
  8
LAYER_2
  6
SMALL
 10
-502.50000000
 20
146.25000000
 11
-489.50000000
 21
146.25000000
  0
LINE
  8
LAYER_2
  6
SMALL
 10
-502.50000000
 20
141.25000000
 11
-488.00000000
 21
141.25000000
  0
LINE
  8
LAYER_2
  6
SMALL
 10
-486.50000000
 20
146.25000000
 11
-473.50000000
 21
146.25000000
  0
LINE
  8
LAYER_2
  6
SMALL
 10
-486.50000000
 20
141.25000000
 11
-473.50000000
 21
141.25000000
  0
LINE
  8
LAYER_2
  6
SMALL
 10
-470.50000000
 20
146.25000000
 11
-457.50000000
 21
146.25000000
  0
LINE
  8
LAYER_2
  6
SMALL
 10
-470.50000000
 20
141.25000000
 11
-456.00000000
 21
141.25000000
  0
LINE
  8
LAYER_2
  6
SMALL
 10
-454.50000000
 20
146.25000000
 11
-441.50000000
 21
146.25000000
  0
LINE
  8
LAYER_2
  6
SMALL
 10
-454.50000000
 20
141.25000000
 11
-440.00000000
 21
141.25000000
  0
LINE
  8
LAYER_2
  6
SMALL
 10
-424.00000000
 20
146.25000000
 11
-409.50000000
 21
146.25000000
  0
LINE
  8
LAYER_2
  6
SMALL
 10
-418.50000000
 20
141.25000000
 11
-408.00000000
 21
141.25000000
  0
LINE
  8
LAYER_2
  6
SMALL
 10
-392.00000000
 20
146.25000000
 11
-377.50000000
 21
146.25000000
  0
LINE
  8
LAYER_2
  6
SMALL
 10
-390.50000000
 20
141.25000000
 11
-376.00000000
 21
141.25000000
  0
LINE
  8
LAYER_2
  6
SMALL
 10
-376.00000000
 20
146.25000000
 11
-361.50000000
 21
146.25000000
  0
LINE
  8
LAYER_2
  6
SMALL
 10
-374.50000000
 20
141.25000000
 11
-360.00000000
 21
141.25000000
  0
LINE
  8
LAYER_2
  6
SMALL
 10
-358.50000000
 20
141.25000000
 11
-353.50000000
 21
141.25000000
  0
LINE
  8
LAYER_2
  6
SMALL
 10
-344.00000000
 20
146.25000000
 11
-329.50000000
 21
146.25000000
  0
LINE
  8
LAYER_2
  6
SMALL
 10
-342.00000000
 20
141.25000000
 11
-328.00000000
 21
141.25000000
  0
LINE
  8
LAYER_2
  6
SMALL
 10
-326.50000000
 20
146.25000000
 11
-313.50000000
 21
146.25000000
  0
LINE
  8
LAYER_2
  6
SMALL
 10
-326.50000000
 20
141.25000000
 11
-312.00000000
 21
141.25000000
  0
LINE
  8
LAYER_2
  6
SMALL
 10
-310.50000000
 20
146.25000000
 11
-297.50000000
 21
146.25000000
  0
LINE
  8
LAYER_2
  6
SMALL
 10
-310.50000000
 20
141.25000000
 11
-304.00000000
 21
141.25000000
  0
LINE
  8
LAYER_2
  6
SMALL
 10
-294.50000000
 20
146.25000000
 11
-287.50000000
 21
146.25000000
  0
LINE
  8
LAYER_2
  6
SMALL
 10
-294.50000000
 20
141.25000000
 11
-280.00000000
 21
141.25000000
  0
LINE
  8
LAYER_2
  6
SMALL
 10
-278.50000000
 20
146.25000000
 11
-265.50000000
 21
146.25000000
  0
LINE
  8
LAYER_2
  6
SMALL
 10
-278.50000000
 20
141.25000000
 11
-264.00000000
 21
141.25000000
  0
LINE
  8
LAYER_2
  6
SMALL
 10
-262.50000000
 20
146.25000000
 11
-249.50000000
 21
146.25000000
  0
LINE
  8
LAYER_2
  6
SMALL
 10
-262.50000000
 20
141.25000000
 11
-248.00000000
 21
141.25000000
  0
LINE
  8
LAYER_2
  6
SMALL
 10
-246.50000000
 20
146.25000000
 11
-233.50000000
 21
146.25000000
  0
LINE
  8
LAYER_2
  6
SMALL
 10
-246.50000000
 20
141.25000000
 11
-233.50000000
 21
141.25000000
  0
LINE
  8
LAYER_2
  6
SMALL
 10
-230.50000000
 20
146.25000000
 11
-217.50000000
 21
146.25000000
  0
LINE
  8
LAYER_2
  6
SMALL
 10
-230.50000000
 20
141.25000000
 11
-216.00000000
 21
141.25000000
  0
LINE
  8
LAYER_2
  6
SMALL
 10
-214.50000000
 20
146.25000000
 11
-201.50000000
 21
146.25000000
  0
LINE
  8
LAYER_2
  6
SMALL
 10
-214.50000000
 20
141.25000000
 11
-200.00000000
 21
141.25000000
  0
LINE
  8
LAYER_2
  6
SMALL
 10
-198.50000000
 20
146.25000000
 11
-185.50000000
 21
146.25000000
  0
LINE
  8
LAYER_2
  6
SMALL
 10
-198.50000000
 20
141.25000000
 11
-184.00000000
 21
141.25000000
  0
LINE
  8
LAYER_2
  6
SMALL
 10
-181.00000000
 20
146.25000000
 11
-169.50000000
 21
146.25000000
  0
LINE
  8
LAYER_2
  6
SMALL
 10
-181.00000000
 20
141.25000000
 11
-168.00000000
 21
141.25000000
  0
LINE
  8
LAYER_2
  6
SMALL
 10
-166.50000000
 20
146.25000000
 11
-153.50000000
 21
146.25000000
  0
LINE
  8
LAYER_2
  6
SMALL
 10
-166.50000000
 20
141.25000000
 11
-152.00000000
 21
141.25000000
  0
LINE
  8
LAYER_2
  6
SMALL
 10
-152.00000000
 20
146.25000000
 11
-139.25000000
 21
146.25000000
  0
LINE
  8
LAYER_2
  6
SMALL
 10
-150.50000000
 20
141.25000000
 11
-139.37500000
 21
141.25000000
  0
LINE
  8
LAYER_2
 10
-390.50000000
 20
145.75000000
 11
-376.00000000
 21
145.75000000
  0
LINE
  8
LAYER_2
 10
-390.50000000
 20
144.25000000
 11
-381.12500000
 21
144.25000000
  0
LINE
  8
LAYER_2
 10
-390.50000000
 20
142.75000000
 11
-381.12500000
 21
142.75000000
  0
LINE
  8
LAYER_2
 10
-516.25000000
 20
144.37500000
 11
-505.50000000
 21
144.37500000
  0
LINE
  8
LAYER_2
 10
-516.25000000
 20
142.87500000
 11
-505.50000000
 21
142.87500000
  0
LINE
  8
LAYER_2
 10
-502.50000000
 20
143.00000000
 11
-489.50000000
 21
143.00000000
  0
LINE
  8
LAYER_2
 10
-502.50000000
 20
144.50000000
 11
-489.50000000
 21
144.50000000
  0
LINE
  8
LAYER_2
  6
SMALL
 10
-515.25000000
 20
142.87500000
 11
-515.25000000
 21
4.25000000
  0
LINE
  8
LAYER_2
 10
-486.50000000
 20
143.00000000
 11
-473.50000000
 21
143.00000000
  0
LINE
  8
LAYER_2
 10
-486.50000000
 20
144.50000000
 11
-473.50000000
 21
144.50000000
  0
LINE
  8
LAYER_2
 10
-470.50000000
 20
143.00000000
 11
-457.50000000
 21
143.00000000
  0
LINE
  8
LAYER_2
 10
-470.50000000
 20
144.50000000
 11
-457.50000000
 21
144.50000000
  0
LINE
  8
LAYER_2
 10
-454.50000000
 20
143.00000000
 11
-441.50000000
 21
143.00000000
  0
LINE
  8
LAYER_2
 10
-454.50000000
 20
144.50000000
 11
-441.50000000
 21
144.50000000
  0
LINE
  8
LAYER_2
 10
-418.50000000
 20
143.00000000
 11
-408.00000000
 21
143.00000000
  0
LINE
  8
LAYER_2
 10
-418.50000000
 20
144.50000000
 11
-408.00000000
 21
144.50000000
  0
LINE
  8
LAYER_2
 10
-374.37500000
 20
143.00000000
 11
-360.00000000
 21
143.00000000
  0
LINE
  8
LAYER_2
 10
-374.50000000
 20
144.50000000
 11
-360.00000000
 21
144.50000000
  0
LINE
  8
LAYER_2
 10
-358.00000000
 20
143.00000000
 11
-353.50000000
 21
143.00000000
  0
LINE
  8
LAYER_2
 10
-358.00000000
 20
144.50000000
 11
-353.50000000
 21
144.50000000
  0
LINE
  8
LAYER_2
 10
-342.00000000
 20
143.00000000
 11
-329.50000000
 21
143.00000000
  0
LINE
  8
LAYER_2
 10
-342.00000000
 20
144.50000000
 11
-329.50000000
 21
144.50000000
  0
LINE
  8
LAYER_2
 10
-326.50000000
 20
143.00000000
 11
-313.50000000
 21
143.00000000
  0
LINE
  8
LAYER_2
 10
-326.50000000
 20
144.50000000
 11
-313.50000000
 21
144.50000000
  0
LINE
  8
LAYER_2
 10
-310.50000000
 20
143.00000000
 11
-304.00000000
 21
143.00000000
  0
LINE
  8
LAYER_2
 10
-310.50000000
 20
144.50000000
 11
-297.50000000
 21
144.50000000
  0
LINE
  8
LAYER_2
 10
-294.50000000
 20
143.00000000
 11
-281.50000000
 21
143.00000000
  0
LINE
  8
LAYER_2
 10
-294.50000000
 20
144.50000000
 11
-281.50000000
 21
144.50000000
  0
LINE
  8
LAYER_2
 10
-278.50000000
 20
143.00000000
 11
-265.50000000
 21
143.00000000
  0
LINE
  8
LAYER_2
 10
-278.50000000
 20
144.50000000
 11
-265.50000000
 21
144.50000000
  0
LINE
  8
LAYER_2
 10
-262.50000000
 20
143.00000000
 11
-261.25000000
 21
143.00000000
  0
LINE
  8
LAYER_2
 10
-262.50000000
 20
144.50000000
 11
-261.25000000
 21
144.50000000
  0
LINE
  8
LAYER_2
 10
-246.50000000
 20
143.00000000
 11
-233.50000000
 21
143.00000000
  0
LINE
  8
LAYER_2
 10
-246.50000000
 20
144.50000000
 11
-233.50000000
 21
144.50000000
  0
LINE
  8
LAYER_2
 10
-230.50000000
 20
143.00000000
 11
-217.50000000
 21
143.00000000
  0
LINE
  8
LAYER_2
 10
-230.50000000
 20
144.50000000
 11
-217.50000000
 21
144.50000000
  0
LINE
  8
LAYER_2
 10
-214.50000000
 20
143.00000000
 11
-201.50000000
 21
143.00000000
  0
LINE
  8
LAYER_2
 10
-214.50000000
 20
144.50000000
 11
-201.50000000
 21
144.50000000
  0
LINE
  8
LAYER_2
 10
-198.50000000
 20
143.00000000
 11
-185.50000000
 21
143.00000000
  0
LINE
  8
LAYER_2
 10
-198.50000000
 20
144.50000000
 11
-185.50000000
 21
144.50000000
  0
LINE
  8
LAYER_2
 10
-181.00000000
 20
143.00000000
 11
-169.50000000
 21
143.00000000
  0
LINE
  8
LAYER_2
 10
-181.00000000
 20
144.50000000
 11
-169.50000000
 21
144.50000000
  0
LINE
  8
LAYER_2
 10
-166.50000000
 20
143.00000000
 11
-153.50000000
 21
143.00000000
  0
LINE
  8
LAYER_2
 10
-166.50000000
 20
144.50000000
 11
-153.50000000
 21
144.50000000
  0
LINE
  8
LAYER_2
 10
-150.50000000
 20
143.00000000
 11
-138.25000000
 21
143.00000000
  0
LINE
  8
LAYER_2
 10
-150.50000000
 20
144.50000000
 11
-138.25000000
 21
144.50000000
  0
LINE
  8
LAYER_2
  6
SMALL
 10
-139.25000000
 20
143.00000000
 11
-139.25000000
 21
4.25000000
  0
LINE
  8
LAYER_2
 10
-257.25000000
 20
143.00000000
 11
-249.50000000
 21
143.00000000
  0
LINE
  8
LAYER_2
 10
-257.25000000
 20
144.50000000
 11
-249.50000000
 21
144.50000000
  0
LINE
  8
LAYER_2
 10
-262.50000000
 20
141.50000000
 11
-249.50000000
 21
141.50000000
  0
LINE
  8
LAYER_2
  6
SMALL
 10
-502.50000000
 20
4.25000000
 11
-488.00000000
 21
4.25000000
  0
LINE
  8
LAYER_2
  6
SMALL
 10
-486.50000000
 20
4.25000000
 11
-473.50000000
 21
4.25000000
  0
LINE
  8
LAYER_2
  6
SMALL
 10
-470.50000000
 20
4.25000000
 11
-456.00000000
 21
4.25000000
  0
LINE
  8
LAYER_2
  6
SMALL
 10
-454.50000000
 20
4.25000000
 11
-440.00000000
 21
4.25000000
  0
LINE
  8
LAYER_2
  6
SMALL
 10
-438.50000000
 20
4.25000000
 11
-424.00000000
 21
4.25000000
  0
LINE
  8
LAYER_2
  6
SMALL
 10
-422.50000000
 20
4.25000000
 11
-421.50000000
 21
4.25000000
  0
LINE
  8
LAYER_2
  6
SMALL
 10
-406.50000000
 20
4.25000000
 11
-392.00000000
 21
4.25000000
  0
LINE
  8
LAYER_2
  6
SMALL
 10
-390.50000000
 20
4.25000000
 11
-376.00000000
 21
4.25000000
  0
LINE
  8
LAYER_2
  6
SMALL
 10
-374.50000000
 20
4.25000000
 11
-360.00000000
 21
4.25000000
  0
LINE
  8
LAYER_2
  6
SMALL
 10
-358.50000000
 20
4.25000000
 11
-353.50000000
 21
4.25000000
  0
LINE
  8
LAYER_2
  6
SMALL
 10
-342.00000000
 20
4.25000000
 11
-328.00000000
 21
4.25000000
  0
LINE
  8
LAYER_2
  6
SMALL
 10
-326.50000000
 20
4.25000000
 11
-312.00000000
 21
4.25000000
  0
LINE
  8
LAYER_2
  6
SMALL
 10
-310.50000000
 20
4.25000000
 11
-304.00000000
 21
4.25000000
  0
LINE
  8
LAYER_2
  6
SMALL
 10
-294.50000000
 20
4.25000000
 11
-280.00000000
 21
4.25000000
  0
LINE
  8
LAYER_2
  6
SMALL
 10
-278.50000000
 20
4.25000000
 11
-264.00000000
 21
4.25000000
  0
LINE
  8
LAYER_2
  6
SMALL
 10
-262.50000000
 20
4.25000000
 11
-248.00000000
 21
4.25000000
  0
LINE
  8
LAYER_2
  6
SMALL
 10
-246.50000000
 20
4.25000000
 11
-233.50000000
 21
4.25000000
  0
LINE
  8
LAYER_2
  6
SMALL
 10
-230.50000000
 20
4.25000000
 11
-216.00000000
 21
4.25000000
  0
LINE
  8
LAYER_2
  6
SMALL
 10
-214.50000000
 20
4.25000000
 11
-200.00000000
 21
4.25000000
  0
LINE
  8
LAYER_2
  6
SMALL
 10
-198.50000000
 20
4.25000000
 11
-184.00000000
 21
4.25000000
  0
LINE
  8
LAYER_2
  6
SMALL
 10
-181.00000000
 20
4.25000000
 11
-168.00000000
 21
4.25000000
  0
LINE
  8
LAYER_2
  6
SMALL
 10
-166.50000000
 20
4.25000000
 11
-152.00000000
 21
4.25000000
  0
LINE
  8
LAYER_2
  6
SMALL
 10
-150.50000000
 20
4.25000000
 11
-139.25000000
 21
4.25000000
  0
LINE
  8
LAYER_2
  6
SMALL
 10
-504.00000000
 20
283.75000000
 11
-489.50000000
 21
283.75000000
  0
LINE
  8
LAYER_2
  6
SMALL
 10
-488.00000000
 20
283.75000000
 11
-473.50000000
 21
283.75000000
  0
LINE
  8
LAYER_2
  6
SMALL
 10
-472.00000000
 20
283.75000000
 11
-457.50000000
 21
283.75000000
  0
LINE
  8
LAYER_2
  6
SMALL
 10
-456.00000000
 20
283.75000000
 11
-441.50000000
 21
283.75000000
  0
LINE
  8
LAYER_2
  6
SMALL
 10
-326.50000000
 20
283.75000000
 11
-313.50000000
 21
283.75000000
  0
LINE
  8
LAYER_2
  6
SMALL
 10
-312.00000000
 20
283.75000000
 11
-297.50000000
 21
283.75000000
  0
LINE
  8
LAYER_2
  6
SMALL
 10
-284.50000000
 20
283.75000000
 11
-281.50000000
 21
283.75000000
  0
LINE
  8
LAYER_2
  6
SMALL
 10
-280.00000000
 20
283.75000000
 11
-265.50000000
 21
283.75000000
  0
LINE
  8
LAYER_2
  6
SMALL
 10
-264.00000000
 20
283.75000000
 11
-249.50000000
 21
283.75000000
  0
LINE
  8
LAYER_2
  6
SMALL
 10
-248.00000000
 20
283.75000000
 11
-233.50000000
 21
283.75000000
  0
LINE
  8
LAYER_2
  6
SMALL
 10
-232.00000000
 20
283.75000000
 11
-217.50000000
 21
283.75000000
  0
LINE
  8
LAYER_2
  6
SMALL
 10
-216.00000000
 20
283.75000000
 11
-201.50000000
 21
283.75000000
  0
LINE
  8
LAYER_2
  6
SMALL
 10
-200.00000000
 20
283.75000000
 11
-185.50000000
 21
283.75000000
  0
LINE
  8
LAYER_2
  6
SMALL
 10
-184.00000000
 20
283.75000000
 11
-169.50000000
 21
283.75000000
  0
LINE
  8
LAYER_2
  6
SMALL
 10
-168.00000000
 20
283.75000000
 11
-153.50000000
 21
283.75000000
  0
LINE
  8
LAYER_2
  6
SMALL
 10
-152.00000000
 20
283.75000000
 11
-139.25000000
 21
283.75000000
  0
LINE
  8
LAYER_2
 10
-301.00000000
 20
143.00000000
 11
-297.50000000
 21
143.00000000
  0
LINE
  8
LAYER_2
 10
-431.00000000
 20
286.25000000
 11
-431.00000000
 21
142.25000000
  0
LINE
  8
LAYER_2
 10
-432.50000000
 20
286.25000000
 11
-432.50000000
 21
142.25000000
  0
LINE
  8
LAYER_2
 10
-434.00000000
 20
286.25000000
 11
-434.00000000
 21
142.25000000
  0
LINE
  8
LAYER_2
  6
SMALL
 10
-431.00000000
 20
283.75000000
 11
-329.50000000
 21
283.75000000
  0
LINE
  8
LAYER_2
 10
-434.00000000
 20
142.25000000
 11
-431.00000000
 21
142.25000000
  0
LINE
  8
LAYER_2
  6
SMALL
 10
-431.00000000
 20
146.25000000
 11
-425.50000000
 21
146.25000000
  0
LINE
  8
LAYER_2
 10
-431.00000000
 20
143.00000000
 11
-424.00000000
 21
143.00000000
  0
LINE
  8
LAYER_2
 10
-431.00000000
 20
144.50000000
 11
-424.00000000
 21
144.50000000
  0
LINE
  8
LAYER_2
 10
-420.00000000
 20
145.25000000
 11
-420.00000000
 21
1.25000000
  0
LINE
  8
LAYER_2
 10
-418.50000000
 20
145.25000000
 11
-418.50000000
 21
1.25000000
  0
LINE
  8
LAYER_2
 10
-421.50000000
 20
145.25000000
 11
-421.50000000
 21
1.25000000
  0
LINE
  8
LAYER_2
  6
SMALL
 10
-408.00000000
 20
146.25000000
 11
-393.50000000
 21
146.25000000
  0
LINE
  8
LAYER_2
  6
SMALL
 10
-406.50000000
 20
141.25000000
 11
-392.00000000
 21
141.25000000
  0
LINE
  8
LAYER_2
 10
-406.50000000
 20
143.00000000
 11
-392.00000000
 21
143.00000000
  0
LINE
  8
LAYER_2
 10
-406.50000000
 20
144.50000000
 11
-392.00000000
 21
144.50000000
  0
LINE
  8
LAYER_2
  6
SMALL
 10
-418.50000000
 20
4.25000000
 11
-408.00000000
 21
4.25000000
  0
LINE
  8
LAYER_2
 10
-352.00000000
 20
145.25000000
 11
-352.00000000
 21
1.25000000
  0
LINE
  8
LAYER_2
 10
-350.50000000
 20
145.25000000
 11
-350.50000000
 21
1.25000000
  0
LINE
  8
LAYER_2
 10
-353.50000000
 20
145.25000000
 11
-353.50000000
 21
1.25000000
  0
LINE
  8
LAYER_2
  6
SMALL
 10
-350.50000000
 20
4.25000000
 11
-343.50000000
 21
4.25000000
  0
LINE
  8
LAYER_2
 10
-304.00000000
 20
144.50000000
 11
-304.00000000
 21
1.25000000
  0
LINE
  8
LAYER_2
 10
-302.50000000
 20
144.50000000
 11
-302.50000000
 21
1.25000000
  0
LINE
  8
LAYER_2
 10
-301.00000000
 20
144.50000000
 11
-301.00000000
 21
1.25000000
  0
LINE
  8
LAYER_2
  6
SMALL
 10
-301.00000000
 20
4.25000000
 11
-296.00000000
 21
4.25000000
  0
LINE
  8
LAYER_2
 10
-181.00000000
 20
147.37500000
 11
-181.00000000
 21
1.25000000
  0
LINE
  8
LAYER_2
 10
-431.00000000
 20
245.75000000
 11
-329.50000000
 21
245.75000000
  0
LINE
  8
LAYER_2
 10
-431.00000000
 20
244.25000000
 11
-329.50000000
 21
244.25000000
  0
LINE
  8
LAYER_2
 10
-431.00000000
 20
242.75000000
 11
-329.50000000
 21
242.75000000
  0
LINE
  8
LAYER_2
 10
-431.00000000
 20
284.75000000
 11
-329.50000000
 21
284.75000000
  0
LINE
  8
LAYER_2
 10
-425.50000000
 20
242.75000000
 11
-425.50000000
 21
144.50000000
  0
LINE
  8
LAYER_2
 10
-424.00000000
 20
242.75000000
 11
-424.00000000
 21
1.25000000
  0
LINE
  8
LAYER_2
 10
-440.00000000
 20
286.25000000
 11
-440.00000000
 21
1.25000000
  0
LINE
  8
LAYER_2
 10
-489.50000000
 20
286.25000000
 11
-489.50000000
 21
142.25000000
  0
LINE
  8
LAYER_2
 10
-488.00000000
 20
286.25000000
 11
-488.00000000
 21
1.25000000
  0
LINE
  8
LAYER_2
 10
-473.50000000
 20
286.25000000
 11
-473.50000000
 21
142.25000000
  0
LINE
  8
LAYER_2
 10
-473.50000000
 20
142.25000000
 11
-472.00000000
 21
142.25000000
  0
LINE
  8
LAYER_2
 10
-472.00000000
 20
286.25000000
 11
-472.00000000
 21
1.25000000
  0
LINE
  8
LAYER_2
 10
-457.50000000
 20
286.25000000
 11
-457.50000000
 21
142.25000000
  0
LINE
  8
LAYER_2
 10
-456.00000000
 20
286.25000000
 11
-456.00000000
 21
1.25000000
  0
LINE
  8
LAYER_2
  6
SMALL
 10
-431.00000000
 20
241.75000000
 11
-425.50000000
 21
241.75000000
  0
LINE
  8
LAYER_2
 10
-138.25000000
 20
286.25000000
 11
-138.25000000
 21
1.25000000
  0
LINE
  8
LAYER_2
 10
-516.25000000
 20
286.25000000
 11
-516.25000000
 21
1.25000000
  0
LINE
  8
LAYER_2
  6
SMALL
 10
-296.00000000
 20
283.75000000
 11
-287.50000000
 21
283.75000000
  0
LINE
  8
LAYER_2
  6
SMALL
 10
-359.50000000
 20
241.75000000
 11
-345.00000000
 21
241.75000000
  0
LINE
  8
LAYER_2
  6
SMALL
 10
-343.37500000
 20
241.75000000
 11
-329.50000000
 21
241.75000000
  0
LINE
  8
LAYER_2
  6
SMALL
 10
-375.62500000
 20
241.75000000
 11
-361.50000000
 21
241.75000000
  0
LINE
  8
LAYER_2
  6
SMALL
 10
-391.62500000
 20
241.75000000
 11
-377.50000000
 21
241.75000000
  0
LINE
  8
LAYER_2
  6
SMALL
 10
-407.50000000
 20
241.75000000
 11
-393.50000000
 21
241.75000000
  0
LINE
  8
LAYER_2
  6
SMALL
 10
-424.00000000
 20
241.75000000
 11
-409.50000000
 21
241.75000000
  0
LINE
  8
LAYER_2
  6
MEDIUM
 10
-166.50000000
 20
74.87500000
 11
-152.00000000
 21
74.87500000
  0
LINE
  8
LAYER_2
  6
MEDIUM
 10
-166.50000000
 20
73.37500000
 11
-152.00000000
 21
73.37500000
  0
LINE
  8
LAYER_2
  6
MEDIUM
 10
-166.50000000
 20
71.87500000
 11
-152.00000000
 21
71.87500000
  0
LINE
  8
LAYER_2
  6
MEDIUM
 10
-182.50000000
 20
74.87500000
 11
-168.00000000
 21
74.87500000
  0
LINE
  8
LAYER_2
  6
MEDIUM
 10
-182.50000000
 20
73.37500000
 11
-168.00000000
 21
73.37500000
  0
LINE
  8
LAYER_2
  6
MEDIUM
 10
-182.50000000
 20
71.87500000
 11
-168.00000000
 21
71.87500000
  0
LINE
  8
LAYER_2
  6
MEDIUM
 10
-198.50000000
 20
74.87500000
 11
-184.00000000
 21
74.87500000
  0
LINE
  8
LAYER_2
  6
MEDIUM
 10
-198.50000000
 20
73.37500000
 11
-184.00000000
 21
73.37500000
  0
LINE
  8
LAYER_2
  6
MEDIUM
 10
-198.50000000
 20
71.87500000
 11
-184.00000000
 21
71.87500000
  0
LINE
  8
LAYER_2
  6
MEDIUM
 10
-214.50000000
 20
74.87500000
 11
-200.00000000
 21
74.87500000
  0
LINE
  8
LAYER_2
  6
MEDIUM
 10
-214.50000000
 20
73.37500000
 11
-200.00000000
 21
73.37500000
  0
LINE
  8
LAYER_2
  6
MEDIUM
 10
-214.50000000
 20
71.87500000
 11
-200.00000000
 21
71.87500000
  0
LINE
  8
LAYER_2
  6
MEDIUM
 10
-230.50000000
 20
74.87500000
 11
-216.00000000
 21
74.87500000
  0
LINE
  8
LAYER_2
  6
MEDIUM
 10
-230.50000000
 20
73.37500000
 11
-216.00000000
 21
73.37500000
  0
LINE
  8
LAYER_2
  6
MEDIUM
 10
-230.50000000
 20
71.87500000
 11
-216.00000000
 21
71.87500000
  0
LINE
  8
LAYER_2
  6
MEDIUM
 10
-246.50000000
 20
74.87500000
 11
-232.00000000
 21
74.87500000
  0
LINE
  8
LAYER_2
  6
MEDIUM
 10
-246.50000000
 20
73.37500000
 11
-232.00000000
 21
73.37500000
  0
LINE
  8
LAYER_2
  6
MEDIUM
 10
-246.50000000
 20
71.87500000
 11
-232.00000000
 21
71.87500000
  0
LINE
  8
LAYER_2
  6
MEDIUM
 10
-262.50000000
 20
74.87500000
 11
-258.62500000
 21
74.87500000
  0
LINE
  8
LAYER_2
  6
MEDIUM
 10
-262.50000000
 20
73.37500000
 11
-258.62500000
 21
73.37500000
  0
LINE
  8
LAYER_2
  6
MEDIUM
 10
-262.50000000
 20
71.87500000
 11
-258.62500000
 21
71.87500000
  0
LINE
  8
LAYER_2
  6
MEDIUM
 10
-278.50000000
 20
74.87500000
 11
-264.00000000
 21
74.87500000
  0
LINE
  8
LAYER_2
  6
MEDIUM
 10
-278.50000000
 20
73.37500000
 11
-264.00000000
 21
73.37500000
  0
LINE
  8
LAYER_2
  6
MEDIUM
 10
-278.50000000
 20
71.87500000
 11
-264.00000000
 21
71.87500000
  0
LINE
  8
LAYER_2
  6
MEDIUM
 10
-294.50000000
 20
74.87500000
 11
-280.00000000
 21
74.87500000
  0
LINE
  8
LAYER_2
  6
MEDIUM
 10
-294.50000000
 20
73.37500000
 11
-280.00000000
 21
73.37500000
  0
LINE
  8
LAYER_2
  6
MEDIUM
 10
-294.50000000
 20
71.87500000
 11
-280.00000000
 21
71.87500000
  0
LINE
  8
LAYER_2
  6
MEDIUM
 10
-310.50000000
 20
74.87500000
 11
-304.00000000
 21
74.87500000
  0
LINE
  8
LAYER_2
  6
MEDIUM
 10
-310.50000000
 20
73.37500000
 11
-304.00000000
 21
73.37500000
  0
LINE
  8
LAYER_2
  6
MEDIUM
 10
-310.50000000
 20
71.87500000
 11
-304.00000000
 21
71.87500000
  0
LINE
  8
LAYER_2
  6
MEDIUM
 10
-326.50000000
 20
74.87500000
 11
-312.00000000
 21
74.87500000
  0
LINE
  8
LAYER_2
  6
MEDIUM
 10
-326.50000000
 20
73.37500000
 11
-312.00000000
 21
73.37500000
  0
LINE
  8
LAYER_2
  6
MEDIUM
 10
-326.50000000
 20
71.87500000
 11
-312.00000000
 21
71.87500000
  0
LINE
  8
LAYER_2
  6
MEDIUM
 10
-342.00000000
 20
74.87500000
 11
-328.00000000
 21
74.87500000
  0
LINE
  8
LAYER_2
  6
MEDIUM
 10
-342.00000000
 20
73.37500000
 11
-328.00000000
 21
73.37500000
  0
LINE
  8
LAYER_2
  6
MEDIUM
 10
-342.00000000
 20
71.87500000
 11
-328.00000000
 21
71.87500000
  0
LINE
  8
LAYER_2
  6
MEDIUM
 10
-358.50000000
 20
74.87500000
 11
-353.50000000
 21
74.87500000
  0
LINE
  8
LAYER_2
  6
MEDIUM
 10
-358.50000000
 20
73.37500000
 11
-353.50000000
 21
73.37500000
  0
LINE
  8
LAYER_2
  6
MEDIUM
 10
-358.50000000
 20
71.87500000
 11
-353.50000000
 21
71.87500000
  0
LINE
  8
LAYER_2
  6
MEDIUM
 10
-374.50000000
 20
74.87500000
 11
-360.00000000
 21
74.87500000
  0
LINE
  8
LAYER_2
  6
MEDIUM
 10
-374.50000000
 20
73.37500000
 11
-360.00000000
 21
73.37500000
  0
LINE
  8
LAYER_2
  6
MEDIUM
 10
-374.50000000
 20
71.87500000
 11
-360.00000000
 21
71.87500000
  0
LINE
  8
LAYER_2
  6
MEDIUM
 10
-390.50000000
 20
74.87500000
 11
-376.00000000
 21
74.87500000
  0
LINE
  8
LAYER_2
  6
MEDIUM
 10
-390.50000000
 20
73.37500000
 11
-376.00000000
 21
73.37500000
  0
LINE
  8
LAYER_2
  6
MEDIUM
 10
-390.50000000
 20
71.87500000
 11
-376.00000000
 21
71.87500000
  0
LINE
  8
LAYER_2
  6
MEDIUM
 10
-406.50000000
 20
74.87500000
 11
-402.75000000
 21
74.87500000
  0
LINE
  8
LAYER_2
  6
MEDIUM
 10
-406.50000000
 20
73.37500000
 11
-402.75000000
 21
73.37500000
  0
LINE
  8
LAYER_2
  6
MEDIUM
 10
-406.50000000
 20
71.87500000
 11
-402.75000000
 21
71.87500000
  0
LINE
  8
LAYER_2
  6
MEDIUM
 10
-418.50000000
 20
74.87500000
 11
-408.00000000
 21
74.87500000
  0
LINE
  8
LAYER_2
  6
MEDIUM
 10
-418.50000000
 20
73.37500000
 11
-408.00000000
 21
73.37500000
  0
LINE
  8
LAYER_2
  6
MEDIUM
 10
-418.50000000
 20
71.87500000
 11
-408.00000000
 21
71.87500000
  0
LINE
  8
LAYER_2
  6
MEDIUM
 10
-438.50000000
 20
74.87500000
 11
-424.00000000
 21
74.87500000
  0
LINE
  8
LAYER_2
  6
MEDIUM
 10
-438.50000000
 20
73.37500000
 11
-424.00000000
 21
73.37500000
  0
LINE
  8
LAYER_2
  6
MEDIUM
 10
-438.50000000
 20
71.87500000
 11
-424.00000000
 21
71.87500000
  0
LINE
  8
LAYER_2
  6
MEDIUM
 10
-454.50000000
 20
74.87500000
 11
-450.87500000
 21
74.87500000
  0
LINE
  8
LAYER_2
  6
MEDIUM
 10
-454.50000000
 20
73.37500000
 11
-450.87500000
 21
73.37500000
  0
LINE
  8
LAYER_2
  6
MEDIUM
 10
-454.50000000
 20
71.87500000
 11
-450.87500000
 21
71.87500000
  0
LINE
  8
LAYER_2
  6
MEDIUM
 10
-470.50000000
 20
74.87500000
 11
-456.00000000
 21
74.87500000
  0
LINE
  8
LAYER_2
  6
MEDIUM
 10
-470.50000000
 20
73.37500000
 11
-456.00000000
 21
73.37500000
  0
LINE
  8
LAYER_2
  6
MEDIUM
 10
-470.50000000
 20
71.87500000
 11
-456.00000000
 21
71.87500000
  0
LINE
  8
LAYER_2
  6
MEDIUM
 10
-486.50000000
 20
74.87500000
 11
-483.12500000
 21
74.87500000
  0
LINE
  8
LAYER_2
  6
MEDIUM
 10
-486.50000000
 20
73.37500000
 11
-483.12500000
 21
73.37500000
  0
LINE
  8
LAYER_2
  6
MEDIUM
 10
-486.50000000
 20
71.87500000
 11
-483.12500000
 21
71.87500000
  0
LINE
  8
LAYER_2
  6
MEDIUM
 10
-502.50000000
 20
74.87500000
 11
-488.00000000
 21
74.87500000
  0
LINE
  8
LAYER_2
  6
MEDIUM
 10
-502.50000000
 20
73.37500000
 11
-488.00000000
 21
73.37500000
  0
LINE
  8
LAYER_2
  6
MEDIUM
 10
-502.50000000
 20
71.87500000
 11
-488.00000000
 21
71.87500000
  0
LINE
  8
LAYER_2
  6
MEDIUM
 10
-168.00000000
 20
219.37500000
 11
-164.50000000
 21
219.37500000
  0
LINE
  8
LAYER_2
  6
MEDIUM
 10
-168.00000000
 20
217.87500000
 11
-164.50000000
 21
217.87500000
  0
LINE
  8
LAYER_2
  6
MEDIUM
 10
-168.00000000
 20
216.37500000
 11
-164.50000000
 21
216.37500000
  0
LINE
  8
LAYER_2
  6
MEDIUM
 10
-184.00000000
 20
219.37500000
 11
-169.50000000
 21
219.37500000
  0
LINE
  8
LAYER_2
  6
MEDIUM
 10
-184.00000000
 20
217.87500000
 11
-169.50000000
 21
217.87500000
  0
LINE
  8
LAYER_2
  6
MEDIUM
 10
-184.00000000
 20
216.37500000
 11
-169.50000000
 21
216.37500000
  0
LINE
  8
LAYER_2
  6
MEDIUM
 10
-200.00000000
 20
219.37500000
 11
-195.25000000
 21
219.37500000
  0
LINE
  8
LAYER_2
  6
MEDIUM
 10
-200.00000000
 20
217.87500000
 11
-195.25000000
 21
217.87500000
  0
LINE
  8
LAYER_2
  6
MEDIUM
 10
-200.00000000
 20
216.37500000
 11
-195.25000000
 21
216.37500000
  0
LINE
  8
LAYER_2
  6
MEDIUM
 10
-216.00000000
 20
219.37500000
 11
-211.87500000
 21
219.37500000
  0
LINE
  8
LAYER_2
  6
MEDIUM
 10
-216.00000000
 20
217.87500000
 11
-211.87500000
 21
217.87500000
  0
LINE
  8
LAYER_2
  6
MEDIUM
 10
-216.00000000
 20
216.37500000
 11
-211.87500000
 21
216.37500000
  0
LINE
  8
LAYER_2
  6
MEDIUM
 10
-232.00000000
 20
219.37500000
 11
-227.12500000
 21
219.37500000
  0
LINE
  8
LAYER_2
  6
MEDIUM
 10
-232.00000000
 20
217.87500000
 11
-227.12500000
 21
217.87500000
  0
LINE
  8
LAYER_2
  6
MEDIUM
 10
-232.00000000
 20
216.37500000
 11
-227.12500000
 21
216.37500000
  0
LINE
  8
LAYER_2
  6
MEDIUM
 10
-248.00000000
 20
219.37500000
 11
-233.50000000
 21
219.37500000
  0
LINE
  8
LAYER_2
  6
MEDIUM
 10
-248.00000000
 20
217.87500000
 11
-233.50000000
 21
217.87500000
  0
LINE
  8
LAYER_2
  6
MEDIUM
 10
-248.00000000
 20
216.37500000
 11
-233.50000000
 21
216.37500000
  0
LINE
  8
LAYER_2
  6
MEDIUM
 10
-264.00000000
 20
219.37500000
 11
-249.50000000
 21
219.37500000
  0
LINE
  8
LAYER_2
  6
MEDIUM
 10
-264.00000000
 20
217.87500000
 11
-249.50000000
 21
217.87500000
  0
LINE
  8
LAYER_2
  6
MEDIUM
 10
-264.00000000
 20
216.37500000
 11
-249.50000000
 21
216.37500000
  0
LINE
  8
LAYER_2
  6
MEDIUM
 10
-280.00000000
 20
219.37500000
 11
-265.50000000
 21
219.37500000
  0
LINE
  8
LAYER_2
  6
MEDIUM
 10
-280.00000000
 20
217.87500000
 11
-265.50000000
 21
217.87500000
  0
LINE
  8
LAYER_2
  6
MEDIUM
 10
-280.00000000
 20
216.37500000
 11
-265.50000000
 21
216.37500000
  0
LINE
  8
LAYER_2
  6
MEDIUM
 10
-296.00000000
 20
219.37500000
 11
-287.50000000
 21
219.37500000
  0
LINE
  8
LAYER_2
  6
MEDIUM
 10
-296.00000000
 20
217.87500000
 11
-287.50000000
 21
217.87500000
  0
LINE
  8
LAYER_2
  6
MEDIUM
 10
-296.00000000
 20
216.37500000
 11
-287.50000000
 21
216.37500000
  0
LINE
  8
LAYER_2
  6
MEDIUM
 10
-312.00000000
 20
219.37500000
 11
-297.50000000
 21
219.37500000
  0
LINE
  8
LAYER_2
  6
MEDIUM
 10
-312.00000000
 20
217.87500000
 11
-297.50000000
 21
217.87500000
  0
LINE
  8
LAYER_2
  6
MEDIUM
 10
-312.00000000
 20
216.37500000
 11
-297.50000000
 21
216.37500000
  0
LINE
  8
LAYER_2
  6
MEDIUM
 10
-326.50000000
 20
219.37500000
 11
-313.50000000
 21
219.37500000
  0
LINE
  8
LAYER_2
  6
MEDIUM
 10
-326.50000000
 20
217.87500000
 11
-313.50000000
 21
217.87500000
  0
LINE
  8
LAYER_2
  6
MEDIUM
 10
-326.50000000
 20
216.37500000
 11
-313.50000000
 21
216.37500000
  0
LINE
  8
LAYER_2
  6
MEDIUM
 10
-343.50000000
 20
219.37500000
 11
-329.50000000
 21
219.37500000
  0
LINE
  8
LAYER_2
  6
MEDIUM
 10
-343.50000000
 20
217.87500000
 11
-329.50000000
 21
217.87500000
  0
LINE
  8
LAYER_2
  6
MEDIUM
 10
-343.50000000
 20
216.37500000
 11
-329.50000000
 21
216.37500000
  0
LINE
  8
LAYER_2
  6
MEDIUM
 10
-359.50000000
 20
219.37500000
 11
-345.00000000
 21
219.37500000
  0
LINE
  8
LAYER_2
  6
MEDIUM
 10
-359.50000000
 20
217.87500000
 11
-345.00000000
 21
217.87500000
  0
LINE
  8
LAYER_2
  6
MEDIUM
 10
-359.50000000
 20
216.37500000
 11
-345.00000000
 21
216.37500000
  0
LINE
  8
LAYER_2
  6
MEDIUM
 10
-375.50000000
 20
219.37500000
 11
-361.50000000
 21
219.37500000
  0
LINE
  8
LAYER_2
  6
MEDIUM
 10
-375.50000000
 20
217.87500000
 11
-361.50000000
 21
217.87500000
  0
LINE
  8
LAYER_2
  6
MEDIUM
 10
-375.50000000
 20
216.37500000
 11
-361.50000000
 21
216.37500000
  0
LINE
  8
LAYER_2
  6
MEDIUM
 10
-391.50000000
 20
219.37500000
 11
-377.50000000
 21
219.37500000
  0
LINE
  8
LAYER_2
  6
MEDIUM
 10
-391.50000000
 20
217.87500000
 11
-377.50000000
 21
217.87500000
  0
LINE
  8
LAYER_2
  6
MEDIUM
 10
-391.50000000
 20
216.37500000
 11
-377.50000000
 21
216.37500000
  0
LINE
  8
LAYER_2
  6
MEDIUM
 10
-407.50000000
 20
219.37500000
 11
-393.50000000
 21
219.37500000
  0
LINE
  8
LAYER_2
  6
MEDIUM
 10
-407.50000000
 20
217.87500000
 11
-393.50000000
 21
217.87500000
  0
LINE
  8
LAYER_2
  6
MEDIUM
 10
-407.50000000
 20
216.37500000
 11
-393.50000000
 21
216.37500000
  0
LINE
  8
LAYER_2
  6
MEDIUM
 10
-423.50000000
 20
219.37500000
 11
-409.50000000
 21
219.37500000
  0
LINE
  8
LAYER_2
  6
MEDIUM
 10
-423.50000000
 20
217.87500000
 11
-409.50000000
 21
217.87500000
  0
LINE
  8
LAYER_2
  6
MEDIUM
 10
-423.50000000
 20
216.37500000
 11
-409.50000000
 21
216.37500000
  0
LINE
  8
LAYER_2
  6
MEDIUM
 10
-456.00000000
 20
219.37500000
 11
-441.50000000
 21
219.37500000
  0
LINE
  8
LAYER_2
  6
MEDIUM
 10
-456.00000000
 20
217.87500000
 11
-441.50000000
 21
217.87500000
  0
LINE
  8
LAYER_2
  6
MEDIUM
 10
-456.00000000
 20
216.37500000
 11
-441.50000000
 21
216.37500000
  0
LINE
  8
LAYER_2
  6
MEDIUM
 10
-472.00000000
 20
219.37500000
 11
-457.50000000
 21
219.37500000
  0
LINE
  8
LAYER_2
  6
MEDIUM
 10
-472.00000000
 20
217.87500000
 11
-457.50000000
 21
217.87500000
  0
LINE
  8
LAYER_2
  6
MEDIUM
 10
-472.00000000
 20
216.37500000
 11
-457.50000000
 21
216.37500000
  0
LINE
  8
LAYER_2
  6
MEDIUM
 10
-488.00000000
 20
219.37500000
 11
-473.50000000
 21
219.37500000
  0
LINE
  8
LAYER_2
  6
MEDIUM
 10
-488.00000000
 20
217.87500000
 11
-473.50000000
 21
217.87500000
  0
LINE
  8
LAYER_2
  6
MEDIUM
 10
-488.00000000
 20
216.37500000
 11
-473.50000000
 21
216.37500000
  0
LINE
  8
LAYER_2
  6
MEDIUM
 10
-504.00000000
 20
219.37500000
 11
-489.50000000
 21
219.37500000
  0
LINE
  8
LAYER_2
  6
MEDIUM
 10
-504.00000000
 20
217.87500000
 11
-489.50000000
 21
217.87500000
  0
LINE
  8
LAYER_2
  6
MEDIUM
 10
-504.00000000
 20
216.37500000
 11
-489.50000000
 21
216.37500000
  0
LINE
  8
LAYER_2
  6
MEDIUM
 10
-221.00000000
 20
219.37500000
 11
-217.50000000
 21
219.37500000
  0
LINE
  8
LAYER_2
  6
MEDIUM
 10
-221.00000000
 20
217.87500000
 11
-217.50000000
 21
217.87500000
  0
LINE
  8
LAYER_2
  6
MEDIUM
 10
-221.00000000
 20
216.37500000
 11
-217.50000000
 21
216.37500000
  0
LINE
  8
LAYER_2
  6
MEDIUM
 10
-204.87500000
 20
219.37500000
 11
-201.50000000
 21
219.37500000
  0
LINE
  8
LAYER_2
  6
MEDIUM
 10
-204.87500000
 20
217.87500000
 11
-201.50000000
 21
217.87500000
  0
LINE
  8
LAYER_2
  6
MEDIUM
 10
-204.87500000
 20
216.37500000
 11
-201.50000000
 21
216.37500000
  0
LINE
  8
LAYER_2
  6
MEDIUM
 10
-189.37500000
 20
219.37500000
 11
-185.50000000
 21
219.37500000
  0
LINE
  8
LAYER_2
  6
MEDIUM
 10
-189.37500000
 20
217.87500000
 11
-185.50000000
 21
217.87500000
  0
LINE
  8
LAYER_2
  6
MEDIUM
 10
-189.37500000
 20
216.37500000
 11
-185.50000000
 21
216.37500000
  0
LINE
  8
LAYER_2
  6
MEDIUM
 10
-157.00000000
 20
219.37500000
 11
-153.50000000
 21
219.37500000
  0
LINE
  8
LAYER_2
  6
MEDIUM
 10
-157.00000000
 20
217.87500000
 11
-153.50000000
 21
217.87500000
  0
LINE
  8
LAYER_2
  6
MEDIUM
 10
-157.00000000
 20
216.37500000
 11
-153.50000000
 21
216.37500000
  0
LINE
  8
LAYER_2
  6
MEDIUM
 10
-251.00000000
 20
74.87500000
 11
-248.00000000
 21
74.87500000
  0
LINE
  8
LAYER_2
  6
MEDIUM
 10
-251.00000000
 20
73.37500000
 11
-248.00000000
 21
73.37500000
  0
LINE
  8
LAYER_2
  6
MEDIUM
 10
-251.00000000
 20
71.87500000
 11
-248.00000000
 21
71.87500000
  0
LINE
  8
LAYER_2
  6
MEDIUM
 10
-396.25000000
 20
74.87500000
 11
-392.00000000
 21
74.87500000
  0
LINE
  8
LAYER_2
  6
MEDIUM
 10
-396.25000000
 20
73.37500000
 11
-392.00000000
 21
73.37500000
  0
LINE
  8
LAYER_2
  6
MEDIUM
 10
-396.25000000
 20
71.87500000
 11
-392.00000000
 21
71.87500000
  0
LINE
  8
LAYER_2
  6
MEDIUM
 10
-442.75000000
 20
74.87500000
 11
-440.00000000
 21
74.87500000
  0
LINE
  8
LAYER_2
  6
MEDIUM
 10
-442.75000000
 20
73.37500000
 11
-440.00000000
 21
73.37500000
  0
LINE
  8
LAYER_2
  6
MEDIUM
 10
-442.75000000
 20
71.87500000
 11
-440.00000000
 21
71.87500000
  0
LINE
  8
LAYER_2
  6
MEDIUM
 10
-475.37500000
 20
74.87500000
 11
-472.00000000
 21
74.87500000
  0
LINE
  8
LAYER_2
  6
MEDIUM
 10
-475.37500000
 20
73.37500000
 11
-472.00000000
 21
73.37500000
  0
LINE
  8
LAYER_2
  6
MEDIUM
 10
-475.37500000
 20
71.87500000
 11
-472.00000000
 21
71.87500000
  0
LINE
  8
LAYER_2
 10
-426.25000000
 20
242.62500000
 11
-426.25000000
 21
238.62500000
  0
LINE
  8
LAYER_2
 10
-426.25000000
 20
242.50000000
 11
-423.25000000
 21
242.50000000
  0
LINE
  8
LAYER_2
 10
-423.25000000
 20
242.50000000
 11
-423.25000000
 21
238.62500000
  0
LINE
  8
LAYER_2
 10
-335.50000000
 20
246.50000000
 11
-330.37500000
 21
246.50000000
  0
LINE
  8
LAYER_2
 10
-330.50000000
 20
246.50000000
 11
-330.50000000
 21
242.00000000
  0
LINE
  8
LAYER_2
 10
-335.50000000
 20
242.00000000
 11
-330.37500000
 21
242.00000000
  0
LINE
  8
LAYER_2
 10
-430.25000000
 20
246.50000000
 11
-425.25000000
 21
246.50000000
  0
LINE
  8
LAYER_2
 10
-430.25000000
 20
246.50000000
 11
-430.25000000
 21
242.00000000
  0
LINE
  8
LAYER_2
 10
-430.25000000
 20
242.00000000
 11
-427.25000000
 21
242.00000000
  0
LINE
  8
LAYER_2
 10
-440.00000000
 20
145.25000000
 11
-438.50000000
 21
145.25000000
  0
LINE
  8
LAYER_2
  6
SMALL
 10
-301.00000000
 20
141.25000000
 11
-296.00000000
 21
141.25000000
  0
LINE
  8
LAYER_2
 10
-284.50000000
 20
286.25000000
 11
-284.50000000
 21
144.50000000
  0
LINE
  8
LAYER_2
 10
-286.00000000
 20
286.25000000
 11
-286.00000000
 21
144.50000000
  0
LINE
  8
LAYER_2
 10
-287.50000000
 20
286.25000000
 11
-287.50000000
 21
144.50000000
  0
LINE
  8
LAYER_2
  6
MEDIUM
 10
-284.50000000
 20
219.37500000
 11
-281.50000000
 21
219.37500000
  0
LINE
  8
LAYER_2
  6
MEDIUM
 10
-284.50000000
 20
217.87500000
 11
-281.50000000
 21
217.87500000
  0
LINE
  8
LAYER_2
  6
MEDIUM
 10
-284.50000000
 20
216.37500000
 11
-281.50000000
 21
216.37500000
  0
LINE
  8
LAYER_2
  6
SMALL
 10
-284.50000000
 20
146.25000000
 11
-281.50000000
 21
146.25000000
  0
LINE
  8
LAYER_2
  6
MEDIUM
 10
-431.00000000
 20
219.37500000
 11
-425.50000000
 21
219.37500000
  0
LINE
  8
LAYER_2
  6
MEDIUM
 10
-431.00000000
 20
217.87500000
 11
-425.50000000
 21
217.87500000
  0
LINE
  8
LAYER_2
  6
MEDIUM
 10
-431.00000000
 20
216.37500000
 11
-425.50000000
 21
216.37500000
  0
LINE
  8
LAYER_2
 10
-441.50000000
 20
142.25000000
 11
-440.00000000
 21
142.25000000
  0
LINE
  8
LAYER_2
 10
-441.50000000
 20
286.25000000
 11
-441.50000000
 21
142.25000000
  0
LINE
  8
LAYER_2
  6
SMALL
 10
-440.00000000
 20
283.75000000
 11
-434.00000000
 21
283.75000000
  0
LINE
  8
LAYER_2
  6
MEDIUM
 10
-440.00000000
 20
219.37500000
 11
-434.00000000
 21
219.37500000
  0
LINE
  8
LAYER_2
  6
MEDIUM
 10
-440.00000000
 20
217.87500000
 11
-434.00000000
 21
217.87500000
  0
LINE
  8
LAYER_2
  6
MEDIUM
 10
-440.00000000
 20
216.37500000
 11
-434.00000000
 21
216.37500000
  0
LINE
  8
LAYER_2
 10
-438.50000000
 20
143.00000000
 11
-434.00000000
 21
143.00000000
  0
LINE
  8
LAYER_2
 10
-438.50000000
 20
144.50000000
 11
-434.00000000
 21
144.50000000
  0
LINE
  8
LAYER_2
  6
SMALL
 10
-440.00000000
 20
146.25000000
 11
-434.00000000
 21
146.25000000
  0
LINE
  8
LAYER_2
  6
SMALL
 10
-438.50000000
 20
141.25000000
 11
-424.00000000
 21
141.25000000
  0
LINE
  8
LAYER_2
  6
MEDIUM
 10
-301.00000000
 20
74.87500000
 11
-296.00000000
 21
74.87500000
  0
LINE
  8
LAYER_2
  6
MEDIUM
 10
-301.00000000
 20
73.37500000
 11
-296.00000000
 21
73.37500000
  0
LINE
  8
LAYER_2
  6
MEDIUM
 10
-301.00000000
 20
71.87500000
 11
-296.00000000
 21
71.87500000
  0
LINE
  8
LAYER_2
 10
-343.50000000
 20
145.25000000
 11
-343.50000000
 21
1.25000000
  0
LINE
  8
LAYER_2
  6
MEDIUM
 10
-350.50000000
 20
74.87500000
 11
-343.50000000
 21
74.87500000
  0
LINE
  8
LAYER_2
  6
MEDIUM
 10
-350.50000000
 20
73.37500000
 11
-343.50000000
 21
73.37500000
  0
LINE
  8
LAYER_2
  6
MEDIUM
 10
-350.50000000
 20
71.87500000
 11
-343.50000000
 21
71.87500000
  0
LINE
  8
LAYER_2
  6
SMALL
 10
-360.00000000
 20
146.25000000
 11
-345.50000000
 21
146.25000000
  0
LINE
  8
LAYER_2
  6
SMALL
 10
-350.50000000
 20
141.25000000
 11
-343.50000000
 21
141.25000000
  0
LINE
  8
LAYER_2
 10
-350.50000000
 20
143.00000000
 11
-343.50000000
 21
143.00000000
  0
LINE
  8
LAYER_2
 10
-350.50000000
 20
144.50000000
 11
-343.50000000
 21
144.50000000
  0
LINE
  8
LAYER_2
  6
SMALL
 10
-422.50000000
 20
141.25000000
 11
-421.50000000
 21
141.25000000
  0
LINE
  8
LAYER_2
 10
-342.00000000
 20
145.25000000
 11
-342.00000000
 21
1.25000000
  0
LINE
  8
LAYER_2
 10
-360.00000000
 20
242.75000000
 11
-360.00000000
 21
1.25000000
  0
LINE
  8
LAYER_2
 10
-408.00000000
 20
242.75000000
 11
-408.00000000
 21
1.25000000
  0
LINE
  8
LAYER_2
 10
-376.00000000
 20
242.75000000
 11
-376.00000000
 21
1.25000000
  0
LINE
  8
LAYER_2
 10
-392.00000000
 20
242.75000000
 11
-392.00000000
 21
1.25000000
  0
LINE
  8
LAYER_2
 10
-360.00000000
 20
145.25000000
 11
-358.50000000
 21
145.25000000
  0
LINE
  8
LAYER_2
 10
-392.00000000
 20
145.25000000
 11
-390.50000000
 21
145.25000000
  0
LINE
  8
LAYER_2
 10
-376.00000000
 20
145.25000000
 11
-374.50000000
 21
145.25000000
  0
LINE
  8
LAYER_2
 10
-408.00000000
 20
145.25000000
 11
-406.50000000
 21
145.25000000
  0
LINE
  8
LAYER_2
 10
-424.00000000
 20
145.25000000
 11
-422.50000000
 21
145.25000000
  0
LINE
  8
LAYER_2
 10
-409.50000000
 20
242.75000000
 11
-409.50000000
 21
144.50000000
  0
LINE
  8
LAYER_2
 10
-410.25000000
 20
242.62500000
 11
-410.25000000
 21
238.62500000
  0
LINE
  8
LAYER_2
 10
-410.25000000
 20
242.50000000
 11
-407.25000000
 21
242.50000000
  0
LINE
  8
LAYER_2
 10
-407.25000000
 20
242.50000000
 11
-407.25000000
 21
238.62500000
  0
LINE
  8
LAYER_2
 10
-393.50000000
 20
242.75000000
 11
-393.50000000
 21
144.50000000
  0
LINE
  8
LAYER_2
 10
-394.25000000
 20
242.62500000
 11
-394.25000000
 21
238.62500000
  0
LINE
  8
LAYER_2
 10
-394.25000000
 20
242.50000000
 11
-391.25000000
 21
242.50000000
  0
LINE
  8
LAYER_2
 10
-391.25000000
 20
242.50000000
 11
-391.25000000
 21
238.62500000
  0
LINE
  8
LAYER_2
 10
-377.50000000
 20
242.75000000
 11
-377.50000000
 21
145.75000000
  0
LINE
  8
LAYER_2
 10
-378.25000000
 20
242.62500000
 11
-378.25000000
 21
238.62500000
  0
LINE
  8
LAYER_2
 10
-378.25000000
 20
242.50000000
 11
-375.25000000
 21
242.50000000
  0
LINE
  8
LAYER_2
 10
-375.25000000
 20
242.50000000
 11
-375.25000000
 21
238.62500000
  0
LINE
  8
LAYER_2
 10
-361.50000000
 20
242.75000000
 11
-361.50000000
 21
144.50000000
  0
LINE
  8
LAYER_2
 10
-362.25000000
 20
242.62500000
 11
-362.25000000
 21
238.62500000
  0
LINE
  8
LAYER_2
 10
-362.25000000
 20
242.50000000
 11
-359.25000000
 21
242.50000000
  0
LINE
  8
LAYER_2
 10
-359.25000000
 20
242.50000000
 11
-359.25000000
 21
238.62500000
  0
LINE
  8
LAYER_2
 10
-345.50000000
 20
242.75000000
 11
-345.50000000
 21
144.50000000
  0
LINE
  8
LAYER_2
 10
-344.00000000
 20
242.75000000
 11
-344.00000000
 21
144.50000000
  0
LINE
  8
LAYER_2
 10
-346.25000000
 20
242.62500000
 11
-346.25000000
 21
238.62500000
  0
LINE
  8
LAYER_2
 10
-346.25000000
 20
242.50000000
 11
-343.25000000
 21
242.50000000
  0
LINE
  8
LAYER_2
 10
-343.25000000
 20
242.50000000
 11
-343.25000000
 21
238.62500000
  0
LINE
  8
LAYER_2
 10
-328.00000000
 20
143.75000000
 11
-326.50000000
 21
143.75000000
  0
LINE
  8
LAYER_1
 10
-205.50000000
 20
143.37500000
 11
-205.50000000
 21
131.37500000
  0
LINE
  8
LAYER_1
 10
-199.50000000
 20
137.37500000
 11
-211.50000000
 21
137.37500000
  0
LINE
  8
LAYER_1
 10
-135.25000000
 20
299.75000000
 11
-135.25000000
 21
275.75000000
  0
LINE
  8
LAYER_1
 10
-123.25000000
 20
287.75000000
 11
-147.25000000
 21
287.75000000
  0
CIRCLE
  8
LAYER_1
 10
-135.25000000
 20
287.75000000
 40
6.00000000
  0
LINE
  8
LAYER_2
 10
-267.75000000
 20
-19.50000000
 11
-216.87500000
 21
-19.50000000
  0
LINE
  8
LAYER_2
 10
-261.75000000
 20
-18.06299213
 11
-267.75000000
 21
-19.50000000
  0
LINE
  8
LAYER_2
 10
-261.75000000
 20
-20.93700787
 11
-267.75000000
 21
-19.50000000
  0
LINE
  8
LAYER_2
 10
-267.75000000
 20
302.37500000
 11
-216.87500000
 21
302.37500000
  0
LINE
  8
LAYER_2
 10
-261.75000000
 20
303.81200787
 11
-267.75000000
 21
302.37500000
  0
LINE
  8
LAYER_2
 10
-261.75000000
 20
300.93799213
 11
-267.75000000
 21
302.37500000
  0
LINE
  8
LAYER_14
 10
-381.12500000
 20
145.75000000
 11
-377.12500000
 21
145.75000000
  0
LINE
  8
LAYER_14
 10
-381.12500000
 20
141.75000000
 11
-377.12500000
 21
141.75000000
  0
LINE
  8
LAYER_14
 10
-377.12500000
 20
145.75000000
 11
-377.12500000
 21
141.75000000
  0
LINE
  8
LAYER_14
 10
-381.12500000
 20
145.75000000
 11
-381.12500000
 21
141.75000000
  0
LINE
  8
LAYER_14
 10
-261.25000000
 20
145.50000000
 11
-257.25000000
 21
145.50000000
  0
LINE
  8
LAYER_14
 10
-261.25000000
 20
141.50000000
 11
-257.25000000
 21
141.50000000
  0
LINE
  8
LAYER_14
 10
-257.25000000
 20
145.50000000
 11
-257.25000000
 21
141.50000000
  0
LINE
  8
LAYER_14
 10
-261.25000000
 20
145.50000000
 11
-261.25000000
 21
141.50000000
  0
LINE
  8
LAYER_4
 10
-272.57381890
 20
282.87500000
 11
-273.12500000
 21
280.87500000
  0
LINE
  8
LAYER_4
 10
-273.12500000
 20
280.87500000
 11
-273.00000000
 21
286.25000000
  0
LINE
  8
LAYER_4
 10
-271.70275591
 20
280.21850394
 11
-273.00000000
 21
286.25000000
  0
LINE
  8
LAYER_4
 10
-274.57578740
 20
280.28494094
 11
-273.00000000
 21
286.25000000
  0
LINE
  8
LAYER_4
 10
-399.32381890
 20
143.00000000
 11
-399.37500000
 21
132.75000000
  0
LINE
  8
LAYER_4
 10
-399.37500000
 20
132.75000000
 11
-395.50000000
 21
141.62500000
  0
LINE
  8
LAYER_4
 10
-396.58390748
 20
135.55167323
 11
-395.50000000
 21
141.62500000
  0
LINE
  8
LAYER_4
 10
-399.21776575
 20
136.70127953
 11
-395.50000000
 21
141.62500000
  0
LINE
  8
LAYER_4
 10
-254.32381890
 20
143.00000000
 11
-253.87500000
 21
134.37500000
  0
LINE
  8
LAYER_4
 10
-253.87500000
 20
134.37500000
 11
-258.50000000
 21
141.62500000
  0
LINE
  8
LAYER_4
 10
-254.06176181
 20
137.33932087
 11
-258.50000000
 21
141.62500000
  0
LINE
  8
LAYER_4
 10
-256.48449803
 20
135.79404528
 11
-258.50000000
 21
141.62500000
  0
LINE
  8
LAYER_4
 10
-479.57381890
 20
153.50024606
 11
-479.50000000
 21
146.62500000
  0
LINE
  8
LAYER_4
 10
-479.50000000
 20
146.62500000
 11
-479.50000000
 21
144.62500000
  0
LINE
  8
LAYER_4
 10
-480.93700787
 20
150.62500000
 11
-479.50000000
 21
144.62500000
  0
LINE
  8
LAYER_4
 10
-478.06299213
 20
150.62500000
 11
-479.50000000
 21
144.62500000
  0
LINE
  8
LAYER_4
 10
-160.57381890
 20
173.50000000
 11
-160.62500000
 21
153.50000000
  0
LINE
  8
LAYER_4
 10
-160.62500000
 20
153.50000000
 11
-160.87500000
 21
146.62500000
  0
LINE
  8
LAYER_4
 10
-162.09301181
 20
152.67298228
 11
-160.87500000
 21
146.62500000
  0
LINE
  8
LAYER_4
 10
-159.22096457
 20
152.56865157
 11
-160.87500000
 21
146.62500000
  0
LINE
  8
LAYER_4
 10
-206.82381890
 20
96.62500000
 11
-206.37500000
 21
81.00000000
  0
LINE
  8
LAYER_4
 10
-206.37500000
 20
81.00000000
 11
-206.37500000
 21
75.00000000
  0
LINE
  8
LAYER_4
 10
-207.81200787
 20
81.00000000
 11
-206.37500000
 21
75.00000000
  0
LINE
  8
LAYER_4
 10
-204.93799213
 20
81.00000000
 11
-206.37500000
 21
75.00000000
  0
LINE
  8
LAYER_4
 10
-255.69881890
 20
215.00000000
 11
-256.87500000
 21
212.00000000
  0
LINE
  8
LAYER_4
 10
-256.87500000
 20
212.00000000
 11
-256.87500000
 21
216.37500000
  0
LINE
  8
LAYER_4
 10
-255.43799213
 20
210.37500000
 11
-256.87500000
 21
216.37500000
  0
LINE
  8
LAYER_4
 10
-258.31200787
 20
210.37500000
 11
-256.87500000
 21
216.37500000
  0
LINE
  8
LAYER_4
 10
-345.50000000
 20
251.19881890
 11
-343.12500000
 21
260.00000000
  0
LINE
  8
LAYER_4
 10
-343.12500000
 20
260.00000000
 11
-330.75000000
 21
246.62500000
  0
LINE
  8
LAYER_4
 10
-335.87942913
 20
250.05314961
 11
-330.75000000
 21
246.62500000
  0
LINE
  8
LAYER_4
 10
-333.77017717
 20
252.00492126
 11
-330.75000000
 21
246.62500000
  0
LINE
  8
LAYER_4
 10
-345.50000000
 20
251.19881890
 11
-345.37500000
 21
251.62500000
  0
LINE
  8
LAYER_4
 10
-345.37500000
 20
251.62500000
 11
-356.62500000
 21
240.37500000
  0
LINE
  8
LAYER_4
 10
-353.39837598
 20
245.63361220
 11
-356.62500000
 21
240.37500000
  0
LINE
  8
LAYER_4
 10
-351.36638780
 20
243.60162402
 11
-356.62500000
 21
240.37500000
  0
LINE
  8
LAYER_11
 10
-216.00000000
 20
302.62500000
 11
-200.00000000
 21
302.62500000
  0
LINE
  8
LAYER_11
 10
-201.75000000
 20
300.87500000
 11
-198.25000000
 21
304.37500000
  0
LINE
  8
LAYER_11
 10
-201.50000000
 20
300.87500000
 11
-198.00000000
 21
304.37500000
  0
LINE
  8
LAYER_11
 10
-202.00000000
 20
300.87500000
 11
-198.50000000
 21
304.37500000
  0
LINE
  8
LAYER_11
 10
-214.25000000
 20
304.37500000
 11
-217.75000000
 21
300.87500000
  0
LINE
  8
LAYER_11
 10
-214.50000000
 20
304.37500000
 11
-218.00000000
 21
300.87500000
  0
LINE
  8
LAYER_11
 10
-214.00000000
 20
304.37500000
 11
-217.50000000
 21
300.87500000
  0
TEXT
  1
1' 4"
  7
SPSIMP
  8
LAYER_11
 10
-216.37500000
 20
307.43750000
 40
4.24501086
 50
0.00000000
  0
LINE
  8
LAYER_11
 10
-200.00000000
 20
302.62500000
 11
-184.00000000
 21
302.62500000
  0
LINE
  8
LAYER_11
 10
-185.75000000
 20
300.87500000
 11
-182.25000000
 21
304.37500000
  0
LINE
  8
LAYER_11
 10
-185.50000000
 20
300.87500000
 11
-182.00000000
 21
304.37500000
  0
LINE
  8
LAYER_11
 10
-186.00000000
 20
300.87500000
 11
-182.50000000
 21
304.37500000
  0
LINE
  8
LAYER_11
 10
-198.25000000
 20
304.37500000
 11
-201.75000000
 21
300.87500000
  0
LINE
  8
LAYER_11
 10
-198.50000000
 20
304.37500000
 11
-202.00000000
 21
300.87500000
  0
LINE
  8
LAYER_11
 10
-198.00000000
 20
304.37500000
 11
-201.50000000
 21
300.87500000
  0
TEXT
  1
1' 4"
  7
SPSIMP
  8
LAYER_11
 10
-200.37500000
 20
307.43750000
 40
4.24501086
 50
0.00000000
  0
LINE
  8
LAYER_11
 10
-184.00000000
 20
302.62500000
 11
-168.00000000
 21
302.62500000
  0
LINE
  8
LAYER_11
 10
-169.75000000
 20
300.87500000
 11
-166.25000000
 21
304.37500000
  0
LINE
  8
LAYER_11
 10
-169.50000000
 20
300.87500000
 11
-166.00000000
 21
304.37500000
  0
LINE
  8
LAYER_11
 10
-170.00000000
 20
300.87500000
 11
-166.50000000
 21
304.37500000
  0
LINE
  8
LAYER_11
 10
-182.25000000
 20
304.37500000
 11
-185.75000000
 21
300.87500000
  0
LINE
  8
LAYER_11
 10
-182.50000000
 20
304.37500000
 11
-186.00000000
 21
300.87500000
  0
LINE
  8
LAYER_11
 10
-182.00000000
 20
304.37500000
 11
-185.50000000
 21
300.87500000
  0
TEXT
  1
1' 4"
  7
SPSIMP
  8
LAYER_11
 10
-184.37500000
 20
307.43750000
 40
4.24501086
 50
0.00000000
  0
LINE
  8
LAYER_11
 10
-168.00000000
 20
302.62500000
 11
-152.00000000
 21
302.62500000
  0
LINE
  8
LAYER_11
 10
-153.75000000
 20
300.87500000
 11
-150.25000000
 21
304.37500000
  0
LINE
  8
LAYER_11
 10
-153.50000000
 20
300.87500000
 11
-150.00000000
 21
304.37500000
  0
LINE
  8
LAYER_11
 10
-154.00000000
 20
300.87500000
 11
-150.50000000
 21
304.37500000
  0
LINE
  8
LAYER_11
 10
-166.25000000
 20
304.37500000
 11
-169.75000000
 21
300.87500000
  0
LINE
  8
LAYER_11
 10
-166.50000000
 20
304.37500000
 11
-170.00000000
 21
300.87500000
  0
LINE
  8
LAYER_11
 10
-166.00000000
 20
304.37500000
 11
-169.50000000
 21
300.87500000
  0
TEXT
  1
1' 4"
  7
SPSIMP
  8
LAYER_11
 10
-168.37500000
 20
307.43750000
 40
4.24501086
 50
0.00000000
  0
LINE
  8
LAYER_11
 10
-152.00000000
 20
302.62500000
 11
-135.25000000
 21
302.62500000
  0
LINE
  8
LAYER_11
 10
-137.00000000
 20
300.87500000
 11
-133.50000000
 21
304.37500000
  0
LINE
  8
LAYER_11
 10
-136.75000000
 20
300.87500000
 11
-133.25000000
 21
304.37500000
  0
LINE
  8
LAYER_11
 10
-137.25000000
 20
300.87500000
 11
-133.75000000
 21
304.37500000
  0
LINE
  8
LAYER_11
 10
-150.25000000
 20
304.37500000
 11
-153.75000000
 21
300.87500000
  0
LINE
  8
LAYER_11
 10
-150.50000000
 20
304.37500000
 11
-154.00000000
 21
300.87500000
  0
LINE
  8
LAYER_11
 10
-150.00000000
 20
304.37500000
 11
-153.50000000
 21
300.87500000
  0
TEXT
  1
1' 4 3/4"
  7
SPSIMP
  8
LAYER_11
 10
-160.62500000
 20
307.43725394
 40
4.24501086
 50
0.00000000
  0
LINE
  8
LAYER_11
 10
-214.50000000
 20
-19.37500000
 11
-198.50000000
 21
-19.37500000
  0
LINE
  8
LAYER_11
 10
-200.25000000
 20
-21.12500000
 11
-196.75000000
 21
-17.62500000
  0
LINE
  8
LAYER_11
 10
-200.00000000
 20
-21.12500000
 11
-196.50000000
 21
-17.62500000
  0
LINE
  8
LAYER_11
 10
-200.50000000
 20
-21.12500000
 11
-197.00000000
 21
-17.62500000
  0
LINE
  8
LAYER_11
 10
-212.75000000
 20
-17.62500000
 11
-216.25000000
 21
-21.12500000
  0
LINE
  8
LAYER_11
 10
-213.00000000
 20
-17.62500000
 11
-216.50000000
 21
-21.12500000
  0
LINE
  8
LAYER_11
 10
-212.50000000
 20
-17.62500000
 11
-216.00000000
 21
-21.12500000
  0
TEXT
  1
1' 4"
  7
SPSIMP
  8
LAYER_11
 10
-214.87500000
 20
-14.56250000
 40
4.24501086
 50
0.00000000
  0
LINE
  8
LAYER_11
 10
-198.50000000
 20
-19.37500000
 11
-182.50000000
 21
-19.37500000
  0
LINE
  8
LAYER_11
 10
-184.25000000
 20
-21.12500000
 11
-180.75000000
 21
-17.62500000
  0
LINE
  8
LAYER_11
 10
-184.00000000
 20
-21.12500000
 11
-180.50000000
 21
-17.62500000
  0
LINE
  8
LAYER_11
 10
-184.50000000
 20
-21.12500000
 11
-181.00000000
 21
-17.62500000
  0
LINE
  8
LAYER_11
 10
-196.75000000
 20
-17.62500000
 11
-200.25000000
 21
-21.12500000
  0
LINE
  8
LAYER_11
 10
-197.00000000
 20
-17.62500000
 11
-200.50000000
 21
-21.12500000
  0
LINE
  8
LAYER_11
 10
-196.50000000
 20
-17.62500000
 11
-200.00000000
 21
-21.12500000
  0
TEXT
  1
1' 4"
  7
SPSIMP
  8
LAYER_11
 10
-198.87500000
 20
-14.56250000
 40
4.24501086
 50
0.00000000
  0
LINE
  8
LAYER_11
 10
-182.50000000
 20
-19.37500000
 11
-166.50000000
 21
-19.37500000
  0
LINE
  8
LAYER_11
 10
-168.25000000
 20
-21.12500000
 11
-164.75000000
 21
-17.62500000
  0
LINE
  8
LAYER_11
 10
-168.00000000
 20
-21.12500000
 11
-164.50000000
 21
-17.62500000
  0
LINE
  8
LAYER_11
 10
-168.50000000
 20
-21.12500000
 11
-165.00000000
 21
-17.62500000
  0
LINE
  8
LAYER_11
 10
-180.75000000
 20
-17.62500000
 11
-184.25000000
 21
-21.12500000
  0
LINE
  8
LAYER_11
 10
-181.00000000
 20
-17.62500000
 11
-184.50000000
 21
-21.12500000
  0
LINE
  8
LAYER_11
 10
-180.50000000
 20
-17.62500000
 11
-184.00000000
 21
-21.12500000
  0
TEXT
  1
1' 4"
  7
SPSIMP
  8
LAYER_11
 10
-182.87500000
 20
-14.56250000
 40
4.24501086
 50
0.00000000
  0
LINE
  8
LAYER_11
 10
-166.50000000
 20
-19.37500000
 11
-150.50000000
 21
-19.37500000
  0
LINE
  8
LAYER_11
 10
-152.25000000
 20
-21.12500000
 11
-148.75000000
 21
-17.62500000
  0
LINE
  8
LAYER_11
 10
-152.00000000
 20
-21.12500000
 11
-148.50000000
 21
-17.62500000
  0
LINE
  8
LAYER_11
 10
-152.50000000
 20
-21.12500000
 11
-149.00000000
 21
-17.62500000
  0
LINE
  8
LAYER_11
 10
-164.75000000
 20
-17.62500000
 11
-168.25000000
 21
-21.12500000
  0
LINE
  8
LAYER_11
 10
-165.00000000
 20
-17.62500000
 11
-168.50000000
 21
-21.12500000
  0
LINE
  8
LAYER_11
 10
-164.50000000
 20
-17.62500000
 11
-168.00000000
 21
-21.12500000
  0
TEXT
  1
1' 4"
  7
SPSIMP
  8
LAYER_11
 10
-166.87500000
 20
-14.56250000
 40
4.24501086
 50
0.00000000
  0
LINE
  8
LAYER_11
 10
-150.50000000
 20
-19.37500000
 11
-135.25000000
 21
-19.37500000
  0
LINE
  8
LAYER_11
 10
-137.00000000
 20
-21.12500000
 11
-133.50000000
 21
-17.62500000
  0
LINE
  8
LAYER_11
 10
-136.75000000
 20
-21.12500000
 11
-133.25000000
 21
-17.62500000
  0
LINE
  8
LAYER_11
 10
-137.25000000
 20
-21.12500000
 11
-133.75000000
 21
-17.62500000
  0
LINE
  8
LAYER_11
 10
-148.75000000
 20
-17.62500000
 11
-152.25000000
 21
-21.12500000
  0
LINE
  8
LAYER_11
 10
-149.00000000
 20
-17.62500000
 11
-152.50000000
 21
-21.12500000
  0
LINE
  8
LAYER_11
 10
-148.50000000
 20
-17.62500000
 11
-152.00000000
 21
-21.12500000
  0
TEXT
  1
1' 3 1/4"
  7
SPSIMP
  8
LAYER_11
 10
-159.43750000
 20
-14.56274606
 40
4.24501086
 50
0.00000000
  0
ENDSEC
  0
EOF
