  0
SECTION
  2
HEADER
  9
$LIMMIN
 10
0.00000000
 20
0.00000000
  9
$LIMMAX
 10
1920.00000000
 20
1284.00000000
  9
$EXTMIN
 10
0.00000000
 20
0.00000000
  9
$EXTMAX
 10
1920.00000000
 20
1284.00000000
  9
$LUNITS
 70
4
  0
ENDSEC
  0
SECTION
  2
TABLES
  0
TABLE
  2
LTYPE
 70
5
  0
LTYPE
  2
LARGE
 70
64
  3
___   ___
 72
65
 73
2
 40
20.00000000
 49
10.00000000
 49
-10.00000000
  0
LTYPE
  2
MEDIUM
 70
64
  3
__  __
 72
65
 73
2
 40
10.00000000
 49
5.00000000
 49
-5.00000000
  0
LTYPE
  2
SMALL
 70
64
  3
_ _
 72
65
 73
2
 40
5.00000000
 49
2.00000000
 49
-3.00000000
  0
LTYPE
  2
DASHDOT
 70
64
  3
___ . ___
 72
65
 73
4
 40
21.00000000
 49
15.00000000
 49
-3.00000000
 49
0.00000000
 49
-3.00000000
  0
LTYPE
  2
LONG
 70
64
  3
____ ____
 72
65
 73
2
 40
18.00000000
 49
14.00000000
 49
-4.00000000
  0
ENDTAB
  0
TABLE
  2
LAYER
 70
15
  0
LAYER
  2
LAYER_1
 70
0
 62
1
  6
CONTINUOUS
  0
LAYER
  2
LAYER_2
 70
0
 62
2
  6
CONTINUOUS
  0
LAYER
  2
LAYER_3
 70
0
 62
3
  6
CONTINUOUS
  0
LAYER
  2
LAYER_4
 70
0
 62
4
  6
CONTINUOUS
  0
LAYER
  2
LAYER_5
 70
0
 62
5
  6
CONTINUOUS
  0
LAYER
  2
LAYER_6
 70
0
 62
6
  6
CONTINUOUS
  0
LAYER
  2
LAYER_7
 70
0
 62
7
  6
CONTINUOUS
  0
LAYER
  2
LAYER_8
 70
0
 62
8
  6
CONTINUOUS
  0
LAYER
  2
LAYER_9
 70
0
 62
9
  6
CONTINUOUS
  0
LAYER
  2
LAYER_10
 70
0
 62
10
  6
CONTINUOUS
  0
LAYER
  2
LAYER_11
 70
0
 62
11
  6
CONTINUOUS
  0
LAYER
  2
LAYER_12
 70
0
 62
12
  6
CONTINUOUS
  0
LAYER
  2
LAYER_13
 70
0
 62
13
  6
CONTINUOUS
  0
LAYER
  2
LAYER_14
 70
0
 62
14
  6
CONTINUOUS
  0
LAYER
  2
LAYER_15
 70
0
 62
15
  6
CONTINUOUS
  0
ENDTAB
  0
ENDSEC
  0
SECTION
  2
ENTITIES
  0
TEXT
  1
LOFT FLOOR SHEATHING PLAN
  7
SPHAND
  8
LAYER_4
 10
-53.50000000
 20
314.37500000
 40
8.06549235
 50
0.00000000
  0
TEXT
  1
STAIR 
  7
SPHAND
  8
LAYER_12
 10
50.50000000
 20
603.68750000
 40
3.82048149
 50
0.00000000
  0
TEXT
  1
OPENING
  7
SPHAND
  8
LAYER_12
 10
50.50000000
 20
596.68750000
 40
3.82048149
 50
0.00000000
  0
TEXT
  1
START CORNER
  7
SPHAND
  8
LAYER_12
 10
300.12500000
 20
310.68750000
 40
3.82048149
 50
0.00000000
  0
TEXT
  1
ALL SHEETS 8' x 4' 
  7
SPHAND
  8
LAYER_4
 10
-52.87500000
 20
300.93750000
 40
6.36751629
 50
0.00000000
  0
TEXT
  1
CUT END TO SUIT AT SITE
  7
SPHAND
  8
LAYER_12
 10
194.87500000
 20
588.93750000
 40
3.82048149
 50
0.00000000
  0
LINE
  8
LAYER_2
 10
-57.62500000
 20
615.37500000
 11
326.37500000
 21
615.37500000
  0
LINE
  8
LAYER_2
 10
-57.37500000
 20
327.37500000
 11
326.37500000
 21
327.37500000
  0
LINE
  8
LAYER_2
 10
-57.37500000
 20
615.12500000
 11
-57.62500000
 21
327.12500000
  0
LINE
  8
LAYER_2
 10
326.62500000
 20
615.12500000
 11
326.62500000
 21
327.12500000
  0
LINE
  8
LAYER_2
 10
30.62500000
 20
573.12500000
 11
134.12500000
 21
573.12500000
  0
LINE
  8
LAYER_2
 10
30.62500000
 20
612.12500000
 11
134.12500000
 21
612.12500000
  0
LINE
  8
LAYER_2
 10
-57.37500000
 20
374.87500000
 11
326.37500000
 21
374.87500000
  0
LINE
  8
LAYER_2
 10
-57.37500000
 20
422.62500000
 11
326.37500000
 21
422.62500000
  0
LINE
  8
LAYER_2
 10
-57.37500000
 20
470.37500000
 11
326.37500000
 21
470.37500000
  0
LINE
  8
LAYER_2
 10
-57.37500000
 20
518.12500000
 11
326.37500000
 21
518.12500000
  0
LINE
  8
LAYER_2
 10
-57.37500000
 20
565.87500000
 11
326.37500000
 21
565.87500000
  0
LINE
  8
LAYER_2
 10
-57.37500000
 20
613.62500000
 11
326.37500000
 21
613.62500000
  0
LINE
  8
LAYER_2
 10
230.62500000
 20
374.87500000
 11
230.62500000
 21
327.12500000
  0
LINE
  8
LAYER_2
 10
134.62500000
 20
374.87500000
 11
134.62500000
 21
327.12500000
  0
LINE
  8
LAYER_2
 10
38.62500000
 20
374.87500000
 11
38.62500000
 21
327.12500000
  0
LINE
  8
LAYER_2
 10
-57.62500000
 20
374.87500000
 11
-57.62500000
 21
327.12500000
  0
LINE
  8
LAYER_2
 10
230.37500000
 20
470.37500000
 11
230.37500000
 21
422.62500000
  0
LINE
  8
LAYER_2
 10
134.37500000
 20
470.37500000
 11
134.37500000
 21
422.62500000
  0
LINE
  8
LAYER_2
 10
38.37500000
 20
470.37500000
 11
38.37500000
 21
422.62500000
  0
LINE
  8
LAYER_2
 10
230.62500000
 20
565.87500000
 11
230.62500000
 21
518.12500000
  0
LINE
  8
LAYER_2
 10
134.62500000
 20
565.87500000
 11
134.62500000
 21
518.12500000
  0
LINE
  8
LAYER_2
 10
38.62500000
 20
565.87500000
 11
38.62500000
 21
518.12500000
  0
LINE
  8
LAYER_2
 10
228.87500000
 20
615.12500000
 11
228.87500000
 21
613.62500000
  0
LINE
  8
LAYER_2
 10
132.87500000
 20
615.12500000
 11
132.87500000
 21
613.62500000
  0
LINE
  8
LAYER_2
 10
36.87500000
 20
615.12500000
 11
36.87500000
 21
613.62500000
  0
LINE
  8
LAYER_2
 10
278.62500000
 20
422.62500000
 11
278.62500000
 21
374.87500000
  0
LINE
  8
LAYER_2
 10
182.62500000
 20
422.62500000
 11
182.62500000
 21
374.87500000
  0
LINE
  8
LAYER_2
 10
86.62500000
 20
422.62500000
 11
86.62500000
 21
374.87500000
  0
LINE
  8
LAYER_2
 10
-9.37500000
 20
422.62500000
 11
-9.37500000
 21
374.87500000
  0
LINE
  8
LAYER_2
 10
278.62500000
 20
518.12500000
 11
278.62500000
 21
470.37500000
  0
LINE
  8
LAYER_2
 10
182.62500000
 20
518.12500000
 11
182.62500000
 21
470.37500000
  0
LINE
  8
LAYER_2
 10
86.62500000
 20
518.12500000
 11
86.62500000
 21
470.37500000
  0
LINE
  8
LAYER_2
 10
-9.37500000
 20
518.12500000
 11
-9.37500000
 21
470.37500000
  0
LINE
  8
LAYER_2
 10
276.87500000
 20
613.62500000
 11
276.87500000
 21
565.87500000
  0
LINE
  8
LAYER_2
 10
180.87500000
 20
613.62500000
 11
180.87500000
 21
565.87500000
  0
LINE
  8
LAYER_2
 10
84.87500000
 20
613.62500000
 11
84.87500000
 21
612.12500000
  0
LINE
  8
LAYER_2
 10
-11.12500000
 20
613.62500000
 11
-11.12500000
 21
565.87500000
  0
LINE
  8
LAYER_2
 10
134.12500000
 20
612.12500000
 11
134.12500000
 21
573.12500000
  0
LINE
  8
LAYER_2
 10
30.62500000
 20
612.12500000
 11
30.62500000
 21
573.12500000
  0
LINE
  8
LAYER_2
 10
84.87500000
 20
573.12500000
 11
84.87500000
 21
565.87500000
  0
LINE
  8
LAYER_1
 10
326.37500000
 20
627.12500000
 11
326.37500000
 21
603.12500000
  0
LINE
  8
LAYER_1
 10
338.37500000
 20
615.12500000
 11
314.37500000
 21
615.12500000
  0
CIRCLE
  8
LAYER_1
 10
326.37500000
 20
615.12500000
 40
6.00000000
  0
LINE
  8
LAYER_2
 10
336.00000000
 20
358.62500000
 11
336.00000000
 21
319.37500000
  0
LINE
  8
LAYER_2
 10
337.07775591
 20
354.12500000
 11
336.00000000
 21
358.62500000
  0
LINE
  8
LAYER_2
 10
334.92224409
 20
354.12500000
 11
336.00000000
 21
358.62500000
  0
LINE
  8
LAYER_2
 10
301.00000000
 20
318.87500000
 11
336.12500000
 21
318.87500000
  0
LINE
  8
LAYER_2
 10
305.50000000
 20
319.95275591
 11
301.00000000
 21
318.87500000
  0
LINE
  8
LAYER_2
 10
305.50000000
 20
317.79724409
 11
301.00000000
 21
318.87500000
  0
LINE
  8
LAYER_4
 10
267.12500000
 20
589.94881890
 11
272.75000000
 21
591.37500000
  0
LINE
  8
LAYER_4
 10
272.75000000
 20
591.37500000
 11
259.12500000
 21
613.50000000
  0
LINE
  8
LAYER_4
 10
262.40206693
 20
610.23326772
 11
259.12500000
 21
613.50000000
  0
LINE
  8
LAYER_4
 10
260.56692913
 20
609.10334646
 11
259.12500000
 21
613.50000000
  0
LINE
  8
LAYER_4
 10
267.12500000
 20
589.94881890
 11
272.62500000
 21
591.12500000
  0
LINE
  8
LAYER_4
 10
272.62500000
 20
591.12500000
 11
324.25000000
 21
556.12500000
  0
LINE
  8
LAYER_4
 10
319.92076772
 20
557.75812008
 11
324.25000000
 21
556.12500000
  0
LINE
  8
LAYER_4
 10
321.12992126
 20
559.54207677
 11
324.25000000
 21
556.12500000
  0
LINE
  8
LAYER_11
 10
-57.37500000
 20
534.12500000
 11
38.62500000
 21
534.12500000
  0
LINE
  8
LAYER_11
 10
36.87500000
 20
532.37500000
 11
40.37500000
 21
535.87500000
  0
LINE
  8
LAYER_11
 10
37.12500000
 20
532.37500000
 11
40.62500000
 21
535.87500000
  0
LINE
  8
LAYER_11
 10
36.62500000
 20
532.37500000
 11
40.12500000
 21
535.87500000
  0
LINE
  8
LAYER_11
 10
-55.62500000
 20
535.87500000
 11
-59.12500000
 21
532.37500000
  0
LINE
  8
LAYER_11
 10
-55.87500000
 20
535.87500000
 11
-59.37500000
 21
532.37500000
  0
LINE
  8
LAYER_11
 10
-55.37500000
 20
535.87500000
 11
-58.87500000
 21
532.37500000
  0
TEXT
  1
8' 0"
  7
SPSIMP
  8
LAYER_11
 10
-18.18750000
 20
539.05684055
 40
4.24501086
 50
0.00000000
  0
LINE
  8
LAYER_11
 10
38.62500000
 20
534.12500000
 11
134.62500000
 21
534.12500000
  0
LINE
  8
LAYER_11
 10
132.87500000
 20
532.37500000
 11
136.37500000
 21
535.87500000
  0
LINE
  8
LAYER_11
 10
133.12500000
 20
532.37500000
 11
136.62500000
 21
535.87500000
  0
LINE
  8
LAYER_11
 10
132.62500000
 20
532.37500000
 11
136.12500000
 21
535.87500000
  0
LINE
  8
LAYER_11
 10
40.37500000
 20
535.87500000
 11
36.87500000
 21
532.37500000
  0
LINE
  8
LAYER_11
 10
40.12500000
 20
535.87500000
 11
36.62500000
 21
532.37500000
  0
LINE
  8
LAYER_11
 10
40.62500000
 20
535.87500000
 11
37.12500000
 21
532.37500000
  0
TEXT
  1
8' 0"
  7
SPSIMP
  8
LAYER_11
 10
77.81250000
 20
539.05684055
 40
4.24501086
 50
0.00000000
  0
LINE
  8
LAYER_11
 10
134.62500000
 20
534.12500000
 11
230.62500000
 21
534.12500000
  0
LINE
  8
LAYER_11
 10
228.87500000
 20
532.37500000
 11
232.37500000
 21
535.87500000
  0
LINE
  8
LAYER_11
 10
229.12500000
 20
532.37500000
 11
232.62500000
 21
535.87500000
  0
LINE
  8
LAYER_11
 10
228.62500000
 20
532.37500000
 11
232.12500000
 21
535.87500000
  0
LINE
  8
LAYER_11
 10
136.37500000
 20
535.87500000
 11
132.87500000
 21
532.37500000
  0
LINE
  8
LAYER_11
 10
136.12500000
 20
535.87500000
 11
132.62500000
 21
532.37500000
  0
LINE
  8
LAYER_11
 10
136.62500000
 20
535.87500000
 11
133.12500000
 21
532.37500000
  0
TEXT
  1
8' 0"
  7
SPSIMP
  8
LAYER_11
 10
173.81250000
 20
539.05684055
 40
4.24501086
 50
0.00000000
  0
LINE
  8
LAYER_11
 10
-57.37500000
 20
480.87500000
 11
-9.37500000
 21
480.87500000
  0
LINE
  8
LAYER_11
 10
-11.12500000
 20
479.12500000
 11
-7.62500000
 21
482.62500000
  0
LINE
  8
LAYER_11
 10
-10.87500000
 20
479.12500000
 11
-7.37500000
 21
482.62500000
  0
LINE
  8
LAYER_11
 10
-11.37500000
 20
479.12500000
 11
-7.87500000
 21
482.62500000
  0
LINE
  8
LAYER_11
 10
-55.62500000
 20
482.62500000
 11
-59.12500000
 21
479.12500000
  0
LINE
  8
LAYER_11
 10
-55.87500000
 20
482.62500000
 11
-59.37500000
 21
479.12500000
  0
LINE
  8
LAYER_11
 10
-55.37500000
 20
482.62500000
 11
-58.87500000
 21
479.12500000
  0
TEXT
  1
4' 0"
  7
SPSIMP
  8
LAYER_11
 10
-42.18750000
 20
485.80684055
 40
4.24501086
 50
0.00000000
  0
LINE
  8
LAYER_11
 10
-9.37500000
 20
480.87500000
 11
86.62500000
 21
480.87500000
  0
LINE
  8
LAYER_11
 10
84.87500000
 20
479.12500000
 11
88.37500000
 21
482.62500000
  0
LINE
  8
LAYER_11
 10
85.12500000
 20
479.12500000
 11
88.62500000
 21
482.62500000
  0
LINE
  8
LAYER_11
 10
84.62500000
 20
479.12500000
 11
88.12500000
 21
482.62500000
  0
LINE
  8
LAYER_11
 10
-7.62500000
 20
482.62500000
 11
-11.12500000
 21
479.12500000
  0
LINE
  8
LAYER_11
 10
-7.87500000
 20
482.62500000
 11
-11.37500000
 21
479.12500000
  0
LINE
  8
LAYER_11
 10
-7.37500000
 20
482.62500000
 11
-10.87500000
 21
479.12500000
  0
TEXT
  1
8' 0"
  7
SPSIMP
  8
LAYER_11
 10
29.81250000
 20
485.80684055
 40
4.24501086
 50
0.00000000
  0
LINE
  8
LAYER_11
 10
86.62500000
 20
480.87500000
 11
182.62500000
 21
480.87500000
  0
LINE
  8
LAYER_11
 10
180.87500000
 20
479.12500000
 11
184.37500000
 21
482.62500000
  0
LINE
  8
LAYER_11
 10
181.12500000
 20
479.12500000
 11
184.62500000
 21
482.62500000
  0
LINE
  8
LAYER_11
 10
180.62500000
 20
479.12500000
 11
184.12500000
 21
482.62500000
  0
LINE
  8
LAYER_11
 10
88.37500000
 20
482.62500000
 11
84.87500000
 21
479.12500000
  0
LINE
  8
LAYER_11
 10
88.12500000
 20
482.62500000
 11
84.62500000
 21
479.12500000
  0
LINE
  8
LAYER_11
 10
88.62500000
 20
482.62500000
 11
85.12500000
 21
479.12500000
  0
TEXT
  1
8' 0"
  7
SPSIMP
  8
LAYER_11
 10
125.81250000
 20
485.80684055
 40
4.24501086
 50
0.00000000
  0
LINE
  8
LAYER_11
 10
182.62500000
 20
480.87500000
 11
278.62500000
 21
480.87500000
  0
LINE
  8
LAYER_11
 10
276.87500000
 20
479.12500000
 11
280.37500000
 21
482.62500000
  0
LINE
  8
LAYER_11
 10
277.12500000
 20
479.12500000
 11
280.62500000
 21
482.62500000
  0
LINE
  8
LAYER_11
 10
276.62500000
 20
479.12500000
 11
280.12500000
 21
482.62500000
  0
LINE
  8
LAYER_11
 10
184.37500000
 20
482.62500000
 11
180.87500000
 21
479.12500000
  0
LINE
  8
LAYER_11
 10
184.12500000
 20
482.62500000
 11
180.62500000
 21
479.12500000
  0
LINE
  8
LAYER_11
 10
184.62500000
 20
482.62500000
 11
181.12500000
 21
479.12500000
  0
TEXT
  1
8' 0"
  7
SPSIMP
  8
LAYER_11
 10
221.81250000
 20
485.80684055
 40
4.24501086
 50
0.00000000
  0
LINE
  8
LAYER_11
 10
278.62500000
 20
480.87500000
 11
326.62500000
 21
480.87500000
  0
LINE
  8
LAYER_11
 10
324.87500000
 20
479.12500000
 11
328.37500000
 21
482.62500000
  0
LINE
  8
LAYER_11
 10
325.12500000
 20
479.12500000
 11
328.62500000
 21
482.62500000
  0
LINE
  8
LAYER_11
 10
324.62500000
 20
479.12500000
 11
328.12500000
 21
482.62500000
  0
LINE
  8
LAYER_11
 10
280.37500000
 20
482.62500000
 11
276.87500000
 21
479.12500000
  0
LINE
  8
LAYER_11
 10
280.12500000
 20
482.62500000
 11
276.62500000
 21
479.12500000
  0
LINE
  8
LAYER_11
 10
280.62500000
 20
482.62500000
 11
277.12500000
 21
479.12500000
  0
TEXT
  1
4' 0"
  7
SPSIMP
  8
LAYER_11
 10
293.81250000
 20
485.80684055
 40
4.24501086
 50
0.00000000
  0
LINE
  8
LAYER_11
 10
-57.37500000
 20
386.25000000
 11
-9.37500000
 21
386.25000000
  0
LINE
  8
LAYER_11
 10
-11.12500000
 20
384.50000000
 11
-7.62500000
 21
388.00000000
  0
LINE
  8
LAYER_11
 10
-10.87500000
 20
384.50000000
 11
-7.37500000
 21
388.00000000
  0
LINE
  8
LAYER_11
 10
-11.37500000
 20
384.50000000
 11
-7.87500000
 21
388.00000000
  0
LINE
  8
LAYER_11
 10
-55.62500000
 20
388.00000000
 11
-59.12500000
 21
384.50000000
  0
LINE
  8
LAYER_11
 10
-55.87500000
 20
388.00000000
 11
-59.37500000
 21
384.50000000
  0
LINE
  8
LAYER_11
 10
-55.37500000
 20
388.00000000
 11
-58.87500000
 21
384.50000000
  0
TEXT
  1
4' 0"
  7
SPSIMP
  8
LAYER_11
 10
-42.18750000
 20
391.18184055
 40
4.24501086
 50
0.00000000
  0
LINE
  8
LAYER_11
 10
-9.37500000
 20
386.25000000
 11
86.62500000
 21
386.25000000
  0
LINE
  8
LAYER_11
 10
84.87500000
 20
384.50000000
 11
88.37500000
 21
388.00000000
  0
LINE
  8
LAYER_11
 10
85.12500000
 20
384.50000000
 11
88.62500000
 21
388.00000000
  0
LINE
  8
LAYER_11
 10
84.62500000
 20
384.50000000
 11
88.12500000
 21
388.00000000
  0
LINE
  8
LAYER_11
 10
-7.62500000
 20
388.00000000
 11
-11.12500000
 21
384.50000000
  0
LINE
  8
LAYER_11
 10
-7.87500000
 20
388.00000000
 11
-11.37500000
 21
384.50000000
  0
LINE
  8
LAYER_11
 10
-7.37500000
 20
388.00000000
 11
-10.87500000
 21
384.50000000
  0
TEXT
  1
8' 0"
  7
SPSIMP
  8
LAYER_11
 10
29.81250000
 20
391.18184055
 40
4.24501086
 50
0.00000000
  0
LINE
  8
LAYER_11
 10
86.62500000
 20
386.25000000
 11
182.62500000
 21
386.25000000
  0
LINE
  8
LAYER_11
 10
180.87500000
 20
384.50000000
 11
184.37500000
 21
388.00000000
  0
LINE
  8
LAYER_11
 10
181.12500000
 20
384.50000000
 11
184.62500000
 21
388.00000000
  0
LINE
  8
LAYER_11
 10
180.62500000
 20
384.50000000
 11
184.12500000
 21
388.00000000
  0
LINE
  8
LAYER_11
 10
88.37500000
 20
388.00000000
 11
84.87500000
 21
384.50000000
  0
LINE
  8
LAYER_11
 10
88.12500000
 20
388.00000000
 11
84.62500000
 21
384.50000000
  0
LINE
  8
LAYER_11
 10
88.62500000
 20
388.00000000
 11
85.12500000
 21
384.50000000
  0
TEXT
  1
8' 0"
  7
SPSIMP
  8
LAYER_11
 10
125.81250000
 20
391.18184055
 40
4.24501086
 50
0.00000000
  0
LINE
  8
LAYER_11
 10
182.62500000
 20
386.25000000
 11
278.62500000
 21
386.25000000
  0
LINE
  8
LAYER_11
 10
276.87500000
 20
384.50000000
 11
280.37500000
 21
388.00000000
  0
LINE
  8
LAYER_11
 10
277.12500000
 20
384.50000000
 11
280.62500000
 21
388.00000000
  0
LINE
  8
LAYER_11
 10
276.62500000
 20
384.50000000
 11
280.12500000
 21
388.00000000
  0
LINE
  8
LAYER_11
 10
184.37500000
 20
388.00000000
 11
180.87500000
 21
384.50000000
  0
LINE
  8
LAYER_11
 10
184.12500000
 20
388.00000000
 11
180.62500000
 21
384.50000000
  0
LINE
  8
LAYER_11
 10
184.62500000
 20
388.00000000
 11
181.12500000
 21
384.50000000
  0
TEXT
  1
8' 0"
  7
SPSIMP
  8
LAYER_11
 10
221.81250000
 20
391.18184055
 40
4.24501086
 50
0.00000000
  0
LINE
  8
LAYER_11
 10
278.62500000
 20
386.25000000
 11
326.62500000
 21
386.25000000
  0
LINE
  8
LAYER_11
 10
324.87500000
 20
384.50000000
 11
328.37500000
 21
388.00000000
  0
LINE
  8
LAYER_11
 10
325.12500000
 20
384.50000000
 11
328.62500000
 21
388.00000000
  0
LINE
  8
LAYER_11
 10
324.62500000
 20
384.50000000
 11
328.12500000
 21
388.00000000
  0
LINE
  8
LAYER_11
 10
280.37500000
 20
388.00000000
 11
276.87500000
 21
384.50000000
  0
LINE
  8
LAYER_11
 10
280.12500000
 20
388.00000000
 11
276.62500000
 21
384.50000000
  0
LINE
  8
LAYER_11
 10
280.62500000
 20
388.00000000
 11
277.12500000
 21
384.50000000
  0
TEXT
  1
4' 0"
  7
SPSIMP
  8
LAYER_11
 10
293.81250000
 20
391.18184055
 40
4.24501086
 50
0.00000000
  0
LINE
  8
LAYER_11
 10
-57.37500000
 20
341.12500000
 11
38.62500000
 21
341.12500000
  0
LINE
  8
LAYER_11
 10
36.87500000
 20
339.37500000
 11
40.37500000
 21
342.87500000
  0
LINE
  8
LAYER_11
 10
37.12500000
 20
339.37500000
 11
40.62500000
 21
342.87500000
  0
LINE
  8
LAYER_11
 10
36.62500000
 20
339.37500000
 11
40.12500000
 21
342.87500000
  0
LINE
  8
LAYER_11
 10
-55.62500000
 20
342.87500000
 11
-59.12500000
 21
339.37500000
  0
LINE
  8
LAYER_11
 10
-55.87500000
 20
342.87500000
 11
-59.37500000
 21
339.37500000
  0
LINE
  8
LAYER_11
 10
-55.37500000
 20
342.87500000
 11
-58.87500000
 21
339.37500000
  0
TEXT
  1
8' 0"
  7
SPSIMP
  8
LAYER_11
 10
-18.18750000
 20
346.05684055
 40
4.24501086
 50
0.00000000
  0
LINE
  8
LAYER_11
 10
38.62500000
 20
341.12500000
 11
134.62500000
 21
341.12500000
  0
LINE
  8
LAYER_11
 10
132.87500000
 20
339.37500000
 11
136.37500000
 21
342.87500000
  0
LINE
  8
LAYER_11
 10
133.12500000
 20
339.37500000
 11
136.62500000
 21
342.87500000
  0
LINE
  8
LAYER_11
 10
132.62500000
 20
339.37500000
 11
136.12500000
 21
342.87500000
  0
LINE
  8
LAYER_11
 10
40.37500000
 20
342.87500000
 11
36.87500000
 21
339.37500000
  0
LINE
  8
LAYER_11
 10
40.12500000
 20
342.87500000
 11
36.62500000
 21
339.37500000
  0
LINE
  8
LAYER_11
 10
40.62500000
 20
342.87500000
 11
37.12500000
 21
339.37500000
  0
TEXT
  1
8' 0"
  7
SPSIMP
  8
LAYER_11
 10
77.81250000
 20
346.05684055
 40
4.24501086
 50
0.00000000
  0
LINE
  8
LAYER_11
 10
134.62500000
 20
341.12500000
 11
230.62500000
 21
341.12500000
  0
LINE
  8
LAYER_11
 10
228.87500000
 20
339.37500000
 11
232.37500000
 21
342.87500000
  0
LINE
  8
LAYER_11
 10
229.12500000
 20
339.37500000
 11
232.62500000
 21
342.87500000
  0
LINE
  8
LAYER_11
 10
228.62500000
 20
339.37500000
 11
232.12500000
 21
342.87500000
  0
LINE
  8
LAYER_11
 10
136.37500000
 20
342.87500000
 11
132.87500000
 21
339.37500000
  0
LINE
  8
LAYER_11
 10
136.12500000
 20
342.87500000
 11
132.62500000
 21
339.37500000
  0
LINE
  8
LAYER_11
 10
136.62500000
 20
342.87500000
 11
133.12500000
 21
339.37500000
  0
TEXT
  1
8' 0"
  7
SPSIMP
  8
LAYER_11
 10
173.81250000
 20
346.05684055
 40
4.24501086
 50
0.00000000
  0
LINE
  8
LAYER_11
 10
230.62500000
 20
341.12500000
 11
326.62500000
 21
341.12500000
  0
LINE
  8
LAYER_11
 10
324.87500000
 20
339.37500000
 11
328.37500000
 21
342.87500000
  0
LINE
  8
LAYER_11
 10
325.12500000
 20
339.37500000
 11
328.62500000
 21
342.87500000
  0
LINE
  8
LAYER_11
 10
324.62500000
 20
339.37500000
 11
328.12500000
 21
342.87500000
  0
LINE
  8
LAYER_11
 10
232.37500000
 20
342.87500000
 11
228.87500000
 21
339.37500000
  0
LINE
  8
LAYER_11
 10
232.12500000
 20
342.87500000
 11
228.62500000
 21
339.37500000
  0
LINE
  8
LAYER_11
 10
232.62500000
 20
342.87500000
 11
229.12500000
 21
339.37500000
  0
TEXT
  1
8' 0"
  7
SPSIMP
  8
LAYER_11
 10
269.81250000
 20
346.05684055
 40
4.24501086
 50
0.00000000
  0
LINE
  8
LAYER_11
 10
230.62500000
 20
534.12500000
 11
326.62500000
 21
534.12500000
  0
LINE
  8
LAYER_11
 10
324.87500000
 20
532.37500000
 11
328.37500000
 21
535.87500000
  0
LINE
  8
LAYER_11
 10
325.12500000
 20
532.37500000
 11
328.62500000
 21
535.87500000
  0
LINE
  8
LAYER_11
 10
324.62500000
 20
532.37500000
 11
328.12500000
 21
535.87500000
  0
LINE
  8
LAYER_11
 10
232.37500000
 20
535.87500000
 11
228.87500000
 21
532.37500000
  0
LINE
  8
LAYER_11
 10
232.12500000
 20
535.87500000
 11
228.62500000
 21
532.37500000
  0
LINE
  8
LAYER_11
 10
232.62500000
 20
535.87500000
 11
229.12500000
 21
532.37500000
  0
TEXT
  1
8' 0"
  7
SPSIMP
  8
LAYER_11
 10
269.81250000
 20
539.05684055
 40
4.24501086
 50
0.00000000
  0
ENDSEC
  0
EOF
