  0
SECTION
  2
HEADER
  9
$LIMMIN
 10
0.00000000
 20
0.00000000
  9
$LIMMAX
 10
1920.00000000
 20
1284.00000000
  9
$EXTMIN
 10
0.00000000
 20
0.00000000
  9
$EXTMAX
 10
1920.00000000
 20
1284.00000000
  9
$LUNITS
 70
4
  0
ENDSEC
  0
SECTION
  2
TABLES
  0
TABLE
  2
LTYPE
 70
5
  0
LTYPE
  2
LARGE
 70
64
  3
___   ___
 72
65
 73
2
 40
20.00000000
 49
10.00000000
 49
-10.00000000
  0
LTYPE
  2
MEDIUM
 70
64
  3
__  __
 72
65
 73
2
 40
10.00000000
 49
5.00000000
 49
-5.00000000
  0
LTYPE
  2
SMALL
 70
64
  3
_ _
 72
65
 73
2
 40
5.00000000
 49
2.00000000
 49
-3.00000000
  0
LTYPE
  2
DASHDOT
 70
64
  3
___ . ___
 72
65
 73
4
 40
21.00000000
 49
15.00000000
 49
-3.00000000
 49
0.00000000
 49
-3.00000000
  0
LTYPE
  2
LONG
 70
64
  3
____ ____
 72
65
 73
2
 40
18.00000000
 49
14.00000000
 49
-4.00000000
  0
ENDTAB
  0
TABLE
  2
LAYER
 70
15
  0
LAYER
  2
LAYER_1
 70
0
 62
1
  6
CONTINUOUS
  0
LAYER
  2
LAYER_2
 70
0
 62
2
  6
CONTINUOUS
  0
LAYER
  2
LAYER_3
 70
0
 62
3
  6
CONTINUOUS
  0
LAYER
  2
LAYER_4
 70
0
 62
4
  6
CONTINUOUS
  0
LAYER
  2
LAYER_5
 70
0
 62
5
  6
CONTINUOUS
  0
LAYER
  2
LAYER_6
 70
0
 62
6
  6
CONTINUOUS
  0
LAYER
  2
LAYER_7
 70
0
 62
7
  6
CONTINUOUS
  0
LAYER
  2
LAYER_8
 70
0
 62
8
  6
CONTINUOUS
  0
LAYER
  2
LAYER_9
 70
0
 62
9
  6
CONTINUOUS
  0
LAYER
  2
LAYER_10
 70
0
 62
10
  6
CONTINUOUS
  0
LAYER
  2
LAYER_11
 70
0
 62
11
  6
CONTINUOUS
  0
LAYER
  2
LAYER_12
 70
0
 62
12
  6
CONTINUOUS
  0
LAYER
  2
LAYER_13
 70
0
 62
13
  6
CONTINUOUS
  0
LAYER
  2
LAYER_14
 70
0
 62
14
  6
CONTINUOUS
  0
LAYER
  2
LAYER_15
 70
0
 62
15
  6
CONTINUOUS
  0
ENDTAB
  0
ENDSEC
  0
SECTION
  2
ENTITIES
  0
LINE
  8
LAYER_8
 10
575.37500000
 20
862.12500000
 11
575.37500000
 21
844.37500000
  0
LINE
  8
LAYER_8
 10
579.37500000
 20
858.12500000
 11
579.37500000
 21
844.37500000
  0
LINE
  8
LAYER_8
 10
575.37500000
 20
844.37500000
 11
579.37500000
 21
844.37500000
  0
LINE
  8
LAYER_8
 10
574.37500000
 20
863.12500000
 11
574.37500000
 21
844.37500000
  0
LINE
  8
LAYER_8
 10
575.37500000
 20
862.12500000
 11
575.37500000
 21
844.37500000
  0
LINE
  8
LAYER_8
 10
574.37500000
 20
844.37500000
 11
575.37500000
 21
844.37500000
  0
LINE
  8
LAYER_8
 10
571.35654528
 20
848.97711614
 11
570.37500000
 21
847.99532480
  0
LINE
  8
LAYER_8
 10
572.47490157
 20
854.22047244
 11
570.37500000
 21
852.12007874
  0
LINE
  8
LAYER_8
 10
573.59325787
 20
859.46382874
 11
570.37500000
 21
856.24483268
  0
LINE
  8
LAYER_8
 10
573.75319882
 20
863.74680118
 11
570.37500000
 21
860.36958661
  0
LINE
  8
LAYER_8
 10
571.69094488
 20
865.80905512
 11
570.37500000
 21
864.49434055
  0
LINE
  8
LAYER_8
 10
570.87918307
 20
844.37500000
 11
574.37500000
 21
847.87081693
  0
LINE
  8
LAYER_8
 10
571.35679134
 20
848.97687008
 11
574.37500000
 21
851.99557087
  0
LINE
  8
LAYER_8
 10
572.47514764
 20
854.22022638
 11
574.37500000
 21
856.12032480
  0
LINE
  8
LAYER_8
 10
573.59350394
 20
859.46358268
 11
574.37500000
 21
860.24507874
  0
LINE
  8
LAYER_8
 10
570.37500000
 20
867.12500000
 11
570.37500000
 21
844.37500000
  0
LINE
  8
LAYER_8
 10
574.37500000
 20
863.12500000
 11
574.37500000
 21
844.37500000
  0
LINE
  8
LAYER_8
 10
570.37500000
 20
844.37500000
 11
574.37500000
 21
844.37500000
  0
LINE
  8
LAYER_8
 10
575.37500000
 20
807.87500000
 11
575.37500000
 21
574.12500000
  0
LINE
  8
LAYER_8
 10
579.37500000
 20
807.87500000
 11
579.37500000
 21
578.12500000
  0
LINE
  8
LAYER_8
 10
575.37500000
 20
807.87500000
 11
579.37500000
 21
807.87500000
  0
LINE
  8
LAYER_8
 10
574.37500000
 20
807.87500000
 11
574.37500000
 21
573.12500000
  0
LINE
  8
LAYER_8
 10
575.37500000
 20
807.87500000
 11
575.37500000
 21
574.12500000
  0
LINE
  8
LAYER_8
 10
574.37500000
 20
807.87500000
 11
575.37500000
 21
807.87500000
  0
LINE
  8
LAYER_8
 10
574.33292323
 20
575.61097441
 11
570.37500000
 21
571.65329724
  0
LINE
  8
LAYER_8
 10
574.26402559
 20
579.66658465
 11
570.37500000
 21
575.77805118
  0
LINE
  8
LAYER_8
 10
574.19512795
 20
583.72219488
 11
570.37500000
 21
579.90280512
  0
LINE
  8
LAYER_8
 10
574.12623031
 20
587.77780512
 11
570.37500000
 21
584.02755906
  0
LINE
  8
LAYER_8
 10
574.05733268
 20
591.83341535
 11
570.37500000
 21
588.15231299
  0
LINE
  8
LAYER_8
 10
573.98843504
 20
595.88902559
 11
570.37500000
 21
592.27706693
  0
LINE
  8
LAYER_8
 10
573.91953740
 20
599.94463583
 11
570.37500000
 21
596.40182087
  0
LINE
  8
LAYER_8
 10
573.85063976
 20
604.00024606
 11
570.37500000
 21
600.52657480
  0
LINE
  8
LAYER_8
 10
573.78174213
 20
608.05585630
 11
570.37500000
 21
604.65132874
  0
LINE
  8
LAYER_8
 10
573.71284449
 20
612.11146654
 11
570.37500000
 21
608.77608268
  0
LINE
  8
LAYER_8
 10
573.64394685
 20
616.16707677
 11
570.37500000
 21
612.90083661
  0
LINE
  8
LAYER_8
 10
573.57504921
 20
620.22268701
 11
570.37500000
 21
617.02559055
  0
LINE
  8
LAYER_8
 10
573.50615157
 20
624.27829724
 11
570.37500000
 21
621.15034449
  0
LINE
  8
LAYER_8
 10
573.43725394
 20
628.33390748
 11
570.37500000
 21
625.27509843
  0
LINE
  8
LAYER_8
 10
573.36835630
 20
632.38951772
 11
570.37500000
 21
629.39985236
  0
LINE
  8
LAYER_8
 10
573.29945866
 20
636.44512795
 11
570.37500000
 21
633.52460630
  0
LINE
  8
LAYER_8
 10
573.23056102
 20
640.50073819
 11
570.37500000
 21
637.64936024
  0
LINE
  8
LAYER_8
 10
573.16166339
 20
644.55634843
 11
570.37500000
 21
641.77411417
  0
LINE
  8
LAYER_8
 10
573.09276575
 20
648.61195866
 11
570.37500000
 21
645.89886811
  0
LINE
  8
LAYER_8
 10
573.02386811
 20
652.66756890
 11
570.37500000
 21
650.02362205
  0
LINE
  8
LAYER_8
 10
572.95497047
 20
656.72317913
 11
570.37500000
 21
654.14837598
  0
LINE
  8
LAYER_8
 10
572.88607283
 20
660.77878937
 11
570.37500000
 21
658.27312992
  0
LINE
  8
LAYER_8
 10
572.81717520
 20
664.83439961
 11
570.37500000
 21
662.39788386
  0
LINE
  8
LAYER_8
 10
572.74827756
 20
668.89000984
 11
570.37500000
 21
666.52263780
  0
LINE
  8
LAYER_8
 10
572.67937992
 20
672.94562008
 11
570.37500000
 21
670.64739173
  0
LINE
  8
LAYER_8
 10
572.61048228
 20
677.00123031
 11
570.37500000
 21
674.77214567
  0
LINE
  8
LAYER_8
 10
572.54158465
 20
681.05684055
 11
570.37500000
 21
678.89689961
  0
LINE
  8
LAYER_8
 10
572.47268701
 20
685.11245079
 11
570.37500000
 21
683.02165354
  0
LINE
  8
LAYER_8
 10
572.40378937
 20
689.16806102
 11
570.37500000
 21
687.14640748
  0
LINE
  8
LAYER_8
 10
572.33489173
 20
693.22367126
 11
570.37500000
 21
691.27116142
  0
LINE
  8
LAYER_8
 10
572.26599409
 20
697.27928150
 11
570.37500000
 21
695.39591535
  0
LINE
  8
LAYER_8
 10
572.19709646
 20
701.33489173
 11
570.37500000
 21
699.52066929
  0
LINE
  8
LAYER_8
 10
572.12819882
 20
705.39050197
 11
570.37500000
 21
703.64542323
  0
LINE
  8
LAYER_8
 10
572.05930118
 20
709.44611220
 11
570.37500000
 21
707.77017717
  0
LINE
  8
LAYER_8
 10
571.99040354
 20
713.50172244
 11
570.37500000
 21
711.89493110
  0
LINE
  8
LAYER_8
 10
571.92150591
 20
717.55733268
 11
570.37500000
 21
716.01968504
  0
LINE
  8
LAYER_8
 10
571.85260827
 20
721.61294291
 11
570.37500000
 21
720.14443898
  0
LINE
  8
LAYER_8
 10
571.78371063
 20
725.66855315
 11
570.37500000
 21
724.26919291
  0
LINE
  8
LAYER_8
 10
571.71481299
 20
729.72416339
 11
570.37500000
 21
728.39394685
  0
LINE
  8
LAYER_8
 10
571.64591535
 20
733.77977362
 11
570.37500000
 21
732.51870079
  0
LINE
  8
LAYER_8
 10
571.57701772
 20
737.83538386
 11
570.37500000
 21
736.64345472
  0
LINE
  8
LAYER_8
 10
571.50812008
 20
741.89099409
 11
570.37500000
 21
740.76820866
  0
LINE
  8
LAYER_8
 10
571.43922244
 20
745.94660433
 11
570.37500000
 21
744.89296260
  0
LINE
  8
LAYER_8
 10
571.37032480
 20
750.00221457
 11
570.37500000
 21
749.01771654
  0
LINE
  8
LAYER_8
 10
571.30142717
 20
754.05782480
 11
570.37500000
 21
753.14247047
  0
LINE
  8
LAYER_8
 10
571.23252953
 20
758.11343504
 11
570.37500000
 21
757.26722441
  0
LINE
  8
LAYER_8
 10
571.16363189
 20
762.16904528
 11
570.37500000
 21
761.39197835
  0
LINE
  8
LAYER_8
 10
571.09473425
 20
766.22465551
 11
570.37500000
 21
765.51673228
  0
LINE
  8
LAYER_8
 10
571.02583661
 20
770.28026575
 11
570.37500000
 21
769.64148622
  0
LINE
  8
LAYER_8
 10
570.95693898
 20
774.33587598
 11
570.37500000
 21
773.76624016
  0
LINE
  8
LAYER_8
 10
570.88804134
 20
778.39148622
 11
570.37500000
 21
777.89099409
  0
LINE
  8
LAYER_8
 10
570.81914370
 20
782.44709646
 11
570.37500000
 21
782.01574803
  0
LINE
  8
LAYER_8
 10
570.75024606
 20
786.50270669
 11
570.37500000
 21
786.14050197
  0
LINE
  8
LAYER_8
 10
570.68134843
 20
790.55831693
 11
570.37500000
 21
790.26525591
  0
LINE
  8
LAYER_8
 10
570.61245079
 20
794.61392717
 11
570.37500000
 21
794.39000984
  0
LINE
  8
LAYER_8
 10
570.54355315
 20
798.66953740
 11
570.37500000
 21
798.51476378
  0
LINE
  8
LAYER_8
 10
570.47465551
 20
802.72514764
 11
570.37500000
 21
802.63951772
  0
LINE
  8
LAYER_8
 10
570.40575787
 20
806.78075787
 11
570.37500000
 21
806.76427165
  0
LINE
  8
LAYER_8
 10
574.37500000
 20
575.65329724
 11
574.33292323
 21
575.61097441
  0
LINE
  8
LAYER_8
 10
574.37500000
 20
579.77805118
 11
574.26402559
 21
579.66658465
  0
LINE
  8
LAYER_8
 10
574.37500000
 20
583.90280512
 11
574.19512795
 21
583.72219488
  0
LINE
  8
LAYER_8
 10
574.37500000
 20
588.02755906
 11
574.12623031
 21
587.77780512
  0
LINE
  8
LAYER_8
 10
574.37500000
 20
592.15231299
 11
574.05733268
 21
591.83341535
  0
LINE
  8
LAYER_8
 10
574.37500000
 20
596.27706693
 11
573.98843504
 21
595.88902559
  0
LINE
  8
LAYER_8
 10
574.37500000
 20
600.40182087
 11
573.91953740
 21
599.94463583
  0
LINE
  8
LAYER_8
 10
574.37500000
 20
604.52657480
 11
573.85063976
 21
604.00024606
  0
LINE
  8
LAYER_8
 10
574.37500000
 20
608.65132874
 11
573.78174213
 21
608.05585630
  0
LINE
  8
LAYER_8
 10
574.37500000
 20
612.77608268
 11
573.71284449
 21
612.11146654
  0
LINE
  8
LAYER_8
 10
574.37500000
 20
616.90083661
 11
573.64394685
 21
616.16707677
  0
LINE
  8
LAYER_8
 10
574.37500000
 20
621.02559055
 11
573.57504921
 21
620.22268701
  0
LINE
  8
LAYER_8
 10
574.37500000
 20
625.15034449
 11
573.50615157
 21
624.27829724
  0
LINE
  8
LAYER_8
 10
574.37500000
 20
629.27509843
 11
573.43725394
 21
628.33390748
  0
LINE
  8
LAYER_8
 10
574.37500000
 20
633.39985236
 11
573.36835630
 21
632.38951772
  0
LINE
  8
LAYER_8
 10
574.37500000
 20
637.52460630
 11
573.29945866
 21
636.44512795
  0
LINE
  8
LAYER_8
 10
574.37500000
 20
641.64936024
 11
573.23056102
 21
640.50073819
  0
LINE
  8
LAYER_8
 10
574.37500000
 20
645.77411417
 11
573.16166339
 21
644.55634843
  0
LINE
  8
LAYER_8
 10
574.37500000
 20
649.89886811
 11
573.09276575
 21
648.61195866
  0
LINE
  8
LAYER_8
 10
574.37500000
 20
654.02362205
 11
573.02386811
 21
652.66756890
  0
LINE
  8
LAYER_8
 10
574.37500000
 20
658.14837598
 11
572.95497047
 21
656.72317913
  0
LINE
  8
LAYER_8
 10
574.37500000
 20
662.27312992
 11
572.88607283
 21
660.77878937
  0
LINE
  8
LAYER_8
 10
574.37500000
 20
666.39788386
 11
572.81717520
 21
664.83439961
  0
LINE
  8
LAYER_8
 10
574.37500000
 20
670.52263780
 11
572.74827756
 21
668.89000984
  0
LINE
  8
LAYER_8
 10
574.37500000
 20
674.64739173
 11
572.67937992
 21
672.94562008
  0
LINE
  8
LAYER_8
 10
574.37500000
 20
678.77214567
 11
572.61048228
 21
677.00123031
  0
LINE
  8
LAYER_8
 10
574.37500000
 20
682.89689961
 11
572.54158465
 21
681.05684055
  0
LINE
  8
LAYER_8
 10
574.37500000
 20
687.02165354
 11
572.47268701
 21
685.11245079
  0
LINE
  8
LAYER_8
 10
574.37500000
 20
691.14640748
 11
572.40378937
 21
689.16806102
  0
LINE
  8
LAYER_8
 10
574.37500000
 20
695.27116142
 11
572.33489173
 21
693.22367126
  0
LINE
  8
LAYER_8
 10
574.37500000
 20
699.39591535
 11
572.26599409
 21
697.27928150
  0
LINE
  8
LAYER_8
 10
574.37500000
 20
703.52066929
 11
572.19709646
 21
701.33489173
  0
LINE
  8
LAYER_8
 10
574.37500000
 20
707.64542323
 11
572.12819882
 21
705.39050197
  0
LINE
  8
LAYER_8
 10
574.37500000
 20
711.77017717
 11
572.05930118
 21
709.44611220
  0
LINE
  8
LAYER_8
 10
574.37500000
 20
715.89493110
 11
571.99040354
 21
713.50172244
  0
LINE
  8
LAYER_8
 10
574.37500000
 20
720.01968504
 11
571.92150591
 21
717.55733268
  0
LINE
  8
LAYER_8
 10
574.37500000
 20
724.14443898
 11
571.85260827
 21
721.61294291
  0
LINE
  8
LAYER_8
 10
574.37500000
 20
728.26919291
 11
571.78371063
 21
725.66855315
  0
LINE
  8
LAYER_8
 10
574.37500000
 20
732.39394685
 11
571.71481299
 21
729.72416339
  0
LINE
  8
LAYER_8
 10
574.37500000
 20
736.51870079
 11
571.64591535
 21
733.77977362
  0
LINE
  8
LAYER_8
 10
574.37500000
 20
740.64345472
 11
571.57701772
 21
737.83538386
  0
LINE
  8
LAYER_8
 10
574.37500000
 20
744.76820866
 11
571.50812008
 21
741.89099409
  0
LINE
  8
LAYER_8
 10
574.37500000
 20
748.89296260
 11
571.43922244
 21
745.94660433
  0
LINE
  8
LAYER_8
 10
574.37500000
 20
753.01771654
 11
571.37032480
 21
750.00221457
  0
LINE
  8
LAYER_8
 10
574.37500000
 20
757.14247047
 11
571.30142717
 21
754.05782480
  0
LINE
  8
LAYER_8
 10
574.37500000
 20
761.26722441
 11
571.23252953
 21
758.11343504
  0
LINE
  8
LAYER_8
 10
574.37500000
 20
765.39197835
 11
571.16363189
 21
762.16904528
  0
LINE
  8
LAYER_8
 10
574.37500000
 20
769.51673228
 11
571.09473425
 21
766.22465551
  0
LINE
  8
LAYER_8
 10
574.37500000
 20
773.64148622
 11
571.02583661
 21
770.28026575
  0
LINE
  8
LAYER_8
 10
574.37500000
 20
777.76624016
 11
570.95693898
 21
774.33587598
  0
LINE
  8
LAYER_8
 10
574.37500000
 20
781.89099409
 11
570.88804134
 21
778.39148622
  0
LINE
  8
LAYER_8
 10
574.37500000
 20
786.01574803
 11
570.81914370
 21
782.44709646
  0
LINE
  8
LAYER_8
 10
574.37500000
 20
790.14050197
 11
570.75024606
 21
786.50270669
  0
LINE
  8
LAYER_8
 10
574.37500000
 20
794.26525591
 11
570.68134843
 21
790.55831693
  0
LINE
  8
LAYER_8
 10
574.37500000
 20
798.39000984
 11
570.61245079
 21
794.61392717
  0
LINE
  8
LAYER_8
 10
574.37500000
 20
802.51476378
 11
570.54355315
 21
798.66953740
  0
LINE
  8
LAYER_8
 10
574.37500000
 20
806.63951772
 11
570.47465551
 21
802.72514764
  0
LINE
  8
LAYER_8
 10
571.50000000
 20
807.87500000
 11
570.40575787
 21
806.78075787
  0
LINE
  8
LAYER_8
 10
570.37500000
 20
807.87500000
 11
570.37500000
 21
569.12500000
  0
LINE
  8
LAYER_8
 10
574.37500000
 20
807.87500000
 11
574.37500000
 21
573.12500000
  0
LINE
  8
LAYER_8
 10
570.37500000
 20
807.87500000
 11
574.37500000
 21
807.87500000
  0
LINE
  8
LAYER_8
 10
575.37500000
 20
862.12500000
 11
1007.37500000
 21
862.12500000
  0
LINE
  8
LAYER_8
 10
579.37500000
 20
858.12500000
 11
1003.37500000
 21
858.12500000
  0
LINE
  8
LAYER_8
 10
574.37500000
 20
863.12500000
 11
1008.37500000
 21
863.12500000
  0
LINE
  8
LAYER_8
 10
575.37500000
 20
862.12500000
 11
1007.37500000
 21
862.12500000
  0
LINE
  8
LAYER_8
 10
1010.18454724
 20
867.10506890
 11
1010.20447835
 21
867.12500000
  0
LINE
  8
LAYER_8
 10
1006.02189961
 20
867.06717520
 11
1006.07972441
 21
867.12500000
  0
LINE
  8
LAYER_8
 10
1001.85925197
 20
867.02928150
 11
1001.95497047
 21
867.12500000
  0
LINE
  8
LAYER_8
 10
997.69660433
 20
866.99138780
 11
997.83021654
 21
867.12500000
  0
LINE
  8
LAYER_8
 10
993.53395669
 20
866.95349409
 11
993.70546260
 21
867.12500000
  0
LINE
  8
LAYER_8
 10
989.37130906
 20
866.91560039
 11
989.58070866
 21
867.12500000
  0
LINE
  8
LAYER_8
 10
985.20866142
 20
866.87770669
 11
985.45595472
 21
867.12500000
  0
LINE
  8
LAYER_8
 10
981.04601378
 20
866.83981299
 11
981.33120079
 21
867.12500000
  0
LINE
  8
LAYER_8
 10
976.88336614
 20
866.80191929
 11
977.20644685
 21
867.12500000
  0
LINE
  8
LAYER_8
 10
972.72071850
 20
866.76402559
 11
973.08169291
 21
867.12500000
  0
LINE
  8
LAYER_8
 10
968.55807087
 20
866.72613189
 11
968.95693898
 21
867.12500000
  0
LINE
  8
LAYER_8
 10
964.39542323
 20
866.68823819
 11
964.83218504
 21
867.12500000
  0
LINE
  8
LAYER_8
 10
960.23277559
 20
866.65034449
 11
960.70743110
 21
867.12500000
  0
LINE
  8
LAYER_8
 10
956.07012795
 20
866.61245079
 11
956.58267717
 21
867.12500000
  0
LINE
  8
LAYER_8
 10
951.90748031
 20
866.57455709
 11
952.45792323
 21
867.12500000
  0
LINE
  8
LAYER_8
 10
947.74483268
 20
866.53666339
 11
948.33316929
 21
867.12500000
  0
LINE
  8
LAYER_8
 10
943.58218504
 20
866.49876969
 11
944.20841535
 21
867.12500000
  0
LINE
  8
LAYER_8
 10
939.41953740
 20
866.46087598
 11
940.08366142
 21
867.12500000
  0
LINE
  8
LAYER_8
 10
935.25688976
 20
866.42298228
 11
935.95890748
 21
867.12500000
  0
LINE
  8
LAYER_8
 10
931.09424213
 20
866.38508858
 11
931.83415354
 21
867.12500000
  0
LINE
  8
LAYER_8
 10
926.93159449
 20
866.34719488
 11
927.70939961
 21
867.12500000
  0
LINE
  8
LAYER_8
 10
922.76894685
 20
866.30930118
 11
923.58464567
 21
867.12500000
  0
LINE
  8
LAYER_8
 10
918.60629921
 20
866.27140748
 11
919.45989173
 21
867.12500000
  0
LINE
  8
LAYER_8
 10
914.44365157
 20
866.23351378
 11
915.33513780
 21
867.12500000
  0
LINE
  8
LAYER_8
 10
910.28100394
 20
866.19562008
 11
911.21038386
 21
867.12500000
  0
LINE
  8
LAYER_8
 10
906.11835630
 20
866.15772638
 11
907.08562992
 21
867.12500000
  0
LINE
  8
LAYER_8
 10
901.95570866
 20
866.11983268
 11
902.96087598
 21
867.12500000
  0
LINE
  8
LAYER_8
 10
897.79306102
 20
866.08193898
 11
898.83612205
 21
867.12500000
  0
LINE
  8
LAYER_8
 10
893.63041339
 20
866.04404528
 11
894.71136811
 21
867.12500000
  0
LINE
  8
LAYER_8
 10
889.46776575
 20
866.00615157
 11
890.58661417
 21
867.12500000
  0
LINE
  8
LAYER_8
 10
885.30511811
 20
865.96825787
 11
886.46186024
 21
867.12500000
  0
LINE
  8
LAYER_8
 10
881.14247047
 20
865.93036417
 11
882.33710630
 21
867.12500000
  0
LINE
  8
LAYER_8
 10
876.97982283
 20
865.89247047
 11
878.21235236
 21
867.12500000
  0
LINE
  8
LAYER_8
 10
872.81717520
 20
865.85457677
 11
874.08759843
 21
867.12500000
  0
LINE
  8
LAYER_8
 10
868.65452756
 20
865.81668307
 11
869.96284449
 21
867.12500000
  0
LINE
  8
LAYER_8
 10
864.49187992
 20
865.77878937
 11
865.83809055
 21
867.12500000
  0
LINE
  8
LAYER_8
 10
860.32923228
 20
865.74089567
 11
861.71333661
 21
867.12500000
  0
LINE
  8
LAYER_8
 10
856.16658465
 20
865.70300197
 11
857.58858268
 21
867.12500000
  0
LINE
  8
LAYER_8
 10
852.00393701
 20
865.66510827
 11
853.46382874
 21
867.12500000
  0
LINE
  8
LAYER_8
 10
847.84128937
 20
865.62721457
 11
849.33907480
 21
867.12500000
  0
LINE
  8
LAYER_8
 10
843.67864173
 20
865.58932087
 11
845.21432087
 21
867.12500000
  0
LINE
  8
LAYER_8
 10
839.51599409
 20
865.55142717
 11
841.08956693
 21
867.12500000
  0
LINE
  8
LAYER_8
 10
835.35334646
 20
865.51353346
 11
836.96481299
 21
867.12500000
  0
LINE
  8
LAYER_8
 10
831.19069882
 20
865.47563976
 11
832.84005906
 21
867.12500000
  0
LINE
  8
LAYER_8
 10
827.02805118
 20
865.43774606
 11
828.71530512
 21
867.12500000
  0
LINE
  8
LAYER_8
 10
822.86540354
 20
865.39985236
 11
824.59055118
 21
867.12500000
  0
LINE
  8
LAYER_8
 10
818.70275591
 20
865.36195866
 11
820.46579724
 21
867.12500000
  0
LINE
  8
LAYER_8
 10
814.54010827
 20
865.32406496
 11
816.34104331
 21
867.12500000
  0
LINE
  8
LAYER_8
 10
810.37746063
 20
865.28617126
 11
812.21628937
 21
867.12500000
  0
LINE
  8
LAYER_8
 10
806.21481299
 20
865.24827756
 11
808.09153543
 21
867.12500000
  0
LINE
  8
LAYER_8
 10
802.05216535
 20
865.21038386
 11
803.96678150
 21
867.12500000
  0
LINE
  8
LAYER_8
 10
797.88951772
 20
865.17249016
 11
799.84202756
 21
867.12500000
  0
LINE
  8
LAYER_8
 10
793.72687008
 20
865.13459646
 11
795.71727362
 21
867.12500000
  0
LINE
  8
LAYER_8
 10
789.56422244
 20
865.09670276
 11
791.59251969
 21
867.12500000
  0
LINE
  8
LAYER_8
 10
785.40157480
 20
865.05880906
 11
787.46776575
 21
867.12500000
  0
LINE
  8
LAYER_8
 10
781.23892717
 20
865.02091535
 11
783.34301181
 21
867.12500000
  0
LINE
  8
LAYER_8
 10
777.07627953
 20
864.98302165
 11
779.21825787
 21
867.12500000
  0
LINE
  8
LAYER_8
 10
772.91363189
 20
864.94512795
 11
775.09350394
 21
867.12500000
  0
LINE
  8
LAYER_8
 10
768.75098425
 20
864.90723425
 11
770.96875000
 21
867.12500000
  0
LINE
  8
LAYER_8
 10
764.58833661
 20
864.86934055
 11
766.84399606
 21
867.12500000
  0
LINE
  8
LAYER_8
 10
760.42568898
 20
864.83144685
 11
762.71924213
 21
867.12500000
  0
LINE
  8
LAYER_8
 10
756.26304134
 20
864.79355315
 11
758.59448819
 21
867.12500000
  0
LINE
  8
LAYER_8
 10
752.10039370
 20
864.75565945
 11
754.46973425
 21
867.12500000
  0
LINE
  8
LAYER_8
 10
747.93774606
 20
864.71776575
 11
750.34498031
 21
867.12500000
  0
LINE
  8
LAYER_8
 10
743.77509843
 20
864.67987205
 11
746.22022638
 21
867.12500000
  0
LINE
  8
LAYER_8
 10
739.61245079
 20
864.64197835
 11
742.09547244
 21
867.12500000
  0
LINE
  8
LAYER_8
 10
735.44980315
 20
864.60408465
 11
737.97071850
 21
867.12500000
  0
LINE
  8
LAYER_8
 10
731.28715551
 20
864.56619094
 11
733.84596457
 21
867.12500000
  0
LINE
  8
LAYER_8
 10
727.12450787
 20
864.52829724
 11
729.72121063
 21
867.12500000
  0
LINE
  8
LAYER_8
 10
722.96186024
 20
864.49040354
 11
725.59645669
 21
867.12500000
  0
LINE
  8
LAYER_8
 10
718.79921260
 20
864.45250984
 11
721.47170276
 21
867.12500000
  0
LINE
  8
LAYER_8
 10
714.63656496
 20
864.41461614
 11
717.34694882
 21
867.12500000
  0
LINE
  8
LAYER_8
 10
710.47391732
 20
864.37672244
 11
713.22219488
 21
867.12500000
  0
LINE
  8
LAYER_8
 10
706.31126969
 20
864.33882874
 11
709.09744094
 21
867.12500000
  0
LINE
  8
LAYER_8
 10
702.14862205
 20
864.30093504
 11
704.97268701
 21
867.12500000
  0
LINE
  8
LAYER_8
 10
697.98597441
 20
864.26304134
 11
700.84793307
 21
867.12500000
  0
LINE
  8
LAYER_8
 10
693.82332677
 20
864.22514764
 11
696.72317913
 21
867.12500000
  0
LINE
  8
LAYER_8
 10
689.66067913
 20
864.18725394
 11
692.59842520
 21
867.12500000
  0
LINE
  8
LAYER_8
 10
685.49803150
 20
864.14936024
 11
688.47367126
 21
867.12500000
  0
LINE
  8
LAYER_8
 10
681.33538386
 20
864.11146654
 11
684.34891732
 21
867.12500000
  0
LINE
  8
LAYER_8
 10
677.17273622
 20
864.07357283
 11
680.22416339
 21
867.12500000
  0
LINE
  8
LAYER_8
 10
673.01008858
 20
864.03567913
 11
676.09940945
 21
867.12500000
  0
LINE
  8
LAYER_8
 10
668.84744094
 20
863.99778543
 11
671.97465551
 21
867.12500000
  0
LINE
  8
LAYER_8
 10
664.68479331
 20
863.95989173
 11
667.84990157
 21
867.12500000
  0
LINE
  8
LAYER_8
 10
660.52214567
 20
863.92199803
 11
663.72514764
 21
867.12500000
  0
LINE
  8
LAYER_8
 10
656.35949803
 20
863.88410433
 11
659.60039370
 21
867.12500000
  0
LINE
  8
LAYER_8
 10
652.19685039
 20
863.84621063
 11
655.47563976
 21
867.12500000
  0
LINE
  8
LAYER_8
 10
648.03420276
 20
863.80831693
 11
651.35088583
 21
867.12500000
  0
LINE
  8
LAYER_8
 10
643.87155512
 20
863.77042323
 11
647.22613189
 21
867.12500000
  0
LINE
  8
LAYER_8
 10
639.70890748
 20
863.73252953
 11
643.10137795
 21
867.12500000
  0
LINE
  8
LAYER_8
 10
635.54625984
 20
863.69463583
 11
638.97662402
 21
867.12500000
  0
LINE
  8
LAYER_8
 10
631.38361220
 20
863.65674213
 11
634.85187008
 21
867.12500000
  0
LINE
  8
LAYER_8
 10
627.22096457
 20
863.61884843
 11
630.72711614
 21
867.12500000
  0
LINE
  8
LAYER_8
 10
623.05831693
 20
863.58095472
 11
626.60236220
 21
867.12500000
  0
LINE
  8
LAYER_8
 10
618.89566929
 20
863.54306102
 11
622.47760827
 21
867.12500000
  0
LINE
  8
LAYER_8
 10
614.73302165
 20
863.50516732
 11
618.35285433
 21
867.12500000
  0
LINE
  8
LAYER_8
 10
610.57037402
 20
863.46727362
 11
614.22810039
 21
867.12500000
  0
LINE
  8
LAYER_8
 10
606.40772638
 20
863.42937992
 11
610.10334646
 21
867.12500000
  0
LINE
  8
LAYER_8
 10
602.24507874
 20
863.39148622
 11
605.97859252
 21
867.12500000
  0
LINE
  8
LAYER_8
 10
598.08243110
 20
863.35359252
 11
601.85383858
 21
867.12500000
  0
LINE
  8
LAYER_8
 10
593.91978346
 20
863.31569882
 11
597.72908465
 21
867.12500000
  0
LINE
  8
LAYER_8
 10
589.75713583
 20
863.27780512
 11
593.60433071
 21
867.12500000
  0
LINE
  8
LAYER_8
 10
585.59448819
 20
863.23991142
 11
589.47957677
 21
867.12500000
  0
LINE
  8
LAYER_8
 10
581.43184055
 20
863.20201772
 11
585.35482283
 21
867.12500000
  0
LINE
  8
LAYER_8
 10
577.26919291
 20
863.16412402
 11
581.23006890
 21
867.12500000
  0
LINE
  8
LAYER_8
 10
573.75319882
 20
863.74680118
 11
577.10531496
 21
867.12500000
  0
LINE
  8
LAYER_8
 10
571.69094488
 20
865.80905512
 11
572.98056102
 21
867.12500000
  0
LINE
  8
LAYER_8
 10
1006.20447835
 20
863.12500000
 11
1010.18454724
 21
867.10506890
  0
LINE
  8
LAYER_8
 10
1002.07972441
 20
863.12500000
 11
1006.02189961
 21
867.06717520
  0
LINE
  8
LAYER_8
 10
997.95497047
 20
863.12500000
 11
1001.85925197
 21
867.02928150
  0
LINE
  8
LAYER_8
 10
993.83021654
 20
863.12500000
 11
997.69660433
 21
866.99138780
  0
LINE
  8
LAYER_8
 10
989.70546260
 20
863.12500000
 11
993.53395669
 21
866.95349409
  0
LINE
  8
LAYER_8
 10
985.58070866
 20
863.12500000
 11
989.37130906
 21
866.91560039
  0
LINE
  8
LAYER_8
 10
981.45595472
 20
863.12500000
 11
985.20866142
 21
866.87770669
  0
LINE
  8
LAYER_8
 10
977.33120079
 20
863.12500000
 11
981.04601378
 21
866.83981299
  0
LINE
  8
LAYER_8
 10
973.20644685
 20
863.12500000
 11
976.88336614
 21
866.80191929
  0
LINE
  8
LAYER_8
 10
969.08169291
 20
863.12500000
 11
972.72071850
 21
866.76402559
  0
LINE
  8
LAYER_8
 10
964.95693898
 20
863.12500000
 11
968.55807087
 21
866.72613189
  0
LINE
  8
LAYER_8
 10
960.83218504
 20
863.12500000
 11
964.39542323
 21
866.68823819
  0
LINE
  8
LAYER_8
 10
956.70743110
 20
863.12500000
 11
960.23277559
 21
866.65034449
  0
LINE
  8
LAYER_8
 10
952.58267717
 20
863.12500000
 11
956.07012795
 21
866.61245079
  0
LINE
  8
LAYER_8
 10
948.45792323
 20
863.12500000
 11
951.90748031
 21
866.57455709
  0
LINE
  8
LAYER_8
 10
944.33316929
 20
863.12500000
 11
947.74483268
 21
866.53666339
  0
LINE
  8
LAYER_8
 10
940.20841535
 20
863.12500000
 11
943.58218504
 21
866.49876969
  0
LINE
  8
LAYER_8
 10
936.08366142
 20
863.12500000
 11
939.41953740
 21
866.46087598
  0
LINE
  8
LAYER_8
 10
931.95890748
 20
863.12500000
 11
935.25688976
 21
866.42298228
  0
LINE
  8
LAYER_8
 10
927.83415354
 20
863.12500000
 11
931.09424213
 21
866.38508858
  0
LINE
  8
LAYER_8
 10
923.70939961
 20
863.12500000
 11
926.93159449
 21
866.34719488
  0
LINE
  8
LAYER_8
 10
919.58464567
 20
863.12500000
 11
922.76894685
 21
866.30930118
  0
LINE
  8
LAYER_8
 10
915.45989173
 20
863.12500000
 11
918.60629921
 21
866.27140748
  0
LINE
  8
LAYER_8
 10
911.33513780
 20
863.12500000
 11
914.44365157
 21
866.23351378
  0
LINE
  8
LAYER_8
 10
907.21038386
 20
863.12500000
 11
910.28100394
 21
866.19562008
  0
LINE
  8
LAYER_8
 10
903.08562992
 20
863.12500000
 11
906.11835630
 21
866.15772638
  0
LINE
  8
LAYER_8
 10
898.96087598
 20
863.12500000
 11
901.95570866
 21
866.11983268
  0
LINE
  8
LAYER_8
 10
894.83612205
 20
863.12500000
 11
897.79306102
 21
866.08193898
  0
LINE
  8
LAYER_8
 10
890.71136811
 20
863.12500000
 11
893.63041339
 21
866.04404528
  0
LINE
  8
LAYER_8
 10
886.58661417
 20
863.12500000
 11
889.46776575
 21
866.00615157
  0
LINE
  8
LAYER_8
 10
882.46186024
 20
863.12500000
 11
885.30511811
 21
865.96825787
  0
LINE
  8
LAYER_8
 10
878.33710630
 20
863.12500000
 11
881.14247047
 21
865.93036417
  0
LINE
  8
LAYER_8
 10
874.21235236
 20
863.12500000
 11
876.97982283
 21
865.89247047
  0
LINE
  8
LAYER_8
 10
870.08759843
 20
863.12500000
 11
872.81717520
 21
865.85457677
  0
LINE
  8
LAYER_8
 10
865.96284449
 20
863.12500000
 11
868.65452756
 21
865.81668307
  0
LINE
  8
LAYER_8
 10
861.83809055
 20
863.12500000
 11
864.49187992
 21
865.77878937
  0
LINE
  8
LAYER_8
 10
857.71333661
 20
863.12500000
 11
860.32923228
 21
865.74089567
  0
LINE
  8
LAYER_8
 10
853.58858268
 20
863.12500000
 11
856.16658465
 21
865.70300197
  0
LINE
  8
LAYER_8
 10
849.46382874
 20
863.12500000
 11
852.00393701
 21
865.66510827
  0
LINE
  8
LAYER_8
 10
845.33907480
 20
863.12500000
 11
847.84128937
 21
865.62721457
  0
LINE
  8
LAYER_8
 10
841.21432087
 20
863.12500000
 11
843.67864173
 21
865.58932087
  0
LINE
  8
LAYER_8
 10
837.08956693
 20
863.12500000
 11
839.51599409
 21
865.55142717
  0
LINE
  8
LAYER_8
 10
832.96481299
 20
863.12500000
 11
835.35334646
 21
865.51353346
  0
LINE
  8
LAYER_8
 10
828.84005906
 20
863.12500000
 11
831.19069882
 21
865.47563976
  0
LINE
  8
LAYER_8
 10
824.71530512
 20
863.12500000
 11
827.02805118
 21
865.43774606
  0
LINE
  8
LAYER_8
 10
820.59055118
 20
863.12500000
 11
822.86540354
 21
865.39985236
  0
LINE
  8
LAYER_8
 10
816.46579724
 20
863.12500000
 11
818.70275591
 21
865.36195866
  0
LINE
  8
LAYER_8
 10
812.34104331
 20
863.12500000
 11
814.54010827
 21
865.32406496
  0
LINE
  8
LAYER_8
 10
808.21628937
 20
863.12500000
 11
810.37746063
 21
865.28617126
  0
LINE
  8
LAYER_8
 10
804.09153543
 20
863.12500000
 11
806.21481299
 21
865.24827756
  0
LINE
  8
LAYER_8
 10
799.96678150
 20
863.12500000
 11
802.05216535
 21
865.21038386
  0
LINE
  8
LAYER_8
 10
795.84202756
 20
863.12500000
 11
797.88951772
 21
865.17249016
  0
LINE
  8
LAYER_8
 10
791.71727362
 20
863.12500000
 11
793.72687008
 21
865.13459646
  0
LINE
  8
LAYER_8
 10
787.59251969
 20
863.12500000
 11
789.56422244
 21
865.09670276
  0
LINE
  8
LAYER_8
 10
783.46776575
 20
863.12500000
 11
785.40157480
 21
865.05880906
  0
LINE
  8
LAYER_8
 10
779.34301181
 20
863.12500000
 11
781.23892717
 21
865.02091535
  0
LINE
  8
LAYER_8
 10
775.21825787
 20
863.12500000
 11
777.07627953
 21
864.98302165
  0
LINE
  8
LAYER_8
 10
771.09350394
 20
863.12500000
 11
772.91363189
 21
864.94512795
  0
LINE
  8
LAYER_8
 10
766.96875000
 20
863.12500000
 11
768.75098425
 21
864.90723425
  0
LINE
  8
LAYER_8
 10
762.84399606
 20
863.12500000
 11
764.58833661
 21
864.86934055
  0
LINE
  8
LAYER_8
 10
758.71924213
 20
863.12500000
 11
760.42568898
 21
864.83144685
  0
LINE
  8
LAYER_8
 10
754.59448819
 20
863.12500000
 11
756.26304134
 21
864.79355315
  0
LINE
  8
LAYER_8
 10
750.46973425
 20
863.12500000
 11
752.10039370
 21
864.75565945
  0
LINE
  8
LAYER_8
 10
746.34498031
 20
863.12500000
 11
747.93774606
 21
864.71776575
  0
LINE
  8
LAYER_8
 10
742.22022638
 20
863.12500000
 11
743.77509843
 21
864.67987205
  0
LINE
  8
LAYER_8
 10
738.09547244
 20
863.12500000
 11
739.61245079
 21
864.64197835
  0
LINE
  8
LAYER_8
 10
733.97071850
 20
863.12500000
 11
735.44980315
 21
864.60408465
  0
LINE
  8
LAYER_8
 10
729.84596457
 20
863.12500000
 11
731.28715551
 21
864.56619094
  0
LINE
  8
LAYER_8
 10
725.72121063
 20
863.12500000
 11
727.12450787
 21
864.52829724
  0
LINE
  8
LAYER_8
 10
721.59645669
 20
863.12500000
 11
722.96186024
 21
864.49040354
  0
LINE
  8
LAYER_8
 10
717.47170276
 20
863.12500000
 11
718.79921260
 21
864.45250984
  0
LINE
  8
LAYER_8
 10
713.34694882
 20
863.12500000
 11
714.63656496
 21
864.41461614
  0
LINE
  8
LAYER_8
 10
709.22219488
 20
863.12500000
 11
710.47391732
 21
864.37672244
  0
LINE
  8
LAYER_8
 10
705.09744094
 20
863.12500000
 11
706.31126969
 21
864.33882874
  0
LINE
  8
LAYER_8
 10
700.97268701
 20
863.12500000
 11
702.14862205
 21
864.30093504
  0
LINE
  8
LAYER_8
 10
696.84793307
 20
863.12500000
 11
697.98597441
 21
864.26304134
  0
LINE
  8
LAYER_8
 10
692.72317913
 20
863.12500000
 11
693.82332677
 21
864.22514764
  0
LINE
  8
LAYER_8
 10
688.59842520
 20
863.12500000
 11
689.66067913
 21
864.18725394
  0
LINE
  8
LAYER_8
 10
684.47367126
 20
863.12500000
 11
685.49803150
 21
864.14936024
  0
LINE
  8
LAYER_8
 10
680.34891732
 20
863.12500000
 11
681.33538386
 21
864.11146654
  0
LINE
  8
LAYER_8
 10
676.22416339
 20
863.12500000
 11
677.17273622
 21
864.07357283
  0
LINE
  8
LAYER_8
 10
672.09940945
 20
863.12500000
 11
673.01008858
 21
864.03567913
  0
LINE
  8
LAYER_8
 10
667.97465551
 20
863.12500000
 11
668.84744094
 21
863.99778543
  0
LINE
  8
LAYER_8
 10
663.84990157
 20
863.12500000
 11
664.68479331
 21
863.95989173
  0
LINE
  8
LAYER_8
 10
659.72514764
 20
863.12500000
 11
660.52214567
 21
863.92199803
  0
LINE
  8
LAYER_8
 10
655.60039370
 20
863.12500000
 11
656.35949803
 21
863.88410433
  0
LINE
  8
LAYER_8
 10
651.47563976
 20
863.12500000
 11
652.19685039
 21
863.84621063
  0
LINE
  8
LAYER_8
 10
647.35088583
 20
863.12500000
 11
648.03420276
 21
863.80831693
  0
LINE
  8
LAYER_8
 10
643.22613189
 20
863.12500000
 11
643.87155512
 21
863.77042323
  0
LINE
  8
LAYER_8
 10
639.10137795
 20
863.12500000
 11
639.70890748
 21
863.73252953
  0
LINE
  8
LAYER_8
 10
634.97662402
 20
863.12500000
 11
635.54625984
 21
863.69463583
  0
LINE
  8
LAYER_8
 10
630.85187008
 20
863.12500000
 11
631.38361220
 21
863.65674213
  0
LINE
  8
LAYER_8
 10
626.72711614
 20
863.12500000
 11
627.22096457
 21
863.61884843
  0
LINE
  8
LAYER_8
 10
622.60236220
 20
863.12500000
 11
623.05831693
 21
863.58095472
  0
LINE
  8
LAYER_8
 10
618.47760827
 20
863.12500000
 11
618.89566929
 21
863.54306102
  0
LINE
  8
LAYER_8
 10
614.35285433
 20
863.12500000
 11
614.73302165
 21
863.50516732
  0
LINE
  8
LAYER_8
 10
610.22810039
 20
863.12500000
 11
610.57037402
 21
863.46727362
  0
LINE
  8
LAYER_8
 10
606.10334646
 20
863.12500000
 11
606.40772638
 21
863.42937992
  0
LINE
  8
LAYER_8
 10
601.97859252
 20
863.12500000
 11
602.24507874
 21
863.39148622
  0
LINE
  8
LAYER_8
 10
597.85383858
 20
863.12500000
 11
598.08243110
 21
863.35359252
  0
LINE
  8
LAYER_8
 10
593.72908465
 20
863.12500000
 11
593.91978346
 21
863.31569882
  0
LINE
  8
LAYER_8
 10
589.60433071
 20
863.12500000
 11
589.75713583
 21
863.27780512
  0
LINE
  8
LAYER_8
 10
585.47957677
 20
863.12500000
 11
585.59448819
 21
863.23991142
  0
LINE
  8
LAYER_8
 10
581.35482283
 20
863.12500000
 11
581.43184055
 21
863.20201772
  0
LINE
  8
LAYER_8
 10
577.23006890
 20
863.12500000
 11
577.26919291
 21
863.16412402
  0
LINE
  8
LAYER_8
 10
570.37500000
 20
867.12500000
 11
1012.37500000
 21
867.12500000
  0
LINE
  8
LAYER_8
 10
574.37500000
 20
863.12500000
 11
1008.37500000
 21
863.12500000
  0
LINE
  8
LAYER_8
 10
1007.37500000
 20
862.12500000
 11
1007.37500000
 21
742.12500000
  0
LINE
  8
LAYER_8
 10
1003.37500000
 20
858.12500000
 11
1003.37500000
 21
742.12500000
  0
LINE
  8
LAYER_8
 10
1007.37500000
 20
742.12500000
 11
1003.37500000
 21
742.12500000
  0
LINE
  8
LAYER_8
 10
1008.37500000
 20
863.12500000
 11
1008.37500000
 21
742.12500000
  0
LINE
  8
LAYER_8
 10
1007.37500000
 20
862.12500000
 11
1007.37500000
 21
742.12500000
  0
LINE
  8
LAYER_8
 10
1008.37500000
 20
742.12500000
 11
1007.37500000
 21
742.12500000
  0
LINE
  8
LAYER_8
 10
1012.37500000
 20
745.56028543
 11
1012.26525591
 21
745.45029528
  0
LINE
  8
LAYER_8
 10
1012.37500000
 20
749.68503937
 11
1012.13336614
 21
749.44291339
  0
LINE
  8
LAYER_8
 10
1012.37500000
 20
753.80979331
 11
1012.00147638
 21
753.43553150
  0
LINE
  8
LAYER_8
 10
1012.37500000
 20
757.93454724
 11
1011.86958661
 21
757.42814961
  0
LINE
  8
LAYER_8
 10
1012.37500000
 20
762.05930118
 11
1011.73769685
 21
761.42076772
  0
LINE
  8
LAYER_8
 10
1012.37500000
 20
766.18405512
 11
1011.60580709
 21
765.41338583
  0
LINE
  8
LAYER_8
 10
1012.37500000
 20
770.30880906
 11
1011.47391732
 21
769.40600394
  0
LINE
  8
LAYER_8
 10
1012.37500000
 20
774.43356299
 11
1011.34202756
 21
773.39862205
  0
LINE
  8
LAYER_8
 10
1012.37500000
 20
778.55831693
 11
1011.21013780
 21
777.39124016
  0
LINE
  8
LAYER_8
 10
1012.37500000
 20
782.68307087
 11
1011.07824803
 21
781.38385827
  0
LINE
  8
LAYER_8
 10
1012.37500000
 20
786.80782480
 11
1010.94635827
 21
785.37647638
  0
LINE
  8
LAYER_8
 10
1012.37500000
 20
790.93257874
 11
1010.81446850
 21
789.36909449
  0
LINE
  8
LAYER_8
 10
1012.37500000
 20
795.05733268
 11
1010.68257874
 21
793.36171260
  0
LINE
  8
LAYER_8
 10
1012.37500000
 20
799.18208661
 11
1010.55068898
 21
797.35433071
  0
LINE
  8
LAYER_8
 10
1012.37500000
 20
803.30684055
 11
1010.41879921
 21
801.34694882
  0
LINE
  8
LAYER_8
 10
1012.37500000
 20
807.43159449
 11
1010.28690945
 21
805.33956693
  0
LINE
  8
LAYER_8
 10
1012.37500000
 20
811.55634843
 11
1010.15501969
 21
809.33218504
  0
LINE
  8
LAYER_8
 10
1012.37500000
 20
815.68110236
 11
1010.02312992
 21
813.32480315
  0
LINE
  8
LAYER_8
 10
1012.37500000
 20
819.80585630
 11
1009.89124016
 21
817.31742126
  0
LINE
  8
LAYER_8
 10
1012.37500000
 20
823.93061024
 11
1009.75935039
 21
821.31003937
  0
LINE
  8
LAYER_8
 10
1012.37500000
 20
828.05536417
 11
1009.62746063
 21
825.30265748
  0
LINE
  8
LAYER_8
 10
1012.37500000
 20
832.18011811
 11
1009.49557087
 21
829.29527559
  0
LINE
  8
LAYER_8
 10
1012.37500000
 20
836.30487205
 11
1009.36368110
 21
833.28789370
  0
LINE
  8
LAYER_8
 10
1012.37500000
 20
840.42962598
 11
1009.23179134
 21
837.28051181
  0
LINE
  8
LAYER_8
 10
1012.37500000
 20
844.55437992
 11
1009.09990157
 21
841.27312992
  0
LINE
  8
LAYER_8
 10
1012.37500000
 20
848.67913386
 11
1008.96801181
 21
845.26574803
  0
LINE
  8
LAYER_8
 10
1012.37500000
 20
852.80388780
 11
1008.83612205
 21
849.25836614
  0
LINE
  8
LAYER_8
 10
1012.37500000
 20
856.92864173
 11
1008.70423228
 21
853.25098425
  0
LINE
  8
LAYER_8
 10
1012.37500000
 20
861.05339567
 11
1008.57234252
 21
857.24360236
  0
LINE
  8
LAYER_8
 10
1012.37500000
 20
865.17814961
 11
1008.44045276
 21
861.23622047
  0
LINE
  8
LAYER_8
 10
1008.93971457
 20
742.12500000
 11
1012.26525591
 21
745.45029528
  0
LINE
  8
LAYER_8
 10
1008.37500000
 20
745.68454724
 11
1012.13336614
 21
749.44291339
  0
LINE
  8
LAYER_8
 10
1008.37500000
 20
749.80930118
 11
1012.00147638
 21
753.43553150
  0
LINE
  8
LAYER_8
 10
1008.37500000
 20
753.93405512
 11
1011.86958661
 21
757.42814961
  0
LINE
  8
LAYER_8
 10
1008.37500000
 20
758.05880906
 11
1011.73769685
 21
761.42076772
  0
LINE
  8
LAYER_8
 10
1008.37500000
 20
762.18356299
 11
1011.60580709
 21
765.41338583
  0
LINE
  8
LAYER_8
 10
1008.37500000
 20
766.30831693
 11
1011.47391732
 21
769.40600394
  0
LINE
  8
LAYER_8
 10
1008.37500000
 20
770.43307087
 11
1011.34202756
 21
773.39862205
  0
LINE
  8
LAYER_8
 10
1008.37500000
 20
774.55782480
 11
1011.21013780
 21
777.39124016
  0
LINE
  8
LAYER_8
 10
1008.37500000
 20
778.68257874
 11
1011.07824803
 21
781.38385827
  0
LINE
  8
LAYER_8
 10
1008.37500000
 20
782.80733268
 11
1010.94635827
 21
785.37647638
  0
LINE
  8
LAYER_8
 10
1008.37500000
 20
786.93208661
 11
1010.81446850
 21
789.36909449
  0
LINE
  8
LAYER_8
 10
1008.37500000
 20
791.05684055
 11
1010.68257874
 21
793.36171260
  0
LINE
  8
LAYER_8
 10
1008.37500000
 20
795.18159449
 11
1010.55068898
 21
797.35433071
  0
LINE
  8
LAYER_8
 10
1008.37500000
 20
799.30634843
 11
1010.41879921
 21
801.34694882
  0
LINE
  8
LAYER_8
 10
1008.37500000
 20
803.43110236
 11
1010.28690945
 21
805.33956693
  0
LINE
  8
LAYER_8
 10
1008.37500000
 20
807.55585630
 11
1010.15501969
 21
809.33218504
  0
LINE
  8
LAYER_8
 10
1008.37500000
 20
811.68061024
 11
1010.02312992
 21
813.32480315
  0
LINE
  8
LAYER_8
 10
1008.37500000
 20
815.80536417
 11
1009.89124016
 21
817.31742126
  0
LINE
  8
LAYER_8
 10
1008.37500000
 20
819.93011811
 11
1009.75935039
 21
821.31003937
  0
LINE
  8
LAYER_8
 10
1008.37500000
 20
824.05487205
 11
1009.62746063
 21
825.30265748
  0
LINE
  8
LAYER_8
 10
1008.37500000
 20
828.17962598
 11
1009.49557087
 21
829.29527559
  0
LINE
  8
LAYER_8
 10
1008.37500000
 20
832.30437992
 11
1009.36368110
 21
833.28789370
  0
LINE
  8
LAYER_8
 10
1008.37500000
 20
836.42913386
 11
1009.23179134
 21
837.28051181
  0
LINE
  8
LAYER_8
 10
1008.37500000
 20
840.55388780
 11
1009.09990157
 21
841.27312992
  0
LINE
  8
LAYER_8
 10
1008.37500000
 20
844.67864173
 11
1008.96801181
 21
845.26574803
  0
LINE
  8
LAYER_8
 10
1008.37500000
 20
848.80339567
 11
1008.83612205
 21
849.25836614
  0
LINE
  8
LAYER_8
 10
1008.37500000
 20
852.92814961
 11
1008.70423228
 21
853.25098425
  0
LINE
  8
LAYER_8
 10
1008.37500000
 20
857.05290354
 11
1008.57234252
 21
857.24360236
  0
LINE
  8
LAYER_8
 10
1008.37500000
 20
861.17765748
 11
1008.44045276
 21
861.23622047
  0
LINE
  8
LAYER_8
 10
1012.37500000
 20
867.12500000
 11
1012.37500000
 21
742.12500000
  0
LINE
  8
LAYER_8
 10
1008.37500000
 20
863.12500000
 11
1008.37500000
 21
742.12500000
  0
LINE
  8
LAYER_8
 10
1012.37500000
 20
742.12500000
 11
1008.37500000
 21
742.12500000
  0
LINE
  8
LAYER_8
 10
1007.37500000
 20
694.12500000
 11
1007.37500000
 21
574.12500000
  0
LINE
  8
LAYER_8
 10
1003.37500000
 20
694.12500000
 11
1003.37500000
 21
578.12500000
  0
LINE
  8
LAYER_8
 10
1007.37500000
 20
694.12500000
 11
1003.37500000
 21
694.12500000
  0
LINE
  8
LAYER_8
 10
1008.37500000
 20
694.12500000
 11
1008.37500000
 21
573.12500000
  0
LINE
  8
LAYER_8
 10
1007.37500000
 20
694.12500000
 11
1007.37500000
 21
574.12500000
  0
LINE
  8
LAYER_8
 10
1008.37500000
 20
694.12500000
 11
1007.37500000
 21
694.12500000
  0
LINE
  8
LAYER_8
 10
1010.77214567
 20
570.72785433
 11
1012.37500000
 21
572.33095472
  0
LINE
  8
LAYER_8
 10
1008.70989173
 20
572.79010827
 11
1012.37500000
 21
576.45570866
  0
LINE
  8
LAYER_8
 10
1008.49311024
 20
576.69783465
 11
1012.37500000
 21
580.58046260
  0
LINE
  8
LAYER_8
 10
1008.63410433
 20
580.96358268
 11
1012.37500000
 21
584.70521654
  0
LINE
  8
LAYER_8
 10
1008.77509843
 20
585.22933071
 11
1012.37500000
 21
588.82997047
  0
LINE
  8
LAYER_8
 10
1008.91609252
 20
589.49507874
 11
1012.37500000
 21
592.95472441
  0
LINE
  8
LAYER_8
 10
1009.05708661
 20
593.76082677
 11
1012.37500000
 21
597.07947835
  0
LINE
  8
LAYER_8
 10
1009.19808071
 20
598.02657480
 11
1012.37500000
 21
601.20423228
  0
LINE
  8
LAYER_8
 10
1009.33907480
 20
602.29232283
 11
1012.37500000
 21
605.32898622
  0
LINE
  8
LAYER_8
 10
1009.48006890
 20
606.55807087
 11
1012.37500000
 21
609.45374016
  0
LINE
  8
LAYER_8
 10
1009.62106299
 20
610.82381890
 11
1012.37500000
 21
613.57849409
  0
LINE
  8
LAYER_8
 10
1009.76205709
 20
615.08956693
 11
1012.37500000
 21
617.70324803
  0
LINE
  8
LAYER_8
 10
1009.90305118
 20
619.35531496
 11
1012.37500000
 21
621.82800197
  0
LINE
  8
LAYER_8
 10
1010.04404528
 20
623.62106299
 11
1012.37500000
 21
625.95275591
  0
LINE
  8
LAYER_8
 10
1010.18503937
 20
627.88681102
 11
1012.37500000
 21
630.07750984
  0
LINE
  8
LAYER_8
 10
1010.32603346
 20
632.15255906
 11
1012.37500000
 21
634.20226378
  0
LINE
  8
LAYER_8
 10
1010.46702756
 20
636.41830709
 11
1012.37500000
 21
638.32701772
  0
LINE
  8
LAYER_8
 10
1010.60802165
 20
640.68405512
 11
1012.37500000
 21
642.45177165
  0
LINE
  8
LAYER_8
 10
1010.74901575
 20
644.94980315
 11
1012.37500000
 21
646.57652559
  0
LINE
  8
LAYER_8
 10
1010.89000984
 20
649.21555118
 11
1012.37500000
 21
650.70127953
  0
LINE
  8
LAYER_8
 10
1011.03100394
 20
653.48129921
 11
1012.37500000
 21
654.82603346
  0
LINE
  8
LAYER_8
 10
1011.17199803
 20
657.74704724
 11
1012.37500000
 21
658.95078740
  0
LINE
  8
LAYER_8
 10
1011.31299213
 20
662.01279528
 11
1012.37500000
 21
663.07554134
  0
LINE
  8
LAYER_8
 10
1011.45398622
 20
666.27854331
 11
1012.37500000
 21
667.20029528
  0
LINE
  8
LAYER_8
 10
1011.59498031
 20
670.54429134
 11
1012.37500000
 21
671.32504921
  0
LINE
  8
LAYER_8
 10
1011.73597441
 20
674.81003937
 11
1012.37500000
 21
675.44980315
  0
LINE
  8
LAYER_8
 10
1011.87696850
 20
679.07578740
 11
1012.37500000
 21
679.57455709
  0
LINE
  8
LAYER_8
 10
1012.01796260
 20
683.34153543
 11
1012.37500000
 21
683.69931102
  0
LINE
  8
LAYER_8
 10
1012.15895669
 20
687.60728346
 11
1012.37500000
 21
687.82406496
  0
LINE
  8
LAYER_8
 10
1012.29995079
 20
691.87303150
 11
1012.37500000
 21
691.94881890
  0
LINE
  8
LAYER_8
 10
1008.49311024
 20
576.69808071
 11
1008.37500000
 21
576.57997047
  0
LINE
  8
LAYER_8
 10
1008.63410433
 20
580.96382874
 11
1008.37500000
 21
580.70472441
  0
LINE
  8
LAYER_8
 10
1008.77509843
 20
585.22957677
 11
1008.37500000
 21
584.82947835
  0
LINE
  8
LAYER_8
 10
1008.91609252
 20
589.49532480
 11
1008.37500000
 21
588.95423228
  0
LINE
  8
LAYER_8
 10
1009.05708661
 20
593.76107283
 11
1008.37500000
 21
593.07898622
  0
LINE
  8
LAYER_8
 10
1009.19808071
 20
598.02682087
 11
1008.37500000
 21
597.20374016
  0
LINE
  8
LAYER_8
 10
1009.33907480
 20
602.29256890
 11
1008.37500000
 21
601.32849409
  0
LINE
  8
LAYER_8
 10
1009.48006890
 20
606.55831693
 11
1008.37500000
 21
605.45324803
  0
LINE
  8
LAYER_8
 10
1009.62106299
 20
610.82406496
 11
1008.37500000
 21
609.57800197
  0
LINE
  8
LAYER_8
 10
1009.76205709
 20
615.08981299
 11
1008.37500000
 21
613.70275591
  0
LINE
  8
LAYER_8
 10
1009.90305118
 20
619.35556102
 11
1008.37500000
 21
617.82750984
  0
LINE
  8
LAYER_8
 10
1010.04404528
 20
623.62130906
 11
1008.37500000
 21
621.95226378
  0
LINE
  8
LAYER_8
 10
1010.18503937
 20
627.88705709
 11
1008.37500000
 21
626.07701772
  0
LINE
  8
LAYER_8
 10
1010.32603346
 20
632.15280512
 11
1008.37500000
 21
630.20177165
  0
LINE
  8
LAYER_8
 10
1010.46702756
 20
636.41855315
 11
1008.37500000
 21
634.32652559
  0
LINE
  8
LAYER_8
 10
1010.60802165
 20
640.68430118
 11
1008.37500000
 21
638.45127953
  0
LINE
  8
LAYER_8
 10
1010.74901575
 20
644.95004921
 11
1008.37500000
 21
642.57603346
  0
LINE
  8
LAYER_8
 10
1010.89000984
 20
649.21579724
 11
1008.37500000
 21
646.70078740
  0
LINE
  8
LAYER_8
 10
1011.03100394
 20
653.48154528
 11
1008.37500000
 21
650.82554134
  0
LINE
  8
LAYER_8
 10
1011.17199803
 20
657.74729331
 11
1008.37500000
 21
654.95029528
  0
LINE
  8
LAYER_8
 10
1011.31299213
 20
662.01304134
 11
1008.37500000
 21
659.07504921
  0
LINE
  8
LAYER_8
 10
1011.45398622
 20
666.27878937
 11
1008.37500000
 21
663.19980315
  0
LINE
  8
LAYER_8
 10
1011.59498031
 20
670.54453740
 11
1008.37500000
 21
667.32455709
  0
LINE
  8
LAYER_8
 10
1011.73597441
 20
674.81028543
 11
1008.37500000
 21
671.44931102
  0
LINE
  8
LAYER_8
 10
1011.87696850
 20
679.07603346
 11
1008.37500000
 21
675.57406496
  0
LINE
  8
LAYER_8
 10
1012.01796260
 20
683.34178150
 11
1008.37500000
 21
679.69881890
  0
LINE
  8
LAYER_8
 10
1012.15895669
 20
687.60752953
 11
1008.37500000
 21
683.82357283
  0
LINE
  8
LAYER_8
 10
1012.29995079
 20
691.87327756
 11
1008.37500000
 21
687.94832677
  0
LINE
  8
LAYER_8
 10
1010.43405512
 20
694.12500000
 11
1008.37500000
 21
692.07308071
  0
LINE
  8
LAYER_8
 10
1012.37500000
 20
694.12500000
 11
1012.37500000
 21
569.12500000
  0
LINE
  8
LAYER_8
 10
1008.37500000
 20
694.12500000
 11
1008.37500000
 21
573.12500000
  0
LINE
  8
LAYER_8
 10
1012.37500000
 20
694.12500000
 11
1008.37500000
 21
694.12500000
  0
LINE
  8
LAYER_8
 10
575.37500000
 20
574.12500000
 11
600.37500000
 21
574.12500000
  0
LINE
  8
LAYER_8
 10
579.37500000
 20
578.12500000
 11
600.37500000
 21
578.12500000
  0
LINE
  8
LAYER_8
 10
600.37500000
 20
574.12500000
 11
600.37500000
 21
578.12500000
  0
LINE
  8
LAYER_8
 10
574.37500000
 20
573.12500000
 11
600.37500000
 21
573.12500000
  0
LINE
  8
LAYER_8
 10
575.37500000
 20
574.12500000
 11
600.37500000
 21
574.12500000
  0
LINE
  8
LAYER_8
 10
600.37500000
 20
573.12500000
 11
600.37500000
 21
574.12500000
  0
LINE
  8
LAYER_8
 10
596.71825787
 20
569.12500000
 11
597.20570866
 21
569.61245079
  0
LINE
  8
LAYER_8
 10
592.59350394
 20
569.12500000
 11
593.63090551
 21
570.16240157
  0
LINE
  8
LAYER_8
 10
588.46875000
 20
569.12500000
 11
590.05610236
 21
570.71235236
  0
LINE
  8
LAYER_8
 10
584.34399606
 20
569.12500000
 11
586.48129921
 21
571.26230315
  0
LINE
  8
LAYER_8
 10
580.21924213
 20
569.12500000
 11
582.90649606
 21
571.81225394
  0
LINE
  8
LAYER_8
 10
576.09448819
 20
569.12500000
 11
579.33169291
 21
572.36220472
  0
LINE
  8
LAYER_8
 10
571.96973425
 20
569.12500000
 11
575.75688976
 21
572.91215551
  0
LINE
  8
LAYER_8
 10
600.37500000
 20
572.78174213
 11
597.20570866
 21
569.61245079
  0
LINE
  8
LAYER_8
 10
596.59399606
 20
573.12500000
 11
593.63090551
 21
570.16240157
  0
LINE
  8
LAYER_8
 10
592.46924213
 20
573.12500000
 11
590.05610236
 21
570.71235236
  0
LINE
  8
LAYER_8
 10
588.34448819
 20
573.12500000
 11
586.48129921
 21
571.26230315
  0
LINE
  8
LAYER_8
 10
584.21973425
 20
573.12500000
 11
582.90649606
 21
571.81225394
  0
LINE
  8
LAYER_8
 10
580.09498031
 20
573.12500000
 11
579.33169291
 21
572.36220472
  0
LINE
  8
LAYER_8
 10
575.97022638
 20
573.12500000
 11
575.75688976
 21
572.91215551
  0
LINE
  8
LAYER_8
 10
570.37500000
 20
569.12500000
 11
600.37500000
 21
569.12500000
  0
LINE
  8
LAYER_8
 10
574.37500000
 20
573.12500000
 11
600.37500000
 21
573.12500000
  0
LINE
  8
LAYER_8
 10
600.37500000
 20
569.12500000
 11
600.37500000
 21
573.12500000
  0
LINE
  8
LAYER_8
 10
712.37500000
 20
574.12500000
 11
735.37500000
 21
574.12500000
  0
LINE
  8
LAYER_8
 10
712.37500000
 20
578.12500000
 11
735.37500000
 21
578.12500000
  0
LINE
  8
LAYER_8
 10
712.37500000
 20
574.12500000
 11
712.37500000
 21
578.12500000
  0
LINE
  8
LAYER_8
 10
735.37500000
 20
574.12500000
 11
735.37500000
 21
578.12500000
  0
LINE
  8
LAYER_8
 10
712.37500000
 20
573.12500000
 11
735.37500000
 21
573.12500000
  0
LINE
  8
LAYER_8
 10
712.37500000
 20
574.12500000
 11
735.37500000
 21
574.12500000
  0
LINE
  8
LAYER_8
 10
712.37500000
 20
573.12500000
 11
712.37500000
 21
574.12500000
  0
LINE
  8
LAYER_8
 10
735.37500000
 20
573.12500000
 11
735.37500000
 21
574.12500000
  0
LINE
  8
LAYER_8
 10
732.82701772
 20
569.12500000
 11
733.20472441
 21
569.50246063
  0
LINE
  8
LAYER_8
 10
728.70226378
 20
569.12500000
 11
729.69119094
 21
570.11343504
  0
LINE
  8
LAYER_8
 10
724.57750984
 20
569.12500000
 11
726.17765748
 21
570.72440945
  0
LINE
  8
LAYER_8
 10
720.45275591
 20
569.12500000
 11
722.66412402
 21
571.33538386
  0
LINE
  8
LAYER_8
 10
716.32800197
 20
569.12500000
 11
719.15059055
 21
571.94635827
  0
LINE
  8
LAYER_8
 10
712.37500000
 20
569.29527559
 11
715.63705709
 21
572.55733268
  0
LINE
  8
LAYER_8
 10
735.37500000
 20
571.67298228
 11
733.20472441
 21
569.50246063
  0
LINE
  8
LAYER_8
 10
732.70275591
 20
573.12500000
 11
729.69119094
 21
570.11343504
  0
LINE
  8
LAYER_8
 10
728.57800197
 20
573.12500000
 11
726.17765748
 21
570.72440945
  0
LINE
  8
LAYER_8
 10
724.45324803
 20
573.12500000
 11
722.66412402
 21
571.33538386
  0
LINE
  8
LAYER_8
 10
720.32849409
 20
573.12500000
 11
719.15059055
 21
571.94635827
  0
LINE
  8
LAYER_8
 10
716.20374016
 20
573.12500000
 11
715.63705709
 21
572.55733268
  0
LINE
  8
LAYER_8
 10
712.37500000
 20
569.12500000
 11
735.37500000
 21
569.12500000
  0
LINE
  8
LAYER_8
 10
712.37500000
 20
573.12500000
 11
735.37500000
 21
573.12500000
  0
LINE
  8
LAYER_8
 10
712.37500000
 20
569.12500000
 11
712.37500000
 21
573.12500000
  0
LINE
  8
LAYER_8
 10
735.37500000
 20
569.12500000
 11
735.37500000
 21
573.12500000
  0
LINE
  8
LAYER_8
 10
847.37500000
 20
574.12500000
 11
870.37500000
 21
574.12500000
  0
LINE
  8
LAYER_8
 10
847.37500000
 20
578.12500000
 11
870.37500000
 21
578.12500000
  0
LINE
  8
LAYER_8
 10
847.37500000
 20
574.12500000
 11
847.37500000
 21
578.12500000
  0
LINE
  8
LAYER_8
 10
870.37500000
 20
574.12500000
 11
870.37500000
 21
578.12500000
  0
LINE
  8
LAYER_8
 10
847.37500000
 20
573.12500000
 11
870.37500000
 21
573.12500000
  0
LINE
  8
LAYER_8
 10
847.37500000
 20
574.12500000
 11
870.37500000
 21
574.12500000
  0
LINE
  8
LAYER_8
 10
847.37500000
 20
573.12500000
 11
847.37500000
 21
574.12500000
  0
LINE
  8
LAYER_8
 10
870.37500000
 20
573.12500000
 11
870.37500000
 21
574.12500000
  0
LINE
  8
LAYER_8
 10
868.93577756
 20
569.12500000
 11
869.14911417
 21
569.33809055
  0
LINE
  8
LAYER_8
 10
864.81102362
 20
569.12500000
 11
865.63558071
 21
569.94906496
  0
LINE
  8
LAYER_8
 10
860.68626969
 20
569.12500000
 11
862.12204724
 21
570.56003937
  0
LINE
  8
LAYER_8
 10
856.56151575
 20
569.12500000
 11
858.60851378
 21
571.17101378
  0
LINE
  8
LAYER_8
 10
852.43676181
 20
569.12500000
 11
855.09498031
 21
571.78198819
  0
LINE
  8
LAYER_8
 10
848.31200787
 20
569.12500000
 11
851.58144685
 21
572.39296260
  0
LINE
  8
LAYER_8
 10
847.37500000
 20
572.31102362
 11
848.06791339
 21
573.00393701
  0
LINE
  8
LAYER_8
 10
870.37500000
 20
570.56422244
 11
869.14911417
 21
569.33809055
  0
LINE
  8
LAYER_8
 10
868.81151575
 20
573.12500000
 11
865.63558071
 21
569.94906496
  0
LINE
  8
LAYER_8
 10
864.68676181
 20
573.12500000
 11
862.12204724
 21
570.56003937
  0
LINE
  8
LAYER_8
 10
860.56200787
 20
573.12500000
 11
858.60851378
 21
571.17101378
  0
LINE
  8
LAYER_8
 10
856.43725394
 20
573.12500000
 11
855.09498031
 21
571.78198819
  0
LINE
  8
LAYER_8
 10
852.31250000
 20
573.12500000
 11
851.58144685
 21
572.39296260
  0
LINE
  8
LAYER_8
 10
848.18774606
 20
573.12500000
 11
848.06791339
 21
573.00393701
  0
LINE
  8
LAYER_8
 10
847.37500000
 20
569.12500000
 11
870.37500000
 21
569.12500000
  0
LINE
  8
LAYER_8
 10
847.37500000
 20
573.12500000
 11
870.37500000
 21
573.12500000
  0
LINE
  8
LAYER_8
 10
847.37500000
 20
569.12500000
 11
847.37500000
 21
573.12500000
  0
LINE
  8
LAYER_8
 10
870.37500000
 20
569.12500000
 11
870.37500000
 21
573.12500000
  0
LINE
  8
LAYER_8
 10
982.37500000
 20
574.12500000
 11
1007.37500000
 21
574.12500000
  0
LINE
  8
LAYER_8
 10
982.37500000
 20
578.12500000
 11
1003.37500000
 21
578.12500000
  0
LINE
  8
LAYER_8
 10
982.37500000
 20
574.12500000
 11
982.37500000
 21
578.12500000
  0
LINE
  8
LAYER_8
 10
982.37500000
 20
573.12500000
 11
1008.37500000
 21
573.12500000
  0
LINE
  8
LAYER_8
 10
982.37500000
 20
574.12500000
 11
1007.37500000
 21
574.12500000
  0
LINE
  8
LAYER_8
 10
982.37500000
 20
573.12500000
 11
982.37500000
 21
574.12500000
  0
LINE
  8
LAYER_8
 10
1010.77214567
 20
570.72785433
 11
1009.16904528
 21
569.12500000
  0
LINE
  8
LAYER_8
 10
1008.70989173
 20
572.79010827
 11
1005.04429134
 21
569.12500000
  0
LINE
  8
LAYER_8
 10
1004.29207677
 20
572.49680118
 11
1000.91953740
 21
569.12500000
  0
LINE
  8
LAYER_8
 10
999.41732283
 20
571.74704724
 11
996.79478346
 21
569.12500000
  0
LINE
  8
LAYER_8
 10
994.54256890
 20
570.99729331
 11
992.67002953
 21
569.12500000
  0
LINE
  8
LAYER_8
 10
989.66781496
 20
570.24753937
 11
988.54527559
 21
569.12500000
  0
LINE
  8
LAYER_8
 10
984.79306102
 20
569.49778543
 11
984.42052165
 21
569.12500000
  0
LINE
  8
LAYER_8
 10
1004.29183071
 20
572.49704724
 11
1004.92002953
 21
573.12500000
  0
LINE
  8
LAYER_8
 10
999.41707677
 20
571.74729331
 11
1000.79527559
 21
573.12500000
  0
LINE
  8
LAYER_8
 10
994.54232283
 20
570.99753937
 11
996.67052165
 21
573.12500000
  0
LINE
  8
LAYER_8
 10
989.66756890
 20
570.24778543
 11
992.54576772
 21
573.12500000
  0
LINE
  8
LAYER_8
 10
984.79281496
 20
569.49803150
 11
988.42101378
 21
573.12500000
  0
LINE
  8
LAYER_8
 10
982.37500000
 20
571.20226378
 11
984.29625984
 21
573.12500000
  0
LINE
  8
LAYER_8
 10
982.37500000
 20
569.12500000
 11
1012.37500000
 21
569.12500000
  0
LINE
  8
LAYER_8
 10
982.37500000
 20
573.12500000
 11
1008.37500000
 21
573.12500000
  0
LINE
  8
LAYER_8
 10
982.37500000
 20
569.12500000
 11
982.37500000
 21
573.12500000
  0
LINE
  8
LAYER_3
 10
575.37500000
 20
863.12500000
 11
575.37500000
 21
872.25000000
  0
LINE
  8
LAYER_3
 10
1007.37500000
 20
863.12500000
 11
1007.37500000
 21
872.25000000
  0
LINE
  8
LAYER_3
 10
1008.37500000
 20
862.12500000
 11
1040.00000000
 21
862.12500000
  0
LINE
  8
LAYER_3
 10
1008.37500000
 20
574.12500000
 11
1040.00000000
 21
574.12500000
  0
LINE
  8
LAYER_3
 10
575.37500000
 20
573.12500000
 11
575.37500000
 21
543.50000000
  0
LINE
  8
LAYER_3
 10
1007.37500000
 20
573.12500000
 11
1007.37500000
 21
543.50000000
  0
LINE
  8
LAYER_3
 10
574.37500000
 20
862.12500000
 11
559.87500000
 21
862.12500000
  0
LINE
  8
LAYER_3
 10
574.37500000
 20
574.12500000
 11
548.87500000
 21
574.12500000
  0
LINE
  8
LAYER_3
 10
574.37500000
 20
862.12500000
 11
548.87500000
 21
862.12500000
  0
LINE
  8
LAYER_3
 10
574.37500000
 20
574.12500000
 11
548.87500000
 21
574.12500000
  0
LINE
  8
LAYER_3
 10
1017.23818898
 20
718.12500000
 11
1025.87500000
 21
718.12500000
  0
LINE
  8
LAYER_3
 10
656.37500000
 20
564.26181102
 11
656.37500000
 21
558.87500000
  0
LINE
  8
LAYER_3
 10
570.37500000
 20
826.12500000
 11
560.00000000
 21
826.12500000
  0
LINE
  8
LAYER_3
 10
570.37500000
 20
826.12500000
 11
559.87500000
 21
826.12500000
  0
LINE
  8
LAYER_3
 10
791.37500000
 20
564.26181102
 11
791.37500000
 21
558.87500000
  0
LINE
  8
LAYER_3
 10
926.37500000
 20
564.26181102
 11
926.37500000
 21
558.87500000
  0
TEXT
  1
3 CAR GARAGE
  7
SPHAND
  8
LAYER_4
 10
748.87500000
 20
721.06250000
 40
6.36751629
 50
0.00000000
  0
LINE
  8
LAYER_4
 10
748.87500000
 20
718.25639764
 11
824.50000000
 21
718.25639764
  0
TEXT
  1
ENGINEERED ROOF TRUSSES @ 24" O.C.
  7
SPHAND
  8
LAYER_4
 10
855.81250000
 20
626.12500000
 40
5.09392818
 50
90.00000000
  0
LINE
  8
LAYER_4
 10
857.71973425
 20
614.12500000
 11
857.71973425
 21
787.50000000
  0
LINE
  8
LAYER_4
 10
857.71973425
 20
614.12500000
 11
853.71973425
 21
624.12500000
  0
LINE
  8
LAYER_4
 10
861.71973425
 20
777.50000000
 11
857.71973425
 21
787.50000000
  0
TEXT
  1
TYPICAL GARAGE SLAB
  7
SPHAND
  8
LAYER_4
 10
668.37500000
 20
829.31250000
 40
3.39595212
 50
0.00000000
  0
LINE
  8
LAYER_4
 10
668.37500000
 20
827.82554134
 11
731.12500000
 21
827.82554134
  0
TEXT
  1
4" CONCRETE SLAB
  7
SPHAND
  8
LAYER_12
 10
668.37500000
 20
822.68750000
 40
3.39595212
 50
0.00000000
  0
TEXT
  1
# 10-6"X6" W.W. MESH
  7
SPHAND
  8
LAYER_12
 10
668.37500000
 20
815.68750000
 40
3.39595212
 50
0.00000000
  0
TEXT
  1
5" GRANULAR FILL
  7
SPHAND
  8
LAYER_12
 10
668.37500000
 20
808.68750000
 40
3.39595212
 50
0.00000000
  0
TEXT
  1
SLOPE TO GARAGE DOOR
  7
SPHAND
  8
LAYER_12
 10
668.37500000
 20
801.68750000
 40
3.39595212
 50
0.00000000
  0
TEXT
  1
SEE ROOF FRAMING PLAN FOR DETAILS
  7
SPHAND
  8
LAYER_12
 10
866.18750000
 20
661.62500000
 40
4.24501086
 50
90.00000000
  0
TEXT
  1
MAIN GARAGE PLAN
  7
SPHAND
  8
LAYER_4
 10
585.37500000
 20
526.43750000
 40
5.94298692
 50
0.00000000
  0
TEXT
  1
9'-0" x 7'-0" OVERHEAD DOOR
  7
SPHAND
  8
LAYER_12
 10
626.62500000
 20
589.18750000
 40
3.39595212
 50
0.00000000
  0
TEXT
  1
2-2x12 LINTEL
  7
SPHAND
  8
LAYER_12
 10
602.62500000
 20
581.93750000
 40
3.39595212
 50
0.00000000
  0
TEXT
  1
2-2x8 LINTEL
  7
SPHAND
  8
LAYER_12
 10
1001.18750000
 20
702.62500000
 40
3.39595212
 50
90.00000000
  0
TEXT
  1
2-2x8 LINTEL
  7
SPHAND
  8
LAYER_12
 10
568.93750000
 20
811.37500000
 40
3.39595212
 50
90.00000000
  0
TEXT
  1
9'-0" x 7'-0" OVERHEAD DOOR
  7
SPHAND
  8
LAYER_12
 10
746.62500000
 20
589.18750000
 40
3.39595212
 50
0.00000000
  0
TEXT
  1
2-2x12 LINTEL
  7
SPHAND
  8
LAYER_12
 10
746.62500000
 20
581.93750000
 40
3.39595212
 50
0.00000000
  0
TEXT
  1
9'-0" x 7'-0" OVERHEAD DOOR
  7
SPHAND
  8
LAYER_12
 10
874.25000000
 20
589.18750000
 40
3.39595212
 50
0.00000000
  0
TEXT
  1
2-2x12 LINTEL
  7
SPHAND
  8
LAYER_12
 10
874.25000000
 20
581.93750000
 40
3.39595212
 50
0.00000000
  0
TEXT
  1
BRACE INSIDE CORNERS TO 4' WITH 5/8" EXT. GRADE
  7
SPHAND
  8
LAYER_12
 10
607.12500000
 20
682.68750000
 40
3.39595212
 50
0.00000000
  0
TEXT
  1
PLYWOOD NAILING EVERY 6" ON EDGE AND 
  7
SPHAND
  8
LAYER_12
 10
607.12500000
 20
677.09694882
 40
3.39595212
 50
0.00000000
  0
TEXT
  1
8" ON FIELD. TYPICAL AT OVERHEAD DOOR CORNERS
  7
SPHAND
  8
LAYER_12
 10
607.12500000
 20
671.25639764
 40
3.39595212
 50
0.00000000
  0
TEXT
  1
TYPICAL 2x4 BRICK EXTERIOR WALL - NO INSUL:
  7
Arial Narrow
  8
LAYER_12
 10
897.75000000
 20
819.44931102
 40
3.39595212
 50
0.00000000
  0
TEXT
  1
FACE BRICK
  7
Arial Narrow
  8
LAYER_12
 10
897.75000000
 20
813.54035433
 40
3.39595212
 50
0.00000000
  0
TEXT
  1
7 GAUGE CORRUGATED
  7
Arial Narrow
  8
LAYER_12
 10
897.75000000
 20
807.63139764
 40
3.39595212
 50
0.00000000
  0
TEXT
  1
GALVANIZED METAL BRICK TIES
  7
Arial Narrow
  8
LAYER_12
 10
897.75000000
 20
801.72244094
 40
3.39595212
 50
0.00000000
  0
TEXT
  1
1" AIR SPACE
  7
Arial Narrow
  8
LAYER_12
 10
897.75000000
 20
795.81348425
 40
3.39595212
 50
0.00000000
  0
TEXT
  1
7/16" PLYWOOD SHEATHING
  7
Arial Narrow
  8
LAYER_12
 10
897.75000000
 20
789.90452756
 40
3.39595212
 50
0.00000000
  0
TEXT
  1
2x4 STUDS @ 16" o.c.
  7
Arial Narrow
  8
LAYER_12
 10
897.75000000
 20
783.99557087
 40
3.39595212
 50
0.00000000
  0
TEXT
  1
1/2" DRYWALL
  7
Arial Narrow
  8
LAYER_12
 10
897.75000000
 20
778.08661417
 40
3.39595212
 50
0.00000000
  0
TEXT
  1
TAPED & SANDED
  7
Arial Narrow
  8
LAYER_12
 10
897.75000000
 20
772.17765748
 40
3.39595212
 50
0.00000000
  0
LINE
  8
LAYER_2
 10
599.37500000
 20
576.12500000
 11
602.37500000
 21
576.12500000
  0
LINE
  8
LAYER_2
 10
710.37500000
 20
576.12500000
 11
713.37500000
 21
576.12500000
  0
LINE
  8
LAYER_2
 10
734.37500000
 20
576.12500000
 11
737.37500000
 21
576.12500000
  0
LINE
  8
LAYER_2
 10
845.37500000
 20
576.12500000
 11
848.37500000
 21
576.12500000
  0
LINE
  8
LAYER_2
 10
869.37500000
 20
576.12500000
 11
872.37500000
 21
576.12500000
  0
LINE
  8
LAYER_2
 10
980.37500000
 20
576.12500000
 11
983.37500000
 21
576.12500000
  0
LINE
  8
LAYER_2
  6
MEDIUM
 10
602.37500000
 20
662.12500000
 11
602.37500000
 21
578.12500000
  0
LINE
  8
LAYER_2
  6
MEDIUM
 10
602.37500000
 20
662.12500000
 11
710.37500000
 21
662.12500000
  0
LINE
  8
LAYER_2
  6
MEDIUM
 10
710.37500000
 20
662.12500000
 11
710.37500000
 21
578.37500000
  0
LINE
  8
LAYER_2
  6
DASHDOT
 10
599.87500000
 20
576.00000000
 11
712.25000000
 21
576.00000000
  0
LINE
  8
LAYER_2
  6
MEDIUM
 10
737.37500000
 20
662.12500000
 11
737.37500000
 21
578.12500000
  0
LINE
  8
LAYER_2
  6
MEDIUM
 10
737.37500000
 20
662.12500000
 11
845.37500000
 21
662.12500000
  0
LINE
  8
LAYER_2
  6
MEDIUM
 10
845.37500000
 20
662.12500000
 11
845.37500000
 21
578.37500000
  0
LINE
  8
LAYER_2
  6
DASHDOT
 10
735.25000000
 20
576.00000000
 11
847.50000000
 21
576.00000000
  0
LINE
  8
LAYER_2
  6
MEDIUM
 10
872.37500000
 20
662.12500000
 11
872.37500000
 21
578.12500000
  0
LINE
  8
LAYER_2
  6
MEDIUM
 10
872.37500000
 20
662.12500000
 11
980.37500000
 21
662.12500000
  0
LINE
  8
LAYER_2
  6
MEDIUM
 10
980.37500000
 20
662.12500000
 11
980.37500000
 21
578.37500000
  0
LINE
  8
LAYER_2
  6
DASHDOT
 10
869.50000000
 20
576.00000000
 11
982.87500000
 21
576.00000000
  0
LINE
  8
LAYER_1
 10
1007.37500000
 20
874.12500000
 11
1007.37500000
 21
850.12500000
  0
LINE
  8
LAYER_1
 10
1019.37500000
 20
862.12500000
 11
995.37500000
 21
862.12500000
  0
CIRCLE
  8
LAYER_1
 10
1007.37500000
 20
862.12500000
 40
6.00000000
  0
LINE
  8
LAYER_2
 10
927.00000000
 20
822.00000000
 11
927.00000000
 21
865.37500000
  0
LINE
  8
LAYER_2
 10
928.43676181
 20
859.37500000
 11
927.00000000
 21
865.37500000
  0
LINE
  8
LAYER_2
 10
925.56323819
 20
859.37500000
 11
927.00000000
 21
865.37500000
  0
LINE
  8
LAYER_5
 10
600.37500000
 20
569.12500000
 11
600.37500000
 21
578.12500000
  0
LINE
  8
LAYER_5
 10
712.37500000
 20
569.12500000
 11
712.37500000
 21
578.12500000
  0
LINE
  8
LAYER_5
 10
600.37500000
 20
569.12500000
 11
602.37500000
 21
569.12500000
  0
LINE
  8
LAYER_5
 10
600.37500000
 20
578.12500000
 11
602.37500000
 21
578.12500000
  0
LINE
  8
LAYER_5
 10
712.37500000
 20
578.12500000
 11
710.37500000
 21
578.12500000
  0
LINE
  8
LAYER_5
 10
712.37500000
 20
569.12500000
 11
710.37500000
 21
569.12500000
  0
LINE
  8
LAYER_5
 10
600.37500000
 20
578.12500000
 11
600.37500000
 21
569.12500000
  0
LINE
  8
LAYER_5
 10
602.37500000
 20
578.12500000
 11
602.37500000
 21
569.12500000
  0
LINE
  8
LAYER_5
 10
712.37500000
 20
578.12500000
 11
712.37500000
 21
569.12500000
  0
LINE
  8
LAYER_5
 10
710.37500000
 20
578.12500000
 11
710.37500000
 21
569.12500000
  0
LINE
  8
LAYER_5
 10
602.37500000
 20
578.12500000
 11
710.37500000
 21
578.12500000
  0
LINE
  8
LAYER_5
 10
602.37500000
 20
579.12500000
 11
710.37500000
 21
579.12500000
  0
LINE
  8
LAYER_5
 10
602.37500000
 20
578.12500000
 11
602.37500000
 21
579.12500000
  0
LINE
  8
LAYER_5
 10
710.37500000
 20
578.12500000
 11
710.37500000
 21
579.12500000
  0
TEXT
  1
9'-0"
  7
Arial Narrow
  8
LAYER_5
 10
652.18750000
 20
566.17642717
 40
3.39595212
 50
0.00000000
  0
LINE
  8
LAYER_5
 10
1012.37500000
 20
742.12500000
 11
1003.37500000
 21
742.12500000
  0
LINE
  8
LAYER_5
 10
1012.37500000
 20
694.12500000
 11
1003.37500000
 21
694.12500000
  0
LINE
  8
LAYER_5
 10
1012.37500000
 20
742.12500000
 11
1012.37500000
 21
694.12500000
  0
LINE
  8
LAYER_5
 10
1003.37500000
 20
742.12500000
 11
1003.37500000
 21
694.12500000
  0
LINE
  8
LAYER_5
 10
1012.37500000
 20
742.12500000
 11
1003.37500000
 21
742.12500000
  0
LINE
  8
LAYER_5
 10
1012.37500000
 20
740.12500000
 11
1003.37500000
 21
740.12500000
  0
LINE
  8
LAYER_5
 10
1012.37500000
 20
694.12500000
 11
1003.37500000
 21
694.12500000
  0
LINE
  8
LAYER_5
 10
1012.37500000
 20
696.12500000
 11
1003.37500000
 21
696.12500000
  0
LINE
  8
LAYER_5
 10
1007.87500000
 20
740.12500000
 11
1007.87500000
 21
696.12500000
  0
LINE
  8
LAYER_5
 10
1012.37500000
 20
742.12500000
 11
1012.37500000
 21
694.12500000
  0
LINE
  8
LAYER_5
 10
1003.37500000
 20
742.12500000
 11
1003.37500000
 21
694.12500000
  0
TEXT
  1
4'-0" x 3'-0"
  7
Arial Narrow
  8
LAYER_5
 10
1015.32357283
 20
707.56250000
 40
3.39595212
 50
90.00000000
  0
LINE
  8
LAYER_5
 10
570.37500000
 20
844.37500000
 11
579.37500000
 21
844.37500000
  0
LINE
  8
LAYER_5
 10
570.37500000
 20
807.87500000
 11
579.37500000
 21
807.87500000
  0
LINE
  8
LAYER_5
 10
579.37500000
 20
844.37500000
 11
579.37500000
 21
842.37500000
  0
LINE
  8
LAYER_5
 10
570.37500000
 20
844.37500000
 11
570.37500000
 21
842.37500000
  0
LINE
  8
LAYER_5
 10
570.37500000
 20
807.87500000
 11
570.37500000
 21
809.87500000
  0
LINE
  8
LAYER_5
 10
579.37500000
 20
807.87500000
 11
579.37500000
 21
809.87500000
  0
LINE
  8
LAYER_5
 10
570.37500000
 20
844.37500000
 11
579.37500000
 21
844.37500000
  0
LINE
  8
LAYER_5
 10
570.37500000
 20
842.37500000
 11
579.37500000
 21
842.37500000
  0
LINE
  8
LAYER_5
 10
570.37500000
 20
807.87500000
 11
579.37500000
 21
807.87500000
  0
LINE
  8
LAYER_5
 10
570.37500000
 20
809.87500000
 11
579.37500000
 21
809.87500000
  0
LINE
  8
LAYER_5
 10
579.37500000
 20
842.37500000
 11
595.62500000
 21
814.22908465
  0
LINE
  8
LAYER_5
 10
578.50885827
 20
841.87500000
 11
594.75885827
 21
813.72908465
  0
LINE
  8
LAYER_5
 10
578.50885827
 20
841.87500000
 11
579.37500000
 21
842.37500000
  0
LINE
  8
LAYER_5
 10
594.75885827
 20
813.72908465
 11
595.62500000
 21
814.22908465
  0
ARC
  8
LAYER_5
 10
579.37623031
 20
842.37155512
 40
32.49630906
 50
269.60472411
 51
300.00107920
  0
LINE
  8
LAYER_5
 10
570.37500000
 20
844.37500000
 11
570.37500000
 21
807.87500000
  0
TEXT
  1
2'-8"
  7
Arial Narrow
  8
LAYER_5
 10
575.39197835
 20
821.93750000
 40
3.39595212
 50
90.00000000
  0
LINE
  8
LAYER_5
 10
735.37500000
 20
569.12500000
 11
735.37500000
 21
578.12500000
  0
LINE
  8
LAYER_5
 10
847.37500000
 20
569.12500000
 11
847.37500000
 21
578.12500000
  0
LINE
  8
LAYER_5
 10
735.37500000
 20
569.12500000
 11
737.37500000
 21
569.12500000
  0
LINE
  8
LAYER_5
 10
735.37500000
 20
578.12500000
 11
737.37500000
 21
578.12500000
  0
LINE
  8
LAYER_5
 10
847.37500000
 20
578.12500000
 11
845.37500000
 21
578.12500000
  0
LINE
  8
LAYER_5
 10
847.37500000
 20
569.12500000
 11
845.37500000
 21
569.12500000
  0
LINE
  8
LAYER_5
 10
735.37500000
 20
578.12500000
 11
735.37500000
 21
569.12500000
  0
LINE
  8
LAYER_5
 10
737.37500000
 20
578.12500000
 11
737.37500000
 21
569.12500000
  0
LINE
  8
LAYER_5
 10
847.37500000
 20
578.12500000
 11
847.37500000
 21
569.12500000
  0
LINE
  8
LAYER_5
 10
845.37500000
 20
578.12500000
 11
845.37500000
 21
569.12500000
  0
LINE
  8
LAYER_5
 10
737.37500000
 20
578.12500000
 11
845.37500000
 21
578.12500000
  0
LINE
  8
LAYER_5
 10
737.37500000
 20
579.12500000
 11
845.37500000
 21
579.12500000
  0
LINE
  8
LAYER_5
 10
737.37500000
 20
578.12500000
 11
737.37500000
 21
579.12500000
  0
LINE
  8
LAYER_5
 10
845.37500000
 20
578.12500000
 11
845.37500000
 21
579.12500000
  0
TEXT
  1
9'-0"
  7
Arial Narrow
  8
LAYER_5
 10
787.18750000
 20
566.17642717
 40
3.39595212
 50
0.00000000
  0
LINE
  8
LAYER_5
 10
870.37500000
 20
569.12500000
 11
870.37500000
 21
578.12500000
  0
LINE
  8
LAYER_5
 10
982.37500000
 20
569.12500000
 11
982.37500000
 21
578.12500000
  0
LINE
  8
LAYER_5
 10
870.37500000
 20
569.12500000
 11
872.37500000
 21
569.12500000
  0
LINE
  8
LAYER_5
 10
870.37500000
 20
578.12500000
 11
872.37500000
 21
578.12500000
  0
LINE
  8
LAYER_5
 10
982.37500000
 20
578.12500000
 11
980.37500000
 21
578.12500000
  0
LINE
  8
LAYER_5
 10
982.37500000
 20
569.12500000
 11
980.37500000
 21
569.12500000
  0
LINE
  8
LAYER_5
 10
870.37500000
 20
578.12500000
 11
870.37500000
 21
569.12500000
  0
LINE
  8
LAYER_5
 10
872.37500000
 20
578.12500000
 11
872.37500000
 21
569.12500000
  0
LINE
  8
LAYER_5
 10
982.37500000
 20
578.12500000
 11
982.37500000
 21
569.12500000
  0
LINE
  8
LAYER_5
 10
980.37500000
 20
578.12500000
 11
980.37500000
 21
569.12500000
  0
LINE
  8
LAYER_5
 10
872.37500000
 20
578.12500000
 11
980.37500000
 21
578.12500000
  0
LINE
  8
LAYER_5
 10
872.37500000
 20
579.12500000
 11
980.37500000
 21
579.12500000
  0
LINE
  8
LAYER_5
 10
872.37500000
 20
578.12500000
 11
872.37500000
 21
579.12500000
  0
LINE
  8
LAYER_5
 10
980.37500000
 20
578.12500000
 11
980.37500000
 21
579.12500000
  0
TEXT
  1
9'-0"
  7
Arial Narrow
  8
LAYER_5
 10
922.18750000
 20
566.17642717
 40
3.39595212
 50
0.00000000
  0
LINE
  8
LAYER_4
 10
606.12500000
 20
678.35826772
 11
599.87500000
 21
685.00000000
  0
LINE
  8
LAYER_4
 10
599.87500000
 20
685.00000000
 11
583.62500000
 21
598.62500000
  0
LINE
  8
LAYER_4
 10
583.32209646
 20
604.78690945
 11
583.62500000
 21
598.62500000
  0
LINE
  8
LAYER_4
 10
586.14640748
 20
604.25590551
 11
583.62500000
 21
598.62500000
  0
LINE
  8
LAYER_11
 10
575.37500000
 20
545.50000000
 11
1007.37500000
 21
545.50000000
  0
LINE
  8
LAYER_11
 10
1005.12500000
 20
543.25000000
 11
1009.62500000
 21
547.75000000
  0
LINE
  8
LAYER_11
 10
1005.37500000
 20
543.25000000
 11
1009.87500000
 21
547.75000000
  0
LINE
  8
LAYER_11
 10
1004.87500000
 20
543.25000000
 11
1009.37500000
 21
547.75000000
  0
LINE
  8
LAYER_11
 10
577.62500000
 20
547.75000000
 11
573.12500000
 21
543.25000000
  0
LINE
  8
LAYER_11
 10
577.37500000
 20
547.75000000
 11
572.87500000
 21
543.25000000
  0
LINE
  8
LAYER_11
 10
577.87500000
 20
547.75000000
 11
573.37500000
 21
543.25000000
  0
TEXT
  1
36'-0"
  7
Arial Narrow
  8
LAYER_11
 10
783.31250000
 20
550.25000000
 40
5.09392818
 50
0.00000000
  0
LINE
  8
LAYER_11
 10
1038.00000000
 20
574.12500000
 11
1038.00000000
 21
862.12500000
  0
LINE
  8
LAYER_11
 10
1040.25000000
 20
859.87500000
 11
1035.75000000
 21
864.37500000
  0
LINE
  8
LAYER_11
 10
1040.25000000
 20
860.12500000
 11
1035.75000000
 21
864.62500000
  0
LINE
  8
LAYER_11
 10
1040.25000000
 20
859.62500000
 11
1035.75000000
 21
864.12500000
  0
LINE
  8
LAYER_11
 10
1035.75000000
 20
576.37500000
 11
1040.25000000
 21
571.87500000
  0
LINE
  8
LAYER_11
 10
1035.75000000
 20
576.12500000
 11
1040.25000000
 21
571.62500000
  0
LINE
  8
LAYER_11
 10
1035.75000000
 20
576.62500000
 11
1040.25000000
 21
572.12500000
  0
TEXT
  1
24'-0"
  7
Arial Narrow
  8
LAYER_11
 10
1032.37500000
 20
710.06250000
 40
5.09392818
 50
90.00000000
  0
LINE
  8
LAYER_11
 10
575.37500000
 20
870.25000000
 11
1007.37500000
 21
870.25000000
  0
LINE
  8
LAYER_11
 10
1005.12500000
 20
868.00000000
 11
1009.62500000
 21
872.50000000
  0
LINE
  8
LAYER_11
 10
1005.37500000
 20
868.00000000
 11
1009.87500000
 21
872.50000000
  0
LINE
  8
LAYER_11
 10
1004.87500000
 20
868.00000000
 11
1009.37500000
 21
872.50000000
  0
LINE
  8
LAYER_11
 10
577.62500000
 20
872.50000000
 11
573.12500000
 21
868.00000000
  0
LINE
  8
LAYER_11
 10
577.37500000
 20
872.50000000
 11
572.87500000
 21
868.00000000
  0
LINE
  8
LAYER_11
 10
577.87500000
 20
872.50000000
 11
573.37500000
 21
868.00000000
  0
TEXT
  1
36'-0"
  7
Arial Narrow
  8
LAYER_11
 10
783.31250000
 20
875.87500000
 40
5.09392818
 50
0.00000000
  0
LINE
  8
LAYER_11
 10
550.87500000
 20
574.12500000
 11
550.87500000
 21
862.12500000
  0
LINE
  8
LAYER_11
 10
553.12500000
 20
859.87500000
 11
548.62500000
 21
864.37500000
  0
LINE
  8
LAYER_11
 10
553.12500000
 20
860.12500000
 11
548.62500000
 21
864.62500000
  0
LINE
  8
LAYER_11
 10
553.12500000
 20
859.62500000
 11
548.62500000
 21
864.12500000
  0
LINE
  8
LAYER_11
 10
548.62500000
 20
576.37500000
 11
553.12500000
 21
571.87500000
  0
LINE
  8
LAYER_11
 10
548.62500000
 20
576.12500000
 11
553.12500000
 21
571.62500000
  0
LINE
  8
LAYER_11
 10
548.62500000
 20
576.62500000
 11
553.12500000
 21
572.12500000
  0
TEXT
  1
24'-0"
  7
Arial Narrow
  8
LAYER_11
 10
556.47687008
 20
710.06250000
 40
5.09392818
 50
90.00000000
  0
LINE
  8
LAYER_11
 10
575.37500000
 20
560.87500000
 11
656.37500000
 21
560.87500000
  0
LINE
  8
LAYER_11
 10
654.12500000
 20
558.62500000
 11
658.62500000
 21
563.12500000
  0
LINE
  8
LAYER_11
 10
654.37500000
 20
558.62500000
 11
658.87500000
 21
563.12500000
  0
LINE
  8
LAYER_11
 10
653.87500000
 20
558.62500000
 11
658.37500000
 21
563.12500000
  0
LINE
  8
LAYER_11
 10
577.62500000
 20
563.12500000
 11
573.12500000
 21
558.62500000
  0
LINE
  8
LAYER_11
 10
577.37500000
 20
563.12500000
 11
572.87500000
 21
558.62500000
  0
LINE
  8
LAYER_11
 10
577.87500000
 20
563.12500000
 11
573.37500000
 21
558.62500000
  0
TEXT
  1
6'-9"
  7
Arial Narrow
  8
LAYER_11
 10
609.56250000
 20
566.50000000
 40
5.09392818
 50
0.00000000
  0
LINE
  8
LAYER_11
 10
1023.87500000
 20
574.12500000
 11
1023.87500000
 21
718.12500000
  0
LINE
  8
LAYER_11
 10
1026.12500000
 20
715.87500000
 11
1021.62500000
 21
720.37500000
  0
LINE
  8
LAYER_11
 10
1026.12500000
 20
716.12500000
 11
1021.62500000
 21
720.62500000
  0
LINE
  8
LAYER_11
 10
1026.12500000
 20
715.62500000
 11
1021.62500000
 21
720.12500000
  0
LINE
  8
LAYER_11
 10
1021.62500000
 20
576.37500000
 11
1026.12500000
 21
571.87500000
  0
LINE
  8
LAYER_11
 10
1021.62500000
 20
576.12500000
 11
1026.12500000
 21
571.62500000
  0
LINE
  8
LAYER_11
 10
1021.62500000
 20
576.62500000
 11
1026.12500000
 21
572.12500000
  0
TEXT
  1
12'-0"
  7
Arial Narrow
  8
LAYER_11
 10
1018.25000000
 20
638.06250000
 40
5.09392818
 50
90.00000000
  0
LINE
  8
LAYER_11
 10
1023.87500000
 20
718.12500000
 11
1023.87500000
 21
862.12500000
  0
LINE
  8
LAYER_11
 10
1026.12500000
 20
859.87500000
 11
1021.62500000
 21
864.37500000
  0
LINE
  8
LAYER_11
 10
1026.12500000
 20
860.12500000
 11
1021.62500000
 21
864.62500000
  0
LINE
  8
LAYER_11
 10
1026.12500000
 20
859.62500000
 11
1021.62500000
 21
864.12500000
  0
LINE
  8
LAYER_11
 10
1021.62500000
 20
720.37500000
 11
1026.12500000
 21
715.87500000
  0
LINE
  8
LAYER_11
 10
1021.62500000
 20
720.12500000
 11
1026.12500000
 21
715.62500000
  0
LINE
  8
LAYER_11
 10
1021.62500000
 20
720.62500000
 11
1026.12500000
 21
716.12500000
  0
TEXT
  1
12'-0"
  7
Arial Narrow
  8
LAYER_11
 10
1018.25000000
 20
782.06250000
 40
5.09392818
 50
90.00000000
  0
LINE
  8
LAYER_11
 10
561.87500000
 20
826.12500000
 11
561.87500000
 21
862.12500000
  0
LINE
  8
LAYER_11
 10
564.12500000
 20
859.87500000
 11
559.62500000
 21
864.37500000
  0
LINE
  8
LAYER_11
 10
564.12500000
 20
860.12500000
 11
559.62500000
 21
864.62500000
  0
LINE
  8
LAYER_11
 10
564.12500000
 20
859.62500000
 11
559.62500000
 21
864.12500000
  0
LINE
  8
LAYER_11
 10
559.62500000
 20
828.37500000
 11
564.12500000
 21
823.87500000
  0
LINE
  8
LAYER_11
 10
559.62500000
 20
828.12500000
 11
564.12500000
 21
823.62500000
  0
LINE
  8
LAYER_11
 10
559.62500000
 20
828.62500000
 11
564.12500000
 21
824.12500000
  0
TEXT
  1
3'-0"
  7
Arial Narrow
  8
LAYER_11
 10
556.25000000
 20
837.81250000
 40
5.09392818
 50
90.00000000
  0
LINE
  8
LAYER_11
 10
656.37500000
 20
560.87500000
 11
791.37500000
 21
560.87500000
  0
LINE
  8
LAYER_11
 10
789.12500000
 20
558.62500000
 11
793.62500000
 21
563.12500000
  0
LINE
  8
LAYER_11
 10
789.37500000
 20
558.62500000
 11
793.87500000
 21
563.12500000
  0
LINE
  8
LAYER_11
 10
788.87500000
 20
558.62500000
 11
793.37500000
 21
563.12500000
  0
LINE
  8
LAYER_11
 10
658.62500000
 20
563.12500000
 11
654.12500000
 21
558.62500000
  0
LINE
  8
LAYER_11
 10
658.37500000
 20
563.12500000
 11
653.87500000
 21
558.62500000
  0
LINE
  8
LAYER_11
 10
658.87500000
 20
563.12500000
 11
654.37500000
 21
558.62500000
  0
TEXT
  1
11'-3"
  7
Arial Narrow
  8
LAYER_11
 10
715.81250000
 20
566.50000000
 40
5.09392818
 50
0.00000000
  0
LINE
  8
LAYER_11
 10
791.37500000
 20
560.87500000
 11
926.37500000
 21
560.87500000
  0
LINE
  8
LAYER_11
 10
924.12500000
 20
558.62500000
 11
928.62500000
 21
563.12500000
  0
LINE
  8
LAYER_11
 10
924.37500000
 20
558.62500000
 11
928.87500000
 21
563.12500000
  0
LINE
  8
LAYER_11
 10
923.87500000
 20
558.62500000
 11
928.37500000
 21
563.12500000
  0
LINE
  8
LAYER_11
 10
793.62500000
 20
563.12500000
 11
789.12500000
 21
558.62500000
  0
LINE
  8
LAYER_11
 10
793.37500000
 20
563.12500000
 11
788.87500000
 21
558.62500000
  0
LINE
  8
LAYER_11
 10
793.87500000
 20
563.12500000
 11
789.37500000
 21
558.62500000
  0
TEXT
  1
11'-3"
  7
Arial Narrow
  8
LAYER_11
 10
850.81250000
 20
566.50000000
 40
5.09392818
 50
0.00000000
  0
LINE
  8
LAYER_11
 10
926.37500000
 20
560.87500000
 11
1007.37500000
 21
560.87500000
  0
LINE
  8
LAYER_11
 10
1005.12500000
 20
558.62500000
 11
1009.62500000
 21
563.12500000
  0
LINE
  8
LAYER_11
 10
1005.37500000
 20
558.62500000
 11
1009.87500000
 21
563.12500000
  0
LINE
  8
LAYER_11
 10
1004.87500000
 20
558.62500000
 11
1009.37500000
 21
563.12500000
  0
LINE
  8
LAYER_11
 10
928.62500000
 20
563.12500000
 11
924.12500000
 21
558.62500000
  0
LINE
  8
LAYER_11
 10
928.37500000
 20
563.12500000
 11
923.87500000
 21
558.62500000
  0
LINE
  8
LAYER_11
 10
928.87500000
 20
563.12500000
 11
924.37500000
 21
558.62500000
  0
TEXT
  1
6'-9"
  7
Arial Narrow
  8
LAYER_11
 10
960.56250000
 20
566.50000000
 40
5.09392818
 50
0.00000000
  0
ENDSEC
  0
EOF
