  0
SECTION
  2
HEADER
  9
$LIMMIN
 10
0.00000000
 20
0.00000000
  9
$LIMMAX
 10
1920.00000000
 20
1284.00000000
  9
$EXTMIN
 10
0.00000000
 20
0.00000000
  9
$EXTMAX
 10
1920.00000000
 20
1284.00000000
  9
$LUNITS
 70
4
  0
ENDSEC
  0
SECTION
  2
TABLES
  0
TABLE
  2
LTYPE
 70
5
  0
LTYPE
  2
LARGE
 70
64
  3
___   ___
 72
65
 73
2
 40
20.00000000
 49
10.00000000
 49
-10.00000000
  0
LTYPE
  2
MEDIUM
 70
64
  3
__  __
 72
65
 73
2
 40
10.00000000
 49
5.00000000
 49
-5.00000000
  0
LTYPE
  2
SMALL
 70
64
  3
_ _
 72
65
 73
2
 40
5.00000000
 49
2.00000000
 49
-3.00000000
  0
LTYPE
  2
DASHDOT
 70
64
  3
___ . ___
 72
65
 73
4
 40
21.00000000
 49
15.00000000
 49
-3.00000000
 49
0.00000000
 49
-3.00000000
  0
LTYPE
  2
LONG
 70
64
  3
____ ____
 72
65
 73
2
 40
18.00000000
 49
14.00000000
 49
-4.00000000
  0
ENDTAB
  0
TABLE
  2
LAYER
 70
15
  0
LAYER
  2
LAYER_1
 70
0
 62
1
  6
CONTINUOUS
  0
LAYER
  2
LAYER_2
 70
0
 62
2
  6
CONTINUOUS
  0
LAYER
  2
LAYER_3
 70
0
 62
3
  6
CONTINUOUS
  0
LAYER
  2
LAYER_4
 70
0
 62
4
  6
CONTINUOUS
  0
LAYER
  2
LAYER_5
 70
0
 62
5
  6
CONTINUOUS
  0
LAYER
  2
LAYER_6
 70
0
 62
6
  6
CONTINUOUS
  0
LAYER
  2
LAYER_7
 70
0
 62
7
  6
CONTINUOUS
  0
LAYER
  2
LAYER_8
 70
0
 62
8
  6
CONTINUOUS
  0
LAYER
  2
LAYER_9
 70
0
 62
9
  6
CONTINUOUS
  0
LAYER
  2
LAYER_10
 70
0
 62
10
  6
CONTINUOUS
  0
LAYER
  2
LAYER_11
 70
0
 62
11
  6
CONTINUOUS
  0
LAYER
  2
LAYER_12
 70
0
 62
12
  6
CONTINUOUS
  0
LAYER
  2
LAYER_13
 70
0
 62
13
  6
CONTINUOUS
  0
LAYER
  2
LAYER_14
 70
0
 62
14
  6
CONTINUOUS
  0
LAYER
  2
LAYER_15
 70
0
 62
15
  6
CONTINUOUS
  0
ENDTAB
  0
ENDSEC
  0
SECTION
  2
ENTITIES
  0
TEXT
  1
REAR FRAMING PLAN
  7
SPHAND
  8
LAYER_4
 10
545.62500000
 20
137.62500000
 40
8.06549235
 50
0.00000000
  0
TEXT
  1
2-2x8 HDR
  7
SPHAND
  8
LAYER_12
 10
806.87500000
 20
338.43750000
 40
3.82048149
 50
0.00000000
  0
TEXT
  1
WINDOW
  7
SPHAND
  8
LAYER_12
 10
812.50000000
 20
327.93750000
 40
3.82048149
 50
0.00000000
  0
TEXT
  1
OPENING
  7
SPHAND
  8
LAYER_12
 10
812.50000000
 20
320.93750000
 40
3.82048149
 50
0.00000000
  0
TEXT
  1
FLOOR SYSTEM
  7
SPHAND
  8
LAYER_12
 10
752.37500000
 20
255.06250000
 40
3.82048149
 50
0.00000000
  0
TEXT
  1
2x4 STUDS  16" O.C. TYPICAL
  7
SPHAND
  8
LAYER_12
 10
850.74409449
 20
160.75000000
 40
3.82048149
 50
90.00000000
  0
TEXT
  1
2x4 STUDS @ 16" 0.C.  TYP.
  7
SPHAND
  8
LAYER_12
 10
601.68750000
 20
171.62500000
 40
3.82048149
 50
90.00000000
  0
LINE
  8
LAYER_2
 10
541.50000000
 20
151.37500000
 11
973.50000000
 21
151.37500000
  0
LINE
  8
LAYER_2
 10
541.50000000
 20
262.87500000
 11
541.50000000
 21
151.37500000
  0
LINE
  8
LAYER_2
 10
973.50000000
 20
262.87500000
 11
973.50000000
 21
151.37500000
  0
LINE
  8
LAYER_2
 10
542.50000000
 20
151.37500000
 11
972.50000000
 21
151.37500000
  0
LINE
  8
LAYER_2
 10
736.50000000
 20
350.37500000
 11
819.25000000
 21
391.75000000
  0
LINE
  8
LAYER_2
 10
902.00000000
 20
350.37500000
 11
902.00000000
 21
261.37500000
  0
LINE
  8
LAYER_2
 10
736.50000000
 20
350.37500000
 11
736.50000000
 21
261.37500000
  0
LINE
  8
LAYER_2
 10
736.50000000
 20
350.37500000
 11
819.25000000
 21
391.75000000
  0
LINE
  8
LAYER_2
 10
819.25000000
 20
391.75000000
 11
902.00000000
 21
350.37524606
  0
LINE
  8
LAYER_2
 10
736.50000000
 20
261.37500000
 11
902.00000000
 21
261.37500000
  0
LINE
  8
LAYER_2
 10
836.50000000
 20
379.12500000
 11
836.50000000
 21
262.87500000
  0
LINE
  8
LAYER_2
 10
800.50000000
 20
378.37500000
 11
800.50000000
 21
262.87500000
  0
LINE
  8
LAYER_2
 10
800.50000000
 20
335.37500000
 11
836.50000000
 21
335.37500000
  0
LINE
  8
LAYER_2
 10
800.50000000
 20
299.37500000
 11
836.50000000
 21
299.37500000
  0
LINE
  8
LAYER_2
 10
541.50000000
 20
251.87500000
 11
973.50000000
 21
251.87500000
  0
LINE
  8
LAYER_2
 10
542.50000000
 20
251.87500000
 11
972.50000000
 21
251.87500000
  0
LINE
  8
LAYER_2
 10
541.50000000
 20
250.37500000
 11
973.50000000
 21
250.37500000
  0
LINE
  8
LAYER_2
 10
542.50000000
 20
250.37500000
 11
972.50000000
 21
250.37500000
  0
LINE
  8
LAYER_2
 10
541.50000000
 20
248.87500000
 11
973.50000000
 21
248.87500000
  0
LINE
  8
LAYER_2
 10
542.50000000
 20
248.87500000
 11
972.50000000
 21
248.87500000
  0
LINE
  8
LAYER_2
 10
541.50000000
 20
152.87500000
 11
973.50000000
 21
152.87500000
  0
LINE
  8
LAYER_2
 10
542.50000000
 20
152.87500000
 11
972.50000000
 21
152.87500000
  0
LINE
  8
LAYER_2
 10
541.50000000
 20
261.37500000
 11
973.50000000
 21
261.37500000
  0
LINE
  8
LAYER_2
 10
541.50000000
 20
262.87500000
 11
973.50000000
 21
262.87500000
  0
LINE
  8
LAYER_2
 10
736.50000000
 20
348.37500000
 11
819.25000000
 21
389.75000000
  0
LINE
  8
LAYER_2
 10
736.50000000
 20
348.37500000
 11
819.25000000
 21
389.75000000
  0
LINE
  8
LAYER_2
 10
819.25000000
 20
389.75000000
 11
902.00000000
 21
348.37524606
  0
LINE
  8
LAYER_2
 10
736.50000000
 20
346.37500000
 11
819.25000000
 21
387.75000000
  0
LINE
  8
LAYER_2
 10
736.50000000
 20
346.37500000
 11
819.25000000
 21
387.75000000
  0
LINE
  8
LAYER_2
 10
819.25000000
 20
387.75000000
 11
902.00000000
 21
346.37524606
  0
LINE
  8
LAYER_2
 10
838.00000000
 20
378.37500000
 11
838.00000000
 21
262.87500000
  0
LINE
  8
LAYER_2
 10
839.50000000
 20
377.62500000
 11
839.50000000
 21
262.87500000
  0
LINE
  8
LAYER_2
 10
799.00000000
 20
377.62500000
 11
799.00000000
 21
262.87500000
  0
LINE
  8
LAYER_2
 10
797.50000000
 20
376.87500000
 11
797.50000000
 21
262.87500000
  0
LINE
  8
LAYER_2
 10
800.50000000
 20
342.87500000
 11
836.50000000
 21
342.87500000
  0
LINE
  8
LAYER_2
 10
800.50000000
 20
298.00000000
 11
836.50000000
 21
298.00000000
  0
LINE
  8
LAYER_2
 10
972.00000000
 20
248.87500000
 11
972.00000000
 21
152.87500000
  0
LINE
  8
LAYER_2
 10
968.50000000
 20
248.87500000
 11
968.50000000
 21
152.87500000
  0
LINE
  8
LAYER_2
 10
543.00000000
 20
248.87500000
 11
543.00000000
 21
152.87500000
  0
LINE
  8
LAYER_2
 10
546.50000000
 20
248.87500000
 11
546.50000000
 21
152.87500000
  0
LINE
  8
LAYER_2
 10
924.62500000
 20
248.87500000
 11
924.62500000
 21
152.87500000
  0
LINE
  8
LAYER_2
 10
926.12500000
 20
248.87500000
 11
926.12500000
 21
152.87500000
  0
LINE
  8
LAYER_2
 10
940.62500000
 20
248.87500000
 11
940.62500000
 21
152.87500000
  0
LINE
  8
LAYER_2
 10
942.12500000
 20
248.87500000
 11
942.12500000
 21
152.87500000
  0
LINE
  8
LAYER_2
 10
956.62500000
 20
248.87500000
 11
956.62500000
 21
152.87500000
  0
LINE
  8
LAYER_2
 10
958.12500000
 20
248.87500000
 11
958.12500000
 21
152.87500000
  0
LINE
  8
LAYER_2
 10
908.62500000
 20
248.87500000
 11
908.62500000
 21
152.87500000
  0
LINE
  8
LAYER_2
 10
910.12500000
 20
248.87500000
 11
910.12500000
 21
152.87500000
  0
LINE
  8
LAYER_2
 10
892.62500000
 20
248.87500000
 11
892.62500000
 21
152.87500000
  0
LINE
  8
LAYER_2
 10
894.12500000
 20
248.87500000
 11
894.12500000
 21
152.87500000
  0
LINE
  8
LAYER_2
 10
876.62500000
 20
248.87500000
 11
876.62500000
 21
152.87500000
  0
LINE
  8
LAYER_2
 10
878.12500000
 20
248.87500000
 11
878.12500000
 21
152.87500000
  0
LINE
  8
LAYER_2
 10
860.62500000
 20
248.87500000
 11
860.62500000
 21
152.87500000
  0
LINE
  8
LAYER_2
 10
862.12500000
 20
248.87500000
 11
862.12500000
 21
152.87500000
  0
LINE
  8
LAYER_2
 10
844.62500000
 20
248.87500000
 11
844.62500000
 21
152.87500000
  0
LINE
  8
LAYER_2
 10
846.12500000
 20
248.87500000
 11
846.12500000
 21
152.87500000
  0
LINE
  8
LAYER_2
 10
828.62500000
 20
248.87500000
 11
828.62500000
 21
152.87500000
  0
LINE
  8
LAYER_2
 10
830.12500000
 20
248.87500000
 11
830.12500000
 21
152.87500000
  0
LINE
  8
LAYER_2
 10
812.62500000
 20
248.87500000
 11
812.62500000
 21
152.87500000
  0
LINE
  8
LAYER_2
 10
814.12500000
 20
248.87500000
 11
814.12500000
 21
152.87500000
  0
LINE
  8
LAYER_2
 10
796.62500000
 20
248.87500000
 11
796.62500000
 21
152.87500000
  0
LINE
  8
LAYER_2
 10
798.12500000
 20
248.87500000
 11
798.12500000
 21
152.87500000
  0
LINE
  8
LAYER_2
 10
780.62500000
 20
248.87500000
 11
780.62500000
 21
152.87500000
  0
LINE
  8
LAYER_2
 10
782.12500000
 20
248.87500000
 11
782.12500000
 21
152.87500000
  0
LINE
  8
LAYER_2
 10
764.62500000
 20
248.87500000
 11
764.62500000
 21
152.87500000
  0
LINE
  8
LAYER_2
 10
766.12500000
 20
248.87500000
 11
766.12500000
 21
152.87500000
  0
LINE
  8
LAYER_2
 10
748.62500000
 20
248.87500000
 11
748.62500000
 21
152.87500000
  0
LINE
  8
LAYER_2
 10
750.12500000
 20
248.87500000
 11
750.12500000
 21
152.87500000
  0
LINE
  8
LAYER_2
 10
732.62500000
 20
248.87500000
 11
732.62500000
 21
152.87500000
  0
LINE
  8
LAYER_2
 10
734.12500000
 20
248.87500000
 11
734.12500000
 21
152.87500000
  0
LINE
  8
LAYER_2
 10
716.62500000
 20
248.87500000
 11
716.62500000
 21
152.87500000
  0
LINE
  8
LAYER_2
 10
718.12500000
 20
248.87500000
 11
718.12500000
 21
152.87500000
  0
LINE
  8
LAYER_2
 10
700.62500000
 20
248.87500000
 11
700.62500000
 21
152.87500000
  0
LINE
  8
LAYER_2
 10
702.12500000
 20
248.87500000
 11
702.12500000
 21
152.87500000
  0
LINE
  8
LAYER_2
 10
684.62500000
 20
248.87500000
 11
684.62500000
 21
152.87500000
  0
LINE
  8
LAYER_2
 10
686.12500000
 20
248.87500000
 11
686.12500000
 21
152.87500000
  0
LINE
  8
LAYER_2
 10
668.62500000
 20
248.87500000
 11
668.62500000
 21
152.87500000
  0
LINE
  8
LAYER_2
 10
670.12500000
 20
248.87500000
 11
670.12500000
 21
152.87500000
  0
LINE
  8
LAYER_2
 10
652.62500000
 20
248.87500000
 11
652.62500000
 21
152.87500000
  0
LINE
  8
LAYER_2
 10
654.12500000
 20
248.87500000
 11
654.12500000
 21
152.87500000
  0
LINE
  8
LAYER_2
 10
636.62500000
 20
248.87500000
 11
636.62500000
 21
152.87500000
  0
LINE
  8
LAYER_2
 10
638.12500000
 20
248.87500000
 11
638.12500000
 21
152.87500000
  0
LINE
  8
LAYER_2
 10
620.62500000
 20
248.87500000
 11
620.62500000
 21
152.87500000
  0
LINE
  8
LAYER_2
 10
622.12500000
 20
248.87500000
 11
622.12500000
 21
152.87500000
  0
LINE
  8
LAYER_2
 10
604.62500000
 20
248.87500000
 11
604.62500000
 21
152.87500000
  0
LINE
  8
LAYER_2
 10
606.12500000
 20
248.87500000
 11
606.12500000
 21
152.87500000
  0
LINE
  8
LAYER_2
 10
588.62500000
 20
248.87500000
 11
588.62500000
 21
152.87500000
  0
LINE
  8
LAYER_2
 10
590.12500000
 20
248.87500000
 11
590.12500000
 21
152.87500000
  0
LINE
  8
LAYER_2
 10
572.62500000
 20
248.87500000
 11
572.62500000
 21
152.87500000
  0
LINE
  8
LAYER_2
 10
574.12500000
 20
248.87500000
 11
574.12500000
 21
152.87500000
  0
LINE
  8
LAYER_2
 10
556.62500000
 20
248.87500000
 11
556.62500000
 21
152.87500000
  0
LINE
  8
LAYER_2
 10
558.12500000
 20
248.87500000
 11
558.12500000
 21
152.87500000
  0
LINE
  8
LAYER_2
 10
900.50000000
 20
347.12500000
 11
900.50000000
 21
262.87500000
  0
LINE
  8
LAYER_2
 10
897.00000000
 20
348.87500000
 11
897.00000000
 21
262.87500000
  0
LINE
  8
LAYER_2
 10
738.00000000
 20
347.00000000
 11
738.00000000
 21
262.87500000
  0
LINE
  8
LAYER_2
 10
741.37500000
 20
348.75000000
 11
741.37500000
 21
262.87500000
  0
LINE
  8
LAYER_2
 10
853.75000000
 20
370.50000000
 11
853.75000000
 21
262.87500000
  0
LINE
  8
LAYER_2
 10
855.25000000
 20
369.75000000
 11
855.25000000
 21
262.87500000
  0
LINE
  8
LAYER_2
 10
869.75000000
 20
362.50000000
 11
869.75000000
 21
262.87500000
  0
LINE
  8
LAYER_2
 10
871.25000000
 20
361.75000000
 11
871.25000000
 21
262.87500000
  0
LINE
  8
LAYER_2
 10
885.75000000
 20
354.50000000
 11
885.75000000
 21
262.87500000
  0
LINE
  8
LAYER_2
 10
887.25000000
 20
353.75000000
 11
887.25000000
 21
262.87500000
  0
LINE
  8
LAYER_2
 10
821.75000000
 20
386.50000000
 11
821.75000000
 21
342.87500000
  0
LINE
  8
LAYER_2
 10
823.25000000
 20
385.75000000
 11
823.25000000
 21
342.87500000
  0
LINE
  8
LAYER_2
 10
818.50000000
 20
387.37500000
 11
818.50000000
 21
342.87500000
  0
LINE
  8
LAYER_2
 10
820.00000000
 20
387.37500000
 11
820.00000000
 21
342.87500000
  0
LINE
  8
LAYER_2
 10
805.75000000
 20
381.00000000
 11
805.75000000
 21
342.87500000
  0
LINE
  8
LAYER_2
 10
807.25000000
 20
381.75000000
 11
807.25000000
 21
342.87500000
  0
LINE
  8
LAYER_2
 10
789.75000000
 20
373.00000000
 11
789.75000000
 21
262.87500000
  0
LINE
  8
LAYER_2
 10
791.25000000
 20
373.75000000
 11
791.25000000
 21
262.87500000
  0
LINE
  8
LAYER_2
 10
773.75000000
 20
365.00000000
 11
773.75000000
 21
262.87500000
  0
LINE
  8
LAYER_2
 10
775.25000000
 20
365.75000000
 11
775.25000000
 21
262.87500000
  0
LINE
  8
LAYER_2
 10
757.75000000
 20
357.00000000
 11
757.75000000
 21
262.87500000
  0
LINE
  8
LAYER_2
 10
759.25000000
 20
357.75000000
 11
759.25000000
 21
262.87500000
  0
LINE
  8
LAYER_2
 10
741.75000000
 20
349.00000000
 11
741.75000000
 21
262.87500000
  0
LINE
  8
LAYER_2
 10
743.25000000
 20
349.75000000
 11
743.25000000
 21
262.87500000
  0
LINE
  8
LAYER_2
 10
821.75000000
 20
298.00000000
 11
821.75000000
 21
262.87500000
  0
LINE
  8
LAYER_2
 10
823.25000000
 20
298.00000000
 11
823.25000000
 21
262.87500000
  0
LINE
  8
LAYER_2
 10
805.75000000
 20
298.00000000
 11
805.75000000
 21
262.87500000
  0
LINE
  8
LAYER_2
 10
807.25000000
 20
298.00000000
 11
807.25000000
 21
262.87500000
  0
LINE
  8
LAYER_11
 10
800.50000000
 20
302.62500000
 11
836.50000000
 21
302.62500000
  0
LINE
  8
LAYER_11
 10
834.75000000
 20
300.87500000
 11
838.25000000
 21
304.37500000
  0
LINE
  8
LAYER_11
 10
835.00000000
 20
300.87500000
 11
838.50000000
 21
304.37500000
  0
LINE
  8
LAYER_11
 10
834.50000000
 20
300.87500000
 11
838.00000000
 21
304.37500000
  0
LINE
  8
LAYER_11
 10
802.25000000
 20
304.37500000
 11
798.75000000
 21
300.87500000
  0
LINE
  8
LAYER_11
 10
802.00000000
 20
304.37500000
 11
798.50000000
 21
300.87500000
  0
LINE
  8
LAYER_11
 10
802.50000000
 20
304.37500000
 11
799.00000000
 21
300.87500000
  0
TEXT
  1
3' 0"
  7
SPSIMP
  8
LAYER_11
 10
809.68750000
 20
307.43750000
 40
4.24501086
 50
0.00000000
  0
LINE
  8
LAYER_11
 10
803.50000000
 20
299.37500000
 11
803.50000000
 21
335.37500000
  0
LINE
  8
LAYER_11
 10
805.25000000
 20
333.62500000
 11
801.75000000
 21
337.12500000
  0
LINE
  8
LAYER_11
 10
805.25000000
 20
333.87500000
 11
801.75000000
 21
337.37500000
  0
LINE
  8
LAYER_11
 10
805.25000000
 20
333.37500000
 11
801.75000000
 21
336.87500000
  0
LINE
  8
LAYER_11
 10
801.75000000
 20
301.12500000
 11
805.25000000
 21
297.62500000
  0
LINE
  8
LAYER_11
 10
801.75000000
 20
300.87500000
 11
805.25000000
 21
297.37500000
  0
LINE
  8
LAYER_11
 10
801.75000000
 20
301.37500000
 11
805.25000000
 21
297.87500000
  0
TEXT
  1
3' 0"
  7
SPSIMP
  8
LAYER_11
 10
807.93750000
 20
310.31250000
 40
4.24501086
 50
90.00000000
  0
ENDSEC
  0
EOF
