  0
SECTION
  2
HEADER
  9
$LIMMIN
 10
0.00000000
 20
0.00000000
  9
$LIMMAX
 10
1920.00000000
 20
1284.00000000
  9
$EXTMIN
 10
0.00000000
 20
0.00000000
  9
$EXTMAX
 10
1920.00000000
 20
1284.00000000
  9
$LUNITS
 70
4
  0
ENDSEC
  0
SECTION
  2
TABLES
  0
TABLE
  2
LTYPE
 70
5
  0
LTYPE
  2
LARGE
 70
64
  3
___   ___
 72
65
 73
2
 40
20.00000000
 49
10.00000000
 49
-10.00000000
  0
LTYPE
  2
MEDIUM
 70
64
  3
__  __
 72
65
 73
2
 40
10.00000000
 49
5.00000000
 49
-5.00000000
  0
LTYPE
  2
SMALL
 70
64
  3
_ _
 72
65
 73
2
 40
5.00000000
 49
2.00000000
 49
-3.00000000
  0
LTYPE
  2
DASHDOT
 70
64
  3
___ . ___
 72
65
 73
4
 40
21.00000000
 49
15.00000000
 49
-3.00000000
 49
0.00000000
 49
-3.00000000
  0
LTYPE
  2
LONG
 70
64
  3
____ ____
 72
65
 73
2
 40
18.00000000
 49
14.00000000
 49
-4.00000000
  0
ENDTAB
  0
TABLE
  2
LAYER
 70
15
  0
LAYER
  2
LAYER_1
 70
0
 62
1
  6
CONTINUOUS
  0
LAYER
  2
LAYER_2
 70
0
 62
2
  6
CONTINUOUS
  0
LAYER
  2
LAYER_3
 70
0
 62
3
  6
CONTINUOUS
  0
LAYER
  2
LAYER_4
 70
0
 62
4
  6
CONTINUOUS
  0
LAYER
  2
LAYER_5
 70
0
 62
5
  6
CONTINUOUS
  0
LAYER
  2
LAYER_6
 70
0
 62
6
  6
CONTINUOUS
  0
LAYER
  2
LAYER_7
 70
0
 62
7
  6
CONTINUOUS
  0
LAYER
  2
LAYER_8
 70
0
 62
8
  6
CONTINUOUS
  0
LAYER
  2
LAYER_9
 70
0
 62
9
  6
CONTINUOUS
  0
LAYER
  2
LAYER_10
 70
0
 62
10
  6
CONTINUOUS
  0
LAYER
  2
LAYER_11
 70
0
 62
11
  6
CONTINUOUS
  0
LAYER
  2
LAYER_12
 70
0
 62
12
  6
CONTINUOUS
  0
LAYER
  2
LAYER_13
 70
0
 62
13
  6
CONTINUOUS
  0
LAYER
  2
LAYER_14
 70
0
 62
14
  6
CONTINUOUS
  0
LAYER
  2
LAYER_15
 70
0
 62
15
  6
CONTINUOUS
  0
ENDTAB
  0
ENDSEC
  0
SECTION
  2
ENTITIES
  0
TEXT
  1
REAR WALL SHEATHING
  7
SPHAND
  8
LAYER_4
 10
-67.87500000
 20
-1.87500000
 40
8.06549235
 50
0.00000000
  0
LINE
  8
LAYER_2
  6
SMALL
 10
309.87500000
 20
121.87500000
 11
309.87500000
 21
11.25000000
  0
LINE
  8
LAYER_2
 10
-73.50000000
 20
121.87500000
 11
69.37500000
 21
121.87500000
  0
LINE
  8
LAYER_2
  6
SMALL
 10
-73.00000000
 20
121.87500000
 11
-73.00000000
 21
11.25000000
  0
LINE
  8
LAYER_2
 10
69.37500000
 20
217.87500000
 11
220.87500000
 21
217.87500000
  0
LINE
  8
LAYER_2
 10
220.87500000
 20
217.87500000
 11
220.87500000
 21
214.87500000
  0
LINE
  8
LAYER_2
 10
69.37500000
 20
217.87500000
 11
69.37500000
 21
121.87500000
  0
LINE
  8
LAYER_2
 10
220.87500000
 20
214.87500000
 11
220.87500000
 21
122.00000000
  0
LINE
  8
LAYER_2
  6
MEDIUM
 10
127.12500000
 20
201.87500000
 11
127.12500000
 21
167.37500000
  0
LINE
  8
LAYER_2
  6
MEDIUM
 10
163.12500000
 20
201.87500000
 11
163.12500000
 21
167.37500000
  0
LINE
  8
LAYER_2
  6
MEDIUM
 10
127.12500000
 20
201.87500000
 11
163.12500000
 21
201.87500000
  0
LINE
  8
LAYER_2
  6
MEDIUM
 10
127.12500000
 20
167.37500000
 11
163.12500000
 21
167.37500000
  0
LINE
  8
LAYER_2
  6
SMALL
 10
-73.50000000
 20
11.25000000
 11
-69.62500000
 21
11.25000000
  0
LINE
  8
LAYER_2
 10
-73.50000000
 20
73.87500000
 11
310.37500000
 21
73.87500000
  0
LINE
  8
LAYER_2
 10
-73.50000000
 20
25.87500000
 11
310.37500000
 21
25.87500000
  0
LINE
  8
LAYER_2
 10
69.37500000
 20
169.87500000
 11
220.87500000
 21
169.87500000
  0
LINE
  8
LAYER_2
 10
-73.50000000
 20
121.87500000
 11
-73.50000000
 21
11.25000000
  0
LINE
  8
LAYER_2
 10
310.37500000
 20
121.87500000
 11
310.37500000
 21
11.25000000
  0
LINE
  8
LAYER_2
 10
257.62500000
 20
25.87500000
 11
257.62500000
 21
11.25000000
  0
LINE
  8
LAYER_2
 10
-73.50000000
 20
11.25000000
 11
310.37500000
 21
11.25000000
  0
LINE
  8
LAYER_2
 10
161.62500000
 20
25.87500000
 11
161.62500000
 21
11.25000000
  0
LINE
  8
LAYER_2
 10
65.62500000
 20
25.87500000
 11
65.62500000
 21
11.25000000
  0
LINE
  8
LAYER_2
 10
-30.37500000
 20
25.87500000
 11
-30.37500000
 21
11.25000000
  0
LINE
  8
LAYER_2
 10
17.62500000
 20
73.87500000
 11
17.62500000
 21
25.87500000
  0
LINE
  8
LAYER_2
 10
113.62500000
 20
73.87500000
 11
113.62500000
 21
25.87500000
  0
LINE
  8
LAYER_2
 10
209.62500000
 20
73.87500000
 11
209.62500000
 21
25.87500000
  0
LINE
  8
LAYER_2
 10
305.62500000
 20
73.87500000
 11
305.62500000
 21
25.87500000
  0
LINE
  8
LAYER_2
 10
-30.37500000
 20
121.87500000
 11
-30.37500000
 21
73.87500000
  0
LINE
  8
LAYER_2
 10
65.62500000
 20
121.87500000
 11
65.62500000
 21
73.87500000
  0
LINE
  8
LAYER_2
 10
161.62500000
 20
121.87500000
 11
161.62500000
 21
73.87500000
  0
LINE
  8
LAYER_2
 10
257.62500000
 20
121.87500000
 11
257.62500000
 21
73.87500000
  0
LINE
  8
LAYER_2
 10
101.37500000
 20
169.87500000
 11
101.37500000
 21
121.87500000
  0
LINE
  8
LAYER_2
 10
197.37500000
 20
169.87500000
 11
197.37500000
 21
121.87500000
  0
LINE
  8
LAYER_2
 10
149.37500000
 20
217.87500000
 11
149.37500000
 21
169.87500000
  0
LINE
  8
LAYER_2
 10
69.37500000
 20
121.87500000
 11
220.87500000
 21
121.87500000
  0
LINE
  8
LAYER_2
 10
220.87500000
 20
121.87500000
 11
310.37500000
 21
121.87500000
  0
ENDSEC
  0
EOF
LAYER_11
 10
470.37500000
 20
102.75000000
 11
474.87500000
 21
107.25000000
  0
LINE
  8
LAYER_11
 10
470.62500000
 20
102.75000000
 11
475.12500000
 21
107.25000000
  0
LINE
  8
LAYER_11
 10
470.12500000
 20
102.75000000
 11
474.62500000
 21
107.25000000
  0
LINE
  8
LAYER_11
 10
378.87500000
 20
107.25000000
 11
374.37500000
 21
102.75000000
  0
LINE
  8
LAYER_11
 10
378.62500000
 20
107.25000000
 11
374.12500000
 21
102.75000000
  0
LINE
  8
LAYER_11
 10
379.12500000
 20
107.25000000
 11
374.62500000
 21
102.75000000
  0
TEXT
  1
8' 0"
  7
SPSIMP
  8
LAYER_11
 10
415.81250000
 20
109.81250000
 40
4.24501086
 50
0.00000000
  0
LINE
  8
LAYER_11
 10
472.62500000
 20
105.00000000
 11
568.62500000
 21
105.00000000
  0
LINE
  8
LAYER_11
 10
566.37500000
 20
102.75000000
 11
570.87500000
 21
107.25000000
  0
LINE
  8
LAYER_11
 10
566.62500000
 20
102.75000000
 11
571.12500000
 21
107.25000000
  0
LINE
  8
LAYER_11
 10
566.12500000
 20
102.75000000
 11
570.62500000
 21
107.25000000
  0
LINE
  8
LAYER_11
 10
474.87500000
 20
107.25000000
 11
470.37500000
 21
102.75000000
  0
LINE
  8
LAYER_11
 10
474.62500000
 20
107.25000000
 11
470.12500000
 21
102.75000000
  0
LINE
  8
LAYER_11
 10
475.12500000
 20
107.25000000
 11
470.62500000
 21
102.75000000
  0
TEXT
  1
8' 0"
  7
SPSIMP
  8
LAYER_11
 10
511.81250000
 20
109.81250000
 40
4.24501086
 50
0.00000000
  0
LINE
  8
LAYER_11
 10
568.62500000
 20
105.00000000
 11
664.62500000
 21
105.00000000
  0
LINE
  8
LAYER_11
 10
662.37500000
 20
102.75000000
 11
666.87500000
 21
107.25000000
  0
LINE
  8
LAYER_11
 10
662.62500000
 20
102.75000000
 11
667.12500000
 21
107.25000000
  0
LINE
  8
LAYER_11
 10
662.12500000
 20
102.75000000
 11
666.62500000
 21
107.25000000
  0
LINE
  8
LAYER_11
 10
570.87500000
 20
107.25000000
 11
566.37500000
 21
102.75000000
  0
LINE
  8
LAYER_11
 10
570.62500000
 20
107.25000000
 11
566.12500000
 21
102.75000000
  0
LINE
  8
LAYER_11
 10
571.12500000
 20
107.25000000
 11
566.62500000
 21
102.75000000
  0
TEXT
  1
8' 0"
  7
SPSIMP
  8
LAYER_11
 10
607.81250000
 20
109.81250000
 40
4.24501086
 50
0.00000000
  0
LINE
  8
LAYER_11
 10
664.62500000
 20
105.00000000
 11
760.62500000
 21
105.00000000
  0
LINE
  8
LAYER_11
 10
758.37500000
 20
102.75000000
 11
762.87500000
 21
107.25000000
  0
LINE
  8
LAYER_11
 10
758.62500000
 20
102.75000000
 11
763.12500000
 21
107.25000000
  0
LINE
  8
LAYER_11
 10
758.12500000
 20
102.75000000
 11
762.62500000
 21
107.25000000
  0
LINE
  8
LAYER_11
 10
666.87500000
 20
107.25000000
 11
662.37500000
 21
102.75000000
  0
LINE
  8
LAYER_11
 10
666.62500000
 20
107.25000000
 11
662.12500000
 21
102.75000000
  0
LINE
  8
LAYER_11
 10
667.12500000
 20
107.25000000
 11
662.62500000
 21
102.75000000
  0
TEXT
  1
8' 0"
  7
SPSIMP
  8
LAYER_11
 10
703.81250000
 20
109.81250000
 40
4.24501086
 50
0.00000000
  0
LINE
  8
LAYER_11
 10
760.62500000
 20
105.00000000
 11
808.62500000
 21
105.00000000
  0
LINE
  8
LAYER_11
 10
806.37500000
 20
102.75000000
 11
810.87500000
 21
107.25000000
  0
LINE
  8
LAYER_11
 10
806.62500000
 20
102.75000000
 11
811.12500000
 21
107.25000000
  0
LINE
  8
LAYER_11
 10
806.12500000
 20
102.75000000
 11
810.62500000
 21
107.25000000
  0
LINE
  8
LAYER_11
 10
762.87500000
 20
107.25000000
 11
758.37500000
 21
102.75000000
  0
LINE
  8
LAYER_11
 10
762.62500000
 20
107.25000000
 11
758.12500000
 21
102.75000000
  0
LINE
  8
LAYER_11
 10
763.12500000
 20
107.25000000
 11
758.62500000
 21
102.75000000
  0
TEXT
  1
4' 0"
  7
SPSIMP
  8
LAYER_11
 10
775.81250000
 20
109.81250000
 40
4.24501086
 50
0.00000000
  0
LINE
  8
LAYER_11
 10
376.62500000
 20
152.87500000
 11
424.62500000
 21
152.87500000
  0
LINE
  8
LAYER_11
 10
422.37500000
 20
150.62500000
 11
426.87500000
 21
155.12500000
  0
LINE
  8
LAYER_11
 10
422.62500000
 20
150.62500000
 11
427.12500000
 21
155.12500000
  0
LINE
  8
LAYER_11
 10
422.12500000
 20
150.62500000
 11
426.62500000
 21
155.12500000
  0
LINE
  8
LAYER_11
 10
378.87500000
 20
155.12500000
 11
374.37500000
 21
150.62500000
  0
LINE
  8
LAYER_11
 10
378.62500000
 20
155.12500000
 11
374.12500000
 21
150.62500000
  0
LINE
  8
LAYER_11
 10
379.12500000
 20
155.12500000
 11
374.62500000
 21
150.62500000
  0
TEXT
  1
4' 0"
  7
SPSIMP
  8
LAYER_11
 10
391.81250000
 20
157.68750000
 40
4.24501086
 50
0.00000000
  0
LINE
  8
LAYER_11
 10
424.62500000
 20
152.87500000
 11
520.62500000
 21
152.87500000
  0
LINE
  8
LAYER_11
 10
518.37500000
 20
150.62500000
 11
522.87500000
 21
155.12500000
  0
LINE
  8
LAYER_11
 10
518.62500000
 20
150.62500000
 11
523.12500000
 21
155.12500000
  0
LINE
  8
LAYER_11
 10
518.12500000
 20
150.62500000
 11
522.62500000
 21
155.12500000
  0
LINE
  8
LAYER_11
 10
426.87500000
 20
155.12500000
 11
422.37500000
 21
150.62500000
  0
LINE
  8
LAYER_11
 10
426.62500000
 20
155.12500000
 11
422.12500000
 21
150.62500000
  0
LINE
  8
LAYER_11
 10
427.12500000
 20
155.12500000
 11
422.62500000
 21
150.62500000
  0
TEXT
  1
8' 0"
  7
SPSIMP
  8
LAYER_11
 10
463.81250000
 20
157.68750000
 40
4.24501086
 50
0.00000000
  0
LINE
  8
LAYER_11
 10
520.62500000
 20
152.87500000
 11
616.62500000
 21
152.87500000
  0
LINE
  8
LAYER_11
 10
614.37500000
 20
150.62500000
 11
618.87500000
 21
155.12500000
  0
LINE
  8
LAYER_11
 10
614.62500000
 20
150.62500000
 11
619.12500000
 21
155.12500000
  0
LINE
  8
LAYER_11
 10
614.12500000
 20
150.62500000
 11
618.62500000
 21
155.12500000
  0
LINE
  8
LAYER_11
 10
522.87500000
 20
155.12500000
 11
518.37500000
 21
150.62500000
  0
LINE
  8
LAYER_11
 10
522.62500000
 20
155.12500000
 11
518.12500000
 21
150.62500000
  0
LINE
  8
LAYER_11
 10
523.12500000
 20
155.12500000
 11
518.62500000
 21
150.62500000
  0
TEXT
  1
8' 0"
  7
SPSIMP
  8
LAYER_11
 10
559.81250000
 20
157.68750000
 40
4.24501086
 50
0.00000000
  0
LINE
  8
LAYER_11
 10
616.62500000
 20
152.87500000
 11
712.62500000
 21
152.87500000
  0
LINE
  8
LAYER_11
 10
710.37500000
 20
150.62500000
 11
714.87500000
 21
155.12500000
  0
LINE
  8
LAYER_11
 10
710.62500000
 20
150.62500000
 11
715.12500000
 21
155.12500000
  0
LINE
  8
LAYER_11
 10
710.12500000
 20
150.62500000
 11
714.62500000
 21
155.12500000
  0
LINE
  8
LAYER_11
 10
618.87500000
 20
155.12500000
 11
614.37500000
 21
150.62500000
  0
LINE
  8
LAYER_11
 10
618.62500000
 20
155.12500000
 11
614.12500000
 21
150.62500000
  0
LINE
  8
LAYER_11
 10
619.12500000
 20
155.12500000
 11
614.62500000
 21
150.62500000
  0
TEXT
  1
8' 0"
  7
SPSIMP
  8
LAYER_11
 10
655.81250000
 20
157.68750000
 40
4.24501086
 50
0.00000000
  0
LINE
  8
LAYER_11
 10
712.62500000
 20
152.87500000
 11
808.62500000
 21
152.87500000
  0
LINE
  8
LAYER_11
 10
806.37500000
 20
150.62500000
 11
810.87500000
 21
155.12500000
  0
LINE
  8
LAYER_11
 10
806.62500000
 20
150.62500000
 11
811.12500000
 21
155.12500000
  0
LINE
  8
LAYER_11
 10
806.12500000
 20
150.62500000
 11
810.62500000
 21
155.12500000
  0
LINE
  8
LAYER_11
 10
714.87500000
 20
155.12500000
 11
710.37500000
 21
150.62500000
  0
LINE
  8
LAYER_11
 10
714.62500000
 20
155.12500000
 11
710.12500000
 21
150.62500000
  0
LINE
  8
LAYER_11
 10
715.12500000
 20
155.12500000
 11
710.62500000
 21
150.62500000
  0
TEXT
  1
8' 0"
  7
SPSIMP
  8
LAYER_11
 10
751.81250000
 20
157.68750000
 40
4.24501086
 50
0.00000000
  0
ENDSEC
  0
EOF
