  0
SECTION
  2
HEADER
  9
$LIMMIN
 10
0.00000000
 20
0.00000000
  9
$LIMMAX
 10
1920.00000000
 20
1284.00000000
  9
$EXTMIN
 10
0.00000000
 20
0.00000000
  9
$EXTMAX
 10
1920.00000000
 20
1284.00000000
  9
$LUNITS
 70
4
  0
ENDSEC
  0
SECTION
  2
TABLES
  0
TABLE
  2
LTYPE
 70
5
  0
LTYPE
  2
LARGE
 70
64
  3
___   ___
 72
65
 73
2
 40
20.00000000
 49
10.00000000
 49
-10.00000000
  0
LTYPE
  2
MEDIUM
 70
64
  3
__  __
 72
65
 73
2
 40
10.00000000
 49
5.00000000
 49
-5.00000000
  0
LTYPE
  2
SMALL
 70
64
  3
_ _
 72
65
 73
2
 40
5.00000000
 49
2.00000000
 49
-3.00000000
  0
LTYPE
  2
DASHDOT
 70
64
  3
___ . ___
 72
65
 73
4
 40
21.00000000
 49
15.00000000
 49
-3.00000000
 49
0.00000000
 49
-3.00000000
  0
LTYPE
  2
LONG
 70
64
  3
____ ____
 72
65
 73
2
 40
18.00000000
 49
14.00000000
 49
-4.00000000
  0
ENDTAB
  0
TABLE
  2
LAYER
 70
15
  0
LAYER
  2
LAYER_1
 70
0
 62
1
  6
CONTINUOUS
  0
LAYER
  2
LAYER_2
 70
0
 62
2
  6
CONTINUOUS
  0
LAYER
  2
LAYER_3
 70
0
 62
3
  6
CONTINUOUS
  0
LAYER
  2
LAYER_4
 70
0
 62
4
  6
CONTINUOUS
  0
LAYER
  2
LAYER_5
 70
0
 62
5
  6
CONTINUOUS
  0
LAYER
  2
LAYER_6
 70
0
 62
6
  6
CONTINUOUS
  0
LAYER
  2
LAYER_7
 70
0
 62
7
  6
CONTINUOUS
  0
LAYER
  2
LAYER_8
 70
0
 62
8
  6
CONTINUOUS
  0
LAYER
  2
LAYER_9
 70
0
 62
9
  6
CONTINUOUS
  0
LAYER
  2
LAYER_10
 70
0
 62
10
  6
CONTINUOUS
  0
LAYER
  2
LAYER_11
 70
0
 62
11
  6
CONTINUOUS
  0
LAYER
  2
LAYER_12
 70
0
 62
12
  6
CONTINUOUS
  0
LAYER
  2
LAYER_13
 70
0
 62
13
  6
CONTINUOUS
  0
LAYER
  2
LAYER_14
 70
0
 62
14
  6
CONTINUOUS
  0
LAYER
  2
LAYER_15
 70
0
 62
15
  6
CONTINUOUS
  0
ENDTAB
  0
ENDSEC
  0
SECTION
  2
ENTITIES
  0
TEXT
  1
RIGHT SIDE WALL SHEATHING
  7
SPHAND
  8
LAYER_12
 10
998.37500000
 20
-96.62500000
 40
8.06549235
 50
0.00000000
  0
LINE
  8
LAYER_2
 10
996.50000000
 20
12.00000000
 11
996.50000000
 21
-80.50000000
  0
LINE
  8
LAYER_2
  6
MEDIUM
 10
1200.50000000
 20
0.00000000
 11
1200.50000000
 21
-36.00000000
  0
LINE
  8
LAYER_2
 10
996.50000000
 20
18.50000000
 11
996.50000000
 21
12.00000000
  0
LINE
  8
LAYER_2
 10
1284.50000000
 20
31.25000000
 11
1284.50000000
 21
-82.00000000
  0
LINE
  8
LAYER_2
  6
MEDIUM
 10
1152.50000000
 20
0.00000000
 11
1152.50000000
 21
-36.00000000
  0
LINE
  8
LAYER_2
 10
996.50000000
 20
31.50000000
 11
996.50000000
 21
18.50000000
  0
LINE
  8
LAYER_2
 10
1140.37500000
 20
175.50000000
 11
1158.75000000
 21
157.00000000
  0
LINE
  8
LAYER_2
 10
996.50000000
 20
31.62500000
 11
1140.37500000
 21
175.50000000
  0
LINE
  8
LAYER_2
 10
996.50000000
 20
-77.50000000
 11
1284.50000000
 21
-77.50000000
  0
LINE
  8
LAYER_2
  6
MEDIUM
 10
1152.50000000
 20
0.00000000
 11
1200.50000000
 21
0.00000000
  0
LINE
  8
LAYER_2
  6
MEDIUM
 10
1152.50000000
 20
-36.00000000
 11
1200.50000000
 21
-36.00000000
  0
LINE
  8
LAYER_2
 10
996.50000000
 20
-29.50000000
 11
1284.50000000
 21
-29.50000000
  0
LINE
  8
LAYER_2
 10
996.50000000
 20
18.50000000
 11
1284.50000000
 21
18.50000000
  0
LINE
  8
LAYER_2
 10
1031.50000000
 20
66.50000000
 11
1249.25000000
 21
66.50000000
  0
LINE
  8
LAYER_2
 10
1079.50000000
 20
114.50000000
 11
1201.25000000
 21
114.50000000
  0
LINE
  8
LAYER_2
 10
1127.50000000
 20
162.50000000
 11
1153.25000000
 21
162.50000000
  0
LINE
  8
LAYER_2
 10
1159.00000000
 20
156.87500000
 11
1284.50000000
 21
31.25000000
  0
LINE
  8
LAYER_2
 10
1044.50000000
 20
-29.50000000
 11
1044.50000000
 21
-77.50000000
  0
LINE
  8
LAYER_2
 10
1140.50000000
 20
-29.50000000
 11
1140.50000000
 21
-77.50000000
  0
LINE
  8
LAYER_2
 10
1236.50000000
 20
-29.50000000
 11
1236.50000000
 21
-77.50000000
  0
LINE
  8
LAYER_2
 10
1092.50000000
 20
18.50000000
 11
1092.50000000
 21
-29.50000000
  0
LINE
  8
LAYER_2
 10
1140.50000000
 20
66.50000000
 11
1140.50000000
 21
18.50000000
  0
LINE
  8
LAYER_2
 10
1188.50000000
 20
114.50000000
 11
1188.50000000
 21
66.50000000
  0
LINE
  8
LAYER_2
 10
1092.50000000
 20
114.50000000
 11
1092.50000000
 21
66.50000000
  0
LINE
  8
LAYER_2
 10
1140.50000000
 20
162.50000000
 11
1140.50000000
 21
114.50000000
  0
LINE
  8
LAYER_2
 10
1044.50000000
 20
66.50000000
 11
1044.50000000
 21
18.50000000
  0
LINE
  8
LAYER_2
 10
1236.50000000
 20
66.50000000
 11
1236.50000000
 21
18.50000000
  0
LINE
  8
LAYER_2
 10
1188.50000000
 20
18.50000000
 11
1188.50000000
 21
-29.50000000
  0
LINE
  8
LAYER_2
 10
1284.50000000
 20
18.50000000
 11
1284.50000000
 21
-29.50000000
  0
LINE
  8
LAYER_2
 10
996.50000000
 20
-80.50000000
 11
996.50000000
 21
-82.00000000
  0
LINE
  8
LAYER_2
 10
996.50000000
 20
-82.00000000
 11
1284.50000000
 21
-82.00000000
  0
LINE
  8
LAYER_2
 10
1284.50000000
 20
122.25000000
 11
1284.50000000
 21
31.37500000
  0
LINE
  8
LAYER_2
 10
1148.12500000
 20
167.75000000
 11
1284.25000000
 21
122.25000000
  0
LINE
  8
LAYER_2
 10
1241.50000000
 20
74.50000000
 11
1284.50000000
 21
74.50000000
  0
LINE
  8
LAYER_2
 10
1193.62500000
 20
122.25000000
 11
1284.50000000
 21
122.25000000
  0
LINE
  8
LAYER_2
 10
1193.50000000
 20
152.50000000
 11
1193.50000000
 21
122.25000000
  0
LINE
  8
LAYER_2
 10
1092.37500000
 20
-77.50000000
 11
1092.37500000
 21
-82.00000000
  0
LINE
  8
LAYER_2
 10
1188.37500000
 20
-77.50000000
 11
1188.37500000
 21
-82.00000000
  0
LINE
  8
LAYER_11
 10
996.75000000
 20
-68.37500000
 11
1044.50000000
 21
-68.37500000
  0
LINE
  8
LAYER_11
 10
1043.50000000
 20
-69.37500000
 11
1045.50000000
 21
-67.37500000
  0
LINE
  8
LAYER_11
 10
1043.75000000
 20
-69.37500000
 11
1045.75000000
 21
-67.37500000
  0
LINE
  8
LAYER_11
 10
1043.25000000
 20
-69.37500000
 11
1045.25000000
 21
-67.37500000
  0
LINE
  8
LAYER_11
 10
997.75000000
 20
-67.37500000
 11
995.75000000
 21
-69.37500000
  0
LINE
  8
LAYER_11
 10
997.50000000
 20
-67.37500000
 11
995.50000000
 21
-69.37500000
  0
LINE
  8
LAYER_11
 10
998.00000000
 20
-67.37500000
 11
996.00000000
 21
-69.37500000
  0
TEXT
  1
3' 11 3/4"
  7
SPSIMP
  8
LAYER_11
 10
1009.50000000
 20
-63.43750000
 40
2.54689338
 50
0.00000000
  0
LINE
  8
LAYER_11
 10
1044.50000000
 20
-68.37500000
 11
1140.50000000
 21
-68.37500000
  0
LINE
  8
LAYER_11
 10
1139.50000000
 20
-69.37500000
 11
1141.50000000
 21
-67.37500000
  0
LINE
  8
LAYER_11
 10
1139.75000000
 20
-69.37500000
 11
1141.75000000
 21
-67.37500000
  0
LINE
  8
LAYER_11
 10
1139.25000000
 20
-69.37500000
 11
1141.25000000
 21
-67.37500000
  0
LINE
  8
LAYER_11
 10
1045.50000000
 20
-67.37500000
 11
1043.50000000
 21
-69.37500000
  0
LINE
  8
LAYER_11
 10
1045.25000000
 20
-67.37500000
 11
1043.25000000
 21
-69.37500000
  0
LINE
  8
LAYER_11
 10
1045.75000000
 20
-67.37500000
 11
1043.75000000
 21
-69.37500000
  0
TEXT
  1
8' 0"
  7
SPSIMP
  8
LAYER_11
 10
1087.31250000
 20
-58.43750000
 40
2.54689338
 50
0.00000000
  0
LINE
  8
LAYER_11
 10
1140.50000000
 20
-68.37500000
 11
1236.50000000
 21
-68.37500000
  0
LINE
  8
LAYER_11
 10
1235.50000000
 20
-69.37500000
 11
1237.50000000
 21
-67.37500000
  0
LINE
  8
LAYER_11
 10
1235.75000000
 20
-69.37500000
 11
1237.75000000
 21
-67.37500000
  0
LINE
  8
LAYER_11
 10
1235.25000000
 20
-69.37500000
 11
1237.25000000
 21
-67.37500000
  0
LINE
  8
LAYER_11
 10
1141.50000000
 20
-67.37500000
 11
1139.50000000
 21
-69.37500000
  0
LINE
  8
LAYER_11
 10
1141.25000000
 20
-67.37500000
 11
1139.25000000
 21
-69.37500000
  0
LINE
  8
LAYER_11
 10
1141.75000000
 20
-67.37500000
 11
1139.75000000
 21
-69.37500000
  0
TEXT
  1
8' 0"
  7
SPSIMP
  8
LAYER_11
 10
1183.31250000
 20
-63.43750000
 40
2.54689338
 50
0.00000000
  0
LINE
  8
LAYER_11
 10
1236.50000000
 20
-68.37500000
 11
1284.25000000
 21
-68.37500000
  0
LINE
  8
LAYER_11
 10
1283.25000000
 20
-69.37500000
 11
1285.25000000
 21
-67.37500000
  0
LINE
  8
LAYER_11
 10
1283.50000000
 20
-69.37500000
 11
1285.50000000
 21
-67.37500000
  0
LINE
  8
LAYER_11
 10
1283.00000000
 20
-69.37500000
 11
1285.00000000
 21
-67.37500000
  0
LINE
  8
LAYER_11
 10
1237.50000000
 20
-67.37500000
 11
1235.50000000
 21
-69.37500000
  0
LINE
  8
LAYER_11
 10
1237.25000000
 20
-67.37500000
 11
1235.25000000
 21
-69.37500000
  0
LINE
  8
LAYER_11
 10
1237.75000000
 20
-67.37500000
 11
1235.75000000
 21
-69.37500000
  0
TEXT
  1
3' 11 3/4"
  7
SPSIMP
  8
LAYER_11
 10
1249.50000000
 20
-58.43750000
 40
2.54689338
 50
0.00000000
  0
LINE
  8
LAYER_11
 10
996.75000000
 20
2.62500000
 11
1092.50000000
 21
2.62500000
  0
LINE
  8
LAYER_11
 10
1091.50000000
 20
1.62500000
 11
1093.50000000
 21
3.62500000
  0
LINE
  8
LAYER_11
 10
1091.75000000
 20
1.62500000
 11
1093.75000000
 21
3.62500000
  0
LINE
  8
LAYER_11
 10
1091.25000000
 20
1.62500000
 11
1093.25000000
 21
3.62500000
  0
LINE
  8
LAYER_11
 10
997.75000000
 20
3.62500000
 11
995.75000000
 21
1.62500000
  0
LINE
  8
LAYER_11
 10
997.50000000
 20
3.62500000
 11
995.50000000
 21
1.62500000
  0
LINE
  8
LAYER_11
 10
998.00000000
 20
3.62500000
 11
996.00000000
 21
1.62500000
  0
TEXT
  1
7' 11 3/4"
  7
SPSIMP
  8
LAYER_11
 10
1033.50000000
 20
7.56250000
 40
2.54689338
 50
0.00000000
  0
LINE
  8
LAYER_11
 10
1092.50000000
 20
2.62500000
 11
1188.50000000
 21
2.62500000
  0
LINE
  8
LAYER_11
 10
1187.50000000
 20
1.62500000
 11
1189.50000000
 21
3.62500000
  0
LINE
  8
LAYER_11
 10
1187.75000000
 20
1.62500000
 11
1189.75000000
 21
3.62500000
  0
LINE
  8
LAYER_11
 10
1187.25000000
 20
1.62500000
 11
1189.25000000
 21
3.62500000
  0
LINE
  8
LAYER_11
 10
1093.50000000
 20
3.62500000
 11
1091.50000000
 21
1.62500000
  0
LINE
  8
LAYER_11
 10
1093.25000000
 20
3.62500000
 11
1091.25000000
 21
1.62500000
  0
LINE
  8
LAYER_11
 10
1093.75000000
 20
3.62500000
 11
1091.75000000
 21
1.62500000
  0
TEXT
  1
8' 0"
  7
SPSIMP
  8
LAYER_11
 10
1135.31250000
 20
12.56250000
 40
2.54689338
 50
0.00000000
  0
LINE
  8
LAYER_11
 10
1188.50000000
 20
2.62500000
 11
1284.25000000
 21
2.62500000
  0
LINE
  8
LAYER_11
 10
1283.25000000
 20
1.62500000
 11
1285.25000000
 21
3.62500000
  0
LINE
  8
LAYER_11
 10
1283.50000000
 20
1.62500000
 11
1285.50000000
 21
3.62500000
  0
LINE
  8
LAYER_11
 10
1283.00000000
 20
1.62500000
 11
1285.00000000
 21
3.62500000
  0
LINE
  8
LAYER_11
 10
1189.50000000
 20
3.62500000
 11
1187.50000000
 21
1.62500000
  0
LINE
  8
LAYER_11
 10
1189.25000000
 20
3.62500000
 11
1187.25000000
 21
1.62500000
  0
LINE
  8
LAYER_11
 10
1189.75000000
 20
3.62500000
 11
1187.75000000
 21
1.62500000
  0
TEXT
  1
7' 11 3/4"
  7
SPSIMP
  8
LAYER_11
 10
1225.50000000
 20
7.56250000
 40
2.54689338
 50
0.00000000
  0
LINE
  8
LAYER_11
 10
1044.50000000
 20
29.75000000
 11
1140.50000000
 21
29.75000000
  0
LINE
  8
LAYER_11
 10
1139.50000000
 20
28.75000000
 11
1141.50000000
 21
30.75000000
  0
LINE
  8
LAYER_11
 10
1139.75000000
 20
28.75000000
 11
1141.75000000
 21
30.75000000
  0
LINE
  8
LAYER_11
 10
1139.25000000
 20
28.75000000
 11
1141.25000000
 21
30.75000000
  0
LINE
  8
LAYER_11
 10
1045.50000000
 20
30.75000000
 11
1043.50000000
 21
28.75000000
  0
LINE
  8
LAYER_11
 10
1045.25000000
 20
30.75000000
 11
1043.25000000
 21
28.75000000
  0
LINE
  8
LAYER_11
 10
1045.75000000
 20
30.75000000
 11
1043.75000000
 21
28.75000000
  0
TEXT
  1
8' 0"
  7
SPSIMP
  8
LAYER_11
 10
1087.31250000
 20
34.68750000
 40
2.54689338
 50
0.00000000
  0
LINE
  8
LAYER_11
 10
1140.50000000
 20
29.75000000
 11
1236.50000000
 21
29.75000000
  0
LINE
  8
LAYER_11
 10
1235.50000000
 20
28.75000000
 11
1237.50000000
 21
30.75000000
  0
LINE
  8
LAYER_11
 10
1235.75000000
 20
28.75000000
 11
1237.75000000
 21
30.75000000
  0
LINE
  8
LAYER_11
 10
1235.25000000
 20
28.75000000
 11
1237.25000000
 21
30.75000000
  0
LINE
  8
LAYER_11
 10
1141.50000000
 20
30.75000000
 11
1139.50000000
 21
28.75000000
  0
LINE
  8
LAYER_11
 10
1141.25000000
 20
30.75000000
 11
1139.25000000
 21
28.75000000
  0
LINE
  8
LAYER_11
 10
1141.75000000
 20
30.75000000
 11
1139.75000000
 21
28.75000000
  0
TEXT
  1
8' 0"
  7
SPSIMP
  8
LAYER_11
 10
1183.31250000
 20
39.68750000
 40
2.54689338
 50
0.00000000
  0
LINE
  8
LAYER_11
 10
1092.50000000
 20
80.12500000
 11
1188.50000000
 21
80.12500000
  0
LINE
  8
LAYER_11
 10
1187.50000000
 20
79.12500000
 11
1189.50000000
 21
81.12500000
  0
LINE
  8
LAYER_11
 10
1187.75000000
 20
79.12500000
 11
1189.75000000
 21
81.12500000
  0
LINE
  8
LAYER_11
 10
1187.25000000
 20
79.12500000
 11
1189.25000000
 21
81.12500000
  0
LINE
  8
LAYER_11
 10
1093.50000000
 20
81.12500000
 11
1091.50000000
 21
79.12500000
  0
LINE
  8
LAYER_11
 10
1093.25000000
 20
81.12500000
 11
1091.25000000
 21
79.12500000
  0
LINE
  8
LAYER_11
 10
1093.75000000
 20
81.12500000
 11
1091.75000000
 21
79.12500000
  0
TEXT
  1
8' 0"
  7
SPSIMP
  8
LAYER_11
 10
1135.31250000
 20
85.06250000
 40
2.54689338
 50
0.00000000
  0
ENDSEC
  0
EOF
