  0
SECTION
  2
HEADER
  9
$LIMMIN
 10
0.00000000
 20
0.00000000
  9
$LIMMAX
 10
1920.00000000
 20
1284.00000000
  9
$EXTMIN
 10
0.00000000
 20
0.00000000
  9
$EXTMAX
 10
1920.00000000
 20
1284.00000000
  9
$LUNITS
 70
4
  0
ENDSEC
  0
SECTION
  2
TABLES
  0
TABLE
  2
LTYPE
 70
5
  0
LTYPE
  2
LARGE
 70
64
  3
___   ___
 72
65
 73
2
 40
20.00000000
 49
10.00000000
 49
-10.00000000
  0
LTYPE
  2
MEDIUM
 70
64
  3
__  __
 72
65
 73
2
 40
10.00000000
 49
5.00000000
 49
-5.00000000
  0
LTYPE
  2
SMALL
 70
64
  3
_ _
 72
65
 73
2
 40
5.00000000
 49
2.00000000
 49
-3.00000000
  0
LTYPE
  2
DASHDOT
 70
64
  3
___ . ___
 72
65
 73
4
 40
21.00000000
 49
15.00000000
 49
-3.00000000
 49
0.00000000
 49
-3.00000000
  0
LTYPE
  2
LONG
 70
64
  3
____ ____
 72
65
 73
2
 40
18.00000000
 49
14.00000000
 49
-4.00000000
  0
ENDTAB
  0
TABLE
  2
LAYER
 70
15
  0
LAYER
  2
LAYER_1
 70
0
 62
1
  6
CONTINUOUS
  0
LAYER
  2
LAYER_2
 70
0
 62
2
  6
CONTINUOUS
  0
LAYER
  2
LAYER_3
 70
0
 62
3
  6
CONTINUOUS
  0
LAYER
  2
LAYER_4
 70
0
 62
4
  6
CONTINUOUS
  0
LAYER
  2
LAYER_5
 70
0
 62
5
  6
CONTINUOUS
  0
LAYER
  2
LAYER_6
 70
0
 62
6
  6
CONTINUOUS
  0
LAYER
  2
LAYER_7
 70
0
 62
7
  6
CONTINUOUS
  0
LAYER
  2
LAYER_8
 70
0
 62
8
  6
CONTINUOUS
  0
LAYER
  2
LAYER_9
 70
0
 62
9
  6
CONTINUOUS
  0
LAYER
  2
LAYER_10
 70
0
 62
10
  6
CONTINUOUS
  0
LAYER
  2
LAYER_11
 70
0
 62
11
  6
CONTINUOUS
  0
LAYER
  2
LAYER_12
 70
0
 62
12
  6
CONTINUOUS
  0
LAYER
  2
LAYER_13
 70
0
 62
13
  6
CONTINUOUS
  0
LAYER
  2
LAYER_14
 70
0
 62
14
  6
CONTINUOUS
  0
LAYER
  2
LAYER_15
 70
0
 62
15
  6
CONTINUOUS
  0
ENDTAB
  0
ENDSEC
  0
SECTION
  2
ENTITIES
  0
LINE
  8
LAYER_3
 10
1084.62500000
 20
275.50000000
 11
1065.75000000
 21
275.50000000
  0
LINE
  8
LAYER_3
 10
1084.62500000
 20
376.00000000
 11
1065.75000000
 21
376.00000000
  0
LINE
  8
LAYER_3
 10
1298.12500000
 20
365.00000000
 11
1311.75000000
 21
365.00000000
  0
LINE
  8
LAYER_3
 10
1298.12500000
 20
357.50000000
 11
1311.75000000
 21
357.50000000
  0
LINE
  8
LAYER_3
 10
1088.62500000
 20
273.00000000
 11
1088.62500000
 21
257.37500000
  0
LINE
  8
LAYER_3
 10
1103.87500000
 20
273.00000000
 11
1103.87500000
 21
257.37500000
  0
LINE
  8
LAYER_3
 10
1119.87500000
 20
273.00000000
 11
1119.87500000
 21
257.37500000
  0
LINE
  8
LAYER_3
 10
1135.87500000
 20
273.00000000
 11
1135.87500000
 21
257.37500000
  0
LINE
  8
LAYER_3
 10
1151.87500000
 20
273.00000000
 11
1151.87500000
 21
257.37500000
  0
LINE
  8
LAYER_3
 10
1167.87500000
 20
273.00000000
 11
1167.87500000
 21
257.37500000
  0
LINE
  8
LAYER_3
 10
1183.87500000
 20
273.00000000
 11
1183.87500000
 21
257.37500000
  0
LINE
  8
LAYER_3
 10
1199.87500000
 20
273.00000000
 11
1199.87500000
 21
257.37500000
  0
LINE
  8
LAYER_3
 10
1241.62500000
 20
273.00000000
 11
1241.62500000
 21
257.37500000
  0
LINE
  8
LAYER_3
 10
1247.12500000
 20
273.00000000
 11
1247.12500000
 21
257.37500000
  0
LINE
  8
LAYER_3
 10
1292.62500000
 20
273.00024606
 11
1292.62500000
 21
257.37500000
  0
LINE
  8
LAYER_3
 10
1311.87500000
 20
273.00000000
 11
1311.87500000
 21
257.37500000
  0
LINE
  8
LAYER_3
 10
1327.87500000
 20
273.00000000
 11
1327.87500000
 21
257.37500000
  0
LINE
  8
LAYER_3
 10
1343.87500000
 20
273.00000000
 11
1343.87500000
 21
257.37500000
  0
LINE
  8
LAYER_3
 10
1359.87500000
 20
273.00000000
 11
1359.87500000
 21
257.37500000
  0
LINE
  8
LAYER_3
 10
1376.62500000
 20
273.00000000
 11
1376.62500000
 21
257.37500000
  0
LINE
  8
LAYER_3
 10
1215.87500000
 20
273.00000000
 11
1215.87500000
 21
257.37500000
  0
LINE
  8
LAYER_3
 10
1231.12500000
 20
273.00000000
 11
1231.12500000
 21
257.37500000
  0
LINE
  8
LAYER_3
 10
1263.12500000
 20
273.00000000
 11
1263.12500000
 21
257.37500000
  0
LINE
  8
LAYER_3
 10
1279.12500000
 20
273.00000000
 11
1279.12500000
 21
257.37500000
  0
LINE
  8
LAYER_3
 10
1179.93750000
 20
467.87500000
 11
1174.75000000
 21
467.87500000
  0
TEXT
  1
RIGHT SIDE 2X4 WALL 
  7
SPHAND
  8
LAYER_12
 10
1090.50000000
 20
243.75000000
 40
8.06549235
 50
0.00000000
  0
TEXT
  1
STUD
  7
SPSIMP
  8
LAYER_12
 10
1326.18750000
 20
314.75000000
 40
2.54689338
 50
90.00000000
  0
TEXT
  1
SOLE
  7
SPSIMP
  8
LAYER_12
 10
1315.50000000
 20
283.68750000
 40
2.54689338
 50
0.00000000
  0
TEXT
  1
PLATE
  7
SPSIMP
  8
LAYER_12
 10
1315.50000000
 20
279.18750000
 40
2.54689338
 50
0.00000000
  0
TEXT
  1
2-2x8 LINTEL
  7
SPSIMP
  8
LAYER_12
 10
1252.12500000
 20
359.62500000
 40
3.82048149
 50
0.00000000
  0
TEXT
  1
4-2x10 BEAM
  7
SPSIMP
  8
LAYER_12
 10
1193.12500000
 20
380.43750000
 40
2.54689338
 50
0.00000000
  0
TEXT
  1
SEE LEFT FRAMING FOR DORMER SIDE FRAMING 
  7
SPSIMP
  8
LAYER_4
 10
1089.75000000
 20
232.68750000
 40
5.09392818
 50
0.00000000
  0
TEXT
  1
2-2x8 LINTEL
  7
SPSIMP
  8
LAYER_12
 10
1188.87500000
 20
470.50000000
 40
3.82048149
 50
0.00000000
  0
LINE
  8
LAYER_2
 10
1088.62500000
 20
277.00000000
 11
1376.62500000
 21
277.00000000
  0
LINE
  8
LAYER_2
 10
1376.62500000
 20
277.00000000
 11
1376.62500000
 21
275.50000000
  0
LINE
  8
LAYER_2
 10
1088.62500000
 20
275.50000000
 11
1376.62500000
 21
275.50000000
  0
LINE
  8
LAYER_2
 10
1088.62500000
 20
277.00000000
 11
1088.62500000
 21
275.50000000
  0
LINE
  8
LAYER_2
 10
1371.12500000
 20
373.00000000
 11
1375.12500000
 21
373.00000000
  0
LINE
  8
LAYER_2
 10
1375.12500000
 20
373.00000000
 11
1375.12500000
 21
277.00000000
  0
LINE
  8
LAYER_2
 10
1371.12500000
 20
277.00000000
 11
1375.12500000
 21
277.00000000
  0
LINE
  8
LAYER_2
 10
1371.12500000
 20
373.00000000
 11
1371.12500000
 21
277.00000000
  0
LINE
  8
LAYER_2
 10
1090.12500000
 20
373.00000000
 11
1094.12500000
 21
373.00000000
  0
LINE
  8
LAYER_2
 10
1094.12500000
 20
373.00000000
 11
1094.12500000
 21
277.00000000
  0
LINE
  8
LAYER_2
 10
1090.12500000
 20
277.00000000
 11
1094.12500000
 21
277.00000000
  0
LINE
  8
LAYER_2
 10
1090.12500000
 20
373.00000000
 11
1090.12500000
 21
277.00000000
  0
LINE
  8
LAYER_2
 10
1243.12500000
 20
365.00000000
 11
1294.12500000
 21
365.00000000
  0
LINE
  8
LAYER_2
 10
1294.12500000
 20
365.00000000
 11
1294.12500000
 21
357.50000000
  0
LINE
  8
LAYER_2
 10
1243.12500000
 20
357.50000000
 11
1294.12500000
 21
357.50000000
  0
LINE
  8
LAYER_2
 10
1243.12500000
 20
365.00000000
 11
1243.12500000
 21
357.50000000
  0
LINE
  8
LAYER_2
 10
1244.62500000
 20
321.50000000
 11
1292.62500000
 21
321.50000000
  0
LINE
  8
LAYER_2
 10
1292.62500000
 20
321.50000000
 11
1292.62500000
 21
320.00000000
  0
LINE
  8
LAYER_2
 10
1244.62500000
 20
320.00000000
 11
1292.62500000
 21
320.00000000
  0
LINE
  8
LAYER_2
 10
1244.62500000
 20
321.50000000
 11
1244.62500000
 21
320.00000000
  0
LINE
  8
LAYER_2
 10
1392.62500000
 20
377.75000000
 11
1392.62500000
 21
373.00000000
  0
LINE
  8
LAYER_2
 10
1072.62500000
 20
377.87500000
 11
1072.62500000
 21
373.00000000
  0
LINE
  8
LAYER_2
 10
1088.62500000
 20
376.00000000
 11
1376.62500000
 21
376.00000000
  0
LINE
  8
LAYER_2
 10
1088.62500000
 20
374.50000000
 11
1229.62500000
 21
374.50000000
  0
LINE
  8
LAYER_2
 10
1072.62500000
 20
377.87500000
 11
1232.50000000
 21
537.87500000
  0
LINE
  8
LAYER_2
 10
1232.50000000
 20
537.87500000
 11
1392.62500000
 21
377.75000000
  0
LINE
  8
LAYER_2
 10
1078.37500000
 20
373.00000000
 11
1088.50000000
 21
383.25000000
  0
LINE
  8
LAYER_2
 10
1234.87500000
 20
524.50000000
 11
1277.50000000
 21
481.87500000
  0
LINE
  8
LAYER_2
 10
1088.62500000
 20
369.50000000
 11
1088.62500000
 21
277.00000000
  0
LINE
  8
LAYER_2
 10
1090.12500000
 20
369.50000000
 11
1090.12500000
 21
277.00000000
  0
LINE
  8
LAYER_2
 10
1088.62500000
 20
277.00000000
 11
1090.12500000
 21
277.00000000
  0
LINE
  8
LAYER_2
 10
1103.87500000
 20
373.00000000
 11
1103.87500000
 21
277.00000000
  0
LINE
  8
LAYER_2
 10
1105.37500000
 20
373.00000000
 11
1105.37500000
 21
277.00000000
  0
LINE
  8
LAYER_2
 10
1103.87500000
 20
277.00000000
 11
1105.37500000
 21
277.00000000
  0
LINE
  8
LAYER_2
 10
1119.87500000
 20
373.00000000
 11
1119.87500000
 21
277.00000000
  0
LINE
  8
LAYER_2
 10
1121.37500000
 20
373.00000000
 11
1121.37500000
 21
277.00000000
  0
LINE
  8
LAYER_2
 10
1119.87500000
 20
277.00000000
 11
1121.37500000
 21
277.00000000
  0
LINE
  8
LAYER_2
 10
1135.87500000
 20
373.00000000
 11
1135.87500000
 21
277.00000000
  0
LINE
  8
LAYER_2
 10
1137.37500000
 20
373.00000000
 11
1137.37500000
 21
277.00000000
  0
LINE
  8
LAYER_2
 10
1135.87500000
 20
277.00000000
 11
1137.37500000
 21
277.00000000
  0
LINE
  8
LAYER_2
 10
1151.87500000
 20
373.00000000
 11
1151.87500000
 21
277.00000000
  0
LINE
  8
LAYER_2
 10
1153.37500000
 20
373.00000000
 11
1153.37500000
 21
277.00000000
  0
LINE
  8
LAYER_2
 10
1151.87500000
 20
277.00000000
 11
1153.37500000
 21
277.00000000
  0
LINE
  8
LAYER_2
 10
1167.87500000
 20
373.00000000
 11
1167.87500000
 21
277.00000000
  0
LINE
  8
LAYER_2
 10
1169.37500000
 20
373.00000000
 11
1169.37500000
 21
277.00000000
  0
LINE
  8
LAYER_2
 10
1167.87500000
 20
277.00000000
 11
1169.37500000
 21
277.00000000
  0
LINE
  8
LAYER_2
 10
1183.87500000
 20
373.00000000
 11
1183.87500000
 21
277.00000000
  0
LINE
  8
LAYER_2
 10
1185.37500000
 20
373.00000000
 11
1185.37500000
 21
277.00000000
  0
LINE
  8
LAYER_2
 10
1183.87500000
 20
277.00000000
 11
1185.37500000
 21
277.00000000
  0
LINE
  8
LAYER_2
 10
1199.87500000
 20
373.00000000
 11
1199.87500000
 21
277.00000000
  0
LINE
  8
LAYER_2
 10
1201.37500000
 20
373.00000000
 11
1201.37500000
 21
277.00000000
  0
LINE
  8
LAYER_2
 10
1199.87500000
 20
277.00000000
 11
1201.37500000
 21
277.00000000
  0
LINE
  8
LAYER_2
 10
1241.62500000
 20
373.00000000
 11
1241.62500000
 21
277.00000000
  0
LINE
  8
LAYER_2
 10
1243.12500000
 20
373.00000000
 11
1243.12500000
 21
277.00000000
  0
LINE
  8
LAYER_2
 10
1241.62500000
 20
277.00000000
 11
1244.62500000
 21
277.00000000
  0
LINE
  8
LAYER_2
 10
1244.62500000
 20
373.00000000
 11
1244.62500000
 21
365.00000000
  0
LINE
  8
LAYER_2
 10
1243.12500000
 20
365.00000000
 11
1244.62500000
 21
365.00000000
  0
LINE
  8
LAYER_2
 10
1247.12500000
 20
373.00000000
 11
1247.12500000
 21
365.00000000
  0
LINE
  8
LAYER_2
 10
1248.62500000
 20
373.00000000
 11
1248.62500000
 21
365.00000000
  0
LINE
  8
LAYER_2
 10
1292.62500000
 20
373.00000000
 11
1292.62500000
 21
365.00000000
  0
LINE
  8
LAYER_2
 10
1292.62500000
 20
365.00000000
 11
1294.12500000
 21
365.00000000
  0
LINE
  8
LAYER_2
 10
1294.12500000
 20
373.00000000
 11
1294.12500000
 21
277.00000000
  0
LINE
  8
LAYER_2
 10
1295.62500000
 20
373.00000000
 11
1295.62500000
 21
277.00000000
  0
LINE
  8
LAYER_2
 10
1292.62500000
 20
357.50000000
 11
1292.62500000
 21
277.00000000
  0
LINE
  8
LAYER_2
 10
1292.62500000
 20
357.50000000
 11
1294.12500000
 21
357.50000000
  0
LINE
  8
LAYER_2
 10
1292.62500000
 20
277.00000000
 11
1295.62500000
 21
277.00000000
  0
LINE
  8
LAYER_2
 10
1247.12500000
 20
320.00000000
 11
1247.12500000
 21
277.00000000
  0
LINE
  8
LAYER_2
 10
1248.62500000
 20
320.00000000
 11
1248.62500000
 21
277.00000000
  0
LINE
  8
LAYER_2
 10
1247.12500000
 20
277.00000000
 11
1248.62500000
 21
277.00000000
  0
LINE
  8
LAYER_2
 10
1311.87500000
 20
373.00000000
 11
1311.87500000
 21
277.00000000
  0
LINE
  8
LAYER_2
 10
1313.37500000
 20
373.00000000
 11
1313.37500000
 21
277.00000000
  0
LINE
  8
LAYER_2
 10
1311.87500000
 20
277.00000000
 11
1313.37500000
 21
277.00000000
  0
LINE
  8
LAYER_2
 10
1327.87500000
 20
373.00000000
 11
1327.87500000
 21
277.00000000
  0
LINE
  8
LAYER_2
 10
1329.37500000
 20
373.00000000
 11
1329.37500000
 21
277.00000000
  0
LINE
  8
LAYER_2
 10
1327.87500000
 20
277.00000000
 11
1329.37500000
 21
277.00000000
  0
LINE
  8
LAYER_2
 10
1343.87500000
 20
373.00000000
 11
1343.87500000
 21
277.00000000
  0
LINE
  8
LAYER_2
 10
1345.37500000
 20
373.00000000
 11
1345.37500000
 21
277.00000000
  0
LINE
  8
LAYER_2
 10
1343.87500000
 20
277.00000000
 11
1345.37500000
 21
277.00000000
  0
LINE
  8
LAYER_2
 10
1359.87500000
 20
373.00000000
 11
1359.87500000
 21
277.00000000
  0
LINE
  8
LAYER_2
 10
1361.37500000
 20
373.00000000
 11
1361.37500000
 21
277.00000000
  0
LINE
  8
LAYER_2
 10
1359.87500000
 20
277.00000000
 11
1361.37500000
 21
277.00000000
  0
LINE
  8
LAYER_2
 10
1376.62500000
 20
369.50000000
 11
1376.62500000
 21
277.00000000
  0
LINE
  8
LAYER_2
 10
1375.12500000
 20
277.00000000
 11
1376.62500000
 21
277.00000000
  0
LINE
  8
LAYER_2
 10
1088.62500000
 20
385.87500000
 11
1088.62500000
 21
369.50000000
  0
LINE
  8
LAYER_2
 10
1376.62500000
 20
385.87500000
 11
1376.62500000
 21
365.00000000
  0
LINE
  8
LAYER_2
 10
1088.62500000
 20
373.00000000
 11
1229.62500000
 21
373.00000000
  0
LINE
  8
LAYER_2
 10
1244.62500000
 20
357.50000000
 11
1244.62500000
 21
277.00000000
  0
LINE
  8
LAYER_2
 10
1243.12500000
 20
357.50000000
 11
1244.62500000
 21
357.50000000
  0
LINE
  8
LAYER_2
 10
1088.62500000
 20
385.25000000
 11
1376.62500000
 21
385.25000000
  0
LINE
  8
LAYER_2
 10
1072.62500000
 20
373.00000000
 11
1078.37500000
 21
373.00000000
  0
LINE
  8
LAYER_2
 10
1092.62500000
 20
387.37500000
 11
1185.62500000
 21
480.37500000
  0
LINE
  8
LAYER_2
 10
1386.87500000
 20
373.00000000
 11
1392.62500000
 21
373.00000000
  0
LINE
  8
LAYER_2
 10
1376.62500000
 20
383.25000000
 11
1386.87500000
 21
373.00000000
  0
LINE
  8
LAYER_2
 10
1232.50000000
 20
533.00000000
 11
1392.50000000
 21
373.00000000
  0
LINE
  8
LAYER_2
 10
1072.62500000
 20
373.00000000
 11
1232.50000000
 21
533.00000000
  0
LINE
  8
LAYER_2
 10
1094.00000000
 20
385.87500000
 11
1376.62500000
 21
385.87500000
  0
LINE
  8
LAYER_2
 10
1094.12500000
 20
387.37500000
 11
1371.87500000
 21
387.37500000
  0
LINE
  8
LAYER_2
 10
1089.00000000
 20
387.37500000
 11
1232.50000000
 21
531.00000000
  0
LINE
  8
LAYER_2
 10
1091.00000000
 20
387.37500000
 11
1230.12500000
 21
526.62500000
  0
LINE
  8
LAYER_2
 10
1087.87500000
 20
388.12500000
 11
1088.62500000
 21
387.37500000
  0
LINE
  8
LAYER_2
 10
1234.87500000
 20
526.50000000
 11
1374.00000000
 21
387.37500000
  0
LINE
  8
LAYER_2
 10
1232.50000000
 20
531.00000000
 11
1376.00000000
 21
387.37500000
  0
LINE
  8
LAYER_2
 10
1376.62500000
 20
387.37500000
 11
1377.37500000
 21
388.12500000
  0
LINE
  8
LAYER_2
 10
1103.87500000
 20
398.62500000
 11
1103.87500000
 21
387.37500000
  0
LINE
  8
LAYER_2
 10
1105.37500000
 20
400.00000000
 11
1105.37500000
 21
387.37500000
  0
LINE
  8
LAYER_2
 10
1119.87500000
 20
414.50000000
 11
1119.87500000
 21
387.37500000
  0
LINE
  8
LAYER_2
 10
1121.37500000
 20
416.12500000
 11
1121.37500000
 21
387.37500000
  0
LINE
  8
LAYER_2
 10
1135.87500000
 20
430.62500000
 11
1135.87500000
 21
387.37500000
  0
LINE
  8
LAYER_2
 10
1137.37500000
 20
432.12500000
 11
1137.37500000
 21
387.37500000
  0
LINE
  8
LAYER_2
 10
1151.87500000
 20
446.62500000
 11
1151.87500000
 21
387.37500000
  0
LINE
  8
LAYER_2
 10
1153.37500000
 20
448.00000000
 11
1153.37500000
 21
387.37500000
  0
LINE
  8
LAYER_2
 10
1167.87500000
 20
462.62500000
 11
1167.87500000
 21
387.37500000
  0
LINE
  8
LAYER_2
 10
1169.37500000
 20
464.12500000
 11
1169.37500000
 21
387.37500000
  0
LINE
  8
LAYER_2
 10
1183.87500000
 20
478.62500000
 11
1183.87500000
 21
387.37500000
  0
LINE
  8
LAYER_2
 10
1185.37500000
 20
480.12500000
 11
1185.37500000
 21
475.37500000
  0
LINE
  8
LAYER_2
 10
1199.87500000
 20
494.62500000
 11
1199.87500000
 21
481.87500000
  0
LINE
  8
LAYER_2
 10
1201.37500000
 20
496.12500000
 11
1201.37500000
 21
481.87500000
  0
LINE
  8
LAYER_2
 10
1215.87500000
 20
510.62500000
 11
1215.87500000
 21
481.87500000
  0
LINE
  8
LAYER_2
 10
1217.37500000
 20
512.12500000
 11
1217.37500000
 21
481.87500000
  0
LINE
  8
LAYER_2
 10
1231.87500000
 20
518.62500000
 11
1231.87500000
 21
481.87500000
  0
LINE
  8
LAYER_2
 10
1233.37500000
 20
518.62500000
 11
1233.37500000
 21
481.87500000
  0
LINE
  8
LAYER_2
 10
1247.87500000
 20
511.50000000
 11
1247.87500000
 21
481.87500000
  0
LINE
  8
LAYER_2
 10
1249.37500000
 20
510.00000000
 11
1249.37500000
 21
481.87500000
  0
LINE
  8
LAYER_2
 10
1263.87500000
 20
495.50000000
 11
1263.87500000
 21
481.87500000
  0
LINE
  8
LAYER_2
 10
1265.37500000
 20
494.00000000
 11
1265.37500000
 21
481.87500000
  0
LINE
  8
LAYER_2
 10
1279.87500000
 20
479.87500000
 11
1279.87500000
 21
387.37500000
  0
LINE
  8
LAYER_2
 10
1281.37500000
 20
478.37500000
 11
1281.37500000
 21
387.37500000
  0
LINE
  8
LAYER_2
 10
1295.87500000
 20
463.87500000
 11
1295.87500000
 21
387.37500000
  0
LINE
  8
LAYER_2
 10
1297.37500000
 20
462.25000000
 11
1297.37500000
 21
387.37500000
  0
LINE
  8
LAYER_2
 10
1311.87500000
 20
447.87500000
 11
1311.87500000
 21
387.37500000
  0
LINE
  8
LAYER_2
 10
1313.37500000
 20
446.25000000
 11
1313.37500000
 21
387.37500000
  0
LINE
  8
LAYER_2
 10
1327.87500000
 20
431.75000000
 11
1327.87500000
 21
387.37500000
  0
LINE
  8
LAYER_2
 10
1329.37500000
 20
430.25000000
 11
1329.37500000
 21
387.37500000
  0
LINE
  8
LAYER_2
 10
1343.87500000
 20
415.75000000
 11
1343.87500000
 21
387.37500000
  0
LINE
  8
LAYER_2
 10
1345.37500000
 20
414.25000000
 11
1345.37500000
 21
387.37500000
  0
LINE
  8
LAYER_2
 10
1359.87500000
 20
399.62500000
 11
1359.87500000
 21
387.37500000
  0
LINE
  8
LAYER_2
 10
1361.37500000
 20
398.12500000
 11
1361.37500000
 21
387.37500000
  0
LINE
  8
LAYER_2
 10
1185.50000000
 20
481.87500000
 11
1279.50000000
 21
481.87500000
  0
LINE
  8
LAYER_2
 10
1183.87500000
 20
480.37500000
 11
1281.00000000
 21
480.37500000
  0
LINE
  8
LAYER_2
 10
1279.37500000
 20
480.37500000
 11
1372.25000000
 21
387.37500000
  0
LINE
  8
LAYER_2
 10
1247.87500000
 20
480.37500000
 11
1247.87500000
 21
387.37500000
  0
LINE
  8
LAYER_2
 10
1249.37500000
 20
480.37500000
 11
1249.37500000
 21
387.37500000
  0
LINE
  8
LAYER_2
 10
1263.87500000
 20
480.37500000
 11
1263.87500000
 21
387.37500000
  0
LINE
  8
LAYER_2
 10
1265.37500000
 20
480.37500000
 11
1265.37500000
 21
387.37500000
  0
LINE
  8
LAYER_2
 10
1215.87500000
 20
480.37500000
 11
1215.87500000
 21
475.37500000
  0
LINE
  8
LAYER_2
 10
1217.37500000
 20
480.37500000
 11
1217.37500000
 21
475.37500000
  0
LINE
  8
LAYER_2
 10
1231.87500000
 20
480.37500000
 11
1231.87500000
 21
387.37500000
  0
LINE
  8
LAYER_2
 10
1233.37500000
 20
480.37500000
 11
1233.37500000
 21
387.37500000
  0
LINE
  8
LAYER_2
 10
1199.87500000
 20
480.37500000
 11
1199.87500000
 21
475.37500000
  0
LINE
  8
LAYER_2
 10
1201.37500000
 20
480.37500000
 11
1201.37500000
 21
475.37500000
  0
LINE
  8
LAYER_2
 10
1187.12500000
 20
481.87500000
 11
1230.25000000
 21
525.12500000
  0
LINE
  8
LAYER_2
 10
1215.87500000
 20
373.00000000
 11
1215.87500000
 21
277.00000000
  0
LINE
  8
LAYER_2
 10
1217.37500000
 20
373.00000000
 11
1217.37500000
 21
277.00000000
  0
LINE
  8
LAYER_2
 10
1215.87500000
 20
277.00000000
 11
1217.37500000
 21
277.00000000
  0
LINE
  8
LAYER_2
 10
1231.12500000
 20
366.50000000
 11
1231.12500000
 21
277.00000000
  0
LINE
  8
LAYER_2
 10
1232.62500000
 20
366.50000000
 11
1232.62500000
 21
277.00000000
  0
LINE
  8
LAYER_2
 10
1231.00000000
 20
277.00000000
 11
1232.62500000
 21
277.00000000
  0
LINE
  8
LAYER_2
 10
1234.12500000
 20
366.50000000
 11
1234.12500000
 21
277.00000000
  0
LINE
  8
LAYER_2
 10
1235.62500000
 20
374.50000000
 11
1235.62500000
 21
277.00000000
  0
LINE
  8
LAYER_2
 10
1237.12500000
 20
373.00000000
 11
1237.12500000
 21
277.00000000
  0
LINE
  8
LAYER_2
 10
1229.62500000
 20
374.00000000
 11
1229.62500000
 21
277.00000000
  0
LINE
  8
LAYER_2
 10
1228.37500000
 20
373.00000000
 11
1228.37500000
 21
277.00000000
  0
LINE
  8
LAYER_2
 10
1229.62500000
 20
366.50000000
 11
1235.62500000
 21
366.50000000
  0
LINE
  8
LAYER_2
 10
1235.62500000
 20
373.00000000
 11
1376.62500000
 21
373.00000000
  0
LINE
  8
LAYER_2
 10
1297.12500000
 20
373.00000000
 11
1297.12500000
 21
277.00000000
  0
LINE
  8
LAYER_2
 10
1263.12500000
 20
373.00000000
 11
1263.12500000
 21
365.00000000
  0
LINE
  8
LAYER_2
 10
1264.62500000
 20
373.00000000
 11
1264.62500000
 21
365.00000000
  0
LINE
  8
LAYER_2
 10
1263.12500000
 20
320.00000000
 11
1263.12500000
 21
277.00000000
  0
LINE
  8
LAYER_2
 10
1264.62500000
 20
320.00000000
 11
1264.62500000
 21
277.00000000
  0
LINE
  8
LAYER_2
 10
1263.12500000
 20
277.00000000
 11
1264.62500000
 21
277.00000000
  0
LINE
  8
LAYER_2
 10
1279.12500000
 20
373.00000000
 11
1279.12500000
 21
365.00000000
  0
LINE
  8
LAYER_2
 10
1280.62500000
 20
373.00000000
 11
1280.62500000
 21
365.00000000
  0
LINE
  8
LAYER_2
 10
1279.12500000
 20
320.00000000
 11
1279.12500000
 21
277.00000000
  0
LINE
  8
LAYER_2
 10
1280.62500000
 20
320.00000000
 11
1280.62500000
 21
277.00000000
  0
LINE
  8
LAYER_2
 10
1279.12500000
 20
277.00000000
 11
1280.62500000
 21
277.00000000
  0
LINE
  8
LAYER_2
 10
1375.12500000
 20
373.00000000
 11
1375.12500000
 21
277.00000000
  0
LINE
  8
LAYER_2
 10
1373.12500000
 20
376.00000000
 11
1373.12500000
 21
374.50000000
  0
LINE
  8
LAYER_2
 10
1092.12500000
 20
376.00000000
 11
1092.12500000
 21
374.50000000
  0
LINE
  8
LAYER_2
 10
1234.12500000
 20
374.50000000
 11
1234.12500000
 21
374.00000000
  0
LINE
  8
LAYER_2
 10
1232.62500000
 20
374.50000000
 11
1232.62500000
 21
374.00000000
  0
LINE
  8
LAYER_2
 10
1231.12500000
 20
374.50000000
 11
1231.12500000
 21
374.00000000
  0
LINE
  8
LAYER_2
 10
1235.62500000
 20
374.50000000
 11
1376.62500000
 21
374.50000000
  0
LINE
  8
LAYER_2
 10
1234.87500000
 20
518.62500000
 11
1234.87500000
 21
481.87500000
  0
LINE
  8
LAYER_2
 10
1234.87500000
 20
480.37500000
 11
1234.87500000
 21
387.37500000
  0
LINE
  8
LAYER_2
 10
1230.37500000
 20
518.62500000
 11
1230.37500000
 21
481.87500000
  0
LINE
  8
LAYER_2
 10
1230.37500000
 20
480.37500000
 11
1230.37500000
 21
387.37500000
  0
LINE
  8
LAYER_2
 10
1228.87500000
 20
480.37500000
 11
1228.87500000
 21
387.37500000
  0
LINE
  8
LAYER_2
 10
1227.43750000
 20
480.37500000
 11
1227.43750000
 21
475.37500000
  0
LINE
  8
LAYER_2
 10
1183.93750000
 20
467.87500000
 11
1228.87500000
 21
467.87500000
  0
LINE
  8
LAYER_2
 10
1185.43750000
 20
431.87500000
 11
1227.43750000
 21
431.87500000
  0
LINE
  8
LAYER_2
 10
1182.37500000
 20
477.25000000
 11
1182.37500000
 21
387.37500000
  0
LINE
  8
LAYER_2
 10
1183.87500000
 20
475.37500000
 11
1228.87500000
 21
475.37500000
  0
LINE
  8
LAYER_2
 10
1185.43750000
 20
430.37500000
 11
1227.43750000
 21
430.37500000
  0
LINE
  8
LAYER_2
 10
1185.43750000
 20
467.87500000
 11
1185.43750000
 21
387.37500000
  0
LINE
  8
LAYER_2
 10
1227.43750000
 20
467.87500000
 11
1227.43750000
 21
387.37500000
  0
LINE
  8
LAYER_2
 10
1215.87500000
 20
430.37500000
 11
1215.87500000
 21
387.37500000
  0
LINE
  8
LAYER_2
 10
1217.37500000
 20
430.37500000
 11
1217.37500000
 21
387.37500000
  0
LINE
  8
LAYER_2
 10
1199.87500000
 20
430.37500000
 11
1199.87500000
 21
387.37500000
  0
LINE
  8
LAYER_2
 10
1201.37500000
 20
430.37500000
 11
1201.37500000
 21
387.37500000
  0
LINE
  8
LAYER_2
 10
1088.62500000
 20
387.37500000
 11
1094.12500000
 21
387.37500000
  0
LINE
  8
LAYER_2
 10
1094.12500000
 20
387.37500000
 11
1094.12500000
 21
385.87500000
  0
LINE
  8
LAYER_2
 10
1088.62500000
 20
385.87500000
 11
1094.12500000
 21
385.87500000
  0
LINE
  8
LAYER_2
 10
1088.62500000
 20
387.37500000
 11
1088.62500000
 21
385.87500000
  0
LINE
  8
LAYER_2
 10
1088.62500000
 20
385.87500000
 11
1094.12500000
 21
387.37500000
  0
LINE
  8
LAYER_2
 10
1094.12500000
 20
385.87500000
 11
1088.62500000
 21
387.37500000
  0
LINE
  8
LAYER_2
 10
1371.12500000
 20
387.37500000
 11
1376.62500000
 21
387.37500000
  0
LINE
  8
LAYER_2
 10
1376.62500000
 20
387.37500000
 11
1376.62500000
 21
385.87500000
  0
LINE
  8
LAYER_2
 10
1371.12500000
 20
385.87500000
 11
1376.62500000
 21
385.87500000
  0
LINE
  8
LAYER_2
 10
1371.12500000
 20
387.37500000
 11
1371.12500000
 21
385.87500000
  0
LINE
  8
LAYER_2
 10
1371.12500000
 20
385.87500000
 11
1376.62500000
 21
387.37500000
  0
LINE
  8
LAYER_2
 10
1376.62500000
 20
385.87500000
 11
1371.12500000
 21
387.37500000
  0
LINE
  8
LAYER_2
 10
1234.12500000
 20
376.00000000
 11
1235.62500000
 21
376.00000000
  0
LINE
  8
LAYER_2
 10
1235.62500000
 20
376.00000000
 11
1235.62500000
 21
366.50000000
  0
LINE
  8
LAYER_2
 10
1234.12500000
 20
366.50000000
 11
1235.62500000
 21
366.50000000
  0
LINE
  8
LAYER_2
 10
1234.12500000
 20
376.00000000
 11
1234.12500000
 21
366.50000000
  0
LINE
  8
LAYER_2
 10
1234.12500000
 20
366.50000000
 11
1235.62500000
 21
376.00000000
  0
LINE
  8
LAYER_2
 10
1235.62500000
 20
366.50000000
 11
1234.12500000
 21
376.00000000
  0
LINE
  8
LAYER_2
 10
1232.62500000
 20
376.00000000
 11
1234.12500000
 21
376.00000000
  0
LINE
  8
LAYER_2
 10
1234.12500000
 20
376.00000000
 11
1234.12500000
 21
366.50000000
  0
LINE
  8
LAYER_2
 10
1232.62500000
 20
366.50000000
 11
1234.12500000
 21
366.50000000
  0
LINE
  8
LAYER_2
 10
1232.62500000
 20
376.00000000
 11
1232.62500000
 21
366.50000000
  0
LINE
  8
LAYER_2
 10
1232.62500000
 20
366.50000000
 11
1234.12500000
 21
376.00000000
  0
LINE
  8
LAYER_2
 10
1234.12500000
 20
366.50000000
 11
1232.62500000
 21
376.00000000
  0
LINE
  8
LAYER_2
 10
1231.12500000
 20
376.00000000
 11
1232.62500000
 21
376.00000000
  0
LINE
  8
LAYER_2
 10
1232.62500000
 20
376.00000000
 11
1232.62500000
 21
366.50000000
  0
LINE
  8
LAYER_2
 10
1231.12500000
 20
366.50000000
 11
1232.62500000
 21
366.50000000
  0
LINE
  8
LAYER_2
 10
1231.12500000
 20
376.00000000
 11
1231.12500000
 21
366.50000000
  0
LINE
  8
LAYER_2
 10
1231.12500000
 20
366.50000000
 11
1232.62500000
 21
376.00000000
  0
LINE
  8
LAYER_2
 10
1232.62500000
 20
366.50000000
 11
1231.12500000
 21
376.00000000
  0
LINE
  8
LAYER_2
 10
1229.62500000
 20
376.00000000
 11
1231.12500000
 21
376.00000000
  0
LINE
  8
LAYER_2
 10
1231.12500000
 20
376.00000000
 11
1231.12500000
 21
366.50000000
  0
LINE
  8
LAYER_2
 10
1229.62500000
 20
366.50000000
 11
1231.12500000
 21
366.50000000
  0
LINE
  8
LAYER_2
 10
1229.62500000
 20
376.00000000
 11
1229.62500000
 21
366.50000000
  0
LINE
  8
LAYER_2
 10
1229.62500000
 20
366.50000000
 11
1231.12500000
 21
376.00000000
  0
LINE
  8
LAYER_2
 10
1231.12500000
 20
366.50000000
 11
1229.62500000
 21
376.00000000
  0
LINE
  8
LAYER_2
 10
1231.75000000
 20
527.87500000
 11
1233.25000000
 21
527.87500000
  0
LINE
  8
LAYER_2
 10
1233.25000000
 20
527.87500000
 11
1233.25000000
 21
518.62500000
  0
LINE
  8
LAYER_2
 10
1231.75000000
 20
518.62500000
 11
1233.25000000
 21
518.62500000
  0
LINE
  8
LAYER_2
 10
1231.75000000
 20
527.87500000
 11
1231.75000000
 21
518.62500000
  0
LINE
  8
LAYER_2
 10
1231.75000000
 20
518.62500000
 11
1233.25000000
 21
527.87500000
  0
LINE
  8
LAYER_2
 10
1233.25000000
 20
518.62500000
 11
1231.75000000
 21
527.87500000
  0
LINE
  8
LAYER_2
 10
1233.25000000
 20
527.87500000
 11
1234.75000000
 21
527.87500000
  0
LINE
  8
LAYER_2
 10
1234.75000000
 20
527.87500000
 11
1234.75000000
 21
518.62500000
  0
LINE
  8
LAYER_2
 10
1233.25000000
 20
518.62500000
 11
1234.75000000
 21
518.62500000
  0
LINE
  8
LAYER_2
 10
1233.25000000
 20
527.87500000
 11
1233.25000000
 21
518.62500000
  0
LINE
  8
LAYER_2
 10
1233.25000000
 20
518.62500000
 11
1234.75000000
 21
527.87500000
  0
LINE
  8
LAYER_2
 10
1234.75000000
 20
518.62500000
 11
1233.25000000
 21
527.87500000
  0
LINE
  8
LAYER_2
 10
1230.25000000
 20
527.87500000
 11
1231.75000000
 21
527.87500000
  0
LINE
  8
LAYER_2
 10
1231.75000000
 20
527.87500000
 11
1231.75000000
 21
518.62500000
  0
LINE
  8
LAYER_2
 10
1230.25000000
 20
518.62500000
 11
1231.75000000
 21
518.62500000
  0
LINE
  8
LAYER_2
 10
1230.25000000
 20
527.87500000
 11
1230.25000000
 21
518.62500000
  0
LINE
  8
LAYER_2
 10
1230.25000000
 20
518.62500000
 11
1231.75000000
 21
527.87500000
  0
LINE
  8
LAYER_2
 10
1231.75000000
 20
518.62500000
 11
1230.25000000
 21
527.87500000
  0
LINE
  8
LAYER_4
 10
1222.62500000
 20
380.96579724
 11
1218.12500000
 21
380.25000000
  0
LINE
  8
LAYER_4
 10
1218.12500000
 20
380.25000000
 11
1229.50000000
 21
370.37500000
  0
LINE
  8
LAYER_4
 10
1224.02731299
 20
373.22317913
 11
1229.50000000
 21
370.37500000
  0
LINE
  8
LAYER_4
 10
1225.91117126
 20
375.39345472
 11
1229.50000000
 21
370.37500000
  0
LINE
  8
LAYER_11
 10
1067.75000000
 20
275.50000000
 11
1067.75000000
 21
376.00000000
  0
LINE
  8
LAYER_11
 10
1068.75000000
 20
375.00000000
 11
1066.75000000
 21
377.00000000
  0
LINE
  8
LAYER_11
 10
1068.75000000
 20
375.25000000
 11
1066.75000000
 21
377.25000000
  0
LINE
  8
LAYER_11
 10
1068.75000000
 20
374.75000000
 11
1066.75000000
 21
376.75000000
  0
LINE
  8
LAYER_11
 10
1066.75000000
 20
276.50000000
 11
1068.75000000
 21
274.50000000
  0
LINE
  8
LAYER_11
 10
1066.75000000
 20
276.25000000
 11
1068.75000000
 21
274.25000000
  0
LINE
  8
LAYER_11
 10
1066.75000000
 20
276.75000000
 11
1068.75000000
 21
274.75000000
  0
TEXT
  1
8' 4 1/2"
  7
SPSIMP
  8
LAYER_11
 10
1064.06250000
 20
315.75000000
 40
2.54689338
 50
90.00000000
  0
LINE
  8
LAYER_11
 10
1309.75000000
 20
277.00000000
 11
1309.75000000
 21
357.50000000
  0
LINE
  8
LAYER_11
 10
1310.75000000
 20
356.50024606
 11
1308.75000000
 21
358.49975394
  0
LINE
  8
LAYER_11
 10
1310.75000000
 20
356.75000000
 11
1308.75000000
 21
358.74950787
  0
LINE
  8
LAYER_11
 10
1310.75000000
 20
356.25049213
 11
1308.75000000
 21
358.25000000
  0
LINE
  8
LAYER_11
 10
1308.75000000
 20
277.99975394
 11
1310.75000000
 21
276.00024606
  0
LINE
  8
LAYER_11
 10
1308.75000000
 20
277.75000000
 11
1310.75000000
 21
275.75049213
  0
LINE
  8
LAYER_11
 10
1308.75000000
 20
278.24950787
 11
1310.75000000
 21
276.25000000
  0
TEXT
  1
6' 8 1/2"
  7
SPSIMP
  8
LAYER_11
 10
1306.06250000
 20
307.25000000
 40
2.54689338
 50
90.00000000
  0
LINE
  8
LAYER_11
 10
1309.75000000
 20
357.50000000
 11
1309.75000000
 21
365.00000000
  0
LINE
  8
LAYER_11
 10
1310.75000000
 20
364.00000000
 11
1308.75000000
 21
366.00000000
  0
LINE
  8
LAYER_11
 10
1310.75000000
 20
364.25000000
 11
1308.75000000
 21
366.25000000
  0
LINE
  8
LAYER_11
 10
1310.75000000
 20
363.75000000
 11
1308.75000000
 21
365.75000000
  0
LINE
  8
LAYER_11
 10
1308.75000000
 20
358.50000000
 11
1310.75000000
 21
356.50000000
  0
LINE
  8
LAYER_11
 10
1308.75000000
 20
358.25000000
 11
1310.75000000
 21
356.25000000
  0
LINE
  8
LAYER_11
 10
1308.75000000
 20
358.75000000
 11
1310.75000000
 21
356.75000000
  0
TEXT
  1
7 1/2"
  7
SPSIMP
  8
LAYER_11
 10
1305.56250000
 20
354.25000000
 40
2.54689338
 50
90.00000000
  0
LINE
  8
LAYER_11
 10
1088.62500000
 20
259.37500000
 11
1103.87500000
 21
259.37500000
  0
LINE
  8
LAYER_11
 10
1102.87500000
 20
258.37500000
 11
1104.87500000
 21
260.37500000
  0
LINE
  8
LAYER_11
 10
1103.12500000
 20
258.37500000
 11
1105.12500000
 21
260.37500000
  0
LINE
  8
LAYER_11
 10
1102.62500000
 20
258.37500000
 11
1104.62500000
 21
260.37500000
  0
LINE
  8
LAYER_11
 10
1089.62500000
 20
260.37500000
 11
1087.62500000
 21
258.37500000
  0
LINE
  8
LAYER_11
 10
1089.37500000
 20
260.37500000
 11
1087.37500000
 21
258.37500000
  0
LINE
  8
LAYER_11
 10
1089.87500000
 20
260.37500000
 11
1087.87500000
 21
258.37500000
  0
TEXT
  1
1' 3 1/4"
  7
SPSIMP
  8
LAYER_11
 10
1086.50000000
 20
264.31250000
 40
2.54689338
 50
0.00000000
  0
LINE
  8
LAYER_11
 10
1151.87500000
 20
259.37500000
 11
1167.87500000
 21
259.37500000
  0
LINE
  8
LAYER_11
 10
1166.87500000
 20
258.37500000
 11
1168.87500000
 21
260.37500000
  0
LINE
  8
LAYER_11
 10
1167.12500000
 20
258.37500000
 11
1169.12500000
 21
260.37500000
  0
LINE
  8
LAYER_11
 10
1166.62500000
 20
258.37500000
 11
1168.62500000
 21
260.37500000
  0
LINE
  8
LAYER_11
 10
1152.87500000
 20
260.37500000
 11
1150.87500000
 21
258.37500000
  0
LINE
  8
LAYER_11
 10
1152.62500000
 20
260.37500000
 11
1150.62500000
 21
258.37500000
  0
LINE
  8
LAYER_11
 10
1153.12500000
 20
260.37500000
 11
1151.12500000
 21
258.37500000
  0
TEXT
  1
1' 4"
  7
SPSIMP
  8
LAYER_11
 10
1154.93750000
 20
264.31250000
 40
2.54689338
 50
0.00000000
  0
LINE
  8
LAYER_11
 10
1167.87500000
 20
259.37500000
 11
1183.87500000
 21
259.37500000
  0
LINE
  8
LAYER_11
 10
1182.87500000
 20
258.37500000
 11
1184.87500000
 21
260.37500000
  0
LINE
  8
LAYER_11
 10
1183.12500000
 20
258.37500000
 11
1185.12500000
 21
260.37500000
  0
LINE
  8
LAYER_11
 10
1182.62500000
 20
258.37500000
 11
1184.62500000
 21
260.37500000
  0
LINE
  8
LAYER_11
 10
1168.87500000
 20
260.37500000
 11
1166.87500000
 21
258.37500000
  0
LINE
  8
LAYER_11
 10
1168.62500000
 20
260.37500000
 11
1166.62500000
 21
258.37500000
  0
LINE
  8
LAYER_11
 10
1169.12500000
 20
260.37500000
 11
1167.12500000
 21
258.37500000
  0
TEXT
  1
1' 4"
  7
SPSIMP
  8
LAYER_11
 10
1170.93750000
 20
269.31250000
 40
2.54689338
 50
0.00000000
  0
LINE
  8
LAYER_11
 10
1183.87500000
 20
259.37500000
 11
1199.87500000
 21
259.37500000
  0
LINE
  8
LAYER_11
 10
1198.87500000
 20
258.37500000
 11
1200.87500000
 21
260.37500000
  0
LINE
  8
LAYER_11
 10
1199.12500000
 20
258.37500000
 11
1201.12500000
 21
260.37500000
  0
LINE
  8
LAYER_11
 10
1198.62500000
 20
258.37500000
 11
1200.62500000
 21
260.37500000
  0
LINE
  8
LAYER_11
 10
1184.87500000
 20
260.37500000
 11
1182.87500000
 21
258.37500000
  0
LINE
  8
LAYER_11
 10
1184.62500000
 20
260.37500000
 11
1182.62500000
 21
258.37500000
  0
LINE
  8
LAYER_11
 10
1185.12500000
 20
260.37500000
 11
1183.12500000
 21
258.37500000
  0
TEXT
  1
1' 4"
  7
SPSIMP
  8
LAYER_11
 10
1186.93750000
 20
264.31250000
 40
2.54689338
 50
0.00000000
  0
LINE
  8
LAYER_11
 10
1241.62500000
 20
259.37500000
 11
1247.12500000
 21
259.37500000
  0
LINE
  8
LAYER_11
 10
1246.12500000
 20
258.37500000
 11
1248.12500000
 21
260.37500000
  0
LINE
  8
LAYER_11
 10
1246.37500000
 20
258.37500000
 11
1248.37500000
 21
260.37500000
  0
LINE
  8
LAYER_11
 10
1245.87500000
 20
258.37500000
 11
1247.87500000
 21
260.37500000
  0
LINE
  8
LAYER_11
 10
1242.62500000
 20
260.37500000
 11
1240.62500000
 21
258.37500000
  0
LINE
  8
LAYER_11
 10
1242.37500000
 20
260.37500000
 11
1240.37500000
 21
258.37500000
  0
LINE
  8
LAYER_11
 10
1242.87500000
 20
260.37500000
 11
1240.87500000
 21
258.37500000
  0
TEXT
  1
5 1/2"
  7
SPSIMP
  8
LAYER_11
 10
1239.25000000
 20
264.31250000
 40
2.54689338
 50
0.00000000
  0
LINE
  8
LAYER_11
 10
1311.87500000
 20
259.37500000
 11
1327.87500000
 21
259.37500000
  0
LINE
  8
LAYER_11
 10
1326.87500000
 20
258.37500000
 11
1328.87500000
 21
260.37500000
  0
LINE
  8
LAYER_11
 10
1327.12500000
 20
258.37500000
 11
1329.12500000
 21
260.37500000
  0
LINE
  8
LAYER_11
 10
1326.62500000
 20
258.37500000
 11
1328.62500000
 21
260.37500000
  0
LINE
  8
LAYER_11
 10
1312.87500000
 20
260.37500000
 11
1310.87500000
 21
258.37500000
  0
LINE
  8
LAYER_11
 10
1312.62500000
 20
260.37500000
 11
1310.62500000
 21
258.37500000
  0
LINE
  8
LAYER_11
 10
1313.12500000
 20
260.37500000
 11
1311.12500000
 21
258.37500000
  0
TEXT
  1
1' 4"
  7
SPSIMP
  8
LAYER_11
 10
1314.93750000
 20
264.31250000
 40
2.54689338
 50
0.00000000
  0
LINE
  8
LAYER_11
 10
1327.87500000
 20
259.37500000
 11
1343.87500000
 21
259.37500000
  0
LINE
  8
LAYER_11
 10
1342.87500000
 20
258.37500000
 11
1344.87500000
 21
260.37500000
  0
LINE
  8
LAYER_11
 10
1343.12500000
 20
258.37500000
 11
1345.12500000
 21
260.37500000
  0
LINE
  8
LAYER_11
 10
1342.62500000
 20
258.37500000
 11
1344.62500000
 21
260.37500000
  0
LINE
  8
LAYER_11
 10
1328.87500000
 20
260.37500000
 11
1326.87500000
 21
258.37500000
  0
LINE
  8
LAYER_11
 10
1328.62500000
 20
260.37500000
 11
1326.62500000
 21
258.37500000
  0
LINE
  8
LAYER_11
 10
1329.12500000
 20
260.37500000
 11
1327.12500000
 21
258.37500000
  0
TEXT
  1
1' 4"
  7
SPSIMP
  8
LAYER_11
 10
1330.93750000
 20
269.31250000
 40
2.54689338
 50
0.00000000
  0
LINE
  8
LAYER_11
 10
1343.87500000
 20
259.37500000
 11
1359.87500000
 21
259.37500000
  0
LINE
  8
LAYER_11
 10
1358.87500000
 20
258.37500000
 11
1360.87500000
 21
260.37500000
  0
LINE
  8
LAYER_11
 10
1359.12500000
 20
258.37500000
 11
1361.12500000
 21
260.37500000
  0
LINE
  8
LAYER_11
 10
1358.62500000
 20
258.37500000
 11
1360.62500000
 21
260.37500000
  0
LINE
  8
LAYER_11
 10
1344.87500000
 20
260.37500000
 11
1342.87500000
 21
258.37500000
  0
LINE
  8
LAYER_11
 10
1344.62500000
 20
260.37500000
 11
1342.62500000
 21
258.37500000
  0
LINE
  8
LAYER_11
 10
1345.12500000
 20
260.37500000
 11
1343.12500000
 21
258.37500000
  0
TEXT
  1
1' 4"
  7
SPSIMP
  8
LAYER_11
 10
1346.93750000
 20
264.31250000
 40
2.54689338
 50
0.00000000
  0
LINE
  8
LAYER_11
 10
1359.87500000
 20
259.37500000
 11
1376.62500000
 21
259.37500000
  0
LINE
  8
LAYER_11
 10
1375.62500000
 20
258.37500000
 11
1377.62500000
 21
260.37500000
  0
LINE
  8
LAYER_11
 10
1375.87500000
 20
258.37500000
 11
1377.87500000
 21
260.37500000
  0
LINE
  8
LAYER_11
 10
1375.37500000
 20
258.37500000
 11
1377.37500000
 21
260.37500000
  0
LINE
  8
LAYER_11
 10
1360.87500000
 20
260.37500000
 11
1358.87500000
 21
258.37500000
  0
LINE
  8
LAYER_11
 10
1360.62500000
 20
260.37500000
 11
1358.62500000
 21
258.37500000
  0
LINE
  8
LAYER_11
 10
1361.12500000
 20
260.37500000
 11
1359.12500000
 21
258.37500000
  0
TEXT
  1
1' 4 3/4"
  7
SPSIMP
  8
LAYER_11
 10
1358.25000000
 20
269.31250000
 40
2.54689338
 50
0.00000000
  0
LINE
  8
LAYER_11
 10
1103.87500000
 20
259.37500000
 11
1119.87500000
 21
259.37500000
  0
LINE
  8
LAYER_11
 10
1118.87500000
 20
258.37500000
 11
1120.87500000
 21
260.37500000
  0
LINE
  8
LAYER_11
 10
1119.12500000
 20
258.37500000
 11
1121.12500000
 21
260.37500000
  0
LINE
  8
LAYER_11
 10
1118.62500000
 20
258.37500000
 11
1120.62500000
 21
260.37500000
  0
LINE
  8
LAYER_11
 10
1104.87500000
 20
260.37500000
 11
1102.87500000
 21
258.37500000
  0
LINE
  8
LAYER_11
 10
1104.62500000
 20
260.37500000
 11
1102.62500000
 21
258.37500000
  0
LINE
  8
LAYER_11
 10
1105.12500000
 20
260.37500000
 11
1103.12500000
 21
258.37500000
  0
TEXT
  1
1' 4"
  7
SPSIMP
  8
LAYER_11
 10
1106.93750000
 20
264.31250000
 40
2.54689338
 50
0.00000000
  0
LINE
  8
LAYER_11
 10
1119.87500000
 20
259.37500000
 11
1135.87500000
 21
259.37500000
  0
LINE
  8
LAYER_11
 10
1134.87500000
 20
258.37500000
 11
1136.87500000
 21
260.37500000
  0
LINE
  8
LAYER_11
 10
1135.12500000
 20
258.37500000
 11
1137.12500000
 21
260.37500000
  0
LINE
  8
LAYER_11
 10
1134.62500000
 20
258.37500000
 11
1136.62500000
 21
260.37500000
  0
LINE
  8
LAYER_11
 10
1120.87500000
 20
260.37500000
 11
1118.87500000
 21
258.37500000
  0
LINE
  8
LAYER_11
 10
1120.62500000
 20
260.37500000
 11
1118.62500000
 21
258.37500000
  0
LINE
  8
LAYER_11
 10
1121.12500000
 20
260.37500000
 11
1119.12500000
 21
258.37500000
  0
TEXT
  1
1' 4"
  7
SPSIMP
  8
LAYER_11
 10
1122.93750000
 20
269.31250000
 40
2.54689338
 50
0.00000000
  0
LINE
  8
LAYER_11
 10
1135.87500000
 20
259.37500000
 11
1151.87500000
 21
259.37500000
  0
LINE
  8
LAYER_11
 10
1150.87500000
 20
258.37500000
 11
1152.87500000
 21
260.37500000
  0
LINE
  8
LAYER_11
 10
1151.12500000
 20
258.37500000
 11
1153.12500000
 21
260.37500000
  0
LINE
  8
LAYER_11
 10
1150.62500000
 20
258.37500000
 11
1152.62500000
 21
260.37500000
  0
LINE
  8
LAYER_11
 10
1136.87500000
 20
260.37500000
 11
1134.87500000
 21
258.37500000
  0
LINE
  8
LAYER_11
 10
1136.62500000
 20
260.37500000
 11
1134.62500000
 21
258.37500000
  0
LINE
  8
LAYER_11
 10
1137.12500000
 20
260.37500000
 11
1135.12500000
 21
258.37500000
  0
TEXT
  1
1' 4"
  7
SPSIMP
  8
LAYER_11
 10
1138.93750000
 20
264.31250000
 40
2.54689338
 50
0.00000000
  0
LINE
  8
LAYER_11
 10
1199.87500000
 20
259.37500000
 11
1215.87500000
 21
259.37500000
  0
LINE
  8
LAYER_11
 10
1214.87500000
 20
258.37500000
 11
1216.87500000
 21
260.37500000
  0
LINE
  8
LAYER_11
 10
1215.12500000
 20
258.37500000
 11
1217.12500000
 21
260.37500000
  0
LINE
  8
LAYER_11
 10
1214.62500000
 20
258.37500000
 11
1216.62500000
 21
260.37500000
  0
LINE
  8
LAYER_11
 10
1200.87500000
 20
260.37500000
 11
1198.87500000
 21
258.37500000
  0
LINE
  8
LAYER_11
 10
1200.62500000
 20
260.37500000
 11
1198.62500000
 21
258.37500000
  0
LINE
  8
LAYER_11
 10
1201.12500000
 20
260.37500000
 11
1199.12500000
 21
258.37500000
  0
TEXT
  1
1' 4"
  7
SPSIMP
  8
LAYER_11
 10
1202.93750000
 20
264.31250000
 40
2.54689338
 50
0.00000000
  0
LINE
  8
LAYER_11
 10
1215.87500000
 20
259.37500000
 11
1231.12500000
 21
259.37500000
  0
LINE
  8
LAYER_11
 10
1230.12500000
 20
258.37500000
 11
1232.12500000
 21
260.37500000
  0
LINE
  8
LAYER_11
 10
1230.37500000
 20
258.37500000
 11
1232.37500000
 21
260.37500000
  0
LINE
  8
LAYER_11
 10
1229.87500000
 20
258.37500000
 11
1231.87500000
 21
260.37500000
  0
LINE
  8
LAYER_11
 10
1216.87500000
 20
260.37500000
 11
1214.87500000
 21
258.37500000
  0
LINE
  8
LAYER_11
 10
1216.62500000
 20
260.37500000
 11
1214.62500000
 21
258.37500000
  0
LINE
  8
LAYER_11
 10
1217.12500000
 20
260.37500000
 11
1215.12500000
 21
258.37500000
  0
TEXT
  1
1' 3 1/4"
  7
SPSIMP
  8
LAYER_11
 10
1213.75000000
 20
269.31250000
 40
2.54689338
 50
0.00000000
  0
LINE
  8
LAYER_11
 10
1231.12500000
 20
259.37500000
 11
1241.62500000
 21
259.37500000
  0
LINE
  8
LAYER_11
 10
1240.62500000
 20
258.37500000
 11
1242.62500000
 21
260.37500000
  0
LINE
  8
LAYER_11
 10
1240.87500000
 20
258.37500000
 11
1242.87500000
 21
260.37500000
  0
LINE
  8
LAYER_11
 10
1240.37500000
 20
258.37500000
 11
1242.37500000
 21
260.37500000
  0
LINE
  8
LAYER_11
 10
1232.12500000
 20
260.37500000
 11
1230.12500000
 21
258.37500000
  0
LINE
  8
LAYER_11
 10
1231.87500000
 20
260.37500000
 11
1229.87500000
 21
258.37500000
  0
LINE
  8
LAYER_11
 10
1232.37500000
 20
260.37500000
 11
1230.37500000
 21
258.37500000
  0
TEXT
  1
10 1/2"
  7
SPSIMP
  8
LAYER_11
 10
1228.37500000
 20
264.31250000
 40
2.54689338
 50
0.00000000
  0
LINE
  8
LAYER_11
 10
1292.62500000
 20
259.37500000
 11
1311.87500000
 21
259.37500000
  0
LINE
  8
LAYER_11
 10
1310.87500000
 20
258.37500000
 11
1312.87500000
 21
260.37500000
  0
LINE
  8
LAYER_11
 10
1311.12500000
 20
258.37500000
 11
1313.12500000
 21
260.37500000
  0
LINE
  8
LAYER_11
 10
1310.62500000
 20
258.37500000
 11
1312.62500000
 21
260.37500000
  0
LINE
  8
LAYER_11
 10
1293.62500000
 20
260.37500000
 11
1291.62500000
 21
258.37500000
  0
LINE
  8
LAYER_11
 10
1293.37500000
 20
260.37500000
 11
1291.37500000
 21
258.37500000
  0
LINE
  8
LAYER_11
 10
1293.87500000
 20
260.37500000
 11
1291.87500000
 21
258.37500000
  0
TEXT
  1
1' 7 1/4"
  7
SPSIMP
  8
LAYER_11
 10
1292.50024606
 20
264.31250000
 40
2.54689338
 50
0.00000000
  0
LINE
  8
LAYER_11
 10
1247.12500000
 20
259.37500000
 11
1263.12500000
 21
259.37500000
  0
LINE
  8
LAYER_11
 10
1262.12500000
 20
258.37500000
 11
1264.12500000
 21
260.37500000
  0
LINE
  8
LAYER_11
 10
1262.37500000
 20
258.37500000
 11
1264.37500000
 21
260.37500000
  0
LINE
  8
LAYER_11
 10
1261.87500000
 20
258.37500000
 11
1263.87500000
 21
260.37500000
  0
LINE
  8
LAYER_11
 10
1248.12500000
 20
260.37500000
 11
1246.12500000
 21
258.37500000
  0
LINE
  8
LAYER_11
 10
1247.87500000
 20
260.37500000
 11
1245.87500000
 21
258.37500000
  0
LINE
  8
LAYER_11
 10
1248.37500000
 20
260.37500000
 11
1246.37500000
 21
258.37500000
  0
TEXT
  1
1' 4"
  7
SPSIMP
  8
LAYER_11
 10
1250.18750000
 20
264.31250000
 40
2.54689338
 50
0.00000000
  0
LINE
  8
LAYER_11
 10
1263.12500000
 20
259.37500000
 11
1279.12500000
 21
259.37500000
  0
LINE
  8
LAYER_11
 10
1278.12500000
 20
258.37500000
 11
1280.12500000
 21
260.37500000
  0
LINE
  8
LAYER_11
 10
1278.37500000
 20
258.37500000
 11
1280.37500000
 21
260.37500000
  0
LINE
  8
LAYER_11
 10
1277.87500000
 20
258.37500000
 11
1279.87500000
 21
260.37500000
  0
LINE
  8
LAYER_11
 10
1264.12500000
 20
260.37500000
 11
1262.12500000
 21
258.37500000
  0
LINE
  8
LAYER_11
 10
1263.87500000
 20
260.37500000
 11
1261.87500000
 21
258.37500000
  0
LINE
  8
LAYER_11
 10
1264.37500000
 20
260.37500000
 11
1262.37500000
 21
258.37500000
  0
TEXT
  1
1' 4"
  7
SPSIMP
  8
LAYER_11
 10
1266.18750000
 20
269.31250000
 40
2.54689338
 50
0.00000000
  0
LINE
  8
LAYER_11
 10
1279.12500000
 20
259.37500000
 11
1292.62500000
 21
259.37500000
  0
LINE
  8
LAYER_11
 10
1291.62500000
 20
258.37500000
 11
1293.62500000
 21
260.37500000
  0
LINE
  8
LAYER_11
 10
1291.87500000
 20
258.37500000
 11
1293.87500000
 21
260.37500000
  0
LINE
  8
LAYER_11
 10
1291.37500000
 20
258.37500000
 11
1293.37500000
 21
260.37500000
  0
LINE
  8
LAYER_11
 10
1280.12500000
 20
260.37500000
 11
1278.12500000
 21
258.37500000
  0
LINE
  8
LAYER_11
 10
1279.87500000
 20
260.37500000
 11
1277.87500000
 21
258.37500000
  0
LINE
  8
LAYER_11
 10
1280.37500000
 20
260.37500000
 11
1278.37500000
 21
258.37500000
  0
TEXT
  1
1' 1 1/2"
  7
SPSIMP
  8
LAYER_11
 10
1276.37500000
 20
264.31250000
 40
2.54689338
 50
0.00000000
  0
LINE
  8
LAYER_11
 10
1224.62500000
 20
431.87500000
 11
1224.62500000
 21
467.87500000
  0
LINE
  8
LAYER_11
 10
1225.62500000
 20
466.87500000
 11
1223.62500000
 21
468.87500000
  0
LINE
  8
LAYER_11
 10
1225.62500000
 20
467.12500000
 11
1223.62500000
 21
469.12500000
  0
LINE
  8
LAYER_11
 10
1225.62500000
 20
466.62500000
 11
1223.62500000
 21
468.62500000
  0
LINE
  8
LAYER_11
 10
1223.62500000
 20
432.87500000
 11
1225.62500000
 21
430.87500000
  0
LINE
  8
LAYER_11
 10
1223.62500000
 20
432.62500000
 11
1225.62500000
 21
430.62500000
  0
LINE
  8
LAYER_11
 10
1223.62500000
 20
433.12500000
 11
1225.62500000
 21
431.12500000
  0
TEXT
  1
3' 0"
  7
SPSIMP
  8
LAYER_11
 10
1220.93750000
 20
444.68750000
 40
2.54689338
 50
90.00000000
  0
LINE
  8
LAYER_11
 10
1185.43750000
 20
439.12500000
 11
1227.43750000
 21
439.12500000
  0
LINE
  8
LAYER_11
 10
1226.43750000
 20
438.12500000
 11
1228.43750000
 21
440.12500000
  0
LINE
  8
LAYER_11
 10
1226.68750000
 20
438.12500000
 11
1228.68750000
 21
440.12500000
  0
LINE
  8
LAYER_11
 10
1226.18750000
 20
438.12500000
 11
1228.18750000
 21
440.12500000
  0
LINE
  8
LAYER_11
 10
1186.43750000
 20
440.12500000
 11
1184.43750000
 21
438.12500000
  0
LINE
  8
LAYER_11
 10
1186.18750000
 20
440.12500000
 11
1184.18750000
 21
438.12500000
  0
LINE
  8
LAYER_11
 10
1186.68750000
 20
440.12500000
 11
1184.68750000
 21
438.12500000
  0
TEXT
  1
3' 6"
  7
SPSIMP
  8
LAYER_11
 10
1201.21875000
 20
444.06250000
 40
2.54689338
 50
0.00000000
  0
LINE
  8
LAYER_11
 10
1176.75000000
 20
387.37500000
 11
1176.75000000
 21
467.87500000
  0
LINE
  8
LAYER_11
 10
1177.75000000
 20
466.87524606
 11
1175.75000000
 21
468.87475394
  0
LINE
  8
LAYER_11
 10
1177.75000000
 20
467.12500000
 11
1175.75000000
 21
469.12450787
  0
LINE
  8
LAYER_11
 10
1177.75000000
 20
466.62549213
 11
1175.75000000
 21
468.62500000
  0
LINE
  8
LAYER_11
 10
1175.75000000
 20
388.37475394
 11
1177.75000000
 21
386.37524606
  0
LINE
  8
LAYER_11
 10
1175.75000000
 20
388.12500000
 11
1177.75000000
 21
386.12549213
  0
LINE
  8
LAYER_11
 10
1175.75000000
 20
388.62450787
 11
1177.75000000
 21
386.62500000
  0
TEXT
  1
6' 8 1/2"
  7
SPSIMP
  8
LAYER_11
 10
1173.06250000
 20
417.62500000
 40
2.54689338
 50
90.00000000
  0
LINE
  8
LAYER_11
 10
1287.37500000
 20
321.50000000
 11
1287.37500000
 21
357.50000000
  0
LINE
  8
LAYER_11
 10
1288.37500000
 20
356.50000000
 11
1286.37500000
 21
358.50000000
  0
LINE
  8
LAYER_11
 10
1288.37500000
 20
356.75000000
 11
1286.37500000
 21
358.75000000
  0
LINE
  8
LAYER_11
 10
1288.37500000
 20
356.25000000
 11
1286.37500000
 21
358.25000000
  0
LINE
  8
LAYER_11
 10
1286.37500000
 20
322.50000000
 11
1288.37500000
 21
320.50000000
  0
LINE
  8
LAYER_11
 10
1286.37500000
 20
322.25000000
 11
1288.37500000
 21
320.25000000
  0
LINE
  8
LAYER_11
 10
1286.37500000
 20
322.75000000
 11
1288.37500000
 21
320.75000000
  0
TEXT
  1
3' 0"
  7
SPSIMP
  8
LAYER_11
 10
1282.43750000
 20
334.31250000
 40
2.54689338
 50
90.00000000
  0
LINE
  8
LAYER_11
 10
1244.62500000
 20
330.25000000
 11
1292.62500000
 21
330.25000000
  0
LINE
  8
LAYER_11
 10
1291.62500000
 20
329.25000000
 11
1293.62500000
 21
331.25000000
  0
LINE
  8
LAYER_11
 10
1291.87500000
 20
329.25000000
 11
1293.87500000
 21
331.25000000
  0
LINE
  8
LAYER_11
 10
1291.37500000
 20
329.25000000
 11
1293.37500000
 21
331.25000000
  0
LINE
  8
LAYER_11
 10
1245.62500000
 20
331.25000000
 11
1243.62500000
 21
329.25000000
  0
LINE
  8
LAYER_11
 10
1245.37500000
 20
331.25000000
 11
1243.37500000
 21
329.25000000
  0
LINE
  8
LAYER_11
 10
1245.87500000
 20
331.25000000
 11
1243.87500000
 21
329.25000000
  0
TEXT
  1
4' 0"
  7
SPSIMP
  8
LAYER_11
 10
1263.43750000
 20
335.18750000
 40
2.54689338
 50
0.00000000
  0
ENDSEC
  0
EOF
