  0
SECTION
  2
HEADER
  9
$LIMMIN
 10
0.00000000
 20
0.00000000
  9
$LIMMAX
 10
1920.00000000
 20
1284.00000000
  9
$EXTMIN
 10
0.00000000
 20
0.00000000
  9
$EXTMAX
 10
1920.00000000
 20
1284.00000000
  9
$LUNITS
 70
4
  0
ENDSEC
  0
SECTION
  2
TABLES
  0
TABLE
  2
LTYPE
 70
5
  0
LTYPE
  2
LARGE
 70
64
  3
___   ___
 72
65
 73
2
 40
20.00000000
 49
10.00000000
 49
-10.00000000
  0
LTYPE
  2
MEDIUM
 70
64
  3
__  __
 72
65
 73
2
 40
10.00000000
 49
5.00000000
 49
-5.00000000
  0
LTYPE
  2
SMALL
 70
64
  3
_ _
 72
65
 73
2
 40
5.00000000
 49
2.00000000
 49
-3.00000000
  0
LTYPE
  2
DASHDOT
 70
64
  3
___ . ___
 72
65
 73
4
 40
21.00000000
 49
15.00000000
 49
-3.00000000
 49
0.00000000
 49
-3.00000000
  0
LTYPE
  2
LONG
 70
64
  3
____ ____
 72
65
 73
2
 40
18.00000000
 49
14.00000000
 49
-4.00000000
  0
ENDTAB
  0
TABLE
  2
LAYER
 70
15
  0
LAYER
  2
LAYER_1
 70
0
 62
1
  6
CONTINUOUS
  0
LAYER
  2
LAYER_2
 70
0
 62
2
  6
CONTINUOUS
  0
LAYER
  2
LAYER_3
 70
0
 62
3
  6
CONTINUOUS
  0
LAYER
  2
LAYER_4
 70
0
 62
4
  6
CONTINUOUS
  0
LAYER
  2
LAYER_5
 70
0
 62
5
  6
CONTINUOUS
  0
LAYER
  2
LAYER_6
 70
0
 62
6
  6
CONTINUOUS
  0
LAYER
  2
LAYER_7
 70
0
 62
7
  6
CONTINUOUS
  0
LAYER
  2
LAYER_8
 70
0
 62
8
  6
CONTINUOUS
  0
LAYER
  2
LAYER_9
 70
0
 62
9
  6
CONTINUOUS
  0
LAYER
  2
LAYER_10
 70
0
 62
10
  6
CONTINUOUS
  0
LAYER
  2
LAYER_11
 70
0
 62
11
  6
CONTINUOUS
  0
LAYER
  2
LAYER_12
 70
0
 62
12
  6
CONTINUOUS
  0
LAYER
  2
LAYER_13
 70
0
 62
13
  6
CONTINUOUS
  0
LAYER
  2
LAYER_14
 70
0
 62
14
  6
CONTINUOUS
  0
LAYER
  2
LAYER_15
 70
0
 62
15
  6
CONTINUOUS
  0
ENDTAB
  0
ENDSEC
  0
SECTION
  2
ENTITIES
  0
TEXT
  1
ROOF FRAMING PLAN
  7
SPHAND
  8
LAYER_4
 10
496.37500000
 20
251.25000000
 40
8.06549235
 50
0.00000000
  0
TEXT
  1
LINE OF WALL BELOW
  7
SPHAND
  8
LAYER_12
 10
864.11909449
 20
503.75000000
 40
3.82048149
 50
90.00000000
  0
TEXT
  1
2x4 GABLE LADDER @ 16" O.C. TYP.
  7
SPHAND
  8
LAYER_12
 10
955.36909449
 20
475.75000000
 40
3.82048149
 50
90.00000000
  0
TEXT
  1
2x4 GABLE LADDER @ 16" O.C. TYP.
  7
SPHAND
  8
LAYER_12
 10
490.49409449
 20
475.75000000
 40
3.82048149
 50
90.00000000
  0
TEXT
  1
2x4 GABLE LADDER @ 16" O.C. TYP.
  7
SPHAND
  8
LAYER_12
 10
677.37500000
 20
612.81250000
 40
3.82048149
 50
0.00000000
  0
TEXT
  1
2x4 GABLE LADDER @ 16" O.C. TYP.
  7
SPHAND
  8
LAYER_12
 10
677.37500000
 20
259.06250000
 40
3.82048149
 50
0.00000000
  0
TEXT
  1
2X8 RAFTERS @ 16" O.C. TYPICAL
  7
SPHAND
  8
LAYER_12
 10
827.36909449
 20
444.25000000
 40
3.82048149
 50
90.00000000
  0
TEXT
  1
2X8 RAFTERS @ 16" O.C. TYPICAL
  7
SPHAND
  8
LAYER_12
 10
909.11909449
 20
318.25000000
 40
3.82048149
 50
90.00000000
  0
TEXT
  1
2x6 RAFTERS @ 16" O.C.
  7
SPHAND
  8
LAYER_12
 10
674.50000000
 20
520.68750000
 40
3.82048149
 50
0.00000000
  0
TEXT
  1
2x6 RAFTERS @ 16" O.C.
  7
SPHAND
  8
LAYER_12
 10
594.00000000
 20
520.68750000
 40
3.82048149
 50
0.00000000
  0
TEXT
  1
2x8 VALLEY PLATE TYP.
  7
SPHAND
  8
LAYER_12
 10
558.24409449
 20
504.00000000
 40
3.82048149
 50
90.00000000
  0
TEXT
  1
2x6 FASCIA BOARD
  7
SPHAND
  8
LAYER_12
 10
872.62500000
 20
591.31250000
 40
3.82048149
 50
0.00000000
  0
TEXT
  1
2x6 FASCIA BOARD
  7
SPHAND
  8
LAYER_12
 10
872.62500000
 20
264.56250000
 40
3.82048149
 50
0.00000000
  0
TEXT
  1
2x6 FASCIA BOARD
  7
SPHAND
  8
LAYER_12
 10
954.99409449
 20
284.50000000
 40
3.82048149
 50
90.00000000
  0
TEXT
  1
2x6 FASCIA BOARD
  7
SPHAND
  8
LAYER_12
 10
490.61909449
 20
284.50000000
 40
3.82048149
 50
90.00000000
  0
TEXT
  1
2x10 RIDGE BOARD
  7
SPHAND
  8
LAYER_12
 10
783.24409449
 20
445.62500000
 40
3.82048149
 50
90.00000000
  0
TEXT
  1
2x6 RAFTERS @ 16" O.C.
  7
SPHAND
  8
LAYER_12
 10
826.87500000
 20
346.81250000
 40
3.82048149
 50
0.00000000
  0
TEXT
  1
2x6 RAFTERS @ 16" O.C.
  7
SPHAND
  8
LAYER_12
 10
691.12500000
 20
346.81250000
 40
3.82048149
 50
0.00000000
  0
TEXT
  1
2x6 RAFTERS @ 16" O.C.
  7
SPHAND
  8
LAYER_12
 10
558.25000000
 20
346.81250000
 40
3.82048149
 50
0.00000000
  0
LINE
  8
LAYER_2
 10
494.00000000
 20
269.99950787
 11
950.00000000
 21
269.99950787
  0
LINE
  8
LAYER_2
 10
494.00000000
 20
589.50024606
 11
494.00000000
 21
270.00024606
  0
LINE
  8
LAYER_2
 10
494.00000000
 20
430.53026575
 11
950.00000000
 21
430.53026575
  0
LINE
  8
LAYER_2
 10
950.00000000
 20
589.50024606
 11
950.00000000
 21
270.00024606
  0
LINE
  8
LAYER_2
 10
494.00000000
 20
589.50024606
 11
950.00000000
 21
589.50024606
  0
LINE
  8
LAYER_2
 10
755.00000000
 20
585.50000000
 11
755.00000000
 21
487.50000000
  0
LINE
  8
LAYER_2
 10
565.37500000
 20
585.51796260
 11
755.00000000
 21
585.53740157
  0
LINE
  8
LAYER_2
 10
949.99876969
 20
270.00024606
 11
949.99950787
 21
269.99950787
  0
LINE
  8
LAYER_2
 10
939.00000000
 20
588.00000000
 11
939.00000000
 21
430.53026575
  0
LINE
  8
LAYER_2
 10
505.00000000
 20
588.00000000
 11
505.00000000
 21
430.53026575
  0
LINE
  8
LAYER_2
 10
505.00000000
 20
430.48474409
 11
505.00000000
 21
271.50000000
  0
LINE
  8
LAYER_2
  6
SMALL
 10
934.62500000
 20
285.51870079
 11
937.50000000
 21
285.51870079
  0
LINE
  8
LAYER_2
 10
939.00000000
 20
430.48474409
 11
939.00000000
 21
271.50000000
  0
LINE
  8
LAYER_2
  6
SMALL
 10
934.62500000
 20
573.51870079
 11
937.50000000
 21
573.51870079
  0
LINE
  8
LAYER_2
 10
495.50000000
 20
588.00024606
 11
948.50000000
 21
588.00024606
  0
LINE
  8
LAYER_2
 10
599.62500000
 20
584.02140748
 11
753.50000000
 21
584.03740157
  0
LINE
  8
LAYER_2
 10
567.00000000
 20
584.01820866
 11
660.25000000
 21
584.02780512
  0
LINE
  8
LAYER_2
 10
495.50000000
 20
588.00000000
 11
495.50000000
 21
430.50000000
  0
LINE
  8
LAYER_2
 10
495.50000000
 20
271.49950787
 11
948.50000000
 21
271.49950787
  0
LINE
  8
LAYER_2
 10
949.99876969
 20
271.50024606
 11
949.99950787
 21
271.49950787
  0
LINE
  8
LAYER_2
 10
948.50000000
 20
588.00000000
 11
948.50000000
 21
430.50000000
  0
LINE
  8
LAYER_2
 10
948.49876969
 20
270.00024606
 11
948.49950787
 21
269.99950787
  0
LINE
  8
LAYER_2
 10
948.49876969
 20
271.50024606
 11
948.49950787
 21
271.49950787
  0
LINE
  8
LAYER_2
 10
753.50000000
 20
585.50000000
 11
753.50000000
 21
486.62500000
  0
LINE
  8
LAYER_2
 10
567.00000000
 20
584.00000000
 11
567.00000000
 21
486.87500000
  0
LINE
  8
LAYER_2
 10
494.00000000
 20
429.03026575
 11
950.00000000
 21
429.03026575
  0
LINE
  8
LAYER_2
 10
937.50000000
 20
588.00000000
 11
937.50000000
 21
430.53026575
  0
LINE
  8
LAYER_2
 10
937.50000000
 20
429.12500000
 11
937.50000000
 21
271.50000000
  0
LINE
  8
LAYER_2
 10
506.50000000
 20
588.00000000
 11
506.50000000
 21
430.53026575
  0
LINE
  8
LAYER_2
 10
506.50000000
 20
429.12500000
 11
506.50000000
 21
271.50000000
  0
LINE
  8
LAYER_2
 10
901.25000000
 20
588.00000000
 11
901.25000000
 21
430.50000000
  0
LINE
  8
LAYER_2
 10
902.62500000
 20
588.00000000
 11
902.62500000
 21
430.50000000
  0
LINE
  8
LAYER_2
 10
901.25000000
 20
429.12500000
 11
901.25000000
 21
271.50000000
  0
LINE
  8
LAYER_2
 10
902.62500000
 20
429.12500000
 11
902.62500000
 21
271.49950787
  0
LINE
  8
LAYER_2
 10
917.25000000
 20
588.00000000
 11
917.25000000
 21
430.50000000
  0
LINE
  8
LAYER_2
 10
918.62500000
 20
588.00000000
 11
918.62500000
 21
430.50000000
  0
LINE
  8
LAYER_2
 10
917.25000000
 20
429.12500000
 11
917.25000000
 21
271.50000000
  0
LINE
  8
LAYER_2
 10
918.62500000
 20
429.12500000
 11
918.62500000
 21
271.49950787
  0
LINE
  8
LAYER_2
 10
933.25000000
 20
588.00000000
 11
933.25000000
 21
430.50000000
  0
LINE
  8
LAYER_2
 10
934.62500000
 20
588.00000000
 11
934.62500000
 21
430.50000000
  0
LINE
  8
LAYER_2
 10
933.25000000
 20
429.12500000
 11
933.25000000
 21
271.50000000
  0
LINE
  8
LAYER_2
 10
934.62500000
 20
429.12500000
 11
934.62500000
 21
271.49950787
  0
LINE
  8
LAYER_2
 10
885.25000000
 20
588.00000000
 11
885.25000000
 21
430.50000000
  0
LINE
  8
LAYER_2
 10
886.62500000
 20
588.00000000
 11
886.62500000
 21
430.50000000
  0
LINE
  8
LAYER_2
 10
885.25000000
 20
429.12500000
 11
885.25000000
 21
375.25000000
  0
LINE
  8
LAYER_2
 10
886.62500000
 20
429.12500000
 11
886.62500000
 21
375.25000000
  0
LINE
  8
LAYER_2
 10
869.25000000
 20
588.00000000
 11
869.25000000
 21
430.50000000
  0
LINE
  8
LAYER_2
 10
870.62500000
 20
588.00000000
 11
870.62500000
 21
430.50000000
  0
LINE
  8
LAYER_2
 10
853.25000000
 20
588.00000000
 11
853.25000000
 21
430.50000000
  0
LINE
  8
LAYER_2
 10
854.62500000
 20
588.00000000
 11
854.62500000
 21
430.50000000
  0
LINE
  8
LAYER_2
 10
837.25000000
 20
588.00000000
 11
837.25000000
 21
430.50000000
  0
LINE
  8
LAYER_2
 10
838.62500000
 20
588.00000000
 11
838.62500000
 21
430.50000000
  0
LINE
  8
LAYER_2
 10
821.25000000
 20
588.00000000
 11
821.25000000
 21
430.50000000
  0
LINE
  8
LAYER_2
 10
822.62500000
 20
588.00000000
 11
822.62500000
 21
430.50000000
  0
LINE
  8
LAYER_2
 10
805.25000000
 20
588.00000000
 11
805.25000000
 21
430.62500000
  0
LINE
  8
LAYER_2
 10
806.62500000
 20
588.00000000
 11
806.62500000
 21
430.62500000
  0
LINE
  8
LAYER_2
 10
789.25000000
 20
588.00000000
 11
789.25000000
 21
430.62500000
  0
LINE
  8
LAYER_2
 10
790.62500000
 20
588.00000000
 11
790.62500000
 21
430.62500000
  0
LINE
  8
LAYER_2
 10
773.25000000
 20
588.00000000
 11
773.25000000
 21
430.62500000
  0
LINE
  8
LAYER_2
 10
774.62500000
 20
588.00000000
 11
774.62500000
 21
430.62500000
  0
LINE
  8
LAYER_2
 10
757.25000000
 20
588.00000000
 11
757.25000000
 21
430.50000000
  0
LINE
  8
LAYER_2
 10
758.62500000
 20
588.00000000
 11
758.62500000
 21
430.50000000
  0
LINE
  8
LAYER_2
 10
757.25000000
 20
429.12500000
 11
757.25000000
 21
374.25000000
  0
LINE
  8
LAYER_2
 10
741.25000000
 20
309.75000000
 11
741.25000000
 21
308.00000000
  0
LINE
  8
LAYER_2
 10
742.62500000
 20
309.75000000
 11
742.62500000
 21
308.00000000
  0
LINE
  8
LAYER_2
 10
725.25000000
 20
588.00000000
 11
725.25000000
 21
585.50000000
  0
LINE
  8
LAYER_2
 10
726.62500000
 20
588.00000000
 11
726.62500000
 21
585.50000000
  0
LINE
  8
LAYER_2
 10
725.25000000
 20
429.12500000
 11
725.25000000
 21
406.62500000
  0
LINE
  8
LAYER_2
 10
726.62500000
 20
429.12500000
 11
726.62500000
 21
405.25000000
  0
LINE
  8
LAYER_2
 10
709.25000000
 20
588.00000000
 11
709.25000000
 21
585.50000000
  0
LINE
  8
LAYER_2
 10
710.62500000
 20
588.00000000
 11
710.62500000
 21
585.50000000
  0
LINE
  8
LAYER_2
 10
709.25000000
 20
429.12500000
 11
709.25000000
 21
398.25000000
  0
LINE
  8
LAYER_2
 10
710.62500000
 20
429.12500000
 11
710.62500000
 21
399.75000000
  0
LINE
  8
LAYER_2
 10
693.25000000
 20
588.00000000
 11
693.25000000
 21
585.50000000
  0
LINE
  8
LAYER_2
 10
694.62500000
 20
588.00000000
 11
694.62500000
 21
585.50000000
  0
LINE
  8
LAYER_2
 10
693.25000000
 20
429.12500000
 11
693.25000000
 21
375.25000000
  0
LINE
  8
LAYER_2
 10
694.62500000
 20
429.12500000
 11
694.62500000
 21
375.25000000
  0
LINE
  8
LAYER_2
 10
677.25000000
 20
588.00000000
 11
677.25000000
 21
585.50000000
  0
LINE
  8
LAYER_2
 10
678.62500000
 20
588.00000000
 11
678.62500000
 21
585.50000000
  0
LINE
  8
LAYER_2
 10
661.25000000
 20
588.00000000
 11
661.25000000
 21
585.50000000
  0
LINE
  8
LAYER_2
 10
662.62500000
 20
588.00000000
 11
662.62500000
 21
585.50000000
  0
LINE
  8
LAYER_2
 10
645.25000000
 20
588.00000000
 11
645.25000000
 21
585.50000000
  0
LINE
  8
LAYER_2
 10
646.62500000
 20
588.00000000
 11
646.62500000
 21
585.50000000
  0
LINE
  8
LAYER_2
 10
629.25000000
 20
588.00000000
 11
629.25000000
 21
585.50000000
  0
LINE
  8
LAYER_2
 10
630.62500000
 20
588.00000000
 11
630.62500000
 21
585.50000000
  0
LINE
  8
LAYER_2
 10
613.25000000
 20
588.00000000
 11
613.25000000
 21
585.50000000
  0
LINE
  8
LAYER_2
 10
614.62500000
 20
588.00000000
 11
614.62500000
 21
585.50000000
  0
LINE
  8
LAYER_2
 10
597.25000000
 20
588.00000000
 11
597.25000000
 21
585.50000000
  0
LINE
  8
LAYER_2
 10
598.62500000
 20
588.00000000
 11
598.62500000
 21
585.50000000
  0
LINE
  8
LAYER_2
 10
581.25000000
 20
588.00000000
 11
581.25000000
 21
585.50000000
  0
LINE
  8
LAYER_2
 10
582.62500000
 20
588.00000000
 11
582.62500000
 21
585.50000000
  0
LINE
  8
LAYER_2
 10
565.25000000
 20
585.50000000
 11
565.25000000
 21
430.50000000
  0
LINE
  8
LAYER_2
 10
565.25000000
 20
429.12500000
 11
565.25000000
 21
389.25000000
  0
LINE
  8
LAYER_2
 10
566.62500000
 20
429.12500000
 11
566.62500000
 21
390.62500000
  0
LINE
  8
LAYER_2
 10
549.25000000
 20
588.00000000
 11
549.25000000
 21
430.50000000
  0
LINE
  8
LAYER_2
 10
550.62500000
 20
588.00000000
 11
550.62500000
 21
430.50000000
  0
LINE
  8
LAYER_2
 10
549.25000000
 20
429.12500000
 11
549.25000000
 21
296.00000000
  0
LINE
  8
LAYER_2
 10
550.62500000
 20
429.12500000
 11
550.62500000
 21
296.00000000
  0
LINE
  8
LAYER_2
 10
533.25000000
 20
588.00000000
 11
533.25000000
 21
430.50000000
  0
LINE
  8
LAYER_2
 10
534.62500000
 20
588.00000000
 11
534.62500000
 21
430.50000000
  0
LINE
  8
LAYER_2
 10
533.25000000
 20
429.12500000
 11
533.25000000
 21
271.50000000
  0
LINE
  8
LAYER_2
 10
534.62500000
 20
429.12500000
 11
534.62500000
 21
271.49950787
  0
LINE
  8
LAYER_2
 10
517.25000000
 20
588.00000000
 11
517.25000000
 21
430.50000000
  0
LINE
  8
LAYER_2
 10
518.62500000
 20
588.00000000
 11
518.62500000
 21
430.50000000
  0
LINE
  8
LAYER_2
 10
517.25000000
 20
429.12500000
 11
517.25000000
 21
271.50000000
  0
LINE
  8
LAYER_2
 10
518.62500000
 20
429.12500000
 11
518.62500000
 21
271.49950787
  0
LINE
  8
LAYER_2
 10
743.00000000
 20
588.00000000
 11
743.00000000
 21
585.50000000
  0
LINE
  8
LAYER_2
 10
741.50000000
 20
588.00000000
 11
741.50000000
 21
585.50000000
  0
LINE
  8
LAYER_2
 10
740.00000000
 20
588.00000000
 11
740.00000000
 21
585.50000000
  0
LINE
  8
LAYER_2
 10
577.50000000
 20
588.00024606
 11
577.50000000
 21
585.50000000
  0
LINE
  8
LAYER_2
 10
579.00000000
 20
588.00000000
 11
579.00000000
 21
585.50000000
  0
LINE
  8
LAYER_2
 10
580.50000000
 20
588.00024606
 11
580.50000000
 21
585.50000000
  0
LINE
  8
LAYER_2
 10
948.50000000
 20
429.12500000
 11
948.50000000
 21
271.50000000
  0
LINE
  8
LAYER_2
 10
939.00000000
 20
443.65526575
 11
948.50000000
 21
443.65526575
  0
LINE
  8
LAYER_2
 10
939.00000000
 20
442.15526575
 11
948.50000000
 21
442.15526575
  0
LINE
  8
LAYER_2
 10
939.00000000
 20
415.90526575
 11
948.50000000
 21
415.90526575
  0
LINE
  8
LAYER_2
 10
939.00000000
 20
456.78026575
 11
948.50000000
 21
456.78026575
  0
LINE
  8
LAYER_2
 10
939.00000000
 20
455.28026575
 11
948.50000000
 21
455.28026575
  0
LINE
  8
LAYER_2
 10
939.00000000
 20
469.90526575
 11
948.50000000
 21
469.90526575
  0
LINE
  8
LAYER_2
 10
939.00000000
 20
468.40526575
 11
948.50000000
 21
468.40526575
  0
LINE
  8
LAYER_2
 10
939.00000000
 20
483.03026575
 11
948.50000000
 21
483.03026575
  0
LINE
  8
LAYER_2
 10
939.00000000
 20
481.53026575
 11
948.50000000
 21
481.53026575
  0
LINE
  8
LAYER_2
 10
939.00000000
 20
496.15526575
 11
948.50000000
 21
496.15526575
  0
LINE
  8
LAYER_2
 10
939.00000000
 20
494.65526575
 11
948.50000000
 21
494.65526575
  0
LINE
  8
LAYER_2
 10
939.00000000
 20
509.28026575
 11
948.50000000
 21
509.28026575
  0
LINE
  8
LAYER_2
 10
939.00000000
 20
507.78026575
 11
948.50000000
 21
507.78026575
  0
LINE
  8
LAYER_2
 10
939.00000000
 20
522.40526575
 11
948.50000000
 21
522.40526575
  0
LINE
  8
LAYER_2
 10
939.00000000
 20
520.90526575
 11
948.50000000
 21
520.90526575
  0
LINE
  8
LAYER_2
 10
939.00000000
 20
535.53026575
 11
948.50000000
 21
535.53026575
  0
LINE
  8
LAYER_2
 10
939.00000000
 20
534.03026575
 11
948.50000000
 21
534.03026575
  0
LINE
  8
LAYER_2
 10
939.00000000
 20
548.65526575
 11
948.50000000
 21
548.65526575
  0
LINE
  8
LAYER_2
 10
939.00000000
 20
547.15526575
 11
948.50000000
 21
547.15526575
  0
LINE
  8
LAYER_2
 10
939.00000000
 20
561.78026575
 11
948.50000000
 21
561.78026575
  0
LINE
  8
LAYER_2
 10
939.00000000
 20
560.28026575
 11
948.50000000
 21
560.28026575
  0
LINE
  8
LAYER_2
 10
939.00000000
 20
414.78026575
 11
948.50000000
 21
414.78026575
  0
LINE
  8
LAYER_2
 10
939.00000000
 20
403.15526575
 11
948.50000000
 21
403.15526575
  0
LINE
  8
LAYER_2
 10
939.00000000
 20
401.65526575
 11
948.50000000
 21
401.65526575
  0
LINE
  8
LAYER_2
 10
939.00000000
 20
390.03026575
 11
948.50000000
 21
390.03026575
  0
LINE
  8
LAYER_2
 10
939.00000000
 20
388.53026575
 11
948.50000000
 21
388.53026575
  0
LINE
  8
LAYER_2
 10
939.00000000
 20
376.90526575
 11
948.50000000
 21
376.90526575
  0
LINE
  8
LAYER_2
 10
939.00000000
 20
375.40526575
 11
948.50000000
 21
375.40526575
  0
LINE
  8
LAYER_2
 10
939.00000000
 20
363.78026575
 11
948.50000000
 21
363.78026575
  0
LINE
  8
LAYER_2
 10
939.00000000
 20
362.28026575
 11
948.50000000
 21
362.28026575
  0
LINE
  8
LAYER_2
 10
939.00000000
 20
350.65526575
 11
948.50000000
 21
350.65526575
  0
LINE
  8
LAYER_2
 10
939.00000000
 20
349.15526575
 11
948.50000000
 21
349.15526575
  0
LINE
  8
LAYER_2
 10
939.00000000
 20
337.53026575
 11
948.50000000
 21
337.53026575
  0
LINE
  8
LAYER_2
 10
939.00000000
 20
336.03026575
 11
948.50000000
 21
336.03026575
  0
LINE
  8
LAYER_2
 10
939.00000000
 20
324.40526575
 11
948.50000000
 21
324.40526575
  0
LINE
  8
LAYER_2
 10
939.00000000
 20
322.90526575
 11
948.50000000
 21
322.90526575
  0
LINE
  8
LAYER_2
 10
939.00000000
 20
311.28026575
 11
948.50000000
 21
311.28026575
  0
LINE
  8
LAYER_2
 10
939.00000000
 20
309.78026575
 11
948.50000000
 21
309.78026575
  0
LINE
  8
LAYER_2
 10
495.50000000
 20
443.65526575
 11
505.00000000
 21
443.65526575
  0
LINE
  8
LAYER_2
 10
495.50000000
 20
442.15526575
 11
505.00000000
 21
442.15526575
  0
LINE
  8
LAYER_2
 10
495.50000000
 20
415.90526575
 11
505.00000000
 21
415.90526575
  0
LINE
  8
LAYER_2
 10
495.50000000
 20
429.00000000
 11
495.50000000
 21
271.50000000
  0
LINE
  8
LAYER_2
 10
495.50000000
 20
456.78026575
 11
505.00000000
 21
456.78026575
  0
LINE
  8
LAYER_2
 10
495.50000000
 20
455.28026575
 11
505.00000000
 21
455.28026575
  0
LINE
  8
LAYER_2
 10
495.50000000
 20
469.90526575
 11
505.00000000
 21
469.90526575
  0
LINE
  8
LAYER_2
 10
495.50000000
 20
468.40526575
 11
505.00000000
 21
468.40526575
  0
LINE
  8
LAYER_2
 10
495.50000000
 20
483.03026575
 11
505.00000000
 21
483.03026575
  0
LINE
  8
LAYER_2
 10
495.50000000
 20
481.53026575
 11
505.00000000
 21
481.53026575
  0
LINE
  8
LAYER_2
 10
495.50000000
 20
496.15526575
 11
505.00000000
 21
496.15526575
  0
LINE
  8
LAYER_2
 10
495.50000000
 20
494.65526575
 11
505.00000000
 21
494.65526575
  0
LINE
  8
LAYER_2
 10
495.50000000
 20
509.28026575
 11
505.00000000
 21
509.28026575
  0
LINE
  8
LAYER_2
 10
495.50000000
 20
507.78026575
 11
505.00000000
 21
507.78026575
  0
LINE
  8
LAYER_2
 10
495.50000000
 20
522.40526575
 11
505.00000000
 21
522.40526575
  0
LINE
  8
LAYER_2
 10
495.50000000
 20
520.90526575
 11
505.00000000
 21
520.90526575
  0
LINE
  8
LAYER_2
 10
495.50000000
 20
535.53026575
 11
505.00000000
 21
535.53026575
  0
LINE
  8
LAYER_2
 10
495.50000000
 20
534.03026575
 11
505.00000000
 21
534.03026575
  0
LINE
  8
LAYER_2
 10
495.50000000
 20
548.65526575
 11
505.00000000
 21
548.65526575
  0
LINE
  8
LAYER_2
 10
495.50000000
 20
547.15526575
 11
505.00000000
 21
547.15526575
  0
LINE
  8
LAYER_2
 10
495.50000000
 20
561.78026575
 11
505.00000000
 21
561.78026575
  0
LINE
  8
LAYER_2
 10
495.50000000
 20
560.28026575
 11
505.00000000
 21
560.28026575
  0
LINE
  8
LAYER_2
 10
495.50000000
 20
414.78026575
 11
505.00000000
 21
414.78026575
  0
LINE
  8
LAYER_2
 10
495.50000000
 20
403.15526575
 11
505.00000000
 21
403.15526575
  0
LINE
  8
LAYER_2
 10
495.50000000
 20
401.65526575
 11
505.00000000
 21
401.65526575
  0
LINE
  8
LAYER_2
 10
495.50000000
 20
390.03026575
 11
505.00000000
 21
390.03026575
  0
LINE
  8
LAYER_2
 10
495.50000000
 20
388.53026575
 11
505.00000000
 21
388.53026575
  0
LINE
  8
LAYER_2
 10
495.50000000
 20
376.90526575
 11
505.00000000
 21
376.90526575
  0
LINE
  8
LAYER_2
 10
495.50000000
 20
375.40526575
 11
505.00000000
 21
375.40526575
  0
LINE
  8
LAYER_2
 10
495.50000000
 20
363.78026575
 11
505.00000000
 21
363.78026575
  0
LINE
  8
LAYER_2
 10
495.50000000
 20
362.28026575
 11
505.00000000
 21
362.28026575
  0
LINE
  8
LAYER_2
 10
495.50000000
 20
350.65526575
 11
505.00000000
 21
350.65526575
  0
LINE
  8
LAYER_2
 10
495.50000000
 20
349.15526575
 11
505.00000000
 21
349.15526575
  0
LINE
  8
LAYER_2
 10
495.50000000
 20
337.53026575
 11
505.00000000
 21
337.53026575
  0
LINE
  8
LAYER_2
 10
495.50000000
 20
336.03026575
 11
505.00000000
 21
336.03026575
  0
LINE
  8
LAYER_2
 10
495.50000000
 20
324.40526575
 11
505.00000000
 21
324.40526575
  0
LINE
  8
LAYER_2
 10
495.50000000
 20
322.90526575
 11
505.00000000
 21
322.90526575
  0
LINE
  8
LAYER_2
 10
495.50000000
 20
311.28026575
 11
505.00000000
 21
311.28026575
  0
LINE
  8
LAYER_2
 10
495.50000000
 20
309.78026575
 11
505.00000000
 21
309.78026575
  0
LINE
  8
LAYER_2
 10
661.00000000
 20
431.37500000
 11
755.00000000
 21
487.50000000
  0
LINE
  8
LAYER_2
 10
738.01722441
 20
486.12500000
 11
753.50000000
 21
495.33095472
  0
LINE
  8
LAYER_2
 10
597.14173228
 20
468.75000000
 11
659.50000000
 21
431.26870079
  0
LINE
  8
LAYER_2
 10
638.62376969
 20
452.75000000
 11
659.50000000
 21
440.25812008
  0
LINE
  8
LAYER_2
  6
SMALL
 10
725.25000000
 20
584.00000000
 11
725.25000000
 21
569.75000000
  0
LINE
  8
LAYER_2
  6
SMALL
 10
726.62500000
 20
584.00000000
 11
726.62500000
 21
569.75000000
  0
LINE
  8
LAYER_2
  6
SMALL
 10
709.25000000
 20
584.00000000
 11
709.25000000
 21
569.75000000
  0
LINE
  8
LAYER_2
  6
SMALL
 10
710.62500000
 20
584.00000000
 11
710.62500000
 21
569.75000000
  0
LINE
  8
LAYER_2
  6
SMALL
 10
743.00000000
 20
584.00000000
 11
743.00000000
 21
569.75000000
  0
LINE
  8
LAYER_2
  6
SMALL
 10
741.50000000
 20
584.00000000
 11
741.50000000
 21
569.75000000
  0
LINE
  8
LAYER_2
  6
SMALL
 10
740.00000000
 20
584.00000000
 11
740.00000000
 21
569.75000000
  0
LINE
  8
LAYER_2
 10
659.50000000
 20
584.00000000
 11
659.50000000
 21
431.30290354
  0
LINE
  8
LAYER_2
 10
661.00000000
 20
584.00000000
 11
661.00000000
 21
431.42790354
  0
LINE
  8
LAYER_2
  6
SMALL
 10
693.25000000
 20
584.12500000
 11
693.25000000
 21
569.75000000
  0
LINE
  8
LAYER_2
  6
SMALL
 10
694.62500000
 20
584.12500000
 11
694.62500000
 21
569.75000000
  0
LINE
  8
LAYER_2
  6
SMALL
 10
677.25000000
 20
584.00000000
 11
677.25000000
 21
569.75000000
  0
LINE
  8
LAYER_2
  6
SMALL
 10
678.62500000
 20
584.00000000
 11
678.62500000
 21
569.75000000
  0
LINE
  8
LAYER_2
  6
SMALL
 10
661.25000000
 20
584.00000000
 11
661.25000000
 21
569.75000000
  0
LINE
  8
LAYER_2
  6
SMALL
 10
662.62500000
 20
584.00000000
 11
662.62500000
 21
569.75000000
  0
LINE
  8
LAYER_2
  6
SMALL
 10
629.25000000
 20
584.00000000
 11
629.25000000
 21
569.75000000
  0
LINE
  8
LAYER_2
  6
SMALL
 10
613.25000000
 20
584.00000000
 11
613.25000000
 21
569.75000000
  0
LINE
  8
LAYER_2
  6
SMALL
 10
614.62500000
 20
584.00000000
 11
614.62500000
 21
569.75000000
  0
LINE
  8
LAYER_2
  6
SMALL
 10
597.25000000
 20
584.00000000
 11
597.25000000
 21
569.75000000
  0
LINE
  8
LAYER_2
  6
SMALL
 10
598.62500000
 20
584.00000000
 11
598.62500000
 21
569.75000000
  0
LINE
  8
LAYER_2
  6
SMALL
 10
581.25000000
 20
584.00000000
 11
581.25000000
 21
569.75000000
  0
LINE
  8
LAYER_2
  6
SMALL
 10
582.62500000
 20
584.00000000
 11
582.62500000
 21
569.75000000
  0
LINE
  8
LAYER_2
  6
SMALL
 10
577.50000000
 20
584.00000000
 11
577.50000000
 21
570.12500000
  0
LINE
  8
LAYER_2
  6
SMALL
 10
579.00000000
 20
584.00000000
 11
579.00000000
 21
570.12500000
  0
LINE
  8
LAYER_2
  6
SMALL
 10
580.50000000
 20
584.00000000
 11
580.50000000
 21
570.12500000
  0
LINE
  8
LAYER_2
 10
565.25000000
 20
584.01820866
 11
576.87500000
 21
584.01919291
  0
LINE
  8
LAYER_2
  6
SMALL
 10
726.12500000
 20
479.00000000
 11
740.00000000
 21
479.00000000
  0
LINE
  8
LAYER_2
  6
SMALL
 10
728.62500000
 20
480.50000000
 11
740.00000000
 21
480.50000000
  0
LINE
  8
LAYER_2
  6
SMALL
 10
731.12500000
 20
482.00000000
 11
740.00000000
 21
482.00000000
  0
LINE
  8
LAYER_2
  6
SMALL
 10
725.25000000
 20
478.50000000
 11
725.25000000
 21
470.12500000
  0
LINE
  8
LAYER_2
  6
SMALL
 10
726.62500000
 20
479.00000000
 11
726.62500000
 21
470.50000000
  0
LINE
  8
LAYER_2
 10
709.25000000
 20
479.00000000
 11
709.25000000
 21
470.12500000
  0
LINE
  8
LAYER_2
 10
710.62500000
 20
479.00000000
 11
710.62500000
 21
470.12500000
  0
LINE
  8
LAYER_2
 10
693.25000000
 20
479.00000000
 11
693.25000000
 21
470.12500000
  0
LINE
  8
LAYER_2
 10
694.62500000
 20
479.00000000
 11
694.62500000
 21
470.12500000
  0
LINE
  8
LAYER_2
 10
677.25000000
 20
479.00000000
 11
677.25000000
 21
470.12500000
  0
LINE
  8
LAYER_2
 10
678.62500000
 20
479.00000000
 11
678.62500000
 21
470.12500000
  0
LINE
  8
LAYER_2
 10
662.62500000
 20
479.00000000
 11
662.62500000
 21
470.12500000
  0
LINE
  8
LAYER_2
 10
645.25000000
 20
479.00000000
 11
645.25000000
 21
470.12500000
  0
LINE
  8
LAYER_2
 10
646.62500000
 20
479.00000000
 11
646.62500000
 21
470.12500000
  0
LINE
  8
LAYER_2
 10
629.25000000
 20
479.00000000
 11
629.25000000
 21
470.12500000
  0
LINE
  8
LAYER_2
 10
630.62500000
 20
479.00000000
 11
630.62500000
 21
470.12500000
  0
LINE
  8
LAYER_2
 10
613.25000000
 20
479.00000000
 11
613.25000000
 21
470.12500000
  0
LINE
  8
LAYER_2
 10
614.62500000
 20
479.00000000
 11
614.62500000
 21
470.12500000
  0
LINE
  8
LAYER_2
 10
597.25000000
 20
479.00000000
 11
597.25000000
 21
477.50000000
  0
LINE
  8
LAYER_2
 10
598.62500000
 20
479.00000000
 11
598.62500000
 21
476.75000000
  0
LINE
  8
LAYER_2
  6
SMALL
 10
581.25000000
 20
479.00000000
 11
581.25000000
 21
478.25000000
  0
LINE
  8
LAYER_2
  6
SMALL
 10
582.62500000
 20
479.00000000
 11
582.62500000
 21
477.50000000
  0
LINE
  8
LAYER_2
  6
SMALL
 10
743.00000000
 20
489.00000000
 11
743.00000000
 21
486.12500000
  0
LINE
  8
LAYER_2
  6
SMALL
 10
741.50000000
 20
488.12500000
 11
741.50000000
 21
486.12500000
  0
LINE
  8
LAYER_2
  6
SMALL
 10
740.00000000
 20
487.25000000
 11
740.00000000
 21
486.12500000
  0
LINE
  8
LAYER_2
 10
743.00000000
 20
480.25000000
 11
743.00000000
 21
430.50000000
  0
LINE
  8
LAYER_2
 10
741.50000000
 20
479.37500000
 11
741.50000000
 21
430.62500000
  0
LINE
  8
LAYER_2
 10
740.00000000
 20
478.50000000
 11
740.00000000
 21
430.50000000
  0
LINE
  8
LAYER_2
 10
711.10802165
 20
470.12500000
 11
735.70472441
 21
484.75000000
  0
LINE
  8
LAYER_2
 10
661.00000000
 20
482.00000000
 11
731.00000000
 21
482.00000000
  0
LINE
  8
LAYER_2
 10
661.00000000
 20
480.50000000
 11
728.62500000
 21
480.50000000
  0
LINE
  8
LAYER_2
 10
661.00000000
 20
479.00000000
 11
726.12500000
 21
479.00000000
  0
LINE
  8
LAYER_2
 10
726.62500000
 20
470.50000000
 11
726.62500000
 21
430.50000000
  0
LINE
  8
LAYER_2
 10
725.25000000
 20
469.75000000
 11
725.25000000
 21
430.50000000
  0
LINE
  8
LAYER_2
  6
SMALL
 10
710.62500000
 20
468.75000000
 11
710.62500000
 21
461.00000000
  0
LINE
  8
LAYER_2
  6
SMALL
 10
709.25000000
 20
468.75000000
 11
709.25000000
 21
460.12500000
  0
LINE
  8
LAYER_2
 10
710.62500000
 20
461.00000000
 11
710.62500000
 21
430.50000000
  0
LINE
  8
LAYER_2
 10
709.25000000
 20
460.12500000
 11
709.25000000
 21
430.50000000
  0
LINE
  8
LAYER_2
  6
SMALL
 10
694.62500000
 20
460.37500000
 11
694.62500000
 21
454.12500000
  0
LINE
  8
LAYER_2
  6
SMALL
 10
693.25000000
 20
459.50000000
 11
693.25000000
 21
454.12500000
  0
LINE
  8
LAYER_2
 10
694.62500000
 20
451.50000000
 11
694.62500000
 21
430.50000000
  0
LINE
  8
LAYER_2
 10
693.25000000
 20
450.62500000
 11
693.25000000
 21
430.50000000
  0
LINE
  8
LAYER_2
  6
SMALL
 10
678.62500000
 20
450.75000000
 11
678.62500000
 21
441.87500000
  0
LINE
  8
LAYER_2
  6
SMALL
 10
677.25000000
 20
450.00000000
 11
677.25000000
 21
441.12500000
  0
LINE
  8
LAYER_2
 10
677.25000000
 20
441.12500000
 11
677.25000000
 21
430.50000000
  0
LINE
  8
LAYER_2
 10
678.62500000
 20
441.87500000
 11
678.62500000
 21
430.50000000
  0
LINE
  8
LAYER_2
  6
SMALL
 10
662.62500000
 20
441.37500000
 11
662.62500000
 21
438.12500000
  0
LINE
  8
LAYER_2
 10
662.62500000
 20
432.37500000
 11
662.62500000
 21
430.50000000
  0
LINE
  8
LAYER_2
 10
646.62500000
 20
439.00000000
 11
646.62500000
 21
430.50000000
  0
LINE
  8
LAYER_2
  6
SMALL
 10
645.25000000
 20
448.75000000
 11
645.25000000
 21
439.87500000
  0
LINE
  8
LAYER_2
 10
645.25000000
 20
439.87500000
 11
645.25000000
 21
430.50000000
  0
LINE
  8
LAYER_2
  6
SMALL
 10
661.25000000
 20
440.50000000
 11
661.25000000
 21
438.12500000
  0
LINE
  8
LAYER_2
  6
SMALL
 10
646.62500000
 20
448.00000000
 11
646.62500000
 21
439.00000000
  0
LINE
  8
LAYER_2
  6
SMALL
 10
630.62500000
 20
457.50000000
 11
630.62500000
 21
454.12500000
  0
LINE
  8
LAYER_2
  6
SMALL
 10
629.25000000
 20
458.37500000
 11
629.25000000
 21
454.12500000
  0
LINE
  8
LAYER_2
 10
629.25000000
 20
449.37500000
 11
629.25000000
 21
430.62500000
  0
LINE
  8
LAYER_2
 10
630.62500000
 20
448.62500000
 11
630.62500000
 21
430.62500000
  0
LINE
  8
LAYER_2
  6
SMALL
 10
614.62500000
 20
467.12500000
 11
614.62500000
 21
458.25000000
  0
LINE
  8
LAYER_2
  6
SMALL
 10
613.25000000
 20
468.00000000
 11
613.25000000
 21
459.12500000
  0
LINE
  8
LAYER_2
 10
613.25000000
 20
459.00000000
 11
613.25000000
 21
430.50000000
  0
LINE
  8
LAYER_2
 10
614.62500000
 20
458.25000000
 11
614.62500000
 21
430.50000000
  0
LINE
  8
LAYER_2
  6
SMALL
 10
598.62500000
 20
476.75000000
 11
598.62500000
 21
470.12500000
  0
LINE
  8
LAYER_2
  6
SMALL
 10
597.25000000
 20
477.50000000
 11
597.25000000
 21
470.12500000
  0
LINE
  8
LAYER_2
 10
597.25000000
 20
468.75000000
 11
597.25000000
 21
430.50000000
  0
LINE
  8
LAYER_2
 10
598.62500000
 20
467.87500000
 11
598.62500000
 21
430.50000000
  0
LINE
  8
LAYER_2
 10
661.00000000
 20
548.75000000
 11
753.50000000
 21
548.75000000
  0
LINE
  8
LAYER_2
 10
661.00000000
 20
550.12500000
 11
753.50000000
 21
550.12500000
  0
LINE
  8
LAYER_2
 10
566.62500000
 20
487.12500000
 11
566.62500000
 21
430.50000000
  0
LINE
  8
LAYER_2
 10
567.00000000
 20
548.75000000
 11
659.50000000
 21
548.75000000
  0
LINE
  8
LAYER_2
 10
567.00000000
 20
550.12500000
 11
659.50000000
 21
550.12500000
  0
LINE
  8
LAYER_2
 10
661.00000000
 20
564.75000000
 11
753.50000000
 21
564.75000000
  0
LINE
  8
LAYER_2
 10
661.00000000
 20
566.12500000
 11
753.50000000
 21
566.12500000
  0
LINE
  8
LAYER_2
 10
567.00000000
 20
564.75000000
 11
659.50000000
 21
564.75000000
  0
LINE
  8
LAYER_2
 10
567.00000000
 20
566.12500000
 11
659.50000000
 21
566.12500000
  0
LINE
  8
LAYER_2
 10
661.00000000
 20
568.75000000
 11
753.50000000
 21
568.75000000
  0
LINE
  8
LAYER_2
 10
661.00000000
 20
570.12500000
 11
753.50000000
 21
570.12500000
  0
LINE
  8
LAYER_2
 10
567.00000000
 20
568.75000000
 11
659.50000000
 21
568.75000000
  0
LINE
  8
LAYER_2
 10
567.00000000
 20
570.12500000
 11
659.50000000
 21
570.12500000
  0
LINE
  8
LAYER_2
 10
661.00000000
 20
532.75000000
 11
753.50000000
 21
532.75000000
  0
LINE
  8
LAYER_2
 10
661.00000000
 20
534.12500000
 11
753.50000000
 21
534.12500000
  0
LINE
  8
LAYER_2
 10
567.00000000
 20
532.75000000
 11
659.50000000
 21
532.75000000
  0
LINE
  8
LAYER_2
 10
567.00000000
 20
534.12500000
 11
659.50000000
 21
534.12500000
  0
LINE
  8
LAYER_2
 10
661.00000000
 20
516.75000000
 11
753.50000000
 21
516.75000000
  0
LINE
  8
LAYER_2
 10
661.00000000
 20
518.12500000
 11
753.50000000
 21
518.12500000
  0
LINE
  8
LAYER_2
 10
567.00000000
 20
516.75000000
 11
659.50000000
 21
516.75000000
  0
LINE
  8
LAYER_2
 10
567.00000000
 20
518.12500000
 11
659.50000000
 21
518.12500000
  0
LINE
  8
LAYER_2
 10
661.00000000
 20
500.75000000
 11
753.50000000
 21
500.75000000
  0
LINE
  8
LAYER_2
 10
661.00000000
 20
502.12500000
 11
753.50000000
 21
502.12500000
  0
LINE
  8
LAYER_2
 10
567.00000000
 20
500.75000000
 11
659.50000000
 21
500.75000000
  0
LINE
  8
LAYER_2
 10
567.00000000
 20
502.12500000
 11
659.50000000
 21
502.12500000
  0
LINE
  8
LAYER_2
 10
661.00000000
 20
484.75000000
 11
750.37500000
 21
484.75000000
  0
LINE
  8
LAYER_2
 10
661.00000000
 20
486.12500000
 11
752.75000000
 21
486.12500000
  0
LINE
  8
LAYER_2
 10
570.50000000
 20
484.75000000
 11
659.50000000
 21
484.75000000
  0
LINE
  8
LAYER_2
 10
568.25000000
 20
486.12500000
 11
659.50000000
 21
486.12500000
  0
LINE
  8
LAYER_2
 10
661.00000000
 20
468.75000000
 11
723.62500000
 21
468.75000000
  0
LINE
  8
LAYER_2
 10
661.00000000
 20
470.12500000
 11
725.87500000
 21
470.12500000
  0
LINE
  8
LAYER_2
 10
597.25000000
 20
468.75000000
 11
659.50000000
 21
468.75000000
  0
LINE
  8
LAYER_2
 10
594.87500000
 20
470.12500000
 11
659.50000000
 21
470.12500000
  0
LINE
  8
LAYER_2
 10
661.00000000
 20
452.75000000
 11
696.75000000
 21
452.75000000
  0
LINE
  8
LAYER_2
 10
661.00000000
 20
454.12500000
 11
699.00000000
 21
454.12500000
  0
LINE
  8
LAYER_2
 10
623.87500000
 20
452.75000000
 11
659.50000000
 21
452.75000000
  0
LINE
  8
LAYER_2
 10
621.62500000
 20
454.12500000
 11
659.50000000
 21
454.12500000
  0
LINE
  8
LAYER_2
 10
661.00000000
 20
436.75000000
 11
670.00000000
 21
436.75000000
  0
LINE
  8
LAYER_2
 10
661.00000000
 20
438.12500000
 11
672.25000000
 21
438.12500000
  0
LINE
  8
LAYER_2
 10
650.37500000
 20
436.75000000
 11
659.50000000
 21
436.75000000
  0
LINE
  8
LAYER_2
 10
648.12500000
 20
438.12500000
 11
659.50000000
 21
438.12500000
  0
LINE
  8
LAYER_2
  6
SMALL
 10
749.50000000
 20
573.51870079
 11
753.50000000
 21
573.51870079
  0
LINE
  8
LAYER_2
  6
SMALL
 10
755.00000000
 20
573.51870079
 11
757.25000000
 21
573.51870079
  0
LINE
  8
LAYER_2
  6
SMALL
 10
734.75000000
 20
573.51870079
 11
740.00000000
 21
573.51870079
  0
LINE
  8
LAYER_2
  6
SMALL
 10
720.00000000
 20
573.51870079
 11
725.25000000
 21
573.51870079
  0
LINE
  8
LAYER_2
  6
SMALL
 10
705.25000000
 20
573.51870079
 11
709.25000000
 21
573.51870079
  0
LINE
  8
LAYER_2
  6
SMALL
 10
690.50000000
 20
573.51870079
 11
693.25000000
 21
573.51870079
  0
LINE
  8
LAYER_2
  6
SMALL
 10
675.75000000
 20
573.51870079
 11
677.25000000
 21
573.51870079
  0
LINE
  8
LAYER_2
  6
SMALL
 10
646.62500000
 20
573.51870079
 11
659.50000000
 21
573.51870079
  0
LINE
  8
LAYER_2
  6
SMALL
 10
631.50000000
 20
573.51870079
 11
644.75000000
 21
573.51870079
  0
LINE
  8
LAYER_2
  6
SMALL
 10
616.75000000
 20
573.51870079
 11
629.25000000
 21
573.51870079
  0
LINE
  8
LAYER_2
  6
SMALL
 10
602.00000000
 20
573.51870079
 11
613.25000000
 21
573.51870079
  0
LINE
  8
LAYER_2
  6
SMALL
 10
587.25000000
 20
573.51870079
 11
597.25000000
 21
573.51870079
  0
LINE
  8
LAYER_2
  6
SMALL
 10
580.50000000
 20
573.51870079
 11
581.25000000
 21
573.51870079
  0
LINE
  8
LAYER_2
  6
SMALL
 10
572.50000000
 20
573.51870079
 11
577.50000000
 21
573.51870079
  0
LINE
  8
LAYER_2
  6
SMALL
 10
550.62500000
 20
573.51870079
 11
565.25000000
 21
573.51870079
  0
LINE
  8
LAYER_2
  6
SMALL
 10
566.62500000
 20
571.25000000
 11
566.62500000
 21
487.12500000
  0
LINE
  8
LAYER_2
  6
SMALL
 10
567.12500000
 20
569.76870079
 11
753.50000000
 21
569.76870079
  0
LINE
  8
LAYER_2
  6
SMALL
 10
755.00000000
 20
569.76870079
 11
757.25000000
 21
569.76870079
  0
LINE
  8
LAYER_2
 10
743.00000000
 20
568.75000000
 11
743.00000000
 21
566.12500000
  0
LINE
  8
LAYER_2
 10
741.50000000
 20
568.75000000
 11
741.50000000
 21
566.12500000
  0
LINE
  8
LAYER_2
 10
740.00000000
 20
568.75000000
 11
740.00000000
 21
566.12500000
  0
LINE
  8
LAYER_2
  6
SMALL
 10
645.25000000
 20
570.12500000
 11
645.25000000
 21
569.75000000
  0
LINE
  8
LAYER_2
  6
SMALL
 10
630.62500000
 20
570.12500000
 11
630.62500000
 21
569.75000000
  0
LINE
  8
LAYER_2
 10
577.50000000
 20
568.75000000
 11
577.50000000
 21
566.12500000
  0
LINE
  8
LAYER_2
 10
579.00000000
 20
568.75000000
 11
579.00000000
 21
566.12500000
  0
LINE
  8
LAYER_2
 10
580.50000000
 20
568.75000000
 11
580.50000000
 21
566.12500000
  0
LINE
  8
LAYER_2
 10
577.50000000
 20
564.75000000
 11
577.50000000
 21
550.12500000
  0
LINE
  8
LAYER_2
 10
579.00000000
 20
564.75000000
 11
579.00000000
 21
550.12500000
  0
LINE
  8
LAYER_2
 10
580.50000000
 20
564.75000000
 11
580.50000000
 21
550.12500000
  0
LINE
  8
LAYER_2
 10
577.50000000
 20
548.75000000
 11
577.50000000
 21
534.12500000
  0
LINE
  8
LAYER_2
 10
579.00000000
 20
548.75000000
 11
579.00000000
 21
534.12500000
  0
LINE
  8
LAYER_2
 10
580.50000000
 20
548.75000000
 11
580.50000000
 21
534.12500000
  0
LINE
  8
LAYER_2
 10
577.50000000
 20
532.75000000
 11
577.50000000
 21
518.12500000
  0
LINE
  8
LAYER_2
 10
579.00000000
 20
532.75000000
 11
579.00000000
 21
518.12500000
  0
LINE
  8
LAYER_2
 10
580.50000000
 20
532.75000000
 11
580.50000000
 21
518.12500000
  0
LINE
  8
LAYER_2
 10
577.50000000
 20
516.75000000
 11
577.50000000
 21
502.12500000
  0
LINE
  8
LAYER_2
 10
579.00000000
 20
516.75000000
 11
579.00000000
 21
502.12500000
  0
LINE
  8
LAYER_2
 10
580.50000000
 20
516.75000000
 11
580.50000000
 21
502.12500000
  0
LINE
  8
LAYER_2
 10
577.50000000
 20
500.75000000
 11
577.50000000
 21
489.37500000
  0
LINE
  8
LAYER_2
 10
579.00000000
 20
500.75000000
 11
579.00000000
 21
488.50000000
  0
LINE
  8
LAYER_2
 10
580.50000000
 20
500.75000000
 11
580.50000000
 21
487.50000000
  0
LINE
  8
LAYER_2
  6
SMALL
 10
577.50000000
 20
484.75000000
 11
577.50000000
 21
480.50000000
  0
LINE
  8
LAYER_2
  6
SMALL
 10
579.00000000
 20
484.75000000
 11
579.00000000
 21
479.62500000
  0
LINE
  8
LAYER_2
  6
SMALL
 10
580.50000000
 20
484.75000000
 11
580.50000000
 21
478.75000000
  0
LINE
  8
LAYER_2
 10
565.50000000
 20
487.76870079
 11
597.12500000
 21
468.76008858
  0
LINE
  8
LAYER_2
 10
585.14640748
 20
484.75000000
 11
609.58735236
 21
470.12500000
  0
LINE
  8
LAYER_2
  6
SMALL
 10
580.50000000
 20
482.00000000
 11
589.75000000
 21
482.00000000
  0
LINE
  8
LAYER_2
  6
SMALL
 10
580.50000000
 20
480.50000000
 11
592.25000000
 21
480.50000000
  0
LINE
  8
LAYER_2
  6
SMALL
 10
580.50000000
 20
479.00000000
 11
594.75000000
 21
479.00000000
  0
LINE
  8
LAYER_2
  6
SMALL
 10
577.50000000
 20
489.37500000
 11
577.50000000
 21
486.12500000
  0
LINE
  8
LAYER_2
  6
SMALL
 10
579.00000000
 20
488.37500000
 11
579.00000000
 21
486.12500000
  0
LINE
  8
LAYER_2
  6
SMALL
 10
580.50000000
 20
487.50000000
 11
580.50000000
 21
486.12500000
  0
LINE
  8
LAYER_2
 10
577.50000000
 20
480.50000000
 11
577.50000000
 21
430.50000000
  0
LINE
  8
LAYER_2
 10
579.00000000
 20
479.62500000
 11
579.00000000
 21
430.50000000
  0
LINE
  8
LAYER_2
 10
580.50000000
 20
478.62500000
 11
580.50000000
 21
430.50000000
  0
LINE
  8
LAYER_2
 10
581.25000000
 20
478.37500000
 11
581.25000000
 21
430.50000000
  0
LINE
  8
LAYER_2
 10
582.62500000
 20
477.50000000
 11
582.62500000
 21
430.50000000
  0
LINE
  8
LAYER_2
 10
645.25000000
 20
468.75000000
 11
645.25000000
 21
454.12500000
  0
LINE
  8
LAYER_2
 10
646.62500000
 20
468.75000000
 11
646.62500000
 21
454.12500000
  0
LINE
  8
LAYER_2
 10
629.25000000
 20
468.75000000
 11
629.25000000
 21
458.37500000
  0
LINE
  8
LAYER_2
 10
630.62500000
 20
468.75000000
 11
630.62500000
 21
457.62500000
  0
LINE
  8
LAYER_2
 10
613.25000000
 20
468.75000000
 11
613.25000000
 21
468.00000000
  0
LINE
  8
LAYER_2
 10
614.62500000
 20
468.75000000
 11
614.62500000
 21
467.12500000
  0
LINE
  8
LAYER_2
 10
567.00000000
 20
495.60851378
 11
582.84867126
 21
486.12500000
  0
LINE
  8
LAYER_2
 10
589.75000000
 20
482.00000000
 11
659.50000000
 21
482.00000000
  0
LINE
  8
LAYER_2
 10
592.25000000
 20
480.50000000
 11
659.50000000
 21
480.50000000
  0
LINE
  8
LAYER_2
 10
594.75000000
 20
479.00000000
 11
659.50000000
 21
479.00000000
  0
LINE
  8
LAYER_2
 10
693.25000000
 20
468.75000000
 11
693.25000000
 21
459.50000000
  0
LINE
  8
LAYER_2
 10
694.62500000
 20
468.75000000
 11
694.62500000
 21
460.37500000
  0
LINE
  8
LAYER_2
 10
677.25000000
 20
468.75000000
 11
677.25000000
 21
454.12500000
  0
LINE
  8
LAYER_2
 10
678.62500000
 20
468.75000000
 11
678.62500000
 21
454.12500000
  0
LINE
  8
LAYER_2
 10
662.62500000
 20
468.75000000
 11
662.62500000
 21
454.12500000
  0
LINE
  8
LAYER_2
 10
684.19906496
 20
454.12500000
 11
708.79552165
 21
468.75000000
  0
LINE
  8
LAYER_2
  6
SMALL
 10
694.62500000
 20
452.75000000
 11
694.62500000
 21
451.37500000
  0
LINE
  8
LAYER_2
  6
SMALL
 10
693.25000000
 20
452.75000000
 11
693.25000000
 21
450.62500000
  0
LINE
  8
LAYER_2
 10
677.25000000
 20
452.75000000
 11
677.25000000
 21
450.00000000
  0
LINE
  8
LAYER_2
 10
678.62500000
 20
452.75000000
 11
678.62500000
 21
450.87500000
  0
LINE
  8
LAYER_2
 10
662.62500000
 20
452.75000000
 11
662.62500000
 21
441.37500000
  0
LINE
  8
LAYER_2
 10
661.00000000
 20
440.33095472
 11
681.88656496
 21
452.75000000
  0
LINE
  8
LAYER_2
  6
SMALL
 10
662.62500000
 20
436.75000000
 11
662.62500000
 21
432.37500000
  0
LINE
  8
LAYER_2
  6
SMALL
 10
661.25000000
 20
436.75000000
 11
661.25000000
 21
431.62500000
  0
LINE
  8
LAYER_2
 10
611.88508858
 20
468.75000000
 11
636.32603346
 21
454.12500000
  0
LINE
  8
LAYER_2
  6
SMALL
 10
630.62500000
 20
452.75000000
 11
630.62500000
 21
448.62500000
  0
LINE
  8
LAYER_2
  6
SMALL
 10
629.25000000
 20
452.75000000
 11
629.25000000
 21
449.37500000
  0
LINE
  8
LAYER_2
 10
645.25000000
 20
452.75000000
 11
645.25000000
 21
448.75000000
  0
LINE
  8
LAYER_2
 10
646.62500000
 20
452.75000000
 11
646.62500000
 21
448.00000000
  0
LINE
  8
LAYER_2
  6
SMALL
 10
743.00000000
 20
484.75000000
 11
743.00000000
 21
480.12500000
  0
LINE
  8
LAYER_2
  6
SMALL
 10
741.50000000
 20
484.75000000
 11
741.50000000
 21
479.50000000
  0
LINE
  8
LAYER_2
  6
SMALL
 10
740.00000000
 20
484.75000000
 11
740.00000000
 21
478.62500000
  0
LINE
  8
LAYER_2
 10
725.25000000
 20
479.00000000
 11
725.25000000
 21
478.50000000
  0
LINE
  8
LAYER_2
 10
743.00000000
 20
516.75000000
 11
743.00000000
 21
502.12500000
  0
LINE
  8
LAYER_2
 10
741.50000000
 20
516.75000000
 11
741.50000000
 21
502.12500000
  0
LINE
  8
LAYER_2
 10
740.00000000
 20
516.75000000
 11
740.00000000
 21
502.12500000
  0
LINE
  8
LAYER_2
 10
743.00000000
 20
500.75000000
 11
743.00000000
 21
489.00000000
  0
LINE
  8
LAYER_2
 10
741.50000000
 20
500.75000000
 11
741.50000000
 21
488.25000000
  0
LINE
  8
LAYER_2
 10
740.00000000
 20
500.75000000
 11
740.00000000
 21
487.37500000
  0
LINE
  8
LAYER_2
 10
743.00000000
 20
548.75000000
 11
743.00000000
 21
534.12500000
  0
LINE
  8
LAYER_2
 10
741.50000000
 20
548.75000000
 11
741.50000000
 21
534.12500000
  0
LINE
  8
LAYER_2
 10
740.00000000
 20
548.75000000
 11
740.00000000
 21
534.12500000
  0
LINE
  8
LAYER_2
 10
743.00000000
 20
532.75000000
 11
743.00000000
 21
518.12500000
  0
LINE
  8
LAYER_2
 10
741.50000000
 20
532.75000000
 11
741.50000000
 21
518.12500000
  0
LINE
  8
LAYER_2
 10
740.00000000
 20
532.75000000
 11
740.00000000
 21
518.12500000
  0
LINE
  8
LAYER_2
 10
743.00000000
 20
564.75000000
 11
743.00000000
 21
550.12500000
  0
LINE
  8
LAYER_2
 10
741.50000000
 20
564.75000000
 11
741.50000000
 21
550.12500000
  0
LINE
  8
LAYER_2
 10
740.00000000
 20
564.75000000
 11
740.00000000
 21
550.12500000
  0
LINE
  8
LAYER_2
  6
SMALL
 10
934.62500000
 20
289.01870079
 11
937.50000000
 21
289.01870079
  0
LINE
  8
LAYER_2
  6
SMALL
 10
860.50000000
 20
285.51870079
 11
869.25000000
 21
285.51870079
  0
LINE
  8
LAYER_2
  6
SMALL
 10
854.62500000
 20
285.51870079
 11
857.50000000
 21
285.51870079
  0
LINE
  8
LAYER_2
 10
853.25000000
 20
294.50000000
 11
853.25000000
 21
271.50000000
  0
LINE
  8
LAYER_2
 10
854.62500000
 20
294.50000000
 11
854.62500000
 21
271.49950787
  0
LINE
  8
LAYER_2
 10
837.25000000
 20
294.50000000
 11
837.25000000
 21
271.50000000
  0
LINE
  8
LAYER_2
 10
838.62500000
 20
294.50000000
 11
838.62500000
 21
271.49950787
  0
LINE
  8
LAYER_2
 10
821.25000000
 20
429.00000000
 11
821.25000000
 21
375.25000000
  0
LINE
  8
LAYER_2
 10
822.62500000
 20
429.00000000
 11
822.62500000
 21
375.25000000
  0
LINE
  8
LAYER_2
 10
805.25000000
 20
429.00000000
 11
805.25000000
 21
271.50000000
  0
LINE
  8
LAYER_2
 10
806.62500000
 20
429.00000000
 11
806.62500000
 21
271.49950787
  0
LINE
  8
LAYER_2
 10
789.25000000
 20
429.00000000
 11
789.25000000
 21
271.50000000
  0
LINE
  8
LAYER_2
 10
790.62500000
 20
429.00000000
 11
790.62500000
 21
271.49950787
  0
LINE
  8
LAYER_2
  6
SMALL
 10
758.62500000
 20
285.51870079
 11
773.25000000
 21
285.51870079
  0
LINE
  8
LAYER_2
  6
SMALL
 10
742.62500000
 20
285.51870079
 11
757.25000000
 21
285.51870079
  0
LINE
  8
LAYER_2
  6
SMALL
 10
747.50000000
 20
289.01870079
 11
757.25000000
 21
289.01870079
  0
LINE
  8
LAYER_2
 10
758.62500000
 20
294.50000000
 11
758.62500000
 21
271.49950787
  0
LINE
  8
LAYER_2
 10
860.50000000
 20
294.50000000
 11
860.50000000
 21
271.50000000
  0
LINE
  8
LAYER_2
 10
859.00000000
 20
294.50000000
 11
859.00000000
 21
271.50000000
  0
LINE
  8
LAYER_2
 10
857.50000000
 20
294.50000000
 11
857.50000000
 21
271.50000000
  0
LINE
  8
LAYER_2
 10
629.25000000
 20
429.00000000
 11
629.25000000
 21
271.50000000
  0
LINE
  8
LAYER_2
 10
613.25000000
 20
429.00000000
 11
613.25000000
 21
311.25000000
  0
LINE
  8
LAYER_2
 10
598.62500000
 20
294.50000000
 11
598.62500000
 21
271.49950787
  0
LINE
  8
LAYER_2
 10
597.25000000
 20
294.50000000
 11
597.25000000
 21
271.50000000
  0
LINE
  8
LAYER_2
 10
581.25000000
 20
294.50000000
 11
581.25000000
 21
271.50000000
  0
LINE
  8
LAYER_2
 10
582.62500000
 20
294.50000000
 11
582.62500000
 21
271.49950787
  0
LINE
  8
LAYER_2
 10
614.62500000
 20
294.50000000
 11
614.62500000
 21
271.49950787
  0
LINE
  8
LAYER_2
 10
630.62500000
 20
429.00000000
 11
630.62500000
 21
271.49950787
  0
LINE
  8
LAYER_2
 10
645.25000000
 20
429.00000000
 11
645.25000000
 21
271.50000000
  0
LINE
  8
LAYER_2
 10
646.62500000
 20
429.00000000
 11
646.62500000
 21
271.49950787
  0
LINE
  8
LAYER_2
 10
677.25000000
 20
429.00000000
 11
677.25000000
 21
271.50000000
  0
LINE
  8
LAYER_2
 10
678.62500000
 20
429.00000000
 11
678.62500000
 21
271.49950787
  0
LINE
  8
LAYER_2
 10
661.25000000
 20
429.00000000
 11
661.25000000
 21
271.50000000
  0
LINE
  8
LAYER_2
 10
662.62500000
 20
429.12500000
 11
662.62500000
 21
271.49950787
  0
LINE
  8
LAYER_2
  6
SMALL
 10
630.62500000
 20
285.51870079
 11
645.25000000
 21
285.51870079
  0
LINE
  8
LAYER_2
  6
SMALL
 10
646.62500000
 20
285.51870079
 11
661.25000000
 21
285.51870079
  0
LINE
  8
LAYER_2
  6
SMALL
 10
662.62500000
 20
285.51870079
 11
677.25000000
 21
285.51870079
  0
LINE
  8
LAYER_2
  6
SMALL
 10
614.62500000
 20
285.51870079
 11
629.25000000
 21
285.51870079
  0
LINE
  8
LAYER_2
  6
SMALL
 10
598.62500000
 20
285.51870079
 11
613.25000000
 21
285.51870079
  0
LINE
  8
LAYER_2
  6
SMALL
 10
582.62500000
 20
285.51870079
 11
597.25000000
 21
285.51870079
  0
LINE
  8
LAYER_2
  6
SMALL
 10
566.62500000
 20
285.51870079
 11
581.25000000
 21
285.51870079
  0
LINE
  8
LAYER_2
  6
SMALL
 10
550.62500000
 20
285.51870079
 11
565.25000000
 21
285.51870079
  0
LINE
  8
LAYER_2
  6
SMALL
 10
534.62500000
 20
285.51870079
 11
549.25000000
 21
285.51870079
  0
LINE
  8
LAYER_2
  6
SMALL
 10
534.62500000
 20
289.01870079
 11
549.25000000
 21
289.01870079
  0
LINE
  8
LAYER_2
  6
SMALL
 10
518.62500000
 20
285.51870079
 11
533.25000000
 21
285.51870079
  0
LINE
  8
LAYER_2
  6
SMALL
 10
518.62500000
 20
289.01870079
 11
533.25000000
 21
289.01870079
  0
LINE
  8
LAYER_2
  6
SMALL
 10
506.50000000
 20
285.51870079
 11
517.25000000
 21
285.51870079
  0
LINE
  8
LAYER_2
  6
SMALL
 10
506.50000000
 20
289.01870079
 11
517.25000000
 21
289.01870079
  0
LINE
  8
LAYER_2
  6
SMALL
 10
694.62500000
 20
285.51870079
 11
709.25000000
 21
285.51870079
  0
LINE
  8
LAYER_2
  6
SMALL
 10
698.50000000
 20
289.01870079
 11
709.25000000
 21
289.01870079
  0
LINE
  8
LAYER_2
  6
SMALL
 10
678.62500000
 20
285.51870079
 11
693.25000000
 21
285.51870079
  0
LINE
  8
LAYER_2
  6
SMALL
 10
726.62500000
 20
285.51870079
 11
741.25000000
 21
285.51870079
  0
LINE
  8
LAYER_2
  6
SMALL
 10
726.62500000
 20
289.01870079
 11
741.25000000
 21
289.01870079
  0
LINE
  8
LAYER_2
  6
SMALL
 10
710.62500000
 20
285.51870079
 11
725.25000000
 21
285.51870079
  0
LINE
  8
LAYER_2
  6
SMALL
 10
710.62500000
 20
289.01870079
 11
725.25000000
 21
289.01870079
  0
LINE
  8
LAYER_2
  6
SMALL
 10
790.62500000
 20
285.51870079
 11
805.25000000
 21
285.51870079
  0
LINE
  8
LAYER_2
  6
SMALL
 10
774.62500000
 20
285.51870079
 11
789.25000000
 21
285.51870079
  0
LINE
  8
LAYER_2
  6
SMALL
 10
838.62500000
 20
285.51870079
 11
853.25000000
 21
285.51870079
  0
LINE
  8
LAYER_2
  6
SMALL
 10
822.62500000
 20
285.51870079
 11
837.25000000
 21
285.51870079
  0
LINE
  8
LAYER_2
  6
SMALL
 10
806.62500000
 20
285.51870079
 11
821.25000000
 21
285.51870079
  0
LINE
  8
LAYER_2
  6
SMALL
 10
886.62500000
 20
285.51870079
 11
901.25000000
 21
285.51870079
  0
LINE
  8
LAYER_2
  6
SMALL
 10
886.62500000
 20
289.01870079
 11
901.25000000
 21
289.01870079
  0
LINE
  8
LAYER_2
  6
SMALL
 10
870.62500000
 20
285.51870079
 11
885.25000000
 21
285.51870079
  0
LINE
  8
LAYER_2
  6
SMALL
 10
882.50000000
 20
289.01870079
 11
885.25000000
 21
289.01870079
  0
LINE
  8
LAYER_2
  6
SMALL
 10
918.62500000
 20
285.51870079
 11
933.25000000
 21
285.51870079
  0
LINE
  8
LAYER_2
  6
SMALL
 10
918.62500000
 20
289.01870079
 11
933.25000000
 21
289.01870079
  0
LINE
  8
LAYER_2
  6
SMALL
 10
902.62500000
 20
285.51870079
 11
917.25000000
 21
285.51870079
  0
LINE
  8
LAYER_2
  6
SMALL
 10
902.62500000
 20
289.01870079
 11
917.25000000
 21
289.01870079
  0
LINE
  8
LAYER_2
  6
SMALL
 10
918.62500000
 20
573.51870079
 11
933.25000000
 21
573.51870079
  0
LINE
  8
LAYER_2
  6
SMALL
 10
902.62500000
 20
573.51870079
 11
917.25000000
 21
573.51870079
  0
LINE
  8
LAYER_2
  6
SMALL
 10
886.62500000
 20
573.51870079
 11
901.25000000
 21
573.51870079
  0
LINE
  8
LAYER_2
  6
SMALL
 10
870.62500000
 20
573.51870079
 11
885.25000000
 21
573.51870079
  0
LINE
  8
LAYER_2
  6
SMALL
 10
854.62500000
 20
573.51870079
 11
869.25000000
 21
573.51870079
  0
LINE
  8
LAYER_2
  6
SMALL
 10
838.62500000
 20
573.51870079
 11
853.25000000
 21
573.51870079
  0
LINE
  8
LAYER_2
  6
SMALL
 10
822.62500000
 20
573.51870079
 11
837.25000000
 21
573.51870079
  0
LINE
  8
LAYER_2
  6
SMALL
 10
806.62500000
 20
573.51870079
 11
821.25000000
 21
573.51870079
  0
LINE
  8
LAYER_2
  6
SMALL
 10
790.62500000
 20
573.51870079
 11
805.25000000
 21
573.51870079
  0
LINE
  8
LAYER_2
  6
SMALL
 10
774.62500000
 20
573.51870079
 11
789.25000000
 21
573.51870079
  0
LINE
  8
LAYER_2
  6
SMALL
 10
758.62500000
 20
573.51870079
 11
773.25000000
 21
573.51870079
  0
LINE
  8
LAYER_2
  6
SMALL
 10
534.62500000
 20
573.51870079
 11
549.25000000
 21
573.51870079
  0
LINE
  8
LAYER_2
  6
SMALL
 10
518.62500000
 20
573.51870079
 11
533.25000000
 21
573.51870079
  0
LINE
  8
LAYER_2
  6
SMALL
 10
506.50000000
 20
573.51870079
 11
517.25000000
 21
573.51870079
  0
LINE
  8
LAYER_2
  6
SMALL
 10
934.62500000
 20
570.01870079
 11
937.50000000
 21
570.01870079
  0
LINE
  8
LAYER_2
  6
SMALL
 10
918.62500000
 20
570.01870079
 11
933.25000000
 21
570.01870079
  0
LINE
  8
LAYER_2
  6
SMALL
 10
902.62500000
 20
570.01870079
 11
917.25000000
 21
570.01870079
  0
LINE
  8
LAYER_2
  6
SMALL
 10
886.62500000
 20
570.01870079
 11
901.25000000
 21
570.01870079
  0
LINE
  8
LAYER_2
  6
SMALL
 10
870.62500000
 20
570.01870079
 11
885.25000000
 21
570.01870079
  0
LINE
  8
LAYER_2
  6
SMALL
 10
854.62500000
 20
570.01870079
 11
869.25000000
 21
570.01870079
  0
LINE
  8
LAYER_2
  6
SMALL
 10
838.62500000
 20
570.01870079
 11
853.25000000
 21
570.01870079
  0
LINE
  8
LAYER_2
  6
SMALL
 10
822.62500000
 20
570.01870079
 11
837.25000000
 21
570.01870079
  0
LINE
  8
LAYER_2
  6
SMALL
 10
806.62500000
 20
570.01870079
 11
821.25000000
 21
570.01870079
  0
LINE
  8
LAYER_2
  6
SMALL
 10
790.62500000
 20
570.01870079
 11
805.25000000
 21
570.01870079
  0
LINE
  8
LAYER_2
  6
SMALL
 10
774.62500000
 20
570.01870079
 11
789.25000000
 21
570.01870079
  0
LINE
  8
LAYER_2
  6
SMALL
 10
758.62500000
 20
570.01870079
 11
773.25000000
 21
570.01870079
  0
LINE
  8
LAYER_2
  6
SMALL
 10
550.62500000
 20
570.01870079
 11
565.25000000
 21
570.01870079
  0
LINE
  8
LAYER_2
  6
SMALL
 10
534.62500000
 20
570.01870079
 11
549.25000000
 21
570.01870079
  0
LINE
  8
LAYER_2
  6
SMALL
 10
518.62500000
 20
570.01870079
 11
533.25000000
 21
570.01870079
  0
LINE
  8
LAYER_2
  6
SMALL
 10
506.50000000
 20
570.01870079
 11
517.25000000
 21
570.01870079
  0
LINE
  8
LAYER_2
  6
SMALL
 10
598.62500000
 20
468.75000000
 11
598.62500000
 21
467.87500000
  0
LINE
  8
LAYER_2
  6
SMALL
 10
597.25000000
 20
468.75000000
 11
597.25000000
 21
468.62500000
  0
LINE
  8
LAYER_2
 10
645.50000000
 20
584.02780512
 11
646.50000000
 21
584.02780512
  0
LINE
  8
LAYER_2
 10
644.75000000
 20
584.00000000
 11
644.75000000
 21
570.12500000
  0
LINE
  8
LAYER_2
 10
646.25000000
 20
584.00000000
 11
646.25000000
 21
570.12500000
  0
LINE
  8
LAYER_2
  6
SMALL
 10
646.50000000
 20
584.00000000
 11
646.50000000
 21
569.75000000
  0
LINE
  8
LAYER_2
 10
630.00000000
 20
584.00000000
 11
630.00000000
 21
570.12500000
  0
LINE
  8
LAYER_2
 10
631.50000000
 20
583.87500000
 11
631.50000000
 21
570.12500000
  0
LINE
  8
LAYER_2
 10
615.25000000
 20
584.00000000
 11
615.25000000
 21
570.12500000
  0
LINE
  8
LAYER_2
 10
616.75000000
 20
584.00000000
 11
616.75000000
 21
570.12500000
  0
LINE
  8
LAYER_2
 10
600.50000000
 20
584.00000000
 11
600.50000000
 21
570.12500000
  0
LINE
  8
LAYER_2
 10
602.00000000
 20
584.00000000
 11
602.00000000
 21
570.12500000
  0
LINE
  8
LAYER_2
 10
585.75000000
 20
584.00000000
 11
585.75000000
 21
570.12500000
  0
LINE
  8
LAYER_2
 10
587.25000000
 20
584.00000000
 11
587.25000000
 21
570.12500000
  0
LINE
  8
LAYER_2
 10
571.00000000
 20
584.00000000
 11
571.00000000
 21
570.12500000
  0
LINE
  8
LAYER_2
 10
572.50000000
 20
584.00000000
 11
572.50000000
 21
570.12500000
  0
LINE
  8
LAYER_2
  6
SMALL
 10
567.00000000
 20
573.51870079
 11
571.00000000
 21
573.51870079
  0
LINE
  8
LAYER_2
  6
SMALL
 10
582.62500000
 20
573.51870079
 11
585.75000000
 21
573.51870079
  0
LINE
  8
LAYER_2
  6
SMALL
 10
598.62500000
 20
573.51870079
 11
600.50000000
 21
573.51870079
  0
LINE
  8
LAYER_2
  6
SMALL
 10
614.62500000
 20
573.51870079
 11
615.25000000
 21
573.51870079
  0
LINE
  8
LAYER_2
 10
675.75000000
 20
584.00000000
 11
675.75000000
 21
570.12500000
  0
LINE
  8
LAYER_2
 10
674.25000000
 20
584.00000000
 11
674.25000000
 21
570.12500000
  0
LINE
  8
LAYER_2
 10
690.50000000
 20
584.00000000
 11
690.50000000
 21
570.12500000
  0
LINE
  8
LAYER_2
 10
689.00000000
 20
584.00000000
 11
689.00000000
 21
570.12500000
  0
LINE
  8
LAYER_2
 10
705.25000000
 20
584.00000000
 11
705.25000000
 21
570.12500000
  0
LINE
  8
LAYER_2
 10
703.75000000
 20
584.00000000
 11
703.75000000
 21
570.12500000
  0
LINE
  8
LAYER_2
 10
720.00000000
 20
584.00000000
 11
720.00000000
 21
570.12500000
  0
LINE
  8
LAYER_2
 10
718.50000000
 20
584.00000000
 11
718.50000000
 21
570.12500000
  0
LINE
  8
LAYER_2
 10
734.75000000
 20
584.00000000
 11
734.75000000
 21
570.12500000
  0
LINE
  8
LAYER_2
 10
733.25000000
 20
584.00000000
 11
733.25000000
 21
570.12500000
  0
LINE
  8
LAYER_2
 10
749.50000000
 20
584.00000000
 11
749.50000000
 21
570.12500000
  0
LINE
  8
LAYER_2
 10
748.00000000
 20
584.00000000
 11
748.00000000
 21
570.12500000
  0
LINE
  8
LAYER_2
  6
SMALL
 10
743.00000000
 20
573.51870079
 11
748.00000000
 21
573.51870079
  0
LINE
  8
LAYER_2
  6
SMALL
 10
726.62500000
 20
573.51870079
 11
733.25000000
 21
573.51870079
  0
LINE
  8
LAYER_2
  6
SMALL
 10
710.62500000
 20
573.51870079
 11
718.50000000
 21
573.51870079
  0
LINE
  8
LAYER_2
  6
SMALL
 10
694.62500000
 20
573.51870079
 11
703.75000000
 21
573.51870079
  0
LINE
  8
LAYER_2
  6
SMALL
 10
678.62500000
 20
573.51870079
 11
689.00000000
 21
573.51870079
  0
LINE
  8
LAYER_2
  6
SMALL
 10
662.62500000
 20
573.51870079
 11
674.25000000
 21
573.51870079
  0
LINE
  8
LAYER_2
 10
818.75000000
 20
294.51993110
 11
894.50000000
 21
294.53297244
  0
LINE
  8
LAYER_2
 10
870.25000000
 20
294.52239173
 11
894.50000000
 21
294.51796260
  0
LINE
  8
LAYER_2
 10
818.50000000
 20
384.50000000
 11
818.50000000
 21
294.51796260
  0
LINE
  8
LAYER_2
 10
818.50000000
 20
294.51673228
 11
820.37500000
 21
294.51673228
  0
LINE
  8
LAYER_2
 10
882.62500000
 20
294.51673228
 11
894.50000000
 21
294.51673228
  0
LINE
  8
LAYER_2
 10
894.50000000
 20
384.01796260
 11
894.50000000
 21
294.51673228
  0
LINE
  8
LAYER_2
 10
893.00000000
 20
385.50000000
 11
893.00000000
 21
296.00000000
  0
LINE
  8
LAYER_2
 10
820.00000000
 20
386.00000000
 11
820.00000000
 21
296.00000000
  0
LINE
  8
LAYER_2
 10
870.25000000
 20
296.02239173
 11
893.00000000
 21
296.01845472
  0
LINE
  8
LAYER_2
 10
818.50000000
 20
296.02140748
 11
855.75000000
 21
296.02780512
  0
LINE
  8
LAYER_2
 10
820.00000000
 20
296.01673228
 11
832.12500000
 21
296.01673228
  0
LINE
  8
LAYER_2
 10
878.62500000
 20
389.75000000
 11
893.00000000
 21
375.37500000
  0
LINE
  8
LAYER_2
 10
818.50024606
 20
384.50000000
 11
855.75000000
 21
421.75000000
  0
LINE
  8
LAYER_2
 10
820.00000000
 20
341.76993110
 11
855.75000000
 21
341.77608268
  0
LINE
  8
LAYER_2
 10
883.75000000
 20
341.77017717
 11
893.00000000
 21
341.76845472
  0
LINE
  8
LAYER_2
 10
868.37500000
 20
341.77091535
 11
885.12500000
 21
341.76820866
  0
LINE
  8
LAYER_2
 10
830.50000000
 20
341.77017717
 11
830.50000000
 21
341.76673228
  0
LINE
  8
LAYER_2
 10
832.00000000
 20
341.77017717
 11
832.00000000
 21
341.76673228
  0
LINE
  8
LAYER_2
 10
820.00000000
 20
343.26993110
 11
855.75000000
 21
343.27608268
  0
LINE
  8
LAYER_2
 10
868.37500000
 20
343.27091535
 11
893.00000000
 21
343.26673228
  0
LINE
  8
LAYER_2
 10
820.00000000
 20
343.26673228
 11
832.00000000
 21
343.26673228
  0
LINE
  8
LAYER_2
 10
820.00000000
 20
325.76993110
 11
855.75000000
 21
325.77608268
  0
LINE
  8
LAYER_2
 10
868.37500000
 20
325.77091535
 11
882.50000000
 21
325.76845472
  0
LINE
  8
LAYER_2
 10
830.50000000
 20
325.77017717
 11
830.50000000
 21
325.76673228
  0
LINE
  8
LAYER_2
 10
832.00000000
 20
325.77017717
 11
832.00000000
 21
325.76673228
  0
LINE
  8
LAYER_2
 10
820.00000000
 20
325.76673228
 11
832.00000000
 21
325.76673228
  0
LINE
  8
LAYER_2
 10
820.00000000
 20
327.26993110
 11
855.75000000
 21
327.27608268
  0
LINE
  8
LAYER_2
 10
868.37500000
 20
327.27263780
 11
893.00000000
 21
327.26845472
  0
LINE
  8
LAYER_2
 10
868.37500000
 20
327.27091535
 11
882.50000000
 21
327.26845472
  0
LINE
  8
LAYER_2
 10
820.00000000
 20
327.26673228
 11
832.00000000
 21
327.26673228
  0
LINE
  8
LAYER_2
 10
820.00000000
 20
309.76993110
 11
820.75000000
 21
309.77017717
  0
LINE
  8
LAYER_2
 10
868.37500000
 20
309.77263780
 11
893.00000000
 21
309.76845472
  0
LINE
  8
LAYER_2
 10
868.37500000
 20
309.77091535
 11
882.50000000
 21
309.76845472
  0
LINE
  8
LAYER_2
 10
830.50000000
 20
309.77017717
 11
830.50000000
 21
309.76673228
  0
LINE
  8
LAYER_2
 10
882.50000000
 20
309.77017717
 11
882.50000000
 21
309.76673228
  0
LINE
  8
LAYER_2
 10
832.00000000
 20
309.77017717
 11
832.00000000
 21
309.76673228
  0
LINE
  8
LAYER_2
 10
820.00000000
 20
309.76673228
 11
832.00000000
 21
309.76673228
  0
LINE
  8
LAYER_2
 10
855.21432087
 20
311.26673228
 11
820.00000000
 21
311.26993110
  0
LINE
  8
LAYER_2
 10
868.37500000
 20
311.27263780
 11
893.00000000
 21
311.26845472
  0
LINE
  8
LAYER_2
 10
868.37500000
 20
311.27091535
 11
882.50000000
 21
311.26845472
  0
LINE
  8
LAYER_2
 10
820.00000000
 20
357.76993110
 11
855.75000000
 21
357.77608268
  0
LINE
  8
LAYER_2
 10
868.37500000
 20
357.77263780
 11
893.00000000
 21
357.76845472
  0
LINE
  8
LAYER_2
 10
868.37500000
 20
357.77091535
 11
882.50000000
 21
357.76845472
  0
LINE
  8
LAYER_2
 10
830.50000000
 20
357.77017717
 11
830.50000000
 21
357.76673228
  0
LINE
  8
LAYER_2
 10
882.50000000
 20
357.77017717
 11
882.50000000
 21
357.76673228
  0
LINE
  8
LAYER_2
 10
832.00000000
 20
357.77017717
 11
832.00000000
 21
357.76673228
  0
LINE
  8
LAYER_2
 10
868.37500000
 20
359.27263780
 11
893.00000000
 21
359.26845472
  0
LINE
  8
LAYER_2
 10
868.37500000
 20
359.27091535
 11
882.50000000
 21
359.26845472
  0
LINE
  8
LAYER_2
 10
820.00000000
 20
359.26993110
 11
855.75000000
 21
359.27608268
  0
LINE
  8
LAYER_2
 10
820.00000000
 20
359.26673228
 11
832.00000000
 21
359.26673228
  0
LINE
  8
LAYER_2
 10
820.00000000
 20
373.77165354
 11
855.75000000
 21
373.77780512
  0
LINE
  8
LAYER_2
 10
868.37500000
 20
373.77263780
 11
893.00000000
 21
373.76845472
  0
LINE
  8
LAYER_2
 10
868.37500000
 20
373.77091535
 11
882.50000000
 21
373.76845472
  0
LINE
  8
LAYER_2
 10
830.50000000
 20
373.77017717
 11
830.50000000
 21
373.76673228
  0
LINE
  8
LAYER_2
 10
882.50000000
 20
373.77017717
 11
882.50000000
 21
373.76673228
  0
LINE
  8
LAYER_2
 10
832.00000000
 20
373.77017717
 11
832.00000000
 21
373.76673228
  0
LINE
  8
LAYER_2
 10
820.00000000
 20
375.26993110
 11
855.75000000
 21
375.27608268
  0
LINE
  8
LAYER_2
 10
868.37500000
 20
375.27263780
 11
893.00000000
 21
375.26845472
  0
LINE
  8
LAYER_2
 10
868.37500000
 20
375.27091535
 11
882.50000000
 21
375.26845472
  0
LINE
  8
LAYER_2
 10
820.00000000
 20
375.26673228
 11
832.00000000
 21
375.26673228
  0
LINE
  8
LAYER_2
 10
823.87500000
 20
389.77239173
 11
855.75000000
 21
389.77780512
  0
LINE
  8
LAYER_2
 10
868.37500000
 20
389.77091535
 11
888.75000000
 21
389.76747047
  0
LINE
  8
LAYER_2
 10
825.37500000
 20
391.27091535
 11
855.75000000
 21
391.27608268
  0
LINE
  8
LAYER_2
 10
868.37500000
 20
391.27263780
 11
887.37500000
 21
391.26943898
  0
LINE
  8
LAYER_2
 10
868.37500000
 20
391.27091535
 11
882.50000000
 21
391.26845472
  0
LINE
  8
LAYER_2
 10
839.75000000
 20
405.77509843
 11
855.75000000
 21
405.77780512
  0
LINE
  8
LAYER_2
 10
868.37500000
 20
405.77263780
 11
873.12500000
 21
405.77189961
  0
LINE
  8
LAYER_2
 10
841.25000000
 20
407.27534449
 11
855.75000000
 21
407.27780512
  0
LINE
  8
LAYER_2
 10
868.37500000
 20
407.26254921
 11
871.62500000
 21
407.26082677
  0
LINE
  8
LAYER_2
 10
882.50000000
 20
429.00000000
 11
882.50000000
 21
375.25000000
  0
LINE
  8
LAYER_2
 10
881.00000000
 20
429.00000000
 11
881.00000000
 21
397.62500000
  0
LINE
  8
LAYER_2
 10
879.50000000
 20
429.00000000
 11
879.50000000
 21
399.25000000
  0
LINE
  8
LAYER_2
 10
830.50000000
 20
429.00000000
 11
830.50000000
 21
375.25000000
  0
LINE
  8
LAYER_2
 10
832.00000000
 20
429.00000000
 11
832.00000000
 21
397.37500000
  0
LINE
  8
LAYER_2
 10
833.50000000
 20
325.77017717
 11
833.50000000
 21
325.76673228
  0
LINE
  8
LAYER_2
 10
833.50000000
 20
309.77017717
 11
833.50000000
 21
309.76673228
  0
LINE
  8
LAYER_2
 10
833.50000000
 20
429.00000000
 11
833.50000000
 21
398.87500000
  0
LINE
  8
LAYER_2
 10
818.62500000
 20
294.51796260
 11
820.37500000
 21
294.51820866
  0
LINE
  8
LAYER_2
  6
SMALL
 10
869.50000000
 20
398.87500000
 11
879.50000000
 21
398.87500000
  0
LINE
  8
LAYER_2
  6
SMALL
 10
871.00000000
 20
397.37500000
 11
879.50000000
 21
397.37500000
  0
LINE
  8
LAYER_2
  6
SMALL
 10
872.50000000
 20
395.87500000
 11
879.50000000
 21
395.87500000
  0
LINE
  8
LAYER_2
  6
SMALL
 10
882.50000000
 20
396.25000000
 11
882.50000000
 21
391.25000000
  0
LINE
  8
LAYER_2
  6
SMALL
 10
881.00000000
 20
397.75000000
 11
881.00000000
 21
391.25000000
  0
LINE
  8
LAYER_2
  6
SMALL
 10
879.50000000
 20
399.25000000
 11
879.50000000
 21
391.25000000
  0
LINE
  8
LAYER_2
 10
881.00000000
 20
387.37500000
 11
881.00000000
 21
375.25000000
  0
LINE
  8
LAYER_2
 10
879.50000000
 20
388.87500000
 11
879.50000000
 21
375.25000000
  0
LINE
  8
LAYER_2
 10
857.25000000
 20
296.02805118
 11
887.37500000
 21
296.02263780
  0
LINE
  8
LAYER_2
 10
857.25000000
 20
296.02632874
 11
887.37500000
 21
296.02091535
  0
LINE
  8
LAYER_2
 10
857.25000000
 20
296.02780512
 11
887.37500000
 21
296.01254921
  0
LINE
  8
LAYER_2
 10
862.50024606
 20
405.87500000
 11
877.12500000
 21
391.25000000
  0
LINE
  8
LAYER_2
 10
857.24606299
 20
421.75000000
 11
894.50000000
 21
384.00000000
  0
LINE
  8
LAYER_2
 10
857.25000000
 20
341.77780512
 11
887.37500000
 21
341.77263780
  0
LINE
  8
LAYER_2
 10
857.25000000
 20
341.77608268
 11
887.37500000
 21
341.77091535
  0
LINE
  8
LAYER_2
 10
857.25000000
 20
343.27780512
 11
887.37500000
 21
343.27263780
  0
LINE
  8
LAYER_2
 10
857.25000000
 20
343.27608268
 11
887.37500000
 21
343.27091535
  0
LINE
  8
LAYER_2
 10
857.25000000
 20
343.27755906
 11
887.37500000
 21
343.26254921
  0
LINE
  8
LAYER_2
 10
857.25000000
 20
325.77780512
 11
887.37500000
 21
325.77263780
  0
LINE
  8
LAYER_2
 10
857.25000000
 20
325.77608268
 11
887.37500000
 21
325.77091535
  0
LINE
  8
LAYER_2
 10
857.25000000
 20
327.27780512
 11
887.37500000
 21
327.27263780
  0
LINE
  8
LAYER_2
 10
857.25000000
 20
327.27608268
 11
887.37500000
 21
327.27091535
  0
LINE
  8
LAYER_2
 10
857.25000000
 20
327.27755906
 11
887.37500000
 21
327.26254921
  0
LINE
  8
LAYER_2
 10
857.25000000
 20
309.77780512
 11
887.37500000
 21
309.77263780
  0
LINE
  8
LAYER_2
 10
857.25000000
 20
309.77608268
 11
887.37500000
 21
309.77091535
  0
LINE
  8
LAYER_2
 10
857.25000000
 20
311.27780512
 11
887.37500000
 21
311.27263780
  0
LINE
  8
LAYER_2
 10
857.25000000
 20
311.27608268
 11
887.37500000
 21
311.27091535
  0
LINE
  8
LAYER_2
 10
857.25000000
 20
311.27755906
 11
887.37500000
 21
311.26254921
  0
LINE
  8
LAYER_2
 10
857.25000000
 20
357.77780512
 11
887.37500000
 21
357.77263780
  0
LINE
  8
LAYER_2
 10
857.25000000
 20
357.77608268
 11
887.37500000
 21
357.77091535
  0
LINE
  8
LAYER_2
 10
857.25000000
 20
359.27780512
 11
887.37500000
 21
359.27263780
  0
LINE
  8
LAYER_2
 10
857.25000000
 20
359.27608268
 11
887.37500000
 21
359.27091535
  0
LINE
  8
LAYER_2
 10
857.25000000
 20
359.27755906
 11
887.37500000
 21
359.26254921
  0
LINE
  8
LAYER_2
 10
857.25000000
 20
373.77780512
 11
887.37500000
 21
373.77263780
  0
LINE
  8
LAYER_2
 10
857.25000000
 20
373.77608268
 11
887.37500000
 21
373.77091535
  0
LINE
  8
LAYER_2
 10
857.25000000
 20
375.27780512
 11
887.37500000
 21
375.27263780
  0
LINE
  8
LAYER_2
 10
857.25000000
 20
375.27608268
 11
887.37500000
 21
375.27091535
  0
LINE
  8
LAYER_2
 10
857.25000000
 20
375.27755906
 11
887.37500000
 21
375.26254921
  0
LINE
  8
LAYER_2
 10
857.25000000
 20
389.77608268
 11
887.37500000
 21
389.77091535
  0
LINE
  8
LAYER_2
 10
857.25000000
 20
391.27780512
 11
887.37500000
 21
391.27263780
  0
LINE
  8
LAYER_2
 10
857.25000000
 20
391.27608268
 11
887.37500000
 21
391.27091535
  0
LINE
  8
LAYER_2
 10
857.25000000
 20
405.77780512
 11
873.00000000
 21
405.77509843
  0
LINE
  8
LAYER_2
 10
857.25000000
 20
407.27755906
 11
871.50000000
 21
407.27042323
  0
LINE
  8
LAYER_2
 10
857.25000000
 20
398.87500000
 11
869.50000000
 21
398.87500000
  0
LINE
  8
LAYER_2
 10
857.25000000
 20
397.37500000
 11
871.00000000
 21
397.37500000
  0
LINE
  8
LAYER_2
 10
868.37500000
 20
341.77263780
 11
878.50000000
 21
341.77091535
  0
LINE
  8
LAYER_2
 10
868.37500000
 20
343.27263780
 11
870.25000000
 21
343.27239173
  0
LINE
  8
LAYER_2
 10
868.37500000
 20
343.26254921
 11
870.25000000
 21
343.26156496
  0
LINE
  8
LAYER_2
 10
868.37500000
 20
325.77263780
 11
893.00000000
 21
325.76845472
  0
LINE
  8
LAYER_2
 10
868.37500000
 20
327.26254921
 11
870.25000000
 21
327.26156496
  0
LINE
  8
LAYER_2
 10
868.37500000
 20
311.26254921
 11
870.25000000
 21
311.26156496
  0
LINE
  8
LAYER_2
 10
868.37500000
 20
359.26254921
 11
870.25000000
 21
359.26156496
  0
LINE
  8
LAYER_2
 10
868.37500000
 20
375.26254921
 11
870.25000000
 21
375.26156496
  0
LINE
  8
LAYER_2
 10
857.25000000
 20
395.87500000
 11
872.50000000
 21
395.87500000
  0
LINE
  8
LAYER_2
  6
SMALL
 10
882.50000000
 20
389.75000000
 11
882.50000000
 21
385.87500000
  0
LINE
  8
LAYER_2
  6
SMALL
 10
881.00000000
 20
389.75000000
 11
881.00000000
 21
387.37500000
  0
LINE
  8
LAYER_2
  6
SMALL
 10
879.50000000
 20
389.75000000
 11
879.50000000
 21
388.87500000
  0
LINE
  8
LAYER_2
 10
843.50000000
 20
398.87500000
 11
855.75000000
 21
398.87500000
  0
LINE
  8
LAYER_2
 10
842.00000000
 20
397.37500000
 11
855.75000000
 21
397.37500000
  0
LINE
  8
LAYER_2
 10
840.50000000
 20
395.87500000
 11
855.75000000
 21
395.87500000
  0
LINE
  8
LAYER_2
  6
SMALL
 10
833.50000000
 20
398.87500000
 11
843.50000000
 21
398.87500000
  0
LINE
  8
LAYER_2
  6
SMALL
 10
833.50000000
 20
397.37500000
 11
841.87500000
 21
397.37500000
  0
LINE
  8
LAYER_2
  6
SMALL
 10
833.50000000
 20
395.87500000
 11
840.50000000
 21
395.87500000
  0
LINE
  8
LAYER_2
  6
SMALL
 10
833.50000000
 20
398.75000000
 11
833.50000000
 21
391.25000000
  0
LINE
  8
LAYER_2
  6
SMALL
 10
832.00000000
 20
397.37500000
 11
832.00000000
 21
391.25000000
  0
LINE
  8
LAYER_2
  6
SMALL
 10
830.50000000
 20
395.87500000
 11
830.50000000
 21
391.25000000
  0
LINE
  8
LAYER_2
 10
832.00000000
 20
387.37500000
 11
832.00000000
 21
375.25000000
  0
LINE
  8
LAYER_2
 10
833.50000000
 20
388.87500000
 11
833.50000000
 21
375.25000000
  0
LINE
  8
LAYER_2
 10
851.87524606
 20
407.25000000
 11
855.75000000
 21
411.12475394
  0
LINE
  8
LAYER_2
 10
824.50000000
 20
389.76919291
 11
828.62500000
 21
389.76993110
  0
LINE
  8
LAYER_2
  6
SMALL
 10
833.50000000
 20
389.75000000
 11
833.50000000
 21
388.87500000
  0
LINE
  8
LAYER_2
  6
SMALL
 10
832.00000000
 20
389.75000000
 11
832.00000000
 21
387.37500000
  0
LINE
  8
LAYER_2
  6
SMALL
 10
830.50000000
 20
389.75000000
 11
830.50000000
 21
386.12500000
  0
LINE
  8
LAYER_2
 10
882.50000000
 20
373.75000000
 11
882.50000000
 21
359.25000000
  0
LINE
  8
LAYER_2
 10
881.00000000
 20
373.75000000
 11
881.00000000
 21
359.25000000
  0
LINE
  8
LAYER_2
 10
879.50000000
 20
373.75000000
 11
879.50000000
 21
359.25000000
  0
LINE
  8
LAYER_2
 10
882.50000000
 20
357.75000000
 11
882.50000000
 21
350.62500000
  0
LINE
  8
LAYER_2
 10
881.00000000
 20
357.75000000
 11
881.00000000
 21
350.62500000
  0
LINE
  8
LAYER_2
 10
879.50000000
 20
357.75000000
 11
879.50000000
 21
350.62500000
  0
LINE
  8
LAYER_2
 10
882.50000000
 20
341.75000000
 11
882.50000000
 21
327.25000000
  0
LINE
  8
LAYER_2
 10
881.00000000
 20
341.75000000
 11
881.00000000
 21
327.25000000
  0
LINE
  8
LAYER_2
 10
879.50000000
 20
341.75000000
 11
879.50000000
 21
327.25000000
  0
LINE
  8
LAYER_2
 10
882.50000000
 20
325.87500000
 11
882.50000000
 21
311.25000000
  0
LINE
  8
LAYER_2
 10
881.00000000
 20
325.87500000
 11
881.00000000
 21
311.25000000
  0
LINE
  8
LAYER_2
 10
879.50000000
 20
325.87500000
 11
879.50000000
 21
311.25000000
  0
LINE
  8
LAYER_2
 10
830.50000000
 20
373.75000000
 11
830.50000000
 21
359.25000000
  0
LINE
  8
LAYER_2
 10
832.00000000
 20
373.75000000
 11
832.00000000
 21
359.25000000
  0
LINE
  8
LAYER_2
 10
833.50000000
 20
373.75000000
 11
833.50000000
 21
359.25000000
  0
LINE
  8
LAYER_2
 10
830.50000000
 20
357.75000000
 11
830.50000000
 21
350.62500000
  0
LINE
  8
LAYER_2
 10
832.00000000
 20
357.75000000
 11
832.00000000
 21
350.62500000
  0
LINE
  8
LAYER_2
 10
833.50000000
 20
357.75000000
 11
833.50000000
 21
350.62500000
  0
LINE
  8
LAYER_2
 10
830.50000000
 20
341.75000000
 11
830.50000000
 21
327.25000000
  0
LINE
  8
LAYER_2
 10
832.00000000
 20
341.75000000
 11
832.00000000
 21
327.25000000
  0
LINE
  8
LAYER_2
 10
833.50000000
 20
341.75000000
 11
833.50000000
 21
327.25000000
  0
LINE
  8
LAYER_2
 10
830.50000000
 20
325.75000000
 11
830.50000000
 21
311.25000000
  0
LINE
  8
LAYER_2
 10
832.00000000
 20
325.75000000
 11
832.00000000
 21
311.25000000
  0
LINE
  8
LAYER_2
 10
833.50000000
 20
325.75000000
 11
833.50000000
 21
311.25000000
  0
LINE
  8
LAYER_2
 10
830.50000000
 20
309.75000000
 11
830.50000000
 21
308.00000000
  0
LINE
  8
LAYER_2
 10
832.00000000
 20
309.75000000
 11
832.00000000
 21
308.00000000
  0
LINE
  8
LAYER_2
 10
833.50000000
 20
309.75000000
 11
833.50000000
 21
308.00000000
  0
LINE
  8
LAYER_2
 10
882.50000000
 20
309.75000000
 11
882.50000000
 21
308.00000000
  0
LINE
  8
LAYER_2
 10
881.00000000
 20
309.75000000
 11
881.00000000
 21
308.00000000
  0
LINE
  8
LAYER_2
 10
879.50000000
 20
309.75000000
 11
879.50000000
 21
308.00000000
  0
LINE
  8
LAYER_2
 10
820.00000000
 20
306.50000000
 11
893.00000000
 21
306.50000000
  0
LINE
  8
LAYER_2
 10
857.25000000
 20
308.00000000
 11
893.00000000
 21
308.00000000
  0
LINE
  8
LAYER_2
 10
820.00000000
 20
308.00000000
 11
855.75000000
 21
308.00000000
  0
LINE
  8
LAYER_2
 10
857.25000000
 20
345.00000000
 11
857.25000000
 21
294.50000000
  0
LINE
  8
LAYER_2
 10
855.75000000
 20
345.00000000
 11
855.75000000
 21
294.50000000
  0
LINE
  8
LAYER_2
 10
871.29896654
 20
296.01845472
 11
871.75000000
 21
296.02632874
  0
LINE
  8
LAYER_2
 10
872.37500000
 20
306.50000000
 11
872.37500000
 21
296.00000000
  0
LINE
  8
LAYER_2
 10
870.87500000
 20
306.50000000
 11
870.87500000
 21
296.00000000
  0
LINE
  8
LAYER_2
 10
841.04896654
 20
296.01845472
 11
841.50000000
 21
296.02632874
  0
LINE
  8
LAYER_2
 10
842.12500000
 20
306.50000000
 11
842.12500000
 21
296.00000000
  0
LINE
  8
LAYER_2
 10
840.62500000
 20
306.50000000
 11
840.62500000
 21
296.00000000
  0
LINE
  8
LAYER_2
 10
820.00024606
 20
375.37500000
 11
834.37500000
 21
389.74975394
  0
LINE
  8
LAYER_2
 10
835.87524606
 20
391.25000000
 11
850.37475394
 21
405.74975394
  0
LINE
  8
LAYER_2
 10
857.25000000
 20
411.12500000
 11
861.12500000
 21
407.25000000
  0
LINE
  8
LAYER_2
 10
683.50000000
 20
294.51968504
 11
759.50000000
 21
294.53297244
  0
LINE
  8
LAYER_2
 10
735.25000000
 20
294.52239173
 11
759.50000000
 21
294.51796260
  0
LINE
  8
LAYER_2
 10
683.50000000
 20
384.50000000
 11
683.50000000
 21
294.51796260
  0
LINE
  8
LAYER_2
 10
683.50000000
 20
294.51673228
 11
692.25000000
 21
294.51673228
  0
LINE
  8
LAYER_2
 10
747.62500000
 20
294.51673228
 11
759.50000000
 21
294.51673228
  0
LINE
  8
LAYER_2
 10
759.50000000
 20
384.01796260
 11
759.50000000
 21
294.51673228
  0
LINE
  8
LAYER_2
 10
758.00000000
 20
385.50000000
 11
758.00000000
 21
296.00000000
  0
LINE
  8
LAYER_2
 10
685.00000000
 20
386.00000000
 11
685.00000000
 21
296.00000000
  0
LINE
  8
LAYER_2
 10
735.25000000
 20
296.02239173
 11
758.00000000
 21
296.01845472
  0
LINE
  8
LAYER_2
 10
683.50000000
 20
296.02140748
 11
720.75000000
 21
296.02780512
  0
LINE
  8
LAYER_2
 10
685.00000000
 20
296.01673228
 11
697.12500000
 21
296.01673228
  0
LINE
  8
LAYER_2
 10
743.62500000
 20
389.75000000
 11
758.00000000
 21
375.37500000
  0
LINE
  8
LAYER_2
 10
683.50024606
 20
384.50000000
 11
720.62500000
 21
421.62500000
  0
LINE
  8
LAYER_2
 10
685.00000000
 20
341.76993110
 11
720.75000000
 21
341.77608268
  0
LINE
  8
LAYER_2
 10
748.75000000
 20
341.77017717
 11
758.00000000
 21
341.76845472
  0
LINE
  8
LAYER_2
 10
733.37500000
 20
341.77091535
 11
750.12500000
 21
341.76820866
  0
LINE
  8
LAYER_2
 10
695.50000000
 20
341.77017717
 11
695.50000000
 21
341.76673228
  0
LINE
  8
LAYER_2
 10
697.00000000
 20
341.77017717
 11
697.00000000
 21
341.76673228
  0
LINE
  8
LAYER_2
 10
685.00000000
 20
343.26993110
 11
720.75000000
 21
343.27608268
  0
LINE
  8
LAYER_2
 10
733.37500000
 20
343.27091535
 11
758.00000000
 21
343.26673228
  0
LINE
  8
LAYER_2
 10
685.00000000
 20
343.26673228
 11
697.00000000
 21
343.26673228
  0
LINE
  8
LAYER_2
 10
685.00000000
 20
325.76993110
 11
720.75000000
 21
325.77608268
  0
LINE
  8
LAYER_2
 10
733.37500000
 20
325.77091535
 11
747.50000000
 21
325.76845472
  0
LINE
  8
LAYER_2
 10
697.00000000
 20
325.77017717
 11
697.00000000
 21
325.76673228
  0
LINE
  8
LAYER_2
 10
685.00000000
 20
325.76673228
 11
692.50000000
 21
325.76673228
  0
LINE
  8
LAYER_2
 10
685.00000000
 20
327.26993110
 11
720.75000000
 21
327.27608268
  0
LINE
  8
LAYER_2
 10
733.37500000
 20
327.27263780
 11
758.00000000
 21
327.26845472
  0
LINE
  8
LAYER_2
 10
733.37500000
 20
327.27091535
 11
747.50000000
 21
327.26845472
  0
LINE
  8
LAYER_2
 10
685.00000000
 20
327.26673228
 11
697.00000000
 21
327.26673228
  0
LINE
  8
LAYER_2
 10
685.00000000
 20
309.76993110
 11
720.75000000
 21
309.77608268
  0
LINE
  8
LAYER_2
 10
733.37500000
 20
309.77263780
 11
758.00000000
 21
309.76845472
  0
LINE
  8
LAYER_2
 10
733.37500000
 20
309.77091535
 11
747.50000000
 21
309.76845472
  0
LINE
  8
LAYER_2
 10
695.50000000
 20
309.87500000
 11
695.50000000
 21
308.00000000
  0
LINE
  8
LAYER_2
 10
747.50000000
 20
309.87500000
 11
747.50000000
 21
308.00000000
  0
LINE
  8
LAYER_2
 10
697.00000000
 20
309.87500000
 11
697.00000000
 21
308.00000000
  0
LINE
  8
LAYER_2
 10
685.00000000
 20
309.76673228
 11
697.00000000
 21
309.76673228
  0
LINE
  8
LAYER_2
 10
720.21432087
 20
311.26673228
 11
685.00000000
 21
311.26993110
  0
LINE
  8
LAYER_2
 10
733.37500000
 20
311.27263780
 11
758.00000000
 21
311.26845472
  0
LINE
  8
LAYER_2
 10
733.37500000
 20
311.27091535
 11
747.50000000
 21
311.26845472
  0
LINE
  8
LAYER_2
 10
685.00000000
 20
357.76993110
 11
720.75000000
 21
357.77608268
  0
LINE
  8
LAYER_2
 10
733.37500000
 20
357.77263780
 11
758.00000000
 21
357.76845472
  0
LINE
  8
LAYER_2
 10
733.37500000
 20
357.77091535
 11
747.50000000
 21
357.76845472
  0
LINE
  8
LAYER_2
 10
695.50000000
 20
357.77017717
 11
695.50000000
 21
357.76673228
  0
LINE
  8
LAYER_2
 10
747.50000000
 20
357.77017717
 11
747.50000000
 21
357.76673228
  0
LINE
  8
LAYER_2
 10
697.00000000
 20
357.77017717
 11
697.00000000
 21
357.76673228
  0
LINE
  8
LAYER_2
 10
733.37500000
 20
359.27263780
 11
758.00000000
 21
359.26845472
  0
LINE
  8
LAYER_2
 10
733.37500000
 20
359.27091535
 11
747.50000000
 21
359.26845472
  0
LINE
  8
LAYER_2
 10
685.00000000
 20
359.26993110
 11
720.75000000
 21
359.27608268
  0
LINE
  8
LAYER_2
 10
685.00000000
 20
359.26673228
 11
697.00000000
 21
359.26673228
  0
LINE
  8
LAYER_2
 10
685.00000000
 20
373.77165354
 11
720.75000000
 21
373.77780512
  0
LINE
  8
LAYER_2
 10
733.37500000
 20
373.77263780
 11
758.00000000
 21
373.76845472
  0
LINE
  8
LAYER_2
 10
733.37500000
 20
373.77091535
 11
747.50000000
 21
373.76845472
  0
LINE
  8
LAYER_2
 10
695.50000000
 20
373.77017717
 11
695.50000000
 21
373.76673228
  0
LINE
  8
LAYER_2
 10
747.50000000
 20
373.77017717
 11
747.50000000
 21
373.76673228
  0
LINE
  8
LAYER_2
 10
697.00000000
 20
373.77017717
 11
697.00000000
 21
373.76673228
  0
LINE
  8
LAYER_2
 10
685.00000000
 20
375.26993110
 11
720.75000000
 21
375.27608268
  0
LINE
  8
LAYER_2
 10
733.37500000
 20
375.27263780
 11
758.00000000
 21
375.26845472
  0
LINE
  8
LAYER_2
 10
733.37500000
 20
375.27091535
 11
747.50000000
 21
375.26845472
  0
LINE
  8
LAYER_2
 10
685.00000000
 20
375.26673228
 11
697.00000000
 21
375.26673228
  0
LINE
  8
LAYER_2
 10
688.87500000
 20
389.77239173
 11
692.12500000
 21
389.77288386
  0
LINE
  8
LAYER_2
 10
733.37500000
 20
389.77091535
 11
753.75000000
 21
389.76747047
  0
LINE
  8
LAYER_2
 10
690.37500000
 20
391.27091535
 11
720.75000000
 21
391.27608268
  0
LINE
  8
LAYER_2
 10
733.37500000
 20
391.27263780
 11
752.37500000
 21
391.26943898
  0
LINE
  8
LAYER_2
 10
733.37500000
 20
391.27091535
 11
747.50000000
 21
391.26845472
  0
LINE
  8
LAYER_2
 10
704.75000000
 20
405.77509843
 11
720.75000000
 21
405.77780512
  0
LINE
  8
LAYER_2
 10
733.37500000
 20
405.77263780
 11
738.12500000
 21
405.77189961
  0
LINE
  8
LAYER_2
 10
706.25000000
 20
407.27534449
 11
720.75000000
 21
407.27780512
  0
LINE
  8
LAYER_2
 10
733.37500000
 20
407.26254921
 11
736.62500000
 21
407.26082677
  0
LINE
  8
LAYER_2
 10
747.50000000
 20
429.00000000
 11
747.50000000
 21
375.25000000
  0
LINE
  8
LAYER_2
 10
746.00000000
 20
429.00000000
 11
746.00000000
 21
397.62500000
  0
LINE
  8
LAYER_2
 10
744.50000000
 20
429.00000000
 11
744.50000000
 21
399.25000000
  0
LINE
  8
LAYER_2
 10
695.50000000
 20
429.12500000
 11
695.50000000
 21
375.25000000
  0
LINE
  8
LAYER_2
 10
697.00000000
 20
429.12500000
 11
697.00000000
 21
397.37500000
  0
LINE
  8
LAYER_2
 10
698.50000000
 20
325.77017717
 11
698.50000000
 21
325.76673228
  0
LINE
  8
LAYER_2
 10
698.50000000
 20
309.87500000
 11
698.50000000
 21
308.00000000
  0
LINE
  8
LAYER_2
 10
698.50000000
 20
429.12500000
 11
698.50000000
 21
398.87500000
  0
LINE
  8
LAYER_2
 10
683.62500000
 20
294.51796260
 11
692.25000000
 21
294.51943898
  0
LINE
  8
LAYER_2
  6
SMALL
 10
734.50000000
 20
398.87500000
 11
744.50000000
 21
398.87500000
  0
LINE
  8
LAYER_2
  6
SMALL
 10
736.00000000
 20
397.37500000
 11
744.50000000
 21
397.37500000
  0
LINE
  8
LAYER_2
  6
SMALL
 10
737.50000000
 20
395.87500000
 11
744.50000000
 21
395.87500000
  0
LINE
  8
LAYER_2
  6
SMALL
 10
747.50000000
 20
396.25000000
 11
747.50000000
 21
391.25000000
  0
LINE
  8
LAYER_2
  6
SMALL
 10
746.00000000
 20
397.75000000
 11
746.00000000
 21
391.25000000
  0
LINE
  8
LAYER_2
  6
SMALL
 10
744.50000000
 20
399.25000000
 11
744.50000000
 21
391.25000000
  0
LINE
  8
LAYER_2
 10
746.00000000
 20
387.37500000
 11
746.00000000
 21
375.25000000
  0
LINE
  8
LAYER_2
 10
744.50000000
 20
388.87500000
 11
744.50000000
 21
375.25000000
  0
LINE
  8
LAYER_2
 10
722.25000000
 20
296.02805118
 11
752.37500000
 21
296.02263780
  0
LINE
  8
LAYER_2
 10
722.25000000
 20
296.02632874
 11
752.37500000
 21
296.02091535
  0
LINE
  8
LAYER_2
 10
722.25000000
 20
296.02780512
 11
752.37500000
 21
296.01254921
  0
LINE
  8
LAYER_2
 10
727.50000000
 20
405.87500000
 11
742.12500000
 21
391.25000000
  0
LINE
  8
LAYER_2
 10
722.36934055
 20
421.62500000
 11
759.50000000
 21
384.00000000
  0
LINE
  8
LAYER_2
 10
722.25000000
 20
341.77780512
 11
752.37500000
 21
341.77263780
  0
LINE
  8
LAYER_2
 10
722.25000000
 20
341.77608268
 11
752.37500000
 21
341.77091535
  0
LINE
  8
LAYER_2
 10
722.25000000
 20
343.27780512
 11
752.37500000
 21
343.27263780
  0
LINE
  8
LAYER_2
 10
722.25000000
 20
343.27608268
 11
752.37500000
 21
343.27091535
  0
LINE
  8
LAYER_2
 10
722.25000000
 20
343.27755906
 11
752.37500000
 21
343.26254921
  0
LINE
  8
LAYER_2
 10
722.25000000
 20
325.77780512
 11
752.37500000
 21
325.77263780
  0
LINE
  8
LAYER_2
 10
722.25000000
 20
325.77608268
 11
752.37500000
 21
325.77091535
  0
LINE
  8
LAYER_2
 10
722.25000000
 20
327.27780512
 11
752.37500000
 21
327.27263780
  0
LINE
  8
LAYER_2
 10
722.25000000
 20
327.27608268
 11
752.37500000
 21
327.27091535
  0
LINE
  8
LAYER_2
 10
722.25000000
 20
327.27755906
 11
752.37500000
 21
327.26254921
  0
LINE
  8
LAYER_2
 10
722.25000000
 20
309.77780512
 11
752.37500000
 21
309.77263780
  0
LINE
  8
LAYER_2
 10
722.25000000
 20
309.77608268
 11
752.37500000
 21
309.77091535
  0
LINE
  8
LAYER_2
 10
722.25000000
 20
311.27780512
 11
752.37500000
 21
311.27263780
  0
LINE
  8
LAYER_2
 10
722.25000000
 20
311.27608268
 11
752.37500000
 21
311.27091535
  0
LINE
  8
LAYER_2
 10
722.25000000
 20
311.27755906
 11
752.37500000
 21
311.26254921
  0
LINE
  8
LAYER_2
 10
722.25000000
 20
357.77780512
 11
752.37500000
 21
357.77263780
  0
LINE
  8
LAYER_2
 10
722.25000000
 20
357.77608268
 11
752.37500000
 21
357.77091535
  0
LINE
  8
LAYER_2
 10
722.25000000
 20
359.27780512
 11
752.37500000
 21
359.27263780
  0
LINE
  8
LAYER_2
 10
722.25000000
 20
359.27608268
 11
752.37500000
 21
359.27091535
  0
LINE
  8
LAYER_2
 10
722.25000000
 20
359.27755906
 11
752.37500000
 21
359.26254921
  0
LINE
  8
LAYER_2
 10
722.25000000
 20
373.77780512
 11
752.37500000
 21
373.77263780
  0
LINE
  8
LAYER_2
 10
722.25000000
 20
373.77608268
 11
752.37500000
 21
373.77091535
  0
LINE
  8
LAYER_2
 10
722.25000000
 20
375.27780512
 11
752.37500000
 21
375.27263780
  0
LINE
  8
LAYER_2
 10
722.25000000
 20
375.27608268
 11
752.37500000
 21
375.27091535
  0
LINE
  8
LAYER_2
 10
722.25000000
 20
375.27755906
 11
752.37500000
 21
375.26254921
  0
LINE
  8
LAYER_2
 10
722.25000000
 20
389.77608268
 11
752.37500000
 21
389.77091535
  0
LINE
  8
LAYER_2
 10
722.25000000
 20
391.27780512
 11
752.37500000
 21
391.27263780
  0
LINE
  8
LAYER_2
 10
722.25000000
 20
391.27608268
 11
752.37500000
 21
391.27091535
  0
LINE
  8
LAYER_2
 10
722.25000000
 20
405.77780512
 11
738.00000000
 21
405.77509843
  0
LINE
  8
LAYER_2
 10
722.25000000
 20
407.27755906
 11
736.50000000
 21
407.27042323
  0
LINE
  8
LAYER_2
 10
722.25000000
 20
398.87500000
 11
734.50000000
 21
398.87500000
  0
LINE
  8
LAYER_2
 10
722.25000000
 20
397.37500000
 11
736.00000000
 21
397.37500000
  0
LINE
  8
LAYER_2
 10
733.37500000
 20
341.77263780
 11
743.50000000
 21
341.77091535
  0
LINE
  8
LAYER_2
 10
733.37500000
 20
343.27263780
 11
735.25000000
 21
343.27239173
  0
LINE
  8
LAYER_2
 10
733.37500000
 20
343.26254921
 11
735.25000000
 21
343.26156496
  0
LINE
  8
LAYER_2
 10
733.37500000
 20
325.77263780
 11
758.00000000
 21
325.76845472
  0
LINE
  8
LAYER_2
 10
733.37500000
 20
327.26254921
 11
735.25000000
 21
327.26156496
  0
LINE
  8
LAYER_2
 10
733.37500000
 20
311.26254921
 11
735.25000000
 21
311.26156496
  0
LINE
  8
LAYER_2
 10
733.37500000
 20
359.26254921
 11
735.25000000
 21
359.26156496
  0
LINE
  8
LAYER_2
 10
733.37500000
 20
375.26254921
 11
735.25000000
 21
375.26156496
  0
LINE
  8
LAYER_2
 10
722.25000000
 20
395.87500000
 11
737.50000000
 21
395.87500000
  0
LINE
  8
LAYER_2
  6
SMALL
 10
747.50000000
 20
389.75000000
 11
747.50000000
 21
385.87500000
  0
LINE
  8
LAYER_2
  6
SMALL
 10
746.00000000
 20
389.75000000
 11
746.00000000
 21
387.37500000
  0
LINE
  8
LAYER_2
  6
SMALL
 10
744.50000000
 20
389.75000000
 11
744.50000000
 21
388.87500000
  0
LINE
  8
LAYER_2
 10
708.50000000
 20
398.87500000
 11
720.75000000
 21
398.87500000
  0
LINE
  8
LAYER_2
 10
707.00000000
 20
397.37500000
 11
720.75000000
 21
397.37500000
  0
LINE
  8
LAYER_2
 10
705.50000000
 20
395.87500000
 11
720.75000000
 21
395.87500000
  0
LINE
  8
LAYER_2
  6
SMALL
 10
698.50000000
 20
398.87500000
 11
708.50000000
 21
398.87500000
  0
LINE
  8
LAYER_2
  6
SMALL
 10
698.50000000
 20
397.37500000
 11
706.87500000
 21
397.37500000
  0
LINE
  8
LAYER_2
  6
SMALL
 10
698.50000000
 20
395.87500000
 11
705.50000000
 21
395.87500000
  0
LINE
  8
LAYER_2
  6
SMALL
 10
698.50000000
 20
398.75000000
 11
698.50000000
 21
391.25000000
  0
LINE
  8
LAYER_2
  6
SMALL
 10
697.00000000
 20
397.37500000
 11
697.00000000
 21
391.25000000
  0
LINE
  8
LAYER_2
  6
SMALL
 10
695.50000000
 20
395.87500000
 11
695.50000000
 21
391.25000000
  0
LINE
  8
LAYER_2
 10
697.00000000
 20
387.37500000
 11
697.00000000
 21
375.25000000
  0
LINE
  8
LAYER_2
 10
698.50000000
 20
388.87500000
 11
698.50000000
 21
375.25000000
  0
LINE
  8
LAYER_2
 10
716.87524606
 20
407.25000000
 11
720.75000000
 21
411.12475394
  0
LINE
  8
LAYER_2
 10
689.50000000
 20
389.76919291
 11
692.12500000
 21
389.76968504
  0
LINE
  8
LAYER_2
  6
SMALL
 10
698.50000000
 20
389.75000000
 11
698.50000000
 21
388.87500000
  0
LINE
  8
LAYER_2
  6
SMALL
 10
697.00000000
 20
389.75000000
 11
697.00000000
 21
387.37500000
  0
LINE
  8
LAYER_2
  6
SMALL
 10
695.50000000
 20
389.75000000
 11
695.50000000
 21
386.12500000
  0
LINE
  8
LAYER_2
 10
747.50000000
 20
373.75000000
 11
747.50000000
 21
359.25000000
  0
LINE
  8
LAYER_2
 10
746.00000000
 20
373.75000000
 11
746.00000000
 21
359.25000000
  0
LINE
  8
LAYER_2
 10
744.50000000
 20
373.75000000
 11
744.50000000
 21
359.25000000
  0
LINE
  8
LAYER_2
 10
747.50000000
 20
357.75000000
 11
747.50000000
 21
352.00000000
  0
LINE
  8
LAYER_2
 10
746.00000000
 20
357.75000000
 11
746.00000000
 21
352.00000000
  0
LINE
  8
LAYER_2
 10
744.50000000
 20
357.75000000
 11
744.50000000
 21
352.00000000
  0
LINE
  8
LAYER_2
 10
747.50000000
 20
341.75000000
 11
747.50000000
 21
327.25000000
  0
LINE
  8
LAYER_2
 10
746.00000000
 20
341.75000000
 11
746.00000000
 21
327.25000000
  0
LINE
  8
LAYER_2
 10
744.50000000
 20
341.75000000
 11
744.50000000
 21
327.25000000
  0
LINE
  8
LAYER_2
 10
747.50000000
 20
325.87500000
 11
747.50000000
 21
311.25000000
  0
LINE
  8
LAYER_2
 10
746.00000000
 20
325.87500000
 11
746.00000000
 21
311.25000000
  0
LINE
  8
LAYER_2
 10
744.50000000
 20
325.87500000
 11
744.50000000
 21
311.25000000
  0
LINE
  8
LAYER_2
 10
695.50000000
 20
373.75000000
 11
695.50000000
 21
359.25000000
  0
LINE
  8
LAYER_2
 10
697.00000000
 20
373.75000000
 11
697.00000000
 21
359.25000000
  0
LINE
  8
LAYER_2
 10
698.50000000
 20
373.75000000
 11
698.50000000
 21
359.25000000
  0
LINE
  8
LAYER_2
 10
695.50000000
 20
357.75000000
 11
695.50000000
 21
352.00000000
  0
LINE
  8
LAYER_2
 10
697.00000000
 20
357.75000000
 11
697.00000000
 21
352.00000000
  0
LINE
  8
LAYER_2
 10
698.50000000
 20
357.75000000
 11
698.50000000
 21
352.00000000
  0
LINE
  8
LAYER_2
 10
695.50000000
 20
341.75000000
 11
695.50000000
 21
327.25000000
  0
LINE
  8
LAYER_2
 10
697.00000000
 20
341.75000000
 11
697.00000000
 21
327.25000000
  0
LINE
  8
LAYER_2
 10
698.50000000
 20
341.75000000
 11
698.50000000
 21
327.25000000
  0
LINE
  8
LAYER_2
 10
695.50000000
 20
325.75000000
 11
695.50000000
 21
311.25000000
  0
LINE
  8
LAYER_2
 10
697.00000000
 20
325.75000000
 11
697.00000000
 21
311.25000000
  0
LINE
  8
LAYER_2
 10
698.50000000
 20
325.75000000
 11
698.50000000
 21
311.25000000
  0
LINE
  8
LAYER_2
 10
685.00000000
 20
306.50000000
 11
758.00000000
 21
306.50000000
  0
LINE
  8
LAYER_2
 10
722.25000000
 20
308.00000000
 11
758.00000000
 21
308.00000000
  0
LINE
  8
LAYER_2
 10
685.00000000
 20
308.00000000
 11
720.75000000
 21
308.00000000
  0
LINE
  8
LAYER_2
 10
722.25000000
 20
344.75000000
 11
722.25000000
 21
294.50000000
  0
LINE
  8
LAYER_2
 10
720.75000000
 20
344.75000000
 11
720.75000000
 21
294.50000000
  0
LINE
  8
LAYER_2
 10
736.29896654
 20
296.01845472
 11
736.75000000
 21
296.02632874
  0
LINE
  8
LAYER_2
 10
737.37500000
 20
306.50000000
 11
737.37500000
 21
296.00000000
  0
LINE
  8
LAYER_2
 10
735.87500000
 20
306.50000000
 11
735.87500000
 21
296.00000000
  0
LINE
  8
LAYER_2
 10
706.04896654
 20
296.01845472
 11
706.50000000
 21
296.02632874
  0
LINE
  8
LAYER_2
 10
707.12500000
 20
306.50000000
 11
707.12500000
 21
296.00000000
  0
LINE
  8
LAYER_2
 10
705.62500000
 20
306.50000000
 11
705.62500000
 21
296.00000000
  0
LINE
  8
LAYER_2
 10
685.00024606
 20
375.37500000
 11
699.50024606
 21
389.87500000
  0
LINE
  8
LAYER_2
 10
700.87524606
 20
391.25000000
 11
715.50024606
 21
405.87500000
  0
LINE
  8
LAYER_2
 10
722.25000000
 20
411.12500000
 11
726.12500000
 21
407.25000000
  0
LINE
  8
LAYER_2
 10
548.62500000
 20
294.51993110
 11
624.50000000
 21
294.53297244
  0
LINE
  8
LAYER_2
 10
613.12500000
 20
294.51993110
 11
624.50000000
 21
294.51796260
  0
LINE
  8
LAYER_2
 10
548.50000000
 20
384.50000000
 11
548.50000000
 21
294.51796260
  0
LINE
  8
LAYER_2
 10
587.25000000
 20
421.75000000
 11
587.25000000
 21
350.37500000
  0
LINE
  8
LAYER_2
 10
613.12500000
 20
294.51673228
 11
624.50000000
 21
294.51673228
  0
LINE
  8
LAYER_2
 10
624.50000000
 20
384.01796260
 11
624.50000000
 21
294.51673228
  0
LINE
  8
LAYER_2
 10
623.00000000
 20
385.50000000
 11
623.00000000
 21
296.00000000
  0
LINE
  8
LAYER_2
 10
550.00000000
 20
386.00000000
 11
550.00000000
 21
296.00000000
  0
LINE
  8
LAYER_2
 10
600.25000000
 20
296.02239173
 11
623.00000000
 21
296.01845472
  0
LINE
  8
LAYER_2
 10
548.50000000
 20
296.02140748
 11
585.75000000
 21
296.02780512
  0
LINE
  8
LAYER_2
 10
550.00000000
 20
296.01673228
 11
562.12500000
 21
296.01673228
  0
LINE
  8
LAYER_2
 10
585.75000000
 20
421.75000000
 11
585.75000000
 21
350.37500000
  0
LINE
  8
LAYER_2
 10
608.62500000
 20
389.75000000
 11
623.00000000
 21
375.37500000
  0
LINE
  8
LAYER_2
 10
548.50024606
 20
384.50000000
 11
585.75000000
 21
421.75000000
  0
LINE
  8
LAYER_2
 10
550.00000000
 20
341.76993110
 11
585.75000000
 21
341.77608268
  0
LINE
  8
LAYER_2
 10
613.75000000
 20
341.77017717
 11
623.00000000
 21
341.76845472
  0
LINE
  8
LAYER_2
 10
598.37500000
 20
341.77091535
 11
615.12500000
 21
341.76820866
  0
LINE
  8
LAYER_2
 10
560.50000000
 20
341.77017717
 11
560.50000000
 21
341.76673228
  0
LINE
  8
LAYER_2
 10
562.00000000
 20
341.77017717
 11
562.00000000
 21
341.76673228
  0
LINE
  8
LAYER_2
 10
550.00000000
 20
343.26993110
 11
585.75000000
 21
343.27608268
  0
LINE
  8
LAYER_2
 10
598.37500000
 20
343.27091535
 11
623.00000000
 21
343.26673228
  0
LINE
  8
LAYER_2
 10
550.00000000
 20
343.26673228
 11
562.00000000
 21
343.26673228
  0
LINE
  8
LAYER_2
 10
550.00000000
 20
325.76993110
 11
585.75000000
 21
325.77608268
  0
LINE
  8
LAYER_2
 10
598.37500000
 20
325.77091535
 11
612.50000000
 21
325.76845472
  0
LINE
  8
LAYER_2
 10
560.50000000
 20
325.77017717
 11
560.50000000
 21
325.76673228
  0
LINE
  8
LAYER_2
 10
562.00000000
 20
325.77017717
 11
562.00000000
 21
325.76673228
  0
LINE
  8
LAYER_2
 10
550.00000000
 20
325.76673228
 11
562.00000000
 21
325.76673228
  0
LINE
  8
LAYER_2
 10
550.00000000
 20
327.26993110
 11
585.75000000
 21
327.27608268
  0
LINE
  8
LAYER_2
 10
598.37500000
 20
327.27263780
 11
623.00000000
 21
327.26845472
  0
LINE
  8
LAYER_2
 10
598.37500000
 20
327.27091535
 11
612.50000000
 21
327.26845472
  0
LINE
  8
LAYER_2
 10
550.00000000
 20
327.26673228
 11
562.00000000
 21
327.26673228
  0
LINE
  8
LAYER_2
 10
550.00000000
 20
309.76993110
 11
585.75000000
 21
309.77608268
  0
LINE
  8
LAYER_2
 10
598.37500000
 20
309.77263780
 11
623.00000000
 21
309.76845472
  0
LINE
  8
LAYER_2
 10
598.37500000
 20
309.77091535
 11
612.50000000
 21
309.76845472
  0
LINE
  8
LAYER_2
 10
560.50000000
 20
309.87500000
 11
560.50000000
 21
308.00000000
  0
LINE
  8
LAYER_2
 10
612.50000000
 20
309.87500000
 11
612.50000000
 21
308.00000000
  0
LINE
  8
LAYER_2
 10
562.00000000
 20
309.87500000
 11
562.00000000
 21
308.00000000
  0
LINE
  8
LAYER_2
 10
550.00000000
 20
309.76673228
 11
562.00000000
 21
309.76673228
  0
LINE
  8
LAYER_2
 10
585.21432087
 20
311.26673228
 11
550.00000000
 21
311.26993110
  0
LINE
  8
LAYER_2
 10
598.37500000
 20
311.27263780
 11
623.00000000
 21
311.26845472
  0
LINE
  8
LAYER_2
 10
598.37500000
 20
311.27091535
 11
612.50000000
 21
311.26845472
  0
LINE
  8
LAYER_2
 10
550.00000000
 20
357.76993110
 11
585.75000000
 21
357.77608268
  0
LINE
  8
LAYER_2
 10
598.37500000
 20
357.77263780
 11
623.00000000
 21
357.76845472
  0
LINE
  8
LAYER_2
 10
598.37500000
 20
357.77091535
 11
612.50000000
 21
357.76845472
  0
LINE
  8
LAYER_2
 10
560.50000000
 20
357.77017717
 11
560.50000000
 21
357.76673228
  0
LINE
  8
LAYER_2
 10
612.50000000
 20
357.77017717
 11
612.50000000
 21
357.76673228
  0
LINE
  8
LAYER_2
 10
562.00000000
 20
357.77017717
 11
562.00000000
 21
357.76673228
  0
LINE
  8
LAYER_2
 10
598.37500000
 20
359.27263780
 11
623.00000000
 21
359.26845472
  0
LINE
  8
LAYER_2
 10
598.37500000
 20
359.27091535
 11
612.50000000
 21
359.26845472
  0
LINE
  8
LAYER_2
 10
550.00000000
 20
359.26993110
 11
585.75000000
 21
359.27608268
  0
LINE
  8
LAYER_2
 10
550.00000000
 20
359.26673228
 11
562.00000000
 21
359.26673228
  0
LINE
  8
LAYER_2
 10
550.00000000
 20
373.77165354
 11
585.75000000
 21
373.77780512
  0
LINE
  8
LAYER_2
 10
598.37500000
 20
373.77263780
 11
623.00000000
 21
373.76845472
  0
LINE
  8
LAYER_2
 10
598.37500000
 20
373.77091535
 11
612.50000000
 21
373.76845472
  0
LINE
  8
LAYER_2
 10
560.50000000
 20
373.77017717
 11
560.50000000
 21
373.76673228
  0
LINE
  8
LAYER_2
 10
612.50000000
 20
373.77017717
 11
612.50000000
 21
373.76673228
  0
LINE
  8
LAYER_2
 10
562.00000000
 20
373.77017717
 11
562.00000000
 21
373.76673228
  0
LINE
  8
LAYER_2
 10
550.00000000
 20
375.26993110
 11
585.75000000
 21
375.27608268
  0
LINE
  8
LAYER_2
 10
598.37500000
 20
375.27263780
 11
623.00000000
 21
375.26845472
  0
LINE
  8
LAYER_2
 10
598.37500000
 20
375.27091535
 11
612.50000000
 21
375.26845472
  0
LINE
  8
LAYER_2
 10
550.00000000
 20
375.26673228
 11
562.00000000
 21
375.26673228
  0
LINE
  8
LAYER_2
 10
553.87500000
 20
389.77239173
 11
585.75000000
 21
389.77780512
  0
LINE
  8
LAYER_2
 10
598.37500000
 20
389.77091535
 11
618.75000000
 21
389.76747047
  0
LINE
  8
LAYER_2
 10
555.37500000
 20
391.27091535
 11
585.75000000
 21
391.27608268
  0
LINE
  8
LAYER_2
 10
598.37500000
 20
391.27263780
 11
617.37500000
 21
391.26943898
  0
LINE
  8
LAYER_2
 10
598.37500000
 20
391.27091535
 11
612.50000000
 21
391.26845472
  0
LINE
  8
LAYER_2
 10
569.75000000
 20
405.77509843
 11
585.75000000
 21
405.77780512
  0
LINE
  8
LAYER_2
 10
598.37500000
 20
405.77263780
 11
603.12500000
 21
405.77189961
  0
LINE
  8
LAYER_2
 10
571.25000000
 20
407.27534449
 11
585.75000000
 21
407.27780512
  0
LINE
  8
LAYER_2
 10
598.37500000
 20
407.26254921
 11
601.62500000
 21
407.26082677
  0
LINE
  8
LAYER_2
 10
612.50000000
 20
429.00000000
 11
612.50000000
 21
375.25000000
  0
LINE
  8
LAYER_2
 10
611.00000000
 20
429.00000000
 11
611.00000000
 21
392.12500000
  0
LINE
  8
LAYER_2
 10
609.50000000
 20
429.00000000
 11
609.50000000
 21
389.62500000
  0
LINE
  8
LAYER_2
 10
560.50000000
 20
429.12500000
 11
560.50000000
 21
375.25000000
  0
LINE
  8
LAYER_2
 10
562.00000000
 20
429.12500000
 11
562.00000000
 21
397.37500000
  0
LINE
  8
LAYER_2
 10
563.50000000
 20
325.77017717
 11
563.50000000
 21
325.76673228
  0
LINE
  8
LAYER_2
 10
563.50000000
 20
309.87500000
 11
563.50000000
 21
308.00000000
  0
LINE
  8
LAYER_2
 10
563.50000000
 20
429.12500000
 11
563.50000000
 21
398.87500000
  0
LINE
  8
LAYER_2
  6
SMALL
 10
599.50000000
 20
398.87500000
 11
609.50000000
 21
398.87500000
  0
LINE
  8
LAYER_2
  6
SMALL
 10
601.00000000
 20
397.37500000
 11
609.50000000
 21
397.37500000
  0
LINE
  8
LAYER_2
  6
SMALL
 10
602.50000000
 20
395.87500000
 11
609.50000000
 21
395.87500000
  0
LINE
  8
LAYER_2
  6
SMALL
 10
612.50000000
 20
396.25000000
 11
612.50000000
 21
391.25000000
  0
LINE
  8
LAYER_2
  6
SMALL
 10
611.00000000
 20
397.75000000
 11
611.00000000
 21
391.25000000
  0
LINE
  8
LAYER_2
  6
SMALL
 10
609.50000000
 20
399.25000000
 11
609.50000000
 21
391.25000000
  0
LINE
  8
LAYER_2
 10
611.00000000
 20
387.37500000
 11
611.00000000
 21
375.25000000
  0
LINE
  8
LAYER_2
 10
609.50000000
 20
388.87500000
 11
609.50000000
 21
375.25000000
  0
LINE
  8
LAYER_2
 10
587.25000000
 20
296.02805118
 11
617.37500000
 21
296.02263780
  0
LINE
  8
LAYER_2
 10
587.25000000
 20
296.02632874
 11
617.37500000
 21
296.02091535
  0
LINE
  8
LAYER_2
 10
587.25000000
 20
296.02780512
 11
617.37500000
 21
296.01254921
  0
LINE
  8
LAYER_2
 10
592.50000000
 20
405.87500000
 11
607.12500000
 21
391.25000000
  0
LINE
  8
LAYER_2
 10
587.24606299
 20
421.75000000
 11
624.50000000
 21
384.00000000
  0
LINE
  8
LAYER_2
 10
587.25000000
 20
341.77780512
 11
617.37500000
 21
341.77263780
  0
LINE
  8
LAYER_2
 10
587.25000000
 20
341.77608268
 11
617.37500000
 21
341.77091535
  0
LINE
  8
LAYER_2
 10
587.25000000
 20
343.27780512
 11
617.37500000
 21
343.27263780
  0
LINE
  8
LAYER_2
 10
587.25000000
 20
343.27608268
 11
617.37500000
 21
343.27091535
  0
LINE
  8
LAYER_2
 10
587.25000000
 20
343.27755906
 11
617.37500000
 21
343.26254921
  0
LINE
  8
LAYER_2
 10
587.25000000
 20
325.77780512
 11
617.37500000
 21
325.77263780
  0
LINE
  8
LAYER_2
 10
587.25000000
 20
325.77608268
 11
617.37500000
 21
325.77091535
  0
LINE
  8
LAYER_2
 10
587.25000000
 20
327.27780512
 11
617.37500000
 21
327.27263780
  0
LINE
  8
LAYER_2
 10
587.25000000
 20
327.27608268
 11
617.37500000
 21
327.27091535
  0
LINE
  8
LAYER_2
 10
587.25000000
 20
327.27755906
 11
617.37500000
 21
327.26254921
  0
LINE
  8
LAYER_2
 10
587.25000000
 20
309.77780512
 11
617.37500000
 21
309.77263780
  0
LINE
  8
LAYER_2
 10
587.25000000
 20
309.77608268
 11
617.37500000
 21
309.77091535
  0
LINE
  8
LAYER_2
 10
587.25000000
 20
311.27780512
 11
617.37500000
 21
311.27263780
  0
LINE
  8
LAYER_2
 10
587.25000000
 20
311.27608268
 11
617.37500000
 21
311.27091535
  0
LINE
  8
LAYER_2
 10
587.25000000
 20
311.27755906
 11
617.37500000
 21
311.26254921
  0
LINE
  8
LAYER_2
 10
587.25000000
 20
357.77780512
 11
617.37500000
 21
357.77263780
  0
LINE
  8
LAYER_2
 10
587.25000000
 20
357.77608268
 11
617.37500000
 21
357.77091535
  0
LINE
  8
LAYER_2
 10
587.25000000
 20
359.27780512
 11
617.37500000
 21
359.27263780
  0
LINE
  8
LAYER_2
 10
587.25000000
 20
359.27608268
 11
617.37500000
 21
359.27091535
  0
LINE
  8
LAYER_2
 10
587.25000000
 20
359.27755906
 11
617.37500000
 21
359.26254921
  0
LINE
  8
LAYER_2
 10
587.25000000
 20
373.77780512
 11
617.37500000
 21
373.77263780
  0
LINE
  8
LAYER_2
 10
587.25000000
 20
373.77608268
 11
617.37500000
 21
373.77091535
  0
LINE
  8
LAYER_2
 10
587.25000000
 20
375.27780512
 11
617.37500000
 21
375.27263780
  0
LINE
  8
LAYER_2
 10
587.25000000
 20
375.27608268
 11
617.37500000
 21
375.27091535
  0
LINE
  8
LAYER_2
 10
587.25000000
 20
375.27755906
 11
617.37500000
 21
375.26254921
  0
LINE
  8
LAYER_2
 10
587.25000000
 20
389.77608268
 11
617.37500000
 21
389.77091535
  0
LINE
  8
LAYER_2
 10
587.25000000
 20
391.27780512
 11
617.37500000
 21
391.27263780
  0
LINE
  8
LAYER_2
 10
587.25000000
 20
391.27608268
 11
617.37500000
 21
391.27091535
  0
LINE
  8
LAYER_2
 10
587.25000000
 20
405.77780512
 11
603.00000000
 21
405.77509843
  0
LINE
  8
LAYER_2
 10
587.25000000
 20
407.27755906
 11
601.50000000
 21
407.27042323
  0
LINE
  8
LAYER_2
 10
587.25000000
 20
398.87500000
 11
599.50000000
 21
398.87500000
  0
LINE
  8
LAYER_2
 10
587.25000000
 20
397.37500000
 11
601.00000000
 21
397.37500000
  0
LINE
  8
LAYER_2
 10
598.37500000
 20
341.77263780
 11
608.50000000
 21
341.77091535
  0
LINE
  8
LAYER_2
 10
598.37500000
 20
343.27263780
 11
600.25000000
 21
343.27239173
  0
LINE
  8
LAYER_2
 10
598.37500000
 20
343.26254921
 11
600.25000000
 21
343.26156496
  0
LINE
  8
LAYER_2
 10
598.37500000
 20
325.77263780
 11
623.00000000
 21
325.76845472
  0
LINE
  8
LAYER_2
 10
598.37500000
 20
327.26254921
 11
600.25000000
 21
327.26156496
  0
LINE
  8
LAYER_2
 10
598.37500000
 20
311.26254921
 11
600.25000000
 21
311.26156496
  0
LINE
  8
LAYER_2
 10
598.37500000
 20
359.26254921
 11
600.25000000
 21
359.26156496
  0
LINE
  8
LAYER_2
 10
598.37500000
 20
375.26254921
 11
600.25000000
 21
375.26156496
  0
LINE
  8
LAYER_2
 10
587.25000000
 20
395.87500000
 11
602.50000000
 21
395.87500000
  0
LINE
  8
LAYER_2
  6
SMALL
 10
612.50000000
 20
389.75000000
 11
612.50000000
 21
385.87500000
  0
LINE
  8
LAYER_2
  6
SMALL
 10
611.00000000
 20
389.75000000
 11
611.00000000
 21
387.37500000
  0
LINE
  8
LAYER_2
  6
SMALL
 10
609.50000000
 20
389.75000000
 11
609.50000000
 21
388.87500000
  0
LINE
  8
LAYER_2
 10
573.50000000
 20
398.87500000
 11
585.75000000
 21
398.87500000
  0
LINE
  8
LAYER_2
 10
572.00000000
 20
397.37500000
 11
585.75000000
 21
397.37500000
  0
LINE
  8
LAYER_2
 10
570.50000000
 20
395.87500000
 11
585.75000000
 21
395.87500000
  0
LINE
  8
LAYER_2
  6
SMALL
 10
563.50000000
 20
398.87500000
 11
573.50000000
 21
398.87500000
  0
LINE
  8
LAYER_2
  6
SMALL
 10
563.50000000
 20
397.37500000
 11
571.87500000
 21
397.37500000
  0
LINE
  8
LAYER_2
  6
SMALL
 10
563.50000000
 20
395.87500000
 11
570.50000000
 21
395.87500000
  0
LINE
  8
LAYER_2
  6
SMALL
 10
563.50000000
 20
398.75000000
 11
563.50000000
 21
391.25000000
  0
LINE
  8
LAYER_2
  6
SMALL
 10
562.00000000
 20
397.37500000
 11
562.00000000
 21
391.25000000
  0
LINE
  8
LAYER_2
  6
SMALL
 10
560.50000000
 20
395.87500000
 11
560.50000000
 21
391.25000000
  0
LINE
  8
LAYER_2
 10
562.00000000
 20
387.37500000
 11
562.00000000
 21
375.25000000
  0
LINE
  8
LAYER_2
 10
563.50000000
 20
388.87500000
 11
563.50000000
 21
375.25000000
  0
LINE
  8
LAYER_2
 10
581.87524606
 20
407.25000000
 11
585.75000000
 21
411.12475394
  0
LINE
  8
LAYER_2
 10
554.50000000
 20
389.76919291
 11
558.62500000
 21
389.76993110
  0
LINE
  8
LAYER_2
  6
SMALL
 10
563.50000000
 20
389.75000000
 11
563.50000000
 21
388.87500000
  0
LINE
  8
LAYER_2
  6
SMALL
 10
562.00000000
 20
389.75000000
 11
562.00000000
 21
387.37500000
  0
LINE
  8
LAYER_2
  6
SMALL
 10
560.50000000
 20
389.75000000
 11
560.50000000
 21
386.12500000
  0
LINE
  8
LAYER_2
 10
612.50000000
 20
373.75000000
 11
612.50000000
 21
359.25000000
  0
LINE
  8
LAYER_2
 10
611.00000000
 20
373.75000000
 11
611.00000000
 21
359.25000000
  0
LINE
  8
LAYER_2
 10
609.50000000
 20
373.75000000
 11
609.50000000
 21
359.25000000
  0
LINE
  8
LAYER_2
 10
612.50000000
 20
357.75000000
 11
612.50000000
 21
350.37500000
  0
LINE
  8
LAYER_2
 10
611.00000000
 20
357.75000000
 11
611.00000000
 21
350.37500000
  0
LINE
  8
LAYER_2
 10
609.50000000
 20
357.75000000
 11
609.50000000
 21
350.37500000
  0
LINE
  8
LAYER_2
 10
612.50000000
 20
341.75000000
 11
612.50000000
 21
327.25000000
  0
LINE
  8
LAYER_2
 10
611.00000000
 20
341.75000000
 11
611.00000000
 21
327.25000000
  0
LINE
  8
LAYER_2
 10
609.50000000
 20
341.75000000
 11
609.50000000
 21
327.25000000
  0
LINE
  8
LAYER_2
 10
612.50000000
 20
325.87500000
 11
612.50000000
 21
311.25000000
  0
LINE
  8
LAYER_2
 10
611.00000000
 20
325.87500000
 11
611.00000000
 21
311.25000000
  0
LINE
  8
LAYER_2
 10
609.50000000
 20
325.87500000
 11
609.50000000
 21
311.25000000
  0
LINE
  8
LAYER_2
 10
560.50000000
 20
373.75000000
 11
560.50000000
 21
359.25000000
  0
LINE
  8
LAYER_2
 10
562.00000000
 20
373.75000000
 11
562.00000000
 21
359.25000000
  0
LINE
  8
LAYER_2
 10
563.50000000
 20
373.75000000
 11
563.50000000
 21
359.25000000
  0
LINE
  8
LAYER_2
 10
560.50000000
 20
357.75000000
 11
560.50000000
 21
350.37500000
  0
LINE
  8
LAYER_2
 10
562.00000000
 20
357.75000000
 11
562.00000000
 21
350.37500000
  0
LINE
  8
LAYER_2
 10
563.50000000
 20
357.75000000
 11
563.50000000
 21
350.37500000
  0
LINE
  8
LAYER_2
 10
560.50000000
 20
341.75000000
 11
560.50000000
 21
327.25000000
  0
LINE
  8
LAYER_2
 10
562.00000000
 20
341.75000000
 11
562.00000000
 21
327.25000000
  0
LINE
  8
LAYER_2
 10
563.50000000
 20
341.75000000
 11
563.50000000
 21
327.25000000
  0
LINE
  8
LAYER_2
 10
560.50000000
 20
325.75000000
 11
560.50000000
 21
311.25000000
  0
LINE
  8
LAYER_2
 10
562.00000000
 20
325.75000000
 11
562.00000000
 21
311.25000000
  0
LINE
  8
LAYER_2
 10
563.50000000
 20
325.75000000
 11
563.50000000
 21
311.25000000
  0
LINE
  8
LAYER_2
 10
550.00000000
 20
306.50000000
 11
623.00000000
 21
306.50000000
  0
LINE
  8
LAYER_2
 10
587.25000000
 20
308.00000000
 11
623.00000000
 21
308.00000000
  0
LINE
  8
LAYER_2
 10
550.00000000
 20
308.00000000
 11
585.75000000
 21
308.00000000
  0
LINE
  8
LAYER_2
 10
587.25000000
 20
345.62500000
 11
587.25000000
 21
294.50000000
  0
LINE
  8
LAYER_2
 10
585.75000000
 20
345.62500000
 11
585.75000000
 21
294.50000000
  0
LINE
  8
LAYER_2
 10
601.29896654
 20
296.01845472
 11
601.75000000
 21
296.02632874
  0
LINE
  8
LAYER_2
 10
602.37500000
 20
306.50000000
 11
602.37500000
 21
296.00000000
  0
LINE
  8
LAYER_2
 10
600.87500000
 20
306.50000000
 11
600.87500000
 21
296.00000000
  0
LINE
  8
LAYER_2
 10
571.04896654
 20
296.01845472
 11
571.50000000
 21
296.02632874
  0
LINE
  8
LAYER_2
 10
572.12500000
 20
306.50000000
 11
572.12500000
 21
296.00000000
  0
LINE
  8
LAYER_2
 10
570.62500000
 20
306.50000000
 11
570.62500000
 21
296.00000000
  0
LINE
  8
LAYER_2
 10
550.00024606
 20
375.37500000
 11
564.50024606
 21
389.87500000
  0
LINE
  8
LAYER_2
 10
565.87524606
 20
391.25000000
 11
580.37500000
 21
405.75000000
  0
LINE
  8
LAYER_2
 10
587.25000000
 20
411.12500000
 11
591.12500000
 21
407.25000000
  0
LINE
  8
LAYER_2
  6
SMALL
 10
550.62500000
 20
289.01870079
 11
560.50000000
 21
289.01870079
  0
LINE
  8
LAYER_2
  6
SMALL
 10
563.50000000
 20
289.01870079
 11
565.25000000
 21
289.01870079
  0
LINE
  8
LAYER_2
 10
565.25000000
 20
294.50000000
 11
565.25000000
 21
271.50000000
  0
LINE
  8
LAYER_2
 10
566.62500000
 20
294.50000000
 11
566.62500000
 21
271.49950787
  0
LINE
  8
LAYER_2
 10
549.25000000
 20
294.50000000
 11
549.25000000
 21
271.50000000
  0
LINE
  8
LAYER_2
 10
550.62500000
 20
294.50000000
 11
550.62500000
 21
271.49950787
  0
LINE
  8
LAYER_2
 10
548.50000000
 20
294.51968504
 11
548.87500000
 21
294.51968504
  0
LINE
  8
LAYER_2
 10
560.50000000
 20
294.50000000
 11
560.50000000
 21
285.50000000
  0
LINE
  8
LAYER_2
 10
562.00000000
 20
294.50000000
 11
562.00000000
 21
285.50000000
  0
LINE
  8
LAYER_2
 10
563.50000000
 20
294.50000000
 11
563.50000000
 21
285.50000000
  0
LINE
  8
LAYER_2
  6
SMALL
 10
582.62500000
 20
289.01870079
 11
597.25000000
 21
289.01870079
  0
LINE
  8
LAYER_2
  6
SMALL
 10
566.62500000
 20
289.01870079
 11
581.25000000
 21
289.01870079
  0
LINE
  8
LAYER_2
 10
600.25000000
 20
294.52239173
 11
608.62500000
 21
294.52091535
  0
LINE
  8
LAYER_2
 10
612.50000000
 20
294.50000000
 11
612.50000000
 21
285.50000000
  0
LINE
  8
LAYER_2
 10
611.00000000
 20
294.50000000
 11
611.00000000
 21
285.50000000
  0
LINE
  8
LAYER_2
 10
609.50000000
 20
294.50000000
 11
609.50000000
 21
285.50000000
  0
LINE
  8
LAYER_2
  6
SMALL
 10
612.50000000
 20
289.01870079
 11
613.25000000
 21
289.01870079
  0
LINE
  8
LAYER_2
  6
SMALL
 10
598.62500000
 20
289.01870079
 11
609.50000000
 21
289.01870079
  0
LINE
  8
LAYER_2
  6
SMALL
 10
614.62500000
 20
289.01870079
 11
629.25000000
 21
289.01870079
  0
LINE
  8
LAYER_2
  6
SMALL
 10
630.62500000
 20
289.01870079
 11
645.25000000
 21
289.01870079
  0
LINE
  8
LAYER_2
  6
SMALL
 10
662.62500000
 20
289.01870079
 11
677.25000000
 21
289.01870079
  0
LINE
  8
LAYER_2
  6
SMALL
 10
646.62500000
 20
289.01870079
 11
661.25000000
 21
289.01870079
  0
LINE
  8
LAYER_2
  6
SMALL
 10
694.62500000
 20
289.01870079
 11
695.50000000
 21
289.01870079
  0
LINE
  8
LAYER_2
  6
SMALL
 10
678.62500000
 20
289.01870079
 11
693.25000000
 21
289.01870079
  0
LINE
  8
LAYER_2
 10
693.25000000
 20
294.62500000
 11
693.25000000
 21
271.50000000
  0
LINE
  8
LAYER_2
 10
694.62500000
 20
294.62500000
 11
694.62500000
 21
271.49950787
  0
LINE
  8
LAYER_2
 10
695.50000000
 20
294.62500000
 11
695.50000000
 21
285.50000000
  0
LINE
  8
LAYER_2
 10
697.00000000
 20
294.62500000
 11
697.00000000
 21
285.50000000
  0
LINE
  8
LAYER_2
 10
698.50000000
 20
294.62500000
 11
698.50000000
 21
285.50000000
  0
LINE
  8
LAYER_2
  6
SMALL
 10
742.62500000
 20
289.01870079
 11
744.50000000
 21
289.01870079
  0
LINE
  8
LAYER_2
 10
773.25000000
 20
429.00000000
 11
773.25000000
 21
271.50000000
  0
LINE
  8
LAYER_2
 10
774.62500000
 20
429.00000000
 11
774.62500000
 21
271.49950787
  0
LINE
  8
LAYER_2
  6
SMALL
 10
758.62500000
 20
289.01870079
 11
773.25000000
 21
289.01870079
  0
LINE
  8
LAYER_2
  6
SMALL
 10
774.62500000
 20
289.01870079
 11
789.25000000
 21
289.01870079
  0
LINE
  8
LAYER_2
  6
SMALL
 10
790.62500000
 20
289.01870079
 11
805.25000000
 21
289.01870079
  0
LINE
  8
LAYER_2
  6
SMALL
 10
806.62500000
 20
289.01870079
 11
821.25000000
 21
289.01870079
  0
LINE
  8
LAYER_2
  6
SMALL
 10
822.62500000
 20
289.01870079
 11
830.50000000
 21
289.01870079
  0
LINE
  8
LAYER_2
  6
SMALL
 10
833.50000000
 20
289.01870079
 11
837.25000000
 21
289.01870079
  0
LINE
  8
LAYER_2
  6
SMALL
 10
838.62500000
 20
289.01870079
 11
853.25000000
 21
289.01870079
  0
LINE
  8
LAYER_2
  6
SMALL
 10
854.62500000
 20
289.01870079
 11
857.50000000
 21
289.01870079
  0
LINE
  8
LAYER_2
  6
SMALL
 10
860.50000000
 20
289.01870079
 11
869.25000000
 21
289.01870079
  0
LINE
  8
LAYER_2
  6
SMALL
 10
870.62500000
 20
289.01870079
 11
879.50000000
 21
289.01870079
  0
LINE
  8
LAYER_2
 10
885.25000000
 20
294.62500000
 11
885.25000000
 21
271.50000000
  0
LINE
  8
LAYER_2
 10
886.62500000
 20
294.62500000
 11
886.62500000
 21
271.49950787
  0
LINE
  8
LAYER_2
 10
882.50000000
 20
294.62500000
 11
882.50000000
 21
285.50000000
  0
LINE
  8
LAYER_2
 10
881.00000000
 20
294.62500000
 11
881.00000000
 21
285.50000000
  0
LINE
  8
LAYER_2
 10
879.50000000
 20
294.62500000
 11
879.50000000
 21
285.50000000
  0
LINE
  8
LAYER_2
 10
869.25000000
 20
294.62500000
 11
869.25000000
 21
271.50000000
  0
LINE
  8
LAYER_2
 10
870.62500000
 20
294.62500000
 11
870.62500000
 21
271.49950787
  0
LINE
  8
LAYER_2
 10
821.25000000
 20
294.50000000
 11
821.25000000
 21
271.50000000
  0
LINE
  8
LAYER_2
 10
822.62500000
 20
294.50000000
 11
822.62500000
 21
271.49950787
  0
LINE
  8
LAYER_2
 10
818.50000000
 20
294.51968504
 11
820.37500000
 21
294.51993110
  0
LINE
  8
LAYER_2
 10
830.50000000
 20
294.50000000
 11
830.50000000
 21
285.50000000
  0
LINE
  8
LAYER_2
 10
832.00000000
 20
294.50000000
 11
832.00000000
 21
285.50000000
  0
LINE
  8
LAYER_2
 10
833.50000000
 20
294.50000000
 11
833.50000000
 21
285.50000000
  0
LINE
  8
LAYER_2
 10
581.25000000
 20
429.03026575
 11
581.25000000
 21
405.25000000
  0
LINE
  8
LAYER_2
 10
582.75000000
 20
429.12500000
 11
582.75000000
 21
406.87500000
  0
LINE
  8
LAYER_2
 10
598.50000000
 20
429.03026575
 11
598.50000000
 21
398.50000000
  0
LINE
  8
LAYER_2
 10
597.00000000
 20
429.00000000
 11
597.00000000
 21
399.87500000
  0
LINE
  8
LAYER_2
 10
614.62500000
 20
429.03026575
 11
614.62500000
 21
311.25000000
  0
LINE
  8
LAYER_2
 10
581.25000000
 20
306.50000000
 11
581.25000000
 21
296.12500000
  0
LINE
  8
LAYER_2
 10
582.75000000
 20
306.50000000
 11
582.75000000
 21
296.12500000
  0
LINE
  8
LAYER_2
 10
598.62500000
 20
306.50000000
 11
598.62500000
 21
296.12500000
  0
LINE
  8
LAYER_2
 10
597.25000000
 20
306.50000000
 11
597.25000000
 21
296.12500000
  0
LINE
  8
LAYER_2
 10
565.25000000
 20
306.50000000
 11
565.25000000
 21
296.00000000
  0
LINE
  8
LAYER_2
 10
566.62500000
 20
306.50000000
 11
566.62500000
 21
296.00000000
  0
LINE
  8
LAYER_2
  6
SMALL
 10
565.25000000
 20
401.25000000
 11
565.25000000
 21
398.87500000
  0
LINE
  8
LAYER_2
  6
SMALL
 10
566.62500000
 20
402.62500000
 11
566.62500000
 21
399.00000000
  0
LINE
  8
LAYER_2
  6
SMALL
 10
581.25000000
 20
417.25000000
 11
581.25000000
 21
407.25000000
  0
LINE
  8
LAYER_2
  6
SMALL
 10
582.75000000
 20
418.75000000
 11
582.75000000
 21
407.25000000
  0
LINE
  8
LAYER_2
  6
SMALL
 10
598.50000000
 20
410.37500000
 11
598.50000000
 21
407.25000000
  0
LINE
  8
LAYER_2
  6
SMALL
 10
597.00000000
 20
411.87500000
 11
597.00000000
 21
407.25000000
  0
LINE
  8
LAYER_2
  6
SMALL
 10
581.25000000
 20
405.87500000
 11
581.25000000
 21
398.87500000
  0
LINE
  8
LAYER_2
  6
SMALL
 10
582.75000000
 20
405.87500000
 11
582.75000000
 21
399.00000000
  0
LINE
  8
LAYER_2
  6
SMALL
 10
598.50000000
 20
405.87500000
 11
598.50000000
 21
398.87500000
  0
LINE
  8
LAYER_2
  6
SMALL
 10
597.00000000
 20
405.87500000
 11
597.00000000
 21
398.87500000
  0
LINE
  8
LAYER_2
 10
613.25000000
 20
309.87500000
 11
613.25000000
 21
308.00000000
  0
LINE
  8
LAYER_2
 10
611.00000000
 20
309.87500000
 11
611.00000000
 21
308.00000000
  0
LINE
  8
LAYER_2
 10
609.50000000
 20
309.87500000
 11
609.50000000
 21
308.00000000
  0
LINE
  8
LAYER_2
 10
614.62500000
 20
309.87500000
 11
614.62500000
 21
308.00000000
  0
LINE
  8
LAYER_2
 10
613.25000000
 20
306.50000000
 11
613.25000000
 21
271.50000000
  0
LINE
  8
LAYER_2
 10
612.50000000
 20
306.50000000
 11
612.50000000
 21
296.00000000
  0
LINE
  8
LAYER_2
 10
611.00000000
 20
306.50000000
 11
611.00000000
 21
296.00000000
  0
LINE
  8
LAYER_2
 10
609.50000000
 20
306.50000000
 11
609.50000000
 21
296.00000000
  0
LINE
  8
LAYER_2
 10
614.62500000
 20
306.50000000
 11
614.62500000
 21
295.87500000
  0
LINE
  8
LAYER_2
 10
560.50000000
 20
306.50000000
 11
560.50000000
 21
296.00000000
  0
LINE
  8
LAYER_2
 10
562.00000000
 20
306.50000000
 11
562.00000000
 21
296.00000000
  0
LINE
  8
LAYER_2
 10
563.50000000
 20
306.50000000
 11
563.50000000
 21
296.00000000
  0
LINE
  8
LAYER_2
 10
612.50000000
 20
345.62500000
 11
612.50000000
 21
343.25000000
  0
LINE
  8
LAYER_2
 10
611.00000000
 20
345.62500000
 11
611.00000000
 21
343.25000000
  0
LINE
  8
LAYER_2
 10
609.50000000
 20
345.62500000
 11
609.50000000
 21
343.25000000
  0
LINE
  8
LAYER_2
 10
560.50000000
 20
345.62500000
 11
560.50000000
 21
343.25000000
  0
LINE
  8
LAYER_2
 10
562.00000000
 20
345.62500000
 11
562.00000000
 21
343.25000000
  0
LINE
  8
LAYER_2
 10
563.50000000
 20
345.62500000
 11
563.50000000
 21
343.25000000
  0
LINE
  8
LAYER_2
  6
SMALL
 10
709.25000000
 20
410.25000000
 11
709.25000000
 21
407.25000000
  0
LINE
  8
LAYER_2
  6
SMALL
 10
710.62500000
 20
411.50000000
 11
710.62500000
 21
407.25000000
  0
LINE
  8
LAYER_2
 10
709.25000000
 20
309.87500000
 11
709.25000000
 21
308.00000000
  0
LINE
  8
LAYER_2
 10
710.62500000
 20
309.87500000
 11
710.62500000
 21
308.00000000
  0
LINE
  8
LAYER_2
 10
725.25000000
 20
309.75000000
 11
725.25000000
 21
308.00000000
  0
LINE
  8
LAYER_2
 10
726.62500000
 20
309.75000000
 11
726.62500000
 21
308.00000000
  0
LINE
  8
LAYER_2
  6
SMALL
 10
725.25000000
 20
418.62500000
 11
725.25000000
 21
407.25000000
  0
LINE
  8
LAYER_2
  6
SMALL
 10
726.62500000
 20
417.25000000
 11
726.62500000
 21
407.25000000
  0
LINE
  8
LAYER_2
 10
741.25000000
 20
429.12500000
 11
741.25000000
 21
390.37500000
  0
LINE
  8
LAYER_2
 10
742.62500000
 20
429.12500000
 11
742.62500000
 21
388.87500000
  0
LINE
  8
LAYER_2
  6
SMALL
 10
741.25000000
 20
402.50000000
 11
741.25000000
 21
398.87500000
  0
LINE
  8
LAYER_2
  6
SMALL
 10
742.62500000
 20
401.00000000
 11
742.62500000
 21
398.87500000
  0
LINE
  8
LAYER_2
  6
SMALL
 10
709.25000000
 20
405.87500000
 11
709.25000000
 21
398.87500000
  0
LINE
  8
LAYER_2
  6
SMALL
 10
710.62500000
 20
405.87500000
 11
710.62500000
 21
398.87500000
  0
LINE
  8
LAYER_2
  6
SMALL
 10
725.25000000
 20
405.87500000
 11
725.25000000
 21
398.87500000
  0
LINE
  8
LAYER_2
  6
SMALL
 10
726.62500000
 20
405.87500000
 11
726.62500000
 21
398.87500000
  0
LINE
  8
LAYER_2
 10
690.12500000
 20
389.77239173
 11
720.75000000
 21
389.77780512
  0
LINE
  8
LAYER_2
 10
693.25000000
 20
373.87500000
 11
693.25000000
 21
359.25000000
  0
LINE
  8
LAYER_2
 10
694.62500000
 20
373.87500000
 11
694.62500000
 21
359.25000000
  0
LINE
  8
LAYER_2
 10
693.25000000
 20
357.87500000
 11
693.25000000
 21
352.00000000
  0
LINE
  8
LAYER_2
 10
694.62500000
 20
357.87500000
 11
694.62500000
 21
352.00000000
  0
LINE
  8
LAYER_2
 10
693.25000000
 20
341.87500000
 11
693.25000000
 21
327.25000000
  0
LINE
  8
LAYER_2
 10
694.62500000
 20
341.87500000
 11
694.62500000
 21
327.25000000
  0
LINE
  8
LAYER_2
 10
695.87500000
 20
325.76673228
 11
697.00000000
 21
325.76673228
  0
LINE
  8
LAYER_2
 10
693.25000000
 20
325.75000000
 11
693.25000000
 21
311.25000000
  0
LINE
  8
LAYER_2
 10
694.62500000
 20
325.75000000
 11
694.62500000
 21
311.25000000
  0
LINE
  8
LAYER_2
 10
693.25000000
 20
309.87500000
 11
693.25000000
 21
308.00000000
  0
LINE
  8
LAYER_2
 10
694.62500000
 20
309.87500000
 11
694.62500000
 21
308.00000000
  0
LINE
  8
LAYER_2
 10
693.25000000
 20
306.62500000
 11
693.25000000
 21
296.00000000
  0
LINE
  8
LAYER_2
 10
694.62500000
 20
306.62500000
 11
694.62500000
 21
296.00000000
  0
LINE
  8
LAYER_2
 10
747.50000000
 20
344.75000000
 11
747.50000000
 21
343.25000000
  0
LINE
  8
LAYER_2
 10
746.00000000
 20
344.75000000
 11
746.00000000
 21
343.25000000
  0
LINE
  8
LAYER_2
 10
744.50000000
 20
344.75000000
 11
744.50000000
 21
343.25000000
  0
LINE
  8
LAYER_2
 10
695.50000000
 20
344.75000000
 11
695.50000000
 21
343.25000000
  0
LINE
  8
LAYER_2
 10
697.00000000
 20
344.75000000
 11
697.00000000
 21
343.25000000
  0
LINE
  8
LAYER_2
 10
698.50000000
 20
344.75000000
 11
698.50000000
 21
343.25000000
  0
LINE
  8
LAYER_2
 10
693.25000000
 20
344.75000000
 11
693.25000000
 21
343.25000000
  0
LINE
  8
LAYER_2
 10
694.62500000
 20
344.75000000
 11
694.62500000
 21
343.25000000
  0
LINE
  8
LAYER_2
 10
695.50000000
 20
306.50000000
 11
695.50000000
 21
296.00000000
  0
LINE
  8
LAYER_2
 10
697.00000000
 20
306.50000000
 11
697.00000000
 21
296.00000000
  0
LINE
  8
LAYER_2
 10
698.50000000
 20
306.50000000
 11
698.50000000
 21
296.00000000
  0
LINE
  8
LAYER_2
 10
709.25000000
 20
306.50000000
 11
709.25000000
 21
296.00000000
  0
LINE
  8
LAYER_2
 10
710.62500000
 20
306.50000000
 11
710.62500000
 21
296.00000000
  0
LINE
  8
LAYER_2
 10
741.25000000
 20
306.50000000
 11
741.25000000
 21
296.00000000
  0
LINE
  8
LAYER_2
 10
742.62500000
 20
306.50000000
 11
742.62500000
 21
296.00000000
  0
LINE
  8
LAYER_2
 10
747.50000000
 20
306.50000000
 11
747.50000000
 21
296.00000000
  0
LINE
  8
LAYER_2
 10
746.00000000
 20
306.50000000
 11
746.00000000
 21
296.00000000
  0
LINE
  8
LAYER_2
 10
744.50000000
 20
306.50000000
 11
744.50000000
 21
296.00000000
  0
LINE
  8
LAYER_2
 10
725.25000000
 20
306.50000000
 11
725.25000000
 21
296.00000000
  0
LINE
  8
LAYER_2
 10
726.62500000
 20
306.50000000
 11
726.62500000
 21
296.00000000
  0
LINE
  8
LAYER_2
 10
746.00000000
 20
309.87500000
 11
746.00000000
 21
308.00000000
  0
LINE
  8
LAYER_2
 10
744.50000000
 20
309.87500000
 11
744.50000000
 21
308.00000000
  0
LINE
  8
LAYER_2
 10
757.25000000
 20
306.50000000
 11
757.25000000
 21
296.00000000
  0
LINE
  8
LAYER_2
 10
757.25000000
 20
309.87500000
 11
757.25000000
 21
308.00000000
  0
LINE
  8
LAYER_2
 10
757.25000000
 20
325.87500000
 11
757.25000000
 21
311.25000000
  0
LINE
  8
LAYER_2
 10
757.25000000
 20
341.87500000
 11
757.25000000
 21
327.25000000
  0
LINE
  8
LAYER_2
 10
757.25000000
 20
357.87500000
 11
757.25000000
 21
343.25000000
  0
LINE
  8
LAYER_2
 10
757.25000000
 20
373.87500000
 11
757.25000000
 21
359.25000000
  0
LINE
  8
LAYER_2
 10
837.25000000
 20
429.12500000
 11
837.25000000
 21
391.37500000
  0
LINE
  8
LAYER_2
 10
838.62500000
 20
429.12500000
 11
838.62500000
 21
392.62500000
  0
LINE
  8
LAYER_2
  6
SMALL
 10
837.25000000
 20
403.37500000
 11
837.25000000
 21
398.87500000
  0
LINE
  8
LAYER_2
  6
SMALL
 10
838.62500000
 20
404.62500000
 11
838.62500000
 21
398.87500000
  0
LINE
  8
LAYER_2
 10
853.25000000
 20
429.12500000
 11
853.25000000
 21
407.37500000
  0
LINE
  8
LAYER_2
 10
854.62500000
 20
429.12500000
 11
854.62500000
 21
420.75000000
  0
LINE
  8
LAYER_2
  6
SMALL
 10
853.25000000
 20
419.37500000
 11
853.25000000
 21
398.87500000
  0
LINE
  8
LAYER_2
  6
SMALL
 10
854.62500000
 20
420.75000000
 11
854.62500000
 21
398.87500000
  0
LINE
  8
LAYER_2
 10
869.25000000
 20
429.12500000
 11
869.25000000
 21
397.62500000
  0
LINE
  8
LAYER_2
 10
870.62500000
 20
429.12500000
 11
870.62500000
 21
396.12500000
  0
LINE
  8
LAYER_2
  6
SMALL
 10
869.25000000
 20
409.50000000
 11
869.25000000
 21
398.87500000
  0
LINE
  8
LAYER_2
  6
SMALL
 10
870.62500000
 20
408.25000000
 11
870.62500000
 21
398.87500000
  0
LINE
  8
LAYER_2
 10
741.25000000
 20
294.62500000
 11
741.25000000
 21
271.50000000
  0
LINE
  8
LAYER_2
 10
742.62500000
 20
294.62500000
 11
742.62500000
 21
271.49950787
  0
LINE
  8
LAYER_2
 10
747.50000000
 20
294.62500000
 11
747.50000000
 21
285.50000000
  0
LINE
  8
LAYER_2
 10
746.00000000
 20
294.62500000
 11
746.00000000
 21
285.50000000
  0
LINE
  8
LAYER_2
 10
744.50000000
 20
294.62500000
 11
744.50000000
 21
285.50000000
  0
LINE
  8
LAYER_2
 10
757.25000000
 20
294.62500000
 11
757.25000000
 21
271.50000000
  0
LINE
  8
LAYER_2
 10
709.25000000
 20
294.62500000
 11
709.25000000
 21
271.50000000
  0
LINE
  8
LAYER_2
 10
710.62500000
 20
294.62500000
 11
710.62500000
 21
271.49950787
  0
LINE
  8
LAYER_2
 10
725.25000000
 20
294.62500000
 11
725.25000000
 21
271.50000000
  0
LINE
  8
LAYER_2
 10
726.62500000
 20
294.62500000
 11
726.62500000
 21
271.49950787
  0
LINE
  8
LAYER_2
 10
585.75000000
 20
421.75000000
 11
587.25000000
 21
421.75000000
  0
LINE
  8
LAYER_2
 10
722.25000000
 20
421.62500000
 11
722.25000000
 21
352.00000000
  0
LINE
  8
LAYER_2
 10
720.75000000
 20
421.62500000
 11
720.75000000
 21
352.00000000
  0
LINE
  8
LAYER_2
 10
720.75000000
 20
421.62500000
 11
722.25000000
 21
421.62500000
  0
LINE
  8
LAYER_2
 10
857.25000000
 20
421.75000000
 11
857.25000000
 21
350.62500000
  0
LINE
  8
LAYER_2
 10
855.75000000
 20
421.75000000
 11
855.75000000
 21
350.62500000
  0
LINE
  8
LAYER_2
 10
855.75000000
 20
421.75000000
 11
857.25000000
 21
421.75000000
  0
LINE
  8
LAYER_2
 10
837.25000000
 20
306.50000000
 11
837.25000000
 21
296.12500000
  0
LINE
  8
LAYER_2
 10
837.25000000
 20
309.75000000
 11
837.25000000
 21
308.00000000
  0
LINE
  8
LAYER_2
 10
838.75000000
 20
309.75000000
 11
838.75000000
 21
308.00000000
  0
LINE
  8
LAYER_2
 10
838.75000000
 20
306.50000000
 11
838.75000000
 21
296.00000000
  0
LINE
  8
LAYER_2
 10
869.25000000
 20
306.50000000
 11
869.25000000
 21
296.00000000
  0
LINE
  8
LAYER_2
 10
869.25000000
 20
309.75000000
 11
869.25000000
 21
308.00000000
  0
LINE
  8
LAYER_2
 10
870.75000000
 20
309.75000000
 11
870.75000000
 21
308.00000000
  0
LINE
  8
LAYER_2
 10
870.75000000
 20
306.50000000
 11
870.75000000
 21
296.12500000
  0
LINE
  8
LAYER_2
 10
885.25000000
 20
306.50000000
 11
885.25000000
 21
296.00000000
  0
LINE
  8
LAYER_2
 10
886.62500000
 20
306.50000000
 11
886.62500000
 21
296.00000000
  0
LINE
  8
LAYER_2
 10
885.25000000
 20
309.87500000
 11
885.25000000
 21
308.00000000
  0
LINE
  8
LAYER_2
 10
886.62500000
 20
309.87500000
 11
886.62500000
 21
308.00000000
  0
LINE
  8
LAYER_2
 10
885.25000000
 20
325.87500000
 11
885.25000000
 21
311.25000000
  0
LINE
  8
LAYER_2
 10
886.62500000
 20
325.87500000
 11
886.62500000
 21
311.25000000
  0
LINE
  8
LAYER_2
 10
885.25000000
 20
341.87500000
 11
885.25000000
 21
327.25000000
  0
LINE
  8
LAYER_2
 10
886.62500000
 20
341.87500000
 11
886.62500000
 21
327.25000000
  0
LINE
  8
LAYER_2
 10
885.25000000
 20
357.87500000
 11
885.25000000
 21
350.62500000
  0
LINE
  8
LAYER_2
 10
886.62500000
 20
357.87500000
 11
886.62500000
 21
343.25000000
  0
LINE
  8
LAYER_2
 10
885.25000000
 20
373.87500000
 11
885.25000000
 21
359.25000000
  0
LINE
  8
LAYER_2
 10
886.62500000
 20
373.87500000
 11
886.62500000
 21
359.25000000
  0
LINE
  8
LAYER_2
 10
821.25000000
 20
373.75000000
 11
821.25000000
 21
359.25000000
  0
LINE
  8
LAYER_2
 10
822.62500000
 20
373.75000000
 11
822.62500000
 21
359.25000000
  0
LINE
  8
LAYER_2
 10
821.25000000
 20
357.87500000
 11
821.25000000
 21
343.25000000
  0
LINE
  8
LAYER_2
 10
822.62500000
 20
357.87500000
 11
822.62500000
 21
343.25000000
  0
LINE
  8
LAYER_2
 10
821.25000000
 20
341.87500000
 11
821.25000000
 21
327.25000000
  0
LINE
  8
LAYER_2
 10
822.62500000
 20
341.87500000
 11
822.62500000
 21
327.25000000
  0
LINE
  8
LAYER_2
 10
821.25000000
 20
325.87500000
 11
821.25000000
 21
311.25000000
  0
LINE
  8
LAYER_2
 10
822.62500000
 20
325.87500000
 11
822.62500000
 21
311.25000000
  0
LINE
  8
LAYER_2
 10
823.00000000
 20
309.77042323
 11
855.75000000
 21
309.77608268
  0
LINE
  8
LAYER_2
 10
821.25000000
 20
309.75000000
 11
821.25000000
 21
308.00000000
  0
LINE
  8
LAYER_2
 10
822.62500000
 20
309.75000000
 11
822.62500000
 21
308.00000000
  0
LINE
  8
LAYER_2
 10
821.25000000
 20
306.50000000
 11
821.25000000
 21
296.00000000
  0
LINE
  8
LAYER_2
 10
822.62500000
 20
306.50000000
 11
822.62500000
 21
296.00000000
  0
LINE
  8
LAYER_2
 10
830.50000000
 20
306.50000000
 11
830.50000000
 21
296.00000000
  0
LINE
  8
LAYER_2
 10
832.00000000
 20
306.50000000
 11
832.00000000
 21
296.00000000
  0
LINE
  8
LAYER_2
 10
833.50000000
 20
306.50000000
 11
833.50000000
 21
296.00000000
  0
LINE
  8
LAYER_2
 10
882.50000000
 20
306.50000000
 11
882.50000000
 21
296.00000000
  0
LINE
  8
LAYER_2
 10
881.00000000
 20
306.50000000
 11
881.00000000
 21
296.00000000
  0
LINE
  8
LAYER_2
 10
879.50000000
 20
306.50000000
 11
879.50000000
 21
296.00000000
  0
LINE
  8
LAYER_2
 10
830.50000000
 20
285.50000000
 11
833.50000000
 21
285.50000000
  0
LINE
  8
LAYER_2
 10
879.50000000
 20
285.50000000
 11
882.50000000
 21
285.50000000
  0
LINE
  8
LAYER_2
 10
744.50000000
 20
285.50000000
 11
747.50000000
 21
285.50000000
  0
LINE
  8
LAYER_2
 10
695.50000000
 20
285.50000000
 11
698.50000000
 21
285.50000000
  0
LINE
  8
LAYER_2
 10
609.50000000
 20
285.50000000
 11
612.50000000
 21
285.50000000
  0
LINE
  8
LAYER_2
 10
560.50000000
 20
285.50000000
 11
563.50000000
 21
285.50000000
  0
LINE
  8
LAYER_2
 10
882.50000000
 20
345.00000000
 11
882.50000000
 21
343.25000000
  0
LINE
  8
LAYER_2
 10
881.00000000
 20
345.00000000
 11
881.00000000
 21
343.25000000
  0
LINE
  8
LAYER_2
 10
879.50000000
 20
345.00000000
 11
879.50000000
 21
343.25000000
  0
LINE
  8
LAYER_2
 10
830.50000000
 20
345.00000000
 11
830.50000000
 21
343.25000000
  0
LINE
  8
LAYER_2
 10
832.00000000
 20
345.00000000
 11
832.00000000
 21
343.25000000
  0
LINE
  8
LAYER_2
 10
833.50000000
 20
345.00000000
 11
833.50000000
 21
343.25000000
  0
LINE
  8
LAYER_2
 10
885.25000000
 20
345.00000000
 11
885.25000000
 21
343.25000000
  0
LINE
  8
LAYER_2
 10
495.50000000
 20
298.28026575
 11
505.00000000
 21
298.28026575
  0
LINE
  8
LAYER_2
 10
495.50000000
 20
296.78026575
 11
505.00000000
 21
296.78026575
  0
LINE
  8
LAYER_2
 10
495.50000000
 20
285.28026575
 11
505.00000000
 21
285.28026575
  0
LINE
  8
LAYER_2
 10
495.50000000
 20
283.78026575
 11
505.00000000
 21
283.78026575
  0
LINE
  8
LAYER_2
 10
939.00000000
 20
298.28026575
 11
948.50000000
 21
298.28026575
  0
LINE
  8
LAYER_2
 10
939.00000000
 20
296.78026575
 11
948.50000000
 21
296.78026575
  0
LINE
  8
LAYER_2
 10
939.00000000
 20
285.28026575
 11
948.50000000
 21
285.28026575
  0
LINE
  8
LAYER_2
 10
939.00000000
 20
283.78026575
 11
948.50000000
 21
283.78026575
  0
LINE
  8
LAYER_2
 10
495.50000000
 20
574.78026575
 11
505.00000000
 21
574.78026575
  0
LINE
  8
LAYER_2
 10
495.50000000
 20
573.28026575
 11
505.00000000
 21
573.28026575
  0
LINE
  8
LAYER_2
 10
939.00000000
 20
574.78026575
 11
948.50000000
 21
574.78026575
  0
LINE
  8
LAYER_2
 10
939.00000000
 20
573.28026575
 11
948.50000000
 21
573.28026575
  0
LINE
  8
LAYER_1
 10
743.87500000
 20
495.62500000
 11
743.87500000
 21
483.62500000
  0
LINE
  8
LAYER_1
 10
749.87500000
 20
489.62500000
 11
737.87500000
 21
489.62500000
  0
LINE
  8
LAYER_1
 10
599.00000000
 20
460.37500000
 11
599.00000000
 21
448.37500000
  0
LINE
  8
LAYER_1
 10
605.00000000
 20
454.37500000
 11
593.00000000
 21
454.37500000
  0
LINE
  8
LAYER_1
 10
856.50000000
 20
269.37500000
 11
856.50000000
 21
257.37500000
  0
LINE
  8
LAYER_1
 10
862.50000000
 20
263.37500000
 11
850.50000000
 21
263.37500000
  0
LINE
  8
LAYER_4
 10
676.37524606
 20
613.82381890
 11
660.87500000
 21
613.87500000
  0
LINE
  8
LAYER_4
 10
660.87500000
 20
613.87500000
 11
673.87500000
 21
591.25000000
  0
LINE
  8
LAYER_4
 10
669.64000984
 20
595.73646654
 11
673.87500000
 21
591.25000000
  0
LINE
  8
LAYER_4
 10
672.13164370
 20
597.16806102
 11
673.87500000
 21
591.25000000
  0
LINE
  8
LAYER_4
 10
954.35777559
 20
580.87475394
 11
953.62500000
 21
573.37500000
  0
LINE
  8
LAYER_4
 10
953.62500000
 20
573.37500000
 11
943.50000000
 21
562.87500000
  0
LINE
  8
LAYER_4
 10
946.63041339
 20
568.19119094
 11
943.50000000
 21
562.87500000
  0
LINE
  8
LAYER_4
 10
948.69881890
 20
566.19660433
 11
943.50000000
 21
562.87500000
  0
LINE
  8
LAYER_4
 10
489.48277559
 20
580.87475394
 11
490.12500000
 21
572.75000000
  0
LINE
  8
LAYER_4
 10
490.12500000
 20
572.75000000
 11
500.00000000
 21
562.75000000
  0
LINE
  8
LAYER_4
 10
494.76181102
 20
566.00959646
 11
500.00000000
 21
562.75000000
  0
LINE
  8
LAYER_4
 10
496.80659449
 20
568.02878937
 11
500.00000000
 21
562.75000000
  0
LINE
  8
LAYER_4
 10
863.10777559
 20
565.25000000
 11
861.75000000
 21
573.00000000
  0
LINE
  8
LAYER_4
 10
861.75000000
 20
573.00000000
 11
861.75000000
 21
582.12500000
  0
LINE
  8
LAYER_4
 10
863.18700787
 20
576.12500000
 11
861.75000000
 21
582.12500000
  0
LINE
  8
LAYER_4
 10
860.31299213
 20
576.12500000
 11
861.75000000
 21
582.12500000
  0
LINE
  8
LAYER_4
 10
676.37524606
 20
260.07381890
 11
650.25000000
 21
260.50000000
  0
LINE
  8
LAYER_4
 10
650.25000000
 20
260.50000000
 11
657.25000000
 21
299.87500000
  0
LINE
  8
LAYER_4
 10
657.61441929
 20
293.71628937
 11
657.25000000
 21
299.87500000
  0
LINE
  8
LAYER_4
 10
654.78518701
 20
294.21924213
 11
657.25000000
 21
299.87500000
  0
LINE
  8
LAYER_4
 10
782.49975394
 20
260.07381890
 11
801.50000000
 21
260.12500000
  0
LINE
  8
LAYER_4
 10
801.50000000
 20
260.12500000
 11
786.50000000
 21
299.50000000
  0
LINE
  8
LAYER_4
 10
789.97859252
 20
294.40477362
 11
786.50000000
 21
299.50000000
  0
LINE
  8
LAYER_4
 10
787.29306102
 20
293.38164370
 11
786.50000000
 21
299.50000000
  0
LINE
  8
LAYER_4
 10
557.23277559
 20
503.00000000
 11
556.87500000
 21
495.25000000
  0
LINE
  8
LAYER_4
 10
556.87500000
 20
495.25000000
 11
570.50000000
 21
489.12500000
  0
LINE
  8
LAYER_4
 10
564.43848425
 20
490.27436024
 11
570.50000000
 21
489.12500000
  0
LINE
  8
LAYER_4
 10
565.61663386
 20
492.89542323
 11
570.50000000
 21
489.12500000
  0
LINE
  8
LAYER_4
 10
782.23277559
 20
444.62500000
 11
781.00000000
 21
439.25000000
  0
LINE
  8
LAYER_4
 10
781.00000000
 20
439.25000000
 11
781.00000000
 21
432.12500000
  0
LINE
  8
LAYER_4
 10
779.56299213
 20
438.12500000
 11
781.00000000
 21
432.12500000
  0
LINE
  8
LAYER_4
 10
782.43700787
 20
438.12500000
 11
781.00000000
 21
432.12500000
  0
ENDSEC
  0
EOF
