  0
SECTION
  2
HEADER
  9
$LIMMIN
 10
0.00000000
 20
0.00000000
  9
$LIMMAX
 10
1920.00000000
 20
1284.00000000
  9
$EXTMIN
 10
0.00000000
 20
0.00000000
  9
$EXTMAX
 10
1920.00000000
 20
1284.00000000
  9
$LUNITS
 70
4
  0
ENDSEC
  0
SECTION
  2
TABLES
  0
TABLE
  2
LTYPE
 70
5
  0
LTYPE
  2
LARGE
 70
64
  3
___   ___
 72
65
 73
2
 40
20.00000000
 49
10.00000000
 49
-10.00000000
  0
LTYPE
  2
MEDIUM
 70
64
  3
__  __
 72
65
 73
2
 40
10.00000000
 49
5.00000000
 49
-5.00000000
  0
LTYPE
  2
SMALL
 70
64
  3
_ _
 72
65
 73
2
 40
5.00000000
 49
2.00000000
 49
-3.00000000
  0
LTYPE
  2
DASHDOT
 70
64
  3
___ . ___
 72
65
 73
4
 40
21.00000000
 49
15.00000000
 49
-3.00000000
 49
0.00000000
 49
-3.00000000
  0
LTYPE
  2
LONG
 70
64
  3
____ ____
 72
65
 73
2
 40
18.00000000
 49
14.00000000
 49
-4.00000000
  0
ENDTAB
  0
TABLE
  2
LAYER
 70
15
  0
LAYER
  2
LAYER_1
 70
0
 62
1
  6
CONTINUOUS
  0
LAYER
  2
LAYER_2
 70
0
 62
2
  6
CONTINUOUS
  0
LAYER
  2
LAYER_3
 70
0
 62
3
  6
CONTINUOUS
  0
LAYER
  2
LAYER_4
 70
0
 62
4
  6
CONTINUOUS
  0
LAYER
  2
LAYER_5
 70
0
 62
5
  6
CONTINUOUS
  0
LAYER
  2
LAYER_6
 70
0
 62
6
  6
CONTINUOUS
  0
LAYER
  2
LAYER_7
 70
0
 62
7
  6
CONTINUOUS
  0
LAYER
  2
LAYER_8
 70
0
 62
8
  6
CONTINUOUS
  0
LAYER
  2
LAYER_9
 70
0
 62
9
  6
CONTINUOUS
  0
LAYER
  2
LAYER_10
 70
0
 62
10
  6
CONTINUOUS
  0
LAYER
  2
LAYER_11
 70
0
 62
11
  6
CONTINUOUS
  0
LAYER
  2
LAYER_12
 70
0
 62
12
  6
CONTINUOUS
  0
LAYER
  2
LAYER_13
 70
0
 62
13
  6
CONTINUOUS
  0
LAYER
  2
LAYER_14
 70
0
 62
14
  6
CONTINUOUS
  0
LAYER
  2
LAYER_15
 70
0
 62
15
  6
CONTINUOUS
  0
ENDTAB
  0
ENDSEC
  0
SECTION
  2
ENTITIES
  0
TEXT
  1
REAR SHED ROOF
  7
SPHAND
  8
LAYER_12
 10
552.12500000
 20
562.93750000
 40
3.82048149
 50
0.00000000
  0
TEXT
  1
DORMER ROOF
  7
SPHAND
  8
LAYER_12
 10
536.18750000
 20
361.00000000
 40
3.82048149
 50
90.00000000
  0
TEXT
  1
DORMER ROOF
  7
SPHAND
  8
LAYER_12
 10
654.68750000
 20
361.00000000
 40
3.82048149
 50
90.00000000
  0
TEXT
  1
DORMER ROOF
  7
SPHAND
  8
LAYER_12
 10
773.18750000
 20
361.00000000
 40
3.82048149
 50
90.00000000
  0
TEXT
  1
RIDGE
  7
SPHAND
  8
LAYER_12
 10
697.50000000
 20
475.93750000
 40
3.82048149
 50
0.00000000
  0
TEXT
  1
RIDGE
  7
SPHAND
  8
LAYER_12
 10
506.18750000
 20
388.25000000
 40
3.82048149
 50
90.00000000
  0
TEXT
  1
RIDGE
  7
SPHAND
  8
LAYER_12
 10
625.81250000
 20
388.25000000
 40
3.82048149
 50
90.00000000
  0
TEXT
  1
RIDGE
  7
SPHAND
  8
LAYER_12
 10
745.43750000
 20
388.25000000
 40
3.82048149
 50
90.00000000
  0
LINE
  8
LAYER_2
 10
423.37500000
 20
634.50000000
 11
423.37500000
 21
314.50000000
  0
LINE
  8
LAYER_2
 10
831.37500000
 20
634.50000000
 11
831.37500000
 21
314.50000000
  0
LINE
  8
LAYER_2
 10
423.37500000
 20
314.50000000
 11
831.37500000
 21
314.50000000
  0
LINE
  8
LAYER_2
 10
423.37500000
 20
634.50000000
 11
831.37500000
 21
634.50000000
  0
LINE
  8
LAYER_2
 10
423.37500000
 20
474.50000000
 11
831.37500000
 21
474.50000000
  0
LINE
  8
LAYER_2
 10
467.37500000
 20
353.50000000
 11
548.37500000
 21
353.50000000
  0
LINE
  8
LAYER_2
 10
467.37500000
 20
429.75000000
 11
467.37500000
 21
353.50000000
  0
LINE
  8
LAYER_2
 10
548.37500000
 20
429.75000000
 11
548.37500000
 21
353.50000000
  0
LINE
  8
LAYER_2
 10
507.75000000
 20
471.12500000
 11
548.37500000
 21
430.50000000
  0
LINE
  8
LAYER_2
 10
467.37500000
 20
430.50000000
 11
507.87500000
 21
471.12500000
  0
LINE
  8
LAYER_2
 10
507.87500000
 20
470.37500000
 11
507.87500000
 21
353.50000000
  0
LINE
  8
LAYER_2
 10
467.37500000
 20
429.75000000
 11
548.37500000
 21
429.75000000
  0
LINE
  8
LAYER_2
 10
586.87500000
 20
353.50000000
 11
667.87500000
 21
353.50000000
  0
LINE
  8
LAYER_2
 10
586.87500000
 20
430.50000000
 11
586.87500000
 21
353.50000000
  0
LINE
  8
LAYER_2
 10
667.87500000
 20
430.50000000
 11
667.87500000
 21
353.50000000
  0
LINE
  8
LAYER_2
 10
627.25000000
 20
471.12500000
 11
667.87500000
 21
430.50000000
  0
LINE
  8
LAYER_2
 10
586.87500000
 20
430.50000000
 11
627.37500000
 21
471.12500000
  0
LINE
  8
LAYER_2
 10
627.37500000
 20
471.00000000
 11
627.37500000
 21
353.50000000
  0
LINE
  8
LAYER_2
 10
706.37500000
 20
353.50000000
 11
787.37500000
 21
353.50000000
  0
LINE
  8
LAYER_2
 10
706.37500000
 20
430.50000000
 11
706.37500000
 21
353.50000000
  0
LINE
  8
LAYER_2
 10
787.37500000
 20
430.50000000
 11
787.37500000
 21
353.50000000
  0
LINE
  8
LAYER_2
 10
746.75000000
 20
471.12500000
 11
787.37500000
 21
430.50000000
  0
LINE
  8
LAYER_2
 10
706.37500000
 20
430.50000000
 11
746.87500000
 21
471.12500000
  0
LINE
  8
LAYER_2
 10
746.87500000
 20
470.37500000
 11
746.87500000
 21
353.50000000
  0
LINE
  8
LAYER_2
 10
490.87500000
 20
630.37500000
 11
490.87500000
 21
480.37500000
  0
LINE
  8
LAYER_2
 10
490.87500000
 20
630.37500000
 11
666.37500000
 21
630.37500000
  0
LINE
  8
LAYER_2
 10
666.37500000
 20
630.37500000
 11
666.37500000
 21
480.37500000
  0
LINE
  8
LAYER_2
 10
423.37500000
 20
348.50000000
 11
831.37500000
 21
348.50000000
  0
LINE
  8
LAYER_2
 10
667.87500000
 20
382.50000000
 11
705.87500000
 21
382.50000000
  0
LINE
  8
LAYER_2
 10
667.87500000
 20
416.50000000
 11
705.87500000
 21
416.50000000
  0
LINE
  8
LAYER_2
 10
647.87500000
 20
450.50000000
 11
726.37500000
 21
450.50000000
  0
LINE
  8
LAYER_2
 10
423.25000000
 20
382.50000000
 11
467.37500000
 21
382.50000000
  0
LINE
  8
LAYER_2
 10
548.37500000
 20
382.50000000
 11
586.87500000
 21
382.50000000
  0
LINE
  8
LAYER_2
 10
787.37500000
 20
382.50000000
 11
831.50000000
 21
382.50000000
  0
LINE
  8
LAYER_2
 10
423.37500000
 20
416.50000000
 11
467.37500000
 21
416.50000000
  0
LINE
  8
LAYER_2
 10
548.37500000
 20
416.50000000
 11
586.87500000
 21
416.50000000
  0
LINE
  8
LAYER_2
 10
787.37500000
 20
416.50000000
 11
831.37500000
 21
416.50000000
  0
LINE
  8
LAYER_2
 10
767.37500000
 20
450.50000000
 11
831.37500000
 21
450.50000000
  0
LINE
  8
LAYER_2
 10
528.37500000
 20
450.50000000
 11
606.87500000
 21
450.50000000
  0
LINE
  8
LAYER_2
 10
423.37500000
 20
450.50000000
 11
487.37500000
 21
450.50000000
  0
LINE
  8
LAYER_2
 10
620.87500000
 20
464.62500000
 11
620.87500000
 21
353.50000000
  0
LINE
  8
LAYER_2
 10
633.87500000
 20
464.50000000
 11
633.87500000
 21
353.50000000
  0
LINE
  8
LAYER_2
 10
586.87500000
 20
429.75000000
 11
667.87500000
 21
429.75000000
  0
LINE
  8
LAYER_2
 10
770.62500000
 20
348.50000000
 11
770.62500000
 21
314.50000000
  0
LINE
  8
LAYER_2
 10
674.62500000
 20
348.50000000
 11
674.62500000
 21
314.50000000
  0
LINE
  8
LAYER_2
 10
578.62500000
 20
348.50000000
 11
578.62500000
 21
314.50000000
  0
LINE
  8
LAYER_2
 10
482.62500000
 20
348.50000000
 11
482.62500000
 21
314.50000000
  0
LINE
  8
LAYER_2
 10
722.62500000
 20
353.50000000
 11
722.62500000
 21
348.50000000
  0
LINE
  8
LAYER_2
 10
674.62500000
 20
416.50000000
 11
674.62500000
 21
382.50000000
  0
LINE
  8
LAYER_2
 10
578.62500000
 20
480.37500000
 11
578.62500000
 21
450.50000000
  0
LINE
  8
LAYER_2
 10
626.62500000
 20
353.50000000
 11
626.62500000
 21
348.50000000
  0
LINE
  8
LAYER_2
 10
530.62500000
 20
353.50000000
 11
530.62500000
 21
348.50000000
  0
LINE
  8
LAYER_2
 10
434.62500000
 20
382.50000000
 11
434.62500000
 21
348.50000000
  0
LINE
  8
LAYER_2
 10
578.62500000
 20
416.50000000
 11
578.62500000
 21
382.50000000
  0
LINE
  8
LAYER_2
 10
722.62500000
 20
450.50000000
 11
722.62500000
 21
446.75000000
  0
LINE
  8
LAYER_2
 10
770.62500000
 20
498.50000000
 11
770.62500000
 21
450.50000000
  0
LINE
  8
LAYER_2
 10
818.62500000
 20
450.50000000
 11
818.62500000
 21
416.50000000
  0
LINE
  8
LAYER_2
 10
674.62500000
 20
498.50000000
 11
674.62500000
 21
450.50000000
  0
LINE
  8
LAYER_2
 10
482.62500000
 20
498.50000000
 11
482.62500000
 21
450.50000000
  0
LINE
  8
LAYER_2
 10
706.37500000
 20
429.75000000
 11
787.37500000
 21
429.75000000
  0
LINE
  8
LAYER_2
 10
740.37500000
 20
464.62500000
 11
740.37500000
 21
353.50000000
  0
LINE
  8
LAYER_2
 10
753.37500000
 20
464.50000000
 11
753.37500000
 21
353.50000000
  0
LINE
  8
LAYER_2
 10
818.62500000
 20
382.50000000
 11
818.62500000
 21
348.50000000
  0
LINE
  8
LAYER_2
 10
434.62500000
 20
450.50000000
 11
434.62500000
 21
416.50000000
  0
LINE
  8
LAYER_2
 10
501.37500000
 20
464.87500000
 11
501.37500000
 21
353.50000000
  0
LINE
  8
LAYER_2
 10
514.37500000
 20
464.37500000
 11
514.37500000
 21
353.50000000
  0
LINE
  8
LAYER_2
 10
423.50000000
 20
600.50000000
 11
490.75000000
 21
600.50000000
  0
LINE
  8
LAYER_2
 10
423.75000000
 20
566.50000000
 11
491.12500000
 21
566.50000000
  0
LINE
  8
LAYER_2
 10
424.50000000
 20
532.50000000
 11
490.62500000
 21
532.50000000
  0
LINE
  8
LAYER_2
 10
423.37500000
 20
498.50000000
 11
490.75000000
 21
498.50000000
  0
LINE
  8
LAYER_2
 10
666.50000000
 20
600.50000000
 11
831.37500000
 21
600.50000000
  0
LINE
  8
LAYER_2
 10
666.50000000
 20
566.50000000
 11
831.37500000
 21
566.50000000
  0
LINE
  8
LAYER_2
 10
666.37500000
 20
532.50000000
 11
831.37500000
 21
532.50000000
  0
LINE
  8
LAYER_2
 10
666.25000000
 20
498.50000000
 11
831.37500000
 21
498.50000000
  0
LINE
  8
LAYER_2
 10
490.87500000
 20
584.87500000
 11
666.37500000
 21
584.87500000
  0
LINE
  8
LAYER_2
 10
490.87500000
 20
539.37500000
 11
666.37500000
 21
539.37500000
  0
LINE
  8
LAYER_2
 10
490.87500000
 20
493.87500000
 11
666.37500000
 21
493.87500000
  0
LINE
  8
LAYER_2
 10
490.87500000
 20
480.37500000
 11
666.37500000
 21
480.37500000
  0
LINE
  8
LAYER_2
 10
551.62500000
 20
630.37500000
 11
551.62500000
 21
584.87500000
  0
LINE
  8
LAYER_2
 10
647.62500000
 20
630.37500000
 11
647.62500000
 21
584.87500000
  0
LINE
  8
LAYER_2
 10
599.75000000
 20
584.87500000
 11
599.75000000
 21
539.37500000
  0
LINE
  8
LAYER_2
 10
647.87500000
 20
539.37500000
 11
647.87500000
 21
493.87500000
  0
LINE
  8
LAYER_2
 10
503.75000000
 20
584.87500000
 11
503.75000000
 21
539.37500000
  0
LINE
  8
LAYER_2
 10
551.75000000
 20
539.37500000
 11
551.75000000
 21
493.87500000
  0
LINE
  8
LAYER_2
 10
503.75000000
 20
493.87500000
 11
503.75000000
 21
480.37500000
  0
LINE
  8
LAYER_2
 10
599.75000000
 20
493.87500000
 11
599.75000000
 21
480.37500000
  0
LINE
  8
LAYER_2
 10
770.62500000
 20
634.50000000
 11
770.62500000
 21
600.50000000
  0
LINE
  8
LAYER_2
 10
674.62500000
 20
634.50000000
 11
674.62500000
 21
600.50000000
  0
LINE
  8
LAYER_2
 10
578.62500000
 20
634.50000000
 11
578.62500000
 21
630.50000000
  0
LINE
  8
LAYER_2
 10
482.62500000
 20
634.50000000
 11
482.62500000
 21
600.50000000
  0
LINE
  8
LAYER_2
 10
722.62500000
 20
600.50000000
 11
722.62500000
 21
566.50000000
  0
LINE
  8
LAYER_2
 10
674.62500000
 20
566.50000000
 11
674.62500000
 21
532.50000000
  0
LINE
  8
LAYER_2
 10
770.62500000
 20
566.50000000
 11
770.62500000
 21
532.50000000
  0
LINE
  8
LAYER_2
 10
722.62500000
 20
532.50000000
 11
722.62500000
 21
498.50000000
  0
LINE
  8
LAYER_2
 10
818.62500000
 20
600.50000000
 11
818.62500000
 21
566.50000000
  0
LINE
  8
LAYER_2
 10
818.62500000
 20
532.50000000
 11
818.62500000
 21
498.50000000
  0
LINE
  8
LAYER_2
 10
434.62500000
 20
532.50000000
 11
434.62500000
 21
498.50000000
  0
LINE
  8
LAYER_2
 10
434.62500000
 20
600.50000000
 11
434.62500000
 21
566.50000000
  0
LINE
  8
LAYER_2
 10
482.62500000
 20
566.50000000
 11
482.62500000
 21
532.50000000
  0
LINE
  8
LAYER_2
 10
530.62500000
 20
450.50000000
 11
530.62500000
 21
448.00000000
  0
LINE
  8
LAYER_2
 10
597.75000000
 20
564.25000000
 11
665.62500000
 21
564.25000000
  0
LINE
  8
LAYER_2
 10
659.62500000
 20
562.81299213
 11
665.62500000
 21
564.25000000
  0
LINE
  8
LAYER_2
 10
659.62500000
 20
565.68700787
 11
665.62500000
 21
564.25000000
  0
LINE
  8
LAYER_2
 10
575.50000000
 20
629.62500000
 11
575.50000000
 21
568.50000000
  0
LINE
  8
LAYER_2
 10
576.93700787
 20
623.62500000
 11
575.50000000
 21
629.62500000
  0
LINE
  8
LAYER_2
 10
574.06299213
 20
623.62500000
 11
575.50000000
 21
629.62500000
  0
LINE
  8
LAYER_2
 10
575.50000000
 20
560.25000000
 11
575.50000000
 21
480.50000000
  0
LINE
  8
LAYER_2
 10
574.06299213
 20
486.50000000
 11
575.50000000
 21
480.50000000
  0
LINE
  8
LAYER_2
 10
576.93700787
 20
486.50000000
 11
575.50000000
 21
480.50000000
  0
LINE
  8
LAYER_2
 10
491.37500000
 20
565.00000000
 11
551.25000000
 21
565.00000000
  0
LINE
  8
LAYER_2
 10
497.37500000
 20
566.43700787
 11
491.37500000
 21
565.00000000
  0
LINE
  8
LAYER_2
 10
497.37500000
 20
563.56299213
 11
491.37500000
 21
565.00000000
  0
LINE
  8
LAYER_11
 10
674.62500000
 20
612.37500000
 11
770.62500000
 21
612.37500000
  0
LINE
  8
LAYER_11
 10
768.87500000
 20
610.62500000
 11
772.37500000
 21
614.12500000
  0
LINE
  8
LAYER_11
 10
769.12500000
 20
610.62500000
 11
772.62500000
 21
614.12500000
  0
LINE
  8
LAYER_11
 10
768.62500000
 20
610.62500000
 11
772.12500000
 21
614.12500000
  0
LINE
  8
LAYER_11
 10
676.37500000
 20
614.12500000
 11
672.87500000
 21
610.62500000
  0
LINE
  8
LAYER_11
 10
676.12500000
 20
614.12500000
 11
672.62500000
 21
610.62500000
  0
LINE
  8
LAYER_11
 10
676.62500000
 20
614.12500000
 11
673.12500000
 21
610.62500000
  0
TEXT
  1
8' 0"
  7
SPSIMP
  8
LAYER_11
 10
713.81250000
 20
617.18750000
 40
4.24501086
 50
0.00000000
  0
LINE
  8
LAYER_11
 10
770.62500000
 20
612.37500000
 11
831.06250000
 21
612.37500000
  0
LINE
  8
LAYER_11
 10
829.31250000
 20
610.62500000
 11
832.81250000
 21
614.12500000
  0
LINE
  8
LAYER_11
 10
829.56250000
 20
610.62500000
 11
833.06250000
 21
614.12500000
  0
LINE
  8
LAYER_11
 10
829.06250000
 20
610.62500000
 11
832.56250000
 21
614.12500000
  0
LINE
  8
LAYER_11
 10
772.37500000
 20
614.12500000
 11
768.87500000
 21
610.62500000
  0
LINE
  8
LAYER_11
 10
772.12500000
 20
614.12500000
 11
768.62500000
 21
610.62500000
  0
LINE
  8
LAYER_11
 10
772.62500000
 20
614.12500000
 11
769.12500000
 21
610.62500000
  0
TEXT
  1
5' 0 7/16"
  7
SPSIMP
  8
LAYER_11
 10
781.87500000
 20
617.18750000
 40
4.24501086
 50
0.00000000
  0
LINE
  8
LAYER_11
 10
722.62500000
 20
581.50000000
 11
818.62500000
 21
581.50000000
  0
LINE
  8
LAYER_11
 10
816.87500000
 20
579.75000000
 11
820.37500000
 21
583.25000000
  0
LINE
  8
LAYER_11
 10
817.12500000
 20
579.75000000
 11
820.62500000
 21
583.25000000
  0
LINE
  8
LAYER_11
 10
816.62500000
 20
579.75000000
 11
820.12500000
 21
583.25000000
  0
LINE
  8
LAYER_11
 10
724.37500000
 20
583.25000000
 11
720.87500000
 21
579.75000000
  0
LINE
  8
LAYER_11
 10
724.12500000
 20
583.25000000
 11
720.62500000
 21
579.75000000
  0
LINE
  8
LAYER_11
 10
724.62500000
 20
583.25000000
 11
721.12500000
 21
579.75000000
  0
TEXT
  1
8' 0"
  7
SPSIMP
  8
LAYER_11
 10
761.81250000
 20
586.31250000
 40
4.24501086
 50
0.00000000
  0
LINE
  8
LAYER_11
 10
818.62500000
 20
581.50000000
 11
831.06250000
 21
581.50000000
  0
LINE
  8
LAYER_11
 10
829.31250000
 20
579.75000000
 11
832.81250000
 21
583.25000000
  0
LINE
  8
LAYER_11
 10
829.56250000
 20
579.75000000
 11
833.06250000
 21
583.25000000
  0
LINE
  8
LAYER_11
 10
829.06250000
 20
579.75000000
 11
832.56250000
 21
583.25000000
  0
LINE
  8
LAYER_11
 10
820.37500000
 20
583.25000000
 11
816.87500000
 21
579.75000000
  0
LINE
  8
LAYER_11
 10
820.12500000
 20
583.25000000
 11
816.62500000
 21
579.75000000
  0
LINE
  8
LAYER_11
 10
820.62500000
 20
583.25000000
 11
817.12500000
 21
579.75000000
  0
TEXT
  1
1' 0 7/16"
  7
SPSIMP
  8
LAYER_11
 10
824.06250000
 20
586.31250000
 40
4.24501086
 50
0.00000000
  0
LINE
  8
LAYER_11
 10
423.68750000
 20
323.25000000
 11
482.62500000
 21
323.25000000
  0
LINE
  8
LAYER_11
 10
480.87500000
 20
321.50000000
 11
484.37500000
 21
325.00000000
  0
LINE
  8
LAYER_11
 10
481.12500000
 20
321.50000000
 11
484.62500000
 21
325.00000000
  0
LINE
  8
LAYER_11
 10
480.62500000
 20
321.50000000
 11
484.12500000
 21
325.00000000
  0
LINE
  8
LAYER_11
 10
425.43750000
 20
325.00000000
 11
421.93750000
 21
321.50000000
  0
LINE
  8
LAYER_11
 10
425.18750000
 20
325.00000000
 11
421.68750000
 21
321.50000000
  0
LINE
  8
LAYER_11
 10
425.68750000
 20
325.00000000
 11
422.18750000
 21
321.50000000
  0
TEXT
  1
4' 10 15/16"
  7
SPSIMP
  8
LAYER_11
 10
430.50000000
 20
328.06250000
 40
4.24501086
 50
0.00000000
  0
LINE
  8
LAYER_11
 10
482.62500000
 20
323.25000000
 11
578.62500000
 21
323.25000000
  0
LINE
  8
LAYER_11
 10
576.87500000
 20
321.50000000
 11
580.37500000
 21
325.00000000
  0
LINE
  8
LAYER_11
 10
577.12500000
 20
321.50000000
 11
580.62500000
 21
325.00000000
  0
LINE
  8
LAYER_11
 10
576.62500000
 20
321.50000000
 11
580.12500000
 21
325.00000000
  0
LINE
  8
LAYER_11
 10
484.37500000
 20
325.00000000
 11
480.87500000
 21
321.50000000
  0
LINE
  8
LAYER_11
 10
484.12500000
 20
325.00000000
 11
480.62500000
 21
321.50000000
  0
LINE
  8
LAYER_11
 10
484.62500000
 20
325.00000000
 11
481.12500000
 21
321.50000000
  0
TEXT
  1
8' 0"
  7
SPSIMP
  8
LAYER_11
 10
521.81250000
 20
328.06250000
 40
4.24501086
 50
0.00000000
  0
LINE
  8
LAYER_11
 10
578.62500000
 20
323.25000000
 11
674.62500000
 21
323.25000000
  0
LINE
  8
LAYER_11
 10
672.87500000
 20
321.50000000
 11
676.37500000
 21
325.00000000
  0
LINE
  8
LAYER_11
 10
673.12500000
 20
321.50000000
 11
676.62500000
 21
325.00000000
  0
LINE
  8
LAYER_11
 10
672.62500000
 20
321.50000000
 11
676.12500000
 21
325.00000000
  0
LINE
  8
LAYER_11
 10
580.37500000
 20
325.00000000
 11
576.87500000
 21
321.50000000
  0
LINE
  8
LAYER_11
 10
580.12500000
 20
325.00000000
 11
576.62500000
 21
321.50000000
  0
LINE
  8
LAYER_11
 10
580.62500000
 20
325.00000000
 11
577.12500000
 21
321.50000000
  0
TEXT
  1
8' 0"
  7
SPSIMP
  8
LAYER_11
 10
617.81250000
 20
328.06250000
 40
4.24501086
 50
0.00000000
  0
LINE
  8
LAYER_11
 10
674.62500000
 20
323.25000000
 11
770.62500000
 21
323.25000000
  0
LINE
  8
LAYER_11
 10
768.87500000
 20
321.50000000
 11
772.37500000
 21
325.00000000
  0
LINE
  8
LAYER_11
 10
769.12500000
 20
321.50000000
 11
772.62500000
 21
325.00000000
  0
LINE
  8
LAYER_11
 10
768.62500000
 20
321.50000000
 11
772.12500000
 21
325.00000000
  0
LINE
  8
LAYER_11
 10
676.37500000
 20
325.00000000
 11
672.87500000
 21
321.50000000
  0
LINE
  8
LAYER_11
 10
676.12500000
 20
325.00000000
 11
672.62500000
 21
321.50000000
  0
LINE
  8
LAYER_11
 10
676.62500000
 20
325.00000000
 11
673.12500000
 21
321.50000000
  0
TEXT
  1
8' 0"
  7
SPSIMP
  8
LAYER_11
 10
713.81250000
 20
328.06250000
 40
4.24501086
 50
0.00000000
  0
LINE
  8
LAYER_11
 10
770.62500000
 20
323.25000000
 11
831.06250000
 21
323.25000000
  0
LINE
  8
LAYER_11
 10
829.31250000
 20
321.50000000
 11
832.81250000
 21
325.00000000
  0
LINE
  8
LAYER_11
 10
829.56250000
 20
321.50000000
 11
833.06250000
 21
325.00000000
  0
LINE
  8
LAYER_11
 10
829.06250000
 20
321.50000000
 11
832.56250000
 21
325.00000000
  0
LINE
  8
LAYER_11
 10
772.37500000
 20
325.00000000
 11
768.87500000
 21
321.50000000
  0
LINE
  8
LAYER_11
 10
772.12500000
 20
325.00000000
 11
768.62500000
 21
321.50000000
  0
LINE
  8
LAYER_11
 10
772.62500000
 20
325.00000000
 11
769.12500000
 21
321.50000000
  0
TEXT
  1
5' 0 7/16"
  7
SPSIMP
  8
LAYER_11
 10
781.87500000
 20
328.06250000
 40
4.24501086
 50
0.00000000
  0
LINE
  8
LAYER_11
 10
423.68750000
 20
611.87500000
 11
482.62500000
 21
611.87500000
  0
LINE
  8
LAYER_11
 10
480.87500000
 20
610.12500000
 11
484.37500000
 21
613.62500000
  0
LINE
  8
LAYER_11
 10
481.12500000
 20
610.12500000
 11
484.62500000
 21
613.62500000
  0
LINE
  8
LAYER_11
 10
480.62500000
 20
610.12500000
 11
484.12500000
 21
613.62500000
  0
LINE
  8
LAYER_11
 10
425.43750000
 20
613.62500000
 11
421.93750000
 21
610.12500000
  0
LINE
  8
LAYER_11
 10
425.18750000
 20
613.62500000
 11
421.68750000
 21
610.12500000
  0
LINE
  8
LAYER_11
 10
425.68750000
 20
613.62500000
 11
422.18750000
 21
610.12500000
  0
TEXT
  1
4' 10 15/16"
  7
SPSIMP
  8
LAYER_11
 10
430.50000000
 20
616.68750000
 40
4.24501086
 50
0.00000000
  0
ENDSEC
  0
EOF
