  0
SECTION
  2
HEADER
  9
$LIMMIN
 10
0.00000000
 20
0.00000000
  9
$LIMMAX
 10
1920.00000000
 20
1284.00000000
  9
$EXTMIN
 10
0.00000000
 20
0.00000000
  9
$EXTMAX
 10
1920.00000000
 20
1284.00000000
  9
$LUNITS
 70
4
  0
ENDSEC
  0
SECTION
  2
TABLES
  0
TABLE
  2
LTYPE
 70
5
  0
LTYPE
  2
LARGE
 70
64
  3
___   ___
 72
65
 73
2
 40
20.00000000
 49
10.00000000
 49
-10.00000000
  0
LTYPE
  2
MEDIUM
 70
64
  3
__  __
 72
65
 73
2
 40
10.00000000
 49
5.00000000
 49
-5.00000000
  0
LTYPE
  2
SMALL
 70
64
  3
_ _
 72
65
 73
2
 40
5.00000000
 49
2.00000000
 49
-3.00000000
  0
LTYPE
  2
DASHDOT
 70
64
  3
___ . ___
 72
65
 73
4
 40
21.00000000
 49
15.00000000
 49
-3.00000000
 49
0.00000000
 49
-3.00000000
  0
LTYPE
  2
LONG
 70
64
  3
____ ____
 72
65
 73
2
 40
18.00000000
 49
14.00000000
 49
-4.00000000
  0
ENDTAB
  0
TABLE
  2
LAYER
 70
15
  0
LAYER
  2
LAYER_1
 70
0
 62
1
  6
CONTINUOUS
  0
LAYER
  2
LAYER_2
 70
0
 62
2
  6
CONTINUOUS
  0
LAYER
  2
LAYER_3
 70
0
 62
3
  6
CONTINUOUS
  0
LAYER
  2
LAYER_4
 70
0
 62
4
  6
CONTINUOUS
  0
LAYER
  2
LAYER_5
 70
0
 62
5
  6
CONTINUOUS
  0
LAYER
  2
LAYER_6
 70
0
 62
6
  6
CONTINUOUS
  0
LAYER
  2
LAYER_7
 70
0
 62
7
  6
CONTINUOUS
  0
LAYER
  2
LAYER_8
 70
0
 62
8
  6
CONTINUOUS
  0
LAYER
  2
LAYER_9
 70
0
 62
9
  6
CONTINUOUS
  0
LAYER
  2
LAYER_10
 70
0
 62
10
  6
CONTINUOUS
  0
LAYER
  2
LAYER_11
 70
0
 62
11
  6
CONTINUOUS
  0
LAYER
  2
LAYER_12
 70
0
 62
12
  6
CONTINUOUS
  0
LAYER
  2
LAYER_13
 70
0
 62
13
  6
CONTINUOUS
  0
LAYER
  2
LAYER_14
 70
0
 62
14
  6
CONTINUOUS
  0
LAYER
  2
LAYER_15
 70
0
 62
15
  6
CONTINUOUS
  0
ENDTAB
  0
ENDSEC
  0
SECTION
  2
ENTITIES
  0
LINE
  8
LAYER_3
 10
-288.75000000
 20
2117.25000000
 11
-323.00000000
 21
2117.25000000
  0
LINE
  8
LAYER_3
 10
-283.75000000
 20
2217.75000000
 11
-323.00000000
 21
2217.75000000
  0
LINE
  8
LAYER_3
 10
-283.75000000
 20
2227.25000000
 11
-323.00000000
 21
2227.25000000
  0
LINE
  8
LAYER_3
 10
-185.75000000
 20
2323.25000000
 11
-323.00000000
 21
2323.25000000
  0
TEXT
  1
TYPICAL FLOOR
  7
SPHAND
  8
LAYER_4
 10
-218.00000000
 20
2256.93750000
 40
3.39595212
 50
0.00000000
  0
LINE
  8
LAYER_4
 10
-218.00000000
 20
2255.45054134
 11
-176.37500000
 21
2255.45054134
  0
TEXT
  1
5/8" T&G SUBFLOOR
  7
SPHAND
  8
LAYER_12
 10
-218.00000000
 20
2250.68750000
 40
3.39595212
 50
0.00000000
  0
TEXT
  1
2X10 FLOOR JOISTS @ 16" O.C.
  7
SPHAND
  8
LAYER_12
 10
-218.00000000
 20
2244.93750000
 40
3.39595212
 50
0.00000000
  0
TEXT
  1
2x2 CROSS BRIDGING
  7
SPHAND
  8
LAYER_12
 10
-218.00000000
 20
2238.43750000
 40
3.39595212
 50
0.00000000
  0
TEXT
  1
4x4 WOOD
  7
SPHAND
  8
LAYER_12
 10
-131.12500000
 20
2300.81250000
 40
3.39595212
 50
0.00000000
  0
TEXT
  1
COLUMN
  7
SPHAND
  8
LAYER_12
 10
-131.12500000
 20
2295.43750000
 40
3.39595212
 50
0.00000000
  0
TEXT
  1
2x6 SILL PLATE  TYP.
  7
SPHAND
  8
LAYER_12
 10
-75.75000000
 20
2243.81250000
 40
3.39595212
 50
0.00000000
  0
TEXT
  1
4-2x10 BEAM
  7
SPHAND
  8
LAYER_12
 10
-121.25000000
 20
2210.81250000
 40
3.39595212
 50
0.00000000
  0
TEXT
  1
STEEL SUPPORT COLUMN
  7
SPHAND
  8
LAYER_12
 10
-125.50000000
 20
2188.18750000
 40
3.39595212
 50
0.00000000
  0
TEXT
  1
2x4 COLLAR TIES
  7
SPHAND
  8
LAYER_12
 10
-184.37500000
 20
2303.68750000
 40
3.39595212
 50
0.00000000
  0
TEXT
  1
@ 16" O.C.
  7
SPHAND
  8
LAYER_12
 10
-182.25000000
 20
2298.93750000
 40
3.39595212
 50
0.00000000
  0
TEXT
  1
2x10 RIDGE BOARD
  7
SPHAND
  8
LAYER_12
 10
-119.12500000
 20
2379.81250000
 40
3.39595212
 50
0.00000000
  0
TEXT
  1
3-2x10 RIDGE BEAM
  7
SPHAND
  8
LAYER_12
 10
-101.37500000
 20
2370.18750000
 40
3.39595212
 50
0.00000000
  0
TEXT
  1
CONCRETE FOOTING
  7
SPHAND
  8
LAYER_12
 10
-107.37500000
 20
2101.68750000
 40
3.39595212
 50
0.00000000
  0
TEXT
  1
TYPICAL GARAGE SLAB
  7
SPHAND
  8
LAYER_4
 10
-232.25000000
 20
2153.93750000
 40
3.39595212
 50
0.00000000
  0
LINE
  8
LAYER_4
 10
-232.25000000
 20
2152.45054134
 11
-169.50000000
 21
2152.45054134
  0
TEXT
  1
4" CONCRETE SLAB
  7
SPHAND
  8
LAYER_12
 10
-232.25000000
 20
2148.06250000
 40
3.39595212
 50
0.00000000
  0
TEXT
  1
# 10-6"X6" W.W. MESH
  7
SPHAND
  8
LAYER_12
 10
-232.25000000
 20
2142.81250000
 40
3.39595212
 50
0.00000000
  0
TEXT
  1
5" GRANULAR FILL
  7
SPHAND
  8
LAYER_12
 10
-232.25000000
 20
2137.06250000
 40
3.39595212
 50
0.00000000
  0
TEXT
  1
SLOPE TO GARAGE DOOR
  7
SPHAND
  8
LAYER_12
 10
-232.25000000
 20
2131.56250000
 40
3.39595212
 50
0.00000000
  0
TEXT
  1
12" PERIMETER CONCRETE FOOTING
  7
SPHAND
  8
LAYER_12
 10
-255.62500000
 20
2080.68750000
 40
3.39595212
 50
0.00000000
  0
TEXT
  1
FRONT DORMER OUTLINE
  7
SPHAND
  8
LAYER_12
 10
-252.25000000
 20
2368.43750000
 40
3.39595212
 50
0.00000000
  0
TEXT
  1
REAR DORMER OUTLINE
  7
SPHAND
  8
LAYER_12
 10
-32.37500000
 20
2351.18750000
 40
3.39595212
 50
0.00000000
  0
TEXT
  1
2x8 RAFTERS
  7
SPHAND
  8
LAYER_12
 10
-97.87500000
 20
2284.18750000
 40
3.39595212
 50
0.00000000
  0
TEXT
  1
@ 16" O.C.
  7
SPHAND
  8
LAYER_12
 10
-97.87500000
 20
2278.93750000
 40
3.39595212
 50
0.00000000
  0
TEXT
  1
2x6 RAFTERS @ 16" O.C.
  7
SPHAND
  8
LAYER_12
 10
-49.00000000
 20
2359.93750000
 40
3.39595212
 50
0.00000000
  0
TEXT
  1
P.T. SILL PLATE  TYP.
  7
SPHAND
  8
LAYER_12
 10
-71.75000000
 20
2130.43750000
 40
3.39595212
 50
0.00000000
  0
TEXT
  1
TYPICAL SECTION
  7
SPHAND
  8
LAYER_4
 10
-268.25000000
 20
2057.37500000
 40
8.06549235
 50
0.00000000
  0
TEXT
  1
16" TYPICAL
  7
SPSIMP
  8
LAYER_12
 10
-320.00000000
 20
2200.62500000
 40
3.39595212
 50
0.00000000
  0
TEXT
  1
OVERHANG
  7
SPSIMP
  8
LAYER_12
 10
-317.50000000
 20
2194.71604331
 40
3.39595212
 50
0.00000000
  0
LINE
  8
LAYER_2
 10
-135.75000000
 20
2379.75000000
 11
24.25000000
 21
2219.75000000
  0
LINE
  8
LAYER_2
 10
-295.75000000
 20
2219.75000000
 11
-135.75000000
 21
2379.75000000
  0
LINE
  8
LAYER_2
 10
-279.75000000
 20
2217.75000000
 11
8.25000000
 21
2217.75000000
  0
LINE
  8
LAYER_2
 10
-279.75000000
 20
2227.25000000
 11
8.25000000
 21
2227.25000000
  0
LINE
  8
LAYER_2
 10
8.25000000
 20
2227.25000000
 11
8.25000000
 21
2217.75000000
  0
LINE
  8
LAYER_2
 10
-279.75000000
 20
2227.25000000
 11
-279.75000000
 21
2217.75000000
  0
LINE
  8
LAYER_2
 10
-135.75000000
 20
2380.75000000
 11
24.99950787
 21
2219.87450787
  0
LINE
  8
LAYER_2
 10
-296.50000000
 20
2220.00000000
 11
-135.75000000
 21
2380.75000000
  0
LINE
  8
LAYER_2
 10
-133.50000000
 20
2366.87500000
 11
4.62500000
 21
2228.75000000
  0
LINE
  8
LAYER_2
 10
-176.25000000
 20
2328.75000000
 11
-95.25000000
 21
2328.75000000
  0
LINE
  8
LAYER_2
 10
-181.75000000
 20
2323.25000000
 11
-89.75000000
 21
2323.25000000
  0
LINE
  8
LAYER_2
 10
8.25000000
 20
2213.87500000
 11
25.00000000
 21
2213.87500000
  0
LINE
  8
LAYER_2
 10
-296.50000000
 20
2214.00000000
 11
-279.75000000
 21
2214.00000000
  0
LINE
  8
LAYER_2
 10
-291.00000000
 20
2214.00000000
 11
-277.75000000
 21
2227.25000000
  0
LINE
  8
LAYER_2
 10
-287.75000000
 20
2217.25000000
 11
-279.75000000
 21
2217.25000000
  0
LINE
  8
LAYER_2
  6
SMALL
 10
-295.62500000
 20
2217.25000000
 11
-287.75000000
 21
2217.25000000
  0
LINE
  8
LAYER_2
 10
8.25000000
 20
2217.12500000
 11
16.12500000
 21
2217.12500000
  0
LINE
  8
LAYER_2
  6
SMALL
 10
16.12500000
 20
2217.12500000
 11
24.37500000
 21
2217.12500000
  0
LINE
  8
LAYER_2
 10
6.12500000
 20
2227.25000000
 11
19.50000000
 21
2213.87500000
  0
LINE
  8
LAYER_2
 10
-276.25000000
 20
2228.75000000
 11
-138.12500000
 21
2367.00000000
  0
LINE
  8
LAYER_2
 10
-138.50000000
 20
2227.25000000
 11
-138.50000000
 21
2217.75000000
  0
LINE
  8
LAYER_2
  6
SMALL
 10
-133.00000000
 20
2227.25000000
 11
-133.00000000
 21
2217.75000000
  0
LINE
  8
LAYER_2
 10
-274.25000000
 20
2227.87500000
 11
2.75000000
 21
2227.87500000
  0
LINE
  8
LAYER_2
 10
-272.75000000
 20
2108.37500000
 11
-153.87500000
 21
2108.37500000
  0
LINE
  8
LAYER_2
 10
-153.75000000
 20
2105.50000000
 11
-153.75000000
 21
2096.25000000
  0
LINE
  8
LAYER_2
 10
-153.75000000
 20
2096.25000000
 11
-117.75000000
 21
2096.25000000
  0
LINE
  8
LAYER_2
 10
-117.75000000
 20
2105.37500000
 11
-117.75000000
 21
2096.25000000
  0
LINE
  8
LAYER_2
 10
-117.62500000
 20
2108.37500000
 11
1.25000000
 21
2108.37500000
  0
LINE
  8
LAYER_2
 10
-135.00000000
 20
2369.50000000
 11
-135.00000000
 21
2368.50000000
  0
LINE
  8
LAYER_2
 10
-136.50000000
 20
2369.50000000
 11
-136.50000000
 21
2368.50000000
  0
LINE
  8
LAYER_2
  6
SMALL
 10
-138.00000000
 20
2359.87500000
 11
-138.00000000
 21
2328.75000000
  0
LINE
  8
LAYER_2
  6
SMALL
 10
-133.50000000
 20
2359.87500000
 11
-133.50000000
 21
2328.75000000
  0
LINE
  8
LAYER_2
  6
SMALL
 10
-138.00000000
 20
2323.25000000
 11
-138.00000000
 21
2227.25000000
  0
LINE
  8
LAYER_2
  6
SMALL
 10
-133.50000000
 20
2323.25000000
 11
-133.50000000
 21
2227.25000000
  0
LINE
  8
LAYER_2
  6
MEDIUM
 10
-244.75000000
 20
2323.25000000
 11
-244.75000000
 21
2227.87500000
  0
LINE
  8
LAYER_2
  6
MEDIUM
 10
-241.25000000
 20
2323.25000000
 11
-241.25000000
 21
2227.87500000
  0
LINE
  8
LAYER_2
  6
MEDIUM
 10
-256.75000000
 20
2316.00000000
 11
-200.50000000
 21
2316.00000000
  0
LINE
  8
LAYER_2
  6
MEDIUM
 10
-256.75000000
 20
2373.12500000
 11
-256.75000000
 21
2316.00000000
  0
LINE
  8
LAYER_2
  6
MEDIUM
 10
-256.75000000
 20
2373.12500000
 11
-143.37500000
 21
2373.12500000
  0
LINE
  8
LAYER_2
  6
MEDIUM
 10
-256.75000000
 20
2322.00000000
 11
-194.62500000
 21
2322.00000000
  0
LINE
  8
LAYER_2
  6
MEDIUM
 10
-244.75000000
 20
2323.25000000
 11
-241.25000000
 21
2323.25000000
  0
LINE
  8
LAYER_2
  6
MEDIUM
 10
8.25000000
 20
2328.37500000
 11
8.25000000
 21
2227.25000000
  0
LINE
  8
LAYER_2
  6
MEDIUM
 10
-78.25000000
 20
2323.25000000
 11
8.25000000
 21
2323.25000000
  0
LINE
  8
LAYER_2
  6
MEDIUM
 10
20.25000000
 20
2324.37500000
 11
20.25000000
 21
2318.00000000
  0
LINE
  8
LAYER_2
  6
MEDIUM
 10
-134.87500000
 20
2369.75000000
 11
20.25000000
 21
2318.00000000
  0
LINE
  8
LAYER_2
  6
MEDIUM
 10
-83.62500000
 20
2328.75000000
 11
7.37500000
 21
2328.75000000
  0
LINE
  8
LAYER_2
  6
MEDIUM
 10
-134.87500000
 20
2376.25000000
 11
20.25000000
 21
2324.50000000
  0
LINE
  8
LAYER_2
  6
MEDIUM
 10
2.75000000
 20
2323.25000000
 11
2.75000000
 21
2228.87500000
  0
LINE
  8
LAYER_2
  6
SMALL
 10
-207.00000000
 20
2227.25000000
 11
-207.00000000
 21
2217.75000000
  0
LINE
  8
LAYER_2
  6
SMALL
 10
-205.62500000
 20
2227.25000000
 11
-205.62500000
 21
2217.75000000
  0
LINE
  8
LAYER_2
  6
SMALL
 10
-204.12500000
 20
2227.25000000
 11
-204.12500000
 21
2217.75000000
  0
LINE
  8
LAYER_2
  6
SMALL
 10
-64.50000000
 20
2227.25000000
 11
-64.50000000
 21
2217.75000000
  0
LINE
  8
LAYER_2
  6
SMALL
 10
-63.12500000
 20
2227.25000000
 11
-63.12500000
 21
2217.75000000
  0
LINE
  8
LAYER_2
  6
SMALL
 10
-61.62500000
 20
2227.25000000
 11
-61.62500000
 21
2217.75000000
  0
LINE
  8
LAYER_2
 10
-280.25000000
 20
2214.00000000
 11
-280.25000000
 21
2117.25000000
  0
LINE
  8
LAYER_2
 10
8.75000000
 20
2213.87500000
 11
8.75000000
 21
2117.25000000
  0
LINE
  8
LAYER_14
 10
-136.75000000
 20
2207.56003937
 11
-136.75000000
 21
2167.46407480
  0
LINE
  8
LAYER_14
 10
-134.75000000
 20
2207.56003937
 11
-134.75000000
 21
2167.46407480
  0
LINE
  8
LAYER_14
 10
-137.25000000
 20
2167.46407480
 11
-137.25000000
 21
2113.81496063
  0
LINE
  8
LAYER_14
 10
-134.25000000
 20
2167.46407480
 11
-134.25000000
 21
2113.81496063
  0
LINE
  8
LAYER_14
 10
-133.75000000
 20
2208.12500000
 11
-133.75000000
 21
2207.56003937
  0
LINE
  8
LAYER_14
 10
-133.75000000
 20
2207.56003937
 11
-137.75000000
 21
2207.56003937
  0
LINE
  8
LAYER_14
 10
-137.75000000
 20
2208.12500000
 11
-137.75000000
 21
2207.56003937
  0
LINE
  8
LAYER_14
 10
-133.75000000
 20
2208.12500000
 11
-137.75000000
 21
2208.12500000
  0
LINE
  8
LAYER_14
 10
-133.75000000
 20
2113.81496063
 11
-133.75000000
 21
2113.25000000
  0
LINE
  8
LAYER_14
 10
-133.75000000
 20
2113.25000000
 11
-137.75000000
 21
2113.25000000
  0
LINE
  8
LAYER_14
 10
-137.75000000
 20
2113.81496063
 11
-137.75000000
 21
2113.25000000
  0
LINE
  8
LAYER_14
 10
-133.75000000
 20
2113.81496063
 11
-137.75000000
 21
2113.81496063
  0
LINE
  8
LAYER_14
 10
-137.25000000
 20
2167.46407480
 11
-134.25000000
 21
2167.46407480
  0
LINE
  8
LAYER_14
 10
-134.25000000
 20
2166.89936024
 11
-133.75000000
 21
2166.89936024
  0
LINE
  8
LAYER_14
 10
-133.75000000
 20
2168.02878937
 11
-133.75000000
 21
2166.89936024
  0
LINE
  8
LAYER_14
 10
-134.75000000
 20
2168.02878937
 11
-133.75000000
 21
2168.02878937
  0
LINE
  8
LAYER_14
 10
-137.75000000
 20
2168.02878937
 11
-136.75000000
 21
2168.02878937
  0
LINE
  8
LAYER_14
 10
-137.75000000
 20
2168.02878937
 11
-137.75000000
 21
2166.89936024
  0
LINE
  8
LAYER_14
 10
-137.75000000
 20
2166.89936024
 11
-137.25000000
 21
2166.89936024
  0
LINE
  8
LAYER_14
 10
-194.93750000
 20
2362.47121063
 11
-170.93750000
 21
2362.47121063
  0
LINE
  8
LAYER_14
 10
-194.93750000
 20
2362.47121063
 11
-194.93750000
 21
2338.47170276
  0
LINE
  8
LAYER_14
 10
-194.93750000
 20
2338.47170276
 11
-170.93750000
 21
2362.47121063
  0
TEXT
  1
12
  7
SPSIMP
  8
LAYER_14
 10
-185.31250000
 20
2366.28371063
 40
2.54689338
 50
0.00000000
  0
TEXT
  1
12
  7
SPSIMP
  8
LAYER_14
 10
-201.56250000
 20
2351.28420276
 40
2.54689338
 50
0.00000000
  0
LINE
  8
LAYER_14
 10
-13.31250000
 20
2303.47121063
 11
-37.31250000
 21
2303.47121063
  0
LINE
  8
LAYER_14
 10
-13.31250000
 20
2303.47121063
 11
-13.31250000
 21
2279.47170276
  0
LINE
  8
LAYER_14
 10
-13.31250000
 20
2279.47170276
 11
-37.31250000
 21
2303.47121063
  0
TEXT
  1
12
  7
SPSIMP
  8
LAYER_14
 10
-27.43750000
 20
2307.28371063
 40
2.54689338
 50
0.00000000
  0
TEXT
  1
12
  7
SPSIMP
  8
LAYER_14
 10
-11.18750000
 20
2292.28420276
 40
2.54689338
 50
0.00000000
  0
LINE
  8
LAYER_2
 10
24.25000000
 20
2219.87500000
 11
25.00000000
 21
2219.87500000
  0
LINE
  8
LAYER_2
 10
25.00000000
 20
2219.87500000
 11
25.00000000
 21
2213.87500000
  0
LINE
  8
LAYER_2
 10
24.25000000
 20
2213.87500000
 11
25.00000000
 21
2213.87500000
  0
LINE
  8
LAYER_2
 10
24.25000000
 20
2219.87500000
 11
24.25000000
 21
2213.87500000
  0
LINE
  8
LAYER_2
 10
24.25000000
 20
2213.87500000
 11
25.00000000
 21
2219.87500000
  0
LINE
  8
LAYER_2
 10
25.00000000
 20
2213.87500000
 11
24.25000000
 21
2219.87500000
  0
LINE
  8
LAYER_2
 10
-296.50000000
 20
2220.00000000
 11
-295.75000000
 21
2220.00000000
  0
LINE
  8
LAYER_2
 10
-295.75000000
 20
2220.00000000
 11
-295.75000000
 21
2214.00000000
  0
LINE
  8
LAYER_2
 10
-296.50000000
 20
2214.00000000
 11
-295.75000000
 21
2214.00000000
  0
LINE
  8
LAYER_2
 10
-296.50000000
 20
2220.00000000
 11
-296.50000000
 21
2214.00000000
  0
LINE
  8
LAYER_2
 10
-296.50000000
 20
2214.00000000
 11
-295.75000000
 21
2220.00000000
  0
LINE
  8
LAYER_2
 10
-295.75000000
 20
2214.00000000
 11
-296.50000000
 21
2220.00000000
  0
LINE
  8
LAYER_2
 10
-136.50000000
 20
2378.87500000
 11
-135.00000000
 21
2378.87500000
  0
LINE
  8
LAYER_2
 10
-135.00000000
 20
2378.87500000
 11
-135.00000000
 21
2369.37500000
  0
LINE
  8
LAYER_2
 10
-136.50000000
 20
2369.37500000
 11
-135.00000000
 21
2369.37500000
  0
LINE
  8
LAYER_2
 10
-136.50000000
 20
2378.87500000
 11
-136.50000000
 21
2369.37500000
  0
LINE
  8
LAYER_2
 10
-136.50000000
 20
2369.37500000
 11
-135.00000000
 21
2378.87500000
  0
LINE
  8
LAYER_2
 10
-135.00000000
 20
2369.37500000
 11
-136.50000000
 21
2378.87500000
  0
LINE
  8
LAYER_2
 10
2.75000000
 20
2228.75000000
 11
8.25000000
 21
2228.75000000
  0
LINE
  8
LAYER_2
 10
8.25000000
 20
2228.75000000
 11
8.25000000
 21
2227.25000000
  0
LINE
  8
LAYER_2
 10
2.75000000
 20
2227.25000000
 11
8.25000000
 21
2227.25000000
  0
LINE
  8
LAYER_2
 10
2.75000000
 20
2228.75000000
 11
2.75000000
 21
2227.25000000
  0
LINE
  8
LAYER_2
 10
2.75000000
 20
2227.25000000
 11
8.25000000
 21
2228.75000000
  0
LINE
  8
LAYER_2
 10
8.25000000
 20
2227.25000000
 11
2.75000000
 21
2228.75000000
  0
LINE
  8
LAYER_2
 10
-279.75000000
 20
2228.75000000
 11
-274.25000000
 21
2228.75000000
  0
LINE
  8
LAYER_2
 10
-274.25000000
 20
2228.75000000
 11
-274.25000000
 21
2227.25000000
  0
LINE
  8
LAYER_2
 10
-279.75000000
 20
2227.25000000
 11
-274.25000000
 21
2227.25000000
  0
LINE
  8
LAYER_2
 10
-279.75000000
 20
2228.75000000
 11
-279.75000000
 21
2227.25000000
  0
LINE
  8
LAYER_2
 10
-279.75000000
 20
2227.25000000
 11
-274.25000000
 21
2228.75000000
  0
LINE
  8
LAYER_2
 10
-274.25000000
 20
2227.25000000
 11
-279.75000000
 21
2228.75000000
  0
LINE
  8
LAYER_2
 10
-136.50000000
 20
2369.37500000
 11
-135.00000000
 21
2369.37500000
  0
LINE
  8
LAYER_2
 10
-135.00000000
 20
2369.37500000
 11
-135.00000000
 21
2359.87500000
  0
LINE
  8
LAYER_2
 10
-136.50000000
 20
2359.87500000
 11
-135.00000000
 21
2359.87500000
  0
LINE
  8
LAYER_2
 10
-136.50000000
 20
2369.37500000
 11
-136.50000000
 21
2359.87500000
  0
LINE
  8
LAYER_2
 10
-136.50000000
 20
2359.87500000
 11
-135.00000000
 21
2369.37500000
  0
LINE
  8
LAYER_2
 10
-135.00000000
 20
2359.87500000
 11
-136.50000000
 21
2369.37500000
  0
LINE
  8
LAYER_2
 10
-135.00000000
 20
2369.37500000
 11
-133.50000000
 21
2369.37500000
  0
LINE
  8
LAYER_2
 10
-133.50000000
 20
2369.37500000
 11
-133.50000000
 21
2359.87500000
  0
LINE
  8
LAYER_2
 10
-135.00000000
 20
2359.87500000
 11
-133.50000000
 21
2359.87500000
  0
LINE
  8
LAYER_2
 10
-135.00000000
 20
2369.37500000
 11
-135.00000000
 21
2359.87500000
  0
LINE
  8
LAYER_2
 10
-135.00000000
 20
2359.87500000
 11
-133.50000000
 21
2369.37500000
  0
LINE
  8
LAYER_2
 10
-133.50000000
 20
2359.87500000
 11
-135.00000000
 21
2369.37500000
  0
LINE
  8
LAYER_2
 10
-138.00000000
 20
2369.37500000
 11
-136.50000000
 21
2369.37500000
  0
LINE
  8
LAYER_2
 10
-136.50000000
 20
2369.37500000
 11
-136.50000000
 21
2359.87500000
  0
LINE
  8
LAYER_2
 10
-138.00000000
 20
2359.87500000
 11
-136.50000000
 21
2359.87500000
  0
LINE
  8
LAYER_2
 10
-138.00000000
 20
2369.37500000
 11
-138.00000000
 21
2359.87500000
  0
LINE
  8
LAYER_2
 10
-138.00000000
 20
2359.87500000
 11
-136.50000000
 21
2369.37500000
  0
LINE
  8
LAYER_2
 10
-136.50000000
 20
2359.87500000
 11
-138.00000000
 21
2369.37500000
  0
LINE
  8
LAYER_2
 10
-138.62500000
 20
2217.75000000
 11
-137.12500000
 21
2217.75000000
  0
LINE
  8
LAYER_2
 10
-137.12500000
 20
2217.75000000
 11
-137.12500000
 21
2208.25000000
  0
LINE
  8
LAYER_2
 10
-138.62500000
 20
2208.25000000
 11
-137.12500000
 21
2208.25000000
  0
LINE
  8
LAYER_2
 10
-138.62500000
 20
2217.75000000
 11
-138.62500000
 21
2208.25000000
  0
LINE
  8
LAYER_2
 10
-138.62500000
 20
2208.25000000
 11
-137.12500000
 21
2217.75000000
  0
LINE
  8
LAYER_2
 10
-137.12500000
 20
2208.25000000
 11
-138.62500000
 21
2217.75000000
  0
LINE
  8
LAYER_2
 10
-137.12500000
 20
2217.75000000
 11
-135.62500000
 21
2217.75000000
  0
LINE
  8
LAYER_2
 10
-135.62500000
 20
2217.75000000
 11
-135.62500000
 21
2208.25000000
  0
LINE
  8
LAYER_2
 10
-137.12500000
 20
2208.25000000
 11
-135.62500000
 21
2208.25000000
  0
LINE
  8
LAYER_2
 10
-137.12500000
 20
2217.75000000
 11
-137.12500000
 21
2208.25000000
  0
LINE
  8
LAYER_2
 10
-137.12500000
 20
2208.25000000
 11
-135.62500000
 21
2217.75000000
  0
LINE
  8
LAYER_2
 10
-135.62500000
 20
2208.25000000
 11
-137.12500000
 21
2217.75000000
  0
LINE
  8
LAYER_2
 10
-135.62500000
 20
2217.75000000
 11
-134.12500000
 21
2217.75000000
  0
LINE
  8
LAYER_2
 10
-134.12500000
 20
2217.75000000
 11
-134.12500000
 21
2208.25000000
  0
LINE
  8
LAYER_2
 10
-135.62500000
 20
2208.25000000
 11
-134.12500000
 21
2208.25000000
  0
LINE
  8
LAYER_2
 10
-135.62500000
 20
2217.75000000
 11
-135.62500000
 21
2208.25000000
  0
LINE
  8
LAYER_2
 10
-135.62500000
 20
2208.25000000
 11
-134.12500000
 21
2217.75000000
  0
LINE
  8
LAYER_2
 10
-134.12500000
 20
2208.25000000
 11
-135.62500000
 21
2217.75000000
  0
LINE
  8
LAYER_2
 10
-134.12500000
 20
2217.75000000
 11
-132.62500000
 21
2217.75000000
  0
LINE
  8
LAYER_2
 10
-132.62500000
 20
2217.75000000
 11
-132.62500000
 21
2208.25000000
  0
LINE
  8
LAYER_2
 10
-134.12500000
 20
2208.25000000
 11
-132.62500000
 21
2208.25000000
  0
LINE
  8
LAYER_2
 10
-134.12500000
 20
2217.75000000
 11
-134.12500000
 21
2208.25000000
  0
LINE
  8
LAYER_2
 10
-134.12500000
 20
2208.25000000
 11
-132.62500000
 21
2217.75000000
  0
LINE
  8
LAYER_2
 10
-132.62500000
 20
2208.25000000
 11
-134.12500000
 21
2217.75000000
  0
LINE
  8
LAYER_2
 10
9.75000000
 20
2214.00000000
 11
13.25000000
 21
2214.00000000
  0
LINE
  8
LAYER_2
 10
13.25000000
 20
2214.00000000
 11
13.25000000
 21
2117.25000000
  0
LINE
  8
LAYER_2
 10
9.75000000
 20
2117.25000000
 11
13.25000000
 21
2117.25000000
  0
LINE
  8
LAYER_2
 10
9.75000000
 20
2214.00000000
 11
9.75000000
 21
2117.25000000
  0
LINE
  8
LAYER_2
 10
9.75000000
 20
2119.91658465
 11
13.25000000
 21
2119.91658465
  0
LINE
  8
LAYER_2
 10
13.25000000
 20
2117.25000000
 11
9.75000000
 21
2119.91658465
  0
LINE
  8
LAYER_2
 10
9.75000000
 20
2122.58316929
 11
13.25000000
 21
2122.58316929
  0
LINE
  8
LAYER_2
 10
13.25000000
 20
2119.91658465
 11
9.75000000
 21
2122.58316929
  0
LINE
  8
LAYER_2
 10
9.75000000
 20
2125.24975394
 11
13.25000000
 21
2125.24975394
  0
LINE
  8
LAYER_2
 10
13.25000000
 20
2122.58316929
 11
9.75000000
 21
2125.24975394
  0
LINE
  8
LAYER_2
 10
9.75000000
 20
2127.91633858
 11
13.25000000
 21
2127.91633858
  0
LINE
  8
LAYER_2
 10
13.25000000
 20
2125.24975394
 11
9.75000000
 21
2127.91633858
  0
LINE
  8
LAYER_2
 10
9.75000000
 20
2130.58292323
 11
13.25000000
 21
2130.58292323
  0
LINE
  8
LAYER_2
 10
13.25000000
 20
2127.91633858
 11
9.75000000
 21
2130.58292323
  0
LINE
  8
LAYER_2
 10
9.75000000
 20
2133.24950787
 11
13.25000000
 21
2133.24950787
  0
LINE
  8
LAYER_2
 10
13.25000000
 20
2130.58292323
 11
9.75000000
 21
2133.24950787
  0
LINE
  8
LAYER_2
 10
9.75000000
 20
2135.91609252
 11
13.25000000
 21
2135.91609252
  0
LINE
  8
LAYER_2
 10
13.25000000
 20
2133.24950787
 11
9.75000000
 21
2135.91609252
  0
LINE
  8
LAYER_2
 10
9.75000000
 20
2138.58267717
 11
13.25000000
 21
2138.58267717
  0
LINE
  8
LAYER_2
 10
13.25000000
 20
2135.91609252
 11
9.75000000
 21
2138.58267717
  0
LINE
  8
LAYER_2
 10
9.75000000
 20
2141.24926181
 11
13.25000000
 21
2141.24926181
  0
LINE
  8
LAYER_2
 10
13.25000000
 20
2138.58267717
 11
9.75000000
 21
2141.24926181
  0
LINE
  8
LAYER_2
 10
9.75000000
 20
2143.91584646
 11
13.25000000
 21
2143.91584646
  0
LINE
  8
LAYER_2
 10
13.25000000
 20
2141.24926181
 11
9.75000000
 21
2143.91584646
  0
LINE
  8
LAYER_2
 10
9.75000000
 20
2146.58243110
 11
13.25000000
 21
2146.58243110
  0
LINE
  8
LAYER_2
 10
13.25000000
 20
2143.91584646
 11
9.75000000
 21
2146.58243110
  0
LINE
  8
LAYER_2
 10
9.75000000
 20
2149.24901575
 11
13.25000000
 21
2149.24901575
  0
LINE
  8
LAYER_2
 10
13.25000000
 20
2146.58243110
 11
9.75000000
 21
2149.24901575
  0
LINE
  8
LAYER_2
 10
9.75000000
 20
2151.91560039
 11
13.25000000
 21
2151.91560039
  0
LINE
  8
LAYER_2
 10
13.25000000
 20
2149.24901575
 11
9.75000000
 21
2151.91560039
  0
LINE
  8
LAYER_2
 10
9.75000000
 20
2154.58218504
 11
13.25000000
 21
2154.58218504
  0
LINE
  8
LAYER_2
 10
13.25000000
 20
2151.91560039
 11
9.75000000
 21
2154.58218504
  0
LINE
  8
LAYER_2
 10
9.75000000
 20
2157.24876969
 11
13.25000000
 21
2157.24876969
  0
LINE
  8
LAYER_2
 10
13.25000000
 20
2154.58218504
 11
9.75000000
 21
2157.24876969
  0
LINE
  8
LAYER_2
 10
9.75000000
 20
2159.91535433
 11
13.25000000
 21
2159.91535433
  0
LINE
  8
LAYER_2
 10
13.25000000
 20
2157.24876969
 11
9.75000000
 21
2159.91535433
  0
LINE
  8
LAYER_2
 10
9.75000000
 20
2162.58193898
 11
13.25000000
 21
2162.58193898
  0
LINE
  8
LAYER_2
 10
13.25000000
 20
2159.91535433
 11
9.75000000
 21
2162.58193898
  0
LINE
  8
LAYER_2
 10
9.75000000
 20
2165.24852362
 11
13.25000000
 21
2165.24852362
  0
LINE
  8
LAYER_2
 10
13.25000000
 20
2162.58193898
 11
9.75000000
 21
2165.24852362
  0
LINE
  8
LAYER_2
 10
9.75000000
 20
2167.91510827
 11
13.25000000
 21
2167.91510827
  0
LINE
  8
LAYER_2
 10
13.25000000
 20
2165.24852362
 11
9.75000000
 21
2167.91510827
  0
LINE
  8
LAYER_2
 10
9.75000000
 20
2170.58169291
 11
13.25000000
 21
2170.58169291
  0
LINE
  8
LAYER_2
 10
13.25000000
 20
2167.91510827
 11
9.75000000
 21
2170.58169291
  0
LINE
  8
LAYER_2
 10
9.75000000
 20
2173.24827756
 11
13.25000000
 21
2173.24827756
  0
LINE
  8
LAYER_2
 10
13.25000000
 20
2170.58169291
 11
9.75000000
 21
2173.24827756
  0
LINE
  8
LAYER_2
 10
9.75000000
 20
2175.91486220
 11
13.25000000
 21
2175.91486220
  0
LINE
  8
LAYER_2
 10
13.25000000
 20
2173.24827756
 11
9.75000000
 21
2175.91486220
  0
LINE
  8
LAYER_2
 10
9.75000000
 20
2178.58144685
 11
13.25000000
 21
2178.58144685
  0
LINE
  8
LAYER_2
 10
13.25000000
 20
2175.91486220
 11
9.75000000
 21
2178.58144685
  0
LINE
  8
LAYER_2
 10
9.75000000
 20
2181.24803150
 11
13.25000000
 21
2181.24803150
  0
LINE
  8
LAYER_2
 10
13.25000000
 20
2178.58144685
 11
9.75000000
 21
2181.24803150
  0
LINE
  8
LAYER_2
 10
9.75000000
 20
2183.91461614
 11
13.25000000
 21
2183.91461614
  0
LINE
  8
LAYER_2
 10
13.25000000
 20
2181.24803150
 11
9.75000000
 21
2183.91461614
  0
LINE
  8
LAYER_2
 10
9.75000000
 20
2186.58120079
 11
13.25000000
 21
2186.58120079
  0
LINE
  8
LAYER_2
 10
13.25000000
 20
2183.91461614
 11
9.75000000
 21
2186.58120079
  0
LINE
  8
LAYER_2
 10
9.75000000
 20
2189.24778543
 11
13.25000000
 21
2189.24778543
  0
LINE
  8
LAYER_2
 10
13.25000000
 20
2186.58120079
 11
9.75000000
 21
2189.24778543
  0
LINE
  8
LAYER_2
 10
9.75000000
 20
2191.91437008
 11
13.25000000
 21
2191.91437008
  0
LINE
  8
LAYER_2
 10
13.25000000
 20
2189.24778543
 11
9.75000000
 21
2191.91437008
  0
LINE
  8
LAYER_2
 10
9.75000000
 20
2194.58095472
 11
13.25000000
 21
2194.58095472
  0
LINE
  8
LAYER_2
 10
13.25000000
 20
2191.91437008
 11
9.75000000
 21
2194.58095472
  0
LINE
  8
LAYER_2
 10
9.75000000
 20
2197.24753937
 11
13.25000000
 21
2197.24753937
  0
LINE
  8
LAYER_2
 10
13.25000000
 20
2194.58095472
 11
9.75000000
 21
2197.24753937
  0
LINE
  8
LAYER_2
 10
9.75000000
 20
2199.91412402
 11
13.25000000
 21
2199.91412402
  0
LINE
  8
LAYER_2
 10
13.25000000
 20
2197.24753937
 11
9.75000000
 21
2199.91412402
  0
LINE
  8
LAYER_2
 10
9.75000000
 20
2202.58070866
 11
13.25000000
 21
2202.58070866
  0
LINE
  8
LAYER_2
 10
13.25000000
 20
2199.91412402
 11
9.75000000
 21
2202.58070866
  0
LINE
  8
LAYER_2
 10
9.75000000
 20
2205.24729331
 11
13.25000000
 21
2205.24729331
  0
LINE
  8
LAYER_2
 10
13.25000000
 20
2202.58070866
 11
9.75000000
 21
2205.24729331
  0
LINE
  8
LAYER_2
 10
9.75000000
 20
2207.91387795
 11
13.25000000
 21
2207.91387795
  0
LINE
  8
LAYER_2
 10
13.25000000
 20
2205.24729331
 11
9.75000000
 21
2207.91387795
  0
LINE
  8
LAYER_2
 10
9.75000000
 20
2210.58046260
 11
13.25000000
 21
2210.58046260
  0
LINE
  8
LAYER_2
 10
13.25000000
 20
2207.91387795
 11
9.75000000
 21
2210.58046260
  0
LINE
  8
LAYER_2
 10
9.75000000
 20
2213.24704724
 11
13.25000000
 21
2213.24704724
  0
LINE
  8
LAYER_2
 10
13.25000000
 20
2210.58046260
 11
9.75000000
 21
2213.24704724
  0
LINE
  8
LAYER_2
 10
-284.75000000
 20
2214.00000000
 11
-281.25000000
 21
2214.00000000
  0
LINE
  8
LAYER_2
 10
-281.25000000
 20
2214.00000000
 11
-281.25000000
 21
2117.25000000
  0
LINE
  8
LAYER_2
 10
-284.75000000
 20
2117.25000000
 11
-281.25000000
 21
2117.25000000
  0
LINE
  8
LAYER_2
 10
-284.75000000
 20
2214.00000000
 11
-284.75000000
 21
2117.25000000
  0
LINE
  8
LAYER_2
 10
-284.75000000
 20
2119.91658465
 11
-281.25000000
 21
2119.91658465
  0
LINE
  8
LAYER_2
 10
-284.75000000
 20
2117.25000000
 11
-281.25000000
 21
2119.91658465
  0
LINE
  8
LAYER_2
 10
-284.75000000
 20
2122.58316929
 11
-281.25000000
 21
2122.58316929
  0
LINE
  8
LAYER_2
 10
-284.75000000
 20
2119.91658465
 11
-281.25000000
 21
2122.58316929
  0
LINE
  8
LAYER_2
 10
-284.75000000
 20
2125.24975394
 11
-281.25000000
 21
2125.24975394
  0
LINE
  8
LAYER_2
 10
-284.75000000
 20
2122.58316929
 11
-281.25000000
 21
2125.24975394
  0
LINE
  8
LAYER_2
 10
-284.75000000
 20
2127.91633858
 11
-281.25000000
 21
2127.91633858
  0
LINE
  8
LAYER_2
 10
-284.75000000
 20
2125.24975394
 11
-281.25000000
 21
2127.91633858
  0
LINE
  8
LAYER_2
 10
-284.75000000
 20
2130.58292323
 11
-281.25000000
 21
2130.58292323
  0
LINE
  8
LAYER_2
 10
-284.75000000
 20
2127.91633858
 11
-281.25000000
 21
2130.58292323
  0
LINE
  8
LAYER_2
 10
-284.75000000
 20
2133.24950787
 11
-281.25000000
 21
2133.24950787
  0
LINE
  8
LAYER_2
 10
-284.75000000
 20
2130.58292323
 11
-281.25000000
 21
2133.24950787
  0
LINE
  8
LAYER_2
 10
-284.75000000
 20
2135.91609252
 11
-281.25000000
 21
2135.91609252
  0
LINE
  8
LAYER_2
 10
-284.75000000
 20
2133.24950787
 11
-281.25000000
 21
2135.91609252
  0
LINE
  8
LAYER_2
 10
-284.75000000
 20
2138.58267717
 11
-281.25000000
 21
2138.58267717
  0
LINE
  8
LAYER_2
 10
-284.75000000
 20
2135.91609252
 11
-281.25000000
 21
2138.58267717
  0
LINE
  8
LAYER_2
 10
-284.75000000
 20
2141.24926181
 11
-281.25000000
 21
2141.24926181
  0
LINE
  8
LAYER_2
 10
-284.75000000
 20
2138.58267717
 11
-281.25000000
 21
2141.24926181
  0
LINE
  8
LAYER_2
 10
-284.75000000
 20
2143.91584646
 11
-281.25000000
 21
2143.91584646
  0
LINE
  8
LAYER_2
 10
-284.75000000
 20
2141.24926181
 11
-281.25000000
 21
2143.91584646
  0
LINE
  8
LAYER_2
 10
-284.75000000
 20
2146.58243110
 11
-281.25000000
 21
2146.58243110
  0
LINE
  8
LAYER_2
 10
-284.75000000
 20
2143.91584646
 11
-281.25000000
 21
2146.58243110
  0
LINE
  8
LAYER_2
 10
-284.75000000
 20
2149.24901575
 11
-281.25000000
 21
2149.24901575
  0
LINE
  8
LAYER_2
 10
-284.75000000
 20
2146.58243110
 11
-281.25000000
 21
2149.24901575
  0
LINE
  8
LAYER_2
 10
-284.75000000
 20
2151.91560039
 11
-281.25000000
 21
2151.91560039
  0
LINE
  8
LAYER_2
 10
-284.75000000
 20
2149.24901575
 11
-281.25000000
 21
2151.91560039
  0
LINE
  8
LAYER_2
 10
-284.75000000
 20
2154.58218504
 11
-281.25000000
 21
2154.58218504
  0
LINE
  8
LAYER_2
 10
-284.75000000
 20
2151.91560039
 11
-281.25000000
 21
2154.58218504
  0
LINE
  8
LAYER_2
 10
-284.75000000
 20
2157.24876969
 11
-281.25000000
 21
2157.24876969
  0
LINE
  8
LAYER_2
 10
-284.75000000
 20
2154.58218504
 11
-281.25000000
 21
2157.24876969
  0
LINE
  8
LAYER_2
 10
-284.75000000
 20
2159.91535433
 11
-281.25000000
 21
2159.91535433
  0
LINE
  8
LAYER_2
 10
-284.75000000
 20
2157.24876969
 11
-281.25000000
 21
2159.91535433
  0
LINE
  8
LAYER_2
 10
-284.75000000
 20
2162.58193898
 11
-281.25000000
 21
2162.58193898
  0
LINE
  8
LAYER_2
 10
-284.75000000
 20
2159.91535433
 11
-281.25000000
 21
2162.58193898
  0
LINE
  8
LAYER_2
 10
-284.75000000
 20
2165.24852362
 11
-281.25000000
 21
2165.24852362
  0
LINE
  8
LAYER_2
 10
-284.75000000
 20
2162.58193898
 11
-281.25000000
 21
2165.24852362
  0
LINE
  8
LAYER_2
 10
-284.75000000
 20
2167.91510827
 11
-281.25000000
 21
2167.91510827
  0
LINE
  8
LAYER_2
 10
-284.75000000
 20
2165.24852362
 11
-281.25000000
 21
2167.91510827
  0
LINE
  8
LAYER_2
 10
-284.75000000
 20
2170.58169291
 11
-281.25000000
 21
2170.58169291
  0
LINE
  8
LAYER_2
 10
-284.75000000
 20
2167.91510827
 11
-281.25000000
 21
2170.58169291
  0
LINE
  8
LAYER_2
 10
-284.75000000
 20
2173.24827756
 11
-281.25000000
 21
2173.24827756
  0
LINE
  8
LAYER_2
 10
-284.75000000
 20
2170.58169291
 11
-281.25000000
 21
2173.24827756
  0
LINE
  8
LAYER_2
 10
-284.75000000
 20
2175.91486220
 11
-281.25000000
 21
2175.91486220
  0
LINE
  8
LAYER_2
 10
-284.75000000
 20
2173.24827756
 11
-281.25000000
 21
2175.91486220
  0
LINE
  8
LAYER_2
 10
-284.75000000
 20
2178.58144685
 11
-281.25000000
 21
2178.58144685
  0
LINE
  8
LAYER_2
 10
-284.75000000
 20
2175.91486220
 11
-281.25000000
 21
2178.58144685
  0
LINE
  8
LAYER_2
 10
-284.75000000
 20
2181.24803150
 11
-281.25000000
 21
2181.24803150
  0
LINE
  8
LAYER_2
 10
-284.75000000
 20
2178.58144685
 11
-281.25000000
 21
2181.24803150
  0
LINE
  8
LAYER_2
 10
-284.75000000
 20
2183.91461614
 11
-281.25000000
 21
2183.91461614
  0
LINE
  8
LAYER_2
 10
-284.75000000
 20
2181.24803150
 11
-281.25000000
 21
2183.91461614
  0
LINE
  8
LAYER_2
 10
-284.75000000
 20
2186.58120079
 11
-281.25000000
 21
2186.58120079
  0
LINE
  8
LAYER_2
 10
-284.75000000
 20
2183.91461614
 11
-281.25000000
 21
2186.58120079
  0
LINE
  8
LAYER_2
 10
-284.75000000
 20
2189.24778543
 11
-281.25000000
 21
2189.24778543
  0
LINE
  8
LAYER_2
 10
-284.75000000
 20
2186.58120079
 11
-281.25000000
 21
2189.24778543
  0
LINE
  8
LAYER_2
 10
-284.75000000
 20
2191.91437008
 11
-281.25000000
 21
2191.91437008
  0
LINE
  8
LAYER_2
 10
-284.75000000
 20
2189.24778543
 11
-281.25000000
 21
2191.91437008
  0
LINE
  8
LAYER_2
 10
-284.75000000
 20
2194.58095472
 11
-281.25000000
 21
2194.58095472
  0
LINE
  8
LAYER_2
 10
-284.75000000
 20
2191.91437008
 11
-281.25000000
 21
2194.58095472
  0
LINE
  8
LAYER_2
 10
-284.75000000
 20
2197.24753937
 11
-281.25000000
 21
2197.24753937
  0
LINE
  8
LAYER_2
 10
-284.75000000
 20
2194.58095472
 11
-281.25000000
 21
2197.24753937
  0
LINE
  8
LAYER_2
 10
-284.75000000
 20
2199.91412402
 11
-281.25000000
 21
2199.91412402
  0
LINE
  8
LAYER_2
 10
-284.75000000
 20
2197.24753937
 11
-281.25000000
 21
2199.91412402
  0
LINE
  8
LAYER_2
 10
-284.75000000
 20
2202.58070866
 11
-281.25000000
 21
2202.58070866
  0
LINE
  8
LAYER_2
 10
-284.75000000
 20
2199.91412402
 11
-281.25000000
 21
2202.58070866
  0
LINE
  8
LAYER_2
 10
-284.75000000
 20
2205.24729331
 11
-281.25000000
 21
2205.24729331
  0
LINE
  8
LAYER_2
 10
-284.75000000
 20
2202.58070866
 11
-281.25000000
 21
2205.24729331
  0
LINE
  8
LAYER_2
 10
-284.75000000
 20
2207.91387795
 11
-281.25000000
 21
2207.91387795
  0
LINE
  8
LAYER_2
 10
-284.75000000
 20
2205.24729331
 11
-281.25000000
 21
2207.91387795
  0
LINE
  8
LAYER_2
 10
-284.75000000
 20
2210.58046260
 11
-281.25000000
 21
2210.58046260
  0
LINE
  8
LAYER_2
 10
-284.75000000
 20
2207.91387795
 11
-281.25000000
 21
2210.58046260
  0
LINE
  8
LAYER_2
 10
-284.75000000
 20
2213.24704724
 11
-281.25000000
 21
2213.24704724
  0
LINE
  8
LAYER_2
 10
-284.75000000
 20
2210.58046260
 11
-281.25000000
 21
2213.24704724
  0
LINE
  8
LAYER_2
 10
8.25000000
 20
2217.75000000
 11
8.25000000
 21
2117.25000000
  0
LINE
  8
LAYER_2
 10
8.25000000
 20
2117.25000000
 11
4.25000000
 21
2117.25000000
  0
LINE
  8
LAYER_2
 10
4.25000000
 20
2217.75000000
 11
4.25000000
 21
2117.25000000
  0
LINE
  8
LAYER_2
 10
8.25000000
 20
2217.75000000
 11
4.25000000
 21
2217.75000000
  0
LINE
  8
LAYER_2
 10
4.25000000
 20
2216.25000000
 11
8.25000000
 21
2216.25000000
  0
LINE
  8
LAYER_2
 10
4.25000000
 20
2216.25000000
 11
8.25000000
 21
2217.75000000
  0
LINE
  8
LAYER_2
 10
4.25000000
 20
2217.75000000
 11
8.25000000
 21
2216.25000000
  0
LINE
  8
LAYER_2
 10
4.25000000
 20
2214.75000000
 11
8.25000000
 21
2214.75000000
  0
LINE
  8
LAYER_2
 10
4.25000000
 20
2216.25000000
 11
8.25000000
 21
2214.75000000
  0
LINE
  8
LAYER_2
 10
4.25000000
 20
2214.75000000
 11
8.25000000
 21
2216.25000000
  0
LINE
  8
LAYER_2
 10
4.25000000
 20
2118.75000000
 11
8.25000000
 21
2118.75000000
  0
LINE
  8
LAYER_2
 10
4.25000000
 20
2118.75000000
 11
8.25000000
 21
2117.25000000
  0
LINE
  8
LAYER_2
 10
4.25000000
 20
2117.25000000
 11
8.25000000
 21
2118.75000000
  0
LINE
  8
LAYER_2
 10
-275.75000000
 20
2217.75000000
 11
-275.75000000
 21
2117.25000000
  0
LINE
  8
LAYER_2
 10
-275.75000000
 20
2117.25000000
 11
-279.75000000
 21
2117.25000000
  0
LINE
  8
LAYER_2
 10
-279.75000000
 20
2217.75000000
 11
-279.75000000
 21
2117.25000000
  0
LINE
  8
LAYER_2
 10
-275.75000000
 20
2217.75000000
 11
-279.75000000
 21
2217.75000000
  0
LINE
  8
LAYER_2
 10
-279.75000000
 20
2216.25000000
 11
-275.75000000
 21
2216.25000000
  0
LINE
  8
LAYER_2
 10
-279.75000000
 20
2216.25000000
 11
-275.75000000
 21
2217.75000000
  0
LINE
  8
LAYER_2
 10
-279.75000000
 20
2217.75000000
 11
-275.75000000
 21
2216.25000000
  0
LINE
  8
LAYER_2
 10
-279.75000000
 20
2214.75000000
 11
-275.75000000
 21
2214.75000000
  0
LINE
  8
LAYER_2
 10
-279.75000000
 20
2216.25000000
 11
-275.75000000
 21
2214.75000000
  0
LINE
  8
LAYER_2
 10
-279.75000000
 20
2214.75000000
 11
-275.75000000
 21
2216.25000000
  0
LINE
  8
LAYER_2
 10
-279.75000000
 20
2118.75000000
 11
-275.75000000
 21
2118.75000000
  0
LINE
  8
LAYER_2
 10
-279.75000000
 20
2118.75000000
 11
-275.75000000
 21
2117.25000000
  0
LINE
  8
LAYER_2
 10
-279.75000000
 20
2117.25000000
 11
-275.75000000
 21
2118.75000000
  0
LINE
  8
LAYER_2
 10
-152.12500000
 20
2105.50000000
 11
-151.50000000
 21
2106.12500000
  0
LINE
  8
LAYER_2
 10
-151.50000000
 20
2106.12500000
 11
-150.87500000
 21
2105.50000000
  0
LINE
  8
LAYER_2
 10
-152.12500000
 20
2105.50000000
 11
-150.87500000
 21
2105.50000000
  0
LINE
  8
LAYER_2
 10
-146.62500000
 20
2109.87500000
 11
-146.00000000
 21
2110.50000000
  0
LINE
  8
LAYER_2
 10
-146.00000000
 20
2110.50000000
 11
-145.37500000
 21
2109.87500000
  0
LINE
  8
LAYER_2
 10
-146.62500000
 20
2109.87500000
 11
-145.37500000
 21
2109.87500000
  0
LINE
  8
LAYER_2
 10
-150.00000000
 20
2106.00000000
 11
-148.12500000
 21
2107.87500000
  0
LINE
  8
LAYER_2
 10
-148.12500000
 20
2107.87500000
 11
-146.25000000
 21
2106.00000000
  0
LINE
  8
LAYER_2
 10
-150.00000000
 20
2106.00000000
 11
-146.25000000
 21
2106.00000000
  0
LINE
  8
LAYER_2
 10
-148.25000000
 20
2102.75000000
 11
-147.00000000
 21
2104.00000000
  0
LINE
  8
LAYER_2
 10
-147.00000000
 20
2104.00000000
 11
-145.75000000
 21
2102.75000000
  0
LINE
  8
LAYER_2
 10
-148.25000000
 20
2102.75000000
 11
-145.75000000
 21
2102.75000000
  0
LINE
  8
LAYER_2
 10
-143.25000000
 20
2111.50000000
 11
-142.62500000
 21
2112.12500000
  0
LINE
  8
LAYER_2
 10
-142.62500000
 20
2112.12500000
 11
-142.00000000
 21
2111.50000000
  0
LINE
  8
LAYER_2
 10
-143.25000000
 20
2111.50000000
 11
-142.00000000
 21
2111.50000000
  0
LINE
  8
LAYER_2
 10
-142.87500000
 20
2108.25000000
 11
-141.62500000
 21
2109.50000000
  0
LINE
  8
LAYER_2
 10
-141.62500000
 20
2109.50000000
 11
-140.37500000
 21
2108.25000000
  0
LINE
  8
LAYER_2
 10
-142.87500000
 20
2108.25000000
 11
-140.37500000
 21
2108.25000000
  0
LINE
  8
LAYER_2
 10
-145.00000000
 20
2105.00000000
 11
-143.75000000
 21
2106.25000000
  0
LINE
  8
LAYER_2
 10
-143.75000000
 20
2106.25000000
 11
-142.50000000
 21
2105.00000000
  0
LINE
  8
LAYER_2
 10
-145.00000000
 20
2105.00000000
 11
-142.50000000
 21
2105.00000000
  0
LINE
  8
LAYER_2
 10
-137.12500000
 20
2110.37500000
 11
-136.50000000
 21
2111.00000000
  0
LINE
  8
LAYER_2
 10
-136.50000000
 20
2111.00000000
 11
-135.87500000
 21
2110.37500000
  0
LINE
  8
LAYER_2
 10
-137.12500000
 20
2110.37500000
 11
-135.87500000
 21
2110.37500000
  0
LINE
  8
LAYER_2
 10
-139.00000000
 20
2107.12500000
 11
-137.75000000
 21
2108.37500000
  0
LINE
  8
LAYER_2
 10
-137.75000000
 20
2108.37500000
 11
-136.50000000
 21
2107.12500000
  0
LINE
  8
LAYER_2
 10
-139.00000000
 20
2107.12500000
 11
-136.50000000
 21
2107.12500000
  0
LINE
  8
LAYER_2
 10
-136.62500000
 20
2104.50000000
 11
-136.00000000
 21
2105.12500000
  0
LINE
  8
LAYER_2
 10
-136.00000000
 20
2105.12500000
 11
-135.37500000
 21
2104.50000000
  0
LINE
  8
LAYER_2
 10
-136.62500000
 20
2104.50000000
 11
-135.37500000
 21
2104.50000000
  0
LINE
  8
LAYER_2
 10
-133.25000000
 20
2110.25000000
 11
-132.00000000
 21
2111.50000000
  0
LINE
  8
LAYER_2
 10
-132.00000000
 20
2111.50000000
 11
-130.75000000
 21
2110.25000000
  0
LINE
  8
LAYER_2
 10
-133.25000000
 20
2110.25000000
 11
-130.75000000
 21
2110.25000000
  0
LINE
  8
LAYER_2
 10
-133.25000000
 20
2107.62500000
 11
-132.62500000
 21
2108.25000000
  0
LINE
  8
LAYER_2
 10
-132.62500000
 20
2108.25000000
 11
-132.00000000
 21
2107.62500000
  0
LINE
  8
LAYER_2
 10
-133.25000000
 20
2107.62500000
 11
-132.00000000
 21
2107.62500000
  0
LINE
  8
LAYER_2
 10
-132.87500000
 20
2104.37500000
 11
-131.62500000
 21
2105.62500000
  0
LINE
  8
LAYER_2
 10
-131.62500000
 20
2105.62500000
 11
-130.37500000
 21
2104.37500000
  0
LINE
  8
LAYER_2
 10
-132.87500000
 20
2104.37500000
 11
-130.37500000
 21
2104.37500000
  0
LINE
  8
LAYER_2
 10
-130.00000000
 20
2112.00000000
 11
-128.75000000
 21
2113.25000000
  0
LINE
  8
LAYER_2
 10
-128.75000000
 20
2113.25000000
 11
-127.50000000
 21
2112.00000000
  0
LINE
  8
LAYER_2
 10
-130.00000000
 20
2112.00000000
 11
-127.50000000
 21
2112.00000000
  0
LINE
  8
LAYER_2
 10
-130.00000000
 20
2108.12500000
 11
-128.12500000
 21
2110.00000000
  0
LINE
  8
LAYER_2
 10
-128.12500000
 20
2110.00000000
 11
-126.25000000
 21
2108.12500000
  0
LINE
  8
LAYER_2
 10
-130.00000000
 20
2108.12500000
 11
-126.25000000
 21
2108.12500000
  0
LINE
  8
LAYER_2
 10
-127.12500000
 20
2105.50000000
 11
-126.50000000
 21
2106.12500000
  0
LINE
  8
LAYER_2
 10
-126.50000000
 20
2106.12500000
 11
-125.87500000
 21
2105.50000000
  0
LINE
  8
LAYER_2
 10
-127.12500000
 20
2105.50000000
 11
-125.87500000
 21
2105.50000000
  0
LINE
  8
LAYER_2
 10
-129.00000000
 20
2102.25000000
 11
-127.75000000
 21
2103.50000000
  0
LINE
  8
LAYER_2
 10
-127.75000000
 20
2103.50000000
 11
-126.50000000
 21
2102.25000000
  0
LINE
  8
LAYER_2
 10
-129.00000000
 20
2102.25000000
 11
-126.50000000
 21
2102.25000000
  0
LINE
  8
LAYER_2
 10
-121.62500000
 20
2109.87500000
 11
-121.00000000
 21
2110.50000000
  0
LINE
  8
LAYER_2
 10
-121.00000000
 20
2110.50000000
 11
-120.37500000
 21
2109.87500000
  0
LINE
  8
LAYER_2
 10
-121.62500000
 20
2109.87500000
 11
-120.37500000
 21
2109.87500000
  0
LINE
  8
LAYER_2
 10
-125.00000000
 20
2106.00000000
 11
-123.12500000
 21
2107.87500000
  0
LINE
  8
LAYER_2
 10
-123.12500000
 20
2107.87500000
 11
-121.25000000
 21
2106.00000000
  0
LINE
  8
LAYER_2
 10
-125.00000000
 20
2106.00000000
 11
-121.25000000
 21
2106.00000000
  0
LINE
  8
LAYER_2
 10
-123.25000000
 20
2102.75000000
 11
-122.00000000
 21
2104.00000000
  0
LINE
  8
LAYER_2
 10
-122.00000000
 20
2104.00000000
 11
-120.75000000
 21
2102.75000000
  0
LINE
  8
LAYER_2
 10
-123.25000000
 20
2102.75000000
 11
-120.75000000
 21
2102.75000000
  0
LINE
  8
LAYER_2
 10
-153.75000000
 20
2113.25000000
 11
-153.75000000
 21
2101.25000000
  0
LINE
  8
LAYER_2
 10
-117.75000000
 20
2113.25000000
 11
-117.75000000
 21
2101.25000000
  0
LINE
  8
LAYER_2
 10
-153.75000000
 20
2101.25000000
 11
-117.75000000
 21
2101.25000000
  0
LINE
  8
LAYER_2
 10
-153.75000000
 20
2113.25000000
 11
-138.25000000
 21
2113.25000000
  0
LINE
  8
LAYER_2
 10
-117.75000000
 20
2113.25000000
 11
-133.25000000
 21
2113.25000000
  0
LINE
  8
LAYER_2
 10
-138.25000000
 20
2113.25000000
 11
-137.00000000
 21
2110.75000000
  0
LINE
  8
LAYER_2
 10
-133.25000000
 20
2113.25000000
 11
-134.50000000
 21
2110.75000000
  0
LINE
  8
LAYER_2
 10
-137.00000000
 20
2110.75000000
 11
-134.50000000
 21
2110.75000000
  0
LINE
  8
LAYER_4
 10
-120.12500000
 20
2381.07381890
 11
-124.12500000
 21
2380.87500000
  0
LINE
  8
LAYER_4
 10
-124.12500000
 20
2380.87500000
 11
-134.00000000
 21
2373.87500000
  0
LINE
  8
LAYER_4
 10
-130.95201772
 20
2377.35654528
 11
-134.00000000
 21
2373.87500000
  0
LINE
  8
LAYER_4
 10
-129.70595472
 20
2375.59817913
 11
-134.00000000
 21
2373.87500000
  0
LINE
  8
LAYER_4
 10
-102.37500000
 20
2371.44881890
 11
-117.75000000
 21
2371.25000000
  0
LINE
  8
LAYER_4
 10
-117.75000000
 20
2371.25000000
 11
-133.25000000
 21
2361.00000000
  0
LINE
  8
LAYER_4
 10
-130.09079724
 20
2364.38090551
 11
-133.25000000
 21
2361.00000000
  0
LINE
  8
LAYER_4
 10
-128.90231299
 20
2362.58316929
 11
-133.25000000
 21
2361.00000000
  0
LINE
  8
LAYER_4
 10
-183.25000000
 20
2300.19881890
 11
-188.37500000
 21
2307.25000000
  0
LINE
  8
LAYER_4
 10
-188.37500000
 20
2307.25000000
 11
-169.50000000
 21
2326.00000000
  0
LINE
  8
LAYER_4
 10
-171.93307087
 20
2322.06422244
 11
-169.50000000
 21
2326.00000000
  0
LINE
  8
LAYER_4
 10
-173.45177165
 20
2323.59325787
 11
-169.50000000
 21
2326.00000000
  0
LINE
  8
LAYER_4
 10
-107.12500000
 20
2296.69881890
 11
-102.87500000
 21
2296.25000000
  0
LINE
  8
LAYER_4
 10
-102.87500000
 20
2296.25000000
 11
-133.00000000
 21
2264.12500000
  0
LINE
  8
LAYER_4
 10
-130.70792323
 20
2268.14468504
 11
-133.00000000
 21
2264.12500000
  0
LINE
  8
LAYER_4
 10
-129.13607283
 20
2266.67027559
 11
-133.00000000
 21
2264.12500000
  0
LINE
  8
LAYER_4
 10
-219.00000000
 20
2258.69881890
 11
-223.00000000
 21
2257.87500000
  0
LINE
  8
LAYER_4
 10
-223.00000000
 20
2257.87500000
 11
-222.87500000
 21
2228.37500000
  0
LINE
  8
LAYER_4
 10
-223.97145669
 20
2232.87032480
 11
-222.87500000
 21
2228.37500000
  0
LINE
  8
LAYER_4
 10
-221.81643701
 20
2232.87918307
 11
-222.87500000
 21
2228.37500000
  0
LINE
  8
LAYER_4
 10
-12.37524606
 20
2245.07381890
 11
-17.00000000
 21
2244.50000000
  0
LINE
  8
LAYER_4
 10
-17.00000000
 20
2244.50000000
 11
1.62500000
 21
2229.12500000
  0
LINE
  8
LAYER_4
 10
-2.53125000
 20
2231.15871063
 11
1.62500000
 21
2229.12500000
  0
LINE
  8
LAYER_4
 10
-1.15920276
 20
2232.82062008
 11
1.62500000
 21
2229.12500000
  0
LINE
  8
LAYER_4
 10
-122.25000000
 20
2212.07381890
 11
-122.75000000
 21
2211.75000000
  0
LINE
  8
LAYER_4
 10
-122.75000000
 20
2211.75000000
 11
-131.87500000
 21
2211.75000000
  0
LINE
  8
LAYER_4
 10
-125.87500000
 20
2213.18700787
 11
-131.87500000
 21
2211.75000000
  0
LINE
  8
LAYER_4
 10
-125.87500000
 20
2210.31299213
 11
-131.87500000
 21
2211.75000000
  0
LINE
  8
LAYER_4
 10
-126.50000000
 20
2189.44881890
 11
-130.62500000
 21
2188.62500000
  0
LINE
  8
LAYER_4
 10
-130.62500000
 20
2188.62500000
 11
-134.75000000
 21
2188.37500000
  0
LINE
  8
LAYER_4
 10
-128.84793307
 20
2190.17224409
 11
-134.75000000
 21
2188.37500000
  0
LINE
  8
LAYER_4
 10
-128.67421260
 20
2187.30364173
 11
-134.75000000
 21
2188.37500000
  0
LINE
  8
LAYER_4
 10
-108.37500000
 20
2102.94881890
 11
-112.37500000
 21
2102.25000000
  0
LINE
  8
LAYER_4
 10
-112.37500000
 20
2102.25000000
 11
-124.00000000
 21
2105.00000000
  0
LINE
  8
LAYER_4
 10
-119.37303150
 20
2105.01279528
 11
-124.00000000
 21
2105.00000000
  0
LINE
  8
LAYER_4
 10
-119.86909449
 20
2102.91535433
 11
-124.00000000
 21
2105.00000000
  0
LINE
  8
LAYER_4
 10
-161.00000000
 20
2155.69881890
 11
-149.25000000
 21
2154.75000000
  0
LINE
  8
LAYER_4
 10
-149.25000000
 20
2154.75000000
 11
-149.12500000
 21
2117.50000000
  0
LINE
  8
LAYER_4
 10
-150.21751969
 20
2121.99630906
 11
-149.12500000
 21
2117.50000000
  0
LINE
  8
LAYER_4
 10
-148.06250000
 20
2122.00319882
 11
-149.12500000
 21
2117.50000000
  0
LINE
  8
LAYER_4
 10
-256.62500000
 20
2081.94881890
 11
-260.50000000
 21
2080.37500000
  0
LINE
  8
LAYER_4
 10
-260.50000000
 20
2080.37500000
 11
-268.75000000
 21
2080.37500000
  0
LINE
  8
LAYER_4
 10
-264.25000000
 20
2081.45275591
 11
-268.75000000
 21
2080.37500000
  0
LINE
  8
LAYER_4
 10
-264.25000000
 20
2079.29724409
 11
-268.75000000
 21
2080.37500000
  0
LINE
  8
LAYER_4
 10
-68.87500000
 20
2280.19881890
 11
-58.62500000
 21
2286.87500000
  0
LINE
  8
LAYER_4
 10
-58.62500000
 20
2286.87500000
 11
-49.00000000
 21
2287.25000000
  0
LINE
  8
LAYER_4
 10
-53.45472441
 20
2285.99827756
 11
-49.00000000
 21
2287.25000000
  0
LINE
  8
LAYER_4
 10
-53.53838583
 20
2288.15182087
 11
-49.00000000
 21
2287.25000000
  0
LINE
  8
LAYER_4
 10
-50.00000000
 20
2361.19881890
 11
-57.25000000
 21
2361.37500000
  0
LINE
  8
LAYER_4
 10
-57.25000000
 20
2361.37500000
 11
-68.12500000
 21
2351.12500000
  0
LINE
  8
LAYER_4
 10
-65.58956693
 20
2354.99557087
 11
-68.12500000
 21
2351.12500000
  0
LINE
  8
LAYER_4
 10
-64.11122047
 20
2353.42716535
 11
-68.12500000
 21
2351.12500000
  0
LINE
  8
LAYER_4
 10
-33.37500000
 20
2352.44881890
 11
-39.00000000
 21
2352.37500000
  0
LINE
  8
LAYER_4
 10
-39.00000000
 20
2352.37500000
 11
-43.62500000
 21
2346.50000000
  0
LINE
  8
LAYER_4
 10
-41.68823819
 20
2350.70226378
 11
-43.62500000
 21
2346.50000000
  0
LINE
  8
LAYER_4
 10
-39.99483268
 20
2349.36909449
 11
-43.62500000
 21
2346.50000000
  0
LINE
  8
LAYER_4
 10
-14.12500000
 20
2131.32947835
 11
-7.62500000
 21
2131.32947835
  0
LINE
  8
LAYER_4
 10
-7.62500000
 20
2131.32947835
 11
4.50000000
 21
2117.25000000
  0
LINE
  8
LAYER_4
 10
0.74729331
 20
2119.95644685
 11
4.50000000
 21
2117.25000000
  0
LINE
  8
LAYER_4
 10
2.38016732
 20
2121.36294291
 11
4.50000000
 21
2117.25000000
  0
LINE
  8
LAYER_11
 10
-321.00000000
 20
2117.25000000
 11
-321.00000000
 21
2217.75000000
  0
LINE
  8
LAYER_11
 10
-318.75000000
 20
2215.50000000
 11
-323.25000000
 21
2220.00000000
  0
LINE
  8
LAYER_11
 10
-318.75000000
 20
2215.75000000
 11
-323.25000000
 21
2220.25000000
  0
LINE
  8
LAYER_11
 10
-318.75000000
 20
2215.25000000
 11
-323.25000000
 21
2219.75000000
  0
LINE
  8
LAYER_11
 10
-323.25000000
 20
2119.50000000
 11
-318.75000000
 21
2115.00000000
  0
LINE
  8
LAYER_11
 10
-323.25000000
 20
2119.25000000
 11
-318.75000000
 21
2114.75000000
  0
LINE
  8
LAYER_11
 10
-323.25000000
 20
2119.75000000
 11
-318.75000000
 21
2115.25000000
  0
TEXT
  1
8'-4 1/2"
  7
Arial Narrow
  8
LAYER_11
 10
-326.62500000
 20
2155.93750000
 40
5.09392818
 50
90.00000000
  0
LINE
  8
LAYER_11
 10
-321.00000000
 20
2217.75000000
 11
-321.00000000
 21
2227.25000000
  0
LINE
  8
LAYER_11
 10
-318.75000000
 20
2225.00000000
 11
-323.25000000
 21
2229.50000000
  0
LINE
  8
LAYER_11
 10
-318.75000000
 20
2225.25000000
 11
-323.25000000
 21
2229.75000000
  0
LINE
  8
LAYER_11
 10
-318.75000000
 20
2224.75000000
 11
-323.25000000
 21
2229.25000000
  0
LINE
  8
LAYER_11
 10
-323.25000000
 20
2220.00000000
 11
-318.75000000
 21
2215.50000000
  0
LINE
  8
LAYER_11
 10
-323.25000000
 20
2219.75000000
 11
-318.75000000
 21
2215.25000000
  0
LINE
  8
LAYER_11
 10
-323.25000000
 20
2220.25000000
 11
-318.75000000
 21
2215.75000000
  0
TEXT
  1
9 1/2"
  7
Arial Narrow
  8
LAYER_11
 10
-331.25000000
 20
2214.37500000
 40
5.09392818
 50
90.00000000
  0
LINE
  8
LAYER_11
 10
-321.00000000
 20
2227.25000000
 11
-321.00000000
 21
2323.25000000
  0
LINE
  8
LAYER_11
 10
-318.75000000
 20
2321.00000000
 11
-323.25000000
 21
2325.50000000
  0
LINE
  8
LAYER_11
 10
-318.75000000
 20
2321.25000000
 11
-323.25000000
 21
2325.75000000
  0
LINE
  8
LAYER_11
 10
-318.75000000
 20
2320.75000000
 11
-323.25000000
 21
2325.25000000
  0
LINE
  8
LAYER_11
 10
-323.25000000
 20
2229.50000000
 11
-318.75000000
 21
2225.00000000
  0
LINE
  8
LAYER_11
 10
-323.25000000
 20
2229.25000000
 11
-318.75000000
 21
2224.75000000
  0
LINE
  8
LAYER_11
 10
-323.25000000
 20
2229.75000000
 11
-318.75000000
 21
2225.25000000
  0
TEXT
  1
8'-0"
  7
Arial Narrow
  8
LAYER_11
 10
-326.62500000
 20
2268.93750000
 40
5.09392818
 50
90.00000000
  0
LINE
  8
LAYER_2
 10
-284.75000000
 20
2117.25000000
 11
13.25000000
 21
2117.25000000
  0
LINE
  8
LAYER_2
 10
-281.00000000
 20
2114.75000000
 11
-279.12500000
 21
2116.62500000
  0
LINE
  8
LAYER_2
 10
-279.12500000
 20
2116.62500000
 11
-277.25000000
 21
2114.75000000
  0
LINE
  8
LAYER_2
 10
-281.00000000
 20
2114.75000000
 11
-277.25000000
 21
2114.75000000
  0
LINE
  8
LAYER_2
 10
-273.12500000
 20
2114.37500000
 11
-272.50000000
 21
2115.00000000
  0
LINE
  8
LAYER_2
 10
-272.50000000
 20
2115.00000000
 11
-271.87500000
 21
2114.37500000
  0
LINE
  8
LAYER_2
 10
-273.12500000
 20
2114.37500000
 11
-271.87500000
 21
2114.37500000
  0
LINE
  8
LAYER_2
 10
-270.00000000
 20
2115.00000000
 11
-268.75000000
 21
2116.25000000
  0
LINE
  8
LAYER_2
 10
-268.75000000
 20
2116.25000000
 11
-267.50000000
 21
2115.00000000
  0
LINE
  8
LAYER_2
 10
-270.00000000
 20
2115.00000000
 11
-267.50000000
 21
2115.00000000
  0
LINE
  8
LAYER_2
 10
-262.62500000
 20
2113.87500000
 11
-262.00000000
 21
2114.50000000
  0
LINE
  8
LAYER_2
 10
-262.00000000
 20
2114.50000000
 11
-261.37500000
 21
2113.87500000
  0
LINE
  8
LAYER_2
 10
-262.62500000
 20
2113.87500000
 11
-261.37500000
 21
2113.87500000
  0
LINE
  8
LAYER_2
 10
-261.00000000
 20
2114.75000000
 11
-259.12500000
 21
2116.62500000
  0
LINE
  8
LAYER_2
 10
-259.12500000
 20
2116.62500000
 11
-257.25000000
 21
2114.75000000
  0
LINE
  8
LAYER_2
 10
-261.00000000
 20
2114.75000000
 11
-257.25000000
 21
2114.75000000
  0
LINE
  8
LAYER_2
 10
-254.25000000
 20
2114.25000000
 11
-253.00000000
 21
2115.50000000
  0
LINE
  8
LAYER_2
 10
-253.00000000
 20
2115.50000000
 11
-251.75000000
 21
2114.25000000
  0
LINE
  8
LAYER_2
 10
-254.25000000
 20
2114.25000000
 11
-251.75000000
 21
2114.25000000
  0
LINE
  8
LAYER_2
 10
-249.25000000
 20
2115.50000000
 11
-248.62500000
 21
2116.12500000
  0
LINE
  8
LAYER_2
 10
-248.62500000
 20
2116.12500000
 11
-248.00000000
 21
2115.50000000
  0
LINE
  8
LAYER_2
 10
-249.25000000
 20
2115.50000000
 11
-248.00000000
 21
2115.50000000
  0
LINE
  8
LAYER_2
 10
-243.87500000
 20
2113.87500000
 11
-242.62500000
 21
2115.12500000
  0
LINE
  8
LAYER_2
 10
-242.62500000
 20
2115.12500000
 11
-241.37500000
 21
2113.87500000
  0
LINE
  8
LAYER_2
 10
-243.87500000
 20
2113.87500000
 11
-241.37500000
 21
2113.87500000
  0
LINE
  8
LAYER_2
 10
-241.00000000
 20
2116.00000000
 11
-239.75000000
 21
2117.25000000
  0
LINE
  8
LAYER_2
 10
-239.75000000
 20
2117.25000000
 11
-238.50000000
 21
2116.00000000
  0
LINE
  8
LAYER_2
 10
-241.00000000
 20
2116.00000000
 11
-238.50000000
 21
2116.00000000
  0
LINE
  8
LAYER_2
 10
-236.00000000
 20
2114.75000000
 11
-234.12500000
 21
2116.62500000
  0
LINE
  8
LAYER_2
 10
-234.12500000
 20
2116.62500000
 11
-232.25000000
 21
2114.75000000
  0
LINE
  8
LAYER_2
 10
-236.00000000
 20
2114.75000000
 11
-232.25000000
 21
2114.75000000
  0
LINE
  8
LAYER_2
 10
-228.12500000
 20
2114.37500000
 11
-227.50000000
 21
2115.00000000
  0
LINE
  8
LAYER_2
 10
-227.50000000
 20
2115.00000000
 11
-226.87500000
 21
2114.37500000
  0
LINE
  8
LAYER_2
 10
-228.12500000
 20
2114.37500000
 11
-226.87500000
 21
2114.37500000
  0
LINE
  8
LAYER_2
 10
-225.00000000
 20
2115.00000000
 11
-223.75000000
 21
2116.25000000
  0
LINE
  8
LAYER_2
 10
-223.75000000
 20
2116.25000000
 11
-222.50000000
 21
2115.00000000
  0
LINE
  8
LAYER_2
 10
-225.00000000
 20
2115.00000000
 11
-222.50000000
 21
2115.00000000
  0
LINE
  8
LAYER_2
 10
-217.62500000
 20
2113.87500000
 11
-217.00000000
 21
2114.50000000
  0
LINE
  8
LAYER_2
 10
-217.00000000
 20
2114.50000000
 11
-216.37500000
 21
2113.87500000
  0
LINE
  8
LAYER_2
 10
-217.62500000
 20
2113.87500000
 11
-216.37500000
 21
2113.87500000
  0
LINE
  8
LAYER_2
 10
-216.00000000
 20
2114.75000000
 11
-214.12500000
 21
2116.62500000
  0
LINE
  8
LAYER_2
 10
-214.12500000
 20
2116.62500000
 11
-212.25000000
 21
2114.75000000
  0
LINE
  8
LAYER_2
 10
-216.00000000
 20
2114.75000000
 11
-212.25000000
 21
2114.75000000
  0
LINE
  8
LAYER_2
 10
-209.25000000
 20
2114.25000000
 11
-208.00000000
 21
2115.50000000
  0
LINE
  8
LAYER_2
 10
-208.00000000
 20
2115.50000000
 11
-206.75000000
 21
2114.25000000
  0
LINE
  8
LAYER_2
 10
-209.25000000
 20
2114.25000000
 11
-206.75000000
 21
2114.25000000
  0
LINE
  8
LAYER_2
 10
-204.25000000
 20
2115.50000000
 11
-203.62500000
 21
2116.12500000
  0
LINE
  8
LAYER_2
 10
-203.62500000
 20
2116.12500000
 11
-203.00000000
 21
2115.50000000
  0
LINE
  8
LAYER_2
 10
-204.25000000
 20
2115.50000000
 11
-203.00000000
 21
2115.50000000
  0
LINE
  8
LAYER_2
 10
-198.87500000
 20
2113.87500000
 11
-197.62500000
 21
2115.12500000
  0
LINE
  8
LAYER_2
 10
-197.62500000
 20
2115.12500000
 11
-196.37500000
 21
2113.87500000
  0
LINE
  8
LAYER_2
 10
-198.87500000
 20
2113.87500000
 11
-196.37500000
 21
2113.87500000
  0
LINE
  8
LAYER_2
 10
-196.00000000
 20
2116.00000000
 11
-194.75000000
 21
2117.25000000
  0
LINE
  8
LAYER_2
 10
-194.75000000
 20
2117.25000000
 11
-193.50000000
 21
2116.00000000
  0
LINE
  8
LAYER_2
 10
-196.00000000
 20
2116.00000000
 11
-193.50000000
 21
2116.00000000
  0
LINE
  8
LAYER_2
 10
-191.00000000
 20
2114.75000000
 11
-189.12500000
 21
2116.62500000
  0
LINE
  8
LAYER_2
 10
-189.12500000
 20
2116.62500000
 11
-187.25000000
 21
2114.75000000
  0
LINE
  8
LAYER_2
 10
-191.00000000
 20
2114.75000000
 11
-187.25000000
 21
2114.75000000
  0
LINE
  8
LAYER_2
 10
-183.12500000
 20
2114.37500000
 11
-182.50000000
 21
2115.00000000
  0
LINE
  8
LAYER_2
 10
-182.50000000
 20
2115.00000000
 11
-181.87500000
 21
2114.37500000
  0
LINE
  8
LAYER_2
 10
-183.12500000
 20
2114.37500000
 11
-181.87500000
 21
2114.37500000
  0
LINE
  8
LAYER_2
 10
-180.00000000
 20
2115.00000000
 11
-178.75000000
 21
2116.25000000
  0
LINE
  8
LAYER_2
 10
-178.75000000
 20
2116.25000000
 11
-177.50000000
 21
2115.00000000
  0
LINE
  8
LAYER_2
 10
-180.00000000
 20
2115.00000000
 11
-177.50000000
 21
2115.00000000
  0
LINE
  8
LAYER_2
 10
-172.62500000
 20
2113.87500000
 11
-172.00000000
 21
2114.50000000
  0
LINE
  8
LAYER_2
 10
-172.00000000
 20
2114.50000000
 11
-171.37500000
 21
2113.87500000
  0
LINE
  8
LAYER_2
 10
-172.62500000
 20
2113.87500000
 11
-171.37500000
 21
2113.87500000
  0
LINE
  8
LAYER_2
 10
-171.00000000
 20
2114.75000000
 11
-169.12500000
 21
2116.62500000
  0
LINE
  8
LAYER_2
 10
-169.12500000
 20
2116.62500000
 11
-167.25000000
 21
2114.75000000
  0
LINE
  8
LAYER_2
 10
-171.00000000
 20
2114.75000000
 11
-167.25000000
 21
2114.75000000
  0
LINE
  8
LAYER_2
 10
-164.25000000
 20
2114.25000000
 11
-163.00000000
 21
2115.50000000
  0
LINE
  8
LAYER_2
 10
-163.00000000
 20
2115.50000000
 11
-161.75000000
 21
2114.25000000
  0
LINE
  8
LAYER_2
 10
-164.25000000
 20
2114.25000000
 11
-161.75000000
 21
2114.25000000
  0
LINE
  8
LAYER_2
 10
-159.25000000
 20
2115.50000000
 11
-158.62500000
 21
2116.12500000
  0
LINE
  8
LAYER_2
 10
-158.62500000
 20
2116.12500000
 11
-158.00000000
 21
2115.50000000
  0
LINE
  8
LAYER_2
 10
-159.25000000
 20
2115.50000000
 11
-158.00000000
 21
2115.50000000
  0
LINE
  8
LAYER_2
 10
-153.87500000
 20
2113.87500000
 11
-152.62500000
 21
2115.12500000
  0
LINE
  8
LAYER_2
 10
-152.62500000
 20
2115.12500000
 11
-151.37500000
 21
2113.87500000
  0
LINE
  8
LAYER_2
 10
-153.87500000
 20
2113.87500000
 11
-151.37500000
 21
2113.87500000
  0
LINE
  8
LAYER_2
 10
-151.00000000
 20
2116.00000000
 11
-149.75000000
 21
2117.25000000
  0
LINE
  8
LAYER_2
 10
-149.75000000
 20
2117.25000000
 11
-148.50000000
 21
2116.00000000
  0
LINE
  8
LAYER_2
 10
-151.00000000
 20
2116.00000000
 11
-148.50000000
 21
2116.00000000
  0
LINE
  8
LAYER_2
 10
-146.00000000
 20
2114.75000000
 11
-144.12500000
 21
2116.62500000
  0
LINE
  8
LAYER_2
 10
-144.12500000
 20
2116.62500000
 11
-142.25000000
 21
2114.75000000
  0
LINE
  8
LAYER_2
 10
-146.00000000
 20
2114.75000000
 11
-142.25000000
 21
2114.75000000
  0
LINE
  8
LAYER_2
 10
-138.12500000
 20
2114.37500000
 11
-137.50000000
 21
2115.00000000
  0
LINE
  8
LAYER_2
 10
-137.50000000
 20
2115.00000000
 11
-136.87500000
 21
2114.37500000
  0
LINE
  8
LAYER_2
 10
-138.12500000
 20
2114.37500000
 11
-136.87500000
 21
2114.37500000
  0
LINE
  8
LAYER_2
 10
-135.00000000
 20
2115.00000000
 11
-133.75000000
 21
2116.25000000
  0
LINE
  8
LAYER_2
 10
-133.75000000
 20
2116.25000000
 11
-132.50000000
 21
2115.00000000
  0
LINE
  8
LAYER_2
 10
-135.00000000
 20
2115.00000000
 11
-132.50000000
 21
2115.00000000
  0
LINE
  8
LAYER_2
 10
-127.62500000
 20
2113.87500000
 11
-127.00000000
 21
2114.50000000
  0
LINE
  8
LAYER_2
 10
-127.00000000
 20
2114.50000000
 11
-126.37500000
 21
2113.87500000
  0
LINE
  8
LAYER_2
 10
-127.62500000
 20
2113.87500000
 11
-126.37500000
 21
2113.87500000
  0
LINE
  8
LAYER_2
 10
-126.00000000
 20
2114.75000000
 11
-124.12500000
 21
2116.62500000
  0
LINE
  8
LAYER_2
 10
-124.12500000
 20
2116.62500000
 11
-122.25000000
 21
2114.75000000
  0
LINE
  8
LAYER_2
 10
-126.00000000
 20
2114.75000000
 11
-122.25000000
 21
2114.75000000
  0
LINE
  8
LAYER_2
 10
-119.25000000
 20
2114.25000000
 11
-118.00000000
 21
2115.50000000
  0
LINE
  8
LAYER_2
 10
-118.00000000
 20
2115.50000000
 11
-116.75000000
 21
2114.25000000
  0
LINE
  8
LAYER_2
 10
-119.25000000
 20
2114.25000000
 11
-116.75000000
 21
2114.25000000
  0
LINE
  8
LAYER_2
 10
-114.25000000
 20
2115.50000000
 11
-113.62500000
 21
2116.12500000
  0
LINE
  8
LAYER_2
 10
-113.62500000
 20
2116.12500000
 11
-113.00000000
 21
2115.50000000
  0
LINE
  8
LAYER_2
 10
-114.25000000
 20
2115.50000000
 11
-113.00000000
 21
2115.50000000
  0
LINE
  8
LAYER_2
 10
-108.87500000
 20
2113.87500000
 11
-107.62500000
 21
2115.12500000
  0
LINE
  8
LAYER_2
 10
-107.62500000
 20
2115.12500000
 11
-106.37500000
 21
2113.87500000
  0
LINE
  8
LAYER_2
 10
-108.87500000
 20
2113.87500000
 11
-106.37500000
 21
2113.87500000
  0
LINE
  8
LAYER_2
 10
-106.00000000
 20
2116.00000000
 11
-104.75000000
 21
2117.25000000
  0
LINE
  8
LAYER_2
 10
-104.75000000
 20
2117.25000000
 11
-103.50000000
 21
2116.00000000
  0
LINE
  8
LAYER_2
 10
-106.00000000
 20
2116.00000000
 11
-103.50000000
 21
2116.00000000
  0
LINE
  8
LAYER_2
 10
-101.00000000
 20
2114.75000000
 11
-99.12500000
 21
2116.62500000
  0
LINE
  8
LAYER_2
 10
-99.12500000
 20
2116.62500000
 11
-97.25000000
 21
2114.75000000
  0
LINE
  8
LAYER_2
 10
-101.00000000
 20
2114.75000000
 11
-97.25000000
 21
2114.75000000
  0
LINE
  8
LAYER_2
 10
-93.12500000
 20
2114.37500000
 11
-92.50000000
 21
2115.00000000
  0
LINE
  8
LAYER_2
 10
-92.50000000
 20
2115.00000000
 11
-91.87500000
 21
2114.37500000
  0
LINE
  8
LAYER_2
 10
-93.12500000
 20
2114.37500000
 11
-91.87500000
 21
2114.37500000
  0
LINE
  8
LAYER_2
 10
-90.00000000
 20
2115.00000000
 11
-88.75000000
 21
2116.25000000
  0
LINE
  8
LAYER_2
 10
-88.75000000
 20
2116.25000000
 11
-87.50000000
 21
2115.00000000
  0
LINE
  8
LAYER_2
 10
-90.00000000
 20
2115.00000000
 11
-87.50000000
 21
2115.00000000
  0
LINE
  8
LAYER_2
 10
-82.62500000
 20
2113.87500000
 11
-82.00000000
 21
2114.50000000
  0
LINE
  8
LAYER_2
 10
-82.00000000
 20
2114.50000000
 11
-81.37500000
 21
2113.87500000
  0
LINE
  8
LAYER_2
 10
-82.62500000
 20
2113.87500000
 11
-81.37500000
 21
2113.87500000
  0
LINE
  8
LAYER_2
 10
-81.00000000
 20
2114.75000000
 11
-79.12500000
 21
2116.62500000
  0
LINE
  8
LAYER_2
 10
-79.12500000
 20
2116.62500000
 11
-77.25000000
 21
2114.75000000
  0
LINE
  8
LAYER_2
 10
-81.00000000
 20
2114.75000000
 11
-77.25000000
 21
2114.75000000
  0
LINE
  8
LAYER_2
 10
-74.25000000
 20
2114.25000000
 11
-73.00000000
 21
2115.50000000
  0
LINE
  8
LAYER_2
 10
-73.00000000
 20
2115.50000000
 11
-71.75000000
 21
2114.25000000
  0
LINE
  8
LAYER_2
 10
-74.25000000
 20
2114.25000000
 11
-71.75000000
 21
2114.25000000
  0
LINE
  8
LAYER_2
 10
-69.25000000
 20
2115.50000000
 11
-68.62500000
 21
2116.12500000
  0
LINE
  8
LAYER_2
 10
-68.62500000
 20
2116.12500000
 11
-68.00000000
 21
2115.50000000
  0
LINE
  8
LAYER_2
 10
-69.25000000
 20
2115.50000000
 11
-68.00000000
 21
2115.50000000
  0
LINE
  8
LAYER_2
 10
-63.87500000
 20
2113.87500000
 11
-62.62500000
 21
2115.12500000
  0
LINE
  8
LAYER_2
 10
-62.62500000
 20
2115.12500000
 11
-61.37500000
 21
2113.87500000
  0
LINE
  8
LAYER_2
 10
-63.87500000
 20
2113.87500000
 11
-61.37500000
 21
2113.87500000
  0
LINE
  8
LAYER_2
 10
-61.00000000
 20
2116.00000000
 11
-59.75000000
 21
2117.25000000
  0
LINE
  8
LAYER_2
 10
-59.75000000
 20
2117.25000000
 11
-58.50000000
 21
2116.00000000
  0
LINE
  8
LAYER_2
 10
-61.00000000
 20
2116.00000000
 11
-58.50000000
 21
2116.00000000
  0
LINE
  8
LAYER_2
 10
-56.00000000
 20
2114.75000000
 11
-54.12500000
 21
2116.62500000
  0
LINE
  8
LAYER_2
 10
-54.12500000
 20
2116.62500000
 11
-52.25000000
 21
2114.75000000
  0
LINE
  8
LAYER_2
 10
-56.00000000
 20
2114.75000000
 11
-52.25000000
 21
2114.75000000
  0
LINE
  8
LAYER_2
 10
-48.12500000
 20
2114.37500000
 11
-47.50000000
 21
2115.00000000
  0
LINE
  8
LAYER_2
 10
-47.50000000
 20
2115.00000000
 11
-46.87500000
 21
2114.37500000
  0
LINE
  8
LAYER_2
 10
-48.12500000
 20
2114.37500000
 11
-46.87500000
 21
2114.37500000
  0
LINE
  8
LAYER_2
 10
-45.00000000
 20
2115.00000000
 11
-43.75000000
 21
2116.25000000
  0
LINE
  8
LAYER_2
 10
-43.75000000
 20
2116.25000000
 11
-42.50000000
 21
2115.00000000
  0
LINE
  8
LAYER_2
 10
-45.00000000
 20
2115.00000000
 11
-42.50000000
 21
2115.00000000
  0
LINE
  8
LAYER_2
 10
-37.62500000
 20
2113.87500000
 11
-37.00000000
 21
2114.50000000
  0
LINE
  8
LAYER_2
 10
-37.00000000
 20
2114.50000000
 11
-36.37500000
 21
2113.87500000
  0
LINE
  8
LAYER_2
 10
-37.62500000
 20
2113.87500000
 11
-36.37500000
 21
2113.87500000
  0
LINE
  8
LAYER_2
 10
-36.00000000
 20
2114.75000000
 11
-34.12500000
 21
2116.62500000
  0
LINE
  8
LAYER_2
 10
-34.12500000
 20
2116.62500000
 11
-32.25000000
 21
2114.75000000
  0
LINE
  8
LAYER_2
 10
-36.00000000
 20
2114.75000000
 11
-32.25000000
 21
2114.75000000
  0
LINE
  8
LAYER_2
 10
-29.25000000
 20
2114.25000000
 11
-28.00000000
 21
2115.50000000
  0
LINE
  8
LAYER_2
 10
-28.00000000
 20
2115.50000000
 11
-26.75000000
 21
2114.25000000
  0
LINE
  8
LAYER_2
 10
-29.25000000
 20
2114.25000000
 11
-26.75000000
 21
2114.25000000
  0
LINE
  8
LAYER_2
 10
-24.25000000
 20
2115.50000000
 11
-23.62500000
 21
2116.12500000
  0
LINE
  8
LAYER_2
 10
-23.62500000
 20
2116.12500000
 11
-23.00000000
 21
2115.50000000
  0
LINE
  8
LAYER_2
 10
-24.25000000
 20
2115.50000000
 11
-23.00000000
 21
2115.50000000
  0
LINE
  8
LAYER_2
 10
-18.87500000
 20
2113.87500000
 11
-17.62500000
 21
2115.12500000
  0
LINE
  8
LAYER_2
 10
-17.62500000
 20
2115.12500000
 11
-16.37500000
 21
2113.87500000
  0
LINE
  8
LAYER_2
 10
-18.87500000
 20
2113.87500000
 11
-16.37500000
 21
2113.87500000
  0
LINE
  8
LAYER_2
 10
-16.00000000
 20
2116.00000000
 11
-14.75000000
 21
2117.25000000
  0
LINE
  8
LAYER_2
 10
-14.75000000
 20
2117.25000000
 11
-13.50000000
 21
2116.00000000
  0
LINE
  8
LAYER_2
 10
-16.00000000
 20
2116.00000000
 11
-13.50000000
 21
2116.00000000
  0
LINE
  8
LAYER_2
 10
-11.00000000
 20
2114.75000000
 11
-9.12500000
 21
2116.62500000
  0
LINE
  8
LAYER_2
 10
-9.12500000
 20
2116.62500000
 11
-7.25000000
 21
2114.75000000
  0
LINE
  8
LAYER_2
 10
-11.00000000
 20
2114.75000000
 11
-7.25000000
 21
2114.75000000
  0
LINE
  8
LAYER_2
 10
-3.12500000
 20
2114.37500000
 11
-2.50000000
 21
2115.00000000
  0
LINE
  8
LAYER_2
 10
-2.50000000
 20
2115.00000000
 11
-1.87500000
 21
2114.37500000
  0
LINE
  8
LAYER_2
 10
-3.12500000
 20
2114.37500000
 11
-1.87500000
 21
2114.37500000
  0
LINE
  8
LAYER_2
 10
0.00000000
 20
2115.00000000
 11
1.25000000
 21
2116.25000000
  0
LINE
  8
LAYER_2
 10
1.25000000
 20
2116.25000000
 11
2.50000000
 21
2115.00000000
  0
LINE
  8
LAYER_2
 10
0.00000000
 20
2115.00000000
 11
2.50000000
 21
2115.00000000
  0
LINE
  8
LAYER_2
 10
7.37500000
 20
2113.87500000
 11
8.00000000
 21
2114.50000000
  0
LINE
  8
LAYER_2
 10
8.00000000
 20
2114.50000000
 11
8.62500000
 21
2113.87500000
  0
LINE
  8
LAYER_2
 10
7.37500000
 20
2113.87500000
 11
8.62500000
 21
2113.87500000
  0
LINE
  8
LAYER_2
 10
9.00000000
 20
2114.75000000
 11
10.87500000
 21
2116.62500000
  0
LINE
  8
LAYER_2
 10
10.87500000
 20
2116.62500000
 11
12.75000000
 21
2114.75000000
  0
LINE
  8
LAYER_2
 10
9.00000000
 20
2114.75000000
 11
12.75000000
 21
2114.75000000
  0
LINE
  8
LAYER_2
 10
13.25000000
 20
2117.25000000
 11
13.25000000
 21
2117.25000000
  0
LINE
  8
LAYER_2
 10
13.25000000
 20
2117.25000000
 11
13.25000000
 21
2117.25000000
  0
LINE
  8
LAYER_2
 10
13.25000000
 20
2065.25000000
 11
13.25000000
 21
2117.25000000
  0
LINE
  8
LAYER_2
 10
13.25000000
 20
2065.25000000
 11
1.25000000
 21
2065.25000000
  0
LINE
  8
LAYER_2
 10
2.87500000
 20
2105.50000000
 11
3.50000000
 21
2106.12500000
  0
LINE
  8
LAYER_2
 10
3.50000000
 20
2106.12500000
 11
4.12500000
 21
2105.50000000
  0
LINE
  8
LAYER_2
 10
2.87500000
 20
2105.50000000
 11
4.12500000
 21
2105.50000000
  0
LINE
  8
LAYER_2
 10
3.37500000
 20
2099.62500000
 11
4.00000000
 21
2100.25000000
  0
LINE
  8
LAYER_2
 10
4.00000000
 20
2100.25000000
 11
4.62500000
 21
2099.62500000
  0
LINE
  8
LAYER_2
 10
3.37500000
 20
2099.62500000
 11
4.62500000
 21
2099.62500000
  0
LINE
  8
LAYER_2
 10
1.75000000
 20
2092.50000000
 11
3.00000000
 21
2093.75000000
  0
LINE
  8
LAYER_2
 10
3.00000000
 20
2093.75000000
 11
4.25000000
 21
2092.50000000
  0
LINE
  8
LAYER_2
 10
1.75000000
 20
2092.50000000
 11
4.25000000
 21
2092.50000000
  0
LINE
  8
LAYER_2
 10
1.75000000
 20
2089.87500000
 11
2.37500000
 21
2090.50000000
  0
LINE
  8
LAYER_2
 10
2.37500000
 20
2090.50000000
 11
3.00000000
 21
2089.87500000
  0
LINE
  8
LAYER_2
 10
1.75000000
 20
2089.87500000
 11
3.00000000
 21
2089.87500000
  0
LINE
  8
LAYER_2
 10
2.12500000
 20
2086.62500000
 11
3.37500000
 21
2087.87500000
  0
LINE
  8
LAYER_2
 10
3.37500000
 20
2087.87500000
 11
4.62500000
 21
2086.62500000
  0
LINE
  8
LAYER_2
 10
2.12500000
 20
2086.62500000
 11
4.62500000
 21
2086.62500000
  0
LINE
  8
LAYER_2
 10
2.87500000
 20
2076.87500000
 11
3.50000000
 21
2077.50000000
  0
LINE
  8
LAYER_2
 10
3.50000000
 20
2077.50000000
 11
4.12500000
 21
2076.87500000
  0
LINE
  8
LAYER_2
 10
2.87500000
 20
2076.87500000
 11
4.12500000
 21
2076.87500000
  0
LINE
  8
LAYER_2
 10
3.37500000
 20
2071.00000000
 11
4.00000000
 21
2071.62500000
  0
LINE
  8
LAYER_2
 10
4.00000000
 20
2071.62500000
 11
4.62500000
 21
2071.00000000
  0
LINE
  8
LAYER_2
 10
3.37500000
 20
2071.00000000
 11
4.62500000
 21
2071.00000000
  0
LINE
  8
LAYER_2
 10
6.75000000
 20
2110.25000000
 11
8.00000000
 21
2111.50000000
  0
LINE
  8
LAYER_2
 10
8.00000000
 20
2111.50000000
 11
9.25000000
 21
2110.25000000
  0
LINE
  8
LAYER_2
 10
6.75000000
 20
2110.25000000
 11
9.25000000
 21
2110.25000000
  0
LINE
  8
LAYER_2
 10
6.75000000
 20
2107.62500000
 11
7.37500000
 21
2108.25000000
  0
LINE
  8
LAYER_2
 10
7.37500000
 20
2108.25000000
 11
8.00000000
 21
2107.62500000
  0
LINE
  8
LAYER_2
 10
6.75000000
 20
2107.62500000
 11
8.00000000
 21
2107.62500000
  0
LINE
  8
LAYER_2
 10
7.12500000
 20
2104.37500000
 11
8.37500000
 21
2105.62500000
  0
LINE
  8
LAYER_2
 10
8.37500000
 20
2105.62500000
 11
9.62500000
 21
2104.37500000
  0
LINE
  8
LAYER_2
 10
7.12500000
 20
2104.37500000
 11
9.62500000
 21
2104.37500000
  0
LINE
  8
LAYER_2
 10
5.00000000
 20
2101.12500000
 11
6.25000000
 21
2102.37500000
  0
LINE
  8
LAYER_2
 10
6.25000000
 20
2102.37500000
 11
7.50000000
 21
2101.12500000
  0
LINE
  8
LAYER_2
 10
5.00000000
 20
2101.12500000
 11
7.50000000
 21
2101.12500000
  0
LINE
  8
LAYER_2
 10
5.00000000
 20
2097.25000000
 11
6.87500000
 21
2099.12500000
  0
LINE
  8
LAYER_2
 10
6.87500000
 20
2099.12500000
 11
8.75000000
 21
2097.25000000
  0
LINE
  8
LAYER_2
 10
5.00000000
 20
2097.25000000
 11
8.75000000
 21
2097.25000000
  0
LINE
  8
LAYER_2
 10
7.87500000
 20
2094.62500000
 11
8.50000000
 21
2095.25000000
  0
LINE
  8
LAYER_2
 10
8.50000000
 20
2095.25000000
 11
9.12500000
 21
2094.62500000
  0
LINE
  8
LAYER_2
 10
7.87500000
 20
2094.62500000
 11
9.12500000
 21
2094.62500000
  0
LINE
  8
LAYER_2
 10
6.00000000
 20
2091.37500000
 11
7.25000000
 21
2092.62500000
  0
LINE
  8
LAYER_2
 10
7.25000000
 20
2092.62500000
 11
8.50000000
 21
2091.37500000
  0
LINE
  8
LAYER_2
 10
6.00000000
 20
2091.37500000
 11
8.50000000
 21
2091.37500000
  0
LINE
  8
LAYER_2
 10
8.37500000
 20
2088.75000000
 11
9.00000000
 21
2089.37500000
  0
LINE
  8
LAYER_2
 10
9.00000000
 20
2089.37500000
 11
9.62500000
 21
2088.75000000
  0
LINE
  8
LAYER_2
 10
8.37500000
 20
2088.75000000
 11
9.62500000
 21
2088.75000000
  0
LINE
  8
LAYER_2
 10
5.00000000
 20
2084.87500000
 11
6.87500000
 21
2086.75000000
  0
LINE
  8
LAYER_2
 10
6.87500000
 20
2086.75000000
 11
8.75000000
 21
2084.87500000
  0
LINE
  8
LAYER_2
 10
5.00000000
 20
2084.87500000
 11
8.75000000
 21
2084.87500000
  0
LINE
  8
LAYER_2
 10
6.75000000
 20
2081.62500000
 11
8.00000000
 21
2082.87500000
  0
LINE
  8
LAYER_2
 10
8.00000000
 20
2082.87500000
 11
9.25000000
 21
2081.62500000
  0
LINE
  8
LAYER_2
 10
6.75000000
 20
2081.62500000
 11
9.25000000
 21
2081.62500000
  0
LINE
  8
LAYER_2
 10
6.75000000
 20
2079.00000000
 11
7.37500000
 21
2079.62500000
  0
LINE
  8
LAYER_2
 10
7.37500000
 20
2079.62500000
 11
8.00000000
 21
2079.00000000
  0
LINE
  8
LAYER_2
 10
6.75000000
 20
2079.00000000
 11
8.00000000
 21
2079.00000000
  0
LINE
  8
LAYER_2
 10
7.12500000
 20
2075.75000000
 11
8.37500000
 21
2077.00000000
  0
LINE
  8
LAYER_2
 10
8.37500000
 20
2077.00000000
 11
9.62500000
 21
2075.75000000
  0
LINE
  8
LAYER_2
 10
7.12500000
 20
2075.75000000
 11
9.62500000
 21
2075.75000000
  0
LINE
  8
LAYER_2
 10
5.00000000
 20
2072.50000000
 11
6.25000000
 21
2073.75000000
  0
LINE
  8
LAYER_2
 10
6.25000000
 20
2073.75000000
 11
7.50000000
 21
2072.50000000
  0
LINE
  8
LAYER_2
 10
5.00000000
 20
2072.50000000
 11
7.50000000
 21
2072.50000000
  0
LINE
  8
LAYER_2
 10
5.00000000
 20
2068.62500000
 11
6.87500000
 21
2070.50000000
  0
LINE
  8
LAYER_2
 10
6.87500000
 20
2070.50000000
 11
8.75000000
 21
2068.62500000
  0
LINE
  8
LAYER_2
 10
5.00000000
 20
2068.62500000
 11
8.75000000
 21
2068.62500000
  0
LINE
  8
LAYER_2
 10
11.75000000
 20
2094.75000000
 11
12.37500000
 21
2095.37500000
  0
LINE
  8
LAYER_2
 10
12.37500000
 20
2095.37500000
 11
13.00000000
 21
2094.75000000
  0
LINE
  8
LAYER_2
 10
11.75000000
 20
2094.75000000
 11
13.00000000
 21
2094.75000000
  0
LINE
  8
LAYER_2
 10
10.00000000
 20
2088.25000000
 11
11.25000000
 21
2089.50000000
  0
LINE
  8
LAYER_2
 10
11.25000000
 20
2089.50000000
 11
12.50000000
 21
2088.25000000
  0
LINE
  8
LAYER_2
 10
10.00000000
 20
2088.25000000
 11
12.50000000
 21
2088.25000000
  0
LINE
  8
LAYER_2
 10
11.75000000
 20
2066.12500000
 11
12.37500000
 21
2066.75000000
  0
LINE
  8
LAYER_2
 10
12.37500000
 20
2066.75000000
 11
13.00000000
 21
2066.12500000
  0
LINE
  8
LAYER_2
 10
11.75000000
 20
2066.12500000
 11
13.00000000
 21
2066.12500000
  0
LINE
  8
LAYER_2
 10
1.25000000
 20
2109.25000000
 11
1.25000000
 21
2065.25000000
  0
LINE
  8
LAYER_2
 10
1.25000000
 20
2109.25000000
 11
-2.75000000
 21
2113.25000000
  0
LINE
  8
LAYER_2
 10
-284.75000000
 20
2117.25000000
 11
-284.75000000
 21
2117.25000000
  0
LINE
  8
LAYER_2
 10
-284.75000000
 20
2117.25000000
 11
-284.75000000
 21
2117.25000000
  0
LINE
  8
LAYER_2
 10
-284.75000000
 20
2117.25000000
 11
-284.75000000
 21
2065.25000000
  0
LINE
  8
LAYER_2
 10
-272.75000000
 20
2065.25000000
 11
-284.75000000
 21
2065.25000000
  0
LINE
  8
LAYER_2
 10
-283.12500000
 20
2105.50000000
 11
-282.50000000
 21
2106.12500000
  0
LINE
  8
LAYER_2
 10
-282.50000000
 20
2106.12500000
 11
-281.87500000
 21
2105.50000000
  0
LINE
  8
LAYER_2
 10
-283.12500000
 20
2105.50000000
 11
-281.87500000
 21
2105.50000000
  0
LINE
  8
LAYER_2
 10
-282.62500000
 20
2099.62500000
 11
-282.00000000
 21
2100.25000000
  0
LINE
  8
LAYER_2
 10
-282.00000000
 20
2100.25000000
 11
-281.37500000
 21
2099.62500000
  0
LINE
  8
LAYER_2
 10
-282.62500000
 20
2099.62500000
 11
-281.37500000
 21
2099.62500000
  0
LINE
  8
LAYER_2
 10
-284.25000000
 20
2092.50000000
 11
-283.00000000
 21
2093.75000000
  0
LINE
  8
LAYER_2
 10
-283.00000000
 20
2093.75000000
 11
-281.75000000
 21
2092.50000000
  0
LINE
  8
LAYER_2
 10
-284.25000000
 20
2092.50000000
 11
-281.75000000
 21
2092.50000000
  0
LINE
  8
LAYER_2
 10
-284.25000000
 20
2089.87500000
 11
-283.62500000
 21
2090.50000000
  0
LINE
  8
LAYER_2
 10
-283.62500000
 20
2090.50000000
 11
-283.00000000
 21
2089.87500000
  0
LINE
  8
LAYER_2
 10
-284.25000000
 20
2089.87500000
 11
-283.00000000
 21
2089.87500000
  0
LINE
  8
LAYER_2
 10
-283.87500000
 20
2086.62500000
 11
-282.62500000
 21
2087.87500000
  0
LINE
  8
LAYER_2
 10
-282.62500000
 20
2087.87500000
 11
-281.37500000
 21
2086.62500000
  0
LINE
  8
LAYER_2
 10
-283.87500000
 20
2086.62500000
 11
-281.37500000
 21
2086.62500000
  0
LINE
  8
LAYER_2
 10
-283.12500000
 20
2076.87500000
 11
-282.50000000
 21
2077.50000000
  0
LINE
  8
LAYER_2
 10
-282.50000000
 20
2077.50000000
 11
-281.87500000
 21
2076.87500000
  0
LINE
  8
LAYER_2
 10
-283.12500000
 20
2076.87500000
 11
-281.87500000
 21
2076.87500000
  0
LINE
  8
LAYER_2
 10
-282.62500000
 20
2071.00000000
 11
-282.00000000
 21
2071.62500000
  0
LINE
  8
LAYER_2
 10
-282.00000000
 20
2071.62500000
 11
-281.37500000
 21
2071.00000000
  0
LINE
  8
LAYER_2
 10
-282.62500000
 20
2071.00000000
 11
-281.37500000
 21
2071.00000000
  0
LINE
  8
LAYER_2
 10
-279.25000000
 20
2110.25000000
 11
-278.00000000
 21
2111.50000000
  0
LINE
  8
LAYER_2
 10
-278.00000000
 20
2111.50000000
 11
-276.75000000
 21
2110.25000000
  0
LINE
  8
LAYER_2
 10
-279.25000000
 20
2110.25000000
 11
-276.75000000
 21
2110.25000000
  0
LINE
  8
LAYER_2
 10
-279.25000000
 20
2107.62500000
 11
-278.62500000
 21
2108.25000000
  0
LINE
  8
LAYER_2
 10
-278.62500000
 20
2108.25000000
 11
-278.00000000
 21
2107.62500000
  0
LINE
  8
LAYER_2
 10
-279.25000000
 20
2107.62500000
 11
-278.00000000
 21
2107.62500000
  0
LINE
  8
LAYER_2
 10
-278.87500000
 20
2104.37500000
 11
-277.62500000
 21
2105.62500000
  0
LINE
  8
LAYER_2
 10
-277.62500000
 20
2105.62500000
 11
-276.37500000
 21
2104.37500000
  0
LINE
  8
LAYER_2
 10
-278.87500000
 20
2104.37500000
 11
-276.37500000
 21
2104.37500000
  0
LINE
  8
LAYER_2
 10
-281.00000000
 20
2101.12500000
 11
-279.75000000
 21
2102.37500000
  0
LINE
  8
LAYER_2
 10
-279.75000000
 20
2102.37500000
 11
-278.50000000
 21
2101.12500000
  0
LINE
  8
LAYER_2
 10
-281.00000000
 20
2101.12500000
 11
-278.50000000
 21
2101.12500000
  0
LINE
  8
LAYER_2
 10
-281.00000000
 20
2097.25000000
 11
-279.12500000
 21
2099.12500000
  0
LINE
  8
LAYER_2
 10
-279.12500000
 20
2099.12500000
 11
-277.25000000
 21
2097.25000000
  0
LINE
  8
LAYER_2
 10
-281.00000000
 20
2097.25000000
 11
-277.25000000
 21
2097.25000000
  0
LINE
  8
LAYER_2
 10
-278.12500000
 20
2094.62500000
 11
-277.50000000
 21
2095.25000000
  0
LINE
  8
LAYER_2
 10
-277.50000000
 20
2095.25000000
 11
-276.87500000
 21
2094.62500000
  0
LINE
  8
LAYER_2
 10
-278.12500000
 20
2094.62500000
 11
-276.87500000
 21
2094.62500000
  0
LINE
  8
LAYER_2
 10
-280.00000000
 20
2091.37500000
 11
-278.75000000
 21
2092.62500000
  0
LINE
  8
LAYER_2
 10
-278.75000000
 20
2092.62500000
 11
-277.50000000
 21
2091.37500000
  0
LINE
  8
LAYER_2
 10
-280.00000000
 20
2091.37500000
 11
-277.50000000
 21
2091.37500000
  0
LINE
  8
LAYER_2
 10
-277.62500000
 20
2088.75000000
 11
-277.00000000
 21
2089.37500000
  0
LINE
  8
LAYER_2
 10
-277.00000000
 20
2089.37500000
 11
-276.37500000
 21
2088.75000000
  0
LINE
  8
LAYER_2
 10
-277.62500000
 20
2088.75000000
 11
-276.37500000
 21
2088.75000000
  0
LINE
  8
LAYER_2
 10
-281.00000000
 20
2084.87500000
 11
-279.12500000
 21
2086.75000000
  0
LINE
  8
LAYER_2
 10
-279.12500000
 20
2086.75000000
 11
-277.25000000
 21
2084.87500000
  0
LINE
  8
LAYER_2
 10
-281.00000000
 20
2084.87500000
 11
-277.25000000
 21
2084.87500000
  0
LINE
  8
LAYER_2
 10
-279.25000000
 20
2081.62500000
 11
-278.00000000
 21
2082.87500000
  0
LINE
  8
LAYER_2
 10
-278.00000000
 20
2082.87500000
 11
-276.75000000
 21
2081.62500000
  0
LINE
  8
LAYER_2
 10
-279.25000000
 20
2081.62500000
 11
-276.75000000
 21
2081.62500000
  0
LINE
  8
LAYER_2
 10
-279.25000000
 20
2079.00000000
 11
-278.62500000
 21
2079.62500000
  0
LINE
  8
LAYER_2
 10
-278.62500000
 20
2079.62500000
 11
-278.00000000
 21
2079.00000000
  0
LINE
  8
LAYER_2
 10
-279.25000000
 20
2079.00000000
 11
-278.00000000
 21
2079.00000000
  0
LINE
  8
LAYER_2
 10
-278.87500000
 20
2075.75000000
 11
-277.62500000
 21
2077.00000000
  0
LINE
  8
LAYER_2
 10
-277.62500000
 20
2077.00000000
 11
-276.37500000
 21
2075.75000000
  0
LINE
  8
LAYER_2
 10
-278.87500000
 20
2075.75000000
 11
-276.37500000
 21
2075.75000000
  0
LINE
  8
LAYER_2
 10
-281.00000000
 20
2072.50000000
 11
-279.75000000
 21
2073.75000000
  0
LINE
  8
LAYER_2
 10
-279.75000000
 20
2073.75000000
 11
-278.50000000
 21
2072.50000000
  0
LINE
  8
LAYER_2
 10
-281.00000000
 20
2072.50000000
 11
-278.50000000
 21
2072.50000000
  0
LINE
  8
LAYER_2
 10
-281.00000000
 20
2068.62500000
 11
-279.12500000
 21
2070.50000000
  0
LINE
  8
LAYER_2
 10
-279.12500000
 20
2070.50000000
 11
-277.25000000
 21
2068.62500000
  0
LINE
  8
LAYER_2
 10
-281.00000000
 20
2068.62500000
 11
-277.25000000
 21
2068.62500000
  0
LINE
  8
LAYER_2
 10
-274.25000000
 20
2094.75000000
 11
-273.62500000
 21
2095.37500000
  0
LINE
  8
LAYER_2
 10
-273.62500000
 20
2095.37500000
 11
-273.00000000
 21
2094.75000000
  0
LINE
  8
LAYER_2
 10
-274.25000000
 20
2094.75000000
 11
-273.00000000
 21
2094.75000000
  0
LINE
  8
LAYER_2
 10
-276.00000000
 20
2088.25000000
 11
-274.75000000
 21
2089.50000000
  0
LINE
  8
LAYER_2
 10
-274.75000000
 20
2089.50000000
 11
-273.50000000
 21
2088.25000000
  0
LINE
  8
LAYER_2
 10
-276.00000000
 20
2088.25000000
 11
-273.50000000
 21
2088.25000000
  0
LINE
  8
LAYER_2
 10
-274.25000000
 20
2066.12500000
 11
-273.62500000
 21
2066.75000000
  0
LINE
  8
LAYER_2
 10
-273.62500000
 20
2066.75000000
 11
-273.00000000
 21
2066.12500000
  0
LINE
  8
LAYER_2
 10
-274.25000000
 20
2066.12500000
 11
-273.00000000
 21
2066.12500000
  0
LINE
  8
LAYER_2
 10
-272.75000000
 20
2065.25000000
 11
-272.75000000
 21
2109.25000000
  0
LINE
  8
LAYER_2
 10
-268.75000000
 20
2113.25000000
 11
-272.75000000
 21
2109.25000000
  0
LINE
  8
LAYER_2
 10
-268.75000000
 20
2113.25000000
 11
-2.75000000
 21
2113.25000000
  0
ENDSEC
  0
EOF
