  0
SECTION
  2
HEADER
  9
$LIMMIN
 10
0.00000000
 20
0.00000000
  9
$LIMMAX
 10
1920.00000000
 20
1284.00000000
  9
$EXTMIN
 10
0.00000000
 20
0.00000000
  9
$EXTMAX
 10
1920.00000000
 20
1284.00000000
  9
$LUNITS
 70
4
  0
ENDSEC
  0
SECTION
  2
TABLES
  0
TABLE
  2
LTYPE
 70
5
  0
LTYPE
  2
LARGE
 70
64
  3
___   ___
 72
65
 73
2
 40
20.00000000
 49
10.00000000
 49
-10.00000000
  0
LTYPE
  2
MEDIUM
 70
64
  3
__  __
 72
65
 73
2
 40
10.00000000
 49
5.00000000
 49
-5.00000000
  0
LTYPE
  2
SMALL
 70
64
  3
_ _
 72
65
 73
2
 40
5.00000000
 49
2.00000000
 49
-3.00000000
  0
LTYPE
  2
DASHDOT
 70
64
  3
___ . ___
 72
65
 73
4
 40
21.00000000
 49
15.00000000
 49
-3.00000000
 49
0.00000000
 49
-3.00000000
  0
LTYPE
  2
LONG
 70
64
  3
____ ____
 72
65
 73
2
 40
18.00000000
 49
14.00000000
 49
-4.00000000
  0
ENDTAB
  0
TABLE
  2
LAYER
 70
15
  0
LAYER
  2
LAYER_1
 70
0
 62
1
  6
CONTINUOUS
  0
LAYER
  2
LAYER_2
 70
0
 62
2
  6
CONTINUOUS
  0
LAYER
  2
LAYER_3
 70
0
 62
3
  6
CONTINUOUS
  0
LAYER
  2
LAYER_4
 70
0
 62
4
  6
CONTINUOUS
  0
LAYER
  2
LAYER_5
 70
0
 62
5
  6
CONTINUOUS
  0
LAYER
  2
LAYER_6
 70
0
 62
6
  6
CONTINUOUS
  0
LAYER
  2
LAYER_7
 70
0
 62
7
  6
CONTINUOUS
  0
LAYER
  2
LAYER_8
 70
0
 62
8
  6
CONTINUOUS
  0
LAYER
  2
LAYER_9
 70
0
 62
9
  6
CONTINUOUS
  0
LAYER
  2
LAYER_10
 70
0
 62
10
  6
CONTINUOUS
  0
LAYER
  2
LAYER_11
 70
0
 62
11
  6
CONTINUOUS
  0
LAYER
  2
LAYER_12
 70
0
 62
12
  6
CONTINUOUS
  0
LAYER
  2
LAYER_13
 70
0
 62
13
  6
CONTINUOUS
  0
LAYER
  2
LAYER_14
 70
0
 62
14
  6
CONTINUOUS
  0
LAYER
  2
LAYER_15
 70
0
 62
15
  6
CONTINUOUS
  0
ENDTAB
  0
ENDSEC
  0
SECTION
  2
ENTITIES
  0
LINE
  8
LAYER_3
 10
1111.00000000
 20
1332.24950787
 11
1127.25000000
 21
1332.24950787
  0
LINE
  8
LAYER_3
 10
1111.00000000
 20
1034.24950787
 11
1127.25000000
 21
1034.24950787
  0
LINE
  8
LAYER_3
 10
1107.00000000
 20
1029.24975394
 11
1107.00000000
 21
1014.00000000
  0
LINE
  8
LAYER_3
 10
713.00000000
 20
1029.24975394
 11
713.00000000
 21
1014.00000000
  0
LINE
  8
LAYER_3
 10
708.00000000
 20
1033.74950787
 11
690.50000000
 21
1033.74950787
  0
LINE
  8
LAYER_3
 10
708.00000000
 20
1331.74950787
 11
690.50000000
 21
1331.74950787
  0
LINE
  8
LAYER_3
 10
712.50000000
 20
1336.49950787
 11
712.50000000
 21
1350.75000000
  0
LINE
  8
LAYER_3
 10
1106.50000000
 20
1336.49950787
 11
1106.50000000
 21
1350.75000000
  0
LINE
  8
LAYER_3
 10
849.49975394
 20
1188.37500000
 11
849.49975394
 21
1208.25000000
  0
LINE
  8
LAYER_3
 10
849.49975394
 20
1188.37500000
 11
849.49975394
 21
1211.87500000
  0
LINE
  8
LAYER_3
 10
969.50000000
 20
1188.75000000
 11
969.50000000
 21
1208.50000000
  0
LINE
  8
LAYER_3
 10
969.50000000
 20
1188.75000000
 11
969.50000000
 21
1211.87500000
  0
LINE
  8
LAYER_3
 10
975.50000000
 20
1182.75000000
 11
1002.00000000
 21
1182.75000000
  0
LINE
  8
LAYER_3
 10
975.50000000
 20
1182.75000000
 11
1004.12500000
 21
1182.75000000
  0
TEXT
  1
STRUCTURAL SLAB FOUNDATION
  7
SPHAND
  8
LAYER_4
 10
718.75000000
 20
1003.12500000
 40
8.06549235
 50
0.00000000
  0
TEXT
  1
EXTEND FROST WALL TO 
  7
SPHAND
  8
LAYER_12
 10
743.25000000
 20
1128.56250000
 40
3.82048149
 50
0.00000000
  0
TEXT
  1
SUITABLE DEPTH BELOW FROST
  7
SPHAND
  8
LAYER_12
 10
743.25000000
 20
1122.06250000
 40
3.82048149
 50
0.00000000
  0
TEXT
  1
PENETRATION
  7
SPHAND
  8
LAYER_12
 10
743.25000000
 20
1115.56250000
 40
3.82048149
 50
0.00000000
  0
TEXT
  1
TYPICAL GARAGE SLAB
  7
SPHAND
  8
LAYER_4
 10
792.00000000
 20
1289.31250000
 40
3.82048149
 50
0.00000000
  0
LINE
  8
LAYER_4
 10
792.00000000
 20
1287.63730315
 11
862.25000000
 21
1287.63730315
  0
TEXT
  1
4" CONCRETE SLAB
  7
SPHAND
  8
LAYER_12
 10
792.00000000
 20
1282.06250000
 40
3.82048149
 50
0.00000000
  0
TEXT
  1
# 10-6"X6" W.W. MESH
  7
SPHAND
  8
LAYER_12
 10
792.00000000
 20
1275.06250000
 40
3.82048149
 50
0.00000000
  0
TEXT
  1
5" GRANULAR FILL
  7
SPHAND
  8
LAYER_12
 10
792.00000000
 20
1268.06250000
 40
3.82048149
 50
0.00000000
  0
TEXT
  1
SLOPE TO GARAGE DOOR
  7
SPHAND
  8
LAYER_12
 10
792.00000000
 20
1261.06250000
 40
3.82048149
 50
0.00000000
  0
TEXT
  1
LINE OF FOOTING BELOW SLAB
  7
SPHAND
  8
LAYER_12
 10
757.62500000
 20
1047.43750000
 40
3.82048149
 50
0.00000000
  0
TEXT
  1
LINE OF FOOTING BELOW SLAB
  7
SPHAND
  8
LAYER_12
 10
761.62500000
 20
1321.06250000
 40
3.82048149
 50
0.00000000
  0
TEXT
  1
TYPICAL COLUMN PAD
  7
SPHAND
  8
LAYER_4
 10
877.62500000
 20
1180.56250000
 40
3.82048149
 50
0.00000000
  0
LINE
  8
LAYER_4
 10
877.62500000
 20
1178.88730315
 11
943.37500000
 21
1178.88730315
  0
TEXT
  1
32"x32"x10" PAD FTG.
  7
SPHAND
  8
LAYER_12
 10
877.62500000
 20
1173.93750000
 40
3.82048149
 50
0.00000000
  0
TEXT
  1
4 15M RODS EACH WAY
  7
SPHAND
  8
LAYER_12
 10
877.62500000
 20
1166.93750000
 40
3.82048149
 50
0.00000000
  0
LINE
  8
LAYER_2
 10
712.50000000
 20
1033.74975394
 11
1106.50000000
 21
1033.74975394
  0
LINE
  8
LAYER_2
 10
1106.50000000
 20
1331.99950787
 11
1106.50000000
 21
1033.74975394
  0
LINE
  8
LAYER_2
 10
712.50000000
 20
1331.99950787
 11
1106.50000000
 21
1331.99950787
  0
LINE
  8
LAYER_2
 10
712.50000000
 20
1331.99950787
 11
712.50000000
 21
1033.74975394
  0
LINE
  8
LAYER_2
  6
SMALL
 10
1094.50000000
 20
1319.74950787
 11
1094.50000000
 21
1045.75000000
  0
LINE
  8
LAYER_2
  6
SMALL
 10
724.50000000
 20
1319.74950787
 11
1094.50000000
 21
1319.74950787
  0
LINE
  8
LAYER_2
  6
SMALL
 10
724.50000000
 20
1319.74950787
 11
724.50000000
 21
1045.75000000
  0
LINE
  8
LAYER_2
  6
SMALL
 10
724.50000000
 20
1045.75000000
 11
1094.50000000
 21
1045.75000000
  0
LINE
  8
LAYER_1
 10
1101.50000000
 20
1339.00000000
 11
1101.50000000
 21
1315.00000000
  0
LINE
  8
LAYER_1
 10
1113.50000000
 20
1327.00000000
 11
1089.50000000
 21
1327.00000000
  0
CIRCLE
  8
LAYER_1
 10
1101.50000000
 20
1327.00000000
 40
6.00000000
  0
CIRCLE
  8
LAYER_14
 10
849.49975394
 20
1182.37500000
 40
2.00000000
  0
LINE
  8
LAYER_14
  6
SMALL
 10
833.49975394
 20
1198.37500000
 11
865.49975394
 21
1198.37500000
  0
LINE
  8
LAYER_14
  6
SMALL
 10
833.49975394
 20
1166.37500000
 11
865.49975394
 21
1166.37500000
  0
LINE
  8
LAYER_14
  6
SMALL
 10
865.49975394
 20
1198.37500000
 11
865.49975394
 21
1166.37500000
  0
LINE
  8
LAYER_14
  6
SMALL
 10
833.49975394
 20
1198.37500000
 11
833.49975394
 21
1166.37500000
  0
CIRCLE
  8
LAYER_14
 10
969.50000000
 20
1182.75000000
 40
2.00000000
  0
LINE
  8
LAYER_14
  6
SMALL
 10
953.50000000
 20
1198.75000000
 11
985.50000000
 21
1198.75000000
  0
LINE
  8
LAYER_14
  6
SMALL
 10
953.50000000
 20
1166.75000000
 11
985.50000000
 21
1166.75000000
  0
LINE
  8
LAYER_14
  6
SMALL
 10
985.50000000
 20
1198.75000000
 11
985.50000000
 21
1166.75000000
  0
LINE
  8
LAYER_14
  6
SMALL
 10
953.50000000
 20
1198.75000000
 11
953.50000000
 21
1166.75000000
  0
LINE
  8
LAYER_4
 10
783.50000000
 20
1116.57381890
 11
792.75000000
 21
1116.00000000
  0
LINE
  8
LAYER_4
 10
792.75000000
 20
1116.00000000
 11
722.75000000
 21
1103.37500000
  0
LINE
  8
LAYER_4
 10
728.39960630
 20
1105.85383858
 11
722.75000000
 21
1103.37500000
  0
LINE
  8
LAYER_4
 10
728.90944882
 20
1103.02559055
 11
722.75000000
 21
1103.37500000
  0
LINE
  8
LAYER_11
 10
713.00000000
 20
1016.00000000
 11
1107.00000000
 21
1016.00000000
  0
LINE
  8
LAYER_11
 10
1105.25000000
 20
1014.25000000
 11
1108.75000000
 21
1017.75000000
  0
LINE
  8
LAYER_11
 10
1105.49975394
 20
1014.25000000
 11
1108.99975394
 21
1017.75000000
  0
LINE
  8
LAYER_11
 10
1105.00024606
 20
1014.25000000
 11
1108.50024606
 21
1017.75000000
  0
LINE
  8
LAYER_11
 10
714.75000000
 20
1017.75000000
 11
711.25000000
 21
1014.25000000
  0
LINE
  8
LAYER_11
 10
714.50024606
 20
1017.75000000
 11
711.00024606
 21
1014.25000000
  0
LINE
  8
LAYER_11
 10
714.99975394
 20
1017.75000000
 11
711.49975394
 21
1014.25000000
  0
TEXT
  1
32'-10"
  7
SPSIMP
  8
LAYER_11
 10
896.62524606
 20
1020.93184055
 40
4.24501086
 50
0.00000000
  0
LINE
  8
LAYER_11
 10
1125.25000000
 20
1034.24950787
 11
1125.25000000
 21
1332.24950787
  0
LINE
  8
LAYER_11
 10
1127.00000000
 20
1330.49950787
 11
1123.50000000
 21
1333.99950787
  0
LINE
  8
LAYER_11
 10
1127.00000000
 20
1330.74950787
 11
1123.50000000
 21
1334.24950787
  0
LINE
  8
LAYER_11
 10
1127.00000000
 20
1330.24950787
 11
1123.50000000
 21
1333.74950787
  0
LINE
  8
LAYER_11
 10
1123.50000000
 20
1035.99950787
 11
1127.00000000
 21
1032.49950787
  0
LINE
  8
LAYER_11
 10
1123.50000000
 20
1035.74950787
 11
1127.00000000
 21
1032.24950787
  0
LINE
  8
LAYER_11
 10
1123.50000000
 20
1036.24950787
 11
1127.00000000
 21
1032.74950787
  0
TEXT
  1
24'-10"
  7
SPSIMP
  8
LAYER_11
 10
1120.31815945
 20
1169.87450787
 40
4.24501086
 50
90.00000000
  0
LINE
  8
LAYER_11
 10
712.50000000
 20
1348.75000000
 11
1106.50000000
 21
1348.75000000
  0
LINE
  8
LAYER_11
 10
1104.75000000
 20
1347.00000000
 11
1108.25000000
 21
1350.50000000
  0
LINE
  8
LAYER_11
 10
1104.99975394
 20
1347.00000000
 11
1108.49975394
 21
1350.50000000
  0
LINE
  8
LAYER_11
 10
1104.50024606
 20
1347.00000000
 11
1108.00024606
 21
1350.50000000
  0
LINE
  8
LAYER_11
 10
714.25000000
 20
1350.50000000
 11
710.75000000
 21
1347.00000000
  0
LINE
  8
LAYER_11
 10
714.00024606
 20
1350.50000000
 11
710.50024606
 21
1347.00000000
  0
LINE
  8
LAYER_11
 10
714.49975394
 20
1350.50000000
 11
710.99975394
 21
1347.00000000
  0
TEXT
  1
32'-10"
  7
SPSIMP
  8
LAYER_11
 10
896.12524606
 20
1353.68184055
 40
4.24501086
 50
0.00000000
  0
LINE
  8
LAYER_11
 10
692.50000000
 20
1033.74950787
 11
692.50000000
 21
1331.74950787
  0
LINE
  8
LAYER_11
 10
694.25000000
 20
1329.99950787
 11
690.75000000
 21
1333.49950787
  0
LINE
  8
LAYER_11
 10
694.25000000
 20
1330.24950787
 11
690.75000000
 21
1333.74950787
  0
LINE
  8
LAYER_11
 10
694.25000000
 20
1329.74950787
 11
690.75000000
 21
1333.24950787
  0
LINE
  8
LAYER_11
 10
690.75000000
 20
1035.49950787
 11
694.25000000
 21
1031.99950787
  0
LINE
  8
LAYER_11
 10
690.75000000
 20
1035.24950787
 11
694.25000000
 21
1031.74950787
  0
LINE
  8
LAYER_11
 10
690.75000000
 20
1035.74950787
 11
694.25000000
 21
1032.24950787
  0
TEXT
  1
24'-10"
  7
SPSIMP
  8
LAYER_11
 10
687.56815945
 20
1169.37450787
 40
4.24501086
 50
90.00000000
  0
LINE
  8
LAYER_11
 10
1000.00000000
 20
1033.74975394
 11
1000.00000000
 21
1045.75000000
  0
LINE
  8
LAYER_11
 10
1001.75000000
 20
1044.00000000
 11
998.25000000
 21
1047.50000000
  0
LINE
  8
LAYER_11
 10
1001.75000000
 20
1044.25000000
 11
998.25000000
 21
1047.75000000
  0
LINE
  8
LAYER_11
 10
1001.75000000
 20
1043.75000000
 11
998.25000000
 21
1047.25000000
  0
LINE
  8
LAYER_11
 10
998.25000000
 20
1035.49975394
 11
1001.75000000
 21
1031.99975394
  0
LINE
  8
LAYER_11
 10
998.25000000
 20
1035.24975394
 11
1001.75000000
 21
1031.74975394
  0
LINE
  8
LAYER_11
 10
998.25000000
 20
1035.74975394
 11
1001.75000000
 21
1032.24975394
  0
LINE
  8
LAYER_11
 10
990.49434055
 20
1033.75000000
 11
990.49434055
 21
1045.75000000
  0
LINE
  8
LAYER_11
 10
997.88065945
 20
1033.75000000
 11
997.88065945
 21
1045.75000000
  0
LINE
  8
LAYER_11
 10
990.49434055
 20
1033.75000000
 11
997.88065945
 21
1033.75000000
  0
LINE
  8
LAYER_11
 10
990.49434055
 20
1045.75000000
 11
997.88065945
 21
1045.75000000
  0
LINE
  8
LAYER_11
 10
947.12500000
 20
1319.74950787
 11
947.12500000
 21
1331.99950787
  0
LINE
  8
LAYER_11
 10
948.87500000
 20
1330.24950787
 11
945.37500000
 21
1333.74950787
  0
LINE
  8
LAYER_11
 10
948.87500000
 20
1330.49926181
 11
945.37500000
 21
1333.99926181
  0
LINE
  8
LAYER_11
 10
948.87500000
 20
1329.99975394
 11
945.37500000
 21
1333.49975394
  0
LINE
  8
LAYER_11
 10
945.37500000
 20
1321.49950787
 11
948.87500000
 21
1317.99950787
  0
LINE
  8
LAYER_11
 10
945.37500000
 20
1321.24975394
 11
948.87500000
 21
1317.74975394
  0
LINE
  8
LAYER_11
 10
945.37500000
 20
1321.74926181
 11
948.87500000
 21
1318.24926181
  0
LINE
  8
LAYER_11
 10
937.61934055
 20
1319.74950787
 11
937.61934055
 21
1331.99950787
  0
LINE
  8
LAYER_11
 10
945.00565945
 20
1319.74950787
 11
945.00565945
 21
1331.99950787
  0
LINE
  8
LAYER_11
 10
937.61934055
 20
1319.74950787
 11
945.00565945
 21
1319.74950787
  0
LINE
  8
LAYER_11
 10
937.61934055
 20
1331.99950787
 11
945.00565945
 21
1331.99950787
  0
LINE
  8
LAYER_11
 10
1000.00000000
 20
1045.75000000
 11
1000.00000000
 21
1182.75000000
  0
LINE
  8
LAYER_11
 10
1001.75000000
 20
1181.00000000
 11
998.25000000
 21
1184.50000000
  0
LINE
  8
LAYER_11
 10
1001.75000000
 20
1181.25000000
 11
998.25000000
 21
1184.75000000
  0
LINE
  8
LAYER_11
 10
1001.75000000
 20
1180.75000000
 11
998.25000000
 21
1184.25000000
  0
LINE
  8
LAYER_11
 10
998.25000000
 20
1047.50000000
 11
1001.75000000
 21
1044.00000000
  0
LINE
  8
LAYER_11
 10
998.25000000
 20
1047.25000000
 11
1001.75000000
 21
1043.75000000
  0
LINE
  8
LAYER_11
 10
998.25000000
 20
1047.75000000
 11
1001.75000000
 21
1044.25000000
  0
TEXT
  1
11'-5"
  7
SPSIMP
  8
LAYER_11
 10
995.06815945
 20
1103.43750000
 40
4.24501086
 50
90.00000000
  0
LINE
  8
LAYER_11
 10
712.50000000
 20
1209.87500000
 11
724.50000000
 21
1209.87500000
  0
LINE
  8
LAYER_11
 10
722.75000000
 20
1208.12500000
 11
726.25000000
 21
1211.62500000
  0
LINE
  8
LAYER_11
 10
723.00000000
 20
1208.12500000
 11
726.50000000
 21
1211.62500000
  0
LINE
  8
LAYER_11
 10
722.50000000
 20
1208.12500000
 11
726.00000000
 21
1211.62500000
  0
LINE
  8
LAYER_11
 10
714.25000000
 20
1211.62500000
 11
710.75000000
 21
1208.12500000
  0
LINE
  8
LAYER_11
 10
714.00000000
 20
1211.62500000
 11
710.50000000
 21
1208.12500000
  0
LINE
  8
LAYER_11
 10
714.50000000
 20
1211.62500000
 11
711.00000000
 21
1208.12500000
  0
TEXT
  1
1'-0"
  7
SPSIMP
  8
LAYER_11
 10
724.87500000
 20
1214.80684055
 40
4.24501086
 50
0.00000000
  0
LINE
  8
LAYER_11
 10
724.50000000
 20
1209.87500000
 11
849.49975394
 21
1209.87500000
  0
LINE
  8
LAYER_11
 10
847.74975394
 20
1208.12500000
 11
851.24975394
 21
1211.62500000
  0
LINE
  8
LAYER_11
 10
847.99975394
 20
1208.12500000
 11
851.49975394
 21
1211.62500000
  0
LINE
  8
LAYER_11
 10
847.49975394
 20
1208.12500000
 11
850.99975394
 21
1211.62500000
  0
LINE
  8
LAYER_11
 10
726.25000000
 20
1211.62500000
 11
722.75000000
 21
1208.12500000
  0
LINE
  8
LAYER_11
 10
726.00000000
 20
1211.62500000
 11
722.50000000
 21
1208.12500000
  0
LINE
  8
LAYER_11
 10
726.50000000
 20
1211.62500000
 11
723.00000000
 21
1208.12500000
  0
TEXT
  1
10'-5"
  7
SPSIMP
  8
LAYER_11
 10
775.74975394
 20
1214.80684055
 40
4.24501086
 50
0.00000000
  0
LINE
  8
LAYER_11
 10
849.49975394
 20
1209.87500000
 11
969.50000000
 21
1209.87500000
  0
LINE
  8
LAYER_11
 10
967.75000000
 20
1208.12500000
 11
971.25000000
 21
1211.62500000
  0
LINE
  8
LAYER_11
 10
968.00000000
 20
1208.12500000
 11
971.50000000
 21
1211.62500000
  0
LINE
  8
LAYER_11
 10
967.50000000
 20
1208.12500000
 11
971.00000000
 21
1211.62500000
  0
LINE
  8
LAYER_11
 10
851.24975394
 20
1211.62500000
 11
847.74975394
 21
1208.12500000
  0
LINE
  8
LAYER_11
 10
850.99975394
 20
1211.62500000
 11
847.49975394
 21
1208.12500000
  0
LINE
  8
LAYER_11
 10
851.49975394
 20
1211.62500000
 11
847.99975394
 21
1208.12500000
  0
TEXT
  1
10'-0"
  7
SPSIMP
  8
LAYER_11
 10
898.24975394
 20
1214.80684055
 40
4.24501086
 50
0.00000000
  0
LINE
  8
LAYER_11
 10
969.50000000
 20
1209.87500000
 11
1094.50000000
 21
1209.87500000
  0
LINE
  8
LAYER_11
 10
1092.75000000
 20
1208.12500000
 11
1096.25000000
 21
1211.62500000
  0
LINE
  8
LAYER_11
 10
1093.00000000
 20
1208.12500000
 11
1096.50000000
 21
1211.62500000
  0
LINE
  8
LAYER_11
 10
1092.50000000
 20
1208.12500000
 11
1096.00000000
 21
1211.62500000
  0
LINE
  8
LAYER_11
 10
971.25000000
 20
1211.62500000
 11
967.75000000
 21
1208.12500000
  0
LINE
  8
LAYER_11
 10
971.00000000
 20
1211.62500000
 11
967.50000000
 21
1208.12500000
  0
LINE
  8
LAYER_11
 10
971.50000000
 20
1211.62500000
 11
968.00000000
 21
1208.12500000
  0
TEXT
  1
10'-5"
  7
SPSIMP
  8
LAYER_11
 10
1020.75000000
 20
1214.80684055
 40
4.24501086
 50
0.00000000
  0
LINE
  8
LAYER_11
 10
1094.50000000
 20
1209.87500000
 11
1106.50000000
 21
1209.87500000
  0
LINE
  8
LAYER_11
 10
1104.75000000
 20
1208.12500000
 11
1108.25000000
 21
1211.62500000
  0
LINE
  8
LAYER_11
 10
1105.00000000
 20
1208.12500000
 11
1108.50000000
 21
1211.62500000
  0
LINE
  8
LAYER_11
 10
1104.50000000
 20
1208.12500000
 11
1108.00000000
 21
1211.62500000
  0
LINE
  8
LAYER_11
 10
1096.25000000
 20
1211.62500000
 11
1092.75000000
 21
1208.12500000
  0
LINE
  8
LAYER_11
 10
1096.00000000
 20
1211.62500000
 11
1092.50000000
 21
1208.12500000
  0
LINE
  8
LAYER_11
 10
1096.50000000
 20
1211.62500000
 11
1093.00000000
 21
1208.12500000
  0
TEXT
  1
1'-0"
  7
SPSIMP
  8
LAYER_11
 10
1076.25000000
 20
1214.80684055
 40
4.24501086
 50
0.00000000
  0
ENDSEC
  0
EOF
