  0
SECTION
  2
HEADER
  9
$LIMMIN
 10
0.00000000
 20
0.00000000
  9
$LIMMAX
 10
1920.00000000
 20
1284.00000000
  9
$EXTMIN
 10
0.00000000
 20
0.00000000
  9
$EXTMAX
 10
1920.00000000
 20
1284.00000000
  9
$LUNITS
 70
4
  0
ENDSEC
  0
SECTION
  2
TABLES
  0
TABLE
  2
LTYPE
 70
5
  0
LTYPE
  2
LARGE
 70
64
  3
___   ___
 72
65
 73
2
 40
20.00000000
 49
10.00000000
 49
-10.00000000
  0
LTYPE
  2
MEDIUM
 70
64
  3
__  __
 72
65
 73
2
 40
10.00000000
 49
5.00000000
 49
-5.00000000
  0
LTYPE
  2
SMALL
 70
64
  3
_ _
 72
65
 73
2
 40
5.00000000
 49
2.00000000
 49
-3.00000000
  0
LTYPE
  2
DASHDOT
 70
64
  3
___ . ___
 72
65
 73
4
 40
21.00000000
 49
15.00000000
 49
-3.00000000
 49
0.00000000
 49
-3.00000000
  0
LTYPE
  2
LONG
 70
64
  3
____ ____
 72
65
 73
2
 40
18.00000000
 49
14.00000000
 49
-4.00000000
  0
ENDTAB
  0
TABLE
  2
LAYER
 70
15
  0
LAYER
  2
LAYER_1
 70
0
 62
1
  6
CONTINUOUS
  0
LAYER
  2
LAYER_2
 70
0
 62
2
  6
CONTINUOUS
  0
LAYER
  2
LAYER_3
 70
0
 62
3
  6
CONTINUOUS
  0
LAYER
  2
LAYER_4
 70
0
 62
4
  6
CONTINUOUS
  0
LAYER
  2
LAYER_5
 70
0
 62
5
  6
CONTINUOUS
  0
LAYER
  2
LAYER_6
 70
0
 62
6
  6
CONTINUOUS
  0
LAYER
  2
LAYER_7
 70
0
 62
7
  6
CONTINUOUS
  0
LAYER
  2
LAYER_8
 70
0
 62
8
  6
CONTINUOUS
  0
LAYER
  2
LAYER_9
 70
0
 62
9
  6
CONTINUOUS
  0
LAYER
  2
LAYER_10
 70
0
 62
10
  6
CONTINUOUS
  0
LAYER
  2
LAYER_11
 70
0
 62
11
  6
CONTINUOUS
  0
LAYER
  2
LAYER_12
 70
0
 62
12
  6
CONTINUOUS
  0
LAYER
  2
LAYER_13
 70
0
 62
13
  6
CONTINUOUS
  0
LAYER
  2
LAYER_14
 70
0
 62
14
  6
CONTINUOUS
  0
LAYER
  2
LAYER_15
 70
0
 62
15
  6
CONTINUOUS
  0
ENDTAB
  0
ENDSEC
  0
SECTION
  2
ENTITIES
  0
LINE
  8
LAYER_8
 10
1201.50000000
 20
852.62500000
 11
1201.50000000
 21
834.87500000
  0
LINE
  8
LAYER_8
 10
1205.50000000
 20
848.62500000
 11
1205.50000000
 21
834.87500000
  0
LINE
  8
LAYER_8
 10
1201.50000000
 20
834.87500000
 11
1205.50000000
 21
834.87500000
  0
LINE
  8
LAYER_8
 10
1200.50000000
 20
853.62500000
 11
1200.50000000
 21
834.87500000
  0
LINE
  8
LAYER_8
 10
1201.50000000
 20
852.62500000
 11
1201.50000000
 21
834.87500000
  0
LINE
  8
LAYER_8
 10
1200.50000000
 20
834.87500000
 11
1201.50000000
 21
834.87500000
  0
LINE
  8
LAYER_8
 10
1197.60383858
 20
840.05019685
 11
1196.50000000
 21
838.94611220
  0
LINE
  8
LAYER_8
 10
1198.72219488
 20
845.29355315
 11
1196.50000000
 21
843.07086614
  0
LINE
  8
LAYER_8
 10
1199.84055118
 20
850.53690945
 11
1196.50000000
 21
847.19562008
  0
LINE
  8
LAYER_8
 10
1199.65280512
 20
854.47219488
 11
1196.50000000
 21
851.32037402
  0
LINE
  8
LAYER_8
 10
1197.59055118
 20
856.53444882
 11
1196.50000000
 21
855.44512795
  0
LINE
  8
LAYER_8
 10
1196.55339567
 20
834.87500000
 11
1200.50000000
 21
838.82160433
  0
LINE
  8
LAYER_8
 10
1197.60408465
 20
840.04995079
 11
1200.50000000
 21
842.94635827
  0
LINE
  8
LAYER_8
 10
1198.72244094
 20
845.29330709
 11
1200.50000000
 21
847.07111220
  0
LINE
  8
LAYER_8
 10
1199.84079724
 20
850.53666339
 11
1200.50000000
 21
851.19586614
  0
LINE
  8
LAYER_8
 10
1196.50000000
 20
857.62500000
 11
1196.50000000
 21
834.87500000
  0
LINE
  8
LAYER_8
 10
1200.50000000
 20
853.62500000
 11
1200.50000000
 21
834.87500000
  0
LINE
  8
LAYER_8
 10
1196.50000000
 20
834.87500000
 11
1200.50000000
 21
834.87500000
  0
LINE
  8
LAYER_8
 10
1201.50000000
 20
798.37500000
 11
1201.50000000
 21
564.62500000
  0
LINE
  8
LAYER_8
 10
1205.50000000
 20
798.37500000
 11
1205.50000000
 21
568.62500000
  0
LINE
  8
LAYER_8
 10
1201.50000000
 20
798.37500000
 11
1205.50000000
 21
798.37500000
  0
LINE
  8
LAYER_8
 10
1200.50000000
 20
798.37500000
 11
1200.50000000
 21
563.62500000
  0
LINE
  8
LAYER_8
 10
1201.50000000
 20
798.37500000
 11
1201.50000000
 21
564.62500000
  0
LINE
  8
LAYER_8
 10
1200.50000000
 20
798.37500000
 11
1201.50000000
 21
798.37500000
  0
LINE
  8
LAYER_8
 10
1200.45029528
 20
566.55413386
 11
1196.50000000
 21
562.60408465
  0
LINE
  8
LAYER_8
 10
1200.38139764
 20
570.60974409
 11
1196.50000000
 21
566.72883858
  0
LINE
  8
LAYER_8
 10
1200.31250000
 20
574.66535433
 11
1196.50000000
 21
570.85359252
  0
LINE
  8
LAYER_8
 10
1200.24360236
 20
578.72096457
 11
1196.50000000
 21
574.97834646
  0
LINE
  8
LAYER_8
 10
1200.17470472
 20
582.77657480
 11
1196.50000000
 21
579.10310039
  0
LINE
  8
LAYER_8
 10
1200.10580709
 20
586.83218504
 11
1196.50000000
 21
583.22785433
  0
LINE
  8
LAYER_8
 10
1200.03690945
 20
590.88779528
 11
1196.50000000
 21
587.35260827
  0
LINE
  8
LAYER_8
 10
1199.96801181
 20
594.94340551
 11
1196.50000000
 21
591.47736220
  0
LINE
  8
LAYER_8
 10
1199.89911417
 20
598.99901575
 11
1196.50000000
 21
595.60211614
  0
LINE
  8
LAYER_8
 10
1199.83021654
 20
603.05462598
 11
1196.50000000
 21
599.72687008
  0
LINE
  8
LAYER_8
 10
1199.76131890
 20
607.11023622
 11
1196.50000000
 21
603.85162402
  0
LINE
  8
LAYER_8
 10
1199.69242126
 20
611.16584646
 11
1196.50000000
 21
607.97637795
  0
LINE
  8
LAYER_8
 10
1199.62352362
 20
615.22145669
 11
1196.50000000
 21
612.10113189
  0
LINE
  8
LAYER_8
 10
1199.55462598
 20
619.27706693
 11
1196.50000000
 21
616.22588583
  0
LINE
  8
LAYER_8
 10
1199.48572835
 20
623.33267717
 11
1196.50000000
 21
620.35063976
  0
LINE
  8
LAYER_8
 10
1199.41683071
 20
627.38828740
 11
1196.50000000
 21
624.47539370
  0
LINE
  8
LAYER_8
 10
1199.34793307
 20
631.44389764
 11
1196.50000000
 21
628.60014764
  0
LINE
  8
LAYER_8
 10
1199.27903543
 20
635.49950787
 11
1196.50000000
 21
632.72490157
  0
LINE
  8
LAYER_8
 10
1199.21013780
 20
639.55511811
 11
1196.50000000
 21
636.84965551
  0
LINE
  8
LAYER_8
 10
1199.14124016
 20
643.61072835
 11
1196.50000000
 21
640.97440945
  0
LINE
  8
LAYER_8
 10
1199.07234252
 20
647.66633858
 11
1196.50000000
 21
645.09916339
  0
LINE
  8
LAYER_8
 10
1199.00344488
 20
651.72194882
 11
1196.50000000
 21
649.22391732
  0
LINE
  8
LAYER_8
 10
1198.93454724
 20
655.77755906
 11
1196.50000000
 21
653.34867126
  0
LINE
  8
LAYER_8
 10
1198.86564961
 20
659.83316929
 11
1196.50000000
 21
657.47342520
  0
LINE
  8
LAYER_8
 10
1198.79675197
 20
663.88877953
 11
1196.50000000
 21
661.59817913
  0
LINE
  8
LAYER_8
 10
1198.72785433
 20
667.94438976
 11
1196.50000000
 21
665.72293307
  0
LINE
  8
LAYER_8
 10
1198.65895669
 20
672.00000000
 11
1196.50000000
 21
669.84768701
  0
LINE
  8
LAYER_8
 10
1198.59005906
 20
676.05561024
 11
1196.50000000
 21
673.97244094
  0
LINE
  8
LAYER_8
 10
1198.52116142
 20
680.11122047
 11
1196.50000000
 21
678.09719488
  0
LINE
  8
LAYER_8
 10
1198.45226378
 20
684.16683071
 11
1196.50000000
 21
682.22194882
  0
LINE
  8
LAYER_8
 10
1198.38336614
 20
688.22244094
 11
1196.50000000
 21
686.34670276
  0
LINE
  8
LAYER_8
 10
1198.31446850
 20
692.27805118
 11
1196.50000000
 21
690.47145669
  0
LINE
  8
LAYER_8
 10
1198.24557087
 20
696.33366142
 11
1196.50000000
 21
694.59621063
  0
LINE
  8
LAYER_8
 10
1198.17667323
 20
700.38927165
 11
1196.50000000
 21
698.72096457
  0
LINE
  8
LAYER_8
 10
1198.10777559
 20
704.44488189
 11
1196.50000000
 21
702.84571850
  0
LINE
  8
LAYER_8
 10
1198.03887795
 20
708.50049213
 11
1196.50000000
 21
706.97047244
  0
LINE
  8
LAYER_8
 10
1197.96998031
 20
712.55610236
 11
1196.50000000
 21
711.09522638
  0
LINE
  8
LAYER_8
 10
1197.90108268
 20
716.61171260
 11
1196.50000000
 21
715.21998031
  0
LINE
  8
LAYER_8
 10
1197.83218504
 20
720.66732283
 11
1196.50000000
 21
719.34473425
  0
LINE
  8
LAYER_8
 10
1197.76328740
 20
724.72293307
 11
1196.50000000
 21
723.46948819
  0
LINE
  8
LAYER_8
 10
1197.69438976
 20
728.77854331
 11
1196.50000000
 21
727.59424213
  0
LINE
  8
LAYER_8
 10
1197.62549213
 20
732.83415354
 11
1196.50000000
 21
731.71899606
  0
LINE
  8
LAYER_8
 10
1197.55659449
 20
736.88976378
 11
1196.50000000
 21
735.84375000
  0
LINE
  8
LAYER_8
 10
1197.48769685
 20
740.94537402
 11
1196.50000000
 21
739.96850394
  0
LINE
  8
LAYER_8
 10
1197.41879921
 20
745.00098425
 11
1196.50000000
 21
744.09325787
  0
LINE
  8
LAYER_8
 10
1197.34990157
 20
749.05659449
 11
1196.50000000
 21
748.21801181
  0
LINE
  8
LAYER_8
 10
1197.28100394
 20
753.11220472
 11
1196.50000000
 21
752.34276575
  0
LINE
  8
LAYER_8
 10
1197.21210630
 20
757.16781496
 11
1196.50000000
 21
756.46751969
  0
LINE
  8
LAYER_8
 10
1197.14320866
 20
761.22342520
 11
1196.50000000
 21
760.59227362
  0
LINE
  8
LAYER_8
 10
1197.07431102
 20
765.27903543
 11
1196.50000000
 21
764.71702756
  0
LINE
  8
LAYER_8
 10
1197.00541339
 20
769.33464567
 11
1196.50000000
 21
768.84178150
  0
LINE
  8
LAYER_8
 10
1196.93651575
 20
773.39025591
 11
1196.50000000
 21
772.96653543
  0
LINE
  8
LAYER_8
 10
1196.86761811
 20
777.44586614
 11
1196.50000000
 21
777.09128937
  0
LINE
  8
LAYER_8
 10
1196.79872047
 20
781.50147638
 11
1196.50000000
 21
781.21604331
  0
LINE
  8
LAYER_8
 10
1196.72982283
 20
785.55708661
 11
1196.50000000
 21
785.34079724
  0
LINE
  8
LAYER_8
 10
1196.66092520
 20
789.61269685
 11
1196.50000000
 21
789.46555118
  0
LINE
  8
LAYER_8
 10
1196.59202756
 20
793.66830709
 11
1196.50000000
 21
793.59030512
  0
LINE
  8
LAYER_8
 10
1196.52312992
 20
797.72391732
 11
1196.50000000
 21
797.71505906
  0
LINE
  8
LAYER_8
 10
1200.50000000
 20
566.60408465
 11
1200.45029528
 21
566.55413386
  0
LINE
  8
LAYER_8
 10
1200.50000000
 20
570.72883858
 11
1200.38139764
 21
570.60974409
  0
LINE
  8
LAYER_8
 10
1200.50000000
 20
574.85359252
 11
1200.31250000
 21
574.66535433
  0
LINE
  8
LAYER_8
 10
1200.50000000
 20
578.97834646
 11
1200.24360236
 21
578.72096457
  0
LINE
  8
LAYER_8
 10
1200.50000000
 20
583.10310039
 11
1200.17470472
 21
582.77657480
  0
LINE
  8
LAYER_8
 10
1200.50000000
 20
587.22785433
 11
1200.10580709
 21
586.83218504
  0
LINE
  8
LAYER_8
 10
1200.50000000
 20
591.35260827
 11
1200.03690945
 21
590.88779528
  0
LINE
  8
LAYER_8
 10
1200.50000000
 20
595.47736220
 11
1199.96801181
 21
594.94340551
  0
LINE
  8
LAYER_8
 10
1200.50000000
 20
599.60211614
 11
1199.89911417
 21
598.99901575
  0
LINE
  8
LAYER_8
 10
1200.50000000
 20
603.72687008
 11
1199.83021654
 21
603.05462598
  0
LINE
  8
LAYER_8
 10
1200.50000000
 20
607.85162402
 11
1199.76131890
 21
607.11023622
  0
LINE
  8
LAYER_8
 10
1200.50000000
 20
611.97637795
 11
1199.69242126
 21
611.16584646
  0
LINE
  8
LAYER_8
 10
1200.50000000
 20
616.10113189
 11
1199.62352362
 21
615.22145669
  0
LINE
  8
LAYER_8
 10
1200.50000000
 20
620.22588583
 11
1199.55462598
 21
619.27706693
  0
LINE
  8
LAYER_8
 10
1200.50000000
 20
624.35063976
 11
1199.48572835
 21
623.33267717
  0
LINE
  8
LAYER_8
 10
1200.50000000
 20
628.47539370
 11
1199.41683071
 21
627.38828740
  0
LINE
  8
LAYER_8
 10
1200.50000000
 20
632.60014764
 11
1199.34793307
 21
631.44389764
  0
LINE
  8
LAYER_8
 10
1200.50000000
 20
636.72490157
 11
1199.27903543
 21
635.49950787
  0
LINE
  8
LAYER_8
 10
1200.50000000
 20
640.84965551
 11
1199.21013780
 21
639.55511811
  0
LINE
  8
LAYER_8
 10
1200.50000000
 20
644.97440945
 11
1199.14124016
 21
643.61072835
  0
LINE
  8
LAYER_8
 10
1200.50000000
 20
649.09916339
 11
1199.07234252
 21
647.66633858
  0
LINE
  8
LAYER_8
 10
1200.50000000
 20
653.22391732
 11
1199.00344488
 21
651.72194882
  0
LINE
  8
LAYER_8
 10
1200.50000000
 20
657.34867126
 11
1198.93454724
 21
655.77755906
  0
LINE
  8
LAYER_8
 10
1200.50000000
 20
661.47342520
 11
1198.86564961
 21
659.83316929
  0
LINE
  8
LAYER_8
 10
1200.50000000
 20
665.59817913
 11
1198.79675197
 21
663.88877953
  0
LINE
  8
LAYER_8
 10
1200.50000000
 20
669.72293307
 11
1198.72785433
 21
667.94438976
  0
LINE
  8
LAYER_8
 10
1200.50000000
 20
673.84768701
 11
1198.65895669
 21
672.00000000
  0
LINE
  8
LAYER_8
 10
1200.50000000
 20
677.97244094
 11
1198.59005906
 21
676.05561024
  0
LINE
  8
LAYER_8
 10
1200.50000000
 20
682.09719488
 11
1198.52116142
 21
680.11122047
  0
LINE
  8
LAYER_8
 10
1200.50000000
 20
686.22194882
 11
1198.45226378
 21
684.16683071
  0
LINE
  8
LAYER_8
 10
1200.50000000
 20
690.34670276
 11
1198.38336614
 21
688.22244094
  0
LINE
  8
LAYER_8
 10
1200.50000000
 20
694.47145669
 11
1198.31446850
 21
692.27805118
  0
LINE
  8
LAYER_8
 10
1200.50000000
 20
698.59621063
 11
1198.24557087
 21
696.33366142
  0
LINE
  8
LAYER_8
 10
1200.50000000
 20
702.72096457
 11
1198.17667323
 21
700.38927165
  0
LINE
  8
LAYER_8
 10
1200.50000000
 20
706.84571850
 11
1198.10777559
 21
704.44488189
  0
LINE
  8
LAYER_8
 10
1200.50000000
 20
710.97047244
 11
1198.03887795
 21
708.50049213
  0
LINE
  8
LAYER_8
 10
1200.50000000
 20
715.09522638
 11
1197.96998031
 21
712.55610236
  0
LINE
  8
LAYER_8
 10
1200.50000000
 20
719.21998031
 11
1197.90108268
 21
716.61171260
  0
LINE
  8
LAYER_8
 10
1200.50000000
 20
723.34473425
 11
1197.83218504
 21
720.66732283
  0
LINE
  8
LAYER_8
 10
1200.50000000
 20
727.46948819
 11
1197.76328740
 21
724.72293307
  0
LINE
  8
LAYER_8
 10
1200.50000000
 20
731.59424213
 11
1197.69438976
 21
728.77854331
  0
LINE
  8
LAYER_8
 10
1200.50000000
 20
735.71899606
 11
1197.62549213
 21
732.83415354
  0
LINE
  8
LAYER_8
 10
1200.50000000
 20
739.84375000
 11
1197.55659449
 21
736.88976378
  0
LINE
  8
LAYER_8
 10
1200.50000000
 20
743.96850394
 11
1197.48769685
 21
740.94537402
  0
LINE
  8
LAYER_8
 10
1200.50000000
 20
748.09325787
 11
1197.41879921
 21
745.00098425
  0
LINE
  8
LAYER_8
 10
1200.50000000
 20
752.21801181
 11
1197.34990157
 21
749.05659449
  0
LINE
  8
LAYER_8
 10
1200.50000000
 20
756.34276575
 11
1197.28100394
 21
753.11220472
  0
LINE
  8
LAYER_8
 10
1200.50000000
 20
760.46751969
 11
1197.21210630
 21
757.16781496
  0
LINE
  8
LAYER_8
 10
1200.50000000
 20
764.59227362
 11
1197.14320866
 21
761.22342520
  0
LINE
  8
LAYER_8
 10
1200.50000000
 20
768.71702756
 11
1197.07431102
 21
765.27903543
  0
LINE
  8
LAYER_8
 10
1200.50000000
 20
772.84178150
 11
1197.00541339
 21
769.33464567
  0
LINE
  8
LAYER_8
 10
1200.50000000
 20
776.96653543
 11
1196.93651575
 21
773.39025591
  0
LINE
  8
LAYER_8
 10
1200.50000000
 20
781.09128937
 11
1196.86761811
 21
777.44586614
  0
LINE
  8
LAYER_8
 10
1200.50000000
 20
785.21604331
 11
1196.79872047
 21
781.50147638
  0
LINE
  8
LAYER_8
 10
1200.50000000
 20
789.34079724
 11
1196.72982283
 21
785.55708661
  0
LINE
  8
LAYER_8
 10
1200.50000000
 20
793.46555118
 11
1196.66092520
 21
789.61269685
  0
LINE
  8
LAYER_8
 10
1200.50000000
 20
797.59030512
 11
1196.59202756
 21
793.66830709
  0
LINE
  8
LAYER_8
 10
1197.17421260
 20
798.37500000
 11
1196.52312992
 21
797.72391732
  0
LINE
  8
LAYER_8
 10
1196.50000000
 20
798.37500000
 11
1196.50000000
 21
559.62500000
  0
LINE
  8
LAYER_8
 10
1200.50000000
 20
798.37500000
 11
1200.50000000
 21
563.62500000
  0
LINE
  8
LAYER_8
 10
1196.50000000
 20
798.37500000
 11
1200.50000000
 21
798.37500000
  0
LINE
  8
LAYER_8
 10
1201.50000000
 20
852.62500000
 11
1585.50000000
 21
852.62500000
  0
LINE
  8
LAYER_8
 10
1205.50000000
 20
848.62500000
 11
1581.50000000
 21
848.62500000
  0
LINE
  8
LAYER_8
 10
1200.50000000
 20
853.62500000
 11
1586.50000000
 21
853.62500000
  0
LINE
  8
LAYER_8
 10
1201.50000000
 20
852.62500000
 11
1585.50000000
 21
852.62500000
  0
LINE
  8
LAYER_8
 10
1586.34178150
 20
857.58243110
 11
1586.38459646
 21
857.62500000
  0
LINE
  8
LAYER_8
 10
1582.17421260
 20
857.53986220
 11
1582.25984252
 21
857.62500000
  0
LINE
  8
LAYER_8
 10
1578.00664370
 20
857.49729331
 11
1578.13508858
 21
857.62500000
  0
LINE
  8
LAYER_8
 10
1573.83907480
 20
857.45472441
 11
1574.01033465
 21
857.62500000
  0
LINE
  8
LAYER_8
 10
1569.67150591
 20
857.41215551
 11
1569.88558071
 21
857.62500000
  0
LINE
  8
LAYER_8
 10
1565.50393701
 20
857.36958661
 11
1565.76082677
 21
857.62500000
  0
LINE
  8
LAYER_8
 10
1561.33636811
 20
857.32701772
 11
1561.63607283
 21
857.62500000
  0
LINE
  8
LAYER_8
 10
1557.16879921
 20
857.28444882
 11
1557.51131890
 21
857.62500000
  0
LINE
  8
LAYER_8
 10
1553.00123031
 20
857.24187992
 11
1553.38656496
 21
857.62500000
  0
LINE
  8
LAYER_8
 10
1548.83366142
 20
857.19931102
 11
1549.26181102
 21
857.62500000
  0
LINE
  8
LAYER_8
 10
1544.66609252
 20
857.15674213
 11
1545.13705709
 21
857.62500000
  0
LINE
  8
LAYER_8
 10
1540.49852362
 20
857.11417323
 11
1541.01230315
 21
857.62500000
  0
LINE
  8
LAYER_8
 10
1536.33095472
 20
857.07160433
 11
1536.88754921
 21
857.62500000
  0
LINE
  8
LAYER_8
 10
1532.16338583
 20
857.02903543
 11
1532.76279528
 21
857.62500000
  0
LINE
  8
LAYER_8
 10
1527.99581693
 20
856.98646654
 11
1528.63804134
 21
857.62500000
  0
LINE
  8
LAYER_8
 10
1523.82824803
 20
856.94389764
 11
1524.51328740
 21
857.62500000
  0
LINE
  8
LAYER_8
 10
1519.66067913
 20
856.90132874
 11
1520.38853346
 21
857.62500000
  0
LINE
  8
LAYER_8
 10
1515.49311024
 20
856.85875984
 11
1516.26377953
 21
857.62500000
  0
LINE
  8
LAYER_8
 10
1511.32554134
 20
856.81619094
 11
1512.13902559
 21
857.62500000
  0
LINE
  8
LAYER_8
 10
1507.15797244
 20
856.77362205
 11
1508.01427165
 21
857.62500000
  0
LINE
  8
LAYER_8
 10
1502.99040354
 20
856.73105315
 11
1503.88951772
 21
857.62500000
  0
LINE
  8
LAYER_8
 10
1498.82283465
 20
856.68848425
 11
1499.76476378
 21
857.62500000
  0
LINE
  8
LAYER_8
 10
1494.65526575
 20
856.64591535
 11
1495.64000984
 21
857.62500000
  0
LINE
  8
LAYER_8
 10
1490.48769685
 20
856.60334646
 11
1491.51525591
 21
857.62500000
  0
LINE
  8
LAYER_8
 10
1486.32012795
 20
856.56077756
 11
1487.39050197
 21
857.62500000
  0
LINE
  8
LAYER_8
 10
1482.15255906
 20
856.51820866
 11
1483.26574803
 21
857.62500000
  0
LINE
  8
LAYER_8
 10
1477.98499016
 20
856.47563976
 11
1479.14099409
 21
857.62500000
  0
LINE
  8
LAYER_8
 10
1473.81742126
 20
856.43307087
 11
1475.01624016
 21
857.62500000
  0
LINE
  8
LAYER_8
 10
1469.64985236
 20
856.39050197
 11
1470.89148622
 21
857.62500000
  0
LINE
  8
LAYER_8
 10
1465.48228346
 20
856.34793307
 11
1466.76673228
 21
857.62500000
  0
LINE
  8
LAYER_8
 10
1461.31471457
 20
856.30536417
 11
1462.64197835
 21
857.62500000
  0
LINE
  8
LAYER_8
 10
1457.14714567
 20
856.26279528
 11
1458.51722441
 21
857.62500000
  0
LINE
  8
LAYER_8
 10
1452.97957677
 20
856.22022638
 11
1454.39247047
 21
857.62500000
  0
LINE
  8
LAYER_8
 10
1448.81200787
 20
856.17765748
 11
1450.26771654
 21
857.62500000
  0
LINE
  8
LAYER_8
 10
1444.64443898
 20
856.13508858
 11
1446.14296260
 21
857.62500000
  0
LINE
  8
LAYER_8
 10
1440.47687008
 20
856.09251969
 11
1442.01820866
 21
857.62500000
  0
LINE
  8
LAYER_8
 10
1436.30930118
 20
856.04995079
 11
1437.89345472
 21
857.62500000
  0
LINE
  8
LAYER_8
 10
1432.14173228
 20
856.00738189
 11
1433.76870079
 21
857.62500000
  0
LINE
  8
LAYER_8
 10
1427.97416339
 20
855.96481299
 11
1429.64394685
 21
857.62500000
  0
LINE
  8
LAYER_8
 10
1423.80659449
 20
855.92224409
 11
1425.51919291
 21
857.62500000
  0
LINE
  8
LAYER_8
 10
1419.63902559
 20
855.87967520
 11
1421.39443898
 21
857.62500000
  0
LINE
  8
LAYER_8
 10
1415.47145669
 20
855.83710630
 11
1417.26968504
 21
857.62500000
  0
LINE
  8
LAYER_8
 10
1411.30388780
 20
855.79453740
 11
1413.14493110
 21
857.62500000
  0
LINE
  8
LAYER_8
 10
1407.13631890
 20
855.75196850
 11
1409.02017717
 21
857.62500000
  0
LINE
  8
LAYER_8
 10
1402.96875000
 20
855.70939961
 11
1404.89542323
 21
857.62500000
  0
LINE
  8
LAYER_8
 10
1398.80118110
 20
855.66683071
 11
1400.77066929
 21
857.62500000
  0
LINE
  8
LAYER_8
 10
1394.63361220
 20
855.62426181
 11
1396.64591535
 21
857.62500000
  0
LINE
  8
LAYER_8
 10
1390.46604331
 20
855.58169291
 11
1392.52116142
 21
857.62500000
  0
LINE
  8
LAYER_8
 10
1386.29847441
 20
855.53912402
 11
1388.39640748
 21
857.62500000
  0
LINE
  8
LAYER_8
 10
1382.13090551
 20
855.49655512
 11
1384.27165354
 21
857.62500000
  0
LINE
  8
LAYER_8
 10
1377.96333661
 20
855.45398622
 11
1380.14689961
 21
857.62500000
  0
LINE
  8
LAYER_8
 10
1373.79576772
 20
855.41141732
 11
1376.02214567
 21
857.62500000
  0
LINE
  8
LAYER_8
 10
1369.62819882
 20
855.36884843
 11
1371.89739173
 21
857.62500000
  0
LINE
  8
LAYER_8
 10
1365.46062992
 20
855.32627953
 11
1367.77263780
 21
857.62500000
  0
LINE
  8
LAYER_8
 10
1361.29306102
 20
855.28371063
 11
1363.64788386
 21
857.62500000
  0
LINE
  8
LAYER_8
 10
1357.12549213
 20
855.24114173
 11
1359.52312992
 21
857.62500000
  0
LINE
  8
LAYER_8
 10
1352.95792323
 20
855.19857283
 11
1355.39837598
 21
857.62500000
  0
LINE
  8
LAYER_8
 10
1348.79035433
 20
855.15600394
 11
1351.27362205
 21
857.62500000
  0
LINE
  8
LAYER_8
 10
1344.62278543
 20
855.11343504
 11
1347.14886811
 21
857.62500000
  0
LINE
  8
LAYER_8
 10
1340.45521654
 20
855.07086614
 11
1343.02411417
 21
857.62500000
  0
LINE
  8
LAYER_8
 10
1336.28764764
 20
855.02829724
 11
1338.89936024
 21
857.62500000
  0
LINE
  8
LAYER_8
 10
1332.12007874
 20
854.98572835
 11
1334.77460630
 21
857.62500000
  0
LINE
  8
LAYER_8
 10
1327.95250984
 20
854.94315945
 11
1330.64985236
 21
857.62500000
  0
LINE
  8
LAYER_8
 10
1323.78494094
 20
854.90059055
 11
1326.52509843
 21
857.62500000
  0
LINE
  8
LAYER_8
 10
1319.61737205
 20
854.85802165
 11
1322.40034449
 21
857.62500000
  0
LINE
  8
LAYER_8
 10
1315.44980315
 20
854.81545276
 11
1318.27559055
 21
857.62500000
  0
LINE
  8
LAYER_8
 10
1311.28223425
 20
854.77288386
 11
1314.15083661
 21
857.62500000
  0
LINE
  8
LAYER_8
 10
1307.11466535
 20
854.73031496
 11
1310.02608268
 21
857.62500000
  0
LINE
  8
LAYER_8
 10
1302.94709646
 20
854.68774606
 11
1305.90132874
 21
857.62500000
  0
LINE
  8
LAYER_8
 10
1298.77952756
 20
854.64517717
 11
1301.77657480
 21
857.62500000
  0
LINE
  8
LAYER_8
 10
1294.61195866
 20
854.60260827
 11
1297.65182087
 21
857.62500000
  0
LINE
  8
LAYER_8
 10
1290.44438976
 20
854.56003937
 11
1293.52706693
 21
857.62500000
  0
LINE
  8
LAYER_8
 10
1286.27682087
 20
854.51747047
 11
1289.40231299
 21
857.62500000
  0
LINE
  8
LAYER_8
 10
1282.10925197
 20
854.47490157
 11
1285.27755906
 21
857.62500000
  0
LINE
  8
LAYER_8
 10
1277.94168307
 20
854.43233268
 11
1281.15280512
 21
857.62500000
  0
LINE
  8
LAYER_8
 10
1273.77411417
 20
854.38976378
 11
1277.02805118
 21
857.62500000
  0
LINE
  8
LAYER_8
 10
1269.60654528
 20
854.34719488
 11
1272.90329724
 21
857.62500000
  0
LINE
  8
LAYER_8
 10
1265.43897638
 20
854.30462598
 11
1268.77854331
 21
857.62500000
  0
LINE
  8
LAYER_8
 10
1261.27140748
 20
854.26205709
 11
1264.65378937
 21
857.62500000
  0
LINE
  8
LAYER_8
 10
1257.10383858
 20
854.21948819
 11
1260.52903543
 21
857.62500000
  0
LINE
  8
LAYER_8
 10
1252.93626969
 20
854.17691929
 11
1256.40428150
 21
857.62500000
  0
LINE
  8
LAYER_8
 10
1248.76870079
 20
854.13435039
 11
1252.27952756
 21
857.62500000
  0
LINE
  8
LAYER_8
 10
1244.60113189
 20
854.09178150
 11
1248.15477362
 21
857.62500000
  0
LINE
  8
LAYER_8
 10
1240.43356299
 20
854.04921260
 11
1244.03001969
 21
857.62500000
  0
LINE
  8
LAYER_8
 10
1236.26599409
 20
854.00664370
 11
1239.90526575
 21
857.62500000
  0
LINE
  8
LAYER_8
 10
1232.09842520
 20
853.96407480
 11
1235.78051181
 21
857.62500000
  0
LINE
  8
LAYER_8
 10
1227.93085630
 20
853.92150591
 11
1231.65575787
 21
857.62500000
  0
LINE
  8
LAYER_8
 10
1223.76328740
 20
853.87893701
 11
1227.53100394
 21
857.62500000
  0
LINE
  8
LAYER_8
 10
1219.59571850
 20
853.83636811
 11
1223.40625000
 21
857.62500000
  0
LINE
  8
LAYER_8
 10
1215.42814961
 20
853.79379921
 11
1219.28149606
 21
857.62500000
  0
LINE
  8
LAYER_8
 10
1211.26058071
 20
853.75123031
 11
1215.15674213
 21
857.62500000
  0
LINE
  8
LAYER_8
 10
1207.09301181
 20
853.70866142
 11
1211.03198819
 21
857.62500000
  0
LINE
  8
LAYER_8
 10
1202.92544291
 20
853.66609252
 11
1206.90723425
 21
857.62500000
  0
LINE
  8
LAYER_8
 10
1199.65280512
 20
854.47219488
 11
1202.78248031
 21
857.62500000
  0
LINE
  8
LAYER_8
 10
1197.59055118
 20
856.53444882
 11
1198.65772638
 21
857.62500000
  0
LINE
  8
LAYER_8
 10
1582.38459646
 20
853.62500000
 11
1586.34178150
 21
857.58243110
  0
LINE
  8
LAYER_8
 10
1578.25984252
 20
853.62500000
 11
1582.17421260
 21
857.53986220
  0
LINE
  8
LAYER_8
 10
1574.13508858
 20
853.62500000
 11
1578.00664370
 21
857.49729331
  0
LINE
  8
LAYER_8
 10
1570.01033465
 20
853.62500000
 11
1573.83907480
 21
857.45472441
  0
LINE
  8
LAYER_8
 10
1565.88558071
 20
853.62500000
 11
1569.67150591
 21
857.41215551
  0
LINE
  8
LAYER_8
 10
1561.76082677
 20
853.62500000
 11
1565.50393701
 21
857.36958661
  0
LINE
  8
LAYER_8
 10
1557.63607283
 20
853.62500000
 11
1561.33636811
 21
857.32701772
  0
LINE
  8
LAYER_8
 10
1553.51131890
 20
853.62500000
 11
1557.16879921
 21
857.28444882
  0
LINE
  8
LAYER_8
 10
1549.38656496
 20
853.62500000
 11
1553.00123031
 21
857.24187992
  0
LINE
  8
LAYER_8
 10
1545.26181102
 20
853.62500000
 11
1548.83366142
 21
857.19931102
  0
LINE
  8
LAYER_8
 10
1541.13705709
 20
853.62500000
 11
1544.66609252
 21
857.15674213
  0
LINE
  8
LAYER_8
 10
1537.01230315
 20
853.62500000
 11
1540.49852362
 21
857.11417323
  0
LINE
  8
LAYER_8
 10
1532.88754921
 20
853.62500000
 11
1536.33095472
 21
857.07160433
  0
LINE
  8
LAYER_8
 10
1528.76279528
 20
853.62500000
 11
1532.16338583
 21
857.02903543
  0
LINE
  8
LAYER_8
 10
1524.63804134
 20
853.62500000
 11
1527.99581693
 21
856.98646654
  0
LINE
  8
LAYER_8
 10
1520.51328740
 20
853.62500000
 11
1523.82824803
 21
856.94389764
  0
LINE
  8
LAYER_8
 10
1516.38853346
 20
853.62500000
 11
1519.66067913
 21
856.90132874
  0
LINE
  8
LAYER_8
 10
1512.26377953
 20
853.62500000
 11
1515.49311024
 21
856.85875984
  0
LINE
  8
LAYER_8
 10
1508.13902559
 20
853.62500000
 11
1511.32554134
 21
856.81619094
  0
LINE
  8
LAYER_8
 10
1504.01427165
 20
853.62500000
 11
1507.15797244
 21
856.77362205
  0
LINE
  8
LAYER_8
 10
1499.88951772
 20
853.62500000
 11
1502.99040354
 21
856.73105315
  0
LINE
  8
LAYER_8
 10
1495.76476378
 20
853.62500000
 11
1498.82283465
 21
856.68848425
  0
LINE
  8
LAYER_8
 10
1491.64000984
 20
853.62500000
 11
1494.65526575
 21
856.64591535
  0
LINE
  8
LAYER_8
 10
1487.51525591
 20
853.62500000
 11
1490.48769685
 21
856.60334646
  0
LINE
  8
LAYER_8
 10
1483.39050197
 20
853.62500000
 11
1486.32012795
 21
856.56077756
  0
LINE
  8
LAYER_8
 10
1479.26574803
 20
853.62500000
 11
1482.15255906
 21
856.51820866
  0
LINE
  8
LAYER_8
 10
1475.14099409
 20
853.62500000
 11
1477.98499016
 21
856.47563976
  0
LINE
  8
LAYER_8
 10
1471.01624016
 20
853.62500000
 11
1473.81742126
 21
856.43307087
  0
LINE
  8
LAYER_8
 10
1466.89148622
 20
853.62500000
 11
1469.64985236
 21
856.39050197
  0
LINE
  8
LAYER_8
 10
1462.76673228
 20
853.62500000
 11
1465.48228346
 21
856.34793307
  0
LINE
  8
LAYER_8
 10
1458.64197835
 20
853.62500000
 11
1461.31471457
 21
856.30536417
  0
LINE
  8
LAYER_8
 10
1454.51722441
 20
853.62500000
 11
1457.14714567
 21
856.26279528
  0
LINE
  8
LAYER_8
 10
1450.39247047
 20
853.62500000
 11
1452.97957677
 21
856.22022638
  0
LINE
  8
LAYER_8
 10
1446.26771654
 20
853.62500000
 11
1448.81200787
 21
856.17765748
  0
LINE
  8
LAYER_8
 10
1442.14296260
 20
853.62500000
 11
1444.64443898
 21
856.13508858
  0
LINE
  8
LAYER_8
 10
1438.01820866
 20
853.62500000
 11
1440.47687008
 21
856.09251969
  0
LINE
  8
LAYER_8
 10
1433.89345472
 20
853.62500000
 11
1436.30930118
 21
856.04995079
  0
LINE
  8
LAYER_8
 10
1429.76870079
 20
853.62500000
 11
1432.14173228
 21
856.00738189
  0
LINE
  8
LAYER_8
 10
1425.64394685
 20
853.62500000
 11
1427.97416339
 21
855.96481299
  0
LINE
  8
LAYER_8
 10
1421.51919291
 20
853.62500000
 11
1423.80659449
 21
855.92224409
  0
LINE
  8
LAYER_8
 10
1417.39443898
 20
853.62500000
 11
1419.63902559
 21
855.87967520
  0
LINE
  8
LAYER_8
 10
1413.26968504
 20
853.62500000
 11
1415.47145669
 21
855.83710630
  0
LINE
  8
LAYER_8
 10
1409.14493110
 20
853.62500000
 11
1411.30388780
 21
855.79453740
  0
LINE
  8
LAYER_8
 10
1405.02017717
 20
853.62500000
 11
1407.13631890
 21
855.75196850
  0
LINE
  8
LAYER_8
 10
1400.89542323
 20
853.62500000
 11
1402.96875000
 21
855.70939961
  0
LINE
  8
LAYER_8
 10
1396.77066929
 20
853.62500000
 11
1398.80118110
 21
855.66683071
  0
LINE
  8
LAYER_8
 10
1392.64591535
 20
853.62500000
 11
1394.63361220
 21
855.62426181
  0
LINE
  8
LAYER_8
 10
1388.52116142
 20
853.62500000
 11
1390.46604331
 21
855.58169291
  0
LINE
  8
LAYER_8
 10
1384.39640748
 20
853.62500000
 11
1386.29847441
 21
855.53912402
  0
LINE
  8
LAYER_8
 10
1380.27165354
 20
853.62500000
 11
1382.13090551
 21
855.49655512
  0
LINE
  8
LAYER_8
 10
1376.14689961
 20
853.62500000
 11
1377.96333661
 21
855.45398622
  0
LINE
  8
LAYER_8
 10
1372.02214567
 20
853.62500000
 11
1373.79576772
 21
855.41141732
  0
LINE
  8
LAYER_8
 10
1367.89739173
 20
853.62500000
 11
1369.62819882
 21
855.36884843
  0
LINE
  8
LAYER_8
 10
1363.77263780
 20
853.62500000
 11
1365.46062992
 21
855.32627953
  0
LINE
  8
LAYER_8
 10
1359.64788386
 20
853.62500000
 11
1361.29306102
 21
855.28371063
  0
LINE
  8
LAYER_8
 10
1355.52312992
 20
853.62500000
 11
1357.12549213
 21
855.24114173
  0
LINE
  8
LAYER_8
 10
1351.39837598
 20
853.62500000
 11
1352.95792323
 21
855.19857283
  0
LINE
  8
LAYER_8
 10
1347.27362205
 20
853.62500000
 11
1348.79035433
 21
855.15600394
  0
LINE
  8
LAYER_8
 10
1343.14886811
 20
853.62500000
 11
1344.62278543
 21
855.11343504
  0
LINE
  8
LAYER_8
 10
1339.02411417
 20
853.62500000
 11
1340.45521654
 21
855.07086614
  0
LINE
  8
LAYER_8
 10
1334.89936024
 20
853.62500000
 11
1336.28764764
 21
855.02829724
  0
LINE
  8
LAYER_8
 10
1330.77460630
 20
853.62500000
 11
1332.12007874
 21
854.98572835
  0
LINE
  8
LAYER_8
 10
1326.64985236
 20
853.62500000
 11
1327.95250984
 21
854.94315945
  0
LINE
  8
LAYER_8
 10
1322.52509843
 20
853.62500000
 11
1323.78494094
 21
854.90059055
  0
LINE
  8
LAYER_8
 10
1318.40034449
 20
853.62500000
 11
1319.61737205
 21
854.85802165
  0
LINE
  8
LAYER_8
 10
1314.27559055
 20
853.62500000
 11
1315.44980315
 21
854.81545276
  0
LINE
  8
LAYER_8
 10
1310.15083661
 20
853.62500000
 11
1311.28223425
 21
854.77288386
  0
LINE
  8
LAYER_8
 10
1306.02608268
 20
853.62500000
 11
1307.11466535
 21
854.73031496
  0
LINE
  8
LAYER_8
 10
1301.90132874
 20
853.62500000
 11
1302.94709646
 21
854.68774606
  0
LINE
  8
LAYER_8
 10
1297.77657480
 20
853.62500000
 11
1298.77952756
 21
854.64517717
  0
LINE
  8
LAYER_8
 10
1293.65182087
 20
853.62500000
 11
1294.61195866
 21
854.60260827
  0
LINE
  8
LAYER_8
 10
1289.52706693
 20
853.62500000
 11
1290.44438976
 21
854.56003937
  0
LINE
  8
LAYER_8
 10
1285.40231299
 20
853.62500000
 11
1286.27682087
 21
854.51747047
  0
LINE
  8
LAYER_8
 10
1281.27755906
 20
853.62500000
 11
1282.10925197
 21
854.47490157
  0
LINE
  8
LAYER_8
 10
1277.15280512
 20
853.62500000
 11
1277.94168307
 21
854.43233268
  0
LINE
  8
LAYER_8
 10
1273.02805118
 20
853.62500000
 11
1273.77411417
 21
854.38976378
  0
LINE
  8
LAYER_8
 10
1268.90329724
 20
853.62500000
 11
1269.60654528
 21
854.34719488
  0
LINE
  8
LAYER_8
 10
1264.77854331
 20
853.62500000
 11
1265.43897638
 21
854.30462598
  0
LINE
  8
LAYER_8
 10
1260.65378937
 20
853.62500000
 11
1261.27140748
 21
854.26205709
  0
LINE
  8
LAYER_8
 10
1256.52903543
 20
853.62500000
 11
1257.10383858
 21
854.21948819
  0
LINE
  8
LAYER_8
 10
1252.40428150
 20
853.62500000
 11
1252.93626969
 21
854.17691929
  0
LINE
  8
LAYER_8
 10
1248.27952756
 20
853.62500000
 11
1248.76870079
 21
854.13435039
  0
LINE
  8
LAYER_8
 10
1244.15477362
 20
853.62500000
 11
1244.60113189
 21
854.09178150
  0
LINE
  8
LAYER_8
 10
1240.03001969
 20
853.62500000
 11
1240.43356299
 21
854.04921260
  0
LINE
  8
LAYER_8
 10
1235.90526575
 20
853.62500000
 11
1236.26599409
 21
854.00664370
  0
LINE
  8
LAYER_8
 10
1231.78051181
 20
853.62500000
 11
1232.09842520
 21
853.96407480
  0
LINE
  8
LAYER_8
 10
1227.65575787
 20
853.62500000
 11
1227.93085630
 21
853.92150591
  0
LINE
  8
LAYER_8
 10
1223.53100394
 20
853.62500000
 11
1223.76328740
 21
853.87893701
  0
LINE
  8
LAYER_8
 10
1219.40625000
 20
853.62500000
 11
1219.59571850
 21
853.83636811
  0
LINE
  8
LAYER_8
 10
1215.28149606
 20
853.62500000
 11
1215.42814961
 21
853.79379921
  0
LINE
  8
LAYER_8
 10
1211.15674213
 20
853.62500000
 11
1211.26058071
 21
853.75123031
  0
LINE
  8
LAYER_8
 10
1207.03198819
 20
853.62500000
 11
1207.09301181
 21
853.70866142
  0
LINE
  8
LAYER_8
 10
1202.90723425
 20
853.62500000
 11
1202.92544291
 21
853.66609252
  0
LINE
  8
LAYER_8
 10
1196.50000000
 20
857.62500000
 11
1590.50000000
 21
857.62500000
  0
LINE
  8
LAYER_8
 10
1200.50000000
 20
853.62500000
 11
1586.50000000
 21
853.62500000
  0
LINE
  8
LAYER_8
 10
1585.50000000
 20
852.62500000
 11
1585.50000000
 21
732.62500000
  0
LINE
  8
LAYER_8
 10
1581.50000000
 20
848.62500000
 11
1581.50000000
 21
732.62500000
  0
LINE
  8
LAYER_8
 10
1585.50000000
 20
732.62500000
 11
1581.50000000
 21
732.62500000
  0
LINE
  8
LAYER_8
 10
1586.50000000
 20
853.62500000
 11
1586.50000000
 21
732.62500000
  0
LINE
  8
LAYER_8
 10
1585.50000000
 20
852.62500000
 11
1585.50000000
 21
732.62500000
  0
LINE
  8
LAYER_8
 10
1586.50000000
 20
732.62500000
 11
1585.50000000
 21
732.62500000
  0
LINE
  8
LAYER_8
 10
1590.50000000
 20
733.88065945
 11
1590.45989173
 21
733.84030512
  0
LINE
  8
LAYER_8
 10
1590.50000000
 20
738.00541339
 11
1590.32800197
 21
737.83292323
  0
LINE
  8
LAYER_8
 10
1590.50000000
 20
742.13016732
 11
1590.19611220
 21
741.82554134
  0
LINE
  8
LAYER_8
 10
1590.50000000
 20
746.25492126
 11
1590.06422244
 21
745.81815945
  0
LINE
  8
LAYER_8
 10
1590.50000000
 20
750.37967520
 11
1589.93233268
 21
749.81077756
  0
LINE
  8
LAYER_8
 10
1590.50000000
 20
754.50442913
 11
1589.80044291
 21
753.80339567
  0
LINE
  8
LAYER_8
 10
1590.50000000
 20
758.62918307
 11
1589.66855315
 21
757.79601378
  0
LINE
  8
LAYER_8
 10
1590.50000000
 20
762.75393701
 11
1589.53666339
 21
761.78863189
  0
LINE
  8
LAYER_8
 10
1590.50000000
 20
766.87869094
 11
1589.40477362
 21
765.78125000
  0
LINE
  8
LAYER_8
 10
1590.50000000
 20
771.00344488
 11
1589.27288386
 21
769.77386811
  0
LINE
  8
LAYER_8
 10
1590.50000000
 20
775.12819882
 11
1589.14099409
 21
773.76648622
  0
LINE
  8
LAYER_8
 10
1590.50000000
 20
779.25295276
 11
1589.00910433
 21
777.75910433
  0
LINE
  8
LAYER_8
 10
1590.50000000
 20
783.37770669
 11
1588.87721457
 21
781.75172244
  0
LINE
  8
LAYER_8
 10
1590.50000000
 20
787.50246063
 11
1588.74532480
 21
785.74434055
  0
LINE
  8
LAYER_8
 10
1590.50000000
 20
791.62721457
 11
1588.61343504
 21
789.73695866
  0
LINE
  8
LAYER_8
 10
1590.50000000
 20
795.75196850
 11
1588.48154528
 21
793.72957677
  0
LINE
  8
LAYER_8
 10
1590.50000000
 20
799.87672244
 11
1588.34965551
 21
797.72219488
  0
LINE
  8
LAYER_8
 10
1590.50000000
 20
804.00147638
 11
1588.21776575
 21
801.71481299
  0
LINE
  8
LAYER_8
 10
1590.50000000
 20
808.12623031
 11
1588.08587598
 21
805.70743110
  0
LINE
  8
LAYER_8
 10
1590.50000000
 20
812.25098425
 11
1587.95398622
 21
809.70004921
  0
LINE
  8
LAYER_8
 10
1590.50000000
 20
816.37573819
 11
1587.82209646
 21
813.69266732
  0
LINE
  8
LAYER_8
 10
1590.50000000
 20
820.50049213
 11
1587.69020669
 21
817.68528543
  0
LINE
  8
LAYER_8
 10
1590.50000000
 20
824.62524606
 11
1587.55831693
 21
821.67790354
  0
LINE
  8
LAYER_8
 10
1590.50000000
 20
828.75000000
 11
1587.42642717
 21
825.67052165
  0
LINE
  8
LAYER_8
 10
1590.50000000
 20
832.87475394
 11
1587.29453740
 21
829.66313976
  0
LINE
  8
LAYER_8
 10
1590.50000000
 20
836.99950787
 11
1587.16264764
 21
833.65575787
  0
LINE
  8
LAYER_8
 10
1590.50000000
 20
841.12426181
 11
1587.03075787
 21
837.64837598
  0
LINE
  8
LAYER_8
 10
1590.50000000
 20
845.24901575
 11
1586.89886811
 21
841.64099409
  0
LINE
  8
LAYER_8
 10
1590.50000000
 20
849.37376969
 11
1586.76697835
 21
845.63361220
  0
LINE
  8
LAYER_8
 10
1590.50000000
 20
853.49852362
 11
1586.63508858
 21
849.62623031
  0
LINE
  8
LAYER_8
 10
1590.50000000
 20
857.62327756
 11
1586.50319882
 21
853.61884843
  0
LINE
  8
LAYER_8
 10
1589.24434055
 20
732.62500000
 11
1590.45989173
 21
733.84030512
  0
LINE
  8
LAYER_8
 10
1586.50000000
 20
734.00492126
 11
1590.32800197
 21
737.83292323
  0
LINE
  8
LAYER_8
 10
1586.50000000
 20
738.12967520
 11
1590.19611220
 21
741.82554134
  0
LINE
  8
LAYER_8
 10
1586.50000000
 20
742.25442913
 11
1590.06422244
 21
745.81815945
  0
LINE
  8
LAYER_8
 10
1586.50000000
 20
746.37918307
 11
1589.93233268
 21
749.81077756
  0
LINE
  8
LAYER_8
 10
1586.50000000
 20
750.50393701
 11
1589.80044291
 21
753.80339567
  0
LINE
  8
LAYER_8
 10
1586.50000000
 20
754.62869094
 11
1589.66855315
 21
757.79601378
  0
LINE
  8
LAYER_8
 10
1586.50000000
 20
758.75344488
 11
1589.53666339
 21
761.78863189
  0
LINE
  8
LAYER_8
 10
1586.50000000
 20
762.87819882
 11
1589.40477362
 21
765.78125000
  0
LINE
  8
LAYER_8
 10
1586.50000000
 20
767.00295276
 11
1589.27288386
 21
769.77386811
  0
LINE
  8
LAYER_8
 10
1586.50000000
 20
771.12770669
 11
1589.14099409
 21
773.76648622
  0
LINE
  8
LAYER_8
 10
1586.50000000
 20
775.25246063
 11
1589.00910433
 21
777.75910433
  0
LINE
  8
LAYER_8
 10
1586.50000000
 20
779.37721457
 11
1588.87721457
 21
781.75172244
  0
LINE
  8
LAYER_8
 10
1586.50000000
 20
783.50196850
 11
1588.74532480
 21
785.74434055
  0
LINE
  8
LAYER_8
 10
1586.50000000
 20
787.62672244
 11
1588.61343504
 21
789.73695866
  0
LINE
  8
LAYER_8
 10
1586.50000000
 20
791.75147638
 11
1588.48154528
 21
793.72957677
  0
LINE
  8
LAYER_8
 10
1586.50000000
 20
795.87623031
 11
1588.34965551
 21
797.72219488
  0
LINE
  8
LAYER_8
 10
1586.50000000
 20
800.00098425
 11
1588.21776575
 21
801.71481299
  0
LINE
  8
LAYER_8
 10
1586.50000000
 20
804.12573819
 11
1588.08587598
 21
805.70743110
  0
LINE
  8
LAYER_8
 10
1586.50000000
 20
808.25049213
 11
1587.95398622
 21
809.70004921
  0
LINE
  8
LAYER_8
 10
1586.50000000
 20
812.37524606
 11
1587.82209646
 21
813.69266732
  0
LINE
  8
LAYER_8
 10
1586.50000000
 20
816.50000000
 11
1587.69020669
 21
817.68528543
  0
LINE
  8
LAYER_8
 10
1586.50000000
 20
820.62475394
 11
1587.55831693
 21
821.67790354
  0
LINE
  8
LAYER_8
 10
1586.50000000
 20
824.74950787
 11
1587.42642717
 21
825.67052165
  0
LINE
  8
LAYER_8
 10
1586.50000000
 20
828.87426181
 11
1587.29453740
 21
829.66313976
  0
LINE
  8
LAYER_8
 10
1586.50000000
 20
832.99901575
 11
1587.16264764
 21
833.65575787
  0
LINE
  8
LAYER_8
 10
1586.50000000
 20
837.12376969
 11
1587.03075787
 21
837.64837598
  0
LINE
  8
LAYER_8
 10
1586.50000000
 20
841.24852362
 11
1586.89886811
 21
841.64099409
  0
LINE
  8
LAYER_8
 10
1586.50000000
 20
845.37327756
 11
1586.76697835
 21
845.63361220
  0
LINE
  8
LAYER_8
 10
1586.50000000
 20
849.49803150
 11
1586.63508858
 21
849.62623031
  0
LINE
  8
LAYER_8
 10
1586.50000000
 20
853.62278543
 11
1586.50319882
 21
853.61884843
  0
LINE
  8
LAYER_8
 10
1590.50000000
 20
857.62500000
 11
1590.50000000
 21
732.62500000
  0
LINE
  8
LAYER_8
 10
1586.50000000
 20
853.62500000
 11
1586.50000000
 21
732.62500000
  0
LINE
  8
LAYER_8
 10
1590.50000000
 20
732.62500000
 11
1586.50000000
 21
732.62500000
  0
LINE
  8
LAYER_8
 10
1585.50000000
 20
684.62500000
 11
1585.50000000
 21
564.62500000
  0
LINE
  8
LAYER_8
 10
1581.50000000
 20
684.62500000
 11
1581.50000000
 21
568.62500000
  0
LINE
  8
LAYER_8
 10
1585.50000000
 20
684.62500000
 11
1581.50000000
 21
684.62500000
  0
LINE
  8
LAYER_8
 10
1586.50000000
 20
684.62500000
 11
1586.50000000
 21
563.62500000
  0
LINE
  8
LAYER_8
 10
1585.50000000
 20
684.62500000
 11
1585.50000000
 21
564.62500000
  0
LINE
  8
LAYER_8
 10
1586.50000000
 20
684.62500000
 11
1585.50000000
 21
684.62500000
  0
LINE
  8
LAYER_8
 10
1589.98695866
 20
560.13804134
 11
1590.50000000
 21
560.65132874
  0
LINE
  8
LAYER_8
 10
1587.92470472
 20
562.20029528
 11
1590.50000000
 21
564.77608268
  0
LINE
  8
LAYER_8
 10
1586.54355315
 20
564.94365157
 11
1590.50000000
 21
568.90083661
  0
LINE
  8
LAYER_8
 10
1586.68454724
 20
569.20939961
 11
1590.50000000
 21
573.02559055
  0
LINE
  8
LAYER_8
 10
1586.82554134
 20
573.47514764
 11
1590.50000000
 21
577.15034449
  0
LINE
  8
LAYER_8
 10
1586.96653543
 20
577.74089567
 11
1590.50000000
 21
581.27509843
  0
LINE
  8
LAYER_8
 10
1587.10752953
 20
582.00664370
 11
1590.50000000
 21
585.39985236
  0
LINE
  8
LAYER_8
 10
1587.24852362
 20
586.27239173
 11
1590.50000000
 21
589.52460630
  0
LINE
  8
LAYER_8
 10
1587.38951772
 20
590.53813976
 11
1590.50000000
 21
593.64936024
  0
LINE
  8
LAYER_8
 10
1587.53051181
 20
594.80388780
 11
1590.50000000
 21
597.77411417
  0
LINE
  8
LAYER_8
 10
1587.67150591
 20
599.06963583
 11
1590.50000000
 21
601.89886811
  0
LINE
  8
LAYER_8
 10
1587.81250000
 20
603.33538386
 11
1590.50000000
 21
606.02362205
  0
LINE
  8
LAYER_8
 10
1587.95349409
 20
607.60113189
 11
1590.50000000
 21
610.14837598
  0
LINE
  8
LAYER_8
 10
1588.09448819
 20
611.86687992
 11
1590.50000000
 21
614.27312992
  0
LINE
  8
LAYER_8
 10
1588.23548228
 20
616.13262795
 11
1590.50000000
 21
618.39788386
  0
LINE
  8
LAYER_8
 10
1588.37647638
 20
620.39837598
 11
1590.50000000
 21
622.52263780
  0
LINE
  8
LAYER_8
 10
1588.51747047
 20
624.66412402
 11
1590.50000000
 21
626.64739173
  0
LINE
  8
LAYER_8
 10
1588.65846457
 20
628.92987205
 11
1590.50000000
 21
630.77214567
  0
LINE
  8
LAYER_8
 10
1588.79945866
 20
633.19562008
 11
1590.50000000
 21
634.89689961
  0
LINE
  8
LAYER_8
 10
1588.94045276
 20
637.46136811
 11
1590.50000000
 21
639.02165354
  0
LINE
  8
LAYER_8
 10
1589.08144685
 20
641.72711614
 11
1590.50000000
 21
643.14640748
  0
LINE
  8
LAYER_8
 10
1589.22244094
 20
645.99286417
 11
1590.50000000
 21
647.27116142
  0
LINE
  8
LAYER_8
 10
1589.36343504
 20
650.25861220
 11
1590.50000000
 21
651.39591535
  0
LINE
  8
LAYER_8
 10
1589.50442913
 20
654.52436024
 11
1590.50000000
 21
655.52066929
  0
LINE
  8
LAYER_8
 10
1589.64542323
 20
658.79010827
 11
1590.50000000
 21
659.64542323
  0
LINE
  8
LAYER_8
 10
1589.78641732
 20
663.05585630
 11
1590.50000000
 21
663.77017717
  0
LINE
  8
LAYER_8
 10
1589.92741142
 20
667.32160433
 11
1590.50000000
 21
667.89493110
  0
LINE
  8
LAYER_8
 10
1590.06840551
 20
671.58735236
 11
1590.50000000
 21
672.01968504
  0
LINE
  8
LAYER_8
 10
1590.20939961
 20
675.85310039
 11
1590.50000000
 21
676.14443898
  0
LINE
  8
LAYER_8
 10
1590.35039370
 20
680.11884843
 11
1590.50000000
 21
680.26919291
  0
LINE
  8
LAYER_8
 10
1590.49138780
 20
684.38459646
 11
1590.50000000
 21
684.39394685
  0
LINE
  8
LAYER_8
 10
1586.54355315
 20
564.94389764
 11
1586.50000000
 21
564.90034449
  0
LINE
  8
LAYER_8
 10
1586.68454724
 20
569.20964567
 11
1586.50000000
 21
569.02509843
  0
LINE
  8
LAYER_8
 10
1586.82554134
 20
573.47539370
 11
1586.50000000
 21
573.14985236
  0
LINE
  8
LAYER_8
 10
1586.96653543
 20
577.74114173
 11
1586.50000000
 21
577.27460630
  0
LINE
  8
LAYER_8
 10
1587.10752953
 20
582.00688976
 11
1586.50000000
 21
581.39936024
  0
LINE
  8
LAYER_8
 10
1587.24852362
 20
586.27263780
 11
1586.50000000
 21
585.52411417
  0
LINE
  8
LAYER_8
 10
1587.38951772
 20
590.53838583
 11
1586.50000000
 21
589.64886811
  0
LINE
  8
LAYER_8
 10
1587.53051181
 20
594.80413386
 11
1586.50000000
 21
593.77362205
  0
LINE
  8
LAYER_8
 10
1587.67150591
 20
599.06988189
 11
1586.50000000
 21
597.89837598
  0
LINE
  8
LAYER_8
 10
1587.81250000
 20
603.33562992
 11
1586.50000000
 21
602.02312992
  0
LINE
  8
LAYER_8
 10
1587.95349409
 20
607.60137795
 11
1586.50000000
 21
606.14788386
  0
LINE
  8
LAYER_8
 10
1588.09448819
 20
611.86712598
 11
1586.50000000
 21
610.27263780
  0
LINE
  8
LAYER_8
 10
1588.23548228
 20
616.13287402
 11
1586.50000000
 21
614.39739173
  0
LINE
  8
LAYER_8
 10
1588.37647638
 20
620.39862205
 11
1586.50000000
 21
618.52214567
  0
LINE
  8
LAYER_8
 10
1588.51747047
 20
624.66437008
 11
1586.50000000
 21
622.64689961
  0
LINE
  8
LAYER_8
 10
1588.65846457
 20
628.93011811
 11
1586.50000000
 21
626.77165354
  0
LINE
  8
LAYER_8
 10
1588.79945866
 20
633.19586614
 11
1586.50000000
 21
630.89640748
  0
LINE
  8
LAYER_8
 10
1588.94045276
 20
637.46161417
 11
1586.50000000
 21
635.02116142
  0
LINE
  8
LAYER_8
 10
1589.08144685
 20
641.72736220
 11
1586.50000000
 21
639.14591535
  0
LINE
  8
LAYER_8
 10
1589.22244094
 20
645.99311024
 11
1586.50000000
 21
643.27066929
  0
LINE
  8
LAYER_8
 10
1589.36343504
 20
650.25885827
 11
1586.50000000
 21
647.39542323
  0
LINE
  8
LAYER_8
 10
1589.50442913
 20
654.52460630
 11
1586.50000000
 21
651.52017717
  0
LINE
  8
LAYER_8
 10
1589.64542323
 20
658.79035433
 11
1586.50000000
 21
655.64493110
  0
LINE
  8
LAYER_8
 10
1589.78641732
 20
663.05610236
 11
1586.50000000
 21
659.76968504
  0
LINE
  8
LAYER_8
 10
1589.92741142
 20
667.32185039
 11
1586.50000000
 21
663.89443898
  0
LINE
  8
LAYER_8
 10
1590.06840551
 20
671.58759843
 11
1586.50000000
 21
668.01919291
  0
LINE
  8
LAYER_8
 10
1590.20939961
 20
675.85334646
 11
1586.50000000
 21
672.14394685
  0
LINE
  8
LAYER_8
 10
1590.35039370
 20
680.11909449
 11
1586.50000000
 21
676.26870079
  0
LINE
  8
LAYER_8
 10
1590.49138780
 20
684.38484252
 11
1586.50000000
 21
680.39345472
  0
LINE
  8
LAYER_8
 10
1586.61417323
 20
684.62500000
 11
1586.50000000
 21
684.51820866
  0
LINE
  8
LAYER_8
 10
1590.50000000
 20
684.62500000
 11
1590.50000000
 21
559.62500000
  0
LINE
  8
LAYER_8
 10
1586.50000000
 20
684.62500000
 11
1586.50000000
 21
563.62500000
  0
LINE
  8
LAYER_8
 10
1590.50000000
 20
684.62500000
 11
1586.50000000
 21
684.62500000
  0
LINE
  8
LAYER_8
 10
1201.50000000
 20
564.62500000
 11
1223.62500000
 21
564.62500000
  0
LINE
  8
LAYER_8
 10
1205.50000000
 20
568.62500000
 11
1223.62500000
 21
568.62500000
  0
LINE
  8
LAYER_8
 10
1223.62500000
 20
564.62500000
 11
1223.62500000
 21
568.62500000
  0
LINE
  8
LAYER_8
 10
1200.50000000
 20
563.62500000
 11
1223.62500000
 21
563.62500000
  0
LINE
  8
LAYER_8
 10
1201.50000000
 20
564.62500000
 11
1223.62500000
 21
564.62500000
  0
LINE
  8
LAYER_8
 10
1223.62500000
 20
563.62500000
 11
1223.62500000
 21
564.62500000
  0
LINE
  8
LAYER_8
 10
1222.39247047
 20
559.62500000
 11
1222.57431102
 21
559.80684055
  0
LINE
  8
LAYER_8
 10
1218.26771654
 20
559.62500000
 11
1219.05782480
 21
560.41510827
  0
LINE
  8
LAYER_8
 10
1214.14296260
 20
559.62500000
 11
1215.54133858
 21
561.02337598
  0
LINE
  8
LAYER_8
 10
1210.01820866
 20
559.62500000
 11
1212.02485236
 21
561.63164370
  0
LINE
  8
LAYER_8
 10
1205.89345472
 20
559.62500000
 11
1208.50836614
 21
562.23991142
  0
LINE
  8
LAYER_8
 10
1201.76870079
 20
559.62500000
 11
1204.99187992
 21
562.84817913
  0
LINE
  8
LAYER_8
 10
1197.64394685
 20
559.62500000
 11
1201.47539370
 21
563.45644685
  0
LINE
  8
LAYER_8
 10
1223.62500000
 20
560.85752953
 11
1222.57431102
 21
559.80684055
  0
LINE
  8
LAYER_8
 10
1222.26820866
 20
563.62500000
 11
1219.05782480
 21
560.41510827
  0
LINE
  8
LAYER_8
 10
1218.14345472
 20
563.62500000
 11
1215.54133858
 21
561.02337598
  0
LINE
  8
LAYER_8
 10
1214.01870079
 20
563.62500000
 11
1212.02485236
 21
561.63164370
  0
LINE
  8
LAYER_8
 10
1209.89394685
 20
563.62500000
 11
1208.50836614
 21
562.23991142
  0
LINE
  8
LAYER_8
 10
1205.76919291
 20
563.62500000
 11
1204.99187992
 21
562.84817913
  0
LINE
  8
LAYER_8
 10
1201.64443898
 20
563.62500000
 11
1201.47539370
 21
563.45644685
  0
LINE
  8
LAYER_8
 10
1196.50000000
 20
559.62500000
 11
1223.62500000
 21
559.62500000
  0
LINE
  8
LAYER_8
 10
1200.50000000
 20
563.62500000
 11
1223.62500000
 21
563.62500000
  0
LINE
  8
LAYER_8
 10
1223.62500000
 20
559.62500000
 11
1223.62500000
 21
563.62500000
  0
LINE
  8
LAYER_8
 10
1323.62500000
 20
564.62500000
 11
1343.50000000
 21
564.62500000
  0
LINE
  8
LAYER_8
 10
1323.62500000
 20
568.62500000
 11
1343.50000000
 21
568.62500000
  0
LINE
  8
LAYER_8
 10
1323.62500000
 20
564.62500000
 11
1323.62500000
 21
568.62500000
  0
LINE
  8
LAYER_8
 10
1343.50000000
 20
564.62500000
 11
1343.50000000
 21
568.62500000
  0
LINE
  8
LAYER_8
 10
1323.62500000
 20
563.62500000
 11
1343.50000000
 21
563.62500000
  0
LINE
  8
LAYER_8
 10
1323.62500000
 20
564.62500000
 11
1343.50000000
 21
564.62500000
  0
LINE
  8
LAYER_8
 10
1323.62500000
 20
563.62500000
 11
1323.62500000
 21
564.62500000
  0
LINE
  8
LAYER_8
 10
1343.50000000
 20
563.62500000
 11
1343.50000000
 21
564.62500000
  0
LINE
  8
LAYER_8
 10
1342.00319882
 20
559.62500000
 11
1342.25418307
 21
559.87573819
  0
LINE
  8
LAYER_8
 10
1337.87844488
 20
559.62500000
 11
1338.82062008
 21
560.56668307
  0
LINE
  8
LAYER_8
 10
1333.75369094
 20
559.62500000
 11
1335.38705709
 21
561.25762795
  0
LINE
  8
LAYER_8
 10
1329.62893701
 20
559.62500000
 11
1331.95349409
 21
561.94857283
  0
LINE
  8
LAYER_8
 10
1325.50418307
 20
559.62500000
 11
1328.51993110
 21
562.63951772
  0
LINE
  8
LAYER_8
 10
1323.62500000
 20
561.86909449
 11
1325.08636811
 21
563.33046260
  0
LINE
  8
LAYER_8
 10
1343.50000000
 20
561.12180118
 11
1342.25418307
 21
559.87573819
  0
LINE
  8
LAYER_8
 10
1341.87893701
 20
563.62500000
 11
1338.82062008
 21
560.56668307
  0
LINE
  8
LAYER_8
 10
1337.75418307
 20
563.62500000
 11
1335.38705709
 21
561.25762795
  0
LINE
  8
LAYER_8
 10
1333.62942913
 20
563.62500000
 11
1331.95349409
 21
561.94857283
  0
LINE
  8
LAYER_8
 10
1329.50467520
 20
563.62500000
 11
1328.51993110
 21
562.63951772
  0
LINE
  8
LAYER_8
 10
1325.37992126
 20
563.62500000
 11
1325.08636811
 21
563.33046260
  0
LINE
  8
LAYER_8
 10
1323.62500000
 20
559.62500000
 11
1343.50000000
 21
559.62500000
  0
LINE
  8
LAYER_8
 10
1323.62500000
 20
563.62500000
 11
1343.50000000
 21
563.62500000
  0
LINE
  8
LAYER_8
 10
1323.62500000
 20
559.62500000
 11
1323.62500000
 21
563.62500000
  0
LINE
  8
LAYER_8
 10
1343.50000000
 20
559.62500000
 11
1343.50000000
 21
563.62500000
  0
LINE
  8
LAYER_8
 10
1443.50000000
 20
564.62500000
 11
1465.25000000
 21
564.62500000
  0
LINE
  8
LAYER_8
 10
1443.50000000
 20
568.62500000
 11
1465.25000000
 21
568.62500000
  0
LINE
  8
LAYER_8
 10
1443.50000000
 20
564.62500000
 11
1443.50000000
 21
568.62500000
  0
LINE
  8
LAYER_8
 10
1465.25000000
 20
564.62500000
 11
1465.25000000
 21
568.62500000
  0
LINE
  8
LAYER_8
 10
1443.50000000
 20
563.62500000
 11
1465.25000000
 21
563.62500000
  0
LINE
  8
LAYER_8
 10
1443.50000000
 20
564.62500000
 11
1465.25000000
 21
564.62500000
  0
LINE
  8
LAYER_8
 10
1443.50000000
 20
563.62500000
 11
1443.50000000
 21
564.62500000
  0
LINE
  8
LAYER_8
 10
1465.25000000
 20
563.62500000
 11
1465.25000000
 21
564.62500000
  0
LINE
  8
LAYER_8
 10
1461.61392717
 20
559.62500000
 11
1462.17864173
 21
560.18971457
  0
LINE
  8
LAYER_8
 10
1457.48917323
 20
559.62500000
 11
1458.69463583
 21
560.83046260
  0
LINE
  8
LAYER_8
 10
1453.36441929
 20
559.62500000
 11
1455.21062992
 21
561.47121063
  0
LINE
  8
LAYER_8
 10
1449.23966535
 20
559.62500000
 11
1451.72662402
 21
562.11195866
  0
LINE
  8
LAYER_8
 10
1445.11491142
 20
559.62500000
 11
1448.24261811
 21
562.75270669
  0
LINE
  8
LAYER_8
 10
1443.50000000
 20
562.13336614
 11
1444.75861220
 21
563.39345472
  0
LINE
  8
LAYER_8
 10
1465.25000000
 20
563.26107283
 11
1462.17864173
 21
560.18971457
  0
LINE
  8
LAYER_8
 10
1461.48966535
 20
563.62500000
 11
1458.69463583
 21
560.83046260
  0
LINE
  8
LAYER_8
 10
1457.36491142
 20
563.62500000
 11
1455.21062992
 21
561.47121063
  0
LINE
  8
LAYER_8
 10
1453.24015748
 20
563.62500000
 11
1451.72662402
 21
562.11195866
  0
LINE
  8
LAYER_8
 10
1449.11540354
 20
563.62500000
 11
1448.24261811
 21
562.75270669
  0
LINE
  8
LAYER_8
 10
1444.99064961
 20
563.62500000
 11
1444.75861220
 21
563.39345472
  0
LINE
  8
LAYER_8
 10
1443.50000000
 20
559.62500000
 11
1465.25000000
 21
559.62500000
  0
LINE
  8
LAYER_8
 10
1443.50000000
 20
563.62500000
 11
1465.25000000
 21
563.62500000
  0
LINE
  8
LAYER_8
 10
1443.50000000
 20
559.62500000
 11
1443.50000000
 21
563.62500000
  0
LINE
  8
LAYER_8
 10
1465.25000000
 20
559.62500000
 11
1465.25000000
 21
563.62500000
  0
LINE
  8
LAYER_8
 10
1565.25000000
 20
564.62500000
 11
1585.50000000
 21
564.62500000
  0
LINE
  8
LAYER_8
 10
1565.25000000
 20
568.62500000
 11
1581.50000000
 21
568.62500000
  0
LINE
  8
LAYER_8
 10
1565.25000000
 20
564.62500000
 11
1565.25000000
 21
568.62500000
  0
LINE
  8
LAYER_8
 10
1565.25000000
 20
563.62500000
 11
1586.50000000
 21
563.62500000
  0
LINE
  8
LAYER_8
 10
1565.25000000
 20
564.62500000
 11
1585.50000000
 21
564.62500000
  0
LINE
  8
LAYER_8
 10
1565.25000000
 20
563.62500000
 11
1565.25000000
 21
564.62500000
  0
LINE
  8
LAYER_8
 10
1589.98695866
 20
560.13804134
 11
1589.47367126
 21
559.62500000
  0
LINE
  8
LAYER_8
 10
1587.92470472
 20
562.20029528
 11
1585.34891732
 21
559.62500000
  0
LINE
  8
LAYER_8
 10
1584.92913386
 20
563.32923228
 11
1581.22416339
 21
559.62500000
  0
LINE
  8
LAYER_8
 10
1579.84793307
 20
562.37278543
 11
1577.09940945
 21
559.62500000
  0
LINE
  8
LAYER_8
 10
1574.76673228
 20
561.41633858
 11
1572.97465551
 21
559.62500000
  0
LINE
  8
LAYER_8
 10
1569.68553150
 20
560.45989173
 11
1568.84990157
 21
559.62500000
  0
LINE
  8
LAYER_8
 10
1584.92888780
 20
563.32923228
 11
1585.22465551
 21
563.62500000
  0
LINE
  8
LAYER_8
 10
1579.84768701
 20
562.37278543
 11
1581.09990157
 21
563.62500000
  0
LINE
  8
LAYER_8
 10
1574.76648622
 20
561.41633858
 11
1576.97514764
 21
563.62500000
  0
LINE
  8
LAYER_8
 10
1569.68528543
 20
560.45989173
 11
1572.85039370
 21
563.62500000
  0
LINE
  8
LAYER_8
 10
1565.25000000
 20
560.14812992
 11
1568.72563976
 21
563.62500000
  0
LINE
  8
LAYER_8
 10
1565.25000000
 20
559.62500000
 11
1590.50000000
 21
559.62500000
  0
LINE
  8
LAYER_8
 10
1565.25000000
 20
563.62500000
 11
1586.50000000
 21
563.62500000
  0
LINE
  8
LAYER_8
 10
1565.25000000
 20
559.62500000
 11
1565.25000000
 21
563.62500000
  0
TEXT
  1
2x4x16'
  7
SPSIMP
  8
LAYER_4
 10
1194.00000000
 20
788.62500000
 40
3.82048149
 50
90.00000000
  0
TEXT
  1
2x4x16'
  7
SPSIMP
  8
LAYER_4
 10
1593.50000000
 20
596.50000000
 40
3.82048149
 50
90.00000000
  0
TEXT
  1
2x4x10'
  7
SPSIMP
  8
LAYER_4
 10
1193.75000000
 20
598.62500000
 40
3.82048149
 50
90.00000000
  0
TEXT
  1
2x4x10'
  7
SPSIMP
  8
LAYER_4
 10
1593.00000000
 20
814.50000000
 40
3.82048149
 50
90.00000000
  0
TEXT
  1
2x4x12'
  7
SPSIMP
  8
LAYER_4
 10
1221.00000000
 20
861.00000000
 40
3.82048149
 50
0.00000000
  0
TEXT
  1
2x4x10'
  7
SPSIMP
  8
LAYER_4
 10
1395.25000000
 20
861.00000000
 40
3.82048149
 50
0.00000000
  0
TEXT
  1
2x4x16'
  7
SPSIMP
  8
LAYER_4
 10
1184.00000000
 20
598.75000000
 40
3.82048149
 50
90.00000000
  0
TEXT
  1
2x4x10'
  7
SPSIMP
  8
LAYER_4
 10
1183.62500000
 20
789.50000000
 40
3.82048149
 50
90.00000000
  0
TEXT
  1
2x4x16'
  7
SPSIMP
  8
LAYER_4
 10
1603.00000000
 20
814.50000000
 40
3.82048149
 50
90.00000000
  0
TEXT
  1
2x4x10'
  7
SPSIMP
  8
LAYER_4
 10
1603.75000000
 20
596.37500000
 40
3.82048149
 50
90.00000000
  0
TEXT
  1
SOLE PLATE
  7
SPSIMP
  8
LAYER_4
 10
1194.12500000
 20
687.50000000
 40
3.82048149
 50
90.00000000
  0
TEXT
  1
SOLE PLATE
  7
SPSIMP
  8
LAYER_4
 10
1281.75000000
 20
860.62500000
 40
3.82048149
 50
0.00000000
  0
TEXT
  1
SOLE PLATE
  7
SPSIMP
  8
LAYER_4
 10
1592.87500000
 20
688.00000000
 40
3.82048149
 50
90.00000000
  0
TEXT
  1
1ST TOP PLATE
  7
SPSIMP
  8
LAYER_4
 10
1183.62500000
 20
684.00000000
 40
3.82048149
 50
90.00000000
  0
TEXT
  1
1ST TOP PLATE
  7
SPSIMP
  8
LAYER_4
 10
1603.25000000
 20
685.50000000
 40
3.82048149
 50
90.00000000
  0
TEXT
  1
2x4x16'
  7
SPSIMP
  8
LAYER_4
 10
1394.25000000
 20
871.50000000
 40
3.82048149
 50
0.00000000
  0
TEXT
  1
2x4x10'
  7
SPSIMP
  8
LAYER_4
 10
1220.75000000
 20
871.75000000
 40
3.82048149
 50
0.00000000
  0
TEXT
  1
1ST TOP PLATE
  7
SPSIMP
  8
LAYER_4
 10
1327.00000000
 20
871.25000000
 40
3.82048149
 50
0.00000000
  0
TEXT
  1
2x4x12'
  7
SPSIMP
  8
LAYER_4
 10
1221.87500000
 20
880.62500000
 40
3.82048149
 50
0.00000000
  0
TEXT
  1
2x4x16'
  7
SPSIMP
  8
LAYER_4
 10
1394.62500000
 20
880.62500000
 40
3.82048149
 50
0.00000000
  0
TEXT
  1
2ND TOP PLATE
  7
SPSIMP
  8
LAYER_4
 10
1327.12500000
 20
880.75000000
 40
3.82048149
 50
0.00000000
  0
TEXT
  1
2x4x12'
  7
SPSIMP
  8
LAYER_4
 10
1174.25000000
 20
790.37500000
 40
3.82048149
 50
90.00000000
  0
TEXT
  1
2x4x12'
  7
SPSIMP
  8
LAYER_4
 10
1174.50000000
 20
597.37500000
 40
3.82048149
 50
90.00000000
  0
TEXT
  1
2ND TOP PLATE
  7
SPSIMP
  8
LAYER_4
 10
1173.12500000
 20
678.25000000
 40
3.82048149
 50
90.00000000
  0
TEXT
  1
2x4x12'
  7
SPSIMP
  8
LAYER_4
 10
1613.00000000
 20
814.62500000
 40
3.82048149
 50
90.00000000
  0
TEXT
  1
2x4x12'
  7
SPSIMP
  8
LAYER_4
 10
1613.62500000
 20
596.75000000
 40
3.82048149
 50
90.00000000
  0
TEXT
  1
2ND TOP PLATE
  7
SPSIMP
  8
LAYER_4
 10
1612.00000000
 20
684.87500000
 40
3.82048149
 50
90.00000000
  0
TEXT
  1
PLATE LAYOUT AND SIZING PLAN
  7
SPHAND
  8
LAYER_4
 10
1281.25000000
 20
504.75000000
 40
8.06549235
 50
0.00000000
  0
TEXT
  1
TOP PLATE
  7
SPSIMP
  8
LAYER_12
 10
1170.62500000
 20
878.93750000
 40
2.54689338
 50
0.00000000
  0
TEXT
  1
OVERLAP
  7
SPSIMP
  8
LAYER_12
 10
1170.62500000
 20
874.43750000
 40
2.54689338
 50
0.00000000
  0
TEXT
  1
OVERLAP
  7
SPSIMP
  8
LAYER_12
 10
1587.50000000
 20
877.56250000
 40
2.54689338
 50
0.00000000
  0
TEXT
  1
STUD WALL LAYOUT
  7
SPSIMP
  8
LAYER_12
 10
1269.25000000
 20
843.56250000
 40
2.54689338
 50
0.00000000
  0
TEXT
  1
SCAB SOLE PLATE JOINT UNDER GARAGE DOOR OPENING WITH
  7
SPSIMP
  8
LAYER_4
 10
1266.12500000
 20
627.62500000
 40
3.82048149
 50
0.00000000
  0
TEXT
  1
2x4 AND INSERT TEMPORARY BRACING STUDS IN DOORWAY
  7
SPSIMP
  8
LAYER_4
 10
1266.12500000
 20
620.62500000
 40
3.82048149
 50
0.00000000
  0
TEXT
  1
TO ERECT WALL, REMOVE ONCE WALL IS SECURE.
  7
SPSIMP
  8
LAYER_4
 10
1266.12500000
 20
613.62500000
 40
3.82048149
 50
0.00000000
  0
TEXT
  1
PLATE
  7
SPSIMP
  8
LAYER_12
 10
1363.75000000
 20
589.31250000
 40
2.54689338
 50
0.00000000
  0
TEXT
  1
JOINT
  7
SPSIMP
  8
LAYER_12
 10
1327.62500000
 20
585.43750000
 40
2.54689338
 50
0.00000000
  0
TEXT
  1
SCAB
  7
SPSIMP
  8
LAYER_12
 10
1317.50000000
 20
595.81250000
 40
2.54689338
 50
0.00000000
  0
TEXT
  1
TEMP. 
  7
SPSIMP
  8
LAYER_12
 10
1335.50000000
 20
603.18750000
 40
2.54689338
 50
0.00000000
  0
TEXT
  1
STUD
  7
SPSIMP
  8
LAYER_12
 10
1335.50000000
 20
598.68750000
 40
2.54689338
 50
0.00000000
  0
TEXT
  1
BEGIN FRAMING SIDE WALLS FIRST
  7
SPSIMP
  8
LAYER_4
 10
1290.75000000
 20
743.87500000
 40
3.82048149
 50
0.00000000
  0
TEXT
  1
2x4x12'
  7
SPSIMP
  8
LAYER_4
 10
1526.25000000
 20
861.00000000
 40
3.82048149
 50
0.00000000
  0
TEXT
  1
2x4x10'
  7
SPSIMP
  8
LAYER_4
 10
1526.25000000
 20
871.12500000
 40
3.82048149
 50
0.00000000
  0
TEXT
  1
2x4x6'
  7
SPSIMP
  8
LAYER_4
 10
1538.50000000
 20
880.37500000
 40
3.82048149
 50
0.00000000
  0
TEXT
  1
2x4x12'
  7
SPSIMP
  8
LAYER_4
 10
1542.37500000
 20
549.00000000
 40
3.82048149
 50
0.00000000
  0
TEXT
  1
2x4x10'
  7
SPSIMP
  8
LAYER_4
 10
1368.12500000
 20
549.00000000
 40
3.82048149
 50
0.00000000
  0
TEXT
  1
SOLE PLATE
  7
SPSIMP
  8
LAYER_4
 10
1464.75000000
 20
549.37500000
 40
3.82048149
 50
0.00000000
  0
TEXT
  1
2x4x16'
  7
SPSIMP
  8
LAYER_4
 10
1369.37500000
 20
538.50000000
 40
3.82048149
 50
0.00000000
  0
TEXT
  1
2x4x10'
  7
SPSIMP
  8
LAYER_4
 10
1542.62500000
 20
538.25000000
 40
3.82048149
 50
0.00000000
  0
TEXT
  1
1ST TOP PLATE
  7
SPSIMP
  8
LAYER_4
 10
1409.12500000
 20
538.75000000
 40
3.82048149
 50
0.00000000
  0
TEXT
  1
2x4x12'
  7
SPSIMP
  8
LAYER_4
 10
1541.50000000
 20
527.62500000
 40
3.82048149
 50
0.00000000
  0
TEXT
  1
2x4x16'
  7
SPSIMP
  8
LAYER_4
 10
1369.00000000
 20
528.00000000
 40
3.82048149
 50
0.00000000
  0
TEXT
  1
2ND TOP PLATE
  7
SPSIMP
  8
LAYER_4
 10
1407.62500000
 20
528.62500000
 40
3.82048149
 50
0.00000000
  0
TEXT
  1
TOP PLATE
  7
SPSIMP
  8
LAYER_12
 10
1558.12500000
 20
520.93750000
 40
2.54689338
 50
0.00000000
  0
TEXT
  1
OVERLAP
  7
SPSIMP
  8
LAYER_12
 10
1558.12500000
 20
516.43750000
 40
2.54689338
 50
0.00000000
  0
TEXT
  1
OVERLAP
  7
SPSIMP
  8
LAYER_12
 10
1184.50000000
 20
533.56250000
 40
2.54689338
 50
0.00000000
  0
TEXT
  1
2x4x12'
  7
SPSIMP
  8
LAYER_4
 10
1237.12500000
 20
549.00000000
 40
3.82048149
 50
0.00000000
  0
TEXT
  1
2x4x10'
  7
SPSIMP
  8
LAYER_4
 10
1237.12500000
 20
538.87500000
 40
3.82048149
 50
0.00000000
  0
TEXT
  1
2x4x6'
  7
SPSIMP
  8
LAYER_4
 10
1227.75000000
 20
529.00000000
 40
3.82048149
 50
0.00000000
  0
LINE
  8
LAYER_2
 10
1201.50000000
 20
852.62500000
 11
1201.50000000
 21
564.62500000
  0
LINE
  8
LAYER_2
 10
1201.50000000
 20
852.62500000
 11
1585.50000000
 21
852.62500000
  0
LINE
  8
LAYER_2
 10
1205.50000000
 20
848.62500000
 11
1581.50000000
 21
848.62500000
  0
LINE
  8
LAYER_2
 10
1205.50000000
 20
852.62500000
 11
1205.50000000
 21
564.62500000
  0
LINE
  8
LAYER_2
 10
1201.50000000
 20
564.62500000
 11
1585.50000000
 21
564.62500000
  0
LINE
  8
LAYER_2
 10
1205.50000000
 20
568.62500000
 11
1581.50000000
 21
568.62500000
  0
LINE
  8
LAYER_2
 10
1581.50000000
 20
852.62500000
 11
1581.50000000
 21
564.62500000
  0
LINE
  8
LAYER_2
 10
1585.50000000
 20
852.62500000
 11
1585.50000000
 21
564.62500000
  0
LINE
  8
LAYER_2
  6
MEDIUM
 10
1249.25000000
 20
568.62500000
 11
1249.25000000
 21
564.62500000
  0
LINE
  8
LAYER_2
  6
MEDIUM
 10
1441.75000000
 20
568.62500000
 11
1441.75000000
 21
564.62500000
  0
LINE
  8
LAYER_2
  6
MEDIUM
 10
1201.50000000
 20
800.37500000
 11
1205.50000000
 21
800.37500000
  0
LINE
  8
LAYER_2
  6
MEDIUM
 10
1201.50000000
 20
832.87500000
 11
1205.50000000
 21
832.87500000
  0
LINE
  8
LAYER_2
 10
1591.37500000
 20
564.62500000
 11
1620.62500000
 21
564.62500000
  0
LINE
  8
LAYER_2
 10
1592.50000000
 20
852.62500000
 11
1620.62500000
 21
852.62500000
  0
LINE
  8
LAYER_2
 10
1581.50000000
 20
883.62500000
 11
1581.50000000
 21
853.87500000
  0
LINE
  8
LAYER_2
 10
1170.87500000
 20
852.50000000
 11
1200.87500000
 21
852.50000000
  0
LINE
  8
LAYER_2
 10
1205.50000000
 20
882.62500000
 11
1205.50000000
 21
854.62500000
  0
LINE
  8
LAYER_2
 10
1170.87500000
 20
564.50000000
 11
1199.25000000
 21
564.50000000
  0
LINE
  8
LAYER_2
 10
1302.00000000
 20
588.62500000
 11
1360.75000000
 21
588.62500000
  0
LINE
  8
LAYER_2
 10
1304.37500000
 20
591.62500000
 11
1363.25000000
 21
591.62500000
  0
LINE
  8
LAYER_2
 10
1332.50000000
 20
591.62500000
 11
1332.50000000
 21
588.62500000
  0
LINE
  8
LAYER_2
 10
1348.12500000
 20
594.62500000
 11
1348.12500000
 21
591.62500000
  0
LINE
  8
LAYER_2
 10
1317.12500000
 20
594.62500000
 11
1348.12500000
 21
594.62500000
  0
LINE
  8
LAYER_2
 10
1317.12500000
 20
594.62500000
 11
1317.12500000
 21
591.62500000
  0
LINE
  8
LAYER_2
 10
1334.12500000
 20
607.62500000
 11
1334.12500000
 21
594.62500000
  0
LINE
  8
LAYER_2
 10
1331.12500000
 20
606.00000000
 11
1331.12500000
 21
594.62500000
  0
LINE
  8
LAYER_2
 10
1329.25000000
 20
605.00000000
 11
1332.00000000
 21
606.50000000
  0
LINE
  8
LAYER_2
 10
1332.00000000
 20
606.50000000
 11
1332.12500000
 21
605.62500000
  0
LINE
  8
LAYER_2
 10
1332.12500000
 20
605.62500000
 11
1332.62500000
 21
607.87500000
  0
LINE
  8
LAYER_2
 10
1332.62500000
 20
607.87500000
 11
1332.62500000
 21
606.75000000
  0
LINE
  8
LAYER_2
 10
1332.62500000
 20
606.75000000
 11
1335.12500000
 21
608.25000000
  0
LINE
  8
LAYER_2
 10
1303.75000000
 20
591.00000000
 11
1305.75000000
 21
593.00000000
  0
LINE
  8
LAYER_2
 10
1302.00000000
 20
591.25000000
 11
1303.75000000
 21
591.00000000
  0
LINE
  8
LAYER_2
 10
1302.00000000
 20
591.25000000
 11
1303.87500000
 21
589.25000000
  0
LINE
  8
LAYER_2
 10
1302.87500000
 20
589.62500000
 11
1303.87500000
 21
589.25000000
  0
LINE
  8
LAYER_2
 10
1300.50000000
 20
587.12500000
 11
1302.87500000
 21
589.62500000
  0
LINE
  8
LAYER_2
 10
1362.25000000
 20
590.62500000
 11
1364.25000000
 21
592.62500000
  0
LINE
  8
LAYER_2
 10
1360.50000000
 20
590.87500000
 11
1362.25000000
 21
590.62500000
  0
LINE
  8
LAYER_2
 10
1360.50000000
 20
590.87500000
 11
1362.37500000
 21
588.87500000
  0
LINE
  8
LAYER_2
 10
1361.37500000
 20
589.25000000
 11
1362.37500000
 21
588.87500000
  0
LINE
  8
LAYER_2
 10
1359.00000000
 20
586.75000000
 11
1361.37500000
 21
589.25000000
  0
LINE
  8
LAYER_2
 10
1612.75000000
 20
848.75000000
 11
1619.62500000
 21
848.75000000
  0
LINE
  8
LAYER_2
 10
1201.50000000
 20
882.37500000
 11
1201.50000000
 21
875.25000000
  0
LINE
  8
LAYER_2
 10
1585.37500000
 20
882.12500000
 11
1585.37500000
 21
875.37500000
  0
LINE
  8
LAYER_2
 10
1171.75000000
 20
848.62500000
 11
1181.00000000
 21
848.62500000
  0
LINE
  8
LAYER_2
 10
1171.62500000
 20
568.62500000
 11
1180.37500000
 21
568.62500000
  0
LINE
  8
LAYER_2
 10
1612.12500000
 20
568.62500000
 11
1620.62500000
 21
568.62500000
  0
LINE
  8
LAYER_2
 10
1205.75000000
 20
557.12500000
 11
1205.75000000
 21
529.37500000
  0
LINE
  8
LAYER_2
 10
1581.75000000
 20
557.12500000
 11
1581.75000000
 21
529.37500000
  0
LINE
  8
LAYER_2
 10
1585.75000000
 20
537.37500000
 11
1585.75000000
 21
530.25000000
  0
LINE
  8
LAYER_2
 10
1201.87500000
 20
537.25000000
 11
1201.87500000
 21
530.50000000
  0
LINE
  8
LAYER_1
 10
1585.50000000
 20
864.62500000
 11
1585.50000000
 21
840.62500000
  0
LINE
  8
LAYER_1
 10
1597.50000000
 20
852.62500000
 11
1573.50000000
 21
852.62500000
  0
CIRCLE
  8
LAYER_1
 10
1585.50000000
 20
852.62500000
 40
6.00000000
  0
LINE
  8
LAYER_2
 10
1596.50000000
 20
852.62500000
 11
1596.50000000
 21
755.75000000
  0
LINE
  8
LAYER_2
 10
1595.06299213
 20
761.75000000
 11
1596.50000000
 21
755.75000000
  0
LINE
  8
LAYER_2
 10
1597.93700787
 20
761.75000000
 11
1596.50000000
 21
755.75000000
  0
LINE
  8
LAYER_2
 10
1597.93700787
 20
846.62500000
 11
1596.50000000
 21
852.62500000
  0
LINE
  8
LAYER_2
 10
1595.06299213
 20
846.62500000
 11
1596.50000000
 21
852.62500000
  0
LINE
  8
LAYER_2
 10
1196.12500000
 20
852.37500000
 11
1196.12500000
 21
675.87500000
  0
LINE
  8
LAYER_2
 10
1194.68799213
 20
681.87500000
 11
1196.12500000
 21
675.87500000
  0
LINE
  8
LAYER_2
 10
1197.56200787
 20
681.87500000
 11
1196.12500000
 21
675.87500000
  0
LINE
  8
LAYER_2
 10
1197.56200787
 20
846.37500000
 11
1196.12500000
 21
852.37500000
  0
LINE
  8
LAYER_2
 10
1194.68799213
 20
846.37500000
 11
1196.12500000
 21
852.37500000
  0
LINE
  8
LAYER_2
 10
1196.12500000
 20
675.87500000
 11
1196.12500000
 21
564.50000000
  0
LINE
  8
LAYER_2
 10
1194.68799213
 20
570.50000000
 11
1196.12500000
 21
564.50000000
  0
LINE
  8
LAYER_2
 10
1197.56200787
 20
570.50000000
 11
1196.12500000
 21
564.50000000
  0
LINE
  8
LAYER_2
 10
1197.56200787
 20
669.87500000
 11
1196.12500000
 21
675.87500000
  0
LINE
  8
LAYER_2
 10
1194.68799213
 20
669.87500000
 11
1196.12500000
 21
675.87500000
  0
LINE
  8
LAYER_2
 10
1205.50000000
 20
857.75000000
 11
1334.37500000
 21
857.75000000
  0
LINE
  8
LAYER_2
 10
1328.37500000
 20
856.31299213
 11
1334.37500000
 21
857.75000000
  0
LINE
  8
LAYER_2
 10
1328.37500000
 20
859.18700787
 11
1334.37500000
 21
857.75000000
  0
LINE
  8
LAYER_2
 10
1211.50000000
 20
859.18700787
 11
1205.50000000
 21
857.75000000
  0
LINE
  8
LAYER_2
 10
1211.50000000
 20
856.31299213
 11
1205.50000000
 21
857.75000000
  0
LINE
  8
LAYER_2
 10
1334.37500000
 20
857.75000000
 11
1446.25000000
 21
857.75000000
  0
LINE
  8
LAYER_2
 10
1440.25000000
 20
856.31299213
 11
1446.25000000
 21
857.75000000
  0
LINE
  8
LAYER_2
 10
1440.25000000
 20
859.18700787
 11
1446.25000000
 21
857.75000000
  0
LINE
  8
LAYER_2
 10
1340.37500000
 20
859.18700787
 11
1334.37500000
 21
857.75000000
  0
LINE
  8
LAYER_2
 10
1340.37500000
 20
856.31299213
 11
1334.37500000
 21
857.75000000
  0
LINE
  8
LAYER_2
 10
1185.87500000
 20
852.50000000
 11
1185.87500000
 21
755.75000000
  0
LINE
  8
LAYER_2
 10
1184.43799213
 20
761.75000000
 11
1185.87500000
 21
755.75000000
  0
LINE
  8
LAYER_2
 10
1187.31200787
 20
761.75000000
 11
1185.87500000
 21
755.75000000
  0
LINE
  8
LAYER_2
 10
1187.31200787
 20
846.50000000
 11
1185.87500000
 21
852.50000000
  0
LINE
  8
LAYER_2
 10
1184.43799213
 20
846.50000000
 11
1185.87500000
 21
852.50000000
  0
LINE
  8
LAYER_2
 10
1606.37500000
 20
852.62500000
 11
1606.37500000
 21
676.00000000
  0
LINE
  8
LAYER_2
 10
1604.93823819
 20
682.00000000
 11
1606.37500000
 21
676.00000000
  0
LINE
  8
LAYER_2
 10
1607.81176181
 20
682.00000000
 11
1606.37500000
 21
676.00000000
  0
LINE
  8
LAYER_2
 10
1607.81176181
 20
846.62500000
 11
1606.37500000
 21
852.62500000
  0
LINE
  8
LAYER_2
 10
1604.93823819
 20
846.62500000
 11
1606.37500000
 21
852.62500000
  0
LINE
  8
LAYER_2
 10
1606.37500000
 20
675.87500000
 11
1606.37500000
 21
564.62500000
  0
LINE
  8
LAYER_2
 10
1604.93799213
 20
570.62500000
 11
1606.37500000
 21
564.62500000
  0
LINE
  8
LAYER_2
 10
1607.81200787
 20
570.62500000
 11
1606.37500000
 21
564.62500000
  0
LINE
  8
LAYER_2
 10
1607.81200787
 20
669.87500000
 11
1606.37500000
 21
675.87500000
  0
LINE
  8
LAYER_2
 10
1604.93799213
 20
669.87500000
 11
1606.37500000
 21
675.87500000
  0
LINE
  8
LAYER_2
 10
1205.50000000
 20
868.25000000
 11
1318.25000000
 21
868.25000000
  0
LINE
  8
LAYER_2
 10
1312.25000000
 20
866.81299213
 11
1318.25000000
 21
868.25000000
  0
LINE
  8
LAYER_2
 10
1312.25000000
 20
869.68700787
 11
1318.25000000
 21
868.25000000
  0
LINE
  8
LAYER_2
 10
1211.50000000
 20
869.68700787
 11
1205.50000000
 21
868.25000000
  0
LINE
  8
LAYER_2
 10
1211.50000000
 20
866.81299213
 11
1205.50000000
 21
868.25000000
  0
LINE
  8
LAYER_2
 10
1318.12500000
 20
868.25000000
 11
1478.37500000
 21
868.25000000
  0
LINE
  8
LAYER_2
 10
1472.37500000
 20
866.81299213
 11
1478.37500000
 21
868.25000000
  0
LINE
  8
LAYER_2
 10
1472.37500000
 20
869.68700787
 11
1478.37500000
 21
868.25000000
  0
LINE
  8
LAYER_2
 10
1324.12500000
 20
869.68700787
 11
1318.12500000
 21
868.25000000
  0
LINE
  8
LAYER_2
 10
1324.12500000
 20
866.81299213
 11
1318.12500000
 21
868.25000000
  0
LINE
  8
LAYER_2
 10
1201.50000000
 20
878.75000000
 11
1301.62500000
 21
878.75000000
  0
LINE
  8
LAYER_2
 10
1295.62500000
 20
877.31299213
 11
1301.62500000
 21
878.75000000
  0
LINE
  8
LAYER_2
 10
1295.62500000
 20
880.18700787
 11
1301.62500000
 21
878.75000000
  0
LINE
  8
LAYER_2
 10
1207.50000000
 20
880.18700787
 11
1201.50000000
 21
878.75000000
  0
LINE
  8
LAYER_2
 10
1207.50000000
 20
877.31299213
 11
1201.50000000
 21
878.75000000
  0
LINE
  8
LAYER_2
 10
1302.25000000
 20
878.75000000
 11
1513.37500000
 21
878.75000000
  0
LINE
  8
LAYER_2
 10
1507.37500000
 20
877.31299213
 11
1513.37500000
 21
878.75000000
  0
LINE
  8
LAYER_2
 10
1507.37500000
 20
880.18700787
 11
1513.37500000
 21
878.75000000
  0
LINE
  8
LAYER_2
 10
1308.25000000
 20
880.18700787
 11
1302.25000000
 21
878.75000000
  0
LINE
  8
LAYER_2
 10
1308.25000000
 20
877.31299213
 11
1302.25000000
 21
878.75000000
  0
LINE
  8
LAYER_2
 10
1176.12500000
 20
848.62500000
 11
1176.12500000
 21
707.87500000
  0
LINE
  8
LAYER_2
 10
1174.68799213
 20
713.87500000
 11
1176.12500000
 21
707.87500000
  0
LINE
  8
LAYER_2
 10
1177.56200787
 20
713.87500000
 11
1176.12500000
 21
707.87500000
  0
LINE
  8
LAYER_2
 10
1177.56200787
 20
842.62500000
 11
1176.12500000
 21
848.62500000
  0
LINE
  8
LAYER_2
 10
1174.68799213
 20
842.62500000
 11
1176.12500000
 21
848.62500000
  0
LINE
  8
LAYER_2
 10
1176.12500000
 20
707.87500000
 11
1176.12500000
 21
568.87500000
  0
LINE
  8
LAYER_2
 10
1174.68799213
 20
574.87500000
 11
1176.12500000
 21
568.87500000
  0
LINE
  8
LAYER_2
 10
1177.56200787
 20
574.87500000
 11
1176.12500000
 21
568.87500000
  0
LINE
  8
LAYER_2
 10
1177.56200787
 20
701.87500000
 11
1176.12500000
 21
707.87500000
  0
LINE
  8
LAYER_2
 10
1174.68799213
 20
701.87500000
 11
1176.12500000
 21
707.87500000
  0
LINE
  8
LAYER_2
 10
1616.50000000
 20
848.75000000
 11
1616.50000000
 21
707.87500000
  0
LINE
  8
LAYER_2
 10
1615.06299213
 20
713.87500000
 11
1616.50000000
 21
707.87500000
  0
LINE
  8
LAYER_2
 10
1617.93700787
 20
713.87500000
 11
1616.50000000
 21
707.87500000
  0
LINE
  8
LAYER_2
 10
1617.93700787
 20
842.75000000
 11
1616.50000000
 21
848.75000000
  0
LINE
  8
LAYER_2
 10
1615.06299213
 20
842.75000000
 11
1616.50000000
 21
848.75000000
  0
LINE
  8
LAYER_2
 10
1616.50000000
 20
707.87500000
 11
1616.50000000
 21
568.87500000
  0
LINE
  8
LAYER_2
 10
1615.06299213
 20
574.87500000
 11
1616.50000000
 21
568.87500000
  0
LINE
  8
LAYER_2
 10
1617.93700787
 20
574.87500000
 11
1616.50000000
 21
568.87500000
  0
LINE
  8
LAYER_2
 10
1617.93700787
 20
701.87500000
 11
1616.50000000
 21
707.87500000
  0
LINE
  8
LAYER_2
 10
1615.06299213
 20
701.87500000
 11
1616.50000000
 21
707.87500000
  0
LINE
  8
LAYER_2
 10
1185.87500000
 20
756.00000000
 11
1185.87500000
 21
564.87500000
  0
LINE
  8
LAYER_2
 10
1184.43799213
 20
570.87500000
 11
1185.87500000
 21
564.87500000
  0
LINE
  8
LAYER_2
 10
1187.31200787
 20
570.87500000
 11
1185.87500000
 21
564.87500000
  0
LINE
  8
LAYER_2
 10
1187.31200787
 20
750.00000000
 11
1185.87500000
 21
756.00000000
  0
LINE
  8
LAYER_2
 10
1184.43799213
 20
750.00000000
 11
1185.87500000
 21
756.00000000
  0
LINE
  8
LAYER_2
 10
1596.50000000
 20
756.00000000
 11
1596.50000000
 21
564.62500000
  0
LINE
  8
LAYER_2
 10
1595.06299213
 20
570.62500000
 11
1596.50000000
 21
564.62500000
  0
LINE
  8
LAYER_2
 10
1597.93700787
 20
570.62500000
 11
1596.50000000
 21
564.62500000
  0
LINE
  8
LAYER_2
 10
1597.93700787
 20
750.00000000
 11
1596.50000000
 21
756.00000000
  0
LINE
  8
LAYER_2
 10
1595.06299213
 20
750.00000000
 11
1596.50000000
 21
756.00000000
  0
LINE
  8
LAYER_2
 10
1446.25000000
 20
857.75000000
 11
1581.37500000
 21
857.75000000
  0
LINE
  8
LAYER_2
 10
1575.37500000
 20
856.31299213
 11
1581.37500000
 21
857.75000000
  0
LINE
  8
LAYER_2
 10
1575.37500000
 20
859.18700787
 11
1581.37500000
 21
857.75000000
  0
LINE
  8
LAYER_2
 10
1452.25000000
 20
859.18700787
 11
1446.25000000
 21
857.75000000
  0
LINE
  8
LAYER_2
 10
1452.25000000
 20
856.31299213
 11
1446.25000000
 21
857.75000000
  0
LINE
  8
LAYER_2
 10
1478.25000000
 20
868.25000000
 11
1581.37500000
 21
868.25000000
  0
LINE
  8
LAYER_2
 10
1575.37500000
 20
866.81299213
 11
1581.37500000
 21
868.25000000
  0
LINE
  8
LAYER_2
 10
1575.37500000
 20
869.68700787
 11
1581.37500000
 21
868.25000000
  0
LINE
  8
LAYER_2
 10
1484.25000000
 20
869.68700787
 11
1478.25000000
 21
868.25000000
  0
LINE
  8
LAYER_2
 10
1484.25000000
 20
866.81299213
 11
1478.25000000
 21
868.25000000
  0
LINE
  8
LAYER_2
 10
1513.37500000
 20
878.75000000
 11
1585.37500000
 21
878.75000000
  0
LINE
  8
LAYER_2
 10
1579.37500000
 20
877.31299213
 11
1585.37500000
 21
878.75000000
  0
LINE
  8
LAYER_2
 10
1579.37500000
 20
880.18700787
 11
1585.37500000
 21
878.75000000
  0
LINE
  8
LAYER_2
 10
1519.37500000
 20
880.18700787
 11
1513.37500000
 21
878.75000000
  0
LINE
  8
LAYER_2
 10
1519.37500000
 20
877.31299213
 11
1513.37500000
 21
878.75000000
  0
LINE
  8
LAYER_2
 10
1452.87500000
 20
553.87500000
 11
1581.75000000
 21
553.87500000
  0
LINE
  8
LAYER_2
 10
1575.75000000
 20
552.43799213
 11
1581.75000000
 21
553.87500000
  0
LINE
  8
LAYER_2
 10
1575.75000000
 20
555.31200787
 11
1581.75000000
 21
553.87500000
  0
LINE
  8
LAYER_2
 10
1458.87500000
 20
555.31200787
 11
1452.87500000
 21
553.87500000
  0
LINE
  8
LAYER_2
 10
1458.87500000
 20
552.43799213
 11
1452.87500000
 21
553.87500000
  0
LINE
  8
LAYER_2
 10
1341.00000000
 20
553.87500000
 11
1452.87500000
 21
553.87500000
  0
LINE
  8
LAYER_2
 10
1446.87500000
 20
552.43799213
 11
1452.87500000
 21
553.87500000
  0
LINE
  8
LAYER_2
 10
1446.87500000
 20
555.31200787
 11
1452.87500000
 21
553.87500000
  0
LINE
  8
LAYER_2
 10
1347.00000000
 20
555.31200787
 11
1341.00000000
 21
553.87500000
  0
LINE
  8
LAYER_2
 10
1347.00000000
 20
552.43799213
 11
1341.00000000
 21
553.87500000
  0
LINE
  8
LAYER_2
 10
1469.00000000
 20
543.87500000
 11
1581.75000000
 21
543.87500000
  0
LINE
  8
LAYER_2
 10
1575.75000000
 20
542.43799213
 11
1581.75000000
 21
543.87500000
  0
LINE
  8
LAYER_2
 10
1575.75000000
 20
545.31200787
 11
1581.75000000
 21
543.87500000
  0
LINE
  8
LAYER_2
 10
1475.00000000
 20
545.31200787
 11
1469.00000000
 21
543.87500000
  0
LINE
  8
LAYER_2
 10
1475.00000000
 20
542.43799213
 11
1469.00000000
 21
543.87500000
  0
LINE
  8
LAYER_2
 10
1308.87500000
 20
543.87500000
 11
1469.12500000
 21
543.87500000
  0
LINE
  8
LAYER_2
 10
1463.12500000
 20
542.43799213
 11
1469.12500000
 21
543.87500000
  0
LINE
  8
LAYER_2
 10
1463.12500000
 20
545.31200787
 11
1469.12500000
 21
543.87500000
  0
LINE
  8
LAYER_2
 10
1314.87500000
 20
545.31200787
 11
1308.87500000
 21
543.87500000
  0
LINE
  8
LAYER_2
 10
1314.87500000
 20
542.43799213
 11
1308.87500000
 21
543.87500000
  0
LINE
  8
LAYER_2
 10
1485.62500000
 20
533.87500000
 11
1585.75000000
 21
533.87500000
  0
LINE
  8
LAYER_2
 10
1579.75000000
 20
532.43799213
 11
1585.75000000
 21
533.87500000
  0
LINE
  8
LAYER_2
 10
1579.75000000
 20
535.31200787
 11
1585.75000000
 21
533.87500000
  0
LINE
  8
LAYER_2
 10
1491.62500000
 20
535.31200787
 11
1485.62500000
 21
533.87500000
  0
LINE
  8
LAYER_2
 10
1491.62500000
 20
532.43799213
 11
1485.62500000
 21
533.87500000
  0
LINE
  8
LAYER_2
 10
1273.87500000
 20
533.87500000
 11
1485.00000000
 21
533.87500000
  0
LINE
  8
LAYER_2
 10
1479.00000000
 20
532.43799213
 11
1485.00000000
 21
533.87500000
  0
LINE
  8
LAYER_2
 10
1479.00000000
 20
535.31200787
 11
1485.00000000
 21
533.87500000
  0
LINE
  8
LAYER_2
 10
1279.87500000
 20
535.31200787
 11
1273.87500000
 21
533.87500000
  0
LINE
  8
LAYER_2
 10
1279.87500000
 20
532.43799213
 11
1273.87500000
 21
533.87500000
  0
LINE
  8
LAYER_2
 10
1205.87500000
 20
553.87500000
 11
1341.00000000
 21
553.87500000
  0
LINE
  8
LAYER_2
 10
1335.00000000
 20
552.43799213
 11
1341.00000000
 21
553.87500000
  0
LINE
  8
LAYER_2
 10
1335.00000000
 20
555.31200787
 11
1341.00000000
 21
553.87500000
  0
LINE
  8
LAYER_2
 10
1211.87500000
 20
555.31200787
 11
1205.87500000
 21
553.87500000
  0
LINE
  8
LAYER_2
 10
1211.87500000
 20
552.43799213
 11
1205.87500000
 21
553.87500000
  0
LINE
  8
LAYER_2
 10
1205.87500000
 20
543.87500000
 11
1309.00000000
 21
543.87500000
  0
LINE
  8
LAYER_2
 10
1303.00000000
 20
542.43799213
 11
1309.00000000
 21
543.87500000
  0
LINE
  8
LAYER_2
 10
1303.00000000
 20
545.31200787
 11
1309.00000000
 21
543.87500000
  0
LINE
  8
LAYER_2
 10
1211.87500000
 20
545.31200787
 11
1205.87500000
 21
543.87500000
  0
LINE
  8
LAYER_2
 10
1211.87500000
 20
542.43799213
 11
1205.87500000
 21
543.87500000
  0
LINE
  8
LAYER_2
 10
1201.87500000
 20
533.87500000
 11
1273.87500000
 21
533.87500000
  0
LINE
  8
LAYER_2
 10
1267.87500000
 20
532.43799213
 11
1273.87500000
 21
533.87500000
  0
LINE
  8
LAYER_2
 10
1267.87500000
 20
535.31200787
 11
1273.87500000
 21
533.87500000
  0
LINE
  8
LAYER_2
 10
1207.87500000
 20
535.31200787
 11
1201.87500000
 21
533.87500000
  0
LINE
  8
LAYER_2
 10
1207.87500000
 20
532.43799213
 11
1201.87500000
 21
533.87500000
  0
LINE
  8
LAYER_5
 10
1223.62500000
 20
559.62500000
 11
1223.62500000
 21
568.62500000
  0
LINE
  8
LAYER_5
 10
1323.62500000
 20
559.62500000
 11
1323.62500000
 21
568.62500000
  0
LINE
  8
LAYER_5
 10
1223.62500000
 20
559.62500000
 11
1225.62500000
 21
559.62500000
  0
LINE
  8
LAYER_5
 10
1223.62500000
 20
568.62500000
 11
1225.62500000
 21
568.62500000
  0
LINE
  8
LAYER_5
 10
1323.62500000
 20
568.62500000
 11
1321.62500000
 21
568.62500000
  0
LINE
  8
LAYER_5
 10
1323.62500000
 20
559.62500000
 11
1321.62500000
 21
559.62500000
  0
LINE
  8
LAYER_5
 10
1223.62500000
 20
568.62500000
 11
1223.62500000
 21
559.62500000
  0
LINE
  8
LAYER_5
 10
1225.62500000
 20
568.62500000
 11
1225.62500000
 21
559.62500000
  0
LINE
  8
LAYER_5
 10
1323.62500000
 20
568.62500000
 11
1323.62500000
 21
559.62500000
  0
LINE
  8
LAYER_5
 10
1321.62500000
 20
568.62500000
 11
1321.62500000
 21
559.62500000
  0
LINE
  8
LAYER_5
 10
1225.62500000
 20
568.62500000
 11
1321.62500000
 21
568.62500000
  0
LINE
  8
LAYER_5
 10
1225.62500000
 20
569.62500000
 11
1321.62500000
 21
569.62500000
  0
LINE
  8
LAYER_5
 10
1225.62500000
 20
568.62500000
 11
1225.62500000
 21
569.62500000
  0
LINE
  8
LAYER_5
 10
1321.62500000
 20
568.62500000
 11
1321.62500000
 21
569.62500000
  0
TEXT
  1
8' 0"
  7
SPSIMP
  8
LAYER_5
 10
1268.43750000
 20
556.66510827
 40
2.54689338
 50
0.00000000
  0
LINE
  8
LAYER_5
 10
1590.50000000
 20
732.62500000
 11
1581.50000000
 21
732.62500000
  0
LINE
  8
LAYER_5
 10
1590.50000000
 20
684.62500000
 11
1581.50000000
 21
684.62500000
  0
LINE
  8
LAYER_5
 10
1590.50000000
 20
732.62500000
 11
1590.50000000
 21
684.62500000
  0
LINE
  8
LAYER_5
 10
1581.50000000
 20
732.62500000
 11
1581.50000000
 21
684.62500000
  0
LINE
  8
LAYER_5
 10
1590.50000000
 20
732.62500000
 11
1581.50000000
 21
732.62500000
  0
LINE
  8
LAYER_5
 10
1590.50000000
 20
730.62500000
 11
1581.50000000
 21
730.62500000
  0
LINE
  8
LAYER_5
 10
1590.50000000
 20
684.62500000
 11
1581.50000000
 21
684.62500000
  0
LINE
  8
LAYER_5
 10
1590.50000000
 20
686.62500000
 11
1581.50000000
 21
686.62500000
  0
LINE
  8
LAYER_5
 10
1586.00000000
 20
730.62500000
 11
1586.00000000
 21
686.62500000
  0
LINE
  8
LAYER_5
 10
1590.50000000
 20
732.62500000
 11
1590.50000000
 21
684.62500000
  0
LINE
  8
LAYER_5
 10
1581.50000000
 20
732.62500000
 11
1581.50000000
 21
684.62500000
  0
TEXT
  1
4' 0" x 3' 0"
  7
SPSIMP
  8
LAYER_5
 10
1593.45989173
 20
694.81250000
 40
2.54689338
 50
90.00000000
  0
LINE
  8
LAYER_5
 10
1196.50000000
 20
834.87500000
 11
1205.50000000
 21
834.87500000
  0
LINE
  8
LAYER_5
 10
1196.50000000
 20
798.37500000
 11
1205.50000000
 21
798.37500000
  0
LINE
  8
LAYER_5
 10
1205.50000000
 20
834.87500000
 11
1205.50000000
 21
832.87500000
  0
LINE
  8
LAYER_5
 10
1196.50000000
 20
834.87500000
 11
1196.50000000
 21
832.87500000
  0
LINE
  8
LAYER_5
 10
1196.50000000
 20
798.37500000
 11
1196.50000000
 21
800.37500000
  0
LINE
  8
LAYER_5
 10
1205.50000000
 20
798.37500000
 11
1205.50000000
 21
800.37500000
  0
LINE
  8
LAYER_5
 10
1196.50000000
 20
834.87500000
 11
1205.50000000
 21
834.87500000
  0
LINE
  8
LAYER_5
 10
1196.50000000
 20
832.87500000
 11
1205.50000000
 21
832.87500000
  0
LINE
  8
LAYER_5
 10
1196.50000000
 20
798.37500000
 11
1205.50000000
 21
798.37500000
  0
LINE
  8
LAYER_5
 10
1196.50000000
 20
800.37500000
 11
1205.50000000
 21
800.37500000
  0
LINE
  8
LAYER_5
 10
1205.50000000
 20
832.87500000
 11
1221.75000000
 21
804.72908465
  0
LINE
  8
LAYER_5
 10
1204.63385827
 20
832.37500000
 11
1220.88385827
 21
804.22908465
  0
LINE
  8
LAYER_5
 10
1204.63385827
 20
832.37500000
 11
1205.50000000
 21
832.87500000
  0
LINE
  8
LAYER_5
 10
1220.88385827
 20
804.22908465
 11
1221.75000000
 21
804.72908465
  0
ARC
  8
LAYER_5
 10
1205.50123031
 20
832.87155512
 40
32.49630906
 50
269.60472411
 51
300.00107920
  0
LINE
  8
LAYER_5
 10
1196.50000000
 20
834.87500000
 11
1196.50000000
 21
798.37500000
  0
TEXT
  1
2' 8"
  7
SPSIMP
  8
LAYER_5
 10
1201.52829724
 20
811.43750000
 40
2.54689338
 50
90.00000000
  0
LINE
  8
LAYER_5
 10
1343.50000000
 20
559.62500000
 11
1343.50000000
 21
568.62500000
  0
LINE
  8
LAYER_5
 10
1443.50000000
 20
559.62500000
 11
1443.50000000
 21
568.62500000
  0
LINE
  8
LAYER_5
 10
1343.50000000
 20
559.62500000
 11
1345.50000000
 21
559.62500000
  0
LINE
  8
LAYER_5
 10
1343.50000000
 20
568.62500000
 11
1345.50000000
 21
568.62500000
  0
LINE
  8
LAYER_5
 10
1443.50000000
 20
568.62500000
 11
1441.50000000
 21
568.62500000
  0
LINE
  8
LAYER_5
 10
1443.50000000
 20
559.62500000
 11
1441.50000000
 21
559.62500000
  0
LINE
  8
LAYER_5
 10
1343.50000000
 20
568.62500000
 11
1343.50000000
 21
559.62500000
  0
LINE
  8
LAYER_5
 10
1345.50000000
 20
568.62500000
 11
1345.50000000
 21
559.62500000
  0
LINE
  8
LAYER_5
 10
1443.50000000
 20
568.62500000
 11
1443.50000000
 21
559.62500000
  0
LINE
  8
LAYER_5
 10
1441.50000000
 20
568.62500000
 11
1441.50000000
 21
559.62500000
  0
LINE
  8
LAYER_5
 10
1345.50000000
 20
568.62500000
 11
1441.50000000
 21
568.62500000
  0
LINE
  8
LAYER_5
 10
1345.50000000
 20
569.62500000
 11
1441.50000000
 21
569.62500000
  0
LINE
  8
LAYER_5
 10
1345.50000000
 20
568.62500000
 11
1345.50000000
 21
569.62500000
  0
LINE
  8
LAYER_5
 10
1441.50000000
 20
568.62500000
 11
1441.50000000
 21
569.62500000
  0
TEXT
  1
8' 0"
  7
SPSIMP
  8
LAYER_5
 10
1388.31250000
 20
556.66510827
 40
2.54689338
 50
0.00000000
  0
LINE
  8
LAYER_5
 10
1465.25000000
 20
559.62500000
 11
1465.25000000
 21
568.62500000
  0
LINE
  8
LAYER_5
 10
1565.25000000
 20
559.62500000
 11
1565.25000000
 21
568.62500000
  0
LINE
  8
LAYER_5
 10
1465.25000000
 20
559.62500000
 11
1467.25000000
 21
559.62500000
  0
LINE
  8
LAYER_5
 10
1465.25000000
 20
568.62500000
 11
1467.25000000
 21
568.62500000
  0
LINE
  8
LAYER_5
 10
1565.25000000
 20
568.62500000
 11
1563.25000000
 21
568.62500000
  0
LINE
  8
LAYER_5
 10
1565.25000000
 20
559.62500000
 11
1563.25000000
 21
559.62500000
  0
LINE
  8
LAYER_5
 10
1465.25000000
 20
568.62500000
 11
1465.25000000
 21
559.62500000
  0
LINE
  8
LAYER_5
 10
1467.25000000
 20
568.62500000
 11
1467.25000000
 21
559.62500000
  0
LINE
  8
LAYER_5
 10
1565.25000000
 20
568.62500000
 11
1565.25000000
 21
559.62500000
  0
LINE
  8
LAYER_5
 10
1563.25000000
 20
568.62500000
 11
1563.25000000
 21
559.62500000
  0
LINE
  8
LAYER_5
 10
1467.25000000
 20
568.62500000
 11
1563.25000000
 21
568.62500000
  0
LINE
  8
LAYER_5
 10
1467.25000000
 20
569.62500000
 11
1563.25000000
 21
569.62500000
  0
LINE
  8
LAYER_5
 10
1467.25000000
 20
568.62500000
 11
1467.25000000
 21
569.62500000
  0
LINE
  8
LAYER_5
 10
1563.25000000
 20
568.62500000
 11
1563.25000000
 21
569.62500000
  0
TEXT
  1
8' 0"
  7
SPSIMP
  8
LAYER_5
 10
1510.06250000
 20
556.66510827
 40
2.54689338
 50
0.00000000
  0
LINE
  8
LAYER_4
 10
1189.25000000
 20
874.96579724
 11
1196.12500000
 21
874.75000000
  0
LINE
  8
LAYER_4
 10
1196.12500000
 20
874.75000000
 11
1200.75000000
 21
875.37500000
  0
LINE
  8
LAYER_4
 10
1194.99655512
 20
873.14763780
 11
1200.75000000
 21
875.37500000
  0
LINE
  8
LAYER_4
 10
1194.61171260
 20
875.99557087
 11
1200.75000000
 21
875.37500000
  0
LINE
  8
LAYER_4
 10
1289.75024606
 20
744.69881890
 11
1236.75000000
 21
744.00000000
  0
LINE
  8
LAYER_4
 10
1236.75000000
 20
744.00000000
 11
1206.25000000
 21
744.00000000
  0
LINE
  8
LAYER_4
 10
1212.25000000
 20
745.43700787
 11
1206.25000000
 21
744.00000000
  0
LINE
  8
LAYER_4
 10
1212.25000000
 20
742.56299213
 11
1206.25000000
 21
744.00000000
  0
LINE
  8
LAYER_4
 10
1398.87475394
 20
744.69881890
 11
1411.75000000
 21
744.50000000
  0
LINE
  8
LAYER_4
 10
1411.75000000
 20
744.50000000
 11
1580.25000000
 21
744.25000000
  0
LINE
  8
LAYER_4
 10
1574.24827756
 20
742.82209646
 11
1580.25000000
 21
744.25000000
  0
LINE
  8
LAYER_4
 10
1574.25221457
 20
745.69562008
 11
1580.25000000
 21
744.25000000
  0
LINE
  8
LAYER_4
 10
1576.75000000
 20
516.96579724
 11
1581.00000000
 21
521.00000000
  0
LINE
  8
LAYER_4
 10
1581.00000000
 20
521.00000000
 11
1585.12500000
 21
529.87500000
  0
LINE
  8
LAYER_4
 10
1583.89911417
 20
523.82849409
 11
1585.12500000
 21
529.87500000
  0
LINE
  8
LAYER_4
 10
1581.29330709
 20
525.03961614
 11
1585.12500000
 21
529.87500000
  0
ENDSEC
  0
EOF
